<?xml version="1.0" encoding="UTF-8"?>
<svg xmlns="http://www.w3.org/2000/svg" xmlns:xlink="http://www.w3.org/1999/xlink" width="60pt" height="60pt" viewBox="0 0 60 60" version="1.1">
<g id="surface1">
<path style=" stroke:none;fill-rule:nonzero;fill:rgb(68.627451%,90.196078%,100%);fill-opacity:1;" d="M 30 0.753906 C 18.601562 0.753906 11.578125 7.183594 11.558594 7.195312 C 11.558594 7.195312 11.265625 7.558594 11.210938 7.800781 C 10.769531 9.769531 10.355469 12.410156 10.355469 14.335938 C 10.355469 30.695312 24.152344 43.953125 40.511719 43.953125 C 46.8125 43.953125 53.820312 40.933594 58.511719 37.304688 C 58.617188 37.222656 58.949219 36.675781 58.949219 36.675781 C 58.96875 36.550781 59.625 33.949219 59.625 30.375 C 59.625 14.015625 46.359375 0.753906 30 0.753906 Z M 30 0.753906 "/>
<path style=" stroke:none;fill-rule:nonzero;fill:rgb(45.098039%,78.431373%,94.117647%);fill-opacity:1;" d="M 40.507812 43.117188 C 24.148438 43.117188 10.886719 29.855469 10.886719 13.496094 C 10.886719 11.332031 11.117188 9.226562 11.558594 7.195312 C 4.746094 12.621094 0.375 20.988281 0.375 30.375 C 0.375 37.503906 2.894531 44.042969 7.085938 49.152344 L 52.914062 49.152344 C 55.824219 45.605469 57.933594 41.359375 58.949219 36.675781 C 53.890625 40.707031 47.480469 43.117188 40.507812 43.117188 Z M 40.507812 43.117188 "/>
<path style=" stroke:none;fill-rule:nonzero;fill:rgb(100%,58.823529%,35.294118%);fill-opacity:1;" d="M 42.144531 24.355469 L 42.027344 24.355469 L 41.222656 20.410156 L 42.027344 17.152344 L 42.144531 17.152344 C 43.710938 17.152344 44.984375 18.425781 44.984375 19.996094 L 44.984375 21.515625 C 44.984375 23.082031 43.710938 24.355469 42.144531 24.355469 Z M 42.144531 24.355469 "/>
<path style=" stroke:none;fill-rule:nonzero;fill:rgb(100%,23.529412%,23.529412%);fill-opacity:1;" d="M 44.984375 40.511719 C 44.984375 33.929688 38.386719 28.59375 30.253906 28.59375 C 22.117188 28.59375 15.519531 33.929688 15.519531 40.511719 C 15.519531 47.09375 22.117188 52.425781 30.253906 52.425781 C 38.386719 52.425781 44.984375 47.09375 44.984375 40.511719 Z M 44.984375 40.511719 "/>
<path style=" stroke:none;fill-rule:nonzero;fill:rgb(100%,23.529412%,23.529412%);fill-opacity:1;" d="M 46.082031 39.386719 L 45.808594 39.328125 L 36.378906 38.878906 C 27.316406 38.453125 19.734375 45.683594 19.734375 54.753906 L 19.734375 58.171875 C 22.933594 59.351562 26.390625 60 30 60 C 39.179688 60 47.457031 55.804688 52.914062 49.152344 L 52.914062 47.894531 C 52.914062 43.808594 50.074219 40.269531 46.082031 39.386719 Z M 46.082031 39.386719 "/>
<path style=" stroke:none;fill-rule:nonzero;fill:rgb(86.27451%,7.843137%,15.686275%);fill-opacity:1;" d="M 30.273438 50.542969 C 39.148438 50.542969 46.34375 49.335938 46.34375 42.160156 C 46.34375 41.199219 46.210938 40.261719 45.96875 39.363281 L 29.964844 35.820312 L 13.914062 39.386719 C 9.894531 40.277344 7.085938 43.839844 7.085938 47.890625 L 7.085938 49.152344 C 10.429688 53.226562 14.832031 56.390625 19.878906 58.226562 C 21.171875 53.777344 25.285156 50.539062 30.148438 50.542969 C 30.191406 50.542969 30.234375 50.542969 30.273438 50.542969 Z M 30.273438 50.542969 "/>
<path style=" stroke:none;fill-rule:nonzero;fill:rgb(100%,23.529412%,23.529412%);fill-opacity:1;" d="M 44.984375 40.511719 C 44.984375 47.089844 38.386719 48.199219 30.253906 48.199219 C 22.117188 48.199219 15.519531 47.089844 15.519531 40.511719 C 15.519531 33.929688 22.117188 28.59375 30.253906 28.59375 C 38.386719 28.59375 44.984375 33.929688 44.984375 40.511719 Z M 44.984375 40.511719 "/>
<path style=" stroke:none;fill-rule:nonzero;fill:rgb(86.27451%,7.843137%,15.686275%);fill-opacity:1;" d="M 40.378906 38.898438 C 40.378906 43.421875 35.847656 47.089844 30.253906 47.089844 C 24.660156 47.089844 20.125 43.421875 20.125 38.898438 C 20.125 34.375 24.660156 35.46875 30.253906 35.46875 C 35.847656 35.46875 40.378906 34.375 40.378906 38.898438 Z M 40.378906 38.898438 "/>
<path style=" stroke:none;fill-rule:nonzero;fill:rgb(100%,58.823529%,35.294118%);fill-opacity:1;" d="M 30.027344 44.761719 C 32.386719 44.761719 34.296875 42.851562 34.296875 40.496094 L 34.296875 30.9375 L 25.761719 30.9375 L 25.761719 40.496094 C 25.761719 42.851562 27.671875 44.761719 30.027344 44.761719 Z M 30.027344 44.761719 "/>
<path style=" stroke:none;fill-rule:nonzero;fill:rgb(93.72549%,41.568627%,18.823529%);fill-opacity:1;" d="M 28.625 39.726562 C 27.632812 39.671875 26.675781 39.496094 25.761719 39.21875 L 25.761719 30.9375 L 33.585938 30.9375 L 34.296875 37.328125 C 33.246094 39.019531 30.308594 39.816406 28.625 39.726562 Z M 28.625 39.726562 "/>
<path style=" stroke:none;fill-rule:nonzero;fill:rgb(100%,74.509804%,50.980392%);fill-opacity:1;" d="M 41.605469 15.964844 C 41.605469 12.070312 39.105469 8.507812 35.210938 8.507812 L 24.84375 8.507812 C 23.734375 8.507812 22.714844 8.800781 21.828125 9.304688 L 21.828125 29.890625 C 21.828125 34.382812 25.441406 38.058594 29.933594 38.09375 C 29.964844 38.09375 29.996094 38.09375 30.027344 38.09375 C 36.71875 38.09375 42.144531 32.667969 42.144531 25.976562 L 42.144531 22.152344 Z M 41.605469 15.964844 "/>
<path style=" stroke:none;fill-rule:nonzero;fill:rgb(93.72549%,41.568627%,18.823529%);fill-opacity:1;" d="M 42.144531 22.121094 L 42.144531 19.390625 C 42.738281 19.390625 43.222656 19.871094 43.222656 20.464844 L 43.222656 21.042969 C 43.222656 21.636719 42.738281 22.121094 42.144531 22.121094 Z M 42.144531 22.121094 "/>
<path style=" stroke:none;fill-rule:nonzero;fill:rgb(100%,58.823529%,35.294118%);fill-opacity:1;" d="M 14.953125 21.515625 C 14.953125 23.082031 16.222656 24.355469 17.792969 24.355469 L 17.976562 24.355469 L 19.429688 21.292969 L 18 17.152344 L 17.792969 17.152344 C 16.222656 17.152344 14.953125 18.425781 14.953125 19.996094 Z M 14.953125 21.515625 "/>
<path style=" stroke:none;fill-rule:nonzero;fill:rgb(93.72549%,41.568627%,18.823529%);fill-opacity:1;" d="M 16.636719 21.0625 C 16.636719 21.703125 17.15625 22.21875 17.792969 22.21875 L 17.792969 19.289062 C 17.15625 19.289062 16.636719 19.808594 16.636719 20.445312 Z M 16.636719 21.0625 "/>
<path style=" stroke:none;fill-rule:nonzero;fill:rgb(100%,100%,100%);fill-opacity:1;" d="M 15.863281 22.367188 C 15.863281 23.433594 16.726562 24.296875 17.792969 24.296875 L 17.792969 20.460938 C 16.726562 20.460938 15.863281 21.324219 15.863281 22.390625 Z M 15.863281 22.367188 "/>
<path style=" stroke:none;fill-rule:nonzero;fill:rgb(100%,58.823529%,35.294118%);fill-opacity:1;" d="M 24.792969 21.449219 L 24.792969 22.304688 C 24.792969 22.859375 25.246094 23.3125 25.800781 23.3125 C 26.359375 23.3125 26.8125 22.859375 26.8125 22.304688 L 26.8125 21.449219 Z M 24.792969 21.449219 "/>
<path style=" stroke:none;fill-rule:nonzero;fill:rgb(100%,58.823529%,35.294118%);fill-opacity:1;" d="M 33.015625 21.449219 L 33.015625 22.304688 C 33.015625 22.859375 33.46875 23.3125 34.023438 23.3125 C 34.582031 23.3125 35.035156 22.859375 35.035156 22.304688 L 35.035156 21.449219 Z M 33.015625 21.449219 "/>
<path style=" stroke:none;fill-rule:nonzero;fill:rgb(21.568627%,23.529412%,25.490196%);fill-opacity:1;" d="M 25.800781 22.503906 C 25.246094 22.503906 24.792969 22.054688 24.792969 21.496094 L 24.792969 20.199219 L 25.164062 19.632812 L 24.792969 19.070312 L 24.792969 18.734375 C 24.792969 18.179688 25.246094 17.726562 25.800781 17.726562 C 26.359375 17.726562 26.8125 18.179688 26.8125 18.734375 L 26.8125 21.496094 C 26.8125 22.054688 26.359375 22.503906 25.800781 22.503906 Z M 25.800781 22.503906 "/>
<path style=" stroke:none;fill-rule:nonzero;fill:rgb(21.568627%,23.529412%,25.490196%);fill-opacity:1;" d="M 34.023438 22.503906 C 33.46875 22.503906 33.015625 22.054688 33.015625 21.496094 L 33.015625 20.199219 L 33.386719 19.632812 L 33.015625 19.070312 L 33.015625 18.734375 C 33.015625 18.179688 33.46875 17.726562 34.023438 17.726562 C 34.582031 17.726562 35.035156 18.179688 35.035156 18.734375 L 35.035156 21.496094 C 35.035156 22.054688 34.582031 22.503906 34.023438 22.503906 Z M 34.023438 22.503906 "/>
<path style=" stroke:none;fill-rule:nonzero;fill:rgb(21.568627%,23.529412%,25.490196%);fill-opacity:1;" d="M 27.132812 17.222656 L 24.1875 17.222656 C 23.632812 17.222656 23.179688 16.769531 23.179688 16.214844 C 23.179688 15.65625 23.632812 15.203125 24.1875 15.203125 L 27.132812 15.203125 C 27.6875 15.203125 28.140625 15.65625 28.140625 16.214844 C 28.140625 16.769531 27.6875 17.222656 27.132812 17.222656 Z M 27.132812 17.222656 "/>
<path style=" stroke:none;fill-rule:nonzero;fill:rgb(21.568627%,23.529412%,25.490196%);fill-opacity:1;" d="M 35.542969 17.222656 L 32.597656 17.222656 C 32.042969 17.222656 31.589844 16.769531 31.589844 16.214844 C 31.589844 15.65625 32.042969 15.203125 32.597656 15.203125 L 35.542969 15.203125 C 36.097656 15.203125 36.550781 15.65625 36.550781 16.214844 C 36.550781 16.769531 36.097656 17.222656 35.542969 17.222656 Z M 35.542969 17.222656 "/>
<path style=" stroke:none;fill-rule:nonzero;fill:rgb(74.509804%,7.843137%,13.72549%);fill-opacity:1;" d="M 33.742188 28.085938 L 32.703125 28.085938 L 29.96875 28.65625 L 27.230469 28.085938 L 26.3125 28.085938 C 26.003906 28.085938 25.757812 28.355469 25.800781 28.664062 C 25.878906 29.246094 26.074219 29.792969 26.367188 30.277344 L 31.90625 31.921875 C 33.15625 31.304688 34.0625 30.097656 34.257812 28.664062 C 34.296875 28.355469 34.050781 28.085938 33.742188 28.085938 Z M 33.742188 28.085938 "/>
<path style=" stroke:none;fill-rule:nonzero;fill:rgb(100%,58.823529%,35.294118%);fill-opacity:1;" d="M 40.175781 11.75 C 40.292969 11.75 40.40625 11.742188 40.519531 11.734375 C 39.429688 9.828125 37.582031 8.507812 35.210938 8.507812 L 24.84375 8.507812 C 23.734375 8.507812 22.714844 8.800781 21.828125 9.304688 L 21.828125 9.5625 C 19.546875 10.625 18.058594 12.902344 18.058594 15.695312 L 17.792969 22.152344 L 17.792969 25.855469 C 17.792969 32.851562 23.652344 38.449219 30.683594 38.074219 C 25.589844 36.59375 21.867188 31.894531 21.867188 26.324219 C 21.898438 25.636719 21.867188 18.964844 21.867188 16.429688 C 21.867188 16.414062 21.867188 16.394531 21.867188 16.378906 C 21.886719 13.800781 24.011719 11.734375 26.589844 11.734375 Z M 40.175781 11.75 "/>
<path style=" stroke:none;fill-rule:nonzero;fill:rgb(100%,58.823529%,35.294118%);fill-opacity:1;" d="M 28.394531 23.9375 C 28.140625 24.9375 28.597656 26.03125 29.46875 26.359375 C 29.644531 26.425781 29.832031 26.460938 30.027344 26.460938 C 30.222656 26.460938 30.410156 26.425781 30.585938 26.359375 C 31.457031 26.03125 31.914062 24.9375 31.664062 23.9375 L 30.832031 20.617188 C 30.621094 19.78125 29.433594 19.78125 29.226562 20.617188 Z M 28.394531 23.9375 "/>
<path style=" stroke:none;fill-rule:nonzero;fill:rgb(14.901961%,16.470588%,17.647059%);fill-opacity:1;" d="M 42.144531 9.242188 L 42.144531 22.152344 C 41.246094 22.152344 40.519531 21.425781 40.519531 20.53125 L 40.519531 13.363281 C 40.519531 11.78125 39.628906 10.324219 38.207031 9.628906 C 38.171875 9.613281 38.136719 9.597656 38.101562 9.582031 L 38.101562 9.242188 Z M 42.144531 9.242188 "/>
<path style=" stroke:none;fill-rule:nonzero;fill:rgb(100%,100%,100%);fill-opacity:1;" d="M 25.164062 20.570312 C 24.960938 20.570312 24.792969 20.402344 24.792969 20.199219 L 24.792969 19.070312 C 24.792969 18.867188 24.960938 18.699219 25.164062 18.699219 C 25.371094 18.699219 25.539062 18.867188 25.539062 19.070312 L 25.539062 20.199219 C 25.539062 20.402344 25.371094 20.570312 25.164062 20.570312 Z M 25.164062 20.570312 "/>
<path style=" stroke:none;fill-rule:nonzero;fill:rgb(100%,100%,100%);fill-opacity:1;" d="M 33.386719 20.570312 C 33.183594 20.570312 33.015625 20.402344 33.015625 20.199219 L 33.015625 19.070312 C 33.015625 18.867188 33.183594 18.699219 33.386719 18.699219 C 33.59375 18.699219 33.757812 18.867188 33.757812 19.070312 L 33.757812 20.199219 C 33.757812 20.402344 33.59375 20.570312 33.386719 20.570312 Z M 33.386719 20.570312 "/>
<path style=" stroke:none;fill-rule:nonzero;fill:rgb(100%,23.529412%,23.529412%);fill-opacity:1;" d="M 26.367188 30.277344 C 27.113281 31.523438 28.472656 32.355469 30.027344 32.355469 C 30.703125 32.355469 31.339844 32.199219 31.90625 31.917969 C 31.664062 30.390625 30.339844 29.222656 28.742188 29.222656 C 27.800781 29.222656 26.953125 29.628906 26.367188 30.277344 Z M 26.367188 30.277344 "/>
<path style=" stroke:none;fill-rule:nonzero;fill:rgb(100%,100%,100%);fill-opacity:1;" d="M 32.101562 29.222656 L 27.832031 29.222656 C 27.5 29.222656 27.230469 28.953125 27.230469 28.621094 L 27.230469 28.085938 L 32.703125 28.085938 L 32.703125 28.621094 C 32.703125 28.953125 32.433594 29.222656 32.101562 29.222656 Z M 32.101562 29.222656 "/>
<path style=" stroke:none;fill-rule:nonzero;fill:rgb(21.568627%,23.529412%,25.490196%);fill-opacity:1;" d="M 31.796875 0.0117188 C 28.328125 0.015625 25.542969 2.863281 25.605469 6.328125 C 25.628906 7.804688 25.667969 9.28125 25.730469 10.757812 C 25.730469 10.769531 25.730469 10.785156 25.730469 10.796875 L 40.175781 10.808594 C 42.6875 10.8125 44.726562 8.777344 44.726562 6.261719 L 44.726562 0 Z M 31.796875 0.0117188 "/>
<path style=" stroke:none;fill-rule:nonzero;fill:rgb(14.901961%,16.470588%,17.647059%);fill-opacity:1;" d="M 25.777344 6.929688 C 25.777344 3.113281 28.867188 0.0234375 32.683594 0.0195312 L 44.726562 0.0078125 L 44.726562 0 L 24.699219 0.0195312 C 20.882812 0.0234375 17.792969 3.113281 17.792969 6.929688 L 17.792969 22.152344 C 18.6875 22.152344 19.414062 21.425781 19.414062 20.53125 L 19.414062 13.363281 C 19.414062 13.355469 19.414062 13.34375 19.414062 13.335938 C 19.425781 11.921875 20.601562 10.789062 22.015625 10.792969 L 25.777344 10.796875 Z M 25.777344 6.929688 "/>
<path style=" stroke:none;fill-rule:nonzero;fill:rgb(86.27451%,7.843137%,15.686275%);fill-opacity:1;" d="M 24.441406 57.699219 C 24.050781 57.699219 23.734375 57.382812 23.734375 56.996094 L 23.734375 48.851562 C 23.734375 48.464844 24.050781 48.148438 24.441406 48.148438 C 24.828125 48.148438 25.144531 48.464844 25.144531 48.851562 L 25.144531 56.996094 C 25.144531 57.382812 24.828125 57.699219 24.441406 57.699219 Z M 24.441406 57.699219 "/>
<path style=" stroke:none;fill-rule:nonzero;fill:rgb(100%,100%,100%);fill-opacity:1;" d="M 24.441406 55.9375 C 24.050781 55.9375 23.734375 55.621094 23.734375 55.234375 L 23.734375 47.089844 C 23.734375 46.703125 24.050781 46.386719 24.441406 46.386719 C 24.828125 46.386719 25.144531 46.703125 25.144531 47.089844 L 25.144531 55.234375 C 25.144531 55.621094 24.828125 55.9375 24.441406 55.9375 Z M 24.441406 55.9375 "/>
<path style=" stroke:none;fill-rule:nonzero;fill:rgb(86.27451%,7.843137%,15.686275%);fill-opacity:1;" d="M 35.949219 57.699219 C 35.558594 57.699219 35.242188 57.382812 35.242188 56.996094 L 35.242188 48.851562 C 35.242188 48.464844 35.558594 48.148438 35.949219 48.148438 C 36.335938 48.148438 36.652344 48.464844 36.652344 48.851562 L 36.652344 56.996094 C 36.652344 57.382812 36.335938 57.699219 35.949219 57.699219 Z M 35.949219 57.699219 "/>
<path style=" stroke:none;fill-rule:nonzero;fill:rgb(100%,100%,100%);fill-opacity:1;" d="M 35.949219 55.9375 C 35.558594 55.9375 35.242188 55.621094 35.242188 55.234375 L 35.242188 47.089844 C 35.242188 46.703125 35.558594 46.386719 35.949219 46.386719 C 36.335938 46.386719 36.652344 46.703125 36.652344 47.089844 L 36.652344 55.234375 C 36.652344 55.621094 36.335938 55.9375 35.949219 55.9375 Z M 35.949219 55.9375 "/>
<path style=" stroke:none;fill-rule:nonzero;fill:rgb(100%,100%,100%);fill-opacity:1;" d="M 17.257812 26.988281 C 16.964844 26.988281 16.730469 26.753906 16.730469 26.460938 L 16.730469 22.503906 C 16.730469 22.214844 16.964844 21.976562 17.257812 21.976562 C 17.550781 21.976562 17.785156 22.214844 17.785156 22.503906 L 17.785156 26.460938 C 17.785156 26.753906 17.550781 26.988281 17.257812 26.988281 Z M 17.257812 26.988281 "/>
<path style=" stroke:none;fill-rule:nonzero;fill:rgb(100%,100%,100%);fill-opacity:1;" d="M 44.074219 22.660156 C 44.074219 23.726562 43.210938 24.589844 42.144531 24.589844 L 42.144531 20.753906 C 43.210938 20.753906 44.074219 21.617188 44.074219 22.683594 Z M 44.074219 22.660156 "/>
<path style=" stroke:none;fill-rule:nonzero;fill:rgb(100%,100%,100%);fill-opacity:1;" d="M 42.679688 27.285156 C 42.386719 27.285156 42.152344 27.046875 42.152344 26.753906 L 42.152344 22.796875 C 42.152344 22.507812 42.386719 22.269531 42.679688 22.269531 C 42.96875 22.269531 43.207031 22.507812 43.207031 22.796875 L 43.207031 26.753906 C 43.207031 27.046875 42.96875 27.285156 42.679688 27.285156 Z M 42.679688 27.285156 "/>
</g>
</svg>
