<?xml version="1.0" encoding="UTF-8"?>
<svg xmlns="http://www.w3.org/2000/svg" xmlns:xlink="http://www.w3.org/1999/xlink" width="60pt" height="60pt" viewBox="0 0 60 60" version="1.1">
<g id="surface1">
<path style=" stroke:none;fill-rule:nonzero;fill:rgb(93.72549%,60.784314%,7.843137%);fill-opacity:1;" d="M 60 30 C 60 36.621094 57.855469 42.742188 54.222656 47.703125 C 48.765625 55.15625 39.945312 52.332031 30 52.332031 C 20.054688 52.332031 11.234375 55.15625 5.777344 47.703125 C 2.144531 42.742188 0 36.621094 0 30 C 0 13.433594 13.433594 0 30 0 C 46.566406 0 60 13.433594 60 30 Z M 60 30 "/>
<path style=" stroke:none;fill-rule:nonzero;fill:rgb(85.882353%,50.980392%,0%);fill-opacity:1;" d="M 30 52.332031 C 39.945312 52.332031 48.765625 55.15625 54.222656 47.703125 C 57.855469 42.742188 60 36.621094 60 30 C 60 29.824219 59.996094 29.648438 59.992188 29.472656 L 39.105469 8.585938 L 18.398438 25.789062 L 22.636719 30.058594 C 23.140625 31.910156 25.175781 36.933594 25.175781 36.933594 L 5.777344 47.703125 C 11.234375 55.15625 20.054688 52.332031 30 52.332031 Z M 30 52.332031 "/>
<path style=" stroke:none;fill-rule:nonzero;fill:rgb(34.509804%,29.411765%,40%);fill-opacity:1;" d="M 20.183594 35.195312 L 39.816406 35.195312 L 39.816406 40.3125 L 20.183594 40.3125 Z M 20.183594 35.195312 "/>
<path style=" stroke:none;fill-rule:nonzero;fill:rgb(29.019608%,24.313725%,33.72549%);fill-opacity:1;" d="M 30 35.195312 L 39.8125 35.195312 L 39.8125 40.3125 L 30 40.3125 Z M 30 35.195312 "/>
<path style=" stroke:none;fill-rule:nonzero;fill:rgb(100%,73.333333%,49.019608%);fill-opacity:1;" d="M 23.433594 30.527344 L 36.566406 30.527344 L 36.566406 44.453125 L 23.433594 44.453125 Z M 23.433594 30.527344 "/>
<path style=" stroke:none;fill-rule:nonzero;fill:rgb(93.72549%,63.921569%,41.568627%);fill-opacity:1;" d="M 30 30.527344 L 36.566406 30.527344 L 36.566406 44.453125 L 30 44.453125 Z M 30 30.527344 "/>
<path style=" stroke:none;fill-rule:nonzero;fill:rgb(100%,83.137255%,65.098039%);fill-opacity:1;" d="M 15.769531 38.941406 L 44.230469 38.941406 L 44.230469 52.335938 L 15.769531 52.335938 Z M 15.769531 38.941406 "/>
<path style=" stroke:none;fill-rule:nonzero;fill:rgb(100%,73.333333%,49.019608%);fill-opacity:1;" d="M 30 38.941406 L 44.230469 38.941406 L 44.230469 52.332031 L 30 52.332031 Z M 30 38.941406 "/>
<path style=" stroke:none;fill-rule:nonzero;fill:rgb(48.235294%,44.705882%,51.764706%);fill-opacity:1;" d="M 54.222656 47.703125 C 48.765625 55.15625 39.945312 60 30 60 C 20.054688 60 11.234375 55.15625 5.777344 47.703125 C 5.929688 42.835938 9.921875 38.941406 14.820312 38.941406 L 23.433594 38.941406 L 30 45.234375 L 36.566406 38.941406 L 45.179688 38.941406 C 50.082031 38.941406 54.074219 42.835938 54.222656 47.703125 Z M 54.222656 47.703125 "/>
<path style=" stroke:none;fill-rule:nonzero;fill:rgb(38.823529%,35.294118%,42.745098%);fill-opacity:1;" d="M 54.222656 47.703125 C 48.765625 55.15625 39.945312 60 30 60 L 30 45.234375 L 35.132812 40.3125 L 36.566406 38.941406 L 45.179688 38.941406 C 50.082031 38.941406 54.074219 42.835938 54.222656 47.703125 Z M 54.222656 47.703125 "/>
<path style=" stroke:none;fill-rule:nonzero;fill:rgb(100%,83.137255%,65.098039%);fill-opacity:1;" d="M 40.972656 17.710938 C 40.507812 10.675781 34.816406 8.074219 30 8.074219 C 25.183594 8.074219 19.492188 10.675781 19.027344 17.710938 C 17.785156 17.953125 16.898438 19.585938 17.039062 20.90625 L 17.25 23.914062 C 17.398438 25.300781 18.617188 26.3125 19.960938 26.164062 L 20.191406 26.136719 C 22.945312 33.527344 27.261719 34.296875 30 34.730469 C 32.738281 34.296875 37.054688 33.527344 39.808594 26.136719 L 40.039062 26.164062 C 41.382812 26.3125 42.601562 25.300781 42.75 23.914062 L 42.960938 20.90625 C 43.101562 19.585938 42.214844 17.953125 40.972656 17.710938 Z M 40.972656 17.710938 "/>
<path style=" stroke:none;fill-rule:nonzero;fill:rgb(100%,73.333333%,49.019608%);fill-opacity:1;" d="M 42.960938 20.90625 L 42.75 23.914062 C 42.601562 25.300781 41.382812 26.3125 40.039062 26.164062 L 39.808594 26.136719 C 38.867188 28.660156 37.746094 30.414062 36.566406 31.640625 C 34.292969 34.015625 31.804688 34.445312 30 34.730469 L 30 8.074219 C 34.816406 8.074219 40.507812 10.675781 40.972656 17.710938 C 42.214844 17.953125 43.101562 19.585938 42.960938 20.90625 Z M 42.960938 20.90625 "/>
<path style=" stroke:none;fill-rule:nonzero;fill:rgb(93.72549%,92.156863%,86.27451%);fill-opacity:1;" d="M 32.324219 23.96875 C 30.984375 22.828125 29.015625 22.828125 27.675781 23.96875 C 26.183594 25.238281 24.304688 25.972656 22.347656 26.050781 L 20.191406 26.136719 L 20.335938 27.007812 C 21.121094 31.730469 25.210938 35.195312 30 35.195312 C 34.898438 34.921875 38.949219 31.289062 39.753906 26.453125 L 39.808594 26.136719 L 37.652344 26.050781 C 35.695312 25.972656 33.816406 25.238281 32.324219 23.96875 Z M 32.324219 23.96875 "/>
<path style=" stroke:none;fill-rule:nonzero;fill:rgb(83.921569%,81.176471%,74.117647%);fill-opacity:1;" d="M 39.808594 26.136719 L 39.757812 26.453125 C 39.355469 28.871094 38.140625 30.992188 36.414062 32.539062 C 34.6875 34.082031 32.449219 35.058594 30 35.195312 L 30 23.113281 C 30.828125 23.113281 31.65625 23.398438 32.324219 23.96875 C 33.816406 25.238281 35.691406 25.972656 37.652344 26.050781 Z M 39.808594 26.136719 "/>
<path style=" stroke:none;fill-rule:nonzero;fill:rgb(61.568627%,59.215686%,64.705882%);fill-opacity:1;" d="M 20.183594 35.195312 L 30 45.234375 L 25.09375 50.507812 L 16.699219 38.941406 Z M 20.183594 35.195312 "/>
<path style=" stroke:none;fill-rule:nonzero;fill:rgb(49.803922%,47.058824%,52.941176%);fill-opacity:1;" d="M 39.816406 35.195312 L 30 45.234375 L 34.90625 50.507812 L 43.300781 38.941406 Z M 39.816406 35.195312 "/>
<path style=" stroke:none;fill-rule:nonzero;fill:rgb(28.627451%,28.627451%,28.627451%);fill-opacity:1;" d="M 23.351562 3.457031 C 23.351562 3.457031 17.003906 9.640625 18.320312 15.746094 L 19.234375 21.828125 L 21.753906 21.828125 L 22.957031 17.34375 C 23.386719 15.746094 25.03125 14.78125 26.621094 15.226562 C 26.773438 15.265625 26.925781 15.316406 27.078125 15.371094 L 27.519531 15.527344 C 29.132812 16.097656 30.890625 16.042969 32.488281 15.421875 C 32.808594 15.296875 33.136719 15.195312 33.464844 15.117188 C 35.03125 14.761719 36.601562 15.710938 37.019531 17.265625 L 38.246094 21.828125 L 40.765625 21.828125 L 41.679688 15.496094 C 41.875 10.070312 37.511719 3.457031 23.351562 3.457031 Z M 23.351562 3.457031 "/>
<path style=" stroke:none;fill-rule:nonzero;fill:rgb(20%,20%,20%);fill-opacity:1;" d="M 41.679688 15.496094 L 40.765625 21.828125 L 38.246094 21.828125 L 37.019531 17.265625 C 36.601562 15.710938 35.035156 14.757812 33.464844 15.121094 C 33.136719 15.195312 32.808594 15.296875 32.488281 15.421875 C 31.683594 15.730469 30.84375 15.902344 30 15.921875 L 30 4.039062 C 38.917969 5.769531 41.839844 11.03125 41.679688 15.496094 Z M 41.679688 15.496094 "/>
</g>
</svg>
