<?xml version="1.0" encoding="UTF-8"?>
<svg xmlns="http://www.w3.org/2000/svg" xmlns:xlink="http://www.w3.org/1999/xlink" width="60pt" height="60pt" viewBox="0 0 60 60" version="1.1">
<g id="surface1">
<path style=" stroke:none;fill-rule:nonzero;fill:rgb(56.470588%,87.45098%,66.666667%);fill-opacity:1;" d="M 60 30 C 60 46.570312 46.570312 60 30 60 C 13.429688 60 0 46.570312 0 30 C 0 13.429688 13.429688 0 30 0 C 46.570312 0 60 13.429688 60 30 Z M 60 30 "/>
<path style=" stroke:none;fill-rule:nonzero;fill:rgb(90.196078%,91.372549%,93.333333%);fill-opacity:1;" d="M 30.140625 42.898438 C 30.09375 42.898438 30.046875 42.945312 29.953125 42.945312 C 29.90625 42.945312 29.859375 42.898438 29.765625 42.898438 Z M 30.140625 42.898438 "/>
<path style=" stroke:none;fill-rule:nonzero;fill:rgb(90.196078%,91.372549%,93.333333%);fill-opacity:1;" d="M 54.140625 47.714844 C 48.707031 55.132812 39.875 60 29.953125 60 C 20.03125 60 11.242188 55.179688 5.765625 47.714844 C 10.015625 43.179688 15.78125 40.773438 20.597656 39.542969 C 20.171875 42.992188 21.96875 47.621094 22.015625 47.480469 C 23.8125 43.324219 29.90625 42.945312 29.90625 42.945312 C 29.90625 42.945312 36 43.277344 37.84375 47.480469 C 37.890625 47.574219 39.683594 42.992188 39.261719 39.542969 C 44.125 40.773438 49.890625 43.179688 54.140625 47.714844 Z M 54.140625 47.714844 "/>
<path style=" stroke:none;fill-rule:nonzero;fill:rgb(100%,81.568627%,35.686275%);fill-opacity:1;" d="M 37.417969 36.378906 C 37.417969 36.992188 37.039062 40.253906 30.140625 42.898438 L 29.765625 42.898438 C 22.867188 40.253906 22.488281 36.992188 22.488281 36.378906 C 22.535156 35.148438 22.820312 33.921875 23.339844 32.789062 C 25.226562 34.914062 27.496094 36.332031 29.953125 36.332031 C 32.363281 36.332031 34.675781 34.960938 36.566406 32.789062 C 37.085938 33.921875 37.417969 35.148438 37.417969 36.378906 Z M 37.417969 36.378906 "/>
<path style=" stroke:none;fill-rule:nonzero;fill:rgb(94.509804%,32.941176%,24.705882%);fill-opacity:1;" d="M 34.0625 43.984375 L 32.550781 47.007812 L 27.355469 47.007812 L 25.84375 43.984375 C 27.921875 43.085938 29.953125 42.945312 29.953125 42.945312 C 29.953125 42.945312 32.03125 43.085938 34.0625 43.984375 Z M 34.0625 43.984375 "/>
<path style=" stroke:none;fill-rule:nonzero;fill:rgb(100%,43.921569%,34.509804%);fill-opacity:1;" d="M 25.746094 59.714844 C 27.117188 59.90625 28.535156 60 30 60 C 31.417969 60 32.835938 59.90625 34.253906 59.714844 L 32.597656 47.054688 L 27.402344 47.054688 Z M 25.746094 59.714844 "/>
<path style=" stroke:none;fill-rule:nonzero;fill:rgb(100%,100%,100%);fill-opacity:1;" d="M 37.417969 36.285156 C 37.417969 36.285156 37.746094 40.0625 29.953125 42.945312 C 29.953125 42.945312 36.046875 43.277344 37.890625 47.480469 C 37.9375 47.667969 41.480469 38.503906 37.417969 36.285156 Z M 37.417969 36.285156 "/>
<path style=" stroke:none;fill-rule:nonzero;fill:rgb(100%,100%,100%);fill-opacity:1;" d="M 22.488281 36.285156 C 18.472656 38.503906 21.96875 47.621094 22.0625 47.480469 C 23.859375 43.324219 30 42.945312 30 42.945312 C 22.15625 40.0625 22.488281 36.285156 22.488281 36.285156 Z M 22.488281 36.285156 "/>
<path style=" stroke:none;fill-rule:nonzero;fill:rgb(97.647059%,70.980392%,29.803922%);fill-opacity:1;" d="M 36.945312 33.730469 C 34.960938 35.859375 32.597656 37.226562 29.953125 37.226562 C 27.308594 37.226562 24.945312 35.859375 22.960938 33.730469 C 23.054688 33.402344 23.195312 33.070312 23.339844 32.789062 C 25.226562 34.914062 27.496094 36.332031 29.953125 36.332031 C 32.410156 36.332031 34.675781 34.960938 36.566406 32.789062 C 36.707031 33.070312 36.851562 33.402344 36.945312 33.730469 Z M 36.945312 33.730469 "/>
<path style=" stroke:none;fill-rule:nonzero;fill:rgb(100%,81.568627%,35.686275%);fill-opacity:1;" d="M 42.851562 26.503906 C 41.859375 28.15625 40.347656 29.148438 39.210938 28.960938 C 36.945312 33.164062 33.636719 36.285156 29.953125 36.285156 C 26.269531 36.285156 22.960938 33.117188 20.691406 28.960938 C 19.558594 29.101562 18.046875 28.15625 17.054688 26.503906 C 15.875 24.566406 15.828125 22.441406 16.960938 21.730469 C 17.242188 21.589844 17.527344 21.496094 17.859375 21.542969 C 18.613281 23.480469 19.652344 24.660156 19.652344 24.660156 C 18.566406 18.660156 23.007812 18 22.253906 12.234375 C 22.253906 12.234375 25.039062 18.425781 33.023438 14.078125 L 32.410156 15.261719 C 43.558594 12.757812 39.828125 25.890625 39.730469 26.21875 C 41.007812 24.613281 41.8125 23.007812 42.285156 21.542969 C 42.472656 21.542969 42.707031 21.636719 42.851562 21.730469 C 44.078125 22.394531 44.03125 24.566406 42.851562 26.503906 Z M 42.851562 26.503906 "/>
<path style=" stroke:none;fill-rule:nonzero;fill:rgb(19.607843%,29.019608%,36.862745%);fill-opacity:1;" d="M 36.378906 6 C 37.277344 5.90625 38.738281 6.707031 38.738281 6.707031 C 34.722656 2.125 28.15625 5.054688 28.15625 5.054688 C 30.378906 3.164062 32.363281 3.355469 32.363281 3.355469 C 22.960938 1.9375 21.355469 7.558594 21.355469 7.558594 C 20.929688 6.898438 20.929688 5.953125 20.976562 5.480469 C 20.316406 6.613281 21.023438 8.882812 21.023438 8.882812 C 20.363281 7.226562 18.046875 7.511719 18.046875 7.511719 C 20.03125 7.84375 20.363281 9.070312 20.363281 9.070312 C 15.402344 10.914062 16.253906 16.0625 16.253906 16.0625 L 17.433594 14.644531 C 15.96875 20.269531 19.699219 24.613281 19.699219 24.613281 C 18.613281 18.613281 23.054688 17.953125 22.300781 12.1875 C 22.300781 12.1875 25.085938 18.378906 33.070312 14.03125 L 32.457031 15.210938 C 43.746094 12.660156 39.78125 26.21875 39.78125 26.21875 C 43.796875 21.117188 43.179688 15.875 43.179688 15.875 L 43.652344 17.765625 C 44.929688 9.261719 36.378906 6 36.378906 6 Z M 36.378906 6 "/>
</g>
</svg>
