<?xml version="1.0" encoding="UTF-8"?>
<svg xmlns="http://www.w3.org/2000/svg" xmlns:xlink="http://www.w3.org/1999/xlink" width="60pt" height="60pt" viewBox="0 0 60 60" version="1.1">
<g id="surface1">
<path style=" stroke:none;fill-rule:nonzero;fill:rgb(79.607843%,88.627451%,100%);fill-opacity:1;" d="M 30.003906 56.640625 L 41.890625 53.640625 C 48.671875 48.003906 52.996094 39.507812 52.996094 30 C 52.996094 15.335938 42.714844 3.070312 28.96875 0.015625 C 12.878906 0.558594 0 13.777344 0 30 C 0 38.332031 3.398438 45.871094 8.882812 51.308594 Z M 30.003906 56.640625 "/>
<path style=" stroke:none;fill-rule:nonzero;fill:rgb(74.509804%,84.705882%,98.431373%);fill-opacity:1;" d="M 52.371094 30 C 52.371094 39.832031 47.640625 48.5625 40.328125 54.03125 L 51.113281 51.308594 C 56.601562 45.871094 60 38.332031 60 30 C 60 13.429688 46.570312 0 30 0 C 28.707031 0 27.433594 0.0820312 26.1875 0.238281 C 40.953125 2.113281 52.371094 14.722656 52.371094 30 Z M 52.371094 30 "/>
<path style=" stroke:none;fill-rule:nonzero;fill:rgb(21.176471%,36.862745%,49.019608%);fill-opacity:1;" d="M 37.457031 11.363281 C 37.457031 9.828125 36.214844 8.585938 34.679688 8.585938 L 25.121094 8.585938 C 21.59375 8.585938 18.734375 11.445312 18.734375 14.972656 L 18.734375 22.0625 L 41.261719 22.0625 L 41.261719 15.074219 C 41.261719 13.539062 40.019531 12.296875 38.484375 12.296875 L 38.394531 12.296875 C 37.875 12.296875 37.457031 11.878906 37.457031 11.363281 Z M 37.457031 11.363281 "/>
<path style=" stroke:none;fill-rule:nonzero;fill:rgb(16.862745%,30.196078%,40%);fill-opacity:1;" d="M 38.484375 12.296875 L 38.394531 12.296875 C 37.875 12.296875 37.457031 11.878906 37.457031 11.363281 C 37.457031 9.828125 36.214844 8.585938 34.679688 8.585938 L 33.632812 8.585938 L 33.632812 22.0625 L 41.261719 22.0625 L 41.261719 15.074219 C 41.261719 13.539062 40.019531 12.296875 38.484375 12.296875 Z M 38.484375 12.296875 "/>
<path style=" stroke:none;fill-rule:nonzero;fill:rgb(29.019608%,50.196078%,66.666667%);fill-opacity:1;" d="M 49.808594 43.636719 C 49.078125 42.910156 48.167969 42.351562 47.140625 42.023438 L 38.949219 39.429688 L 30 39.117188 L 21.050781 39.429688 L 12.859375 42.023438 C 10.089844 42.902344 8.207031 45.472656 8.207031 48.378906 L 8.207031 50.617188 C 13.457031 56.164062 20.796875 59.707031 28.96875 59.984375 C 38.125 57.949219 45.742188 51.828125 49.808594 43.636719 Z M 49.808594 43.636719 "/>
<path style=" stroke:none;fill-rule:nonzero;fill:rgb(25.098039%,43.921569%,57.647059%);fill-opacity:1;" d="M 51.792969 50.617188 L 51.792969 48.378906 C 51.792969 46.324219 50.851562 44.4375 49.320312 43.199219 C 44.972656 52.0625 36.378906 58.464844 26.195312 59.757812 C 27.421875 59.914062 28.675781 59.996094 29.945312 60 C 31.167969 59.996094 32.375 59.925781 33.558594 59.792969 C 40.710938 58.945312 47.09375 55.585938 51.792969 50.617188 Z M 51.792969 50.617188 "/>
<path style=" stroke:none;fill-rule:nonzero;fill:rgb(89.411765%,96.470588%,100%);fill-opacity:1;" d="M 30.679688 59.550781 C 32.496094 55.949219 37.222656 45.714844 35.875 39.324219 L 30 37.039062 L 24.125 39.324219 C 22.734375 45.914062 27.800781 56.582031 29.476562 59.867188 C 29.882812 59.769531 30.28125 59.664062 30.679688 59.550781 Z M 30.679688 59.550781 "/>
<path style=" stroke:none;fill-rule:nonzero;fill:rgb(88.627451%,50.196078%,52.54902%);fill-opacity:1;" d="M 33.773438 56.695312 L 31.390625 47.328125 L 28.605469 47.328125 L 26.234375 56.667969 L 29.167969 59.9375 C 29.914062 59.765625 30.648438 59.570312 31.375 59.34375 Z M 33.773438 56.695312 "/>
<path style=" stroke:none;fill-rule:nonzero;fill:rgb(86.666667%,38.823529%,43.137255%);fill-opacity:1;" d="M 29.214844 59.988281 C 29.457031 59.996094 29.703125 60 29.945312 60 C 30.230469 60 30.511719 59.996094 30.792969 59.988281 L 32.304688 58.316406 C 31.113281 58.734375 29.890625 59.078125 28.636719 59.34375 Z M 29.214844 59.988281 "/>
<path style=" stroke:none;fill-rule:nonzero;fill:rgb(100%,86.666667%,80.784314%);fill-opacity:1;" d="M 35.011719 38.457031 L 35.011719 33.179688 L 24.984375 33.179688 L 24.984375 38.457031 C 24.984375 41.226562 30 44.253906 30 44.253906 C 30 44.253906 35.011719 41.226562 35.011719 38.457031 Z M 35.011719 38.457031 "/>
<path style=" stroke:none;fill-rule:nonzero;fill:rgb(100%,86.666667%,80.784314%);fill-opacity:1;" d="M 41.261719 21.132812 L 39.34375 21.132812 C 38.277344 21.132812 37.414062 20.265625 37.414062 19.199219 L 37.414062 18.144531 C 37.414062 16.753906 36.054688 15.773438 34.734375 16.210938 C 31.660156 17.226562 28.339844 17.226562 25.265625 16.210938 L 25.261719 16.207031 C 23.941406 15.773438 22.582031 16.753906 22.582031 18.144531 L 22.582031 19.199219 C 22.582031 20.265625 21.71875 21.132812 20.652344 21.132812 L 18.734375 21.132812 L 18.734375 24.289062 C 18.734375 25.09375 19.390625 25.75 20.195312 25.75 C 20.449219 25.75 20.65625 25.949219 20.675781 26.203125 C 20.980469 31.085938 25.039062 34.949219 30 34.949219 C 34.957031 34.949219 39.015625 31.085938 39.324219 26.203125 C 39.339844 25.949219 39.546875 25.75 39.800781 25.75 C 40.605469 25.75 41.261719 25.09375 41.261719 24.289062 Z M 41.261719 21.132812 "/>
<path style=" stroke:none;fill-rule:nonzero;fill:rgb(100%,79.607843%,74.509804%);fill-opacity:1;" d="M 39.34375 21.132812 C 38.277344 21.132812 37.414062 20.265625 37.414062 19.199219 L 37.414062 18.144531 C 37.414062 16.753906 36.054688 15.773438 34.734375 16.210938 C 34.371094 16.328125 34.003906 16.433594 33.632812 16.527344 L 33.632812 26.953125 C 33.582031 30.34375 31.722656 33.296875 28.976562 34.894531 C 29.3125 34.929688 29.652344 34.949219 30 34.949219 C 34.957031 34.949219 39.015625 31.085938 39.320312 26.203125 C 39.339844 25.949219 39.546875 25.75 39.800781 25.75 C 40.605469 25.75 41.261719 25.09375 41.261719 24.289062 L 41.261719 21.132812 Z M 39.34375 21.132812 "/>
<path style=" stroke:none;fill-rule:nonzero;fill:rgb(95.686275%,98.431373%,100%);fill-opacity:1;" d="M 24.984375 37.039062 L 21.050781 40.234375 L 25.175781 45.332031 C 25.675781 45.820312 26.464844 45.851562 27.003906 45.402344 L 30.105469 42.8125 Z M 24.984375 37.039062 "/>
<path style=" stroke:none;fill-rule:nonzero;fill:rgb(95.686275%,98.431373%,100%);fill-opacity:1;" d="M 35.015625 37.039062 L 30.105469 42.8125 L 33.019531 45.304688 C 33.554688 45.761719 34.347656 45.738281 34.855469 45.25 L 38.949219 40.234375 Z M 35.015625 37.039062 "/>
<path style=" stroke:none;fill-rule:nonzero;fill:rgb(21.176471%,36.862745%,49.019608%);fill-opacity:1;" d="M 24.984375 37.039062 L 19.210938 39.875 C 18.773438 40.089844 18.59375 40.625 18.820312 41.058594 L 19.949219 43.253906 C 20.242188 43.820312 20.136719 44.511719 19.683594 44.964844 C 19.449219 45.195312 19.199219 45.449219 18.980469 45.667969 C 18.589844 46.058594 18.449219 46.632812 18.621094 47.160156 C 19.984375 51.320312 26.558594 57.6875 29.042969 59.988281 C 29.210938 59.992188 29.378906 59.996094 29.546875 60 C 27.742188 56.492188 21.351562 43.164062 24.984375 37.039062 Z M 24.984375 37.039062 "/>
<path style=" stroke:none;fill-rule:nonzero;fill:rgb(21.176471%,36.862745%,49.019608%);fill-opacity:1;" d="M 40.316406 44.964844 C 39.863281 44.511719 39.753906 43.820312 40.046875 43.253906 L 41.179688 41.058594 C 41.402344 40.625 41.226562 40.089844 40.785156 39.875 L 35.015625 37.039062 C 38.644531 43.160156 32.257812 56.484375 30.453125 59.996094 C 30.621094 59.992188 30.792969 59.988281 30.960938 59.984375 C 33.453125 57.675781 40.011719 51.316406 41.378906 47.160156 C 41.550781 46.632812 41.410156 46.058594 41.019531 45.667969 C 40.800781 45.449219 40.546875 45.195312 40.316406 44.964844 Z M 40.316406 44.964844 "/>
<path style=" stroke:none;fill-rule:nonzero;fill:rgb(86.666667%,38.823529%,43.137255%);fill-opacity:1;" d="M 30.105469 42.8125 L 27.050781 45.363281 L 28.605469 47.328125 L 31.390625 47.328125 L 32.949219 45.246094 Z M 30.105469 42.8125 "/>
</g>
</svg>
