<?xml version="1.0" encoding="UTF-8"?>
<svg xmlns="http://www.w3.org/2000/svg" xmlns:xlink="http://www.w3.org/1999/xlink" width="60pt" height="60pt" viewBox="0 0 60 60" version="1.1">
<defs>
<clipPath id="clip1">
  <path d="M 16 3 L 44 3 L 44 44 L 16 44 Z M 16 3 "/>
</clipPath>
<clipPath id="clip2">
  <path d="M 60 30 C 60 46.570312 46.570312 60 30 60 C 13.429688 60 0 46.570312 0 30 C 0 13.429688 13.429688 0 30 0 C 46.570312 0 60 13.429688 60 30 Z M 60 30 "/>
</clipPath>
<clipPath id="clip3">
  <path d="M 12 39 L 48 39 L 48 60 L 12 60 Z M 12 39 "/>
</clipPath>
<clipPath id="clip4">
  <path d="M 60 30 C 60 46.570312 46.570312 60 30 60 C 13.429688 60 0 46.570312 0 30 C 0 13.429688 13.429688 0 30 0 C 46.570312 0 60 13.429688 60 30 Z M 60 30 "/>
</clipPath>
<clipPath id="clip5">
  <path d="M 12 47 L 48 47 L 48 60 L 12 60 Z M 12 47 "/>
</clipPath>
<clipPath id="clip6">
  <path d="M 60 30 C 60 46.570312 46.570312 60 30 60 C 13.429688 60 0 46.570312 0 30 C 0 13.429688 13.429688 0 30 0 C 46.570312 0 60 13.429688 60 30 Z M 60 30 "/>
</clipPath>
<clipPath id="clip7">
  <path d="M 16 26 L 44 26 L 44 44 L 16 44 Z M 16 26 "/>
</clipPath>
<clipPath id="clip8">
  <path d="M 60 30 C 60 46.570312 46.570312 60 30 60 C 13.429688 60 0 46.570312 0 30 C 0 13.429688 13.429688 0 30 0 C 46.570312 0 60 13.429688 60 30 Z M 60 30 "/>
</clipPath>
<clipPath id="clip9">
  <path d="M 16 3 L 41 3 L 41 20 L 16 20 Z M 16 3 "/>
</clipPath>
<clipPath id="clip10">
  <path d="M 60 30 C 60 46.570312 46.570312 60 30 60 C 13.429688 60 0 46.570312 0 30 C 0 13.429688 13.429688 0 30 0 C 46.570312 0 60 13.429688 60 30 Z M 60 30 "/>
</clipPath>
<clipPath id="clip11">
  <path d="M 35 4 L 44 4 L 44 20 L 35 20 Z M 35 4 "/>
</clipPath>
<clipPath id="clip12">
  <path d="M 60 30 C 60 46.570312 46.570312 60 30 60 C 13.429688 60 0 46.570312 0 30 C 0 13.429688 13.429688 0 30 0 C 46.570312 0 60 13.429688 60 30 Z M 60 30 "/>
</clipPath>
<clipPath id="clip13">
  <path d="M 16 17 L 19 17 L 19 24 L 16 24 Z M 16 17 "/>
</clipPath>
<clipPath id="clip14">
  <path d="M 60 30 C 60 46.570312 46.570312 60 30 60 C 13.429688 60 0 46.570312 0 30 C 0 13.429688 13.429688 0 30 0 C 46.570312 0 60 13.429688 60 30 Z M 60 30 "/>
</clipPath>
<clipPath id="clip15">
  <path d="M 41 17 L 44 17 L 44 24 L 41 24 Z M 41 17 "/>
</clipPath>
<clipPath id="clip16">
  <path d="M 60 30 C 60 46.570312 46.570312 60 30 60 C 13.429688 60 0 46.570312 0 30 C 0 13.429688 13.429688 0 30 0 C 46.570312 0 60 13.429688 60 30 Z M 60 30 "/>
</clipPath>
<clipPath id="clip17">
  <path d="M 18 18 L 42 18 L 42 28 L 18 28 Z M 18 18 "/>
</clipPath>
<clipPath id="clip18">
  <path d="M 60 30 C 60 46.570312 46.570312 60 30 60 C 13.429688 60 0 46.570312 0 30 C 0 13.429688 13.429688 0 30 0 C 46.570312 0 60 13.429688 60 30 Z M 60 30 "/>
</clipPath>
<clipPath id="clip19">
  <path d="M 16 22 L 31 22 L 31 38 L 16 38 Z M 16 22 "/>
</clipPath>
<clipPath id="clip20">
  <path d="M 60 30 C 60 46.570312 46.570312 60 30 60 C 13.429688 60 0 46.570312 0 30 C 0 13.429688 13.429688 0 30 0 C 46.570312 0 60 13.429688 60 30 Z M 60 30 "/>
</clipPath>
<clipPath id="clip21">
  <path d="M 29 22 L 44 22 L 44 38 L 29 38 Z M 29 22 "/>
</clipPath>
<clipPath id="clip22">
  <path d="M 60 30 C 60 46.570312 46.570312 60 30 60 C 13.429688 60 0 46.570312 0 30 C 0 13.429688 13.429688 0 30 0 C 46.570312 0 60 13.429688 60 30 Z M 60 30 "/>
</clipPath>
<clipPath id="clip23">
  <path d="M 26 32 L 34 32 L 34 35 L 26 35 Z M 26 32 "/>
</clipPath>
<clipPath id="clip24">
  <path d="M 60 30 C 60 46.570312 46.570312 60 30 60 C 13.429688 60 0 46.570312 0 30 C 0 13.429688 13.429688 0 30 0 C 46.570312 0 60 13.429688 60 30 Z M 60 30 "/>
</clipPath>
<clipPath id="clip25">
  <path d="M 19 49 L 21 49 L 21 60 L 19 60 Z M 19 49 "/>
</clipPath>
<clipPath id="clip26">
  <path d="M 60 30 C 60 46.570312 46.570312 60 30 60 C 13.429688 60 0 46.570312 0 30 C 0 13.429688 13.429688 0 30 0 C 46.570312 0 60 13.429688 60 30 Z M 60 30 "/>
</clipPath>
<clipPath id="clip27">
  <path d="M 39 49 L 41 49 L 41 60 L 39 60 Z M 39 49 "/>
</clipPath>
<clipPath id="clip28">
  <path d="M 60 30 C 60 46.570312 46.570312 60 30 60 C 13.429688 60 0 46.570312 0 30 C 0 13.429688 13.429688 0 30 0 C 46.570312 0 60 13.429688 60 30 Z M 60 30 "/>
</clipPath>
<clipPath id="clip29">
  <path d="M 26 48 L 34 48 L 34 53 L 26 53 Z M 26 48 "/>
</clipPath>
<clipPath id="clip30">
  <path d="M 60 30 C 60 46.570312 46.570312 60 30 60 C 13.429688 60 0 46.570312 0 30 C 0 13.429688 13.429688 0 30 0 C 46.570312 0 60 13.429688 60 30 Z M 60 30 "/>
</clipPath>
<clipPath id="clip31">
  <path d="M 27 50 L 33 50 L 33 60 L 27 60 Z M 27 50 "/>
</clipPath>
<clipPath id="clip32">
  <path d="M 60 30 C 60 46.570312 46.570312 60 30 60 C 13.429688 60 0 46.570312 0 30 C 0 13.429688 13.429688 0 30 0 C 46.570312 0 60 13.429688 60 30 Z M 60 30 "/>
</clipPath>
<clipPath id="clip33">
  <path d="M 22 45 L 30 45 L 30 54 L 22 54 Z M 22 45 "/>
</clipPath>
<clipPath id="clip34">
  <path d="M 60 30 C 60 46.570312 46.570312 60 30 60 C 13.429688 60 0 46.570312 0 30 C 0 13.429688 13.429688 0 30 0 C 46.570312 0 60 13.429688 60 30 Z M 60 30 "/>
</clipPath>
<clipPath id="clip35">
  <path d="M 30 45 L 38 45 L 38 54 L 30 54 Z M 30 45 "/>
</clipPath>
<clipPath id="clip36">
  <path d="M 60 30 C 60 46.570312 46.570312 60 30 60 C 13.429688 60 0 46.570312 0 30 C 0 13.429688 13.429688 0 30 0 C 46.570312 0 60 13.429688 60 30 Z M 60 30 "/>
</clipPath>
</defs>
<g id="surface1">
<path style=" stroke:none;fill-rule:nonzero;fill:rgb(92.156863%,42.745098%,29.019608%);fill-opacity:1;" d="M 60 30 C 60 46.570312 46.570312 60 30 60 C 13.429688 60 0 46.570312 0 30 C 0 13.429688 13.429688 0 30 0 C 46.570312 0 60 13.429688 60 30 Z M 60 30 "/>
<g clip-path="url(#clip1)" clip-rule="nonzero">
<g clip-path="url(#clip2)" clip-rule="nonzero">
<path style=" stroke:none;fill-rule:nonzero;fill:rgb(92.54902%,75.686275%,61.176471%);fill-opacity:1;" d="M 43.351562 16.832031 L 43.351562 26.804688 C 43.351562 26.949219 43.347656 27.09375 43.34375 27.234375 C 43.335938 27.535156 43.320312 27.832031 43.292969 28.128906 C 43.289062 28.230469 43.277344 28.332031 43.265625 28.433594 C 43.222656 28.855469 43.164062 29.273438 43.085938 29.683594 C 43.0625 29.824219 43.035156 29.957031 43.003906 30.09375 C 43.003906 30.121094 42.996094 30.148438 42.988281 30.171875 C 42.960938 30.3125 42.929688 30.445312 42.898438 30.582031 C 42.882812 30.652344 42.863281 30.722656 42.847656 30.796875 C 42.832031 30.859375 42.816406 30.921875 42.796875 30.984375 C 42.726562 31.253906 42.648438 31.515625 42.566406 31.777344 C 42.527344 31.902344 42.488281 32.023438 42.445312 32.148438 C 42.441406 32.160156 42.433594 32.175781 42.433594 32.1875 C 42.390625 32.296875 42.351562 32.410156 42.3125 32.519531 C 42.300781 32.554688 42.289062 32.585938 42.273438 32.621094 C 42.234375 32.726562 42.195312 32.832031 42.152344 32.9375 C 42.105469 33.066406 42.050781 33.191406 42 33.316406 C 41.953125 33.425781 41.902344 33.539062 41.855469 33.648438 C 41.847656 33.667969 41.839844 33.683594 41.832031 33.703125 C 41.777344 33.824219 41.722656 33.941406 41.667969 34.054688 C 41.613281 34.175781 41.554688 34.296875 41.492188 34.421875 C 41.371094 34.660156 41.246094 34.898438 41.117188 35.132812 C 41.058594 35.234375 41 35.339844 40.941406 35.445312 C 40.433594 36.316406 39.875 37.132812 39.265625 37.886719 C 39.183594 37.992188 39.097656 38.097656 39.007812 38.199219 C 38.886719 38.347656 38.761719 38.492188 38.636719 38.632812 C 38.527344 38.757812 38.414062 38.882812 38.300781 39.003906 C 37.984375 39.339844 37.664062 39.664062 37.335938 39.964844 C 37.269531 40.03125 37.203125 40.089844 37.132812 40.152344 C 37.023438 40.253906 36.910156 40.351562 36.796875 40.445312 C 36.707031 40.523438 36.613281 40.601562 36.523438 40.675781 C 36.285156 40.867188 36.050781 41.054688 35.8125 41.230469 C 35.714844 41.304688 35.613281 41.378906 35.511719 41.445312 C 35.347656 41.5625 35.179688 41.675781 35.011719 41.785156 C 34.921875 41.847656 34.824219 41.90625 34.730469 41.960938 C 34.394531 42.167969 34.058594 42.359375 33.722656 42.523438 C 33.640625 42.5625 33.558594 42.601562 33.476562 42.644531 C 33.394531 42.683594 33.308594 42.722656 33.222656 42.761719 C 33.113281 42.808594 33.003906 42.855469 32.898438 42.898438 C 32.855469 42.917969 32.8125 42.933594 32.769531 42.949219 C 32.640625 43 32.511719 43.050781 32.382812 43.089844 C 32.222656 43.152344 32.058594 43.199219 31.898438 43.246094 C 31.785156 43.277344 31.671875 43.308594 31.558594 43.335938 C 31.550781 43.335938 31.546875 43.339844 31.535156 43.339844 C 31.425781 43.367188 31.3125 43.394531 31.203125 43.414062 C 31.171875 43.417969 31.144531 43.425781 31.113281 43.429688 C 31.023438 43.445312 30.929688 43.460938 30.839844 43.472656 C 30.707031 43.492188 30.574219 43.507812 30.445312 43.515625 C 30.398438 43.519531 30.355469 43.523438 30.308594 43.523438 C 30.207031 43.53125 30.101562 43.535156 30 43.535156 L 29.988281 43.535156 C 29.886719 43.535156 29.785156 43.53125 29.683594 43.523438 C 29.644531 43.523438 29.605469 43.519531 29.566406 43.515625 C 29.472656 43.511719 29.378906 43.5 29.28125 43.488281 C 29.261719 43.488281 29.238281 43.484375 29.21875 43.480469 C 29.097656 43.464844 28.976562 43.445312 28.851562 43.421875 C 28.746094 43.40625 28.640625 43.382812 28.535156 43.355469 C 27.972656 43.230469 27.394531 43.035156 26.8125 42.777344 C 26.3125 42.558594 25.808594 42.292969 25.308594 41.984375 C 25.054688 41.828125 24.800781 41.664062 24.554688 41.492188 C 24.429688 41.402344 24.304688 41.316406 24.179688 41.222656 C 23.789062 40.9375 23.402344 40.625 23.023438 40.292969 C 22.917969 40.195312 22.8125 40.101562 22.707031 40.003906 C 22.601562 39.90625 22.496094 39.808594 22.394531 39.714844 C 22.140625 39.46875 21.890625 39.214844 21.648438 38.949219 C 21.554688 38.847656 21.457031 38.742188 21.363281 38.632812 C 21.101562 38.335938 20.84375 38.03125 20.601562 37.714844 C 20.507812 37.601562 20.417969 37.480469 20.328125 37.363281 C 20 36.925781 19.683594 36.464844 19.390625 35.988281 C 19.308594 35.863281 19.230469 35.730469 19.15625 35.601562 C 19.0625 35.449219 18.976562 35.292969 18.886719 35.132812 C 18.558594 34.542969 18.257812 33.929688 17.996094 33.296875 C 17.957031 33.207031 17.917969 33.113281 17.882812 33.023438 C 17.832031 32.90625 17.785156 32.785156 17.742188 32.664062 C 17.675781 32.492188 17.617188 32.316406 17.554688 32.144531 C 17.496094 31.96875 17.441406 31.792969 17.386719 31.617188 C 17.332031 31.445312 17.285156 31.273438 17.238281 31.101562 C 17.183594 30.917969 17.136719 30.730469 17.09375 30.539062 C 17.089844 30.519531 17.085938 30.5 17.082031 30.480469 C 17.019531 30.21875 16.960938 29.953125 16.914062 29.683594 C 16.847656 29.332031 16.796875 28.96875 16.757812 28.605469 C 16.738281 28.492188 16.730469 28.375 16.71875 28.261719 C 16.707031 28.140625 16.699219 28.023438 16.691406 27.902344 C 16.675781 27.679688 16.664062 27.457031 16.65625 27.234375 C 16.65625 27.089844 16.652344 26.945312 16.652344 26.804688 L 16.652344 16.832031 C 16.652344 9.464844 22.621094 3.492188 29.988281 3.484375 L 30 3.484375 C 31.019531 3.484375 32.007812 3.601562 32.960938 3.8125 C 33.828125 4.011719 34.664062 4.292969 35.457031 4.648438 C 36.539062 5.132812 37.546875 5.757812 38.449219 6.5 C 39.210938 7.125 39.902344 7.828125 40.507812 8.601562 C 42.289062 10.867188 43.351562 13.726562 43.351562 16.832031 Z M 43.351562 16.832031 "/>
</g>
</g>
<g clip-path="url(#clip3)" clip-rule="nonzero">
<g clip-path="url(#clip4)" clip-rule="nonzero">
<path style=" stroke:none;fill-rule:nonzero;fill:rgb(92.54902%,75.686275%,61.176471%);fill-opacity:1;" d="M 47.390625 64.015625 L 47.390625 64.019531 L 12.609375 64.019531 L 12.609375 64.015625 C 12.609375 62.050781 12.933594 60.160156 13.535156 58.398438 C 13.644531 58.082031 13.761719 57.765625 13.890625 57.457031 L 13.890625 57.453125 C 14.019531 57.140625 14.152344 56.835938 14.296875 56.535156 C 14.871094 55.324219 15.585938 54.191406 16.414062 53.15625 C 16.625 52.898438 16.835938 52.644531 17.058594 52.402344 C 17.164062 52.277344 17.28125 52.15625 17.394531 52.035156 C 17.511719 51.917969 17.625 51.800781 17.742188 51.679688 C 18.332031 51.09375 18.960938 50.558594 19.621094 50.0625 C 19.953125 49.816406 20.289062 49.585938 20.636719 49.363281 C 20.984375 49.144531 21.335938 48.933594 21.699219 48.738281 C 21.703125 48.730469 21.710938 48.730469 21.710938 48.730469 C 21.851562 48.65625 21.988281 48.574219 22.128906 48.488281 C 22.398438 48.324219 22.667969 48.148438 22.925781 47.957031 C 23.054688 47.867188 23.179688 47.769531 23.304688 47.667969 C 23.597656 47.433594 23.882812 47.179688 24.15625 46.914062 C 24.246094 46.824219 24.332031 46.738281 24.421875 46.644531 C 24.605469 46.457031 24.78125 46.253906 24.945312 46.050781 C 25.027344 45.953125 25.109375 45.851562 25.1875 45.75 C 25.265625 45.648438 25.339844 45.542969 25.414062 45.4375 C 26 44.625 26.46875 43.730469 26.8125 42.777344 C 27.230469 41.617188 27.457031 40.367188 27.457031 39.0625 L 29.988281 39.074219 L 32.597656 39.085938 C 32.597656 40.375 32.816406 41.613281 33.222656 42.757812 C 33.558594 43.71875 34.027344 44.613281 34.601562 45.425781 C 35.199219 46.269531 35.910156 47.023438 36.71875 47.671875 C 36.839844 47.769531 36.960938 47.863281 37.082031 47.953125 C 37.199219 48.042969 37.320312 48.125 37.445312 48.207031 C 37.472656 48.230469 37.496094 48.246094 37.519531 48.261719 C 37.640625 48.339844 37.757812 48.417969 37.882812 48.492188 C 38.015625 48.574219 38.152344 48.65625 38.292969 48.730469 C 38.3125 48.738281 38.335938 48.746094 38.351562 48.761719 C 38.640625 48.921875 38.925781 49.089844 39.203125 49.261719 C 39.335938 49.34375 39.472656 49.429688 39.601562 49.523438 C 39.875 49.703125 40.140625 49.886719 40.398438 50.085938 C 40.398438 50.089844 40.402344 50.089844 40.402344 50.089844 L 40.40625 50.089844 C 41.070312 50.582031 41.695312 51.125 42.28125 51.707031 C 45.441406 54.855469 47.390625 59.203125 47.390625 64.015625 Z M 47.390625 64.015625 "/>
</g>
</g>
<g clip-path="url(#clip5)" clip-rule="nonzero">
<g clip-path="url(#clip6)" clip-rule="nonzero">
<path style=" stroke:none;fill-rule:nonzero;fill:rgb(78.039216%,83.137255%,88.627451%);fill-opacity:1;" d="M 47.394531 64.015625 L 12.609375 64.015625 C 12.609375 62.050781 12.933594 60.160156 13.535156 58.398438 C 13.644531 58.082031 13.761719 57.765625 13.890625 57.457031 C 13.886719 57.453125 13.890625 57.453125 13.890625 57.453125 C 14.015625 57.140625 14.152344 56.835938 14.296875 56.535156 C 14.871094 55.324219 15.585938 54.195312 16.414062 53.15625 C 16.625 52.898438 16.839844 52.644531 17.058594 52.402344 C 17.167969 52.277344 17.28125 52.15625 17.394531 52.035156 C 17.511719 51.917969 17.625 51.800781 17.742188 51.683594 C 18.332031 51.09375 18.960938 50.558594 19.621094 50.0625 C 19.953125 49.816406 20.289062 49.585938 20.636719 49.363281 C 20.984375 49.140625 21.335938 48.929688 21.699219 48.734375 C 21.703125 48.726562 21.710938 48.730469 21.710938 48.730469 L 21.710938 48.726562 C 21.851562 48.648438 21.988281 48.570312 22.128906 48.488281 C 22.539062 48.238281 22.929688 47.964844 23.296875 47.664062 C 23.300781 47.664062 23.300781 47.664062 23.304688 47.667969 C 25.003906 49.40625 27.367188 50.484375 29.988281 50.492188 L 30.015625 50.492188 C 32.640625 50.492188 35.011719 49.410156 36.71875 47.671875 L 36.722656 47.667969 C 36.953125 47.863281 37.195312 48.042969 37.445312 48.210938 C 37.472656 48.230469 37.496094 48.246094 37.519531 48.261719 C 37.640625 48.339844 37.761719 48.417969 37.882812 48.492188 C 38.015625 48.574219 38.152344 48.652344 38.292969 48.726562 C 38.316406 48.734375 38.332031 48.746094 38.351562 48.757812 C 38.640625 48.917969 38.925781 49.085938 39.203125 49.261719 C 39.335938 49.34375 39.472656 49.429688 39.601562 49.523438 C 39.875 49.699219 40.140625 49.886719 40.398438 50.085938 L 40.40625 50.085938 C 41.074219 50.582031 41.699219 51.125 42.28125 51.707031 C 45.441406 54.855469 47.394531 59.203125 47.394531 64.015625 Z M 47.394531 64.015625 "/>
</g>
</g>
<g clip-path="url(#clip7)" clip-rule="nonzero">
<g clip-path="url(#clip8)" clip-rule="nonzero">
<path style=" stroke:none;fill-rule:nonzero;fill:rgb(32.941176%,24.313725%,21.176471%);fill-opacity:1;" d="M 43.351562 26.804688 C 43.351562 26.949219 43.347656 27.09375 43.34375 27.234375 C 43.335938 27.535156 43.320312 27.832031 43.292969 28.128906 C 43.289062 28.230469 43.277344 28.332031 43.265625 28.433594 C 43.222656 28.855469 43.164062 29.273438 43.085938 29.683594 C 43.0625 29.824219 43.035156 29.957031 43.003906 30.09375 C 43.003906 30.121094 42.996094 30.148438 42.988281 30.171875 C 42.960938 30.3125 42.929688 30.445312 42.898438 30.582031 C 42.882812 30.660156 42.863281 30.734375 42.839844 30.808594 C 42.828125 30.867188 42.8125 30.929688 42.796875 30.984375 C 42.726562 31.253906 42.648438 31.515625 42.566406 31.777344 C 42.527344 31.902344 42.488281 32.023438 42.445312 32.148438 C 42.441406 32.160156 42.433594 32.175781 42.429688 32.1875 C 42.390625 32.296875 42.351562 32.410156 42.3125 32.519531 C 42.300781 32.554688 42.289062 32.585938 42.273438 32.621094 C 42.234375 32.726562 42.195312 32.832031 42.152344 32.9375 C 42.105469 33.066406 42.050781 33.191406 42 33.316406 C 41.953125 33.425781 41.902344 33.539062 41.855469 33.648438 C 41.847656 33.667969 41.839844 33.683594 41.832031 33.703125 C 41.777344 33.824219 41.722656 33.941406 41.667969 34.054688 C 41.613281 34.175781 41.554688 34.296875 41.492188 34.421875 C 41.371094 34.660156 41.246094 34.898438 41.117188 35.132812 C 41.058594 35.234375 41 35.339844 40.941406 35.445312 C 40.433594 36.316406 39.875 37.132812 39.265625 37.886719 C 39.183594 37.992188 39.097656 38.097656 39.007812 38.199219 C 38.886719 38.347656 38.761719 38.492188 38.636719 38.632812 C 38.527344 38.757812 38.414062 38.882812 38.300781 39.003906 C 37.984375 39.339844 37.664062 39.664062 37.335938 39.964844 C 37.269531 40.03125 37.203125 40.089844 37.132812 40.152344 C 37.023438 40.253906 36.910156 40.351562 36.796875 40.445312 C 36.707031 40.523438 36.613281 40.601562 36.523438 40.675781 C 36.285156 40.867188 36.050781 41.054688 35.8125 41.230469 C 35.714844 41.304688 35.609375 41.378906 35.511719 41.445312 C 35.347656 41.5625 35.179688 41.675781 35.011719 41.785156 C 34.917969 41.847656 34.824219 41.90625 34.730469 41.960938 C 34.394531 42.167969 34.058594 42.359375 33.722656 42.523438 C 33.640625 42.5625 33.558594 42.601562 33.476562 42.644531 C 33.394531 42.683594 33.308594 42.722656 33.222656 42.761719 C 33.113281 42.808594 33.003906 42.855469 32.898438 42.898438 C 32.855469 42.917969 32.8125 42.933594 32.769531 42.949219 C 32.640625 43 32.507812 43.050781 32.382812 43.089844 C 32.222656 43.152344 32.058594 43.199219 31.898438 43.246094 C 31.785156 43.277344 31.671875 43.308594 31.558594 43.335938 C 31.550781 43.335938 31.546875 43.339844 31.535156 43.339844 C 31.425781 43.367188 31.3125 43.394531 31.203125 43.414062 C 31.171875 43.417969 31.144531 43.425781 31.113281 43.429688 C 31.019531 43.445312 30.929688 43.460938 30.835938 43.472656 C 30.707031 43.492188 30.574219 43.507812 30.445312 43.515625 C 30.398438 43.519531 30.355469 43.523438 30.308594 43.523438 C 30.207031 43.53125 30.101562 43.535156 30 43.535156 L 29.988281 43.535156 C 29.886719 43.535156 29.785156 43.53125 29.683594 43.523438 C 29.644531 43.523438 29.605469 43.519531 29.566406 43.515625 C 29.472656 43.511719 29.378906 43.5 29.28125 43.488281 C 29.261719 43.488281 29.238281 43.484375 29.21875 43.480469 C 29.097656 43.464844 28.976562 43.445312 28.851562 43.421875 C 28.746094 43.40625 28.640625 43.382812 28.53125 43.355469 C 27.972656 43.230469 27.394531 43.035156 26.8125 42.777344 C 26.3125 42.558594 25.808594 42.292969 25.308594 41.984375 C 25.054688 41.832031 24.804688 41.667969 24.554688 41.492188 C 24.429688 41.402344 24.304688 41.316406 24.179688 41.222656 C 23.789062 40.9375 23.402344 40.625 23.023438 40.292969 C 22.917969 40.195312 22.8125 40.101562 22.707031 40.003906 C 22.601562 39.90625 22.496094 39.808594 22.394531 39.714844 C 22.140625 39.46875 21.890625 39.214844 21.648438 38.949219 C 21.550781 38.847656 21.457031 38.742188 21.363281 38.632812 C 21.101562 38.335938 20.84375 38.03125 20.601562 37.714844 C 20.507812 37.601562 20.417969 37.480469 20.328125 37.363281 C 20 36.925781 19.683594 36.464844 19.386719 35.988281 C 19.308594 35.863281 19.230469 35.730469 19.15625 35.601562 C 19.0625 35.449219 18.976562 35.292969 18.886719 35.132812 C 18.558594 34.542969 18.257812 33.929688 17.996094 33.296875 C 17.957031 33.207031 17.917969 33.113281 17.882812 33.023438 C 17.832031 32.90625 17.785156 32.785156 17.742188 32.664062 C 17.675781 32.492188 17.613281 32.316406 17.554688 32.144531 C 17.496094 31.96875 17.441406 31.792969 17.386719 31.617188 C 17.332031 31.445312 17.285156 31.273438 17.238281 31.101562 C 17.183594 30.917969 17.136719 30.730469 17.09375 30.539062 C 17.089844 30.519531 17.082031 30.5 17.082031 30.480469 C 17.019531 30.21875 16.960938 29.953125 16.914062 29.683594 C 16.847656 29.332031 16.796875 28.96875 16.753906 28.605469 C 16.738281 28.492188 16.730469 28.375 16.71875 28.261719 C 16.707031 28.140625 16.695312 28.023438 16.691406 27.902344 C 16.675781 27.679688 16.664062 27.457031 16.65625 27.234375 C 16.652344 27.089844 16.652344 26.945312 16.652344 26.804688 L 18.78125 30.992188 L 22.445312 32.589844 L 26.773438 32.980469 L 29.988281 33.273438 L 30.007812 33.273438 L 33.015625 33.542969 L 39.714844 34.148438 Z M 43.351562 26.804688 "/>
</g>
</g>
<g clip-path="url(#clip9)" clip-rule="nonzero">
<g clip-path="url(#clip10)" clip-rule="nonzero">
<path style=" stroke:none;fill-rule:nonzero;fill:rgb(32.941176%,24.313725%,21.176471%);fill-opacity:1;" d="M 40.507812 8.601562 C 39.855469 10.078125 39.003906 11.453125 38.003906 12.699219 C 37.945312 12.769531 37.882812 12.84375 37.820312 12.914062 C 35.765625 15.390625 33.070312 17.316406 29.988281 18.441406 C 29.179688 18.738281 28.34375 18.980469 27.484375 19.160156 C 26.910156 19.28125 26.328125 19.378906 25.734375 19.445312 C 25.050781 19.523438 24.355469 19.5625 23.652344 19.5625 C 22.84375 19.5625 22.054688 19.507812 21.277344 19.40625 C 20.515625 19.3125 19.773438 19.171875 19.046875 18.980469 C 18.628906 18.875 18.222656 18.753906 17.820312 18.621094 C 17.421875 18.488281 17.035156 18.34375 16.652344 18.1875 L 16.652344 16.832031 C 16.652344 9.464844 22.621094 3.492188 29.988281 3.484375 L 30.003906 3.484375 C 31.019531 3.484375 32.007812 3.601562 32.960938 3.8125 C 33.828125 4.011719 34.664062 4.292969 35.457031 4.648438 C 36.539062 5.136719 37.546875 5.757812 38.453125 6.503906 C 39.210938 7.125 39.90625 7.828125 40.507812 8.601562 Z M 40.507812 8.601562 "/>
</g>
</g>
<g clip-path="url(#clip11)" clip-rule="nonzero">
<g clip-path="url(#clip12)" clip-rule="nonzero">
<path style=" stroke:none;fill-rule:nonzero;fill:rgb(32.941176%,24.313725%,21.176471%);fill-opacity:1;" d="M 43.351562 16.832031 L 43.351562 19.457031 C 41.074219 17.699219 39.191406 15.472656 37.828125 12.929688 C 37.824219 12.925781 37.824219 12.917969 37.820312 12.914062 C 36.484375 10.417969 35.65625 7.613281 35.457031 4.648438 C 36.539062 5.132812 37.546875 5.757812 38.453125 6.5 C 39.210938 7.125 39.90625 7.824219 40.507812 8.601562 C 42.289062 10.867188 43.351562 13.726562 43.351562 16.832031 Z M 43.351562 16.832031 "/>
</g>
</g>
<g clip-path="url(#clip13)" clip-rule="nonzero">
<g clip-path="url(#clip14)" clip-rule="nonzero">
<path style=" stroke:none;fill-rule:nonzero;fill:rgb(32.941176%,24.313725%,21.176471%);fill-opacity:1;" d="M 18.214844 17.863281 C 18.074219 18.109375 17.945312 18.359375 17.820312 18.621094 C 17.769531 18.722656 17.71875 18.828125 17.671875 18.933594 C 17.027344 20.371094 16.699219 21.78125 16.65625 23.054688 C 16.65625 23.089844 16.652344 23.128906 16.652344 23.164062 L 16.652344 18.023438 C 16.652344 17.839844 16.65625 17.660156 16.65625 17.480469 C 17.175781 17.617188 17.695312 17.746094 18.214844 17.863281 Z M 18.214844 17.863281 "/>
</g>
</g>
<g clip-path="url(#clip15)" clip-rule="nonzero">
<g clip-path="url(#clip16)" clip-rule="nonzero">
<path style=" stroke:none;fill-rule:nonzero;fill:rgb(32.941176%,24.313725%,21.176471%);fill-opacity:1;" d="M 41.792969 17.863281 C 41.992188 18.210938 42.167969 18.566406 42.339844 18.933594 C 43.003906 20.414062 43.328125 21.859375 43.359375 23.164062 L 43.359375 18.023438 C 43.359375 17.839844 43.351562 17.660156 43.351562 17.484375 C 42.832031 17.617188 42.316406 17.746094 41.792969 17.863281 Z M 41.792969 17.863281 "/>
</g>
</g>
<g clip-path="url(#clip17)" clip-rule="nonzero">
<g clip-path="url(#clip18)" clip-rule="nonzero">
<path style=" stroke:none;fill-rule:nonzero;fill:rgb(10.196078%,10.196078%,10.196078%);fill-opacity:1;" d="M 41.765625 19.1875 C 41.765625 19.132812 41.722656 19.082031 41.667969 19.074219 C 41.195312 19.003906 39.070312 18.710938 36.785156 18.710938 C 34.191406 18.710938 30.84375 19.523438 30.261719 19.523438 L 29.742188 19.523438 C 29.472656 19.523438 28.597656 19.347656 27.484375 19.160156 C 26.203125 18.945312 24.601562 18.710938 23.21875 18.710938 C 21.546875 18.710938 19.960938 18.867188 19.046875 18.980469 C 18.710938 19.019531 18.464844 19.054688 18.335938 19.074219 C 18.28125 19.082031 18.238281 19.132812 18.238281 19.1875 L 18.210938 20.578125 C 18.210938 20.628906 18.242188 20.671875 18.289062 20.691406 L 18.445312 20.746094 C 18.675781 20.835938 18.65625 25.035156 19.910156 26.085938 C 20.65625 26.703125 21.316406 27.058594 24.105469 27.058594 C 25.722656 27.058594 26.738281 26.621094 27.703125 25.320312 C 28.398438 24.386719 29.015625 22.175781 29.015625 22.175781 C 29.203125 21.265625 29.878906 21.191406 29.988281 21.1875 C 29.996094 21.1875 30.003906 21.1875 30.003906 21.1875 C 30.023438 21.1875 30.789062 21.199219 30.988281 22.175781 C 30.988281 22.175781 31.605469 24.386719 32.300781 25.320312 C 33.265625 26.621094 34.28125 27.058594 35.898438 27.058594 C 38.6875 27.058594 39.347656 26.703125 40.09375 26.085938 C 41.347656 25.035156 41.328125 20.835938 41.558594 20.746094 L 41.71875 20.691406 C 41.761719 20.671875 41.792969 20.628906 41.792969 20.578125 Z M 27.703125 24.15625 C 27.292969 25.128906 26.234375 26.378906 24.742188 26.457031 C 20.269531 26.683594 20.0625 25.433594 19.773438 24.441406 C 19.480469 23.453125 19.40625 22.582031 19.519531 21.59375 C 19.636719 20.601562 19.886719 20.023438 20.335938 19.730469 C 20.53125 19.601562 20.742188 19.488281 21.277344 19.40625 C 21.761719 19.335938 22.503906 19.292969 23.742188 19.292969 C 24.460938 19.292969 25.132812 19.347656 25.734375 19.445312 C 27.328125 19.703125 28.402344 20.242188 28.402344 20.777344 C 28.402344 21.140625 28.308594 22.722656 27.703125 24.15625 Z M 40.230469 24.441406 C 39.945312 25.433594 39.738281 26.683594 35.261719 26.457031 C 33.769531 26.378906 32.710938 25.128906 32.300781 24.15625 C 31.695312 22.722656 31.601562 21.140625 31.601562 20.777344 C 31.601562 20.042969 33.640625 19.292969 36.261719 19.292969 C 38.882812 19.292969 39.300781 19.488281 39.667969 19.730469 C 40.117188 20.023438 40.367188 20.601562 40.484375 21.59375 C 40.597656 22.582031 40.523438 23.453125 40.230469 24.441406 Z M 40.230469 24.441406 "/>
</g>
</g>
<g clip-path="url(#clip19)" clip-rule="nonzero">
<g clip-path="url(#clip20)" clip-rule="nonzero">
<path style=" stroke:none;fill-rule:nonzero;fill:rgb(32.941176%,24.313725%,21.176471%);fill-opacity:1;" d="M 30.015625 28.90625 L 30.011719 32.140625 L 30.007812 33.273438 L 30.007812 34.160156 L 30.003906 37.113281 L 30 37.113281 L 29.988281 37.105469 L 17.09375 30.542969 C 17.089844 30.519531 17.085938 30.5 17.082031 30.480469 C 17.019531 30.21875 16.964844 29.953125 16.914062 29.6875 C 16.847656 29.332031 16.796875 28.96875 16.757812 28.605469 C 16.738281 28.492188 16.730469 28.378906 16.71875 28.261719 C 16.707031 28.140625 16.699219 28.023438 16.691406 27.902344 C 16.675781 27.683594 16.664062 27.460938 16.65625 27.234375 C 16.65625 27.089844 16.652344 26.949219 16.652344 26.804688 L 16.652344 22.886719 C 16.652344 22.941406 16.65625 22.996094 16.65625 23.050781 C 16.679688 24 16.832031 25.042969 17.125 26.109375 C 17.351562 26.929688 17.632812 27.683594 17.960938 28.359375 L 17.960938 28.363281 C 18.820312 30.152344 19.96875 31.363281 21.027344 31.558594 C 21.09375 31.570312 21.164062 31.578125 21.230469 31.582031 C 21.636719 31.628906 22.066406 31.65625 22.511719 31.65625 C 24.183594 31.65625 25.667969 30.3125 26.601562 29.765625 C 26.609375 29.765625 26.617188 29.761719 26.621094 29.757812 C 26.671875 29.726562 26.722656 29.699219 26.761719 29.667969 C 26.777344 29.660156 26.789062 29.652344 26.800781 29.644531 C 27.589844 29.195312 28.722656 28.910156 29.988281 28.90625 Z M 30.015625 28.90625 "/>
</g>
</g>
<g clip-path="url(#clip21)" clip-rule="nonzero">
<g clip-path="url(#clip22)" clip-rule="nonzero">
<path style=" stroke:none;fill-rule:nonzero;fill:rgb(32.941176%,24.313725%,21.176471%);fill-opacity:1;" d="M 43.351562 22.886719 L 43.351562 26.804688 C 43.351562 27.789062 43.257812 28.75 43.085938 29.6875 C 43.019531 30.058594 42.941406 30.429688 42.847656 30.796875 L 39.820312 35.167969 L 30.003906 37.113281 L 30 37.113281 L 29.988281 28.90625 L 30.015625 28.90625 C 31.28125 28.910156 32.417969 29.195312 33.207031 29.644531 C 33.21875 29.652344 33.230469 29.65625 33.242188 29.667969 C 33.289062 29.699219 33.335938 29.726562 33.386719 29.757812 C 33.390625 29.761719 33.394531 29.761719 33.402344 29.765625 C 34.339844 30.3125 35.820312 31.65625 37.496094 31.65625 C 37.9375 31.65625 38.367188 31.628906 38.777344 31.582031 C 38.84375 31.578125 38.910156 31.570312 38.980469 31.5625 C 40.035156 31.363281 41.191406 30.152344 42.046875 28.363281 L 42.046875 28.359375 C 42.371094 27.6875 42.65625 26.929688 42.882812 26.109375 C 43.175781 25.027344 43.332031 23.972656 43.351562 23.011719 C 43.351562 22.96875 43.351562 22.929688 43.351562 22.886719 Z M 43.351562 22.886719 "/>
</g>
</g>
<g clip-path="url(#clip23)" clip-rule="nonzero">
<g clip-path="url(#clip24)" clip-rule="nonzero">
<path style=" stroke:none;fill-rule:nonzero;fill:rgb(92.54902%,75.686275%,61.176471%);fill-opacity:1;" d="M 33.269531 33.152344 C 33.269531 32.59375 31.804688 32.140625 30 32.140625 C 28.195312 32.140625 26.730469 32.59375 26.730469 33.152344 C 26.730469 33.710938 28.195312 34.160156 30 34.160156 C 31.804688 34.160156 33.269531 33.710938 33.269531 33.152344 Z M 33.269531 33.152344 "/>
</g>
</g>
<g clip-path="url(#clip25)" clip-rule="nonzero">
<g clip-path="url(#clip26)" clip-rule="nonzero">
<path style=" stroke:none;fill-rule:nonzero;fill:rgb(26.27451%,32.54902%,38.823529%);fill-opacity:1;" d="M 20.453125 49.484375 L 20.453125 67.519531 L 19.058594 67.519531 L 19.058594 50.5 C 19.246094 50.351562 19.433594 50.203125 19.621094 50.0625 C 19.894531 49.859375 20.167969 49.667969 20.453125 49.484375 Z M 20.453125 49.484375 "/>
</g>
</g>
<g clip-path="url(#clip27)" clip-rule="nonzero">
<g clip-path="url(#clip28)" clip-rule="nonzero">
<path style=" stroke:none;fill-rule:nonzero;fill:rgb(26.27451%,32.54902%,38.823529%);fill-opacity:1;" d="M 39.550781 49.488281 L 39.550781 67.519531 L 40.941406 67.519531 L 40.941406 50.503906 Z M 39.550781 49.488281 "/>
</g>
</g>
<g clip-path="url(#clip29)" clip-rule="nonzero">
<g clip-path="url(#clip30)" clip-rule="nonzero">
<path style=" stroke:none;fill-rule:nonzero;fill:rgb(7.843137%,9.019608%,12.54902%);fill-opacity:1;" d="M 26.1875 48.382812 L 30 52.953125 L 33.816406 48.382812 Z M 26.1875 48.382812 "/>
</g>
</g>
<g clip-path="url(#clip31)" clip-rule="nonzero">
<g clip-path="url(#clip32)" clip-rule="nonzero">
<path style=" stroke:none;fill-rule:nonzero;fill:rgb(7.843137%,9.019608%,12.54902%);fill-opacity:1;" d="M 30 71.890625 L 27.746094 71.890625 L 29.375 50.90625 C 29.441406 51.175781 30.558594 51.175781 30.625 50.90625 L 32.257812 71.890625 Z M 30 71.890625 "/>
</g>
</g>
<g clip-path="url(#clip33)" clip-rule="nonzero">
<g clip-path="url(#clip34)" clip-rule="nonzero">
<path style=" stroke:none;fill-rule:nonzero;fill:rgb(90.588235%,92.54902%,94.901961%);fill-opacity:1;" d="M 30 48.355469 L 29.988281 48.375 L 29.984375 48.378906 L 28.402344 51.039062 L 26.921875 53.515625 L 22.917969 47.953125 C 23.046875 47.863281 23.175781 47.761719 23.296875 47.660156 C 23.300781 47.664062 23.300781 47.664062 23.304688 47.667969 C 24.105469 47.027344 24.820312 46.277344 25.414062 45.4375 L 29.988281 48.351562 Z M 30 48.355469 "/>
</g>
</g>
<g clip-path="url(#clip35)" clip-rule="nonzero">
<g clip-path="url(#clip36)" clip-rule="nonzero">
<path style=" stroke:none;fill-rule:nonzero;fill:rgb(90.588235%,92.54902%,94.901961%);fill-opacity:1;" d="M 37.082031 47.953125 L 33.078125 53.515625 L 31.597656 51.039062 L 30.011719 48.378906 L 30 48.355469 L 34.601562 45.425781 C 35.199219 46.273438 35.910156 47.027344 36.714844 47.671875 C 36.839844 47.769531 36.960938 47.867188 37.082031 47.953125 Z M 37.082031 47.953125 "/>
</g>
</g>
</g>
</svg>
