<?xml version="1.0" encoding="UTF-8"?>
<svg xmlns="http://www.w3.org/2000/svg" xmlns:xlink="http://www.w3.org/1999/xlink" width="60pt" height="60pt" viewBox="0 0 60 60" version="1.1">
<g id="surface1">
<path style=" stroke:none;fill-rule:nonzero;fill:rgb(63.921569%,83.137255%,100%);fill-opacity:1;" d="M 10.414062 52.726562 C 4.035156 47.222656 0 39.082031 0 30 C 0 13.429688 13.429688 0 30 0 C 46.570312 0 60 13.429688 60 30 C 60 39.082031 55.964844 47.222656 49.585938 52.726562 Z M 10.414062 52.726562 "/>
<path style=" stroke:none;fill-rule:nonzero;fill:rgb(39.607843%,69.411765%,98.823529%);fill-opacity:1;" d="M 40.285156 11.609375 L 18.402344 25.261719 L 24.890625 31.75 L 22.953125 31.75 L 42.359375 51.160156 L 49.585938 52.726562 C 55.65625 47.488281 59.609375 39.855469 59.972656 31.296875 Z M 40.285156 11.609375 "/>
<path style=" stroke:none;fill-rule:nonzero;fill:rgb(87.843137%,57.647059%,50.196078%);fill-opacity:1;" d="M 22.71875 23.695312 C 22.71875 25.042969 21.625 26.136719 20.277344 26.136719 C 18.925781 26.136719 17.832031 25.042969 17.832031 23.695312 C 17.832031 22.34375 18.925781 21.25 20.277344 21.25 C 21.625 21.25 22.71875 22.34375 22.71875 23.695312 Z M 22.71875 23.695312 "/>
<path style=" stroke:none;fill-rule:nonzero;fill:rgb(83.137255%,49.803922%,42.352941%);fill-opacity:1;" d="M 42.167969 23.695312 C 42.167969 25.042969 41.074219 26.136719 39.722656 26.136719 C 38.375 26.136719 37.28125 25.042969 37.28125 23.695312 C 37.28125 22.34375 38.375 21.25 39.722656 21.25 C 41.074219 21.25 42.167969 22.34375 42.167969 23.695312 Z M 42.167969 23.695312 "/>
<path style=" stroke:none;fill-rule:nonzero;fill:rgb(100%,100%,100%);fill-opacity:1;" d="M 23.125 38.542969 L 17.414062 39.140625 C 16.003906 39.339844 14.769531 39.914062 13.847656 40.726562 C 13.847656 40.726562 13.84375 40.726562 13.84375 40.726562 C 12.761719 41.675781 12.109375 42.957031 12.109375 44.34375 L 12.109375 49.308594 C 17.269531 52.058594 23.410156 53.65625 30 53.65625 C 36.589844 53.65625 42.730469 52.058594 47.890625 49.308594 L 47.890625 44.34375 C 47.890625 42.957031 47.238281 41.675781 46.15625 40.726562 C 46.152344 40.726562 46.152344 40.726562 46.152344 40.726562 C 45.226562 39.914062 43.996094 39.339844 42.585938 39.140625 L 36.875 38.542969 L 30 40.988281 Z M 23.125 38.542969 "/>
<path style=" stroke:none;fill-rule:nonzero;fill:rgb(91.372549%,92.941176%,96.078431%);fill-opacity:1;" d="M 30 40.988281 L 30 53.65625 C 36.585938 53.652344 42.734375 52.058594 47.890625 49.308594 L 47.890625 44.34375 C 47.890625 42.957031 47.238281 41.675781 46.15625 40.726562 C 46.152344 40.726562 46.152344 40.726562 46.152344 40.726562 C 45.226562 39.914062 43.996094 39.339844 42.585938 39.144531 L 36.875 38.542969 "/>
<path style=" stroke:none;fill-rule:nonzero;fill:rgb(87.843137%,57.647059%,50.196078%);fill-opacity:1;" d="M 23.125 38.542969 C 24.761719 40.515625 27.234375 41.773438 30 41.773438 C 32.765625 41.773438 35.238281 40.515625 36.875 38.542969 L 36.515625 38.480469 C 35.222656 38.265625 34.28125 37.148438 34.28125 35.839844 L 34.28125 29.878906 L 25.71875 29.878906 L 25.71875 35.839844 C 25.71875 37.148438 24.777344 38.265625 23.484375 38.480469 Z M 23.125 38.542969 "/>
<path style=" stroke:none;fill-rule:nonzero;fill:rgb(83.137255%,49.803922%,42.352941%);fill-opacity:1;" d="M 36.875 38.542969 L 36.515625 38.480469 C 35.222656 38.265625 34.28125 37.148438 34.28125 35.839844 L 34.28125 29.878906 L 30 29.878906 L 30 41.773438 C 32.761719 41.769531 35.238281 40.511719 36.875 38.542969 Z M 36.875 38.542969 "/>
<path style=" stroke:none;fill-rule:nonzero;fill:rgb(98.039216%,65.098039%,55.686275%);fill-opacity:1;" d="M 30 34.660156 C 24.769531 34.660156 20.109375 30.421875 20.109375 25.191406 L 20.109375 19.929688 C 20.109375 14.699219 24.769531 10.460938 30 10.460938 C 35.230469 10.460938 39.890625 14.699219 39.890625 19.929688 L 39.890625 25.191406 C 39.890625 30.421875 35.230469 34.660156 30 34.660156 Z M 30 34.660156 "/>
<path style=" stroke:none;fill-rule:nonzero;fill:rgb(87.843137%,57.647059%,50.196078%);fill-opacity:1;" d="M 30 10.460938 L 30 34.660156 C 35.230469 34.660156 39.890625 30.421875 39.890625 25.191406 L 39.890625 19.929688 C 39.890625 14.699219 35.230469 10.460938 30 10.460938 Z M 30 10.460938 "/>
<path style=" stroke:none;fill-rule:nonzero;fill:rgb(25.490196%,28.627451%,32.156863%);fill-opacity:1;" d="M 10.414062 52.726562 C 15.667969 57.257812 22.515625 60 30 60 C 37.484375 60 44.332031 57.257812 49.585938 52.726562 L 49.585938 43.238281 L 10.414062 43.238281 Z M 10.414062 52.726562 "/>
<path style=" stroke:none;fill-rule:nonzero;fill:rgb(13.72549%,15.294118%,16.862745%);fill-opacity:1;" d="M 30 60 C 37.484375 60 44.332031 57.257812 49.585938 52.726562 L 49.585938 43.238281 L 30 43.238281 Z M 30 60 "/>
<path style=" stroke:none;fill-rule:nonzero;fill:rgb(49.411765%,52.156863%,58.823529%);fill-opacity:1;" d="M 33.464844 53.5 C 33.464844 55.414062 31.914062 56.964844 30 56.964844 C 28.085938 56.964844 26.535156 55.414062 26.535156 53.5 C 26.535156 51.585938 28.085938 50.035156 30 50.035156 C 31.914062 50.035156 33.464844 51.585938 33.464844 53.5 Z M 33.464844 53.5 "/>
<path style=" stroke:none;fill-rule:nonzero;fill:rgb(43.921569%,46.666667%,53.72549%);fill-opacity:1;" d="M 30 50.035156 C 31.914062 50.035156 33.464844 51.585938 33.464844 53.5 C 33.464844 55.414062 31.914062 56.964844 30 56.964844 Z M 30 50.035156 "/>
<path style=" stroke:none;fill-rule:nonzero;fill:rgb(25.490196%,28.627451%,32.156863%);fill-opacity:1;" d="M 41.597656 16.074219 C 41.597656 11.519531 37.90625 7.828125 33.351562 7.828125 L 27.808594 7.828125 C 22.613281 7.828125 18.402344 12.039062 18.402344 17.230469 L 18.402344 21.976562 C 18.402344 22.925781 19.171875 23.695312 20.121094 23.695312 L 20.121094 20.761719 L 24.347656 20.761719 C 27.257812 20.761719 33.371094 20.980469 36.203125 16.5625 C 36.53125 18.007812 37.710938 20.445312 39.332031 20.445312 L 39.878906 20.445312 L 39.878906 23.695312 C 40.828125 23.695312 41.597656 22.925781 41.597656 21.976562 Z M 41.597656 16.074219 "/>
<path style=" stroke:none;fill-rule:nonzero;fill:rgb(20%,22.352941%,25.098039%);fill-opacity:1;" d="M 33.351562 7.828125 L 30 7.828125 L 30 20.378906 C 32.339844 19.90625 34.726562 18.863281 36.203125 16.5625 C 36.53125 18.007812 37.710938 20.445312 39.332031 20.445312 L 39.878906 20.445312 L 39.878906 23.695312 C 40.828125 23.695312 41.597656 22.925781 41.597656 21.972656 L 41.597656 16.074219 C 41.597656 11.519531 37.90625 7.828125 33.351562 7.828125 Z M 33.351562 7.828125 "/>
</g>
</svg>
