<?xml version="1.0" encoding="UTF-8"?>
<svg xmlns="http://www.w3.org/2000/svg" xmlns:xlink="http://www.w3.org/1999/xlink" width="60pt" height="60pt" viewBox="0 0 60 60" version="1.1">
<g id="surface1">
<path style=" stroke:none;fill-rule:nonzero;fill:rgb(99.215686%,51.764706%,41.176471%);fill-opacity:1;" d="M 60 30 C 60 46.570312 46.570312 60 30 60 C 13.429688 60 0 46.570312 0 30 C 0 13.429688 13.429688 0 30 0 C 46.570312 0 60 13.429688 60 30 Z M 60 30 "/>
<path style=" stroke:none;fill-rule:nonzero;fill:rgb(51.764706%,85.882353%,100%);fill-opacity:1;" d="M 30.140625 42.851562 C 30.09375 42.851562 30.046875 42.898438 30 42.898438 C 29.953125 42.898438 29.90625 42.851562 29.859375 42.851562 Z M 30.140625 42.851562 "/>
<path style=" stroke:none;fill-rule:nonzero;fill:rgb(51.764706%,85.882353%,100%);fill-opacity:1;" d="M 53.292969 48.898438 C 47.8125 55.652344 39.402344 60 30 60 C 20.597656 60 12.1875 55.652344 6.707031 48.898438 C 10.628906 43.652344 16.628906 41.054688 21.542969 39.78125 C 21.164062 42.898438 22.773438 47.054688 22.820312 46.960938 C 24.472656 43.179688 30 42.851562 30 42.851562 C 30 42.851562 35.527344 43.179688 37.132812 46.960938 C 37.179688 47.054688 38.835938 42.898438 38.410156 39.78125 C 43.371094 41.054688 49.417969 43.652344 53.292969 48.898438 Z M 53.292969 48.898438 "/>
<path style=" stroke:none;fill-rule:nonzero;fill:rgb(100%,100%,100%);fill-opacity:1;" d="M 36.757812 36.851562 C 36.757812 36.851562 36.757812 36.851562 36.757812 36.898438 C 36.757812 37.371094 36.519531 40.394531 30.140625 42.804688 L 29.859375 42.804688 C 23.480469 40.394531 23.242188 37.371094 23.242188 36.898438 C 23.242188 36.851562 23.242188 36.851562 23.242188 36.851562 C 23.242188 36.234375 23.386719 35.621094 23.527344 35.007812 C 25.371094 37.324219 27.589844 38.882812 30 38.882812 C 32.410156 38.882812 34.628906 37.324219 36.472656 35.007812 C 36.613281 35.621094 36.757812 36.234375 36.757812 36.851562 Z M 36.757812 36.851562 "/>
<path style=" stroke:none;fill-rule:nonzero;fill:rgb(32.941176%,75.294118%,92.156863%);fill-opacity:1;" d="M 36.757812 36.851562 C 36.757812 36.851562 37.085938 40.253906 30 42.898438 C 30 42.898438 35.527344 43.226562 37.132812 47.007812 C 37.226562 47.101562 40.394531 38.882812 36.757812 36.851562 Z M 36.757812 36.851562 "/>
<path style=" stroke:none;fill-rule:nonzero;fill:rgb(32.941176%,75.294118%,92.156863%);fill-opacity:1;" d="M 23.242188 36.851562 C 19.605469 38.882812 22.773438 47.101562 22.867188 46.960938 C 24.519531 43.179688 30 42.851562 30 42.851562 C 22.914062 40.253906 23.242188 36.851562 23.242188 36.851562 Z M 23.242188 36.851562 "/>
<path style=" stroke:none;fill-rule:nonzero;fill:rgb(100%,100%,100%);fill-opacity:1;" d="M 39.921875 24.898438 C 39.496094 27.828125 38.21875 30.566406 36.09375 32.644531 C 35.667969 33.070312 35.292969 33.402344 34.820312 33.730469 L 34.0625 31.324219 L 25.9375 31.324219 L 25.179688 33.730469 C 23.667969 32.597656 20.503906 29.433594 20.457031 26.457031 C 19.132812 9.496094 32.125 13.085938 32.125 13.085938 C 40.867188 12.472656 40.582031 20.171875 39.921875 24.898438 Z M 39.921875 24.898438 "/>
<path style=" stroke:none;fill-rule:nonzero;fill:rgb(100%,100%,100%);fill-opacity:1;" d="M 41.667969 27.96875 C 41.007812 29.054688 40.109375 29.8125 39.261719 30.09375 C 39.589844 29.339844 39.875 28.535156 40.109375 27.730469 C 40.109375 27.730469 40.109375 27.730469 40.109375 27.683594 C 40.300781 26.976562 40.488281 26.269531 40.675781 25.558594 L 40.628906 25.558594 C 40.820312 24.851562 41.007812 24.140625 41.148438 23.433594 C 41.339844 23.433594 41.527344 23.527344 41.714844 23.621094 C 42.757812 24.285156 42.707031 26.21875 41.667969 27.96875 Z M 41.667969 27.96875 "/>
<path style=" stroke:none;fill-rule:nonzero;fill:rgb(100%,100%,100%);fill-opacity:1;" d="M 20.738281 30.09375 C 19.890625 29.8125 18.992188 29.054688 18.332031 27.96875 C 17.242188 26.21875 17.242188 24.285156 18.285156 23.667969 C 18.378906 23.621094 18.425781 23.574219 18.519531 23.574219 C 19.085938 25.796875 19.746094 27.449219 19.890625 27.78125 C 20.125 28.535156 20.410156 29.339844 20.738281 30.09375 Z M 20.738281 30.09375 "/>
<path style=" stroke:none;fill-rule:nonzero;fill:rgb(19.607843%,29.019608%,36.862745%);fill-opacity:1;" d="M 35.148438 8.363281 C 35.527344 4.015625 28.628906 4.300781 28.628906 4.300781 C 18.1875 5.8125 17.054688 15.542969 17.054688 15.542969 L 18.472656 13.84375 C 16.253906 18.707031 19.605469 27.070312 19.890625 27.730469 C 21.636719 33.542969 25.511719 38.882812 30 38.882812 C 34.488281 38.882812 38.363281 33.542969 40.109375 27.730469 C 40.109375 27.730469 40.109375 27.730469 40.109375 27.683594 C 40.300781 26.976562 40.488281 26.269531 40.628906 25.558594 L 40.582031 25.558594 C 41.527344 21.78125 42.566406 17.953125 42.566406 17.953125 C 45.261719 4.394531 35.148438 8.363281 35.148438 8.363281 Z M 39.921875 24.898438 C 39.496094 27.828125 38.21875 30.566406 36.09375 32.644531 C 35.667969 33.070312 35.242188 33.402344 34.820312 33.730469 L 34.0625 31.371094 L 25.9375 31.371094 L 25.179688 33.78125 C 23.667969 32.644531 22.394531 31.085938 21.355469 29.292969 C 20.882812 28.347656 20.597656 27.355469 20.457031 26.503906 C 19.132812 9.542969 32.125 13.132812 32.125 13.132812 C 40.867188 12.472656 40.582031 20.171875 39.921875 24.898438 Z M 39.921875 24.898438 "/>
<path style=" stroke:none;fill-rule:nonzero;fill:rgb(19.607843%,29.019608%,36.862745%);fill-opacity:1;" d="M 35.148438 8.363281 C 35.527344 4.015625 28.628906 4.300781 28.628906 4.300781 C 18.1875 5.8125 17.054688 15.542969 17.054688 15.542969 L 18.472656 13.84375 C 16.253906 18.707031 19.605469 27.070312 19.890625 27.730469 C 21.636719 33.542969 25.511719 38.882812 30 38.882812 C 34.488281 38.882812 38.363281 33.542969 40.109375 27.730469 C 40.109375 27.730469 40.109375 27.730469 40.109375 27.683594 C 40.300781 26.976562 40.488281 26.269531 40.628906 25.558594 L 40.582031 25.558594 C 41.527344 21.78125 42.566406 17.953125 42.566406 17.953125 C 45.261719 4.394531 35.148438 8.363281 35.148438 8.363281 Z M 39.921875 24.898438 C 39.496094 27.828125 38.21875 30.566406 36.09375 32.644531 C 35.667969 33.070312 35.242188 33.402344 34.820312 33.730469 L 34.0625 31.371094 L 25.9375 31.371094 L 25.179688 33.78125 C 23.667969 32.644531 22.394531 31.085938 21.355469 29.292969 C 20.882812 28.347656 20.597656 27.355469 20.457031 26.503906 C 19.132812 9.542969 32.125 13.132812 32.125 13.132812 C 40.867188 12.472656 40.582031 20.171875 39.921875 24.898438 Z M 39.921875 24.898438 "/>
<path style=" stroke:none;fill-rule:nonzero;fill:rgb(19.607843%,29.019608%,36.862745%);fill-opacity:1;" d="M 35.148438 8.363281 C 35.527344 4.015625 28.628906 4.300781 28.628906 4.300781 C 18.1875 5.8125 17.054688 15.542969 17.054688 15.542969 L 18.472656 13.84375 C 16.253906 18.707031 19.605469 27.070312 19.890625 27.730469 C 21.636719 33.542969 25.511719 38.882812 30 38.882812 C 34.488281 38.882812 38.363281 33.542969 40.109375 27.730469 C 40.109375 27.730469 40.109375 27.730469 40.109375 27.683594 C 40.300781 26.976562 40.488281 26.269531 40.628906 25.558594 L 40.582031 25.558594 C 41.527344 21.78125 42.566406 17.953125 42.566406 17.953125 C 45.261719 4.394531 35.148438 8.363281 35.148438 8.363281 Z M 39.921875 24.898438 C 39.496094 27.828125 38.21875 30.566406 36.09375 32.644531 C 35.667969 33.070312 35.242188 33.402344 34.820312 33.730469 L 34.0625 31.371094 L 25.9375 31.371094 L 25.179688 33.78125 C 23.667969 32.644531 20.503906 29.480469 20.457031 26.503906 C 19.132812 9.542969 32.125 13.132812 32.125 13.132812 C 40.867188 12.472656 40.582031 20.171875 39.921875 24.898438 Z M 39.921875 24.898438 "/>
<path style=" stroke:none;fill-rule:nonzero;fill:rgb(100%,100%,100%);fill-opacity:1;" d="M 26.691406 32.976562 C 27.496094 33.875 28.675781 34.488281 30 34.488281 C 31.324219 34.488281 32.503906 33.921875 33.308594 32.976562 Z M 26.691406 32.976562 "/>
</g>
</svg>
