<?xml version="1.0" encoding="UTF-8"?>
<svg xmlns="http://www.w3.org/2000/svg" xmlns:xlink="http://www.w3.org/1999/xlink" width="60pt" height="60pt" viewBox="0 0 60 60" version="1.1">
<g id="surface1">
<path style=" stroke:none;fill-rule:nonzero;fill:rgb(36.470588%,86.666667%,82.745098%);fill-opacity:1;" d="M 30 60 C 46.523438 60 60 46.523438 60 30 C 60 13.476562 46.523438 0 30 0 C 13.476562 0 0 13.476562 0 30 C 0 46.523438 13.476562 60 30 60 Z M 30 60 "/>
<path style=" stroke:none;fill-rule:nonzero;fill:rgb(40%,40%,40%);fill-opacity:1;" d="M 19.980469 35.390625 C 17.480469 29.078125 12.226562 23.367188 18.835938 11.863281 C 21.5625 7.121094 25.722656 3.996094 30.019531 5.054688 C 34.316406 3.996094 38.476562 7.121094 41.199219 11.863281 C 47.8125 23.367188 42.558594 29.078125 40.054688 35.390625 L 30.019531 35.414062 Z M 19.980469 35.390625 "/>
<path style=" stroke:none;fill-rule:nonzero;fill:rgb(99.607843%,81.960784%,59.607843%);fill-opacity:1;" d="M 13.113281 45.257812 C 12.800781 45.761719 12.019531 50.070312 11.152344 53.339844 C 16.304688 57.503906 22.859375 60 30 60 C 37.140625 60 43.695312 57.503906 48.847656 53.339844 C 47.980469 50.070312 47.199219 45.761719 46.886719 45.257812 C 42.066406 37.476562 34.636719 40.871094 34.128906 31.96875 C 34.128906 31.96875 31.742188 33.75 29.914062 33.765625 C 28.089844 33.78125 25.867188 32.078125 25.867188 32.078125 C 25.363281 40.976562 17.929688 37.480469 13.113281 45.257812 Z M 13.113281 45.257812 "/>
<path style=" stroke:none;fill-rule:nonzero;fill:rgb(94.117647%,72.54902%,49.019608%);fill-opacity:1;" d="M 34.257812 33.226562 C 34.199219 32.835938 34.15625 32.417969 34.128906 31.96875 C 34.128906 31.96875 31.742188 33.75 29.914062 33.765625 C 28.089844 33.785156 25.867188 32.078125 25.867188 32.078125 C 25.839844 32.539062 25.796875 32.960938 25.734375 33.355469 C 25.78125 33.394531 25.828125 33.429688 25.875 33.46875 L 25.875 33.472656 C 26.015625 33.597656 28.152344 35.433594 29.914062 35.414062 C 31.679688 35.433594 33.816406 33.597656 33.957031 33.472656 L 33.957031 33.46875 C 34.058594 33.386719 34.160156 33.308594 34.257812 33.226562 Z M 34.257812 33.226562 "/>
<path style=" stroke:none;fill-rule:nonzero;fill:rgb(99.607843%,81.960784%,59.607843%);fill-opacity:1;" d="M 25.875 32.085938 C 26.015625 32.191406 28.152344 33.78125 29.914062 33.765625 C 31.679688 33.78125 33.816406 32.191406 33.957031 32.085938 C 36.625 30.53125 38.8125 25.945312 38.316406 20.980469 C 37.914062 16.910156 33.511719 22.875 30.445312 14.480469 C 26.105469 23.570312 21.984375 18.191406 21.511719 21.636719 C 20.996094 25.433594 23.125 30.210938 25.875 32.085938 Z M 25.875 32.085938 "/>
<path style=" stroke:none;fill-rule:nonzero;fill:rgb(98.431373%,70.588235%,16.078431%);fill-opacity:1;" d="M 22.371094 38.449219 C 19.746094 39.851562 14.941406 39.894531 13.113281 42.835938 C 12.796875 43.347656 11.996094 49.617188 11.117188 53.3125 C 16.273438 57.492188 22.84375 60 30 60 C 37.15625 60 43.726562 57.492188 48.882812 53.3125 C 48.003906 49.617188 47.105469 43.394531 46.882812 42.835938 C 45.671875 39.773438 40.050781 39.644531 37.421875 38.234375 C 33.335938 53.0625 27.242188 54.074219 22.375 38.453125 Z M 22.371094 38.449219 "/>
<path style=" stroke:none;fill-rule:nonzero;fill:rgb(100%,100%,100%);fill-opacity:1;" d="M 24.125 36.976562 C 23.953125 41.589844 24.738281 48.125 29.914062 49.796875 C 25.039062 50 21.878906 42.980469 18.277344 41.140625 Z M 24.125 36.976562 "/>
<path style=" stroke:none;fill-rule:nonzero;fill:rgb(100%,100%,100%);fill-opacity:1;" d="M 35.996094 36.976562 C 36.175781 41.589844 35.351562 48.125 29.914062 49.796875 C 35.03125 50 38.355469 42.980469 42.136719 41.140625 Z M 35.996094 36.976562 "/>
</g>
</svg>
