<?xml version="1.0" encoding="UTF-8"?>
<svg xmlns="http://www.w3.org/2000/svg" xmlns:xlink="http://www.w3.org/1999/xlink" width="60pt" height="60pt" viewBox="0 0 60 60" version="1.1">
<g id="surface1">
<path style=" stroke:none;fill-rule:nonzero;fill:rgb(99.215686%,58.039216%,40.784314%);fill-opacity:1;" d="M 36.050781 0 L 35.722656 0 C 34.632812 0 33.628906 0.617188 32.980469 1.617188 C 32.304688 2.660156 31.222656 3.332031 30 3.332031 C 28.777344 3.332031 27.695312 2.660156 27.019531 1.617188 C 26.371094 0.617188 25.367188 0 24.277344 0 L 23.949219 0 C 22.371094 0 21.007812 1.25 20.664062 3.011719 L 18.332031 15 L 41.667969 15 L 39.335938 3.011719 C 38.992188 1.25 37.628906 0 36.050781 0 Z M 36.050781 0 "/>
<path style=" stroke:none;fill-rule:nonzero;fill:rgb(0.392157%,75.294118%,98.039216%);fill-opacity:1;" d="M 10.847656 49.085938 L 10.847656 59.878906 C 10.847656 59.945312 10.902344 60 10.96875 60 L 18.332031 60 L 20 46.667969 L 18.332031 38.605469 C 13.875 40.132812 10.847656 44.332031 10.847656 49.085938 Z M 10.847656 49.085938 "/>
<path style=" stroke:none;fill-rule:nonzero;fill:rgb(0.392157%,75.294118%,98.039216%);fill-opacity:1;" d="M 49.152344 49.085938 C 49.152344 44.332031 46.125 40.132812 41.667969 38.605469 L 40 48.332031 L 41.667969 60 L 49.03125 60 C 49.097656 60 49.152344 59.945312 49.152344 59.878906 Z M 49.152344 49.085938 "/>
<path style=" stroke:none;fill-rule:nonzero;fill:rgb(3.137255%,66.27451%,94.509804%);fill-opacity:1;" d="M 41.667969 38.605469 L 41.542969 39.332031 C 43.289062 41.308594 44.320312 43.894531 44.320312 46.671875 L 44.320312 53.003906 C 44.320312 54.992188 43.054688 56.683594 41.285156 57.320312 L 41.667969 60 L 49.03125 60 C 49.097656 60 49.152344 59.945312 49.152344 59.878906 L 49.152344 49.085938 C 49.152344 44.332031 46.125 40.132812 41.667969 38.605469 Z M 41.667969 38.605469 "/>
<path style=" stroke:none;fill-rule:nonzero;fill:rgb(0.392157%,75.294118%,98.039216%);fill-opacity:1;" d="M 30 45 L 23.332031 43.332031 L 25 60 L 35 60 L 36.667969 43.332031 Z M 30 45 "/>
<path style=" stroke:none;fill-rule:nonzero;fill:rgb(99.215686%,41.176471%,18.823529%);fill-opacity:1;" d="M 18.886719 38.429688 C 18.699219 38.484375 18.515625 38.542969 18.332031 38.605469 L 18.332031 60 L 25 60 L 25 43.03125 Z M 18.886719 38.429688 "/>
<path style=" stroke:none;fill-rule:nonzero;fill:rgb(99.215686%,41.176471%,18.823529%);fill-opacity:1;" d="M 41.113281 38.429688 L 35 43.03125 L 35 60 L 41.667969 60 L 41.667969 38.605469 C 41.484375 38.542969 41.300781 38.484375 41.113281 38.429688 Z M 41.113281 38.429688 "/>
<path style=" stroke:none;fill-rule:nonzero;fill:rgb(3.137255%,66.27451%,94.509804%);fill-opacity:1;" d="M 10.847656 57.585938 L 10.847656 59.878906 C 10.847656 59.945312 10.902344 60 10.96875 60 L 18.332031 60 L 18.636719 57.585938 Z M 10.847656 57.585938 "/>
<path style=" stroke:none;fill-rule:nonzero;fill:rgb(3.137255%,66.27451%,94.509804%);fill-opacity:1;" d="M 24.757812 57.585938 L 25 60 L 35 60 L 35.242188 57.585938 Z M 24.757812 57.585938 "/>
<path style=" stroke:none;fill-rule:nonzero;fill:rgb(99.215686%,32.941176%,14.901961%);fill-opacity:1;" d="M 18.332031 57.585938 L 25 57.585938 L 25 60 L 18.332031 60 Z M 18.332031 57.585938 "/>
<path style=" stroke:none;fill-rule:nonzero;fill:rgb(99.215686%,32.941176%,14.901961%);fill-opacity:1;" d="M 41.667969 39.472656 L 41.667969 38.605469 C 41.484375 38.542969 41.300781 38.484375 41.113281 38.429688 L 40.859375 38.621094 C 41.144531 38.894531 41.414062 39.175781 41.667969 39.472656 Z M 41.667969 39.472656 "/>
<path style=" stroke:none;fill-rule:nonzero;fill:rgb(99.215686%,32.941176%,14.901961%);fill-opacity:1;" d="M 39.742188 57.585938 L 35 57.585938 L 35 60 L 41.667969 60 L 41.667969 57.160156 C 41.082031 57.433594 40.429688 57.585938 39.742188 57.585938 Z M 39.742188 57.585938 "/>
<path style=" stroke:none;fill-rule:nonzero;fill:rgb(100%,89.803922%,76.078431%);fill-opacity:1;" d="M 19.441406 19.578125 L 17.039062 19.578125 C 15.410156 19.578125 14.085938 20.902344 14.085938 22.53125 C 14.085938 25.734375 16.683594 28.332031 19.886719 28.332031 L 20 28.332031 Z M 19.441406 19.578125 "/>
<path style=" stroke:none;fill-rule:nonzero;fill:rgb(99.607843%,82.352941%,64.313725%);fill-opacity:1;" d="M 42.960938 19.578125 L 40.558594 19.578125 L 40 28.332031 L 40.113281 28.332031 C 43.316406 28.332031 45.914062 25.734375 45.914062 22.53125 C 45.914062 20.902344 44.589844 19.578125 42.960938 19.578125 Z M 42.960938 19.578125 "/>
<path style=" stroke:none;fill-rule:nonzero;fill:rgb(99.607843%,82.352941%,64.313725%);fill-opacity:1;" d="M 37.875 37.503906 C 36.613281 37.144531 35.746094 35.992188 35.746094 34.683594 L 35.746094 31.289062 C 34.105469 32.410156 32.125 33.066406 30 33.066406 C 27.875 33.066406 25.894531 32.410156 24.253906 31.289062 L 24.253906 34.683594 C 24.253906 35.992188 23.386719 37.144531 22.125 37.503906 L 30 41.667969 Z M 37.875 37.503906 "/>
<path style=" stroke:none;fill-rule:nonzero;fill:rgb(99.607843%,1.176471%,39.215686%);fill-opacity:1;" d="M 18.457031 38.507812 L 30 55 L 41.542969 38.507812 C 41.609375 38.417969 41.574219 38.289062 41.476562 38.238281 L 39.25 37.125 C 38.679688 36.839844 38 36.867188 37.453125 37.195312 L 36.691406 37.652344 C 32.574219 40.121094 27.425781 40.121094 23.308594 37.652344 L 22.546875 37.195312 C 22 36.867188 21.320312 36.839844 20.75 37.125 L 18.523438 38.238281 C 18.425781 38.289062 18.390625 38.417969 18.457031 38.507812 Z M 18.457031 38.507812 "/>
<path style=" stroke:none;fill-rule:nonzero;fill:rgb(100%,95.294118%,87.058824%);fill-opacity:1;" d="M 25 15 L 21.667969 16.667969 L 18.183594 21.8125 C 18.292969 23.4375 18.351562 24.070312 18.582031 25.007812 C 19.839844 30.1875 24.503906 33.972656 30 33.972656 C 35.496094 33.972656 40.160156 30.1875 41.417969 25.003906 C 41.644531 24.070312 41.707031 23.425781 41.8125 21.8125 L 38.332031 16.667969 L 35 15 Z M 25 15 "/>
<path style=" stroke:none;fill-rule:nonzero;fill:rgb(0.392157%,44.705882%,59.215686%);fill-opacity:1;" d="M 17.785156 15 C 17.761719 15.472656 17.769531 15.949219 17.804688 16.429688 C 18.007812 19.027344 18.109375 20.667969 18.183594 21.8125 L 25 15 Z M 17.785156 15 "/>
<path style=" stroke:none;fill-rule:nonzero;fill:rgb(100%,89.803922%,76.078431%);fill-opacity:1;" d="M 38.332031 16.667969 L 35 15 L 32.585938 15 L 35.1875 17.601562 C 36.484375 18.898438 37.027344 20.777344 36.597656 22.5625 C 36.59375 22.574219 36.589844 22.582031 36.589844 22.589844 C 35.332031 27.769531 30.667969 31.558594 25.171875 31.558594 C 24.242188 31.558594 23.339844 31.453125 22.472656 31.246094 C 24.515625 32.953125 27.144531 33.972656 30 33.972656 C 35.496094 33.972656 40.160156 30.1875 41.417969 25.003906 C 41.644531 24.070312 41.707031 23.425781 41.8125 21.8125 Z M 38.332031 16.667969 "/>
<path style=" stroke:none;fill-rule:nonzero;fill:rgb(0.784314%,37.254902%,50.196078%);fill-opacity:1;" d="M 42.214844 15 L 35 15 L 41.8125 21.8125 C 41.890625 20.664062 41.992188 19.023438 42.195312 16.433594 C 42.230469 15.949219 42.234375 15.472656 42.214844 15 Z M 42.214844 15 "/>
<path style=" stroke:none;fill-rule:nonzero;fill:rgb(99.607843%,83.137255%,0.784314%);fill-opacity:1;" d="M 41.667969 51.667969 C 41.667969 53.507812 40.175781 55 38.332031 55 C 36.492188 55 35 53.507812 35 51.667969 C 35 49.824219 36.492188 48.332031 38.332031 48.332031 C 40.175781 48.332031 41.667969 49.824219 41.667969 51.667969 Z M 41.667969 51.667969 "/>
<path style=" stroke:none;fill-rule:nonzero;fill:rgb(99.607843%,83.137255%,0.784314%);fill-opacity:1;" d="M 25 51.667969 C 25 53.507812 23.507812 55 21.667969 55 C 19.824219 55 18.332031 53.507812 18.332031 51.667969 C 18.332031 49.824219 19.824219 48.332031 21.667969 48.332031 C 23.507812 48.332031 25 49.824219 25 51.667969 Z M 25 51.667969 "/>
<path style=" stroke:none;fill-rule:nonzero;fill:rgb(99.607843%,49.019608%,26.27451%);fill-opacity:1;" d="M 39.335938 3.011719 C 38.992188 1.25 37.628906 0 36.050781 0 L 35.722656 0 C 35.273438 0 34.839844 0.105469 34.4375 0.300781 C 34.464844 0.394531 34.488281 0.496094 34.507812 0.59375 L 35.773438 7.117188 C 36.15625 9.089844 34.648438 10.917969 32.640625 10.917969 L 19.125 10.917969 L 18.332031 15 L 41.667969 15 Z M 39.335938 3.011719 "/>
<path style=" stroke:none;fill-rule:nonzero;fill:rgb(99.215686%,58.039216%,40.784314%);fill-opacity:1;" d="M 50.1875 9.476562 L 48.847656 8.761719 C 48.402344 8.523438 47.855469 8.691406 47.617188 9.132812 L 45.558594 13 C 45.449219 13.203125 45.234375 13.332031 45 13.332031 L 15 13.332031 C 14.765625 13.332031 14.550781 13.203125 14.441406 13 L 12.382812 9.132812 C 12.144531 8.691406 11.597656 8.523438 11.152344 8.761719 L 9.8125 9.476562 C 9.371094 9.710938 9.203125 10.261719 9.441406 10.703125 L 11.921875 15.355469 C 12.351562 16.164062 13.191406 16.667969 14.105469 16.667969 L 45.894531 16.667969 C 46.808594 16.667969 47.648438 16.164062 48.078125 15.355469 L 50.558594 10.703125 C 50.796875 10.261719 50.628906 9.710938 50.1875 9.476562 Z M 50.1875 9.476562 "/>
<path style=" stroke:none;fill-rule:nonzero;fill:rgb(100%,89.803922%,76.078431%);fill-opacity:1;" d="M 29.199219 25.257812 L 28.90625 25.257812 C 28.421875 25.257812 28.027344 24.863281 28.027344 24.378906 C 28.027344 23.890625 28.421875 23.5 28.90625 23.5 L 29.199219 23.5 C 29.761719 23.5 30.214844 23.042969 30.214844 22.484375 L 30.214844 20 C 30.214844 19.515625 30.609375 19.121094 31.09375 19.121094 C 31.578125 19.121094 31.972656 19.515625 31.972656 20 L 31.972656 22.484375 C 31.972656 24.011719 30.730469 25.257812 29.199219 25.257812 Z M 35.832031 25.863281 C 36.074219 25.445312 35.929688 24.90625 35.511719 24.664062 C 35.089844 24.421875 34.550781 24.566406 34.308594 24.984375 C 33.15625 26.988281 30.777344 28.015625 28.53125 27.488281 C 28.058594 27.378906 27.585938 27.671875 27.476562 28.144531 C 27.363281 28.617188 27.65625 29.089844 28.128906 29.203125 C 28.65625 29.324219 29.183594 29.382812 29.710938 29.382812 C 32.183594 29.382812 34.5625 28.066406 35.832031 25.863281 Z M 35.832031 25.863281 "/>
<path style=" stroke:none;fill-rule:nonzero;fill:rgb(99.607843%,82.352941%,64.313725%);fill-opacity:1;" d="M 35.832031 25.863281 C 36.015625 25.546875 35.976562 25.164062 35.769531 24.890625 C 35.09375 26.296875 34.148438 27.546875 33 28.570312 C 34.15625 27.964844 35.152344 27.039062 35.832031 25.863281 Z M 35.832031 25.863281 "/>
<path style=" stroke:none;fill-rule:nonzero;fill:rgb(89.019608%,0.784314%,33.72549%);fill-opacity:1;" d="M 30 46.8125 C 28.660156 46.8125 27.40625 46.15625 26.636719 45.0625 L 25.835938 43.914062 C 25.554688 43.515625 25.652344 42.96875 26.050781 42.691406 C 26.449219 42.414062 26.996094 42.507812 27.273438 42.90625 L 28.078125 44.054688 C 28.523438 44.6875 29.222656 45.054688 30 45.054688 C 30.777344 45.054688 31.476562 44.6875 31.921875 44.054688 L 32.726562 42.90625 C 33.003906 42.507812 33.550781 42.414062 33.949219 42.691406 C 34.347656 42.96875 34.445312 43.515625 34.164062 43.914062 L 33.363281 45.0625 C 32.59375 46.15625 31.339844 46.8125 30 46.8125 Z M 30 46.8125 "/>
</g>
</svg>
