<?xml version="1.0" encoding="UTF-8"?>
<svg xmlns="http://www.w3.org/2000/svg" xmlns:xlink="http://www.w3.org/1999/xlink" width="60pt" height="60pt" viewBox="0 0 60 60" version="1.1">
<g id="surface1">
<path style=" stroke:none;fill-rule:nonzero;fill:rgb(99.215686%,27.843137%,33.333333%);fill-opacity:1;" d="M 30 43.644531 C 24.449219 43.644531 19.953125 48.140625 19.953125 53.691406 L 19.953125 59.121094 L 40.046875 59.121094 L 40.046875 53.691406 C 40.046875 48.140625 35.550781 43.644531 30 43.644531 Z M 30 43.644531 "/>
<path style=" stroke:none;fill-rule:nonzero;fill:rgb(98.431373%,16.862745%,22.745098%);fill-opacity:1;" d="M 32.644531 43.996094 C 28.378906 45.15625 25.242188 49.054688 25.242188 53.691406 L 25.242188 59.121094 L 19.953125 59.121094 L 19.953125 53.691406 C 19.953125 48.140625 24.453125 43.644531 30 43.644531 C 30.914062 43.644531 31.800781 43.765625 32.644531 43.996094 Z M 32.644531 43.996094 "/>
<path style=" stroke:none;fill-rule:nonzero;fill:rgb(99.607843%,87.45098%,18.823529%);fill-opacity:1;" d="M 28.234375 44.730469 L 31.769531 44.730469 L 31.769531 59.121094 L 28.234375 59.121094 Z M 28.234375 44.730469 "/>
<path style=" stroke:none;fill-rule:nonzero;fill:rgb(99.607843%,91.372549%,49.019608%);fill-opacity:1;" d="M 25.453125 52.640625 C 25.453125 51.664062 26.242188 50.875 27.21875 50.875 L 32.78125 50.875 C 33.757812 50.875 34.546875 51.664062 34.546875 52.640625 C 34.546875 53.617188 33.757812 54.410156 32.78125 54.410156 L 27.21875 54.410156 C 26.242188 54.410156 25.453125 53.617188 25.453125 52.640625 Z M 25.453125 52.640625 "/>
<path style=" stroke:none;fill-rule:nonzero;fill:rgb(100%,89.803922%,76.078431%);fill-opacity:1;" d="M 45.761719 30.300781 C 45.761719 32.121094 44.289062 33.59375 42.472656 33.59375 L 41.605469 33.59375 C 40.394531 37.226562 37.523438 40.097656 33.894531 41.316406 C 33.835938 41.335938 33.777344 41.355469 33.722656 41.371094 L 33.722656 44.3125 C 33.722656 46.367188 32.054688 48.03125 30 48.03125 C 28.972656 48.03125 28.042969 47.617188 27.367188 46.941406 C 26.695312 46.269531 26.28125 45.339844 26.28125 44.3125 L 26.28125 41.371094 C 24.394531 40.773438 22.710938 39.730469 21.347656 38.367188 C 20.023438 37.039062 19.003906 35.410156 18.394531 33.59375 L 17.527344 33.59375 C 16.621094 33.59375 15.796875 33.226562 15.199219 32.628906 C 14.605469 32.035156 14.234375 31.210938 14.234375 30.300781 C 14.234375 28.484375 15.710938 27.007812 17.527344 27.007812 L 17.765625 27.007812 L 17.765625 17.621094 L 42.234375 17.621094 L 42.234375 27.007812 L 42.472656 27.007812 C 43.378906 27.007812 44.203125 27.378906 44.800781 27.972656 C 45.394531 28.570312 45.761719 29.394531 45.761719 30.300781 Z M 45.761719 30.300781 "/>
<path style=" stroke:none;fill-rule:nonzero;fill:rgb(99.607843%,82.352941%,64.313725%);fill-opacity:1;" d="M 33.894531 41.316406 C 33.835938 41.335938 33.777344 41.355469 33.722656 41.371094 L 33.722656 44.3125 C 33.722656 46.367188 32.054688 48.03125 30 48.03125 C 28.972656 48.03125 28.042969 47.617188 27.367188 46.941406 C 26.695312 46.269531 26.28125 45.339844 26.28125 44.3125 L 26.28125 41.371094 C 24.394531 40.773438 22.710938 39.730469 21.347656 38.367188 C 20.023438 37.039062 19.003906 35.410156 18.394531 33.59375 L 17.527344 33.59375 C 16.621094 33.59375 15.796875 33.226562 15.199219 32.628906 C 14.605469 32.035156 14.234375 31.210938 14.234375 30.300781 C 14.234375 28.484375 15.710938 27.007812 17.527344 27.007812 L 17.765625 27.007812 L 17.765625 18.796875 L 23.289062 19.789062 L 23.289062 29.609375 C 23.289062 35.714844 27.941406 40.734375 33.894531 41.316406 Z M 33.894531 41.316406 "/>
<path style=" stroke:none;fill-rule:nonzero;fill:rgb(41.960784%,85.098039%,90.588235%);fill-opacity:1;" d="M 30 0.878906 C 23.242188 0.878906 17.765625 6.355469 17.765625 13.113281 L 17.765625 17.621094 L 42.234375 17.621094 L 42.234375 13.113281 C 42.234375 6.355469 36.757812 0.878906 30 0.878906 Z M 30 0.878906 "/>
<path style=" stroke:none;fill-rule:nonzero;fill:rgb(18.039216%,81.960784%,88.627451%);fill-opacity:1;" d="M 30 0.878906 C 26.699219 0.878906 24.023438 6.355469 24.023438 13.113281 L 24.023438 17.621094 L 17.765625 17.621094 L 17.765625 13.113281 C 17.765625 6.355469 23.242188 0.878906 30 0.878906 Z M 30 0.878906 "/>
<path style=" stroke:none;fill-rule:nonzero;fill:rgb(99.215686%,27.843137%,33.333333%);fill-opacity:1;" d="M 35.976562 13.417969 L 35.976562 13.113281 C 35.976562 6.355469 33.300781 0.878906 30 0.878906 C 26.699219 0.878906 24.023438 6.355469 24.023438 13.113281 L 24.023438 13.417969 "/>
<path style=" stroke:none;fill-rule:nonzero;fill:rgb(99.607843%,91.372549%,49.019608%);fill-opacity:1;" d="M 33.722656 41.371094 L 33.722656 44.3125 C 33.722656 46.367188 32.054688 48.03125 30 48.03125 C 28.972656 48.03125 28.042969 47.617188 27.367188 46.941406 C 26.695312 46.269531 26.277344 45.339844 26.277344 44.3125 L 26.277344 41.371094 C 26.277344 42.402344 26.695312 43.328125 27.367188 44.003906 C 28.042969 44.675781 28.972656 45.09375 30 45.09375 C 32.054688 45.09375 33.722656 43.429688 33.722656 41.371094 Z M 33.722656 41.371094 "/>
<path style=" stroke:none;fill-rule:nonzero;fill:rgb(40.784314%,36.862745%,40.784314%);fill-opacity:1;" d="M 18.214844 22.007812 L 41.78125 22.007812 C 43.007812 22.007812 44.003906 21.015625 44.003906 19.789062 L 44.003906 15.640625 C 44.003906 14.414062 43.007812 13.417969 41.78125 13.417969 L 18.214844 13.417969 C 16.988281 13.417969 15.996094 14.414062 15.996094 15.640625 L 15.996094 19.789062 C 15.996094 21.015625 16.988281 22.007812 18.214844 22.007812 Z M 18.214844 22.007812 "/>
<path style=" stroke:none;fill-rule:nonzero;fill:rgb(33.333333%,30.588235%,33.72549%);fill-opacity:1;" d="M 25.511719 22.007812 L 18.21875 22.007812 C 16.992188 22.007812 15.996094 21.015625 15.996094 19.789062 L 15.996094 15.640625 C 15.996094 14.414062 16.992188 13.417969 18.21875 13.417969 L 25.511719 13.417969 C 24.28125 13.417969 23.289062 14.414062 23.289062 15.640625 L 23.289062 19.789062 C 23.289062 21.015625 24.28125 22.007812 25.511719 22.007812 Z M 25.511719 22.007812 "/>
<path style=" stroke:none;fill-rule:nonzero;fill:rgb(99.607843%,91.372549%,49.019608%);fill-opacity:1;" d="M 31.980469 17.714844 C 31.980469 18.808594 31.09375 19.695312 30 19.695312 C 28.90625 19.695312 28.019531 18.808594 28.019531 17.714844 C 28.019531 16.621094 28.90625 15.734375 30 15.734375 C 31.09375 15.734375 31.980469 16.621094 31.980469 17.714844 Z M 31.980469 17.714844 "/>
<path style=" stroke:none;fill-rule:nonzero;fill:rgb(0%,0%,0%);fill-opacity:1;" d="M 45.421875 27.351562 C 44.785156 26.71875 43.984375 26.3125 43.113281 26.179688 L 43.113281 22.585938 C 44.160156 22.089844 44.882812 21.019531 44.882812 19.789062 L 44.882812 15.640625 C 44.882812 14.40625 44.15625 13.335938 43.109375 12.839844 C 42.960938 5.734375 37.136719 0 30 0 C 30 0 29.996094 0 29.996094 0 C 26.988281 0 24.046875 1.046875 21.71875 2.945312 C 21.34375 3.25 21.289062 3.804688 21.59375 4.179688 C 21.902344 4.558594 22.453125 4.613281 22.832031 4.308594 C 23.757812 3.550781 24.800781 2.953125 25.90625 2.523438 C 24.296875 4.789062 23.242188 8.386719 23.152344 12.539062 L 18.660156 12.539062 C 18.757812 10.625 19.332031 8.769531 20.339844 7.144531 C 20.59375 6.730469 20.464844 6.1875 20.054688 5.933594 C 19.640625 5.679688 19.097656 5.804688 18.84375 6.21875 C 17.613281 8.207031 16.941406 10.492188 16.890625 12.839844 C 15.84375 13.335938 15.117188 14.40625 15.117188 15.640625 L 15.117188 19.789062 C 15.117188 21.019531 15.839844 22.089844 16.886719 22.585938 L 16.886719 26.179688 C 14.890625 26.488281 13.355469 28.21875 13.355469 30.300781 C 13.355469 31.414062 13.792969 32.464844 14.578125 33.25 C 15.367188 34.039062 16.414062 34.472656 17.527344 34.472656 L 17.78125 34.472656 C 18.4375 36.160156 19.445312 37.710938 20.726562 38.988281 C 22.050781 40.3125 23.65625 41.34375 25.398438 42 L 25.398438 43.777344 C 23.15625 44.820312 21.332031 46.585938 20.21875 48.8125 C 20.003906 49.246094 20.179688 49.773438 20.613281 49.992188 C 20.738281 50.054688 20.875 50.085938 21.003906 50.085938 C 21.328125 50.085938 21.640625 49.90625 21.792969 49.597656 C 22.632812 47.914062 23.964844 46.542969 25.597656 45.648438 C 25.8125 46.363281 26.203125 47.019531 26.746094 47.5625 C 26.9375 47.753906 27.140625 47.921875 27.355469 48.074219 L 27.355469 49.996094 L 27.21875 49.996094 C 25.761719 49.996094 24.574219 51.179688 24.574219 52.640625 C 24.574219 54.101562 25.761719 55.289062 27.21875 55.289062 L 27.355469 55.289062 L 27.355469 58.242188 L 20.832031 58.242188 L 20.832031 53.691406 C 20.832031 53.53125 20.835938 53.371094 20.84375 53.214844 C 20.871094 52.730469 20.5 52.316406 20.015625 52.289062 C 19.53125 52.261719 19.117188 52.632812 19.089844 53.117188 C 19.078125 53.308594 19.074219 53.5 19.074219 53.691406 L 19.074219 59.121094 C 19.074219 59.605469 19.46875 60 19.953125 60 L 40.046875 60 C 40.535156 60 40.925781 59.605469 40.925781 59.121094 L 40.925781 53.691406 C 40.925781 49.394531 38.464844 45.566406 34.601562 43.777344 L 34.601562 41.996094 C 38.085938 40.691406 40.871094 37.9375 42.222656 34.472656 L 42.472656 34.472656 C 44.769531 34.472656 46.640625 32.601562 46.640625 30.300781 C 46.644531 29.1875 46.207031 28.140625 45.421875 27.351562 Z M 41.339844 12.539062 L 36.847656 12.539062 C 36.757812 8.382812 35.703125 4.78125 34.085938 2.519531 C 38.164062 4.097656 41.113281 7.96875 41.339844 12.539062 Z M 26.5625 4.847656 C 27.523438 2.882812 28.773438 1.757812 30 1.757812 C 31.222656 1.757812 32.476562 2.882812 33.433594 4.847656 C 34.441406 6.90625 35.023438 9.621094 35.089844 12.539062 L 24.910156 12.539062 C 24.976562 9.621094 25.558594 6.90625 26.5625 4.847656 Z M 30 47.152344 C 29.238281 47.152344 28.527344 46.855469 27.988281 46.320312 C 27.636719 45.96875 27.390625 45.539062 27.261719 45.070312 C 28.046875 45.65625 29 45.972656 30 45.972656 C 31.027344 45.972656 31.976562 45.632812 32.742188 45.066406 C 32.410156 46.265625 31.304688 47.152344 30 47.152344 Z M 29.113281 48.824219 C 29.402344 48.882812 29.699219 48.910156 30 48.910156 C 30.304688 48.910156 30.601562 48.878906 30.890625 48.824219 L 30.890625 49.996094 L 29.113281 49.996094 Z M 26.332031 52.640625 C 26.332031 52.152344 26.730469 51.753906 27.21875 51.753906 L 32.78125 51.753906 C 33.269531 51.753906 33.667969 52.152344 33.667969 52.640625 C 33.667969 53.132812 33.269531 53.53125 32.78125 53.53125 L 27.21875 53.53125 C 26.730469 53.53125 26.332031 53.132812 26.332031 52.640625 Z M 30.890625 55.289062 L 30.890625 58.242188 L 29.113281 58.242188 L 29.113281 55.289062 Z M 39.167969 53.691406 L 39.167969 58.242188 L 32.648438 58.242188 L 32.648438 55.289062 L 32.78125 55.289062 C 34.242188 55.289062 35.425781 54.101562 35.425781 52.640625 C 35.425781 51.183594 34.242188 49.996094 32.78125 49.996094 L 32.648438 49.996094 L 32.648438 48.070312 C 33.476562 47.484375 34.101562 46.636719 34.402344 45.644531 C 37.332031 47.238281 39.167969 50.289062 39.167969 53.691406 Z M 42.472656 32.714844 L 41.605469 32.714844 C 41.230469 32.714844 40.894531 32.957031 40.773438 33.316406 C 39.628906 36.738281 36.894531 39.4375 33.453125 40.535156 C 33.089844 40.652344 32.84375 40.992188 32.84375 41.371094 L 32.84375 41.375 C 32.84375 42.941406 31.566406 44.214844 30 44.214844 C 29.242188 44.214844 28.527344 43.917969 27.992188 43.382812 C 27.453125 42.84375 27.15625 42.132812 27.15625 41.375 L 27.15625 41.371094 C 27.15625 40.992188 26.910156 40.652344 26.546875 40.535156 C 24.832031 39.988281 23.25 39.023438 21.96875 37.746094 C 20.730469 36.507812 19.785156 34.976562 19.230469 33.316406 C 19.109375 32.957031 18.773438 32.714844 18.394531 32.714844 L 17.527344 32.714844 C 16.882812 32.714844 16.277344 32.464844 15.820312 32.007812 C 15.367188 31.550781 15.117188 30.945312 15.117188 30.300781 C 15.117188 28.96875 16.199219 27.886719 17.527344 27.886719 L 17.765625 27.886719 C 18.25 27.886719 18.644531 27.496094 18.644531 27.007812 L 18.644531 22.886719 L 34.585938 22.886719 C 35.070312 22.886719 35.464844 22.496094 35.464844 22.007812 C 35.464844 21.523438 35.070312 21.128906 34.585938 21.128906 L 18.214844 21.128906 C 17.476562 21.128906 16.875 20.527344 16.875 19.789062 L 16.875 15.640625 C 16.875 14.902344 17.476562 14.296875 18.214844 14.296875 L 41.78125 14.296875 C 42.523438 14.296875 43.125 14.902344 43.125 15.640625 L 43.125 19.789062 C 43.125 20.527344 42.523438 21.128906 41.78125 21.128906 L 38.683594 21.128906 C 38.199219 21.128906 37.804688 21.523438 37.804688 22.007812 C 37.804688 22.496094 38.199219 22.886719 38.683594 22.886719 L 41.355469 22.886719 L 41.355469 27.007812 C 41.355469 27.496094 41.75 27.886719 42.234375 27.886719 L 42.472656 27.886719 C 43.117188 27.886719 43.722656 28.140625 44.179688 28.59375 C 44.632812 29.050781 44.886719 29.65625 44.886719 30.300781 C 44.886719 31.632812 43.800781 32.714844 42.472656 32.714844 Z M 42.472656 32.714844 "/>
<path style=" stroke:none;fill-rule:nonzero;fill:rgb(0%,0%,0%);fill-opacity:1;" d="M 32.867188 31.347656 C 32.382812 31.347656 31.988281 31.742188 31.988281 32.226562 C 31.988281 33.324219 31.097656 34.214844 30 34.214844 C 28.902344 34.214844 28.011719 33.324219 28.011719 32.226562 C 28.011719 31.742188 27.617188 31.347656 27.132812 31.347656 C 26.648438 31.347656 26.253906 31.742188 26.253906 32.226562 C 26.253906 34.292969 27.933594 35.972656 30 35.972656 C 32.066406 35.972656 33.746094 34.292969 33.746094 32.226562 C 33.746094 31.742188 33.351562 31.347656 32.867188 31.347656 Z M 32.867188 31.347656 "/>
<path style=" stroke:none;fill-rule:nonzero;fill:rgb(0%,0%,0%);fill-opacity:1;" d="M 30 14.855469 C 28.421875 14.855469 27.140625 16.136719 27.140625 17.714844 C 27.140625 19.289062 28.421875 20.574219 30 20.574219 C 31.578125 20.574219 32.859375 19.289062 32.859375 17.714844 C 32.859375 16.136719 31.578125 14.855469 30 14.855469 Z M 30 18.816406 C 29.390625 18.816406 28.898438 18.320312 28.898438 17.714844 C 28.898438 17.105469 29.390625 16.613281 30 16.613281 C 30.605469 16.613281 31.101562 17.105469 31.101562 17.714844 C 31.101562 18.320312 30.605469 18.816406 30 18.816406 Z M 30 18.816406 "/>
<path style=" stroke:none;fill-rule:nonzero;fill:rgb(0%,0%,0%);fill-opacity:1;" d="M 27.386719 28.382812 C 27.871094 28.382812 28.265625 27.988281 28.265625 27.503906 C 28.265625 25.992188 27.03125 24.757812 25.519531 24.757812 C 24.003906 24.757812 22.773438 25.992188 22.773438 27.503906 C 22.773438 27.988281 23.167969 28.382812 23.652344 28.382812 C 24.136719 28.382812 24.53125 27.988281 24.53125 27.503906 C 24.53125 26.960938 24.976562 26.515625 25.519531 26.515625 C 26.0625 26.515625 26.507812 26.960938 26.507812 27.503906 C 26.507812 27.988281 26.898438 28.382812 27.386719 28.382812 Z M 27.386719 28.382812 "/>
<path style=" stroke:none;fill-rule:nonzero;fill:rgb(0%,0%,0%);fill-opacity:1;" d="M 34.480469 24.757812 C 32.96875 24.757812 31.734375 25.992188 31.734375 27.503906 C 31.734375 27.988281 32.128906 28.382812 32.613281 28.382812 C 33.101562 28.382812 33.492188 27.988281 33.492188 27.503906 C 33.492188 26.960938 33.9375 26.515625 34.480469 26.515625 C 35.023438 26.515625 35.46875 26.960938 35.46875 27.503906 C 35.46875 27.988281 35.863281 28.382812 36.347656 28.382812 C 36.832031 28.382812 37.226562 27.988281 37.226562 27.503906 C 37.226562 25.992188 35.996094 24.757812 34.480469 24.757812 Z M 34.480469 24.757812 "/>
</g>
</svg>
