<?xml version="1.0" encoding="UTF-8"?>
<svg xmlns="http://www.w3.org/2000/svg" xmlns:xlink="http://www.w3.org/1999/xlink" width="60pt" height="60pt" viewBox="0 0 60 60" version="1.1">
<g id="surface1">
<path style=" stroke:none;fill-rule:nonzero;fill:rgb(100%,80.784314%,74.901961%);fill-opacity:1;" d="M 30 44.5625 C 33.371094 44.5625 36.261719 40.878906 37.476562 37.945312 L 37.417969 37.925781 C 36.230469 37.589844 35.414062 36.503906 35.414062 35.269531 L 35.414062 32.070312 C 33.871094 33.128906 32.003906 33.746094 30 33.746094 C 27.996094 33.746094 26.128906 33.128906 24.585938 32.070312 L 24.585938 35.269531 C 24.585938 36.503906 23.769531 37.589844 22.582031 37.925781 L 22.523438 37.945312 C 23.738281 40.878906 26.628906 44.5625 30 44.5625 Z M 30 44.5625 "/>
<path style=" stroke:none;fill-rule:nonzero;fill:rgb(99.607843%,46.27451%,65.882353%);fill-opacity:1;" d="M 41.324219 39.042969 L 37.476562 37.945312 C 36.261719 40.878906 33.371094 42.941406 30 42.941406 C 26.628906 42.941406 23.738281 40.878906 22.523438 37.945312 L 18.675781 39.042969 L 17.058594 51.03125 L 18.675781 59.121094 L 41.324219 59.121094 L 42.941406 51.03125 Z M 41.324219 39.042969 "/>
<path style=" stroke:none;fill-rule:nonzero;fill:rgb(99.607843%,33.72549%,58.039216%);fill-opacity:1;" d="M 41.324219 39.042969 L 37.476562 37.945312 C 37.253906 38.488281 36.96875 39.003906 36.636719 39.480469 L 36.636719 49.316406 C 36.636719 53.4375 33.296875 56.777344 29.175781 56.777344 L 18.207031 56.777344 L 18.675781 59.121094 L 41.324219 59.121094 L 42.941406 51.03125 Z M 41.324219 39.042969 "/>
<path style=" stroke:none;fill-rule:nonzero;fill:rgb(100%,87.45098%,81.176471%);fill-opacity:1;" d="M 19.75 20.117188 L 17.417969 20.117188 C 15.835938 20.117188 14.554688 21.402344 14.554688 22.984375 C 14.554688 26.09375 17.074219 28.617188 20.183594 28.617188 L 20.292969 28.617188 Z M 19.75 20.117188 "/>
<path style=" stroke:none;fill-rule:nonzero;fill:rgb(100%,80.784314%,74.901961%);fill-opacity:1;" d="M 42.582031 20.117188 L 40.25 20.117188 L 39.707031 28.617188 L 39.816406 28.617188 C 42.925781 28.617188 45.445312 26.09375 45.445312 22.984375 C 45.445312 21.402344 44.164062 20.117188 42.582031 20.117188 Z M 42.582031 20.117188 "/>
<path style=" stroke:none;fill-rule:nonzero;fill:rgb(100%,93.333333%,90.196078%);fill-opacity:1;" d="M 30 34.601562 C 24.015625 34.601562 19.046875 29.976562 18.621094 24.003906 L 18.160156 17.570312 C 17.671875 10.703125 23.113281 4.859375 30 4.859375 C 36.886719 4.859375 42.328125 10.703125 41.835938 17.574219 L 41.378906 24.007812 C 40.953125 29.976562 35.984375 34.601562 30 34.601562 Z M 30 34.601562 "/>
<path style=" stroke:none;fill-rule:nonzero;fill:rgb(100%,87.45098%,81.176471%);fill-opacity:1;" d="M 32.828125 5.195312 C 35.699219 7.550781 37.4375 11.214844 37.148438 15.230469 L 36.691406 21.664062 C 36.261719 27.632812 31.296875 32.257812 25.3125 32.257812 C 24.410156 32.257812 23.535156 32.152344 22.695312 31.953125 C 24.679688 33.609375 27.230469 34.601562 30 34.601562 C 35.984375 34.601562 40.953125 29.976562 41.378906 24.007812 L 41.835938 17.574219 C 42.257812 11.675781 38.3125 6.535156 32.828125 5.195312 Z M 32.828125 5.195312 "/>
<path style=" stroke:none;fill-rule:nonzero;fill:rgb(99.215686%,41.176471%,18.823529%);fill-opacity:1;" d="M 37.015625 13.652344 C 37.398438 15.175781 38.078125 16.605469 39.019531 17.863281 L 41.34375 20.960938 C 41.902344 21.707031 43.09375 21.3125 43.09375 20.378906 L 43.09375 18.007812 C 43.09375 12.261719 39.722656 7.300781 34.855469 4.996094 Z M 37.015625 13.652344 "/>
<path style=" stroke:none;fill-rule:nonzero;fill:rgb(99.215686%,41.176471%,18.823529%);fill-opacity:1;" d="M 21.0625 20.875 C 21.546875 16.902344 24.917969 13.917969 28.921875 13.917969 C 31.617188 13.917969 34.132812 12.570312 35.628906 10.328125 L 36.472656 9.0625 L 35.597656 5.558594 C 33.898438 4.753906 32.003906 4.304688 30 4.304688 C 22.769531 4.304688 16.910156 10.167969 16.910156 17.398438 L 16.910156 27.628906 C 16.910156 28.316406 16.351562 28.871094 15.667969 28.871094 L 14.125 28.871094 C 14.054688 28.871094 14 28.929688 14 28.996094 L 14 30.480469 C 14 32.003906 15.230469 33.234375 16.753906 33.234375 C 18.363281 33.234375 19.71875 32.023438 19.898438 30.421875 Z M 21.0625 20.875 "/>
<path style=" stroke:none;fill-rule:nonzero;fill:rgb(98.039216%,77.647059%,0%);fill-opacity:1;" d="M 38.117188 3.269531 C 36.039062 3.789062 33.835938 3.40625 32.050781 2.21875 L 30.078125 0.902344 C 30.03125 0.871094 29.96875 0.871094 29.921875 0.902344 L 27.949219 2.21875 C 26.164062 3.40625 23.960938 3.789062 21.878906 3.269531 L 20.429688 2.90625 C 20.320312 2.878906 20.222656 2.992188 20.265625 3.097656 L 23.527344 11.261719 L 23.914062 11.125 C 27.851562 9.730469 32.148438 9.730469 36.085938 11.125 L 36.472656 11.261719 L 39.734375 3.097656 C 39.777344 2.992188 39.679688 2.878906 39.570312 2.90625 Z M 38.117188 3.269531 "/>
<path style=" stroke:none;fill-rule:nonzero;fill:rgb(99.607843%,1.176471%,39.215686%);fill-opacity:1;" d="M 31.617188 5.734375 C 31.617188 6.625 30.894531 7.351562 30 7.351562 C 29.105469 7.351562 28.382812 6.625 28.382812 5.734375 C 28.382812 4.839844 29.105469 4.113281 30 4.113281 C 30.894531 4.113281 31.617188 4.839844 31.617188 5.734375 Z M 31.617188 5.734375 "/>
<path style=" stroke:none;fill-rule:nonzero;fill:rgb(0%,0%,0%);fill-opacity:1;" d="M 28.96875 26.4375 L 29.246094 26.4375 C 30.714844 26.4375 31.910156 25.242188 31.910156 23.773438 L 31.910156 21.433594 C 31.910156 20.949219 31.515625 20.554688 31.03125 20.554688 C 30.546875 20.554688 30.152344 20.949219 30.152344 21.433594 L 30.152344 23.773438 C 30.152344 24.273438 29.746094 24.679688 29.246094 24.679688 L 28.96875 24.679688 C 28.484375 24.679688 28.089844 25.074219 28.089844 25.558594 C 28.089844 26.042969 28.484375 26.4375 28.96875 26.4375 Z M 28.96875 26.4375 "/>
<path style=" stroke:none;fill-rule:nonzero;fill:rgb(0%,0%,0%);fill-opacity:1;" d="M 34.917969 28.445312 C 35.261719 28.101562 35.261719 27.546875 34.917969 27.203125 C 34.574219 26.859375 34.015625 26.859375 33.675781 27.203125 C 31.648438 29.230469 28.351562 29.230469 26.324219 27.203125 C 25.984375 26.859375 25.425781 26.859375 25.082031 27.203125 C 24.738281 27.546875 24.738281 28.101562 25.082031 28.445312 C 27.792969 31.15625 32.207031 31.15625 34.917969 28.445312 Z M 34.917969 28.445312 "/>
<path style=" stroke:none;fill-rule:nonzero;fill:rgb(0%,0%,0%);fill-opacity:1;" d="M 30 8.230469 C 31.375 8.230469 32.496094 7.109375 32.496094 5.734375 C 32.496094 4.355469 31.375 3.234375 30 3.234375 C 28.625 3.234375 27.503906 4.355469 27.503906 5.734375 C 27.503906 7.109375 28.625 8.230469 30 8.230469 Z M 30 4.992188 C 30.40625 4.992188 30.738281 5.324219 30.738281 5.734375 C 30.738281 6.140625 30.40625 6.472656 30 6.472656 C 29.59375 6.472656 29.261719 6.140625 29.261719 5.734375 C 29.261719 5.324219 29.59375 4.992188 30 4.992188 Z M 30 4.992188 "/>
<path style=" stroke:none;fill-rule:nonzero;fill:rgb(100%,93.333333%,90.196078%);fill-opacity:1;" d="M 42.992188 39.519531 L 41.324219 39.042969 L 41.324219 59.121094 L 47.925781 59.121094 C 47.992188 59.121094 48.042969 59.070312 48.042969 59.003906 L 48.042969 46.21875 C 48.042969 43.105469 45.980469 40.375 42.992188 39.519531 Z M 42.992188 39.519531 "/>
<path style=" stroke:none;fill-rule:nonzero;fill:rgb(100%,93.333333%,90.196078%);fill-opacity:1;" d="M 18.675781 39.042969 L 17.007812 39.519531 C 14.019531 40.375 11.957031 43.105469 11.957031 46.21875 L 11.957031 59.003906 C 11.957031 59.070312 12.007812 59.121094 12.074219 59.121094 L 18.675781 59.121094 Z M 18.675781 39.042969 "/>
<path style=" stroke:none;fill-rule:nonzero;fill:rgb(99.607843%,57.647059%,73.333333%);fill-opacity:1;" d="M 45.019531 36.480469 C 43.90625 36.53125 42.855469 36.835938 41.925781 37.339844 C 41.550781 37.542969 41.324219 37.941406 41.324219 38.367188 L 41.324219 54.269531 L 49.308594 54.269531 C 49.367188 54.269531 49.414062 54.222656 49.414062 54.164062 L 49.414062 51.171875 C 49.414062 50.386719 49.734375 49.632812 50.308594 49.101562 C 51.75 47.769531 52.648438 45.867188 52.648438 43.75 C 52.648438 39.613281 49.199219 36.285156 45.019531 36.480469 Z M 45.019531 36.480469 "/>
<path style=" stroke:none;fill-rule:nonzero;fill:rgb(99.607843%,57.647059%,73.333333%);fill-opacity:1;" d="M 14.980469 36.480469 C 10.800781 36.285156 7.351562 39.613281 7.351562 43.75 C 7.351562 45.867188 8.25 47.769531 9.691406 49.101562 C 10.265625 49.632812 10.585938 50.386719 10.585938 51.171875 L 10.585938 54.164062 C 10.585938 54.222656 10.632812 54.269531 10.691406 54.269531 L 18.675781 54.269531 L 18.675781 38.367188 C 18.675781 37.941406 18.449219 37.542969 18.074219 37.339844 C 17.144531 36.835938 16.09375 36.53125 14.980469 36.480469 Z M 14.980469 36.480469 "/>
<path style=" stroke:none;fill-rule:nonzero;fill:rgb(0%,0%,0%);fill-opacity:1;" d="M 52.488281 39.765625 C 52.253906 39.34375 51.714844 39.191406 51.292969 39.429688 C 50.871094 39.667969 50.71875 40.203125 50.957031 40.625 C 51.488281 41.574219 51.769531 42.65625 51.769531 43.75 C 51.769531 45.53125 51.019531 47.246094 49.710938 48.453125 C 49.214844 48.914062 48.859375 49.503906 48.675781 50.152344 L 46.179688 50.152344 C 45.691406 50.152344 45.300781 50.546875 45.300781 51.03125 C 45.300781 51.519531 45.691406 51.910156 46.179688 51.910156 L 48.535156 51.910156 L 48.535156 53.390625 L 42.203125 53.390625 C 42.203125 48.445312 42.203125 58.570312 42.203125 38.367188 C 42.203125 38.261719 42.257812 38.160156 42.34375 38.113281 C 43.191406 37.65625 44.105469 37.402344 45.058594 37.359375 C 46.207031 37.304688 47.34375 37.554688 48.34375 38.082031 C 48.773438 38.308594 49.304688 38.144531 49.53125 37.714844 C 49.757812 37.285156 49.59375 36.753906 49.164062 36.527344 C 47.882812 35.855469 46.4375 35.535156 44.976562 35.601562 C 43.753906 35.660156 42.589844 35.984375 41.507812 36.566406 C 40.992188 36.847656 40.632812 37.332031 40.5 37.894531 C 35.875 36.570312 38.628906 37.359375 37.660156 37.082031 C 36.855469 36.851562 36.292969 36.105469 36.292969 35.269531 L 36.292969 33.75 C 38.042969 32.699219 39.527344 31.21875 40.574219 29.453125 C 43.835938 29.078125 46.324219 26.328125 46.324219 22.984375 C 46.324219 21.425781 45.371094 20.0625 43.96875 19.507812 L 43.96875 18.007812 C 43.96875 13.789062 42.226562 9.769531 39.167969 6.886719 L 40.550781 3.425781 C 40.695312 3.066406 40.625 2.664062 40.371094 2.375 C 40.117188 2.082031 39.730469 1.960938 39.355469 2.054688 L 37.90625 2.417969 C 36.070312 2.875 34.113281 2.535156 32.539062 1.488281 L 30.566406 0.171875 C 30.222656 -0.0585938 29.777344 -0.0585938 29.433594 0.171875 L 27.460938 1.488281 C 25.886719 2.539062 23.929688 2.875 22.09375 2.417969 L 20.644531 2.054688 C 20.269531 1.960938 19.878906 2.082031 19.628906 2.375 C 19.375 2.664062 19.304688 3.066406 19.449219 3.425781 L 20.824219 6.863281 C 17.769531 9.523438 16.027344 13.324219 16.027344 17.398438 L 16.027344 19.507812 C 14.628906 20.0625 13.675781 21.425781 13.675781 22.984375 C 13.675781 24.871094 14.5 26.667969 15.910156 27.898438 C 15.847656 27.957031 15.761719 27.992188 15.667969 27.992188 L 14.125 27.992188 C 13.570312 27.992188 13.121094 28.445312 13.121094 28.996094 L 13.121094 30.480469 C 13.121094 32.484375 14.75 34.113281 16.753906 34.113281 C 18.597656 34.113281 20.171875 32.878906 20.648438 31.160156 C 21.523438 32.1875 22.5625 33.058594 23.707031 33.742188 L 23.707031 35.269531 C 23.707031 36.105469 23.144531 36.851562 22.339844 37.082031 C 19.269531 37.957031 22.65625 36.992188 19.5 37.894531 C 19.367188 37.332031 19.007812 36.847656 18.492188 36.566406 C 17.410156 35.984375 16.246094 35.660156 15.023438 35.601562 C 12.765625 35.496094 10.628906 36.292969 9 37.847656 C 7.367188 39.402344 6.472656 41.5 6.472656 43.75 C 6.472656 46.019531 7.425781 48.203125 9.09375 49.746094 C 9.484375 50.105469 9.707031 50.625 9.707031 51.171875 L 9.707031 54.164062 C 9.707031 54.707031 10.148438 55.148438 10.691406 55.148438 L 11.078125 55.148438 L 11.078125 59.003906 C 11.078125 59.554688 11.523438 60 12.074219 60 L 47.925781 60 C 48.476562 60 48.921875 59.554688 48.921875 59.003906 L 48.921875 55.148438 L 49.308594 55.148438 C 49.851562 55.148438 50.292969 54.707031 50.292969 54.164062 L 50.292969 51.171875 C 50.292969 50.625 50.515625 50.105469 50.90625 49.746094 C 52.574219 48.203125 53.527344 46.019531 53.527344 43.75 C 53.527344 42.355469 53.167969 40.976562 52.488281 39.765625 Z M 25.902344 58.242188 L 23.203125 40.710938 C 24.875 42.65625 27.332031 43.820312 30 43.820312 C 32.667969 43.820312 35.125 42.65625 36.796875 40.710938 L 34.097656 58.242188 Z M 38.800781 39.238281 L 40.445312 39.707031 L 40.445312 58.242188 L 35.878906 58.242188 Z M 44.566406 22.984375 C 44.566406 25.007812 43.320312 26.730469 41.539062 27.417969 C 41.929688 26.351562 42.171875 25.226562 42.253906 24.070312 L 42.386719 22.210938 C 42.492188 22.195312 42.601562 22.167969 42.707031 22.132812 C 43.136719 21.988281 43.484375 21.707031 43.707031 21.34375 C 44.230469 21.707031 44.566406 22.3125 44.566406 22.984375 Z M 42.214844 18.007812 L 42.214844 20.378906 C 42.214844 20.40625 42.214844 20.445312 42.148438 20.464844 C 42.117188 20.476562 42.09375 20.472656 42.078125 20.464844 C 42.070312 20.460938 42.074219 20.460938 42.070312 20.457031 C 42.0625 20.449219 42.058594 20.449219 42.050781 20.441406 C 42.042969 20.429688 41.421875 19.601562 41.414062 19.589844 L 39.722656 17.335938 C 38.847656 16.167969 38.222656 14.855469 37.867188 13.441406 L 37.359375 11.402344 L 38.457031 8.660156 C 40.859375 11.164062 42.214844 14.507812 42.214844 18.007812 Z M 15.433594 22.984375 C 15.433594 22.433594 15.65625 21.925781 16.027344 21.5625 L 16.027344 25.289062 C 15.644531 24.589844 15.433594 23.800781 15.433594 22.984375 Z M 16.753906 32.355469 C 15.71875 32.355469 14.878906 31.515625 14.878906 30.480469 L 14.878906 29.75 L 15.667969 29.75 C 16.835938 29.75 17.785156 28.800781 17.785156 27.628906 C 17.785156 13.320312 17.785156 19.859375 17.785156 17.398438 C 17.785156 14.046875 19.132812 10.902344 21.519531 8.605469 L 22.710938 11.585938 C 22.886719 12.023438 23.378906 12.246094 23.820312 12.089844 C 24.25 11.9375 24.527344 11.835938 24.972656 11.699219 C 25.4375 11.5625 25.699219 11.070312 25.558594 10.605469 C 25.417969 10.140625 24.929688 9.878906 24.464844 10.019531 C 24.320312 10.0625 24.175781 10.105469 24.03125 10.15625 C 23.570312 8.996094 22.078125 5.265625 21.613281 4.109375 L 21.667969 4.121094 C 23.984375 4.699219 26.449219 4.273438 28.433594 2.949219 L 30 1.90625 L 31.566406 2.949219 C 33.550781 4.273438 36.015625 4.699219 38.332031 4.121094 L 38.386719 4.109375 C 37.925781 5.261719 36.429688 8.992188 35.96875 10.15625 C 33.664062 9.398438 31.273438 9.089844 28.847656 9.234375 C 28.363281 9.261719 27.992188 9.679688 28.023438 10.164062 C 28.050781 10.648438 28.46875 11.019531 28.953125 10.988281 C 30.515625 10.894531 32.0625 11.007812 33.578125 11.328125 C 32.289062 12.425781 30.65625 13.039062 28.921875 13.039062 C 24.480469 13.039062 20.726562 16.363281 20.1875 20.769531 C 20.074219 21.707031 19.402344 27.207031 19.023438 30.324219 C 18.894531 31.484375 17.917969 32.355469 16.753906 32.355469 Z M 20.996094 28.65625 L 21.933594 20.984375 C 22.363281 17.457031 25.367188 14.796875 28.921875 14.796875 C 31.46875 14.796875 33.847656 13.734375 35.542969 11.867188 C 35.585938 11.878906 35.628906 11.894531 35.675781 11.910156 L 36.164062 13.867188 C 36.574219 15.511719 37.296875 17.035156 38.316406 18.390625 C 40.960938 21.917969 40.640625 21.492188 40.671875 21.527344 C 40.671875 21.527344 40.671875 21.53125 40.671875 21.53125 C 40.671875 21.53125 40.671875 21.53125 40.675781 21.53125 L 40.5 23.945312 C 40.109375 29.425781 35.496094 33.722656 30 33.722656 C 26.324219 33.722656 22.902344 31.789062 20.996094 28.65625 Z M 34.535156 34.613281 L 34.535156 35.269531 C 34.535156 36.558594 35.222656 37.734375 36.289062 38.382812 C 35.023438 40.644531 32.640625 42.0625 30 42.0625 C 27.359375 42.0625 24.976562 40.644531 23.710938 38.382812 C 24.777344 37.734375 25.464844 36.558594 25.464844 35.269531 L 25.464844 34.609375 C 28.40625 35.78125 31.65625 35.757812 34.535156 34.613281 Z M 8.230469 43.75 C 8.230469 41.984375 8.933594 40.339844 10.210938 39.121094 C 11.488281 37.902344 13.167969 37.273438 14.941406 37.359375 C 15.894531 37.402344 16.808594 37.65625 17.65625 38.113281 C 17.742188 38.160156 17.796875 38.261719 17.796875 38.367188 L 17.796875 39.023438 C 17.796875 39.035156 17.796875 39.046875 17.796875 39.0625 L 17.796875 44.503906 C 17.796875 44.988281 18.191406 45.382812 18.675781 45.382812 C 19.160156 45.382812 19.554688 44.988281 19.554688 44.503906 L 19.554688 39.707031 L 21.199219 39.238281 L 24.121094 58.242188 L 19.554688 58.242188 L 19.554688 48.605469 C 19.554688 48.121094 19.160156 47.726562 18.675781 47.726562 C 18.191406 47.726562 17.796875 48.121094 17.796875 48.605469 L 17.796875 53.390625 L 11.464844 53.390625 L 11.464844 51.910156 L 13.820312 51.910156 C 14.308594 51.910156 14.699219 51.515625 14.699219 51.03125 C 14.699219 50.546875 14.308594 50.152344 13.820312 50.152344 L 11.324219 50.152344 C 11.140625 49.503906 10.785156 48.914062 10.289062 48.453125 C 8.980469 47.246094 8.230469 45.53125 8.230469 43.75 Z M 12.835938 55.148438 L 17.796875 55.148438 L 17.796875 58.242188 L 12.835938 58.242188 Z M 47.164062 58.242188 L 42.203125 58.242188 L 42.203125 55.148438 L 47.164062 55.148438 Z M 47.164062 58.242188 "/>
</g>
</svg>
