<?xml version="1.0" encoding="UTF-8"?>
<svg xmlns="http://www.w3.org/2000/svg" xmlns:xlink="http://www.w3.org/1999/xlink" width="60pt" height="60pt" viewBox="0 0 60 60" version="1.1">
<g id="surface1">
<path style=" stroke:none;fill-rule:nonzero;fill:rgb(79.215686%,43.137255%,34.901961%);fill-opacity:1;" d="M 19.441406 19.578125 L 17.039062 19.578125 C 15.410156 19.578125 14.085938 20.902344 14.085938 22.53125 C 14.085938 25.734375 16.683594 28.332031 19.886719 28.332031 L 20 28.332031 Z M 19.441406 19.578125 "/>
<path style=" stroke:none;fill-rule:nonzero;fill:rgb(73.333333%,36.470588%,29.803922%);fill-opacity:1;" d="M 42.960938 19.578125 L 40.558594 19.578125 L 40 28.332031 L 40.113281 28.332031 C 43.316406 28.332031 45.914062 25.734375 45.914062 22.53125 C 45.914062 20.902344 44.589844 19.578125 42.960938 19.578125 Z M 42.960938 19.578125 "/>
<path style=" stroke:none;fill-rule:nonzero;fill:rgb(73.333333%,36.470588%,29.803922%);fill-opacity:1;" d="M 37.3125 37.28125 C 36.363281 36.78125 35.746094 35.789062 35.746094 34.683594 L 35.746094 31.289062 C 34.105469 32.410156 32.125 33.066406 30 33.066406 C 27.875 33.066406 25.894531 32.410156 24.253906 31.289062 L 24.253906 34.683594 C 24.253906 35.992188 23.386719 37.144531 22.125 37.503906 L 21.839844 37.585938 L 30 41.667969 Z M 37.3125 37.28125 "/>
<path style=" stroke:none;fill-rule:nonzero;fill:rgb(84.313725%,53.333333%,47.058824%);fill-opacity:1;" d="M 41.722656 23.058594 C 41.28125 29.210938 36.164062 33.972656 30 33.972656 C 23.832031 33.972656 18.714844 29.207031 18.277344 23.058594 L 17.804688 16.429688 C 17.296875 9.351562 22.902344 3.332031 30 3.332031 C 37.09375 3.332031 42.703125 9.355469 42.195312 16.433594 Z M 41.722656 23.058594 "/>
<path style=" stroke:none;fill-rule:nonzero;fill:rgb(79.215686%,43.137255%,34.901961%);fill-opacity:1;" d="M 30 3.332031 C 26.082031 3.332031 22.617188 5.167969 20.386719 8.003906 C 23.675781 9.617188 27.582031 9.472656 30.757812 7.566406 C 31.96875 6.839844 33.503906 7.710938 33.503906 9.121094 L 33.503906 9.625 C 33.503906 11.570312 33.957031 13.492188 34.828125 15.234375 L 36.46875 18.515625 C 36.800781 19.175781 36.945312 19.910156 36.890625 20.644531 C 36.453125 26.792969 31.335938 31.558594 25.171875 31.558594 C 24.242188 31.558594 23.339844 31.453125 22.472656 31.246094 C 24.519531 32.953125 27.144531 33.972656 30 33.972656 C 36.164062 33.972656 41.28125 29.210938 41.722656 23.058594 L 42.195312 16.433594 C 42.703125 9.355469 37.097656 3.332031 30 3.332031 Z M 30 3.332031 "/>
<path style=" stroke:none;fill-rule:nonzero;fill:rgb(0.392157%,75.294118%,98.039216%);fill-opacity:1;" d="M 50.359375 49.542969 L 50.359375 49.238281 C 50.359375 46.464844 49.464844 43.765625 47.84375 41.636719 C 46.226562 39.511719 44.011719 38.003906 41.445312 37.269531 L 39.050781 36.585938 C 38.984375 36.566406 38.910156 36.574219 38.847656 36.609375 L 38.199219 36.980469 C 33.117188 39.882812 26.882812 39.882812 21.800781 36.980469 L 21.152344 36.609375 C 21.089844 36.574219 21.015625 36.566406 20.949219 36.585938 L 18.554688 37.269531 C 15.949219 38.015625 13.710938 39.554688 12.089844 41.726562 C 10.476562 43.882812 9.640625 46.523438 9.640625 49.214844 L 9.640625 49.542969 C 9.640625 50.714844 10.589844 51.667969 11.765625 51.667969 C 10.589844 51.667969 9.640625 52.617188 9.640625 53.789062 L 9.640625 59.878906 C 9.640625 59.945312 9.695312 60 9.761719 60 L 50.238281 60 C 50.304688 60 50.359375 59.945312 50.359375 59.878906 L 50.359375 53.789062 C 50.359375 52.617188 49.40625 51.667969 48.234375 51.667969 C 49.40625 51.667969 50.359375 50.714844 50.359375 49.542969 Z M 50.359375 49.542969 "/>
<path style=" stroke:none;fill-rule:nonzero;fill:rgb(3.137255%,66.27451%,94.509804%);fill-opacity:1;" d="M 50.359375 49.542969 L 50.359375 49.238281 C 50.359375 46.464844 49.464844 43.765625 47.84375 41.636719 C 46.226562 39.511719 44.011719 38.003906 41.445312 37.269531 L 41.011719 37.144531 C 41.75 37.75 42.421875 38.445312 43.015625 39.222656 C 44.636719 41.351562 45.527344 44.050781 45.527344 46.824219 L 45.527344 51.375 C 45.527344 54.804688 42.75 57.585938 39.320312 57.585938 L 9.640625 57.585938 L 9.640625 59.878906 C 9.640625 59.945312 9.695312 60 9.761719 60 L 50.238281 60 C 50.304688 60 50.359375 59.945312 50.359375 59.878906 L 50.359375 53.789062 C 50.359375 52.617188 49.40625 51.667969 48.234375 51.667969 C 49.40625 51.667969 50.359375 50.714844 50.359375 49.542969 Z M 50.359375 49.542969 "/>
<path style=" stroke:none;fill-rule:nonzero;fill:rgb(3.137255%,66.27451%,94.509804%);fill-opacity:1;" d="M 50.335938 49.847656 C 50.210938 50.710938 49.570312 51.40625 48.734375 51.605469 L 47.316406 51.605469 C 46.523438 51.605469 45.878906 52.25 45.878906 53.042969 L 45.878906 55.726562 C 45.878906 56.214844 45.484375 56.605469 45 56.605469 C 44.515625 56.605469 44.121094 56.214844 44.121094 55.726562 L 44.121094 53.042969 C 44.121094 51.28125 45.554688 49.847656 47.316406 49.847656 Z M 30 55.785156 C 29.515625 55.785156 29.121094 56.179688 29.121094 56.664062 L 29.121094 60 L 30.878906 60 L 30.878906 56.664062 C 30.878906 56.179688 30.484375 55.785156 30 55.785156 Z M 24.488281 56.515625 C 24.40625 56.039062 23.949219 55.71875 23.472656 55.800781 C 22.992188 55.882812 22.671875 56.335938 22.757812 56.816406 L 23.308594 60 L 25.089844 60 Z M 36.527344 55.800781 C 36.050781 55.71875 35.59375 56.039062 35.511719 56.515625 L 34.910156 60 L 36.691406 60 L 37.242188 56.816406 C 37.328125 56.335938 37.007812 55.882812 36.527344 55.800781 Z M 14.121094 53.042969 L 14.121094 55.730469 C 14.121094 56.214844 14.515625 56.609375 15 56.609375 C 15.484375 56.609375 15.878906 56.214844 15.878906 55.730469 L 15.878906 53.042969 C 15.878906 51.28125 14.445312 49.847656 12.683594 49.847656 L 9.664062 49.847656 C 9.789062 50.710938 10.429688 51.40625 11.265625 51.605469 L 12.683594 51.605469 C 13.476562 51.605469 14.121094 52.253906 14.121094 53.042969 Z M 42.546875 60 L 42.546875 46.667969 C 42.546875 46.179688 42.152344 45.789062 41.667969 45.789062 C 41.179688 45.789062 40.789062 46.179688 40.789062 46.667969 L 40.789062 50.070312 C 40.789062 51.382812 39.71875 52.453125 38.40625 52.453125 L 33.261719 52.453125 C 31.949219 52.453125 30.878906 51.382812 30.878906 50.070312 L 30.878906 46.667969 C 30.878906 46.179688 30.484375 45.789062 30 45.789062 C 29.515625 45.789062 29.121094 46.179688 29.121094 46.667969 L 29.121094 50.070312 C 29.121094 51.382812 28.050781 52.453125 26.738281 52.453125 L 21.597656 52.453125 C 20.28125 52.453125 19.214844 51.382812 19.214844 50.070312 L 19.214844 46.667969 C 19.214844 46.179688 18.820312 45.789062 18.335938 45.789062 C 17.847656 45.789062 17.457031 46.179688 17.457031 46.667969 L 17.457031 60 L 19.214844 60 L 19.214844 53.457031 C 19.886719 53.929688 20.710938 54.210938 21.597656 54.210938 L 26.738281 54.210938 C 28.0625 54.210938 29.242188 53.585938 30 52.617188 C 30.757812 53.585938 31.9375 54.210938 33.261719 54.210938 L 38.40625 54.210938 C 39.292969 54.210938 40.113281 53.929688 40.789062 53.457031 L 40.789062 60 Z M 42.546875 60 "/>
<path style=" stroke:none;fill-rule:nonzero;fill:rgb(0.784314%,56.470588%,81.176471%);fill-opacity:1;" d="M 24.671875 57.585938 L 22.890625 57.585938 L 23.308594 60 L 25.089844 60 Z M 24.671875 57.585938 "/>
<path style=" stroke:none;fill-rule:nonzero;fill:rgb(0.784314%,56.470588%,81.176471%);fill-opacity:1;" d="M 17.457031 57.585938 L 19.214844 57.585938 L 19.214844 60 L 17.457031 60 Z M 17.457031 57.585938 "/>
<path style=" stroke:none;fill-rule:nonzero;fill:rgb(0.784314%,56.470588%,81.176471%);fill-opacity:1;" d="M 45.527344 50.398438 L 45.527344 51.375 C 45.527344 52.871094 45 54.242188 44.121094 55.3125 L 44.121094 55.726562 C 44.121094 56.214844 44.515625 56.605469 45 56.605469 C 45.484375 56.605469 45.878906 56.214844 45.878906 55.726562 L 45.878906 53.042969 C 45.878906 52.25 46.523438 51.605469 47.316406 51.605469 L 48.734375 51.605469 C 49.566406 51.40625 50.210938 50.710938 50.335938 49.847656 L 47.316406 49.847656 C 46.65625 49.847656 46.039062 50.050781 45.527344 50.398438 Z M 45.527344 50.398438 "/>
<path style=" stroke:none;fill-rule:nonzero;fill:rgb(0.784314%,56.470588%,81.176471%);fill-opacity:1;" d="M 42.546875 56.683594 C 42.007812 57.011719 41.417969 57.257812 40.789062 57.410156 L 40.789062 60 L 42.546875 60 Z M 42.546875 56.683594 "/>
<path style=" stroke:none;fill-rule:nonzero;fill:rgb(0.784314%,56.470588%,81.176471%);fill-opacity:1;" d="M 37.109375 57.585938 L 35.328125 57.585938 L 34.910156 60 L 36.691406 60 Z M 37.109375 57.585938 "/>
<path style=" stroke:none;fill-rule:nonzero;fill:rgb(0.784314%,56.470588%,81.176471%);fill-opacity:1;" d="M 29.121094 57.585938 L 30.878906 57.585938 L 30.878906 60 L 29.121094 60 Z M 29.121094 57.585938 "/>
<path style=" stroke:none;fill-rule:nonzero;fill:rgb(0.784314%,37.254902%,50.196078%);fill-opacity:1;" d="M 20.34375 17.648438 C 21.214844 15.90625 21.667969 13.984375 21.667969 12.039062 L 21.667969 11.535156 C 21.667969 10.125 23.203125 9.253906 24.410156 9.980469 C 27.851562 12.042969 32.148438 12.042969 35.589844 9.980469 C 36.796875 9.253906 38.332031 10.125 38.332031 11.535156 L 38.332031 12.039062 C 38.332031 13.984375 38.785156 15.90625 39.65625 17.648438 L 41.800781 21.9375 L 42.789062 8.132812 C 43.101562 3.738281 39.621094 0 35.214844 0 L 28.328125 0 C 22.007812 0 17.011719 5.363281 17.464844 11.667969 L 18.195312 21.9375 Z M 20.34375 17.648438 "/>
<path style=" stroke:none;fill-rule:nonzero;fill:rgb(99.607843%,1.176471%,39.215686%);fill-opacity:1;" d="M 30 43.332031 C 35.933594 43.332031 40.828125 40.488281 41.570312 36.804688 C 41.582031 36.734375 41.542969 36.667969 41.476562 36.652344 L 39.21875 36.003906 C 38.992188 35.941406 38.753906 35.96875 38.546875 36.085938 L 37.898438 36.457031 C 35.496094 37.832031 32.769531 38.554688 30 38.554688 C 27.230469 38.554688 24.507812 37.832031 22.101562 36.457031 L 21.453125 36.085938 C 21.25 35.96875 21.007812 35.941406 20.78125 36.003906 L 18.523438 36.648438 C 18.457031 36.667969 18.417969 36.734375 18.429688 36.804688 C 19.171875 40.488281 24.070312 43.332031 30 43.332031 Z M 30 43.332031 "/>
<path style=" stroke:none;fill-rule:nonzero;fill:rgb(99.607843%,1.176471%,39.215686%);fill-opacity:1;" d="M 34.167969 52.5 C 34.167969 54.800781 32.300781 56.667969 30 56.667969 C 27.699219 56.667969 25.832031 54.800781 25.832031 52.5 C 25.832031 50.199219 27.699219 48.332031 30 48.332031 C 32.300781 48.332031 34.167969 50.199219 34.167969 52.5 Z M 34.167969 52.5 "/>
<path style=" stroke:none;fill-rule:nonzero;fill:rgb(89.019608%,0.784314%,33.72549%);fill-opacity:1;" d="M 30.878906 50.070312 L 30.878906 48.425781 C 30.597656 48.367188 30.300781 48.332031 30 48.332031 C 29.699219 48.332031 29.40625 48.367188 29.121094 48.425781 L 29.121094 50.070312 C 29.121094 51.382812 28.050781 52.453125 26.738281 52.453125 L 25.832031 52.453125 C 25.832031 52.46875 25.832031 52.484375 25.832031 52.5 C 25.832031 53.109375 25.964844 53.6875 26.199219 54.210938 L 26.738281 54.210938 C 28.0625 54.210938 29.242188 53.585938 30 52.617188 C 30.757812 53.585938 31.9375 54.210938 33.261719 54.210938 L 33.800781 54.210938 C 34.035156 53.6875 34.167969 53.109375 34.167969 52.5 C 34.167969 52.484375 34.167969 52.46875 34.167969 52.453125 L 33.261719 52.453125 C 31.949219 52.453125 30.878906 51.382812 30.878906 50.070312 Z M 30.878906 50.070312 "/>
<path style=" stroke:none;fill-rule:nonzero;fill:rgb(89.019608%,0.784314%,33.72549%);fill-opacity:1;" d="M 30 55.785156 C 29.546875 55.785156 29.171875 56.132812 29.125 56.574219 C 29.40625 56.636719 29.699219 56.667969 30 56.667969 C 30.300781 56.667969 30.59375 56.636719 30.875 56.574219 C 30.828125 56.132812 30.453125 55.785156 30 55.785156 Z M 30 55.785156 "/>
<path style=" stroke:none;fill-rule:nonzero;fill:rgb(79.215686%,43.137255%,34.901961%);fill-opacity:1;" d="M 29.199219 25.257812 L 28.90625 25.257812 C 28.421875 25.257812 28.027344 24.863281 28.027344 24.378906 C 28.027344 23.890625 28.421875 23.5 28.90625 23.5 L 29.199219 23.5 C 29.761719 23.5 30.214844 23.042969 30.214844 22.484375 L 30.214844 20 C 30.214844 19.515625 30.609375 19.121094 31.09375 19.121094 C 31.578125 19.121094 31.972656 19.515625 31.972656 20 L 31.972656 22.484375 C 31.972656 24.011719 30.730469 25.257812 29.199219 25.257812 Z M 29.199219 25.257812 "/>
<path style=" stroke:none;fill-rule:nonzero;fill:rgb(79.215686%,43.137255%,34.901961%);fill-opacity:1;" d="M 30 29.375 C 28.171875 29.375 26.34375 28.679688 24.953125 27.289062 C 24.609375 26.945312 24.609375 26.386719 24.953125 26.046875 C 25.296875 25.703125 25.855469 25.703125 26.195312 26.046875 C 28.292969 28.140625 31.707031 28.140625 33.804688 26.046875 C 34.148438 25.703125 34.703125 25.703125 35.046875 26.046875 C 35.390625 26.390625 35.390625 26.945312 35.046875 27.289062 C 33.65625 28.679688 31.828125 29.375 30 29.375 Z M 30 29.375 "/>
<path style=" stroke:none;fill-rule:nonzero;fill:rgb(73.333333%,36.470588%,29.803922%);fill-opacity:1;" d="M 35.097656 26.101562 C 34.433594 27.148438 33.609375 28.078125 32.65625 28.863281 C 33.527344 28.515625 34.34375 27.992188 35.046875 27.289062 C 35.371094 26.964844 35.390625 26.445312 35.097656 26.101562 Z M 35.097656 26.101562 "/>
<path style=" stroke:none;fill-rule:nonzero;fill:rgb(99.607843%,1.176471%,39.215686%);fill-opacity:1;" d="M 42.261719 15 L 17.738281 15 C 17.425781 15 17.167969 15.253906 17.167969 15.566406 C 17.167969 15.867188 17.179688 16.171875 17.203125 16.472656 L 17.535156 21.136719 C 17.554688 21.433594 17.804688 21.667969 18.105469 21.667969 L 24.835938 21.667969 C 26.605469 21.667969 28.332031 20.855469 29.304688 19.375 C 29.632812 18.875 30.367188 18.875 30.695312 19.375 C 31.667969 20.855469 33.394531 21.667969 35.164062 21.667969 L 41.894531 21.667969 C 42.195312 21.667969 42.441406 21.433594 42.464844 21.136719 L 42.796875 16.476562 C 42.820312 16.171875 42.832031 15.867188 42.832031 15.566406 C 42.832031 15.253906 42.574219 15 42.261719 15 Z M 42.261719 15 "/>
<path style=" stroke:none;fill-rule:nonzero;fill:rgb(89.019608%,0.784314%,33.72549%);fill-opacity:1;" d="M 42.261719 15 L 34.714844 15 C 34.753906 15.078125 34.789062 15.15625 34.828125 15.234375 L 36.46875 18.515625 C 36.800781 19.175781 36.945312 19.910156 36.890625 20.644531 C 36.867188 20.988281 36.832031 21.328125 36.789062 21.667969 L 41.894531 21.667969 C 42.195312 21.667969 42.441406 21.433594 42.464844 21.136719 L 42.796875 16.476562 C 42.820312 16.171875 42.832031 15.867188 42.832031 15.566406 C 42.832031 15.253906 42.574219 15 42.261719 15 Z M 42.261719 15 "/>
<path style=" stroke:none;fill-rule:nonzero;fill:rgb(89.019608%,0.784314%,33.72549%);fill-opacity:1;" d="M 26.667969 19.210938 L 21.667969 19.210938 C 21.183594 19.210938 20.789062 18.820312 20.789062 18.332031 C 20.789062 17.847656 21.183594 17.453125 21.667969 17.453125 L 26.667969 17.453125 C 27.152344 17.453125 27.546875 17.847656 27.546875 18.332031 C 27.546875 18.820312 27.152344 19.210938 26.667969 19.210938 Z M 26.667969 19.210938 "/>
<path style=" stroke:none;fill-rule:nonzero;fill:rgb(89.019608%,0.784314%,33.72549%);fill-opacity:1;" d="M 38.332031 19.210938 L 33.332031 19.210938 C 32.847656 19.210938 32.453125 18.820312 32.453125 18.332031 C 32.453125 17.847656 32.847656 17.453125 33.332031 17.453125 L 38.332031 17.453125 C 38.820312 17.453125 39.210938 17.847656 39.210938 18.332031 C 39.210938 18.820312 38.820312 19.210938 38.332031 19.210938 Z M 38.332031 19.210938 "/>
<path style=" stroke:none;fill-rule:nonzero;fill:rgb(82.352941%,0.784314%,30.588235%);fill-opacity:1;" d="M 38.332031 17.453125 L 35.9375 17.453125 L 36.46875 18.515625 C 36.582031 18.742188 36.671875 18.972656 36.742188 19.210938 L 38.332031 19.210938 C 38.820312 19.210938 39.210938 18.820312 39.210938 18.332031 C 39.210938 17.847656 38.820312 17.453125 38.332031 17.453125 Z M 38.332031 17.453125 "/>
</g>
</svg>
