<?xml version="1.0" encoding="UTF-8"?>
<svg xmlns="http://www.w3.org/2000/svg" xmlns:xlink="http://www.w3.org/1999/xlink" width="60pt" height="60pt" viewBox="0 0 60 60" version="1.1">
<g id="surface1">
<path style=" stroke:none;fill-rule:nonzero;fill:rgb(0.392157%,44.705882%,59.215686%);fill-opacity:1;" d="M 48.054688 49.710938 C 48.054688 45.042969 44.960938 40.945312 40.476562 39.664062 C 37.175781 38.71875 37.113281 38.75 36.617188 38.410156 C 35.882812 37.90625 35.417969 37.058594 35.417969 36.128906 L 35.417969 32.929688 C 33.871094 33.988281 32.003906 34.605469 30 34.605469 C 27.996094 34.605469 26.128906 33.988281 24.582031 32.929688 L 24.582031 36.128906 C 24.582031 37.058594 24.117188 37.90625 23.382812 38.410156 C 22.886719 38.75 22.808594 38.722656 19.523438 39.664062 C 15.035156 40.945312 11.941406 45.042969 11.941406 49.710938 L 11.941406 59.878906 C 11.941406 59.945312 11.996094 60 12.0625 60 L 47.9375 60 C 48.003906 60 48.054688 59.945312 48.054688 59.878906 Z M 48.054688 49.710938 "/>
<path style=" stroke:none;fill-rule:nonzero;fill:rgb(0.784314%,37.254902%,50.196078%);fill-opacity:1;" d="M 40.476562 39.664062 C 40.179688 39.578125 39.90625 39.5 39.65625 39.429688 C 41.871094 41.367188 43.226562 44.207031 43.226562 47.292969 L 43.226562 51.074219 C 43.226562 54.667969 40.3125 57.585938 36.714844 57.585938 L 11.945312 57.585938 L 11.945312 59.878906 C 11.945312 59.945312 11.996094 60 12.0625 60 L 47.9375 60 C 48.003906 60 48.058594 59.945312 48.058594 59.878906 L 48.058594 49.707031 C 48.054688 45.042969 44.964844 40.945312 40.476562 39.664062 Z M 40.476562 39.664062 "/>
<path style=" stroke:none;fill-rule:nonzero;fill:rgb(100%,87.45098%,81.176471%);fill-opacity:1;" d="M 20.046875 21.890625 L 17.78125 21.890625 C 16.242188 21.890625 14.996094 23.136719 14.996094 24.671875 C 14.996094 27.695312 17.445312 30.144531 20.464844 30.144531 L 20.570312 30.144531 Z M 20.046875 21.890625 "/>
<path style=" stroke:none;fill-rule:nonzero;fill:rgb(100%,80.784314%,74.901961%);fill-opacity:1;" d="M 42.21875 21.890625 L 39.957031 21.890625 L 39.429688 30.144531 L 39.535156 30.144531 C 42.554688 30.144531 45.003906 27.695312 45.003906 24.671875 C 45.003906 23.136719 43.757812 21.890625 42.21875 21.890625 Z M 42.21875 21.890625 "/>
<path style=" stroke:none;fill-rule:nonzero;fill:rgb(100%,93.333333%,90.196078%);fill-opacity:1;" d="M 41.050781 25.171875 C 40.636719 30.96875 35.8125 35.460938 30 35.460938 C 24.1875 35.460938 19.359375 30.96875 18.945312 25.167969 L 18.5 18.921875 C 18.023438 12.246094 23.308594 6.570312 30 6.570312 C 36.691406 6.570312 41.976562 12.246094 41.5 18.921875 Z M 41.050781 25.171875 "/>
<path style=" stroke:none;fill-rule:nonzero;fill:rgb(100%,87.45098%,81.176471%);fill-opacity:1;" d="M 30 6.570312 C 23.390625 6.570312 18.152344 12.109375 18.484375 18.675781 L 20.015625 17.65625 C 23.046875 15.636719 24.941406 12.324219 25.171875 8.722656 C 25.402344 12.328125 27.296875 15.636719 30.324219 17.65625 L 35.371094 21.019531 C 35.949219 21.40625 36.273438 22.066406 36.222656 22.753906 C 35.808594 28.554688 30.984375 33.046875 25.171875 33.046875 C 24.351562 33.046875 23.550781 32.957031 22.78125 32.789062 C 24.726562 34.457031 27.253906 35.460938 30 35.460938 C 35.8125 35.460938 40.636719 30.96875 41.050781 25.171875 L 41.5 18.921875 C 41.976562 12.246094 36.691406 6.570312 30 6.570312 Z M 30 6.570312 "/>
<path style=" stroke:none;fill-rule:nonzero;fill:rgb(98.039216%,77.647059%,0%);fill-opacity:1;" d="M 35.832031 4.390625 C 35.832031 1.964844 33.222656 0 30 0 C 26.777344 0 24.167969 1.964844 24.167969 4.390625 C 24.167969 6.8125 26.777344 8.78125 30 8.78125 C 33.222656 8.78125 35.832031 6.8125 35.832031 4.390625 Z M 35.832031 4.390625 "/>
<path style=" stroke:none;fill-rule:nonzero;fill:rgb(99.607843%,83.137255%,0.784314%);fill-opacity:1;" d="M 30 4.949219 C 22.425781 4.949219 16.445312 11.371094 16.984375 18.925781 L 17.417969 25.023438 L 24.84375 20.070312 C 27.875 18.050781 29.769531 14.742188 30 11.140625 C 30.230469 14.742188 32.125 18.050781 35.15625 20.070312 L 42.582031 25.023438 L 43.015625 18.925781 C 43.554688 11.371094 37.574219 4.949219 30 4.949219 Z M 30 4.949219 "/>
<path style=" stroke:none;fill-rule:nonzero;fill:rgb(0.392157%,75.294118%,98.039216%);fill-opacity:1;" d="M 23.648438 37.429688 C 23.597656 37.414062 23.542969 37.433594 23.511719 37.472656 C 23.378906 37.640625 23.21875 37.789062 23.039062 37.914062 C 22.734375 38.125 22.675781 38.144531 20.960938 38.628906 C 20.84375 38.660156 20.71875 38.695312 20.585938 38.734375 C 20.480469 38.761719 20.457031 38.902344 20.546875 38.964844 C 22.960938 40.632812 26.304688 41.667969 30 41.667969 C 33.695312 41.667969 37.039062 40.632812 39.453125 38.964844 C 39.542969 38.902344 39.519531 38.761719 39.414062 38.734375 C 39.28125 38.695312 39.15625 38.660156 39.035156 38.628906 C 37.324219 38.144531 37.265625 38.125 36.960938 37.914062 C 36.78125 37.789062 36.621094 37.640625 36.488281 37.472656 C 36.457031 37.433594 36.402344 37.414062 36.351562 37.429688 C 34.464844 38.007812 32.300781 38.332031 30 38.332031 C 27.699219 38.332031 25.539062 38.007812 23.648438 37.429688 Z M 23.648438 37.429688 "/>
<path style=" stroke:none;fill-rule:nonzero;fill:rgb(0.392157%,44.705882%,59.215686%);fill-opacity:1;" d="M 24.371094 13.019531 L 16.980469 17.285156 L 15.992188 15.578125 C 14.574219 13.121094 14.191406 10.203125 14.925781 7.464844 L 15.300781 6.0625 C 15.324219 5.980469 15.410156 5.929688 15.492188 5.953125 L 16.894531 6.328125 C 19.632812 7.0625 21.96875 8.851562 23.386719 11.308594 Z M 24.371094 13.019531 "/>
<path style=" stroke:none;fill-rule:nonzero;fill:rgb(0.392157%,44.705882%,59.215686%);fill-opacity:1;" d="M 35.628906 13.019531 L 43.019531 17.285156 L 44.007812 15.578125 C 45.425781 13.121094 45.808594 10.203125 45.074219 7.464844 L 44.699219 6.0625 C 44.675781 5.980469 44.589844 5.929688 44.507812 5.953125 L 43.105469 6.328125 C 40.367188 7.0625 38.03125 8.851562 36.613281 11.308594 Z M 35.628906 13.019531 "/>
<path style=" stroke:none;fill-rule:nonzero;fill:rgb(2.352941%,50.588235%,68.627451%);fill-opacity:1;" d="M 30 13.332031 C 36.382812 13.332031 41.71875 15.855469 43.027344 19.226562 C 43.089844 19.390625 43.332031 19.351562 43.332031 19.175781 C 43.332031 19.171875 43.332031 19.167969 43.332031 19.167969 C 43.332031 14.105469 37.363281 10 30 10 C 22.636719 10 16.667969 14.105469 16.667969 19.167969 L 16.667969 19.175781 C 16.667969 19.351562 16.910156 19.390625 16.972656 19.226562 C 18.28125 15.855469 23.617188 13.332031 30 13.332031 Z M 30 13.332031 "/>
<path style=" stroke:none;fill-rule:nonzero;fill:rgb(100%,87.45098%,81.176471%);fill-opacity:1;" d="M 30 31.152344 C 28.214844 31.152344 26.535156 30.457031 25.269531 29.191406 C 24.929688 28.851562 24.929688 28.292969 25.269531 27.949219 C 25.613281 27.605469 26.171875 27.605469 26.515625 27.949219 C 27.445312 28.882812 28.683594 29.394531 30 29.394531 C 31.316406 29.394531 32.554688 28.882812 33.484375 27.949219 C 33.828125 27.605469 34.386719 27.605469 34.730469 27.949219 C 35.070312 28.292969 35.074219 28.851562 34.730469 29.191406 C 33.464844 30.457031 31.785156 31.152344 30 31.152344 Z M 30 31.152344 "/>
<path style=" stroke:none;fill-rule:nonzero;fill:rgb(100%,80.784314%,74.901961%);fill-opacity:1;" d="M 34.730469 27.949219 C 34.683594 27.902344 34.628906 27.863281 34.574219 27.828125 C 33.8125 29.046875 32.824219 30.105469 31.664062 30.945312 C 32.8125 30.652344 33.867188 30.054688 34.730469 29.191406 C 35.074219 28.851562 35.074219 28.292969 34.730469 27.949219 Z M 34.730469 27.949219 "/>
<path style=" stroke:none;fill-rule:nonzero;fill:rgb(100%,87.45098%,81.176471%);fill-opacity:1;" d="M 29.246094 27.292969 L 28.96875 27.292969 C 28.484375 27.292969 28.089844 26.898438 28.089844 26.414062 C 28.089844 25.925781 28.484375 25.535156 28.96875 25.535156 L 29.246094 25.535156 C 29.746094 25.535156 30.152344 25.128906 30.152344 24.628906 L 30.152344 22.285156 C 30.152344 21.800781 30.546875 21.40625 31.03125 21.40625 C 31.515625 21.40625 31.910156 21.800781 31.910156 22.285156 L 31.910156 24.628906 C 31.910156 26.097656 30.714844 27.292969 29.246094 27.292969 Z M 29.246094 27.292969 "/>
<path style=" stroke:none;fill-rule:nonzero;fill:rgb(0.784314%,37.254902%,50.196078%);fill-opacity:1;" d="M 19.210938 60 L 19.210938 53.058594 C 19.210938 52.574219 18.820312 52.179688 18.332031 52.179688 C 17.847656 52.179688 17.453125 52.574219 17.453125 53.058594 L 17.453125 60 Z M 19.210938 60 "/>
<path style=" stroke:none;fill-rule:nonzero;fill:rgb(0.784314%,37.254902%,50.196078%);fill-opacity:1;" d="M 30.878906 60 L 30.878906 48.332031 C 30.878906 47.847656 30.484375 47.453125 30 47.453125 C 29.515625 47.453125 29.121094 47.847656 29.121094 48.332031 L 29.121094 60 Z M 30.878906 60 "/>
<path style=" stroke:none;fill-rule:nonzero;fill:rgb(0.784314%,37.254902%,50.196078%);fill-opacity:1;" d="M 42.546875 60 L 42.546875 53.058594 C 42.546875 52.574219 42.152344 52.179688 41.667969 52.179688 C 41.179688 52.179688 40.789062 52.574219 40.789062 53.058594 L 40.789062 60 Z M 42.546875 60 "/>
<path style=" stroke:none;fill-rule:nonzero;fill:rgb(0.784314%,29.803922%,40.392157%);fill-opacity:1;" d="M 42.546875 60 L 42.546875 53.980469 C 42.121094 54.828125 41.519531 55.566406 40.789062 56.15625 L 40.789062 60 Z M 42.546875 60 "/>
<path style=" stroke:none;fill-rule:nonzero;fill:rgb(0.784314%,29.803922%,40.392157%);fill-opacity:1;" d="M 29.121094 57.585938 L 30.878906 57.585938 L 30.878906 60 L 29.121094 60 Z M 29.121094 57.585938 "/>
<path style=" stroke:none;fill-rule:nonzero;fill:rgb(0.784314%,29.803922%,40.392157%);fill-opacity:1;" d="M 17.453125 57.585938 L 19.210938 57.585938 L 19.210938 60 L 17.453125 60 Z M 17.453125 57.585938 "/>
<path style=" stroke:none;fill-rule:nonzero;fill:rgb(87.45098%,96.470588%,99.215686%);fill-opacity:1;" d="M 41.667969 27.546875 L 36.976562 27.546875 C 36.492188 27.546875 36.097656 27.152344 36.097656 26.667969 C 36.097656 26.179688 36.492188 25.789062 36.976562 25.789062 L 41.667969 25.789062 C 42.152344 25.789062 42.546875 26.179688 42.546875 26.667969 C 42.546875 27.152344 42.152344 27.546875 41.667969 27.546875 Z M 41.667969 27.546875 "/>
<path style=" stroke:none;fill-rule:nonzero;fill:rgb(87.45098%,96.470588%,99.215686%);fill-opacity:1;" d="M 40.539062 32.546875 C 40.414062 32.546875 40.285156 32.519531 40.164062 32.460938 L 35.925781 30.449219 C 35.488281 30.242188 35.300781 29.71875 35.507812 29.28125 C 35.714844 28.839844 36.242188 28.65625 36.679688 28.863281 L 40.917969 30.871094 C 41.355469 31.082031 41.542969 31.605469 41.335938 32.042969 C 41.183594 32.359375 40.867188 32.546875 40.539062 32.546875 Z M 40.539062 32.546875 "/>
<path style=" stroke:none;fill-rule:nonzero;fill:rgb(94.901961%,98.431373%,100%);fill-opacity:1;" d="M 23.023438 27.546875 L 18.332031 27.546875 C 17.847656 27.546875 17.453125 27.152344 17.453125 26.667969 C 17.453125 26.179688 17.847656 25.789062 18.332031 25.789062 L 23.023438 25.789062 C 23.507812 25.789062 23.902344 26.179688 23.902344 26.667969 C 23.902344 27.152344 23.507812 27.546875 23.023438 27.546875 Z M 23.023438 27.546875 "/>
<path style=" stroke:none;fill-rule:nonzero;fill:rgb(94.901961%,98.431373%,100%);fill-opacity:1;" d="M 19.460938 32.546875 C 19.132812 32.546875 18.816406 32.359375 18.664062 32.042969 C 18.457031 31.605469 18.644531 31.082031 19.082031 30.871094 L 23.320312 28.863281 C 23.757812 28.65625 24.285156 28.839844 24.492188 29.28125 C 24.699219 29.71875 24.511719 30.242188 24.074219 30.449219 L 19.835938 32.460938 C 19.714844 32.519531 19.585938 32.546875 19.460938 32.546875 Z M 19.460938 32.546875 "/>
<path style=" stroke:none;fill-rule:nonzero;fill:rgb(99.607843%,83.137255%,0.784314%);fill-opacity:1;" d="M 33.332031 45 C 33.332031 46.839844 31.839844 48.332031 30 48.332031 C 28.160156 48.332031 26.667969 46.839844 26.667969 45 C 26.667969 43.160156 28.160156 41.667969 30 41.667969 C 31.839844 41.667969 33.332031 43.160156 33.332031 45 Z M 33.332031 45 "/>
<path style=" stroke:none;fill-rule:nonzero;fill:rgb(98.039216%,77.647059%,0%);fill-opacity:1;" d="M 29.90625 44.4375 C 29.421875 44.4375 29.121094 44.515625 29.121094 45 L 29.121094 48.214844 C 29.402344 48.292969 29.695312 48.332031 30 48.332031 C 30.304688 48.332031 30.597656 48.292969 30.878906 48.214844 L 30.878906 45 C 30.878906 44.515625 30.394531 44.4375 29.90625 44.4375 Z M 29.90625 44.4375 "/>
<path style=" stroke:none;fill-rule:nonzero;fill:rgb(99.607843%,89.411765%,35.294118%);fill-opacity:1;" d="M 33.234375 45.878906 L 26.765625 45.878906 C 26.28125 45.878906 25.886719 45.484375 25.886719 45 C 25.886719 44.515625 26.28125 44.121094 26.765625 44.121094 L 33.234375 44.121094 C 33.71875 44.121094 34.113281 44.515625 34.113281 45 C 34.113281 45.484375 33.71875 45.878906 33.234375 45.878906 Z M 33.234375 45.878906 "/>
</g>
</svg>
