<?xml version="1.0" encoding="UTF-8"?>
<svg xmlns="http://www.w3.org/2000/svg" xmlns:xlink="http://www.w3.org/1999/xlink" width="60pt" height="60pt" viewBox="0 0 60 60" version="1.1">
<g id="surface1">
<path style=" stroke:none;fill-rule:nonzero;fill:rgb(40.784314%,36.862745%,40.784314%);fill-opacity:1;" d="M 50.007812 6.507812 C 50.007812 2.914062 47.09375 0 43.5 0 C 40.84375 0 38.558594 1.59375 37.546875 3.875 C 37.1875 4.679688 45.433594 12.796875 46.277344 12.398438 C 48.484375 11.355469 50.007812 9.109375 50.007812 6.507812 Z M 50.007812 6.507812 "/>
<path style=" stroke:none;fill-rule:nonzero;fill:rgb(33.333333%,30.588235%,33.72549%);fill-opacity:1;" d="M 46.277344 12.398438 C 45.433594 12.796875 44.492188 13.019531 43.5 13.019531 C 39.90625 13.019531 37.148438 4.871094 37.4375 4.136719 C 38.386719 1.714844 40.742188 0 43.5 0 C 44.492188 0 45.433594 0.222656 46.277344 0.621094 C 44.070312 1.660156 42.542969 3.90625 42.542969 6.507812 C 42.542969 9.113281 44.070312 11.355469 46.277344 12.398438 Z M 46.277344 12.398438 "/>
<path style=" stroke:none;fill-rule:nonzero;fill:rgb(40.784314%,36.862745%,40.784314%);fill-opacity:1;" d="M 21.371094 6.359375 C 21.371094 5.539062 22.855469 4.902344 22.578125 4.179688 C 21.640625 1.734375 19.273438 0 16.5 0 C 12.90625 0 9.992188 2.914062 9.992188 6.507812 C 9.992188 9.347656 11.808594 11.761719 14.34375 12.652344 C 15.019531 12.890625 14.738281 11.355469 15.496094 11.355469 C 19.089844 11.355469 21.371094 9.957031 21.371094 6.359375 Z M 21.371094 6.359375 "/>
<path style=" stroke:none;fill-rule:nonzero;fill:rgb(33.333333%,30.588235%,33.72549%);fill-opacity:1;" d="M 19.277344 12.398438 C 18.433594 12.796875 15.019531 12.886719 14.34375 12.652344 C 11.808594 11.761719 9.992188 9.347656 9.992188 6.507812 C 9.992188 2.914062 12.90625 0 16.5 0 C 17.496094 0 18.433594 0.222656 19.277344 0.621094 C 17.070312 1.660156 15.542969 3.90625 15.542969 6.507812 C 15.542969 9.113281 17.070312 11.355469 19.277344 12.398438 Z M 19.277344 12.398438 "/>
<path style=" stroke:none;fill-rule:nonzero;fill:rgb(99.215686%,27.843137%,33.333333%);fill-opacity:1;" d="M 22.945312 2.632812 C 22.226562 1.910156 21.054688 1.910156 20.332031 2.632812 L 12.40625 10.558594 C 11.683594 11.28125 11.683594 12.449219 12.40625 13.171875 C 13.128906 13.894531 14.296875 13.894531 15.019531 13.171875 L 22.945312 5.246094 C 23.667969 4.523438 23.667969 3.351562 22.945312 2.632812 Z M 22.945312 2.632812 "/>
<path style=" stroke:none;fill-rule:nonzero;fill:rgb(98.431373%,16.862745%,22.745098%);fill-opacity:1;" d="M 16.90625 10.519531 C 17.378906 10.519531 17.851562 10.339844 18.210938 9.980469 L 15.019531 13.171875 C 14.660156 13.53125 14.183594 13.714844 13.710938 13.714844 C 13.238281 13.714844 12.765625 13.53125 12.40625 13.171875 C 11.683594 12.449219 11.683594 11.28125 12.40625 10.558594 L 15.597656 7.363281 C 14.875 8.085938 14.875 9.257812 15.597656 9.980469 C 15.960938 10.339844 16.433594 10.519531 16.90625 10.519531 Z M 16.90625 10.519531 "/>
<path style=" stroke:none;fill-rule:nonzero;fill:rgb(99.215686%,27.843137%,33.333333%);fill-opacity:1;" d="M 47.59375 13.171875 C 46.875 13.894531 45.703125 13.894531 44.980469 13.171875 L 37.054688 5.246094 C 36.332031 4.523438 36.332031 3.351562 37.054688 2.632812 C 37.777344 1.910156 38.945312 1.910156 39.667969 2.632812 L 47.59375 10.558594 C 48.316406 11.28125 48.316406 12.449219 47.59375 13.171875 Z M 47.59375 13.171875 "/>
<path style=" stroke:none;fill-rule:nonzero;fill:rgb(98.431373%,16.862745%,22.745098%);fill-opacity:1;" d="M 41.554688 5.28125 C 42.027344 5.28125 42.5 5.464844 42.859375 5.824219 L 39.667969 2.628906 C 39.308594 2.269531 38.832031 2.089844 38.359375 2.089844 C 37.886719 2.089844 37.414062 2.269531 37.054688 2.628906 C 36.332031 3.351562 36.332031 4.523438 37.054688 5.246094 L 40.246094 8.4375 C 39.523438 7.714844 39.523438 6.546875 40.246094 5.824219 C 40.605469 5.464844 41.082031 5.28125 41.554688 5.28125 Z M 41.554688 5.28125 "/>
<path style=" stroke:none;fill-rule:nonzero;fill:rgb(40.784314%,36.862745%,40.784314%);fill-opacity:1;" d="M 30 3.882812 C 21.03125 3.882812 13.761719 11.152344 13.761719 20.121094 L 13.761719 39.824219 L 46.238281 39.824219 L 46.238281 20.121094 C 46.238281 11.152344 38.96875 3.882812 30 3.882812 Z M 30 3.882812 "/>
<path style=" stroke:none;fill-rule:nonzero;fill:rgb(33.333333%,30.588235%,33.72549%);fill-opacity:1;" d="M 33.132812 4.183594 C 25.664062 5.644531 20.03125 12.222656 20.03125 20.121094 L 20.03125 39.824219 L 13.761719 39.824219 L 13.761719 20.121094 C 13.761719 11.152344 21.03125 3.882812 30 3.882812 C 31.070312 3.882812 32.121094 3.984375 33.132812 4.183594 Z M 33.132812 4.183594 "/>
<path style=" stroke:none;fill-rule:nonzero;fill:rgb(99.215686%,27.843137%,33.333333%);fill-opacity:1;" d="M 30 44.054688 C 24.28125 44.054688 19.648438 48.6875 19.648438 54.40625 L 19.648438 60 L 40.351562 60 L 40.351562 54.40625 C 40.351562 48.6875 35.714844 44.054688 30 44.054688 Z M 30 44.054688 "/>
<path style=" stroke:none;fill-rule:nonzero;fill:rgb(98.431373%,16.862745%,22.745098%);fill-opacity:1;" d="M 32.722656 44.417969 C 28.328125 45.613281 25.097656 49.628906 25.097656 54.40625 L 25.097656 60 L 19.648438 60 L 19.648438 54.40625 C 19.648438 48.6875 24.285156 44.054688 30 44.054688 C 30.941406 44.054688 31.855469 44.179688 32.722656 44.417969 Z M 32.722656 44.417969 "/>
<path style=" stroke:none;fill-rule:nonzero;fill:rgb(100%,89.803922%,76.078431%);fill-opacity:1;" d="M 42.601562 24.257812 L 42.601562 29.710938 C 42.601562 35.328125 38.929688 40.085938 33.851562 41.714844 L 33.851562 44.722656 C 33.851562 46.851562 32.128906 48.574219 30 48.574219 C 27.871094 48.574219 26.148438 46.851562 26.148438 44.722656 L 26.148438 41.714844 C 21.070312 40.085938 17.394531 35.328125 17.394531 29.710938 L 17.394531 24.257812 C 19.277344 23.8125 21.179688 23.472656 23.085938 23.226562 C 23.160156 23.21875 23.238281 23.207031 23.3125 23.199219 C 29.738281 22.410156 36.269531 22.765625 42.601562 24.257812 Z M 42.601562 24.257812 "/>
<path style=" stroke:none;fill-rule:nonzero;fill:rgb(99.607843%,82.352941%,64.313725%);fill-opacity:1;" d="M 33.851562 41.714844 L 33.851562 44.722656 C 33.851562 46.851562 32.128906 48.574219 30 48.574219 C 27.871094 48.574219 26.148438 46.851562 26.148438 44.722656 L 26.148438 41.714844 C 21.070312 40.085938 17.394531 35.328125 17.394531 29.710938 L 17.394531 24.257812 C 19.277344 23.8125 21.179688 23.472656 23.085938 23.226562 C 23.160156 23.21875 23.238281 23.207031 23.3125 23.199219 C 22.785156 28.167969 22.738281 39.988281 33.851562 41.714844 Z M 33.851562 41.714844 "/>
<path style=" stroke:none;fill-rule:nonzero;fill:rgb(99.215686%,27.843137%,33.333333%);fill-opacity:1;" d="M 30 36.757812 C 27.871094 36.757812 26.140625 35.027344 26.140625 32.898438 C 26.140625 32.398438 26.546875 31.992188 27.046875 31.992188 C 27.546875 31.992188 27.949219 32.398438 27.949219 32.898438 C 27.949219 34.027344 28.871094 34.945312 30 34.945312 C 31.128906 34.945312 32.046875 34.027344 32.046875 32.898438 C 32.046875 32.398438 32.453125 31.992188 32.953125 31.992188 C 33.453125 31.992188 33.859375 32.398438 33.859375 32.898438 C 33.859375 35.027344 32.128906 36.757812 30 36.757812 Z M 30 36.757812 "/>
<path style=" stroke:none;fill-rule:nonzero;fill:rgb(98.039216%,77.647059%,0%);fill-opacity:1;" d="M 32.488281 51.0625 C 32.488281 52.4375 31.375 53.550781 30 53.550781 C 28.625 53.550781 27.511719 52.4375 27.511719 51.0625 C 27.511719 49.691406 28.625 48.574219 30 48.574219 C 31.375 48.574219 32.488281 49.691406 32.488281 51.0625 Z M 32.488281 51.0625 "/>
<path style=" stroke:none;fill-rule:nonzero;fill:rgb(99.607843%,91.372549%,49.019608%);fill-opacity:1;" d="M 30 49.480469 C 27.375 49.480469 25.242188 47.347656 25.242188 44.722656 C 25.242188 44.222656 25.648438 43.816406 26.148438 43.816406 C 26.648438 43.816406 27.050781 44.222656 27.050781 44.722656 C 27.050781 46.347656 28.375 47.671875 30 47.671875 C 31.625 47.671875 32.945312 46.347656 32.945312 44.722656 C 32.945312 44.222656 33.351562 43.816406 33.851562 43.816406 C 34.351562 43.816406 34.757812 44.222656 34.757812 44.722656 C 34.757812 47.347656 32.625 49.480469 30 49.480469 Z M 30 49.480469 "/>
<path style=" stroke:none;fill-rule:nonzero;fill:rgb(33.333333%,30.588235%,33.72549%);fill-opacity:1;" d="M 27.304688 29.542969 C 26.804688 29.542969 26.402344 29.136719 26.402344 28.636719 C 26.402344 28.078125 25.945312 27.621094 25.382812 27.621094 C 24.824219 27.621094 24.367188 28.078125 24.367188 28.636719 C 24.367188 29.136719 23.960938 29.542969 23.460938 29.542969 C 22.960938 29.542969 22.554688 29.136719 22.554688 28.636719 C 22.554688 27.078125 23.824219 25.808594 25.382812 25.808594 C 26.941406 25.808594 28.210938 27.078125 28.210938 28.636719 C 28.210938 29.136719 27.804688 29.542969 27.304688 29.542969 Z M 27.304688 29.542969 "/>
<path style=" stroke:none;fill-rule:nonzero;fill:rgb(33.333333%,30.588235%,33.72549%);fill-opacity:1;" d="M 36.539062 29.542969 C 36.039062 29.542969 35.632812 29.136719 35.632812 28.636719 C 35.632812 28.078125 35.175781 27.621094 34.617188 27.621094 C 34.054688 27.621094 33.597656 28.078125 33.597656 28.636719 C 33.597656 29.136719 33.195312 29.542969 32.695312 29.542969 C 32.195312 29.542969 31.789062 29.136719 31.789062 28.636719 C 31.789062 27.078125 33.054688 25.808594 34.617188 25.808594 C 36.175781 25.808594 37.445312 27.078125 37.445312 28.636719 C 37.445312 29.136719 37.039062 29.542969 36.539062 29.542969 Z M 36.539062 29.542969 "/>
</g>
</svg>
