<?xml version="1.0" encoding="UTF-8"?>
<svg xmlns="http://www.w3.org/2000/svg" xmlns:xlink="http://www.w3.org/1999/xlink" width="60pt" height="60pt" viewBox="0 0 60 60" version="1.1">
<g id="surface1">
<path style=" stroke:none;fill-rule:nonzero;fill:rgb(38.039216%,45.490196%,54.509804%);fill-opacity:1;" d="M 45.714844 13.945312 C 44.234375 6.429688 37.644531 1.007812 29.980469 1.007812 C 22.320312 1.007812 15.726562 6.425781 14.246094 13.945312 L 5.371094 59.988281 L 54.589844 59.988281 Z M 45.714844 13.945312 "/>
<path style=" stroke:none;fill-rule:nonzero;fill:rgb(32.54902%,38.431373%,45.882353%);fill-opacity:1;" d="M 54.246094 58.203125 L 38.707031 58.203125 L 38.707031 21.847656 L 37.765625 21.078125 C 34.222656 18.421875 32.457031 14.914062 32.453125 10.652344 L 29.976562 10.652344 C 29.976562 10.652344 29.421875 19.378906 27.320312 21.097656 L 26.40625 21.847656 L 26.40625 29.675781 C 28.152344 30.8125 30.230469 31.484375 32.46875 31.5 C 33.75 31.507812 34.980469 31.308594 36.132812 30.925781 L 36.132812 58.203125 L 21.148438 58.203125 L 21.148438 33.503906 L 18.574219 33.503906 L 18.574219 58.203125 L 8.351562 58.203125 L 16.886719 13.945312 C 18.277344 6.863281 24.210938 1.640625 31.300781 1.0625 C 30.863281 1.027344 30.425781 1.007812 29.980469 1.007812 C 22.320312 1.007812 15.726562 6.425781 14.246094 13.945312 L 5.371094 59.988281 L 54.589844 59.988281 Z M 54.246094 58.203125 "/>
<path style=" stroke:none;fill-rule:nonzero;fill:rgb(89.803922%,92.54902%,96.078431%);fill-opacity:1;" d="M 23.828125 41.039062 L 36.132812 41.039062 L 36.132812 59.988281 L 23.828125 59.988281 Z M 23.828125 41.039062 "/>
<path style=" stroke:none;fill-rule:nonzero;fill:rgb(79.215686%,84.705882%,92.156863%);fill-opacity:1;" d="M 26.496094 58.113281 L 26.496094 41.039062 L 23.828125 41.039062 L 23.828125 59.988281 L 36.132812 59.988281 L 36.132812 58.113281 Z M 26.496094 58.113281 "/>
<path style=" stroke:none;fill-rule:nonzero;fill:rgb(98.431373%,94.901961%,88.627451%);fill-opacity:1;" d="M 23.832031 41.40625 C 25.054688 43.535156 27.351562 44.96875 29.980469 44.96875 C 32.613281 44.96875 34.910156 43.53125 36.132812 41.402344 L 36.132812 37.277344 L 35.828125 37.179688 C 32.023438 35.972656 27.9375 35.96875 24.132812 37.179688 L 23.828125 37.277344 Z M 23.832031 41.40625 "/>
<path style=" stroke:none;fill-rule:nonzero;fill:rgb(96.862745%,87.843137%,72.941176%);fill-opacity:1;" d="M 32.398438 44.015625 C 29.769531 44.015625 27.472656 42.582031 26.25 40.457031 L 26.242188 36.636719 C 25.535156 36.777344 24.828125 36.957031 24.132812 37.179688 L 23.828125 37.277344 L 23.832031 41.40625 C 25.054688 43.535156 27.351562 44.96875 29.980469 44.96875 C 31.363281 44.96875 32.652344 44.570312 33.742188 43.886719 C 33.304688 43.972656 32.859375 44.015625 32.398438 44.015625 Z M 32.398438 44.015625 "/>
<path style=" stroke:none;fill-rule:nonzero;fill:rgb(98.431373%,94.901961%,88.627451%);fill-opacity:1;" d="M 23.832031 30.789062 C 25.582031 31.925781 27.65625 32.59375 29.894531 32.609375 C 32.191406 32.628906 34.335938 31.964844 36.132812 30.8125 L 36.132812 22.957031 L 35.191406 22.1875 C 31.894531 19.492188 29.980469 15.457031 29.976562 11.195312 L 29.976562 10.652344 L 29.976562 11.164062 C 29.980469 15.445312 28.058594 19.5 24.746094 22.207031 L 23.832031 22.957031 Z M 23.832031 30.789062 "/>
<path style=" stroke:none;fill-rule:nonzero;fill:rgb(96.862745%,87.843137%,72.941176%);fill-opacity:1;" d="M 36.132812 30.421875 C 34.957031 30.820312 33.691406 31.035156 32.378906 31.023438 C 30.140625 31.007812 28.066406 30.339844 26.316406 29.199219 L 26.316406 20.710938 L 23.832031 22.957031 L 23.832031 30.789062 C 25.582031 31.925781 27.65625 32.59375 29.894531 32.609375 C 32.191406 32.628906 34.335938 31.964844 36.132812 30.8125 Z M 36.132812 30.421875 "/>
<path style=" stroke:none;fill-rule:nonzero;fill:rgb(89.803922%,92.54902%,96.078431%);fill-opacity:1;" d="M 41.433594 40.195312 L 41.433594 59.988281 L 48.433594 59.988281 L 48.433594 54.597656 C 48.433594 48.761719 45.699219 43.5625 41.433594 40.195312 Z M 41.433594 40.195312 "/>
<path style=" stroke:none;fill-rule:nonzero;fill:rgb(79.215686%,84.705882%,92.156863%);fill-opacity:1;" d="M 44.089844 58.15625 L 44.089844 42.761719 C 43.292969 41.820312 42.402344 40.960938 41.433594 40.195312 L 41.433594 59.988281 L 48.433594 59.988281 L 48.433594 58.152344 L 44.089844 58.152344 Z M 44.089844 58.15625 "/>
<path style=" stroke:none;fill-rule:nonzero;fill:rgb(89.803922%,92.54902%,96.078431%);fill-opacity:1;" d="M 18.519531 40.195312 L 18.519531 59.988281 L 11.519531 59.988281 L 11.519531 54.597656 C 11.519531 48.761719 14.253906 43.5625 18.519531 40.195312 Z M 18.519531 40.195312 "/>
<path style=" stroke:none;fill-rule:nonzero;fill:rgb(79.215686%,84.705882%,92.156863%);fill-opacity:1;" d="M 14.164062 58.109375 L 14.164062 52.71875 C 14.164062 48.203125 15.804688 44.066406 18.519531 40.867188 L 18.519531 40.195312 C 14.253906 43.5625 11.519531 48.761719 11.519531 54.597656 L 11.519531 59.988281 L 18.523438 59.988281 L 18.523438 58.109375 Z M 14.164062 58.109375 "/>
<path style=" stroke:none;fill-rule:nonzero;fill:rgb(100%,100%,100%);fill-opacity:1;" d="M 21.210938 7.136719 L 22.96875 7.136719 L 22.96875 8.894531 L 21.210938 8.894531 Z M 21.210938 7.136719 "/>
<path style=" stroke:none;fill-rule:nonzero;fill:rgb(100%,100%,100%);fill-opacity:1;" d="M 24.710938 7.136719 L 26.46875 7.136719 L 26.46875 8.894531 L 24.710938 8.894531 Z M 24.710938 7.136719 "/>
<path style=" stroke:none;fill-rule:nonzero;fill:rgb(100%,100%,100%);fill-opacity:1;" d="M 35.253906 15.925781 L 37.011719 15.925781 L 37.011719 17.683594 L 35.253906 17.683594 Z M 35.253906 15.925781 "/>
<path style=" stroke:none;fill-rule:nonzero;fill:rgb(100%,100%,100%);fill-opacity:1;" d="M 26.480469 49.324219 L 28.238281 49.324219 L 28.238281 51.082031 L 26.480469 51.082031 Z M 26.480469 49.324219 "/>
<path style=" stroke:none;fill-rule:nonzero;fill:rgb(0%,0%,0%);fill-opacity:1;" d="M 42.316406 39.78125 L 42.316406 33.507812 L 40.558594 33.507812 L 40.558594 52.847656 L 42.316406 52.847656 L 42.316406 42.140625 C 45.667969 45.417969 47.5625 49.867188 47.5625 54.605469 L 47.5625 60 L 49.320312 60 L 49.320312 54.609375 C 49.320312 48.835938 46.773438 43.457031 42.316406 39.78125 Z M 42.316406 39.78125 "/>
<path style=" stroke:none;fill-rule:nonzero;fill:rgb(0%,0%,0%);fill-opacity:1;" d="M 10.632812 54.609375 L 10.632812 60 L 12.394531 60 L 12.394531 54.609375 C 12.394531 51.609375 13.167969 48.652344 14.632812 46.054688 L 13.101562 45.191406 C 11.488281 48.050781 10.632812 51.308594 10.632812 54.609375 Z M 10.632812 54.609375 "/>
<path style=" stroke:none;fill-rule:nonzero;fill:rgb(0%,0%,0%);fill-opacity:1;" d="M 32.9375 26.382812 L 31.996094 24.894531 L 29.980469 26.175781 L 27.964844 24.894531 L 27.023438 26.382812 L 29.980469 28.257812 Z M 32.9375 26.382812 "/>
<path style=" stroke:none;fill-rule:nonzero;fill:rgb(0%,0%,0%);fill-opacity:1;" d="M 30.855469 10.644531 L 29.097656 10.648438 C 29.214844 15.371094 26.871094 19.875 22.949219 22.503906 L 22.949219 60 L 24.707031 60 L 24.707031 43.855469 C 26.144531 45.121094 28.015625 45.851562 29.980469 45.851562 C 31.945312 45.851562 33.816406 45.121094 35.257812 43.851562 L 35.257812 60 L 37.015625 60 L 37.007812 22.5 C 33.414062 19.941406 30.753906 15.210938 30.855469 10.644531 Z M 24.707031 32.289062 C 27.96875 33.886719 31.992188 33.878906 35.257812 32.304688 L 35.257812 36.078125 C 33.546875 35.597656 31.777344 35.355469 29.976562 35.355469 C 28.183594 35.355469 26.414062 35.597656 24.707031 36.078125 Z M 29.980469 16.144531 C 30.980469 18.992188 32.800781 21.53125 35.257812 23.398438 L 35.257812 30.320312 C 32.074219 32.195312 27.882812 32.203125 24.707031 30.296875 L 24.707031 23.398438 C 27.160156 21.53125 28.980469 18.996094 29.980469 16.144531 Z M 29.980469 44.09375 C 27.839844 44.09375 25.839844 42.976562 24.707031 41.167969 L 24.707031 37.910156 C 26.40625 37.382812 28.175781 37.113281 29.976562 37.113281 C 31.78125 37.113281 33.554688 37.382812 35.257812 37.914062 L 35.257812 41.164062 C 34.125 42.976562 32.125 44.09375 29.980469 44.09375 Z M 29.980469 44.09375 "/>
<path style=" stroke:none;fill-rule:nonzero;fill:rgb(0%,0%,0%);fill-opacity:1;" d="M 17.691406 39.742188 C 16.339844 40.847656 15.148438 42.125 14.140625 43.550781 L 15.578125 44.5625 C 16.203125 43.675781 16.914062 42.847656 17.691406 42.09375 L 17.691406 60 L 19.449219 60 L 19.449219 33.507812 L 17.691406 33.507812 Z M 17.691406 39.742188 "/>
<path style=" stroke:none;fill-rule:nonzero;fill:rgb(0%,0%,0%);fill-opacity:1;" d="M 40.558594 58.125 L 42.316406 58.125 L 42.316406 60 L 40.558594 60 Z M 40.558594 58.125 "/>
<path style=" stroke:none;fill-rule:nonzero;fill:rgb(0%,0%,0%);fill-opacity:1;" d="M 40.558594 54.609375 L 42.316406 54.609375 L 42.316406 56.367188 L 40.558594 56.367188 Z M 40.558594 54.609375 "/>
<path style=" stroke:none;fill-rule:nonzero;fill:rgb(0%,0%,0%);fill-opacity:1;" d="M 46.582031 13.769531 C 46.199219 11.824219 45.488281 10.011719 44.515625 8.382812 C 44.734375 6.648438 46.214844 5.304688 48.007812 5.304688 L 48.007812 3.546875 C 45.910156 3.546875 44.097656 4.773438 43.246094 6.546875 C 40.113281 2.597656 35.28125 0 29.980469 0 C 21.917969 0 14.9375 5.859375 13.378906 13.773438 L 10.722656 27.546875 C 9.753906 26.378906 8.292969 25.632812 6.660156 25.632812 L 6.660156 27.390625 C 8.460938 27.390625 9.949219 28.75 10.15625 30.496094 L 4.5 60 L 6.257812 60 L 15.105469 14.109375 C 16.5 7.019531 22.757812 1.757812 29.980469 1.757812 C 37.207031 1.757812 43.460938 7.019531 44.855469 14.105469 L 53.703125 60 L 55.5 60 Z M 46.582031 13.769531 "/>
</g>
</svg>
