<?xml version="1.0" encoding="UTF-8"?>
<svg xmlns="http://www.w3.org/2000/svg" xmlns:xlink="http://www.w3.org/1999/xlink" width="60pt" height="60pt" viewBox="0 0 60 60" version="1.1">
<g id="surface1">
<path style=" stroke:none;fill-rule:nonzero;fill:rgb(60%,90.196078%,98.823529%);fill-opacity:1;" d="M 46.972656 44.5625 L 50.207031 44.5625 L 50.207031 52.648438 L 46.972656 52.648438 Z M 46.972656 44.5625 "/>
<path style=" stroke:none;fill-rule:nonzero;fill:rgb(78.431373%,93.72549%,99.607843%);fill-opacity:1;" d="M 51.824219 44.5625 C 51.824219 45.453125 51.101562 46.179688 50.207031 46.179688 L 46.972656 46.179688 C 46.078125 46.179688 45.355469 45.453125 45.355469 44.5625 C 45.355469 43.667969 46.078125 42.941406 46.972656 42.941406 L 50.207031 42.941406 C 51.101562 42.941406 51.824219 43.667969 51.824219 44.5625 Z M 51.824219 44.5625 "/>
<path style=" stroke:none;fill-rule:nonzero;fill:rgb(73.333333%,36.470588%,29.803922%);fill-opacity:1;" d="M 33.234375 38.269531 L 32.976562 37.355469 L 32.980469 37.339844 L 32.789062 37.285156 C 31.566406 36.9375 30.722656 35.816406 30.722656 34.546875 L 30.722656 31.617188 C 29.070312 32.546875 21.222656 32.546875 19.570312 31.617188 L 19.570312 34.546875 C 19.570312 35.816406 18.726562 36.9375 17.503906 37.285156 L 17.3125 37.339844 L 17.316406 37.355469 L 17.058594 38.269531 L 25.148438 42.941406 Z M 33.234375 38.269531 "/>
<path style=" stroke:none;fill-rule:nonzero;fill:rgb(99.607843%,83.137255%,0.784314%);fill-opacity:1;" d="M 17.507812 42.941406 L 21.910156 59.121094 L 28.382812 59.121094 L 32.785156 42.941406 Z M 17.507812 42.941406 "/>
<path style=" stroke:none;fill-rule:nonzero;fill:rgb(98.039216%,77.647059%,0%);fill-opacity:1;" d="M 21.273438 56.777344 L 21.910156 59.121094 L 28.382812 59.121094 L 29.019531 56.777344 Z M 21.273438 56.777344 "/>
<path style=" stroke:none;fill-rule:nonzero;fill:rgb(79.215686%,43.137255%,34.901961%);fill-opacity:1;" d="M 14.898438 19.882812 L 12.566406 19.882812 C 10.984375 19.882812 9.699219 21.167969 9.699219 22.75 C 9.699219 25.859375 12.222656 28.382812 15.332031 28.382812 L 15.441406 28.382812 Z M 14.898438 19.882812 "/>
<path style=" stroke:none;fill-rule:nonzero;fill:rgb(73.333333%,36.470588%,29.803922%);fill-opacity:1;" d="M 37.726562 19.882812 L 35.394531 19.882812 L 34.855469 28.382812 L 34.960938 28.382812 C 38.070312 28.382812 40.59375 25.859375 40.59375 22.75 C 40.59375 21.167969 39.308594 19.882812 37.726562 19.882812 Z M 37.726562 19.882812 "/>
<path style=" stroke:none;fill-rule:nonzero;fill:rgb(99.607843%,1.176471%,39.215686%);fill-opacity:1;" d="M 41.207031 16.515625 L 38.515625 14.953125 C 38.449219 14.917969 38.429688 14.828125 38.476562 14.769531 L 40.367188 12.300781 C 40.914062 11.59375 40.484375 10.5625 39.597656 10.445312 L 36.515625 10.039062 C 36.441406 10.027344 36.390625 9.953125 36.410156 9.882812 L 37.214844 6.875 C 37.445312 6.011719 36.65625 5.222656 35.792969 5.453125 L 32.785156 6.253906 C 32.710938 6.273438 32.636719 6.226562 32.628906 6.148438 L 32.222656 3.066406 C 32.105469 2.179688 31.074219 1.753906 30.363281 2.296875 L 27.898438 4.1875 C 27.835938 4.234375 27.75 4.21875 27.710938 4.152344 L 26.152344 1.457031 C 25.703125 0.6875 24.589844 0.6875 24.140625 1.457031 L 22.582031 4.152344 C 22.542969 4.21875 22.457031 4.234375 22.398438 4.1875 L 19.929688 2.296875 C 19.21875 1.753906 18.1875 2.179688 18.070312 3.066406 L 17.664062 6.148438 C 17.65625 6.226562 17.582031 6.273438 17.507812 6.253906 L 14.5 5.453125 C 13.636719 5.222656 12.847656 6.011719 13.078125 6.875 L 13.882812 9.882812 C 13.902344 9.953125 13.851562 10.027344 13.777344 10.039062 L 10.695312 10.445312 C 9.808594 10.5625 9.382812 11.59375 9.925781 12.300781 L 11.816406 14.769531 C 11.863281 14.828125 11.84375 14.917969 11.78125 14.953125 L 9.085938 16.515625 C 8.3125 16.960938 8.3125 18.078125 9.085938 18.523438 L 11.902344 20.15625 C 12.984375 20.828125 13.675781 21.972656 13.765625 23.242188 L 13.765625 23.261719 L 36.523438 23.261719 L 36.527344 23.242188 C 36.617188 21.976562 37.308594 20.828125 38.390625 20.15625 L 41.207031 18.523438 C 41.980469 18.078125 41.980469 16.960938 41.207031 16.515625 Z M 41.207031 16.515625 "/>
<path style=" stroke:none;fill-rule:nonzero;fill:rgb(87.45098%,96.470588%,99.215686%);fill-opacity:1;" d="M 17.3125 37.339844 L 14.359375 38.183594 C 9.742188 39.503906 6.554688 43.722656 6.554688 48.527344 L 6.554688 59.011719 C 6.554688 59.070312 6.605469 59.121094 6.667969 59.121094 L 21.910156 59.121094 L 21.910156 54.265625 Z M 17.3125 37.339844 "/>
<path style=" stroke:none;fill-rule:nonzero;fill:rgb(87.45098%,96.470588%,99.215686%);fill-opacity:1;" d="M 35.933594 38.183594 L 32.980469 37.339844 L 28.382812 54.265625 L 28.382812 59.121094 L 43.625 59.121094 C 43.6875 59.121094 43.738281 59.070312 43.738281 59.011719 L 43.738281 48.527344 C 43.738281 43.722656 40.554688 39.503906 35.933594 38.183594 Z M 35.933594 38.183594 "/>
<path style=" stroke:none;fill-rule:nonzero;fill:rgb(68.627451%,40%,85.490196%);fill-opacity:1;" d="M 26.765625 46.179688 L 23.527344 46.179688 L 22.71875 41.324219 L 27.574219 41.324219 Z M 26.765625 46.179688 "/>
<path style=" stroke:none;fill-rule:nonzero;fill:rgb(59.607843%,34.117647%,74.117647%);fill-opacity:1;" d="M 26.765625 46.179688 L 23.527344 46.179688 L 22.71875 59.121094 L 27.574219 59.121094 Z M 26.765625 46.179688 "/>
<path style=" stroke:none;fill-rule:nonzero;fill:rgb(78.431373%,93.72549%,99.607843%);fill-opacity:1;" d="M 6.554688 56.777344 L 6.554688 59.011719 C 6.554688 59.070312 6.605469 59.121094 6.667969 59.121094 L 21.910156 59.121094 L 21.910156 56.777344 Z M 6.554688 56.777344 "/>
<path style=" stroke:none;fill-rule:nonzero;fill:rgb(50.588235%,29.019608%,62.745098%);fill-opacity:1;" d="M 22.867188 56.777344 L 22.71875 59.121094 L 27.574219 59.121094 L 27.425781 56.777344 Z M 22.867188 56.777344 "/>
<path style=" stroke:none;fill-rule:nonzero;fill:rgb(78.431373%,93.72549%,99.607843%);fill-opacity:1;" d="M 35.933594 38.183594 L 35.265625 37.992188 C 37.609375 39.992188 39.046875 42.957031 39.046875 46.183594 L 39.046875 51.257812 C 39.046875 54.304688 36.578125 56.777344 33.53125 56.777344 L 28.382812 56.777344 L 28.382812 59.121094 L 43.625 59.121094 C 43.6875 59.121094 43.738281 59.070312 43.738281 59.011719 L 43.738281 48.527344 C 43.738281 43.722656 40.554688 39.503906 35.933594 38.183594 Z M 35.933594 38.183594 "/>
<path style=" stroke:none;fill-rule:nonzero;fill:rgb(99.607843%,87.45098%,18.823529%);fill-opacity:1;" d="M 17.058594 38.089844 L 25.148438 41.324219 L 21.910156 46.179688 L 17.058594 41.324219 Z M 17.058594 38.089844 "/>
<path style=" stroke:none;fill-rule:nonzero;fill:rgb(99.607843%,87.45098%,18.823529%);fill-opacity:1;" d="M 33.234375 38.089844 L 25.148438 41.324219 L 28.382812 46.179688 L 33.234375 41.324219 Z M 33.234375 38.089844 "/>
<path style=" stroke:none;fill-rule:nonzero;fill:rgb(94.901961%,98.431373%,100%);fill-opacity:1;" d="M 17.183594 36.933594 L 21.910156 54.265625 L 13.820312 47.796875 L 15.441406 44.5625 L 12.203125 42.941406 L 16.769531 36.855469 C 16.886719 36.699219 17.132812 36.746094 17.183594 36.933594 Z M 17.183594 36.933594 "/>
<path style=" stroke:none;fill-rule:nonzero;fill:rgb(94.901961%,98.431373%,100%);fill-opacity:1;" d="M 33.109375 36.933594 L 28.382812 54.265625 L 36.472656 47.796875 L 34.855469 44.5625 L 38.089844 42.941406 L 33.523438 36.855469 C 33.40625 36.699219 33.160156 36.746094 33.109375 36.933594 Z M 33.109375 36.933594 "/>
<path style=" stroke:none;fill-rule:nonzero;fill:rgb(84.313725%,53.333333%,47.058824%);fill-opacity:1;" d="M 32.742188 16.460938 L 32.742188 14.363281 C 32.742188 13.171875 31.777344 12.203125 30.585938 12.203125 L 19.707031 12.203125 C 18.515625 12.203125 17.546875 13.171875 17.546875 14.363281 L 17.546875 16.460938 C 17.546875 17.414062 17.207031 18.339844 16.585938 19.066406 L 13.707031 22.4375 L 13.765625 23.261719 C 14.195312 29.230469 19.160156 33.855469 25.144531 33.855469 C 31.128906 33.855469 36.097656 29.230469 36.523438 23.261719 L 36.582031 22.4375 L 33.707031 19.066406 C 33.085938 18.339844 32.742188 17.414062 32.742188 16.460938 Z M 32.742188 16.460938 "/>
<path style=" stroke:none;fill-rule:nonzero;fill:rgb(79.215686%,43.137255%,34.901961%);fill-opacity:1;" d="M 33.707031 19.066406 C 33.085938 18.339844 32.742188 17.414062 32.742188 16.460938 L 32.742188 14.363281 C 32.742188 13.171875 31.777344 12.203125 30.585938 12.203125 L 28.054688 12.203125 L 28.054688 14.117188 C 28.054688 15.070312 28.398438 15.996094 29.019531 16.722656 L 31.359375 19.460938 C 31.703125 19.867188 31.875 20.390625 31.835938 20.917969 C 31.410156 26.886719 26.441406 31.511719 20.457031 31.511719 C 19.558594 31.511719 18.683594 31.410156 17.839844 31.210938 C 19.824219 32.867188 22.375 33.855469 25.144531 33.855469 C 31.128906 33.855469 36.097656 29.230469 36.523438 23.261719 L 36.582031 22.4375 Z M 33.707031 19.066406 "/>
<path style=" stroke:none;fill-rule:nonzero;fill:rgb(78.431373%,93.72549%,99.607843%);fill-opacity:1;" d="M 23.796875 19.484375 C 23.796875 21.71875 21.988281 23.527344 19.753906 23.527344 C 17.519531 23.527344 15.710938 21.71875 15.710938 19.484375 C 15.710938 17.25 17.519531 15.4375 19.753906 15.4375 C 21.988281 15.4375 23.796875 17.25 23.796875 19.484375 Z M 23.796875 19.484375 "/>
<path style=" stroke:none;fill-rule:nonzero;fill:rgb(78.431373%,93.72549%,99.607843%);fill-opacity:1;" d="M 34.585938 19.484375 C 34.585938 21.71875 32.773438 23.527344 30.539062 23.527344 C 28.304688 23.527344 26.496094 21.71875 26.496094 19.484375 C 26.496094 17.25 28.304688 15.4375 30.539062 15.4375 C 32.773438 15.4375 34.585938 17.25 34.585938 19.484375 Z M 34.585938 19.484375 "/>
<path style=" stroke:none;fill-rule:nonzero;fill:rgb(60%,90.196078%,98.823529%);fill-opacity:1;" d="M 30.539062 15.4375 C 29.800781 15.4375 29.109375 15.636719 28.515625 15.980469 C 28.652344 16.246094 28.820312 16.492188 29.019531 16.722656 L 31.359375 19.460938 C 31.703125 19.867188 31.875 20.390625 31.835938 20.917969 C 31.773438 21.792969 31.613281 22.636719 31.367188 23.445312 C 33.203125 23.0625 34.585938 21.433594 34.585938 19.484375 C 34.585938 17.25 32.773438 15.4375 30.539062 15.4375 Z M 30.539062 15.4375 "/>
<path style=" stroke:none;fill-rule:nonzero;fill:rgb(0.784314%,37.254902%,50.196078%);fill-opacity:1;" d="M 47.828125 59.121094 L 43.738281 59.121094 L 43.738281 52.648438 L 46.972656 52.648438 Z M 47.828125 59.121094 "/>
<path style=" stroke:none;fill-rule:nonzero;fill:rgb(2.352941%,50.588235%,68.627451%);fill-opacity:1;" d="M 51.140625 59.121094 L 47.660156 59.121094 C 47.28125 59.121094 46.972656 58.8125 46.972656 58.433594 L 46.972656 51.71875 C 46.972656 51.339844 47.28125 51.03125 47.660156 51.03125 L 51.140625 51.03125 C 51.519531 51.03125 51.824219 51.339844 51.824219 51.71875 L 51.824219 58.433594 C 51.824219 58.8125 51.519531 59.121094 51.140625 59.121094 Z M 51.140625 59.121094 "/>
<path style=" stroke:none;fill-rule:nonzero;fill:rgb(0.392157%,44.705882%,59.215686%);fill-opacity:1;" d="M 46.972656 55.886719 L 45.355469 55.886719 C 44.460938 55.886719 43.734375 55.160156 43.734375 54.265625 L 43.734375 52.648438 C 43.734375 51.757812 44.460938 51.03125 45.355469 51.03125 L 46.378906 51.03125 C 46.707031 51.03125 46.972656 51.296875 46.972656 51.625 Z M 46.972656 55.886719 "/>
<path style=" stroke:none;fill-rule:nonzero;fill:rgb(68.627451%,40%,85.490196%);fill-opacity:1;" d="M 48.589844 38.089844 C 48.589844 38.984375 47.867188 39.707031 46.972656 39.707031 C 46.078125 39.707031 45.355469 38.984375 45.355469 38.089844 C 45.355469 37.195312 46.078125 36.472656 46.972656 36.472656 C 47.867188 36.472656 48.589844 37.195312 48.589844 38.089844 Z M 48.589844 38.089844 "/>
<path style=" stroke:none;fill-rule:nonzero;fill:rgb(68.627451%,40%,85.490196%);fill-opacity:1;" d="M 53.445312 33.234375 C 53.445312 34.128906 52.71875 34.855469 51.824219 34.855469 C 50.933594 34.855469 50.207031 34.128906 50.207031 33.234375 C 50.207031 32.34375 50.933594 31.617188 51.824219 31.617188 C 52.71875 31.617188 53.445312 32.34375 53.445312 33.234375 Z M 53.445312 33.234375 "/>
<path style=" stroke:none;fill-rule:nonzero;fill:rgb(0%,0%,0%);fill-opacity:1;" d="M 28.371094 27.148438 C 26.59375 28.929688 23.699219 28.929688 21.921875 27.148438 C 21.578125 26.808594 21.023438 26.808594 20.679688 27.148438 C 20.335938 27.492188 20.335938 28.050781 20.679688 28.394531 C 23.140625 30.855469 27.152344 30.855469 29.613281 28.394531 C 29.957031 28.050781 29.957031 27.492188 29.613281 27.148438 C 29.269531 26.808594 28.714844 26.808594 28.371094 27.148438 Z M 28.371094 27.148438 "/>
<path style=" stroke:none;fill-rule:nonzero;fill:rgb(0%,0%,0%);fill-opacity:1;" d="M 52.703125 44.5625 C 52.703125 43.183594 51.585938 42.0625 50.207031 42.0625 L 46.972656 42.0625 C 45.59375 42.0625 44.476562 43.183594 44.476562 44.5625 C 44.476562 45.628906 45.148438 46.542969 46.09375 46.898438 L 46.09375 50.152344 L 45.355469 50.152344 C 45.097656 50.152344 44.847656 50.191406 44.613281 50.265625 L 44.613281 48.527344 C 44.613281 45.976562 43.804688 43.554688 42.269531 41.519531 C 40.734375 39.484375 38.628906 38.039062 36.175781 37.339844 L 34.660156 36.90625 L 34.226562 36.328125 C 33.96875 35.984375 33.546875 35.820312 33.128906 35.902344 C 32.894531 35.945312 32.691406 36.058594 32.535156 36.21875 C 31.96875 35.867188 31.601562 35.234375 31.601562 34.546875 L 31.601562 32.902344 C 31.738281 32.820312 31.871094 32.734375 32.003906 32.644531 C 32.40625 32.375 32.511719 31.828125 32.242188 31.425781 C 31.96875 31.023438 31.421875 30.917969 31.019531 31.1875 C 29.328125 32.328125 27.304688 32.976562 25.144531 32.976562 C 19.613281 32.976562 15.023438 28.636719 14.644531 23.203125 C 14.644531 23.199219 14.644531 23.21875 14.609375 22.734375 L 15.40625 21.800781 C 15.425781 21.832031 15.445312 21.867188 15.464844 21.902344 C 15.703125 22.324219 16.238281 22.472656 16.660156 22.234375 C 17.082031 21.996094 17.234375 21.460938 16.996094 21.035156 C 16.730469 20.566406 16.589844 20.027344 16.589844 19.484375 C 16.589844 17.738281 18.007812 16.316406 19.753906 16.316406 C 21.101562 16.316406 22.253906 17.164062 22.710938 18.351562 C 22.582031 18.679688 22.660156 19.054688 22.914062 19.304688 C 23.019531 21.128906 21.558594 22.648438 19.753906 22.648438 C 19.714844 22.648438 19.6875 22.648438 19.664062 22.648438 C 19.1875 22.648438 18.796875 23.03125 18.789062 23.511719 C 18.777344 23.996094 19.164062 24.398438 19.648438 24.40625 C 19.683594 24.40625 19.71875 24.40625 19.753906 24.40625 C 22.445312 24.40625 24.640625 22.238281 24.675781 19.554688 L 25.617188 19.554688 C 25.617188 19.582031 25.617188 19.613281 25.617188 19.640625 C 25.441406 19.800781 25.332031 20.035156 25.332031 20.292969 L 25.332031 22.703125 C 25.332031 23.234375 24.898438 23.664062 24.371094 23.664062 L 24.085938 23.664062 C 23.597656 23.664062 23.207031 24.054688 23.207031 24.542969 C 23.207031 25.027344 23.597656 25.421875 24.085938 25.421875 L 24.371094 25.421875 C 25.777344 25.421875 26.9375 24.347656 27.074219 22.976562 C 27.964844 23.859375 29.191406 24.40625 30.539062 24.40625 C 32.417969 24.40625 34.054688 23.351562 34.882812 21.800781 L 35.683594 22.734375 C 35.640625 23.292969 35.648438 23.175781 35.648438 23.203125 C 35.507812 25.160156 34.828125 27.03125 33.679688 28.617188 C 33.398438 29.007812 33.484375 29.558594 33.878906 29.84375 C 34.273438 30.128906 34.820312 30.039062 35.105469 29.644531 C 35.199219 29.515625 35.292969 29.382812 35.382812 29.246094 C 38.777344 29.03125 41.472656 26.199219 41.472656 22.75 C 41.472656 21.703125 41.042969 20.738281 40.328125 20.050781 L 41.648438 19.285156 C 42.285156 18.914062 42.667969 18.253906 42.667969 17.519531 C 42.667969 16.78125 42.285156 16.125 41.648438 15.753906 L 39.695312 14.625 L 41.066406 12.835938 C 41.515625 12.253906 41.613281 11.496094 41.332031 10.816406 C 41.050781 10.132812 40.445312 9.667969 39.714844 9.574219 L 37.480469 9.277344 L 38.0625 7.101562 C 38.253906 6.386719 38.054688 5.652344 37.535156 5.132812 C 37.015625 4.609375 36.277344 4.414062 35.566406 4.601562 L 33.386719 5.183594 L 33.09375 2.953125 C 32.996094 2.222656 32.53125 1.617188 31.851562 1.335938 C 31.171875 1.050781 30.414062 1.152344 29.828125 1.601562 L 28.042969 2.96875 L 26.914062 1.015625 C 26.542969 0.378906 25.882812 0 25.148438 0 C 24.410156 0 23.75 0.378906 23.382812 1.019531 L 22.25 2.96875 L 20.464844 1.601562 C 19.878906 1.152344 19.125 1.050781 18.441406 1.335938 C 17.761719 1.617188 17.296875 2.222656 17.199219 2.953125 L 16.90625 5.183594 L 14.726562 4.601562 C 14.015625 4.414062 13.28125 4.609375 12.757812 5.132812 C 12.238281 5.652344 12.039062 6.386719 12.230469 7.101562 L 12.8125 9.277344 L 10.578125 9.574219 C 9.847656 9.667969 9.242188 10.132812 8.960938 10.816406 C 8.679688 11.496094 8.777344 12.25 9.226562 12.835938 L 10.597656 14.625 L 8.644531 15.753906 C 8.007812 16.125 7.628906 16.78125 7.628906 17.519531 C 7.628906 18.253906 8.007812 18.914062 8.644531 19.285156 L 9.964844 20.050781 C 9.25 20.738281 8.820312 21.703125 8.820312 22.75 C 8.820312 26.199219 11.515625 29.027344 14.910156 29.246094 C 15.871094 30.691406 17.15625 31.957031 18.691406 32.90625 L 18.691406 34.546875 C 18.691406 35.234375 18.324219 35.867188 17.757812 36.21875 C 17.601562 36.058594 17.398438 35.945312 17.167969 35.902344 C 16.746094 35.820312 16.324219 35.984375 16.066406 36.328125 L 15.632812 36.90625 L 14.117188 37.339844 C 11.664062 38.039062 9.558594 39.484375 8.023438 41.519531 C 6.488281 43.554688 5.675781 45.976562 5.675781 48.527344 L 5.675781 59.011719 C 5.675781 59.554688 6.121094 60 6.667969 60 C 7.429688 60 18.769531 60 51.140625 60 C 52.003906 60 52.703125 59.296875 52.703125 58.433594 L 52.703125 51.71875 C 52.703125 50.855469 52.003906 50.152344 51.140625 50.152344 L 51.085938 50.152344 L 51.085938 46.898438 C 52.03125 46.542969 52.703125 45.628906 52.703125 44.558594 Z M 19.753906 14.5625 C 19.292969 14.5625 18.851562 14.625 18.425781 14.742188 L 18.425781 14.363281 C 18.425781 13.65625 19 13.082031 19.707031 13.082031 C 19.859375 13.082031 24.140625 13.082031 28.882812 13.082031 C 29.230469 13.082031 28.003906 13.082031 30.585938 13.082031 C 31.289062 13.082031 31.863281 13.65625 31.863281 14.363281 L 31.863281 14.742188 C 31.441406 14.625 31 14.5625 30.539062 14.5625 C 28.417969 14.5625 26.605469 15.910156 25.914062 17.796875 L 24.378906 17.796875 C 23.6875 15.910156 21.875 14.5625 19.753906 14.5625 Z M 30.539062 22.648438 C 28.730469 22.648438 27.277344 21.125 27.378906 19.304688 C 27.636719 19.054688 27.710938 18.675781 27.582031 18.351562 C 28.039062 17.164062 29.191406 16.316406 30.539062 16.316406 C 32.285156 16.316406 33.707031 17.738281 33.707031 19.484375 C 33.707031 21.230469 32.285156 22.648438 30.539062 22.648438 Z M 36.453125 27.265625 C 36.984375 26.007812 37.304688 24.683594 37.402344 23.296875 C 37.472656 22.382812 37.945312 21.546875 38.691406 21.011719 C 39.316406 21.355469 39.714844 22.015625 39.714844 22.75 C 39.714844 24.851562 38.34375 26.636719 36.453125 27.265625 Z M 9.386719 17.519531 C 9.386719 17.457031 9.402344 17.347656 9.527344 17.273438 L 12.21875 15.714844 C 12.46875 15.570312 12.644531 15.324219 12.703125 15.042969 C 12.757812 14.757812 12.6875 14.464844 12.511719 14.234375 L 10.621094 11.769531 C 10.535156 11.65625 10.5625 11.542969 10.585938 11.488281 C 10.609375 11.429688 10.667969 11.335938 10.808594 11.316406 L 13.890625 10.910156 C 14.179688 10.871094 14.433594 10.714844 14.59375 10.472656 C 14.757812 10.234375 14.804688 9.933594 14.730469 9.65625 L 13.929688 6.648438 C 13.890625 6.511719 13.960938 6.417969 14.003906 6.375 C 14.042969 6.332031 14.136719 6.265625 14.273438 6.300781 L 17.28125 7.101562 C 17.5625 7.179688 17.859375 7.128906 18.097656 6.96875 C 18.339844 6.808594 18.5 6.550781 18.535156 6.265625 L 18.941406 3.183594 C 18.960938 3.042969 19.058594 2.980469 19.113281 2.957031 C 19.171875 2.933594 19.28125 2.910156 19.394531 2.996094 L 21.863281 4.886719 C 22.089844 5.0625 22.382812 5.128906 22.667969 5.074219 C 22.953125 5.019531 23.195312 4.84375 23.339844 4.59375 L 24.902344 1.898438 C 24.972656 1.777344 25.085938 1.757812 25.148438 1.757812 C 25.207031 1.757812 25.320312 1.777344 25.390625 1.898438 L 26.953125 4.59375 C 27.097656 4.84375 27.34375 5.019531 27.625 5.074219 C 27.910156 5.128906 28.203125 5.0625 28.429688 4.886719 L 30.898438 2.996094 C 31.011719 2.910156 31.121094 2.933594 31.179688 2.957031 C 31.234375 2.980469 31.332031 3.042969 31.351562 3.183594 L 31.757812 6.265625 C 31.792969 6.550781 31.953125 6.808594 32.195312 6.96875 C 32.433594 7.128906 32.730469 7.179688 33.011719 7.105469 L 36.019531 6.300781 C 36.15625 6.265625 36.25 6.332031 36.292969 6.375 C 36.335938 6.417969 36.402344 6.511719 36.363281 6.648438 L 35.5625 9.65625 C 35.488281 9.933594 35.539062 10.234375 35.699219 10.472656 C 35.859375 10.714844 36.117188 10.871094 36.402344 10.910156 L 39.484375 11.316406 C 39.625 11.335938 39.683594 11.429688 39.707031 11.488281 C 39.730469 11.542969 39.757812 11.65625 39.671875 11.769531 L 37.78125 14.234375 C 37.605469 14.464844 37.535156 14.757812 37.589844 15.042969 C 37.648438 15.324219 37.824219 15.570312 38.074219 15.714844 L 40.769531 17.273438 C 40.890625 17.347656 40.910156 17.457031 40.910156 17.519531 C 40.910156 17.582031 40.890625 17.691406 40.769531 17.765625 L 37.949219 19.394531 C 37.941406 19.402344 37.933594 19.40625 37.925781 19.410156 C 37.3125 19.789062 36.800781 20.300781 36.417969 20.890625 L 35.457031 19.761719 C 35.546875 18.132812 34.835938 16.625 33.621094 15.648438 L 33.621094 14.363281 C 33.621094 12.6875 32.257812 11.324219 30.585938 11.324219 L 30.40625 11.324219 L 31.730469 9.03125 C 31.972656 8.613281 31.828125 8.074219 31.40625 7.832031 C 30.988281 7.589844 30.449219 7.734375 30.207031 8.152344 L 28.375 11.324219 L 26.027344 11.324219 L 26.027344 7.351562 C 26.027344 6.863281 25.632812 6.472656 25.148438 6.472656 C 24.660156 6.472656 24.269531 6.863281 24.269531 7.351562 L 24.269531 11.324219 L 21.917969 11.324219 L 20.085938 8.152344 C 19.84375 7.734375 19.304688 7.589844 18.886719 7.832031 C 18.464844 8.074219 18.320312 8.613281 18.566406 9.03125 L 19.886719 11.324219 L 19.707031 11.324219 C 18.03125 11.324219 16.667969 12.6875 16.667969 14.363281 L 16.667969 15.648438 C 15.429688 16.648438 14.75 18.171875 14.839844 19.761719 L 13.875 20.890625 C 13.492188 20.300781 12.980469 19.789062 12.367188 19.410156 C 12.351562 19.398438 12.347656 19.398438 12.121094 19.269531 C 12.117188 19.265625 12.113281 19.261719 12.109375 19.257812 L 9.527344 17.765625 C 9.402344 17.691406 9.386719 17.582031 9.386719 17.519531 Z M 10.578125 22.75 C 10.578125 22.015625 10.976562 21.355469 11.601562 21.011719 C 12.34375 21.539062 12.820312 22.378906 12.886719 23.289062 L 12.890625 23.324219 C 12.988281 24.695312 13.3125 26.023438 13.839844 27.261719 C 11.945312 26.636719 10.578125 24.851562 10.578125 22.75 Z M 46.972656 43.820312 L 50.207031 43.820312 C 50.613281 43.820312 50.945312 44.152344 50.945312 44.5625 C 50.945312 44.96875 50.613281 45.300781 50.207031 45.300781 L 46.972656 45.300781 C 46.566406 45.300781 46.234375 44.96875 46.234375 44.5625 C 46.234375 44.152344 46.566406 43.820312 46.972656 43.820312 Z M 44.617188 56.652344 C 44.847656 56.726562 45.097656 56.765625 45.355469 56.765625 L 46.09375 56.765625 L 46.09375 58.242188 L 44.617188 58.242188 Z M 45.355469 51.910156 L 46.09375 51.910156 L 46.09375 55.007812 L 45.355469 55.007812 C 44.945312 55.007812 44.613281 54.675781 44.613281 54.265625 L 44.613281 52.648438 C 44.617188 52.242188 44.945312 51.910156 45.355469 51.910156 Z M 34.066406 44.953125 L 35.367188 47.554688 L 29.941406 51.894531 C 30.023438 51.585938 33.582031 38.542969 33.609375 38.4375 L 36.753906 42.628906 L 34.460938 43.773438 C 34.253906 43.878906 34.09375 44.0625 34.019531 44.28125 C 33.945312 44.503906 33.964844 44.746094 34.066406 44.953125 Z M 25.148438 42.910156 L 26.164062 44.433594 L 26.019531 45.300781 L 24.273438 45.300781 L 24.128906 44.433594 Z M 30.628906 42.6875 L 28.519531 44.796875 L 26.480469 41.738281 L 31.429688 39.757812 Z M 21.773438 44.796875 L 19.664062 42.6875 L 18.863281 39.757812 L 23.816406 41.738281 Z M 21.289062 46.800781 C 21.480469 46.992188 21.742188 47.078125 21.996094 47.054688 C 22.246094 47.027344 22.46875 46.902344 22.617188 46.703125 L 22.269531 52.242188 L 20.597656 46.105469 Z M 23.65625 58.242188 L 24.355469 47.058594 L 25.9375 47.058594 L 26.636719 58.242188 Z M 28.023438 52.242188 L 27.679688 46.703125 C 27.824219 46.902344 28.050781 47.027344 28.296875 47.054688 C 28.550781 47.078125 28.8125 46.988281 29.003906 46.800781 L 29.695312 46.105469 Z M 20.449219 34.546875 L 20.449219 33.804688 C 23.476562 35.058594 26.878906 35.035156 29.84375 33.804688 L 29.84375 34.546875 C 29.84375 35.882812 30.570312 37.101562 31.6875 37.761719 L 25.148438 40.378906 L 18.605469 37.761719 C 19.722656 37.101562 20.449219 35.882812 20.449219 34.546875 Z M 7.433594 48.527344 C 7.433594 44.402344 10.039062 40.703125 13.855469 39.273438 L 11.5 42.414062 C 11.34375 42.625 11.289062 42.890625 11.347656 43.144531 C 11.410156 43.398438 11.578125 43.613281 11.8125 43.730469 L 14.261719 44.953125 L 13.035156 47.402344 C 12.851562 47.773438 12.949219 48.222656 13.273438 48.480469 L 16.054688 50.707031 C 16.433594 51.011719 16.988281 50.949219 17.289062 50.570312 C 17.59375 50.191406 17.53125 49.640625 17.152344 49.335938 L 14.925781 47.554688 L 16.226562 44.953125 C 16.328125 44.746094 16.347656 44.503906 16.273438 44.28125 C 16.199219 44.0625 16.039062 43.878906 15.832031 43.773438 L 13.539062 42.628906 L 16.683594 38.4375 C 17.226562 40.425781 20.140625 51.113281 20.351562 51.894531 C 19.976562 51.609375 19.4375 51.675781 19.136719 52.050781 C 18.835938 52.429688 18.898438 52.980469 19.277344 53.285156 L 21.03125 54.691406 L 21.03125 58.242188 L 14.699219 58.242188 L 14.699219 52.382812 C 14.699219 51.898438 14.308594 51.503906 13.820312 51.503906 C 13.335938 51.503906 12.941406 51.898438 12.941406 52.382812 L 12.941406 58.242188 L 7.433594 58.242188 Z M 29.261719 54.691406 L 37.019531 48.484375 C 37.34375 48.222656 37.441406 47.773438 37.257812 47.402344 L 36.03125 44.953125 L 38.480469 43.730469 C 38.714844 43.613281 38.886719 43.398438 38.945312 43.144531 C 39.003906 42.890625 38.949219 42.625 38.792969 42.414062 L 36.4375 39.273438 C 40.253906 40.703125 42.855469 44.402344 42.855469 48.527344 L 42.855469 58.242188 L 37.351562 58.242188 L 37.351562 52.382812 C 37.351562 51.898438 36.957031 51.503906 36.472656 51.503906 C 35.984375 51.503906 35.59375 51.898438 35.59375 52.382812 L 35.59375 55.007812 L 31.617188 55.007812 C 31.132812 55.007812 30.738281 55.398438 30.738281 55.886719 C 30.738281 56.371094 31.132812 56.765625 31.617188 56.765625 L 35.59375 56.765625 L 35.59375 58.242188 L 29.261719 58.242188 Z M 50.945312 58.242188 L 47.851562 58.242188 L 47.851562 55.144531 L 49.445312 55.144531 C 49.929688 55.144531 50.324219 54.753906 50.324219 54.265625 C 50.324219 53.78125 49.929688 53.386719 49.445312 53.386719 L 47.851562 53.386719 L 47.851562 51.910156 L 50.945312 51.910156 Z M 47.851562 50.152344 L 47.851562 47.058594 L 49.328125 47.058594 L 49.328125 50.152344 Z M 47.851562 50.152344 "/>
<path style=" stroke:none;fill-rule:nonzero;fill:rgb(0%,0%,0%);fill-opacity:1;" d="M 46.972656 40.585938 C 48.347656 40.585938 49.46875 39.464844 49.46875 38.089844 C 49.46875 36.710938 48.347656 35.59375 46.972656 35.59375 C 45.59375 35.59375 44.476562 36.710938 44.476562 38.089844 C 44.476562 39.464844 45.59375 40.585938 46.972656 40.585938 Z M 46.972656 37.351562 C 47.378906 37.351562 47.710938 37.683594 47.710938 38.089844 C 47.710938 38.496094 47.378906 38.828125 46.972656 38.828125 C 46.566406 38.828125 46.234375 38.496094 46.234375 38.089844 C 46.234375 37.683594 46.566406 37.351562 46.972656 37.351562 Z M 46.972656 37.351562 "/>
<path style=" stroke:none;fill-rule:nonzero;fill:rgb(0%,0%,0%);fill-opacity:1;" d="M 51.824219 30.738281 C 50.449219 30.738281 49.328125 31.859375 49.328125 33.234375 C 49.328125 34.613281 50.449219 35.734375 51.824219 35.734375 C 53.203125 35.734375 54.324219 34.613281 54.324219 33.234375 C 54.324219 31.859375 53.203125 30.738281 51.824219 30.738281 Z M 51.824219 33.972656 C 51.417969 33.972656 51.085938 33.644531 51.085938 33.234375 C 51.085938 32.828125 51.417969 32.496094 51.824219 32.496094 C 52.234375 32.496094 52.566406 32.828125 52.566406 33.234375 C 52.566406 33.644531 52.234375 33.972656 51.824219 33.972656 Z M 51.824219 33.972656 "/>
<path style=" stroke:none;fill-rule:nonzero;fill:rgb(0%,0%,0%);fill-opacity:1;" d="M 47.132812 32.921875 C 47.132812 33.410156 46.738281 33.800781 46.253906 33.800781 C 45.769531 33.800781 45.375 33.410156 45.375 32.921875 C 45.375 32.4375 45.769531 32.042969 46.253906 32.042969 C 46.738281 32.042969 47.132812 32.4375 47.132812 32.921875 Z M 47.132812 32.921875 "/>
<path style=" stroke:none;fill-rule:nonzero;fill:rgb(0%,0%,0%);fill-opacity:1;" d="M 51.964844 37.351562 C 51.964844 37.835938 51.570312 38.230469 51.085938 38.230469 C 50.601562 38.230469 50.207031 37.835938 50.207031 37.351562 C 50.207031 36.863281 50.601562 36.472656 51.085938 36.472656 C 51.570312 36.472656 51.964844 36.863281 51.964844 37.351562 Z M 51.964844 37.351562 "/>
</g>
</svg>
