<?xml version="1.0" encoding="UTF-8"?>
<svg xmlns="http://www.w3.org/2000/svg" xmlns:xlink="http://www.w3.org/1999/xlink" width="60pt" height="60pt" viewBox="0 0 60 60" version="1.1">
<g id="surface1">
<path style=" stroke:none;fill-rule:nonzero;fill:rgb(0.392157%,44.705882%,59.215686%);fill-opacity:1;" d="M 40.789062 38.183594 L 37.644531 37.285156 C 36.421875 36.9375 35.578125 35.816406 35.578125 34.546875 L 35.578125 31.25 C 33.988281 32.339844 32.0625 32.976562 30 32.976562 C 27.9375 32.976562 26.011719 32.339844 24.421875 31.25 L 24.421875 34.546875 C 24.421875 35.816406 23.578125 36.9375 22.355469 37.285156 L 19.210938 38.183594 C 14.59375 39.503906 11.410156 43.722656 11.410156 48.527344 L 11.410156 59 C 11.410156 59.066406 11.464844 59.121094 11.53125 59.121094 L 48.46875 59.121094 C 48.535156 59.121094 48.589844 59.066406 48.589844 59 L 48.589844 48.527344 C 48.589844 43.722656 45.40625 39.503906 40.789062 38.183594 Z M 40.789062 38.183594 "/>
<path style=" stroke:none;fill-rule:nonzero;fill:rgb(42.352941%,67.058824%,79.215686%);fill-opacity:1;" d="M 17.058594 13.820312 L 42.941406 13.820312 L 42.941406 31.617188 L 17.058594 31.617188 Z M 17.058594 13.820312 "/>
<path style=" stroke:none;fill-rule:nonzero;fill:rgb(100%,93.333333%,90.196078%);fill-opacity:1;" d="M 30 33.855469 C 24.015625 33.855469 19.046875 29.230469 18.621094 23.261719 L 18.160156 16.828125 C 17.671875 9.957031 23.113281 4.113281 30 4.113281 C 36.886719 4.113281 42.328125 9.957031 41.839844 16.828125 L 41.378906 23.261719 C 40.953125 29.230469 35.984375 33.855469 30 33.855469 Z M 30 33.855469 "/>
<path style=" stroke:none;fill-rule:nonzero;fill:rgb(100%,87.45098%,81.176471%);fill-opacity:1;" d="M 32.828125 4.453125 C 35.699219 6.804688 37.4375 10.46875 37.152344 14.484375 L 36.691406 20.917969 C 36.265625 26.886719 31.296875 31.511719 25.3125 31.511719 C 24.410156 31.511719 23.535156 31.410156 22.695312 31.210938 C 24.679688 32.867188 27.230469 33.855469 30 33.855469 C 35.984375 33.855469 40.953125 29.230469 41.378906 23.261719 L 41.839844 16.828125 C 42.257812 10.933594 38.3125 5.792969 32.828125 4.453125 Z M 32.828125 4.453125 "/>
<path style=" stroke:none;fill-rule:nonzero;fill:rgb(0.392157%,44.705882%,59.215686%);fill-opacity:1;" d="M 7.441406 23.558594 L 12.203125 25.144531 L 12.203125 12.203125 L 7.441406 13.792969 C 7.386719 13.808594 7.351562 13.859375 7.351562 13.917969 L 7.351562 23.433594 C 7.351562 23.492188 7.386719 23.539062 7.441406 23.558594 Z M 7.441406 23.558594 "/>
<path style=" stroke:none;fill-rule:nonzero;fill:rgb(0.392157%,44.705882%,59.215686%);fill-opacity:1;" d="M 52.558594 23.558594 L 47.796875 25.144531 L 47.796875 12.203125 L 52.558594 13.792969 C 52.613281 13.808594 52.648438 13.859375 52.648438 13.917969 L 52.648438 23.433594 C 52.648438 23.492188 52.613281 23.539062 52.558594 23.558594 Z M 52.558594 23.558594 "/>
<path style=" stroke:none;fill-rule:nonzero;fill:rgb(70.588235%,82.352941%,88.627451%);fill-opacity:1;" d="M 47.679688 0.878906 L 12.320312 0.878906 C 12.257812 0.878906 12.203125 0.929688 12.203125 0.996094 L 12.203125 33.117188 C 12.203125 33.183594 12.257812 33.234375 12.320312 33.234375 L 18.558594 33.234375 C 18.621094 33.234375 18.675781 33.183594 18.675781 33.117188 L 18.675781 15.441406 L 41.324219 15.441406 L 41.324219 33.117188 C 41.324219 33.183594 41.378906 33.234375 41.441406 33.234375 L 47.679688 33.234375 C 47.742188 33.234375 47.796875 33.183594 47.796875 33.117188 L 47.796875 0.996094 C 47.796875 0.929688 47.742188 0.878906 47.679688 0.878906 Z M 47.679688 0.878906 "/>
<path style=" stroke:none;fill-rule:nonzero;fill:rgb(54.117647%,73.333333%,83.529412%);fill-opacity:1;" d="M 12.203125 30.890625 L 12.203125 33.117188 C 12.203125 33.183594 12.257812 33.234375 12.320312 33.234375 L 18.558594 33.234375 C 18.621094 33.234375 18.675781 33.183594 18.675781 33.117188 L 18.675781 30.890625 Z M 12.203125 30.890625 "/>
<path style=" stroke:none;fill-rule:nonzero;fill:rgb(54.117647%,73.333333%,83.529412%);fill-opacity:1;" d="M 47.679688 0.878906 L 43.109375 0.878906 L 43.109375 29.109375 C 43.109375 30.09375 42.308594 30.890625 41.324219 30.890625 L 41.324219 33.117188 C 41.324219 33.183594 41.378906 33.234375 41.441406 33.234375 L 47.679688 33.234375 C 47.742188 33.234375 47.796875 33.183594 47.796875 33.117188 L 47.796875 0.996094 C 47.796875 0.929688 47.742188 0.878906 47.679688 0.878906 Z M 47.679688 0.878906 "/>
<path style=" stroke:none;fill-rule:nonzero;fill:rgb(99.607843%,83.137255%,0.784314%);fill-opacity:1;" d="M 23.527344 7.351562 C 23.527344 9.136719 22.078125 10.585938 20.292969 10.585938 C 18.507812 10.585938 17.058594 9.136719 17.058594 7.351562 C 17.058594 5.5625 18.507812 4.113281 20.292969 4.113281 C 22.078125 4.113281 23.527344 5.5625 23.527344 7.351562 Z M 23.527344 7.351562 "/>
<path style=" stroke:none;fill-rule:nonzero;fill:rgb(99.607843%,83.137255%,0.784314%);fill-opacity:1;" d="M 42.941406 7.351562 C 42.941406 9.136719 41.492188 10.585938 39.707031 10.585938 C 37.921875 10.585938 36.472656 9.136719 36.472656 7.351562 C 36.472656 5.5625 37.921875 4.113281 39.707031 4.113281 C 41.492188 4.113281 42.941406 5.5625 42.941406 7.351562 Z M 42.941406 7.351562 "/>
<path style=" stroke:none;fill-rule:nonzero;fill:rgb(99.607843%,1.176471%,39.215686%);fill-opacity:1;" d="M 33.234375 12.203125 L 26.765625 12.203125 L 30 7.351562 Z M 33.234375 12.203125 "/>
<path style=" stroke:none;fill-rule:nonzero;fill:rgb(70.588235%,82.352941%,88.627451%);fill-opacity:1;" d="M 42.941406 59.121094 L 17.058594 59.121094 L 17.058594 36.59375 C 17.058594 36.527344 17.113281 36.472656 17.179688 36.472656 L 42.820312 36.472656 C 42.886719 36.472656 42.941406 36.523438 42.941406 36.59375 Z M 42.941406 59.121094 "/>
<path style=" stroke:none;fill-rule:nonzero;fill:rgb(54.117647%,73.333333%,83.529412%);fill-opacity:1;" d="M 42.820312 36.472656 L 38.253906 36.472656 L 38.253906 50.589844 C 38.253906 54.007812 35.484375 56.777344 32.066406 56.777344 L 17.058594 56.777344 L 17.058594 59.121094 L 42.941406 59.121094 L 42.941406 36.59375 C 42.941406 36.527344 42.886719 36.472656 42.820312 36.472656 Z M 42.820312 36.472656 "/>
<path style=" stroke:none;fill-rule:nonzero;fill:rgb(99.607843%,94.117647%,68.235294%);fill-opacity:1;" d="M 20.292969 49.414062 L 39.707031 49.414062 L 39.707031 55.886719 L 20.292969 55.886719 Z M 20.292969 49.414062 "/>
<path style=" stroke:none;fill-rule:nonzero;fill:rgb(99.607843%,91.372549%,49.019608%);fill-opacity:1;" d="M 39.707031 55.886719 L 39.707031 49.414062 L 38.253906 49.414062 L 38.253906 50.589844 C 38.253906 52.835938 37.058594 54.800781 35.269531 55.886719 Z M 39.707031 55.886719 "/>
<path style=" stroke:none;fill-rule:nonzero;fill:rgb(0.392157%,44.705882%,59.215686%);fill-opacity:1;" d="M 39.707031 42.941406 C 39.707031 44.730469 38.257812 46.179688 36.472656 46.179688 C 34.683594 46.179688 33.234375 44.730469 33.234375 42.941406 C 33.234375 41.15625 34.683594 39.707031 36.472656 39.707031 C 38.257812 39.707031 39.707031 41.15625 39.707031 42.941406 Z M 39.707031 42.941406 "/>
<path style=" stroke:none;fill-rule:nonzero;fill:rgb(0.784314%,37.254902%,50.196078%);fill-opacity:1;" d="M 38.253906 45.644531 C 39.128906 45.0625 39.707031 44.070312 39.707031 42.941406 C 39.707031 41.816406 39.128906 40.820312 38.253906 40.242188 Z M 38.253906 45.644531 "/>
<path style=" stroke:none;fill-rule:nonzero;fill:rgb(5.490196%,82.352941%,70.196078%);fill-opacity:1;" d="M 23.527344 44.5625 C 23.527344 45.453125 22.804688 46.179688 21.910156 46.179688 C 21.015625 46.179688 20.292969 45.453125 20.292969 44.5625 C 20.292969 43.667969 21.015625 42.941406 21.910156 42.941406 C 22.804688 42.941406 23.527344 43.667969 23.527344 44.5625 Z M 23.527344 44.5625 "/>
<path style=" stroke:none;fill-rule:nonzero;fill:rgb(99.607843%,1.176471%,39.215686%);fill-opacity:1;" d="M 30 44.5625 C 30 45.453125 29.277344 46.179688 28.382812 46.179688 C 27.488281 46.179688 26.765625 45.453125 26.765625 44.5625 C 26.765625 43.667969 27.488281 42.941406 28.382812 42.941406 C 29.277344 42.941406 30 43.667969 30 44.5625 Z M 30 44.5625 "/>
<path style=" stroke:none;fill-rule:nonzero;fill:rgb(99.607843%,57.647059%,73.333333%);fill-opacity:1;" d="M 32.0625 30.703125 L 27.9375 30.703125 C 27.042969 30.703125 26.320312 29.980469 26.320312 29.085938 C 26.320312 28.191406 27.042969 27.46875 27.9375 27.46875 L 32.0625 27.46875 C 32.957031 27.46875 33.679688 28.191406 33.679688 29.085938 C 33.679688 29.980469 32.957031 30.703125 32.0625 30.703125 Z M 32.0625 30.703125 "/>
<path style=" stroke:none;fill-rule:nonzero;fill:rgb(99.607843%,46.27451%,65.882353%);fill-opacity:1;" d="M 32.0625 30.703125 C 32.957031 30.703125 33.679688 29.980469 33.679688 29.085938 C 33.679688 28.742188 33.574219 28.421875 33.390625 28.160156 C 32.300781 29.253906 30.992188 30.121094 29.539062 30.703125 Z M 32.0625 30.703125 "/>
<path style=" stroke:none;fill-rule:nonzero;fill:rgb(0%,0%,0%);fill-opacity:1;" d="M 52.835938 12.957031 L 51.910156 12.648438 L 51.910156 4.113281 C 51.910156 3.628906 51.515625 3.234375 51.03125 3.234375 C 50.546875 3.234375 50.152344 3.628906 50.152344 4.113281 L 50.152344 12.0625 L 48.675781 11.570312 L 48.675781 0.996094 C 48.675781 0.445312 48.226562 0 47.679688 0 L 12.320312 0 C 11.773438 0 11.324219 0.445312 11.324219 0.996094 L 11.324219 4.421875 C 11.324219 4.90625 11.71875 5.300781 12.203125 5.300781 C 12.6875 5.300781 13.082031 4.90625 13.082031 4.421875 L 13.082031 1.757812 L 46.917969 1.757812 L 46.917969 32.355469 L 42.203125 32.355469 C 42.203125 30.371094 42.203125 17.273438 42.203125 15.4375 C 42.203125 14.953125 41.808594 14.558594 41.324219 14.558594 L 39.46875 14.558594 C 38.980469 14.558594 38.589844 14.953125 38.589844 15.4375 C 38.589844 15.925781 38.980469 16.316406 39.46875 16.316406 L 40.445312 16.316406 L 40.445312 23.765625 C 39.789062 29.019531 35.304688 32.976562 30 32.976562 C 24.699219 32.976562 20.214844 29.027344 19.554688 23.773438 L 19.554688 16.316406 L 35.367188 16.316406 C 35.851562 16.316406 36.246094 15.925781 36.246094 15.4375 C 36.246094 14.953125 35.851562 14.558594 35.367188 14.558594 L 18.675781 14.558594 C 18.191406 14.558594 17.796875 14.953125 17.796875 15.4375 L 17.796875 32.355469 L 13.082031 32.355469 C 13.082031 -0.367188 13.082031 12.9375 13.082031 8.523438 C 13.082031 8.035156 12.6875 7.644531 12.203125 7.644531 C 11.71875 7.644531 11.324219 8.035156 11.324219 8.523438 L 11.324219 11.570312 L 9.847656 12.0625 L 9.847656 4.113281 C 9.847656 3.628906 9.453125 3.234375 8.96875 3.234375 C 8.480469 3.234375 8.089844 3.628906 8.089844 4.113281 L 8.089844 12.648438 L 7.164062 12.957031 C 6.75 13.09375 6.472656 13.480469 6.472656 13.917969 L 6.472656 23.433594 C 6.472656 23.867188 6.75 24.253906 7.164062 24.390625 L 11.324219 25.78125 L 11.324219 33.117188 C 11.324219 33.667969 11.773438 34.113281 12.320312 34.113281 L 18.558594 34.113281 C 19.105469 34.113281 19.554688 33.667969 19.554688 33.117188 L 19.554688 32.496094 L 22.929688 32.496094 C 23.128906 32.636719 23.335938 32.773438 23.542969 32.902344 L 23.542969 34.546875 C 23.542969 34.917969 23.4375 35.28125 23.242188 35.59375 L 17.179688 35.59375 C 16.625 35.59375 16.179688 36.039062 16.179688 36.59375 L 16.179688 38.550781 C 14.027344 39.835938 12.386719 41.761719 11.441406 44.007812 L 10.980469 43.773438 C 10.542969 43.558594 10.015625 43.734375 9.800781 44.167969 C 9.582031 44.601562 9.757812 45.128906 10.191406 45.347656 L 10.878906 45.691406 C 10.644531 46.625 10.53125 47.574219 10.53125 48.535156 C 10.160156 48.558594 9.828125 48.820312 9.734375 49.199219 C 9.617188 49.671875 9.902344 50.148438 10.371094 50.265625 L 10.53125 50.304688 L 10.53125 53.390625 C 10.070312 53.417969 9.707031 53.800781 9.707031 54.265625 C 9.707031 54.734375 10.070312 55.117188 10.53125 55.144531 L 10.53125 59 C 10.53125 59.550781 10.980469 60 11.53125 60 L 48.46875 60 C 49.019531 60 49.46875 59.550781 49.46875 59 L 49.46875 55.144531 C 49.929688 55.117188 50.292969 54.734375 50.292969 54.265625 C 50.292969 53.800781 49.929688 53.417969 49.46875 53.390625 L 49.46875 50.304688 L 49.625 50.265625 C 50.097656 50.148438 50.382812 49.671875 50.265625 49.199219 C 50.171875 48.820312 49.839844 48.558594 49.46875 48.535156 C 49.46875 47.582031 49.355469 46.632812 49.121094 45.691406 L 49.804688 45.347656 C 50.242188 45.128906 50.417969 44.601562 50.199219 44.167969 C 49.980469 43.734375 49.453125 43.558594 49.019531 43.773438 L 48.558594 44.003906 C 47.613281 41.761719 45.972656 39.835938 43.820312 38.550781 L 43.820312 36.59375 C 43.820312 36.039062 43.375 35.59375 42.820312 35.59375 L 36.757812 35.59375 C 36.5625 35.28125 36.457031 34.917969 36.457031 34.546875 L 36.457031 32.902344 C 36.664062 32.773438 36.871094 32.636719 37.070312 32.496094 L 40.445312 32.496094 L 40.445312 33.117188 C 40.445312 33.667969 40.894531 34.113281 41.441406 34.113281 L 47.679688 34.113281 C 48.226562 34.113281 48.675781 33.667969 48.675781 33.117188 L 48.675781 25.78125 L 52.835938 24.390625 C 53.25 24.253906 53.527344 23.867188 53.527344 23.433594 L 53.527344 13.917969 C 53.527344 13.480469 53.25 13.09375 52.835938 12.957031 Z M 8.230469 22.894531 L 8.230469 14.457031 L 11.324219 13.421875 L 11.324219 23.925781 Z M 19.554688 28.921875 C 19.957031 29.570312 20.417969 30.179688 20.933594 30.738281 L 19.554688 30.738281 Z M 16.179688 40.667969 L 16.179688 46.375 L 13.019531 44.792969 C 13.679688 43.171875 14.765625 41.746094 16.179688 40.667969 Z M 16.179688 48.339844 L 16.179688 49.90625 L 12.289062 48.933594 L 12.289062 48.527344 C 12.289062 47.835938 12.359375 47.15625 12.496094 46.5 Z M 16.179688 51.71875 L 16.179688 53.390625 L 12.289062 53.390625 L 12.289062 50.746094 Z M 12.289062 55.144531 L 16.179688 55.144531 L 16.179688 58.242188 L 12.289062 58.242188 Z M 43.820312 58.242188 L 43.820312 55.144531 L 47.710938 55.144531 L 47.710938 58.242188 Z M 47.710938 53.386719 L 43.820312 53.386719 L 43.820312 51.71875 L 47.710938 50.746094 Z M 47.710938 48.527344 L 47.710938 48.933594 L 43.820312 49.90625 L 43.820312 48.339844 L 47.5 46.5 C 47.640625 47.15625 47.710938 47.835938 47.710938 48.527344 Z M 46.980469 44.792969 L 43.820312 46.375 L 43.820312 40.667969 C 45.234375 41.746094 46.320312 43.171875 46.980469 44.792969 Z M 42.0625 58.242188 L 17.9375 58.242188 C 17.9375 51.210938 17.9375 42.0625 17.9375 37.351562 L 42.0625 37.351562 Z M 34.847656 35.59375 L 25.152344 35.59375 C 25.25 35.253906 25.300781 34.902344 25.300781 34.546875 L 25.300781 33.804688 C 28.230469 35.019531 31.625 35.078125 34.699219 33.804688 L 34.699219 34.546875 C 34.699219 34.902344 34.75 35.253906 34.847656 35.59375 Z M 39.066406 30.738281 C 39.582031 30.179688 40.042969 29.570312 40.445312 28.921875 L 40.445312 30.738281 Z M 51.769531 22.894531 L 48.675781 23.925781 L 48.675781 13.421875 C 49.0625 13.550781 51.519531 14.371094 51.769531 14.457031 Z M 51.769531 22.894531 "/>
<path style=" stroke:none;fill-rule:nonzero;fill:rgb(0%,0%,0%);fill-opacity:1;" d="M 24.40625 7.351562 C 24.40625 5.082031 22.5625 3.234375 20.292969 3.234375 C 18.023438 3.234375 16.179688 5.082031 16.179688 7.351562 C 16.179688 9.617188 18.023438 11.464844 20.292969 11.464844 C 22.5625 11.464844 24.40625 9.617188 24.40625 7.351562 Z M 17.9375 7.351562 C 17.9375 6.050781 18.992188 4.992188 20.292969 4.992188 C 21.59375 4.992188 22.648438 6.050781 22.648438 7.351562 C 22.648438 8.648438 21.59375 9.707031 20.292969 9.707031 C 18.992188 9.707031 17.9375 8.648438 17.9375 7.351562 Z M 17.9375 7.351562 "/>
<path style=" stroke:none;fill-rule:nonzero;fill:rgb(0%,0%,0%);fill-opacity:1;" d="M 39.707031 11.464844 C 41.976562 11.464844 43.820312 9.617188 43.820312 7.351562 C 43.820312 5.082031 41.976562 3.234375 39.707031 3.234375 C 37.4375 3.234375 35.59375 5.082031 35.59375 7.351562 C 35.59375 9.617188 37.4375 11.464844 39.707031 11.464844 Z M 39.707031 4.992188 C 41.007812 4.992188 42.0625 6.050781 42.0625 7.351562 C 42.0625 8.648438 41.007812 9.707031 39.707031 9.707031 C 38.40625 9.707031 37.351562 8.648438 37.351562 7.351562 C 37.351562 6.050781 38.40625 4.992188 39.707031 4.992188 Z M 39.707031 4.992188 "/>
<path style=" stroke:none;fill-rule:nonzero;fill:rgb(0%,0%,0%);fill-opacity:1;" d="M 26.765625 13.082031 L 33.234375 13.082031 C 33.558594 13.082031 33.859375 12.90625 34.011719 12.617188 C 34.164062 12.332031 34.148438 11.984375 33.96875 11.714844 L 30.730469 6.863281 C 30.566406 6.617188 30.292969 6.472656 30 6.472656 C 29.707031 6.472656 29.429688 6.617188 29.269531 6.863281 L 26.03125 11.714844 C 25.851562 11.984375 25.835938 12.332031 25.988281 12.617188 C 26.140625 12.90625 26.441406 13.082031 26.765625 13.082031 Z M 30 8.933594 L 31.59375 11.324219 L 28.40625 11.324219 Z M 30 8.933594 "/>
<path style=" stroke:none;fill-rule:nonzero;fill:rgb(0%,0%,0%);fill-opacity:1;" d="M 39.707031 48.535156 L 28.398438 48.535156 C 27.914062 48.535156 27.519531 48.929688 27.519531 49.414062 C 27.519531 49.898438 27.914062 50.292969 28.398438 50.292969 L 38.828125 50.292969 L 38.828125 55.007812 L 21.171875 55.007812 L 21.171875 50.292969 L 24.296875 50.292969 C 24.78125 50.292969 25.175781 49.898438 25.175781 49.414062 C 25.175781 48.929688 24.78125 48.535156 24.296875 48.535156 L 20.292969 48.535156 C 19.808594 48.535156 19.414062 48.929688 19.414062 49.414062 L 19.414062 55.886719 C 19.414062 56.371094 19.808594 56.765625 20.292969 56.765625 L 39.707031 56.765625 C 40.191406 56.765625 40.585938 56.371094 40.585938 55.886719 L 40.585938 49.414062 C 40.585938 48.929688 40.191406 48.535156 39.707031 48.535156 Z M 39.707031 48.535156 "/>
<path style=" stroke:none;fill-rule:nonzero;fill:rgb(0%,0%,0%);fill-opacity:1;" d="M 32.355469 42.941406 C 32.355469 45.210938 34.203125 47.058594 36.472656 47.058594 C 38.738281 47.058594 40.585938 45.210938 40.585938 42.941406 C 40.585938 41.832031 40.144531 40.824219 39.425781 40.082031 C 39.394531 40.046875 39.363281 40.015625 39.332031 39.988281 C 38.589844 39.269531 37.582031 38.828125 36.472656 38.828125 C 34.203125 38.828125 32.355469 40.675781 32.355469 42.941406 Z M 36.472656 45.300781 C 35.171875 45.300781 34.113281 44.242188 34.113281 42.941406 C 34.113281 41.644531 35.171875 40.585938 36.472656 40.585938 C 36.800781 40.585938 37.113281 40.652344 37.394531 40.773438 L 35.851562 42.320312 C 35.507812 42.664062 35.507812 43.222656 35.851562 43.5625 C 36.191406 43.90625 36.75 43.90625 37.09375 43.5625 L 38.640625 42.019531 C 38.761719 42.300781 38.828125 42.613281 38.828125 42.941406 C 38.828125 44.242188 37.769531 45.300781 36.472656 45.300781 Z M 36.472656 45.300781 "/>
<path style=" stroke:none;fill-rule:nonzero;fill:rgb(0%,0%,0%);fill-opacity:1;" d="M 21.910156 47.058594 C 23.289062 47.058594 24.40625 45.9375 24.40625 44.5625 C 24.40625 43.183594 23.289062 42.0625 21.910156 42.0625 C 20.535156 42.0625 19.414062 43.183594 19.414062 44.5625 C 19.414062 45.9375 20.535156 47.058594 21.910156 47.058594 Z M 21.910156 43.820312 C 22.316406 43.820312 22.648438 44.152344 22.648438 44.5625 C 22.648438 44.96875 22.316406 45.300781 21.910156 45.300781 C 21.503906 45.300781 21.171875 44.96875 21.171875 44.5625 C 21.171875 44.152344 21.503906 43.820312 21.910156 43.820312 Z M 21.910156 43.820312 "/>
<path style=" stroke:none;fill-rule:nonzero;fill:rgb(0%,0%,0%);fill-opacity:1;" d="M 28.382812 47.058594 C 29.757812 47.058594 30.878906 45.9375 30.878906 44.5625 C 30.878906 43.183594 29.757812 42.0625 28.382812 42.0625 C 27.003906 42.0625 25.886719 43.183594 25.886719 44.5625 C 25.886719 45.9375 27.003906 47.058594 28.382812 47.058594 Z M 28.382812 43.820312 C 28.789062 43.820312 29.121094 44.152344 29.121094 44.5625 C 29.121094 44.96875 28.789062 45.300781 28.382812 45.300781 C 27.976562 45.300781 27.644531 44.96875 27.644531 44.5625 C 27.644531 44.152344 27.976562 43.820312 28.382812 43.820312 Z M 28.382812 43.820312 "/>
<path style=" stroke:none;fill-rule:nonzero;fill:rgb(0%,0%,0%);fill-opacity:1;" d="M 22.648438 52.648438 C 22.648438 53.136719 23.042969 53.527344 23.527344 53.527344 L 36.472656 53.527344 C 36.957031 53.527344 37.351562 53.136719 37.351562 52.648438 C 37.351562 52.164062 36.957031 51.769531 36.472656 51.769531 L 23.527344 51.769531 C 23.042969 51.769531 22.648438 52.164062 22.648438 52.648438 Z M 22.648438 52.648438 "/>
<path style=" stroke:none;fill-rule:nonzero;fill:rgb(0%,0%,0%);fill-opacity:1;" d="M 25.441406 29.085938 C 25.441406 30.460938 26.558594 31.582031 27.9375 31.582031 L 32.0625 31.582031 C 33.441406 31.582031 34.5625 30.460938 34.5625 29.085938 C 34.5625 27.710938 33.441406 26.589844 32.0625 26.589844 L 27.9375 26.589844 C 26.558594 26.589844 25.441406 27.710938 25.441406 29.085938 Z M 32.804688 29.085938 C 32.804688 29.492188 32.472656 29.824219 32.0625 29.824219 L 27.9375 29.824219 C 27.527344 29.824219 27.199219 29.492188 27.199219 29.085938 C 27.199219 28.679688 27.527344 28.347656 27.9375 28.347656 L 32.0625 28.347656 C 32.472656 28.347656 32.804688 28.679688 32.804688 29.085938 Z M 32.804688 29.085938 "/>
<path style=" stroke:none;fill-rule:nonzero;fill:rgb(0%,0%,0%);fill-opacity:1;" d="M 29.222656 25.421875 C 30.722656 25.421875 31.941406 24.203125 31.941406 22.703125 L 31.941406 20.292969 C 31.941406 19.808594 31.546875 19.414062 31.0625 19.414062 C 30.578125 19.414062 30.183594 19.808594 30.183594 20.292969 L 30.183594 22.703125 C 30.183594 23.234375 29.753906 23.664062 29.222656 23.664062 L 28.9375 23.664062 C 28.453125 23.664062 28.058594 24.054688 28.058594 24.542969 C 28.058594 25.027344 28.453125 25.421875 28.9375 25.421875 Z M 29.222656 25.421875 "/>
</g>
</svg>
