<?xml version="1.0" encoding="UTF-8"?>
<svg xmlns="http://www.w3.org/2000/svg" xmlns:xlink="http://www.w3.org/1999/xlink" width="60pt" height="60pt" viewBox="0 0 60 60" version="1.1">
<g id="surface1">
<path style=" stroke:none;fill-rule:nonzero;fill:rgb(100%,65.490196%,56.078431%);fill-opacity:1;" d="M 30 43.332031 C 33.496094 43.332031 36.589844 38.984375 38.507812 36.363281 L 38.296875 36.304688 C 36.96875 35.921875 36.050781 34.710938 36.050781 33.328125 L 36.050781 29.753906 C 34.328125 30.9375 32.238281 31.628906 30 31.628906 C 27.761719 31.628906 25.671875 30.9375 23.949219 29.753906 L 23.949219 33.328125 C 23.949219 34.710938 23.03125 35.921875 21.703125 36.304688 L 21.492188 36.363281 C 23.40625 38.984375 26.503906 43.332031 30 43.332031 Z M 30 43.332031 "/>
<path style=" stroke:none;fill-rule:nonzero;fill:rgb(100%,80.784314%,74.901961%);fill-opacity:1;" d="M 15.996094 52.371094 L 11.320312 52.371094 L 9.824219 55.074219 L 9.824219 59.878906 C 9.824219 59.945312 9.878906 60 9.945312 60 L 18.332031 60 L 19.242188 55.917969 Z M 15.996094 52.371094 "/>
<path style=" stroke:none;fill-rule:nonzero;fill:rgb(99.215686%,41.176471%,18.823529%);fill-opacity:1;" d="M 30 40.6875 C 26.511719 40.6875 23.417969 38.992188 21.503906 36.378906 L 26.488281 60 L 33.511719 60 L 38.5 36.378906 C 36.582031 38.992188 33.488281 40.6875 30 40.6875 Z M 30 40.6875 "/>
<path style=" stroke:none;fill-rule:nonzero;fill:rgb(99.215686%,32.941176%,14.901961%);fill-opacity:1;" d="M 25.980469 57.585938 L 26.488281 60 L 33.511719 60 L 34.019531 57.585938 Z M 25.980469 57.585938 "/>
<path style=" stroke:none;fill-rule:nonzero;fill:rgb(2.352941%,50.588235%,68.627451%);fill-opacity:1;" d="M 41.707031 37.277344 L 38.5 36.363281 L 33.511719 54.734375 L 33.511719 60 L 50.054688 60 C 50.121094 60 50.175781 59.945312 50.175781 59.878906 L 50.175781 48.503906 C 50.175781 43.289062 46.71875 38.710938 41.707031 37.277344 Z M 41.707031 37.277344 "/>
<path style=" stroke:none;fill-rule:nonzero;fill:rgb(2.352941%,50.588235%,68.627451%);fill-opacity:1;" d="M 26.488281 54.734375 L 21.5 36.363281 L 18.292969 37.277344 C 13.28125 38.710938 9.824219 43.289062 9.824219 48.503906 L 9.824219 55.074219 L 11.320312 53.578125 L 13.65625 55.917969 L 15.996094 53.578125 L 18.332031 55.917969 L 18.332031 60 L 26.488281 60 Z M 26.488281 54.734375 "/>
<path style=" stroke:none;fill-rule:nonzero;fill:rgb(100%,69.019608%,61.960784%);fill-opacity:1;" d="M 9.824219 57.585938 L 9.824219 59.878906 C 9.824219 59.945312 9.878906 60 9.945312 60 L 18.332031 60 L 18.871094 57.585938 Z M 9.824219 57.585938 "/>
<path style=" stroke:none;fill-rule:nonzero;fill:rgb(0.392157%,44.705882%,59.215686%);fill-opacity:1;" d="M 18.332031 57.585938 L 26.488281 57.585938 L 26.488281 60 L 18.332031 60 Z M 18.332031 57.585938 "/>
<path style=" stroke:none;fill-rule:nonzero;fill:rgb(0.392157%,44.705882%,59.215686%);fill-opacity:1;" d="M 41.707031 37.277344 L 41.140625 37.117188 C 43.746094 39.285156 45.34375 42.539062 45.34375 46.085938 L 45.34375 51.878906 C 45.34375 55.03125 42.789062 57.585938 39.640625 57.585938 L 33.511719 57.585938 L 33.511719 60 L 50.054688 60 C 50.121094 60 50.175781 59.945312 50.175781 59.878906 L 50.175781 48.503906 C 50.175781 43.289062 46.71875 38.710938 41.707031 37.277344 Z M 41.707031 37.277344 "/>
<path style=" stroke:none;fill-rule:nonzero;fill:rgb(100%,69.019608%,61.960784%);fill-opacity:1;" d="M 18.878906 17.417969 L 16.347656 17.417969 C 14.628906 17.417969 13.238281 18.8125 13.238281 20.53125 C 13.238281 23.90625 15.972656 26.640625 19.347656 26.640625 L 19.464844 26.640625 Z M 18.878906 17.417969 "/>
<path style=" stroke:none;fill-rule:nonzero;fill:rgb(100%,65.490196%,56.078431%);fill-opacity:1;" d="M 43.652344 17.417969 L 41.121094 17.417969 L 40.535156 26.640625 L 40.652344 26.640625 C 44.027344 26.640625 46.765625 23.90625 46.765625 20.53125 C 46.765625 18.8125 45.371094 17.417969 43.652344 17.417969 Z M 43.652344 17.417969 "/>
<path style=" stroke:none;fill-rule:nonzero;fill:rgb(99.607843%,57.647059%,73.333333%);fill-opacity:1;" d="M 26.054688 2.757812 C 24.984375 3.148438 24.554688 4.429688 25.1875 5.375 L 26.09375 6.738281 L 25.082031 5.21875 C 24.496094 4.339844 23.273438 4.179688 22.472656 4.871094 C 19.851562 7.152344 18.28125 10.59375 18.550781 14.359375 L 28.246094 9.085938 L 30 2.0625 C 28.609375 2.0625 27.28125 2.308594 26.054688 2.757812 Z M 26.054688 2.757812 "/>
<path style=" stroke:none;fill-rule:nonzero;fill:rgb(100%,93.333333%,90.196078%);fill-opacity:1;" d="M 30 0.304688 C 29.914062 0.304688 29.839844 0.367188 29.828125 0.449219 C 28.929688 5.359375 24.632812 9.085938 19.464844 9.085938 C 18.960938 9.085938 18.460938 9.046875 17.972656 8.976562 C 17.890625 8.964844 17.808594 9.015625 17.78125 9.097656 C 17.257812 10.660156 17.027344 12.351562 17.152344 14.101562 L 17.457031 18.382812 C 19.917969 13.75 40.082031 13.75 42.542969 18.378906 L 42.847656 14.105469 C 43.378906 6.648438 37.476562 0.304688 30 0.304688 Z M 30 0.304688 "/>
<path style=" stroke:none;fill-rule:nonzero;fill:rgb(99.607843%,83.137255%,0.784314%);fill-opacity:1;" d="M 34.617188 4.273438 L 33.511719 2.0625 L 34.792969 1.207031 C 37.207031 -0.402344 40.351562 -0.402344 42.765625 1.207031 L 43.90625 1.96875 C 43.980469 2.015625 43.988281 2.117188 43.925781 2.179688 L 42.386719 3.71875 C 42.332031 3.773438 42.332031 3.859375 42.386719 3.914062 L 45.703125 7.230469 C 45.757812 7.285156 45.757812 7.371094 45.703125 7.425781 L 44.085938 9.042969 C 44.058594 9.070312 44.046875 9.105469 44.046875 9.140625 L 44.046875 12.265625 C 44.046875 12.386719 43.898438 12.449219 43.8125 12.363281 L 40.527344 9.078125 C 39.371094 7.917969 38.03125 6.953125 36.566406 6.222656 C 35.722656 5.800781 35.039062 5.117188 34.617188 4.273438 Z M 34.617188 4.273438 "/>
<path style=" stroke:none;fill-rule:nonzero;fill:rgb(100%,80.784314%,74.901961%);fill-opacity:1;" d="M 38.332031 13.542969 C 35.953125 11.816406 33.050781 10.839844 30 10.839844 C 26.949219 10.839844 24.046875 11.816406 21.667969 13.542969 L 17.992188 23.230469 C 19.351562 28.640625 24.242188 32.582031 30 32.582031 C 35.757812 32.582031 40.648438 28.636719 42.003906 23.230469 Z M 38.332031 13.542969 "/>
<path style=" stroke:none;fill-rule:nonzero;fill:rgb(100%,69.019608%,61.960784%);fill-opacity:1;" d="M 38.332031 13.542969 C 36.886719 12.496094 35.25 11.722656 33.503906 11.277344 L 33.503906 13.355469 C 33.503906 15.019531 34.042969 16.636719 35.042969 17.96875 L 35.042969 17.972656 C 36.65625 20.121094 36.679688 23.082031 35.066406 25.230469 C 32.800781 28.238281 29.195312 30.167969 25.171875 30.167969 C 24.144531 30.167969 23.144531 30.042969 22.1875 29.804688 C 24.324219 31.546875 27.046875 32.582031 30 32.582031 C 35.757812 32.582031 40.648438 28.636719 42.003906 23.230469 Z M 38.332031 13.542969 "/>
<path style=" stroke:none;fill-rule:nonzero;fill:rgb(21.176471%,57.254902%,73.72549%);fill-opacity:1;" d="M 21.359375 35.921875 L 26.488281 54.734375 L 17.710938 47.710938 L 19.464844 44.199219 L 15.953125 42.441406 L 20.910156 35.835938 C 21.035156 35.667969 21.304688 35.71875 21.359375 35.921875 Z M 21.359375 35.921875 "/>
<path style=" stroke:none;fill-rule:nonzero;fill:rgb(21.176471%,57.254902%,73.72549%);fill-opacity:1;" d="M 38.640625 35.921875 L 33.511719 54.734375 L 42.289062 47.710938 L 40.535156 44.199219 L 44.046875 42.441406 L 39.09375 35.835938 C 38.964844 35.667969 38.699219 35.71875 38.640625 35.921875 Z M 38.640625 35.921875 "/>
<path style=" stroke:none;fill-rule:nonzero;fill:rgb(98.039216%,77.647059%,0%);fill-opacity:1;" d="M 39.871094 20.382812 L 42.003906 23.230469 C 42.179688 22.535156 42.296875 21.820312 42.347656 21.085938 L 42.542969 18.378906 C 41.507812 16.433594 40.058594 14.792969 38.332031 13.542969 L 38.332031 15.773438 C 38.332031 17.433594 38.871094 19.050781 39.871094 20.382812 Z M 39.871094 20.382812 "/>
<path style=" stroke:none;fill-rule:nonzero;fill:rgb(99.607843%,83.137255%,0.784314%);fill-opacity:1;" d="M 21.667969 15.773438 L 21.667969 13.542969 C 19.941406 14.792969 18.492188 16.433594 17.457031 18.382812 L 17.652344 21.085938 C 17.703125 21.820312 17.820312 22.539062 17.992188 23.230469 L 20.128906 20.382812 C 21.128906 19.050781 21.667969 17.433594 21.667969 15.773438 Z M 21.667969 15.773438 "/>
<path style=" stroke:none;fill-rule:nonzero;fill:rgb(100%,69.019608%,61.960784%);fill-opacity:1;" d="M 29.15625 23.351562 L 28.847656 23.351562 C 28.363281 23.351562 27.96875 22.960938 27.96875 22.472656 C 27.96875 21.988281 28.363281 21.59375 28.847656 21.59375 L 29.15625 21.59375 C 29.773438 21.59375 30.273438 21.09375 30.273438 20.480469 L 30.273438 17.863281 C 30.273438 17.378906 30.667969 16.984375 31.152344 16.984375 C 31.636719 16.984375 32.03125 17.378906 32.03125 17.863281 L 32.03125 20.480469 C 32.03125 22.0625 30.742188 23.351562 29.15625 23.351562 Z M 29.15625 23.351562 "/>
<path style=" stroke:none;fill-rule:nonzero;fill:rgb(100%,69.019608%,61.960784%);fill-opacity:1;" d="M 30 27.546875 C 28.269531 27.546875 26.640625 26.871094 25.417969 25.648438 C 25.074219 25.304688 25.074219 24.746094 25.417969 24.402344 C 25.761719 24.0625 26.316406 24.0625 26.660156 24.402344 C 28.5 26.246094 31.5 26.246094 33.339844 24.402344 C 33.683594 24.0625 34.242188 24.0625 34.582031 24.402344 C 34.925781 24.746094 34.925781 25.304688 34.582031 25.648438 C 33.359375 26.871094 31.730469 27.546875 30 27.546875 Z M 30 27.546875 "/>
<path style=" stroke:none;fill-rule:nonzero;fill:rgb(0.392157%,44.705882%,59.215686%);fill-opacity:1;" d="M 19.214844 60 L 19.214844 52.6875 C 19.214844 52.203125 18.820312 51.808594 18.335938 51.808594 C 17.847656 51.808594 17.457031 52.203125 17.457031 52.6875 L 17.457031 55.039062 L 18.332031 55.917969 L 18.332031 60 Z M 19.214844 60 "/>
<path style=" stroke:none;fill-rule:nonzero;fill:rgb(0.784314%,37.254902%,50.196078%);fill-opacity:1;" d="M 18.332031 57.585938 L 19.210938 57.585938 L 19.210938 60 L 18.332031 60 Z M 18.332031 57.585938 "/>
<path style=" stroke:none;fill-rule:nonzero;fill:rgb(0.392157%,44.705882%,59.215686%);fill-opacity:1;" d="M 42.546875 60 L 42.546875 52.6875 C 42.546875 52.203125 42.152344 51.808594 41.667969 51.808594 C 41.179688 51.808594 40.789062 52.203125 40.789062 52.6875 L 40.789062 60 Z M 42.546875 60 "/>
<path style=" stroke:none;fill-rule:nonzero;fill:rgb(0.784314%,37.254902%,50.196078%);fill-opacity:1;" d="M 40.789062 60 L 42.546875 60 L 42.546875 56.789062 C 42.007812 57.109375 41.417969 57.339844 40.789062 57.46875 Z M 40.789062 60 "/>
<path style=" stroke:none;fill-rule:nonzero;fill:rgb(98.039216%,77.647059%,0%);fill-opacity:1;" d="M 40.621094 4.378906 C 39.355469 3.113281 37.433594 2.800781 35.832031 3.601562 L 34.59375 4.222656 L 34.617188 4.273438 C 34.882812 4.800781 35.246094 5.261719 35.6875 5.640625 L 36.617188 5.175781 C 37.539062 4.714844 38.648438 4.894531 39.378906 5.621094 C 39.722656 5.964844 40.277344 5.964844 40.621094 5.621094 C 40.964844 5.277344 40.964844 4.722656 40.621094 4.378906 Z M 40.621094 4.378906 "/>
</g>
</svg>
