<?xml version="1.0" encoding="UTF-8"?>
<svg xmlns="http://www.w3.org/2000/svg" xmlns:xlink="http://www.w3.org/1999/xlink" width="60pt" height="60pt" viewBox="0 0 60 60" version="1.1">
<g id="surface1">
<path style=" stroke:none;fill-rule:nonzero;fill:rgb(25.882353%,76.470588%,98.823529%);fill-opacity:1;" d="M 53.503906 47.734375 C 56.75 43.089844 58.65625 37.441406 58.65625 31.34375 C 58.65625 15.519531 45.824219 2.691406 30 2.691406 C 14.175781 2.691406 1.34375 15.519531 1.34375 31.34375 C 1.34375 37.441406 3.25 43.089844 6.496094 47.734375 Z M 53.503906 47.734375 "/>
<path style=" stroke:none;fill-rule:nonzero;fill:rgb(54.117647%,88.235294%,100%);fill-opacity:1;" d="M 51.050781 26.082031 C 51.050781 37.710938 41.625 47.132812 30 47.132812 C 18.375 47.132812 8.949219 37.710938 8.949219 26.082031 C 8.949219 14.457031 18.375 5.03125 30 5.03125 C 41.625 5.03125 51.050781 14.457031 51.050781 26.082031 Z M 51.050781 26.082031 "/>
<path style=" stroke:none;fill-rule:nonzero;fill:rgb(100%,25.490196%,33.333333%);fill-opacity:1;" d="M 54.03125 38.484375 C 53.199219 31.367188 42.164062 23.214844 42.164062 17.335938 L 42.164062 14.757812 C 42.164062 8.09375 36.761719 2.691406 30.097656 2.691406 L 29.902344 2.691406 C 23.238281 2.691406 17.835938 8.09375 17.835938 14.757812 L 17.835938 17.335938 C 17.835938 23.214844 6.800781 31.367188 5.96875 38.484375 C 5.144531 45.5625 15.800781 50.289062 30 50.335938 C 44.199219 50.289062 54.855469 45.5625 54.03125 38.484375 Z M 54.03125 38.484375 "/>
<path style=" stroke:none;fill-rule:nonzero;fill:rgb(90.980392%,0%,32.941176%);fill-opacity:1;" d="M 39.8125 21.453125 L 22.984375 21.453125 L 22.984375 10.859375 C 21.871094 8.214844 22.527344 5.207031 26.046875 3.320312 C 21.273438 4.929688 17.835938 9.441406 17.835938 14.757812 L 17.835938 17.335938 C 17.835938 23.214844 6.800781 31.367188 5.96875 38.484375 C 5.144531 45.5625 15.800781 50.289062 30 50.335938 C 30.707031 50.332031 31.402344 50.320312 32.09375 50.292969 C 47.945312 34.609375 39.8125 21.453125 39.8125 21.453125 Z M 39.8125 21.453125 "/>
<path style=" stroke:none;fill-rule:nonzero;fill:rgb(98.823529%,67.843137%,42.745098%);fill-opacity:1;" d="M 13.390625 54.691406 L 46.609375 54.691406 C 49.285156 52.785156 51.621094 50.429688 53.503906 47.734375 C 52.425781 44.769531 51.277344 42.199219 50.296875 41.339844 C 47.558594 38.921875 35.84375 36.960938 35.542969 36.910156 L 24.457031 36.910156 C 24.15625 36.960938 12.441406 38.921875 9.703125 41.339844 C 8.722656 42.199219 7.574219 44.769531 6.496094 47.734375 C 8.378906 50.429688 10.714844 52.785156 13.390625 54.691406 Z M 13.390625 54.691406 "/>
<path style=" stroke:none;fill-rule:nonzero;fill:rgb(99.215686%,60%,35.686275%);fill-opacity:1;" d="M 28.539062 36.910156 L 24.457031 36.910156 C 24.15625 36.960938 12.441406 38.921875 9.703125 41.339844 C 8.722656 42.199219 7.574219 44.769531 6.496094 47.734375 C 8.378906 50.429688 10.714844 52.785156 13.390625 54.691406 L 30 54.691406 L 30 46.527344 C 25.464844 44.734375 25.445312 39.09375 28.539062 36.910156 Z M 28.539062 36.910156 "/>
<path style=" stroke:none;fill-rule:nonzero;fill:rgb(91.764706%,49.411765%,25.882353%);fill-opacity:1;" d="M 14.042969 54.691406 C 13.753906 53.355469 13.390625 49.796875 16.503906 46.347656 C 16.503906 46.347656 12.316406 47.871094 11.332031 53.082031 C 11.992188 53.648438 12.679688 54.1875 13.390625 54.691406 Z M 14.042969 54.691406 "/>
<path style=" stroke:none;fill-rule:nonzero;fill:rgb(99.215686%,60%,35.686275%);fill-opacity:1;" d="M 45.957031 54.691406 L 46.609375 54.691406 C 47.320312 54.1875 48.007812 53.648438 48.667969 53.082031 C 47.683594 47.871094 43.496094 46.347656 43.496094 46.347656 C 46.609375 49.796875 46.246094 53.355469 45.957031 54.691406 Z M 45.957031 54.691406 "/>
<path style=" stroke:none;fill-rule:nonzero;fill:rgb(17.647059%,17.647059%,34.901961%);fill-opacity:1;" d="M 24.457031 36.910156 C 24.457031 36.910156 19.605469 39.414062 20.984375 47.976562 L 17 47.976562 C 17 47.976562 15.675781 39.695312 25.46875 34.769531 Z M 24.457031 36.910156 "/>
<path style=" stroke:none;fill-rule:nonzero;fill:rgb(23.137255%,21.960784%,40.784314%);fill-opacity:1;" d="M 35.542969 36.910156 C 35.542969 36.910156 40.394531 39.414062 39.015625 47.976562 L 43 47.976562 C 43 47.976562 44.324219 39.695312 34.53125 34.769531 Z M 35.542969 36.910156 "/>
<path style=" stroke:none;fill-rule:nonzero;fill:rgb(98.823529%,67.843137%,42.745098%);fill-opacity:1;" d="M 35.542969 25.933594 L 24.457031 25.933594 L 24.457031 36.910156 C 24.457031 36.910156 26.683594 39.261719 29.976562 39.261719 C 33.265625 39.261719 35.542969 36.910156 35.542969 36.910156 Z M 35.542969 25.933594 "/>
<path style=" stroke:none;fill-rule:nonzero;fill:rgb(99.215686%,60%,35.686275%);fill-opacity:1;" d="M 24.457031 25.933594 L 24.457031 36.910156 C 24.457031 36.910156 25.429688 37.9375 27.039062 38.632812 C 27.644531 37.496094 28.648438 36.59375 30 36.222656 L 30 36.21875 C 35.539062 34.597656 35.542969 30.664062 35.542969 30.664062 L 35.542969 25.933594 Z M 24.457031 25.933594 "/>
<path style=" stroke:none;fill-rule:nonzero;fill:rgb(27.843137%,27.843137%,49.803922%);fill-opacity:1;" d="M 34.710938 45.523438 C 31.722656 46.859375 28.277344 46.859375 25.289062 45.523438 C 20.640625 43.445312 15.617188 44.464844 14.136719 48.972656 C 13.546875 50.769531 13.355469 52.757812 13.390625 54.691406 C 18.074219 58.035156 23.804688 60 30 60 C 36.195312 60 41.925781 58.035156 46.609375 54.691406 C 46.644531 52.757812 46.453125 50.769531 45.863281 48.972656 C 44.382812 44.464844 39.359375 43.445312 34.710938 45.523438 Z M 34.710938 45.523438 "/>
<path style=" stroke:none;fill-rule:nonzero;fill:rgb(99.215686%,60%,35.686275%);fill-opacity:1;" d="M 21.222656 18.78125 C 21.222656 18.78125 20.007812 15.824219 17.839844 16.511719 C 15.675781 17.195312 17.894531 23.605469 22.121094 24.007812 Z M 21.222656 18.78125 "/>
<path style=" stroke:none;fill-rule:nonzero;fill:rgb(100%,100%,100%);fill-opacity:1;" d="M 21.917969 23.347656 C 21.917969 24.316406 21.132812 25.101562 20.164062 25.101562 C 19.195312 25.101562 18.410156 24.316406 18.410156 23.347656 C 18.410156 22.378906 19.195312 21.59375 20.164062 21.59375 C 21.132812 21.59375 21.917969 22.378906 21.917969 23.347656 Z M 21.917969 23.347656 "/>
<path style=" stroke:none;fill-rule:nonzero;fill:rgb(97.647059%,72.941176%,56.078431%);fill-opacity:1;" d="M 22.984375 10.859375 C 22.261719 14.78125 19.769531 16.84375 19.761719 16.851562 C 19.757812 16.992188 19.753906 17.136719 19.753906 17.28125 C 19.753906 24.828125 24.34375 33.675781 30 33.675781 C 34.632812 33.675781 38.546875 27.742188 39.8125 21.453125 C 29.03125 20.375 22.984375 10.859375 22.984375 10.859375 Z M 22.984375 10.859375 "/>
<path style=" stroke:none;fill-rule:nonzero;fill:rgb(98.823529%,67.843137%,42.745098%);fill-opacity:1;" d="M 24.433594 17.28125 C 24.433594 15.875 24.59375 14.539062 24.890625 13.300781 C 23.632812 11.886719 22.984375 10.859375 22.984375 10.859375 C 22.261719 14.78125 19.769531 16.84375 19.761719 16.851562 C 19.757812 16.992188 19.753906 17.136719 19.753906 17.28125 C 19.753906 24.828125 24.34375 33.675781 30 33.675781 C 30.804688 33.675781 31.589844 33.496094 32.339844 33.164062 C 27.808594 31.183594 24.433594 23.753906 24.433594 17.28125 Z M 24.433594 17.28125 "/>
<path style=" stroke:none;fill-rule:nonzero;fill:rgb(98.823529%,67.843137%,42.745098%);fill-opacity:1;" d="M 28.363281 22.625 L 29.351562 21.054688 C 29.652344 20.574219 30.347656 20.574219 30.648438 21.054688 L 31.636719 22.625 C 31.957031 23.136719 31.589844 23.800781 30.988281 23.800781 L 29.011719 23.800781 C 28.410156 23.800781 28.042969 23.136719 28.363281 22.625 Z M 28.363281 22.625 "/>
<path style=" stroke:none;fill-rule:nonzero;fill:rgb(17.647059%,17.647059%,34.901961%);fill-opacity:1;" d="M 27.589844 28.289062 L 32.410156 28.289062 C 32.890625 27.867188 33.261719 27.316406 33.464844 26.695312 C 33.648438 26.132812 33.222656 25.554688 32.628906 25.554688 L 27.371094 25.554688 C 26.777344 25.554688 26.351562 26.132812 26.535156 26.695312 C 26.738281 27.316406 27.109375 27.867188 27.589844 28.289062 Z M 27.589844 28.289062 "/>
<path style=" stroke:none;fill-rule:nonzero;fill:rgb(100%,25.490196%,33.333333%);fill-opacity:1;" d="M 32.410156 28.289062 C 31.769531 28.855469 30.925781 29.203125 30 29.203125 C 29.074219 29.203125 28.230469 28.855469 27.589844 28.289062 C 28.230469 27.722656 29.074219 27.378906 30 27.378906 C 30.925781 27.378906 31.769531 27.722656 32.410156 28.289062 Z M 32.410156 28.289062 "/>
<path style=" stroke:none;fill-rule:nonzero;fill:rgb(17.647059%,17.647059%,34.901961%);fill-opacity:1;" d="M 23.566406 19.074219 C 23.5625 18.667969 23.726562 18.257812 24.0625 17.960938 C 24.609375 17.476562 25.449219 17.476562 25.996094 17.960938 C 26.332031 18.257812 26.496094 18.667969 26.492188 19.074219 C 26.484375 19.605469 25.832031 19.859375 25.457031 19.484375 C 25.222656 19.25 24.835938 19.25 24.601562 19.484375 C 24.226562 19.859375 23.574219 19.605469 23.566406 19.074219 Z M 23.566406 19.074219 "/>
<path style=" stroke:none;fill-rule:nonzero;fill:rgb(23.137255%,21.960784%,40.784314%);fill-opacity:1;" d="M 39.046875 7.804688 C 37.542969 2.1875 31.773438 -1.144531 26.15625 0.359375 C 20.542969 1.867188 17.210938 7.636719 18.714844 13.253906 Z M 39.046875 7.804688 "/>
<path style=" stroke:none;fill-rule:nonzero;fill:rgb(17.647059%,17.647059%,34.901961%);fill-opacity:1;" d="M 24.390625 11.730469 C 22.296875 7.839844 22.78125 1.945312 26.15625 0.359375 C 20.542969 1.867188 17.210938 7.636719 18.714844 13.253906 Z M 24.390625 11.730469 "/>
<path style=" stroke:none;fill-rule:nonzero;fill:rgb(27.843137%,27.843137%,49.803922%);fill-opacity:1;" d="M 49.402344 5.898438 C 48.898438 4.023438 39.386719 4.949219 28.15625 7.960938 C 16.925781 10.972656 8.226562 14.929688 8.730469 16.800781 C 9.230469 18.671875 18.742188 17.75 29.972656 14.738281 C 41.207031 11.726562 49.902344 7.769531 49.402344 5.898438 Z M 49.402344 5.898438 "/>
<path style=" stroke:none;fill-rule:nonzero;fill:rgb(23.137255%,21.960784%,40.784314%);fill-opacity:1;" d="M 20.75 44.496094 C 17.734375 44.484375 15.132812 45.9375 14.136719 48.972656 C 13.546875 50.769531 13.355469 52.757812 13.390625 54.691406 C 18.074219 58.035156 23.804688 60 30 60 C 21.929688 57.519531 20.75 49.582031 20.75 44.496094 Z M 20.75 44.496094 "/>
<path style=" stroke:none;fill-rule:nonzero;fill:rgb(23.137255%,21.960784%,40.784314%);fill-opacity:1;" d="M 23.472656 9.316406 C 14.605469 12.070312 8.296875 15.199219 8.726562 16.800781 C 9.144531 18.359375 15.78125 17.984375 24.457031 16.085938 C 20.101562 15.222656 19.886719 10.5 23.472656 9.316406 Z M 23.472656 9.316406 "/>
</g>
</svg>
