<?xml version="1.0" encoding="UTF-8"?>
<svg xmlns="http://www.w3.org/2000/svg" xmlns:xlink="http://www.w3.org/1999/xlink" width="60pt" height="60pt" viewBox="0 0 60 60" version="1.1">
<g id="surface1">
<path style=" stroke:none;fill-rule:nonzero;fill:rgb(15.294118%,32.54902%,41.960784%);fill-opacity:1;" d="M 60 30 C 60 37.871094 56.96875 45.039062 52.003906 50.390625 C 49.484375 53.109375 46.464844 55.363281 43.09375 57 C 39.449219 58.769531 35.394531 59.824219 31.105469 59.980469 C 30.738281 59.992188 30.371094 60 30 60 C 29.628906 60 29.261719 59.992188 28.894531 59.980469 C 24.609375 59.824219 20.550781 58.769531 16.910156 57 C 13.535156 55.363281 10.515625 53.109375 7.996094 50.390625 C 3.035156 45.039062 0 37.871094 0 30 C 0 13.433594 13.433594 0 30 0 C 46.570312 0 60 13.433594 60 30 Z M 60 30 "/>
<path style=" stroke:none;fill-rule:nonzero;fill:rgb(100%,100%,100%);fill-opacity:1;" d="M 9.839844 20.664062 L 14.171875 20.183594 L 9.839844 19.703125 L 9.359375 15.371094 L 8.878906 19.703125 L 4.542969 20.183594 L 8.878906 20.664062 L 9.359375 25 Z M 9.839844 20.664062 "/>
<path style=" stroke:none;fill-rule:nonzero;fill:rgb(80%,80%,80%);fill-opacity:1;" d="M 46.097656 24.828125 L 13.902344 24.828125 C 12.191406 24.828125 10.808594 26.214844 10.808594 27.921875 L 10.808594 42.035156 C 10.808594 43.742188 12.191406 45.128906 13.902344 45.128906 L 46.097656 45.128906 C 47.808594 45.128906 49.191406 43.742188 49.191406 42.035156 L 49.191406 27.921875 C 49.191406 26.214844 47.808594 24.828125 46.097656 24.828125 Z M 46.097656 24.828125 "/>
<path style=" stroke:none;fill-rule:nonzero;fill:rgb(100%,100%,100%);fill-opacity:1;" d="M 51.5625 39.917969 L 54.332031 39.609375 L 51.5625 39.304688 L 51.257812 36.53125 L 50.949219 39.304688 L 48.179688 39.609375 L 50.949219 39.917969 L 51.257812 42.6875 Z M 51.5625 39.917969 "/>
<path style=" stroke:none;fill-rule:nonzero;fill:rgb(96.862745%,46.666667%,34.901961%);fill-opacity:1;" d="M 52.003906 45.589844 L 52.003906 49.148438 L 47.851562 49.148438 L 47.851562 44.742188 L 51.964844 44.742188 C 51.992188 45.019531 52.003906 45.304688 52.003906 45.589844 Z M 52.003906 45.589844 "/>
<path style=" stroke:none;fill-rule:nonzero;fill:rgb(94.901961%,94.901961%,94.901961%);fill-opacity:1;" d="M 19.320312 19.144531 C 21.773438 15.929688 25.644531 13.855469 30 13.855469 C 34.359375 13.855469 38.230469 15.929688 40.683594 19.144531 C 42.40625 21.402344 43.429688 24.222656 43.429688 27.28125 C 43.429688 27.53125 43.421875 27.777344 43.40625 28.023438 C 43.214844 31.59375 41.625 34.792969 39.175781 37.085938 C 36.773438 39.335938 33.546875 40.710938 30 40.710938 C 26.453125 40.710938 23.226562 39.335938 20.828125 37.085938 C 18.378906 34.796875 16.789062 31.59375 16.59375 28.023438 C 16.578125 27.777344 16.574219 27.53125 16.574219 27.28125 C 16.574219 24.222656 17.597656 21.402344 19.320312 19.144531 Z M 40.402344 27.820312 C 40.402344 22.230469 35.746094 19.769531 30 19.769531 C 24.253906 19.769531 19.597656 22.230469 19.597656 27.820312 C 19.597656 33.410156 24.253906 37.945312 30 37.945312 C 35.746094 37.945312 40.402344 33.410156 40.402344 27.820312 Z M 40.402344 27.820312 "/>
<path style=" stroke:none;fill-rule:nonzero;fill:rgb(90.196078%,90.196078%,90.196078%);fill-opacity:1;" d="M 34.683594 39.539062 C 31.136719 39.539062 27.910156 38.164062 25.511719 35.917969 C 23.0625 33.625 21.472656 30.425781 21.277344 26.851562 C 21.265625 26.605469 21.257812 26.359375 21.257812 26.109375 C 21.257812 23.050781 22.28125 20.230469 24.003906 17.976562 C 25.339844 16.21875 27.101562 14.804688 29.132812 13.882812 C 25.132812 14.136719 21.609375 16.144531 19.320312 19.144531 C 17.597656 21.402344 16.574219 24.222656 16.574219 27.28125 C 16.574219 27.53125 16.578125 27.777344 16.59375 28.023438 C 16.789062 31.59375 18.378906 34.792969 20.828125 37.085938 C 23.226562 39.335938 26.453125 40.710938 30 40.710938 C 31.980469 40.710938 33.863281 40.28125 35.554688 39.511719 C 35.269531 39.527344 34.976562 39.539062 34.683594 39.539062 Z M 34.683594 39.539062 "/>
<path style=" stroke:none;fill-rule:nonzero;fill:rgb(80%,80%,80%);fill-opacity:1;" d="M 30 38.464844 C 23.976562 38.464844 19.078125 33.691406 19.078125 27.820312 C 19.078125 23.140625 22.21875 20.066406 27.699219 19.386719 C 28.433594 19.296875 29.207031 19.25 30 19.25 C 33.113281 19.25 35.757812 19.949219 37.652344 21.273438 C 39.792969 22.765625 40.921875 25.03125 40.921875 27.820312 C 40.921875 31.941406 38.445312 35.726562 34.613281 37.46875 C 33.164062 38.128906 31.613281 38.464844 30 38.464844 Z M 30 20.289062 C 29.25 20.289062 28.519531 20.332031 27.828125 20.417969 C 21.121094 21.253906 20.117188 25.414062 20.117188 27.820312 C 20.117188 33.117188 24.550781 37.421875 30 37.421875 C 31.460938 37.421875 32.871094 37.121094 34.183594 36.523438 C 37.644531 34.949219 39.882812 31.535156 39.882812 27.820312 C 39.882812 25.351562 38.933594 23.433594 37.058594 22.125 C 35.335938 20.925781 32.898438 20.289062 30 20.289062 Z M 30 20.289062 "/>
<path style=" stroke:none;fill-rule:nonzero;fill:rgb(27.45098%,70.980392%,82.745098%);fill-opacity:1;" d="M 40.402344 27.820312 C 40.402344 31.882812 37.945312 35.382812 34.398438 36.996094 C 33.0625 37.605469 31.570312 37.945312 30 37.945312 C 24.253906 37.945312 19.597656 33.410156 19.597656 27.820312 C 19.597656 22.976562 23.09375 20.484375 27.761719 19.902344 C 28.484375 19.8125 29.230469 19.769531 30 19.769531 C 35.746094 19.769531 40.402344 22.230469 40.402344 27.820312 Z M 40.402344 27.820312 "/>
<path style=" stroke:none;fill-rule:nonzero;fill:rgb(31.764706%,74.509804%,89.803922%);fill-opacity:1;" d="M 40.402344 27.820312 C 40.402344 31.882812 37.945312 35.382812 34.398438 36.996094 C 34.109375 37.019531 33.8125 37.03125 33.511719 37.03125 C 27.769531 37.03125 23.109375 32.5 23.109375 26.910156 C 23.109375 23.390625 24.960938 21.109375 27.761719 19.902344 C 28.484375 19.8125 29.234375 19.769531 30 19.769531 C 35.746094 19.769531 40.402344 22.230469 40.402344 27.820312 Z M 40.402344 27.820312 "/>
<path style=" stroke:none;fill-rule:nonzero;fill:rgb(80%,80%,80%);fill-opacity:1;" d="M 43.09375 37.085938 L 43.09375 37.132812 C 40.164062 41.191406 35.390625 43.832031 30 43.832031 C 24.613281 43.832031 19.839844 41.195312 16.910156 37.136719 L 16.910156 37.085938 L 20.828125 37.085938 C 23.226562 39.335938 26.453125 40.710938 30 40.710938 C 33.546875 40.710938 36.773438 39.335938 39.175781 37.085938 Z M 43.09375 37.085938 "/>
<path style=" stroke:none;fill-rule:nonzero;fill:rgb(90.196078%,90.196078%,90.196078%);fill-opacity:1;" d="M 16.910156 37.136719 L 16.910156 57 C 13.535156 55.359375 10.515625 53.109375 7.996094 50.390625 L 7.996094 45.589844 C 7.996094 42.214844 9.960938 39.296875 12.8125 37.925781 C 13.925781 37.386719 15.175781 37.085938 16.496094 37.085938 L 16.871094 37.085938 C 16.882812 37.105469 16.894531 37.121094 16.910156 37.136719 Z M 16.910156 37.136719 "/>
<path style=" stroke:none;fill-rule:nonzero;fill:rgb(90.196078%,90.196078%,90.196078%);fill-opacity:1;" d="M 52.003906 49.148438 L 52.003906 50.390625 C 49.484375 53.109375 46.464844 55.359375 43.09375 57 L 43.09375 37.132812 C 43.105469 37.117188 43.117188 37.101562 43.125 37.085938 L 43.503906 37.085938 C 44.824219 37.085938 46.074219 37.386719 47.1875 37.925781 C 49.796875 39.183594 51.664062 41.730469 51.964844 44.742188 L 47.851562 44.742188 L 47.851562 49.148438 Z M 52.003906 49.148438 "/>
<path style=" stroke:none;fill-rule:nonzero;fill:rgb(94.901961%,94.901961%,94.901961%);fill-opacity:1;" d="M 30 43.832031 L 30 60 C 25.304688 60 20.863281 58.921875 16.910156 57 L 16.910156 37.136719 C 19.839844 41.195312 24.613281 43.832031 30 43.832031 Z M 30 43.832031 "/>
<path style=" stroke:none;fill-rule:nonzero;fill:rgb(94.901961%,94.901961%,94.901961%);fill-opacity:1;" d="M 30 43.832031 L 30 60 C 34.695312 60 39.136719 58.921875 43.09375 57 L 43.09375 37.132812 C 40.160156 41.191406 35.390625 43.832031 30 43.832031 Z M 30 43.832031 "/>
<path style=" stroke:none;fill-rule:nonzero;fill:rgb(45.098039%,83.529412%,93.72549%);fill-opacity:1;" d="M 38.761719 27.164062 C 38.761719 25.367188 37.886719 23.914062 36.808594 23.914062 C 35.730469 23.914062 34.859375 25.367188 34.859375 27.164062 C 34.859375 28.960938 35.730469 30.417969 36.808594 30.417969 C 37.886719 30.417969 38.761719 28.960938 38.761719 27.164062 Z M 38.761719 27.164062 "/>
<path style=" stroke:none;fill-rule:nonzero;fill:rgb(100%,100%,100%);fill-opacity:1;" d="M 53.777344 24.636719 L 58.113281 24.15625 L 53.777344 23.675781 L 53.296875 19.339844 L 52.816406 23.675781 L 48.484375 24.15625 L 52.816406 24.636719 L 53.296875 28.972656 Z M 53.777344 24.636719 "/>
<path style=" stroke:none;fill-rule:nonzero;fill:rgb(100%,100%,100%);fill-opacity:1;" d="M 52.605469 34.53125 L 51.75 33.671875 L 52.605469 32.8125 L 53.464844 33.671875 Z M 52.605469 34.53125 "/>
<path style=" stroke:none;fill-rule:nonzero;fill:rgb(100%,100%,100%);fill-opacity:1;" d="M 5.757812 39.03125 L 4.898438 38.171875 L 5.757812 37.3125 L 6.617188 38.171875 Z M 5.757812 39.03125 "/>
<path style=" stroke:none;fill-rule:nonzero;fill:rgb(100%,100%,100%);fill-opacity:1;" d="M 6.320312 30.242188 L 5.460938 29.382812 L 6.320312 28.523438 L 7.179688 29.382812 Z M 6.320312 30.242188 "/>
<path style=" stroke:none;fill-rule:nonzero;fill:rgb(100%,100%,100%);fill-opacity:1;" d="M 37.679688 5.816406 L 36.820312 4.957031 L 37.679688 4.101562 L 38.535156 4.957031 Z M 37.679688 5.816406 "/>
<path style=" stroke:none;fill-rule:nonzero;fill:rgb(100%,100%,100%);fill-opacity:1;" d="M 24.191406 7.910156 L 23.332031 7.050781 L 24.191406 6.191406 L 25.050781 7.050781 Z M 24.191406 7.910156 "/>
<path style=" stroke:none;fill-rule:nonzero;fill:rgb(80%,80%,80%);fill-opacity:1;" d="M 31.105469 42.785156 L 31.105469 59.980469 C 30.738281 59.992188 30.371094 60 30 60 C 29.628906 60 29.261719 59.992188 28.894531 59.980469 L 28.894531 42.785156 Z M 31.105469 42.785156 "/>
<path style=" stroke:none;fill-rule:nonzero;fill:rgb(80%,80%,80%);fill-opacity:1;" d="M 36.253906 47.339844 L 23.746094 47.339844 C 22.746094 47.339844 21.933594 48.152344 21.933594 49.152344 L 21.933594 54.503906 C 21.933594 55.503906 22.746094 56.316406 23.746094 56.316406 L 36.253906 56.316406 C 37.253906 56.316406 38.066406 55.503906 38.066406 54.503906 L 38.066406 49.152344 C 38.066406 48.152344 37.253906 47.339844 36.253906 47.339844 Z M 36.253906 47.339844 "/>
<path style=" stroke:none;fill-rule:nonzero;fill:rgb(70.196078%,70.196078%,70.196078%);fill-opacity:1;" d="M 23.746094 54.625 C 23.679688 54.625 23.625 54.570312 23.625 54.503906 L 23.625 49.152344 C 23.625 49.085938 23.679688 49.03125 23.746094 49.03125 L 36.253906 49.03125 C 36.320312 49.03125 36.375 49.085938 36.375 49.152344 L 36.375 54.503906 C 36.375 54.570312 36.320312 54.625 36.253906 54.625 Z M 23.746094 54.625 "/>
<path style=" stroke:none;fill-rule:nonzero;fill:rgb(96.862745%,46.666667%,34.901961%);fill-opacity:1;" d="M 27.378906 51.9375 C 27.378906 52.726562 26.738281 53.367188 25.945312 53.367188 C 25.15625 53.367188 24.515625 52.726562 24.515625 51.9375 C 24.515625 51.144531 25.15625 50.503906 25.945312 50.503906 C 26.738281 50.503906 27.378906 51.144531 27.378906 51.9375 Z M 27.378906 51.9375 "/>
<path style=" stroke:none;fill-rule:nonzero;fill:rgb(96.862745%,46.666667%,34.901961%);fill-opacity:1;" d="M 35.488281 51.9375 C 35.488281 52.726562 34.847656 53.367188 34.054688 53.367188 C 33.265625 53.367188 32.625 52.726562 32.625 51.9375 C 32.625 51.144531 33.265625 50.503906 34.054688 50.503906 C 34.847656 50.503906 35.488281 51.144531 35.488281 51.9375 Z M 35.488281 51.9375 "/>
<path style=" stroke:none;fill-rule:nonzero;fill:rgb(96.862745%,46.666667%,34.901961%);fill-opacity:1;" d="M 31.433594 51.9375 C 31.433594 52.726562 30.792969 53.367188 30 53.367188 C 29.210938 53.367188 28.570312 52.726562 28.570312 51.9375 C 28.570312 51.144531 29.210938 50.503906 30 50.503906 C 30.792969 50.503906 31.433594 51.144531 31.433594 51.9375 Z M 31.433594 51.9375 "/>
<path style=" stroke:none;fill-rule:nonzero;fill:rgb(96.862745%,46.666667%,34.901961%);fill-opacity:1;" d="M 7.996094 45.589844 L 7.996094 49.148438 L 12.148438 49.148438 L 12.148438 44.742188 L 8.039062 44.742188 C 8.011719 45.019531 7.996094 45.304688 7.996094 45.589844 Z M 7.996094 45.589844 "/>
</g>
</svg>
