<?xml version="1.0" encoding="UTF-8"?>
<svg xmlns="http://www.w3.org/2000/svg" xmlns:xlink="http://www.w3.org/1999/xlink" width="60pt" height="60pt" viewBox="0 0 60 60" version="1.1">
<g id="surface1">
<path style=" stroke:none;fill-rule:nonzero;fill:rgb(56.470588%,87.45098%,66.666667%);fill-opacity:1;" d="M 59.992188 29.992188 C 59.992188 46.558594 46.566406 59.988281 30 59.988281 C 13.433594 59.988281 0.0078125 46.558594 0.0078125 29.992188 C 0.0078125 13.429688 13.433594 0 30 0 C 46.566406 0 59.992188 13.429688 59.992188 29.992188 Z M 59.992188 29.992188 "/>
<path style=" stroke:none;fill-rule:nonzero;fill:rgb(90.196078%,91.372549%,93.333333%);fill-opacity:1;" d="M 36.558594 36.65625 C 36.9375 37.464844 37.1875 38.320312 37.425781 39.175781 C 37.710938 40.1875 38.007812 41.195312 38.292969 42.207031 C 38.777344 43.929688 39.265625 45.804688 38.589844 47.457031 C 38.195312 48.40625 37.472656 49.167969 36.710938 49.867188 C 35.878906 50.628906 35 51.339844 34.074219 51.992188 C 33.265625 52.5625 32.410156 53.085938 31.460938 53.371094 C 30.441406 53.667969 29.359375 53.667969 28.289062 53.644531 C 27.601562 53.632812 26.886719 53.609375 26.269531 53.300781 C 25.757812 53.050781 25.355469 52.613281 25.035156 52.136719 C 23.859375 50.378906 23.824219 48.121094 23.824219 46.007812 C 23.835938 42.765625 23.847656 39.519531 23.847656 36.265625 C 23.847656 35.671875 23.847656 35.066406 24 34.484375 C 24.476562 32.714844 26.292969 31.609375 28.097656 31.289062 C 28.8125 31.15625 29.558594 31.121094 30.273438 31.277344 C 30.9375 31.417969 31.554688 31.742188 32.148438 32.085938 C 33.992188 33.191406 35.640625 34.722656 36.558594 36.65625 Z M 36.558594 36.65625 "/>
<path style=" stroke:none;fill-rule:nonzero;fill:rgb(97.647059%,70.980392%,29.803922%);fill-opacity:1;" d="M 30 21.132812 C 27.527344 21.132812 25.535156 25.96875 25.535156 29.101562 C 25.535156 30.933594 26.222656 32.570312 27.292969 33.605469 C 27.421875 33.59375 27.625 33.570312 27.671875 33.570312 C 27.875 33.570312 28.097656 33.59375 28.289062 33.652344 C 28.480469 33.710938 28.679688 33.785156 28.859375 33.878906 C 28.894531 33.902344 29.015625 33.972656 29.097656 34.03125 C 29.132812 34.042969 29.167969 34.070312 29.214844 34.09375 C 29.347656 34.152344 29.453125 34.222656 29.574219 34.304688 C 29.667969 34.378906 29.75 34.4375 29.84375 34.496094 C 29.90625 34.53125 29.953125 34.566406 30 34.601562 L 30.011719 34.601562 C 30.128906 34.496094 30.308594 34.402344 30.441406 34.316406 C 30.523438 34.269531 30.59375 34.222656 30.6875 34.1875 C 30.808594 34.140625 30.878906 34.09375 30.9375 34.070312 C 30.984375 33.972656 31.519531 33.796875 31.554688 33.785156 C 31.875 33.675781 32.171875 33.699219 32.507812 33.746094 C 32.519531 33.746094 32.53125 33.746094 32.542969 33.757812 C 33.71875 32.738281 34.488281 31.027344 34.488281 29.089844 C 34.464844 25.980469 32.472656 21.132812 30 21.132812 Z M 30 21.132812 "/>
<path style=" stroke:none;fill-rule:nonzero;fill:rgb(19.607843%,29.019608%,36.862745%);fill-opacity:1;" d="M 16.910156 55.960938 C 16.96875 56.304688 17.003906 56.660156 17.039062 57.054688 C 14.558594 55.867188 12.265625 54.34375 10.222656 52.539062 C 11.363281 39.320312 13.644531 35.601562 13.644531 35.601562 C 13.644531 35.601562 13.644531 35.601562 13.65625 35.625 L 18.132812 42.871094 L 16.316406 54.011719 C 16.316406 54.011719 16.316406 54.011719 16.316406 54.023438 C 16.589844 54.511719 16.777344 55.175781 16.910156 55.960938 Z M 16.910156 55.960938 "/>
<path style=" stroke:none;fill-rule:nonzero;fill:rgb(16.862745%,23.137255%,30.588235%);fill-opacity:1;" d="M 31.175781 59.964844 C 30.785156 59.976562 30.390625 59.988281 30 59.988281 C 29.609375 59.988281 29.214844 59.976562 28.824219 59.964844 C 24.667969 59.808594 20.734375 58.800781 17.183594 57.113281 C 17.097656 56.6875 17.003906 56.304688 16.910156 55.960938 C 16.613281 54.832031 16.351562 54.109375 16.316406 54.011719 L 16.316406 54 C 17.183594 44.570312 13.84375 36.074219 13.667969 35.613281 C 13.667969 35.601562 13.65625 35.589844 13.65625 35.589844 C 14.59375 34.496094 18.988281 33.425781 21.78125 32.832031 C 23.15625 32.546875 24.15625 32.371094 24.15625 32.371094 L 24.085938 33.890625 L 24.132812 34.140625 L 25.070312 40.101562 C 25.070312 40.101562 27.433594 45.734375 29.25 50.414062 C 29.25 50.425781 29.261719 50.4375 29.261719 50.4375 C 29.523438 51.136719 29.785156 51.816406 30.023438 52.457031 C 30.046875 52.515625 30.058594 52.574219 30.082031 52.636719 C 30.167969 52.882812 30.261719 53.132812 30.34375 53.371094 C 30.367188 53.441406 30.390625 53.503906 30.414062 53.574219 C 30.464844 53.714844 30.523438 53.859375 30.558594 54 C 30.773438 54.605469 30.914062 55.4375 31.023438 56.425781 C 31.09375 57.066406 31.128906 57.789062 31.164062 58.550781 C 31.164062 59.015625 31.175781 59.476562 31.175781 59.964844 Z M 31.175781 59.964844 "/>
<path style=" stroke:none;fill-rule:nonzero;fill:rgb(19.607843%,29.019608%,36.862745%);fill-opacity:1;" d="M 25.140625 29.886719 C 25.140625 29.886719 28.277344 50.09375 30.546875 54.011719 C 30.546875 54.011719 23.976562 50.1875 21.398438 37.808594 L 23.335938 37.144531 L 20.519531 34.804688 C 20.519531 34.804688 21.992188 31.632812 25.140625 29.886719 Z M 25.140625 29.886719 "/>
<path style=" stroke:none;fill-rule:nonzero;fill:rgb(100%,100%,100%);fill-opacity:1;" d="M 30 34.601562 C 30 34.601562 26.769531 32.394531 25.296875 36.527344 C 25.296875 36.527344 24.570312 29.507812 25.617188 28.210938 C 25.617188 28.222656 26.660156 31.800781 30 34.601562 Z M 30 34.601562 "/>
<path style=" stroke:none;fill-rule:nonzero;fill:rgb(16.862745%,23.137255%,30.588235%);fill-opacity:1;" d="M 43.695312 54.011719 L 41.878906 42.859375 L 46.355469 35.613281 C 46.355469 35.601562 46.367188 35.589844 46.367188 35.589844 C 46.367188 35.589844 48.648438 39.308594 49.789062 52.527344 C 47.746094 54.320312 45.453125 55.84375 42.972656 57.042969 C 43.007812 56.660156 43.042969 56.292969 43.101562 55.949219 C 43.222656 55.175781 43.410156 54.511719 43.695312 54.011719 Z M 43.695312 54.011719 "/>
<path style=" stroke:none;fill-rule:nonzero;fill:rgb(19.607843%,29.019608%,36.862745%);fill-opacity:1;" d="M 46.34375 35.625 C 46.167969 36.089844 42.828125 44.582031 43.695312 54.011719 C 43.695312 54.011719 43.695312 54.011719 43.695312 54.023438 C 43.660156 54.121094 43.386719 54.832031 43.101562 55.972656 C 43.019531 56.316406 42.925781 56.710938 42.828125 57.125 C 39.277344 58.8125 35.34375 59.808594 31.1875 59.976562 C 30.796875 59.988281 30.402344 60 30.011719 60 C 29.621094 60 29.226562 59.988281 28.835938 59.976562 C 28.859375 57.445312 29.039062 55.261719 29.464844 54.023438 C 29.5 53.90625 29.546875 53.789062 29.597656 53.667969 C 29.621094 53.585938 29.65625 53.492188 29.691406 53.40625 C 29.773438 53.167969 29.859375 52.933594 29.953125 52.671875 C 29.976562 52.613281 30 52.550781 30.023438 52.492188 C 30.261719 51.851562 30.523438 51.164062 30.785156 50.460938 C 30.785156 50.460938 30.785156 50.460938 30.785156 50.449219 C 32.589844 45.757812 34.964844 40.136719 34.964844 40.136719 L 35.738281 35.269531 L 35.953125 33.925781 L 35.878906 32.40625 C 35.878906 32.40625 36.878906 32.582031 38.269531 32.867188 C 41.070312 33.460938 45.441406 34.53125 46.394531 35.625 C 46.355469 35.601562 46.355469 35.613281 46.34375 35.625 Z M 46.34375 35.625 "/>
<path style=" stroke:none;fill-rule:nonzero;fill:rgb(16.862745%,23.137255%,30.588235%);fill-opacity:1;" d="M 34.859375 29.886719 C 34.859375 29.886719 31.722656 50.09375 29.453125 54.011719 C 29.453125 54.011719 36.023438 50.1875 38.601562 37.808594 L 36.664062 37.144531 L 39.480469 34.804688 C 39.480469 34.804688 38.007812 31.632812 34.859375 29.886719 Z M 34.859375 29.886719 "/>
<path style=" stroke:none;fill-rule:nonzero;fill:rgb(100%,100%,100%);fill-opacity:1;" d="M 30 34.601562 C 30 34.601562 33.230469 32.394531 34.703125 36.527344 C 34.703125 36.527344 35.429688 29.507812 34.382812 28.210938 C 34.382812 28.222656 33.339844 31.800781 30 34.601562 Z M 30 34.601562 "/>
<path style=" stroke:none;fill-rule:nonzero;fill:rgb(16.862745%,23.137255%,30.588235%);fill-opacity:1;" d="M 32.707031 57.46875 C 32.707031 58.113281 32.1875 58.632812 31.542969 58.632812 C 30.902344 58.632812 30.378906 58.113281 30.378906 57.46875 C 30.378906 56.828125 30.902344 56.304688 31.542969 56.304688 C 32.1875 56.304688 32.707031 56.828125 32.707031 57.46875 Z M 32.707031 57.46875 "/>
<path style=" stroke:none;fill-rule:nonzero;fill:rgb(97.647059%,70.980392%,29.803922%);fill-opacity:1;" d="M 38.851562 19.445312 C 38.242188 20.941406 36.757812 22.523438 35.832031 22.25 C 34.90625 21.976562 34.894531 19.96875 35.511719 18.472656 C 36.117188 16.976562 37.128906 16.570312 38.042969 16.832031 C 38.96875 17.105469 39.46875 17.949219 38.851562 19.445312 Z M 38.851562 19.445312 "/>
<path style=" stroke:none;fill-rule:nonzero;fill:rgb(97.647059%,70.980392%,29.803922%);fill-opacity:1;" d="M 21.148438 19.445312 C 21.757812 20.941406 23.242188 22.523438 24.167969 22.25 C 25.09375 21.976562 25.105469 19.96875 24.488281 18.472656 C 23.882812 16.976562 22.871094 16.570312 21.957031 16.832031 C 21.03125 17.105469 20.53125 17.949219 21.148438 19.445312 Z M 21.148438 19.445312 "/>
<path style=" stroke:none;fill-rule:nonzero;fill:rgb(100%,81.568627%,35.686275%);fill-opacity:1;" d="M 37.199219 19.515625 C 37.199219 14.367188 33.976562 10.191406 30 10.191406 C 26.023438 10.191406 22.800781 14.367188 22.800781 19.515625 C 22.800781 24.667969 26.023438 28.84375 30 28.84375 C 33.976562 28.84375 37.199219 24.667969 37.199219 19.515625 Z M 37.199219 19.515625 "/>
<path style=" stroke:none;fill-rule:nonzero;fill:rgb(100%,81.568627%,35.686275%);fill-opacity:1;" d="M 33.707031 16.679688 L 32.316406 11.070312 C 32.316406 11.070312 34.144531 8.886719 34.644531 8.957031 C 35.132812 9.027344 37.910156 11.972656 37.910156 11.972656 L 37.910156 17.878906 L 37.152344 19.410156 L 34.15625 18.101562 Z M 33.707031 16.679688 "/>
<path style=" stroke:none;fill-rule:nonzero;fill:rgb(100%,81.568627%,35.686275%);fill-opacity:1;" d="M 28.300781 11.6875 L 23.789062 10.832031 L 22.265625 12.34375 L 22.003906 15.65625 L 22.871094 19.304688 L 28.65625 17.734375 Z M 28.300781 11.6875 "/>
<path style=" stroke:none;fill-rule:nonzero;fill:rgb(19.607843%,29.019608%,36.862745%);fill-opacity:1;" d="M 28.835938 6.273438 C 28.835938 6.273438 31.140625 2.421875 35.453125 6.273438 C 35.453125 6.273438 34.265625 6.09375 33.695312 6.273438 C 33.695312 6.273438 40.882812 6.757812 39.015625 15.027344 C 39.015625 15.027344 39.085938 17.296875 37.152344 19.421875 C 37.152344 19.421875 39.382812 9.929688 33.515625 12.234375 C 33.515625 12.234375 29.703125 14.386719 26.972656 12.140625 C 26.972656 12.140625 21.71875 10.621094 22.871094 19.292969 C 22.871094 19.292969 16.765625 8.316406 23.515625 6.925781 C 23.515625 6.925781 25.273438 3.113281 31.710938 4.109375 C 31.710938 4.109375 29.453125 4.109375 28.835938 6.273438 Z M 28.835938 6.273438 "/>
</g>
</svg>
