<?xml version="1.0" encoding="UTF-8"?>
<svg xmlns="http://www.w3.org/2000/svg" xmlns:xlink="http://www.w3.org/1999/xlink" width="60pt" height="60pt" viewBox="0 0 60 60" version="1.1">
<g id="surface1">
<path style=" stroke:none;fill-rule:nonzero;fill:rgb(96.078431%,86.27451%,70.588235%);fill-opacity:1;" d="M 49.285156 47.019531 L 42.800781 45.023438 C 41.574219 44.644531 40.734375 43.507812 40.734375 42.222656 L 40.734375 37.554688 C 40.734375 37.015625 40.296875 36.578125 39.757812 36.578125 L 20.242188 36.578125 C 19.703125 36.578125 19.265625 37.015625 19.265625 37.554688 L 19.265625 42.222656 C 19.265625 43.507812 18.425781 44.644531 17.199219 45.023438 L 10.710938 47.019531 C 8.257812 47.773438 6.578125 50.042969 6.578125 52.613281 L 6.578125 57.074219 C 6.578125 58.6875 7.890625 60 9.507812 60 L 50.492188 60 C 52.109375 60 53.421875 58.6875 53.421875 57.074219 L 53.421875 52.613281 C 53.421875 50.042969 51.742188 47.773438 49.285156 47.019531 Z M 49.285156 47.019531 "/>
<path style=" stroke:none;fill-rule:nonzero;fill:rgb(92.156863%,78.823529%,62.745098%);fill-opacity:1;" d="M 17.296875 44.984375 C 18.8125 49.136719 23.917969 52.191406 30 52.191406 C 36.082031 52.191406 41.1875 49.136719 42.703125 44.984375 C 41.53125 44.578125 40.734375 43.472656 40.734375 42.222656 L 40.734375 37.554688 C 40.734375 37.015625 40.296875 36.578125 39.757812 36.578125 L 20.242188 36.578125 C 19.703125 36.578125 19.265625 37.015625 19.265625 37.554688 L 19.265625 42.222656 C 19.265625 43.472656 18.46875 44.574219 17.296875 44.984375 Z M 17.296875 44.984375 "/>
<path style=" stroke:none;fill-rule:nonzero;fill:rgb(82.352941%,70.588235%,58.823529%);fill-opacity:1;" d="M 39.757812 36.578125 L 20.242188 36.578125 C 19.957031 36.578125 19.707031 36.703125 19.53125 36.898438 C 21.816406 40.238281 25.65625 42.433594 30 42.433594 C 34.34375 42.433594 38.183594 40.238281 40.46875 36.898438 C 40.292969 36.703125 40.042969 36.578125 39.757812 36.578125 Z M 39.757812 36.578125 "/>
<path style=" stroke:none;fill-rule:nonzero;fill:rgb(96.078431%,72.54902%,49.019608%);fill-opacity:1;" d="M 43.175781 19.988281 L 42.6875 19.988281 L 42.6875 10.230469 L 17.3125 10.230469 L 17.3125 19.988281 L 16.824219 19.988281 C 15.484375 19.988281 14.386719 21.085938 14.386719 22.429688 C 14.386719 23.773438 15.484375 24.871094 16.824219 24.871094 L 17.363281 24.871094 C 17.863281 31.417969 23.324219 36.578125 30 36.578125 C 36.675781 36.578125 42.136719 31.417969 42.636719 24.871094 L 43.171875 24.871094 C 44.515625 24.871094 45.613281 23.773438 45.613281 22.429688 C 45.613281 21.085938 44.515625 19.988281 43.175781 19.988281 Z M 43.175781 19.988281 "/>
<path style=" stroke:none;fill-rule:nonzero;fill:rgb(35.294118%,27.45098%,31.372549%);fill-opacity:1;" d="M 24.144531 23.003906 C 23.605469 23.003906 23.167969 22.566406 23.167969 22.027344 L 23.167969 21.050781 C 23.167969 20.511719 23.605469 20.074219 24.144531 20.074219 C 24.683594 20.074219 25.121094 20.511719 25.121094 21.050781 L 25.121094 22.027344 C 25.121094 22.566406 24.683594 23.003906 24.144531 23.003906 Z M 24.144531 23.003906 "/>
<path style=" stroke:none;fill-rule:nonzero;fill:rgb(35.294118%,27.45098%,31.372549%);fill-opacity:1;" d="M 35.855469 23.003906 C 35.316406 23.003906 34.878906 22.566406 34.878906 22.027344 L 34.878906 21.050781 C 34.878906 20.511719 35.316406 20.074219 35.855469 20.074219 C 36.394531 20.074219 36.832031 20.511719 36.832031 21.050781 L 36.832031 22.027344 C 36.832031 22.566406 36.394531 23.003906 35.855469 23.003906 Z M 35.855469 23.003906 "/>
<path style=" stroke:none;fill-rule:nonzero;fill:rgb(43.137255%,35.294118%,39.215686%);fill-opacity:1;" d="M 25.121094 19.015625 L 23.167969 19.015625 C 22.628906 19.015625 22.191406 18.578125 22.191406 18.039062 C 22.191406 17.5 22.628906 17.0625 23.167969 17.0625 L 25.121094 17.0625 C 25.660156 17.0625 26.097656 17.5 26.097656 18.039062 C 26.097656 18.578125 25.660156 19.015625 25.121094 19.015625 Z M 25.121094 19.015625 "/>
<path style=" stroke:none;fill-rule:nonzero;fill:rgb(43.137255%,35.294118%,39.215686%);fill-opacity:1;" d="M 36.832031 19.015625 L 34.878906 19.015625 C 34.339844 19.015625 33.902344 18.578125 33.902344 18.039062 C 33.902344 17.5 34.339844 17.0625 34.878906 17.0625 L 36.832031 17.0625 C 37.371094 17.0625 37.808594 17.5 37.808594 18.039062 C 37.808594 18.578125 37.371094 19.015625 36.832031 19.015625 Z M 36.832031 19.015625 "/>
<path style=" stroke:none;fill-rule:nonzero;fill:rgb(89.019608%,66.666667%,45.882353%);fill-opacity:1;" d="M 37.808594 11.207031 L 37.808594 10.230469 L 17.3125 10.230469 L 17.3125 19.988281 L 16.910156 19.988281 C 15.800781 19.988281 14.761719 20.695312 14.476562 21.765625 C 14.039062 23.390625 15.269531 24.871094 16.824219 24.871094 L 17.363281 24.871094 C 17.863281 31.417969 23.324219 36.578125 30 36.578125 C 30.667969 36.578125 31.316406 36.515625 31.957031 36.414062 C 25.878906 35.476562 21.21875 30.238281 21.21875 23.894531 L 21.21875 18.039062 C 21.21875 15.34375 23.402344 13.160156 26.097656 13.160156 L 35.855469 13.160156 C 36.933594 13.160156 37.808594 12.285156 37.808594 11.207031 Z M 37.808594 11.207031 "/>
<path style=" stroke:none;fill-rule:nonzero;fill:rgb(35.294118%,27.45098%,31.372549%);fill-opacity:1;" d="M 23.167969 1.65625 C 18.371094 2.648438 14.921875 7.148438 15.457031 12.230469 L 16.28125 20.046875 L 17.289062 20.027344 C 18.351562 20.007812 19.199219 19.140625 19.199219 18.078125 L 19.199219 14.136719 C 19.199219 12.519531 20.511719 11.207031 22.128906 11.207031 L 32.925781 11.207031 Z M 23.167969 1.65625 "/>
<path style=" stroke:none;fill-rule:nonzero;fill:rgb(51.764706%,45.098039%,48.235294%);fill-opacity:1;" d="M 37.808594 25.84375 L 22.191406 25.84375 C 20.578125 25.84375 19.265625 27.15625 19.265625 28.773438 L 19.265625 29.75 C 19.265625 35.675781 24.070312 40.484375 30 40.484375 C 35.929688 40.484375 40.734375 35.675781 40.734375 29.75 L 40.734375 28.773438 C 40.734375 27.15625 39.421875 25.84375 37.808594 25.84375 Z M 37.808594 25.84375 "/>
<path style=" stroke:none;fill-rule:nonzero;fill:rgb(89.019608%,66.666667%,45.882353%);fill-opacity:1;" d="M 30 31.699219 C 28.535156 31.699219 27.183594 31.230469 26.386719 30.445312 C 26.003906 30.066406 26 29.445312 26.378906 29.0625 C 26.757812 28.679688 27.375 28.675781 27.757812 29.054688 C 28.082031 29.375 28.863281 29.75 30 29.75 C 31.136719 29.75 31.917969 29.375 32.242188 29.054688 C 32.625 28.675781 33.242188 28.679688 33.621094 29.0625 C 34 29.445312 33.996094 30.066406 33.613281 30.445312 C 32.816406 31.230469 31.464844 31.699219 30 31.699219 Z M 30 31.699219 "/>
<path style=" stroke:none;fill-rule:nonzero;fill:rgb(43.137255%,35.294118%,39.215686%);fill-opacity:1;" d="M 24.144531 29.75 L 24.144531 28.773438 C 24.144531 27.15625 25.457031 25.84375 27.074219 25.84375 L 22.191406 25.84375 C 20.578125 25.84375 19.265625 27.15625 19.265625 28.773438 L 19.265625 29.75 C 19.265625 35.675781 24.070312 40.484375 30 40.484375 C 30.839844 40.484375 31.65625 40.375 32.441406 40.195312 C 27.6875 39.085938 24.144531 34.835938 24.144531 29.75 Z M 24.144531 29.75 "/>
<path style=" stroke:none;fill-rule:nonzero;fill:rgb(43.137255%,35.294118%,39.215686%);fill-opacity:1;" d="M 43.652344 20.046875 L 44.480469 12.230469 C 45.085938 6.46875 40.570312 1.449219 34.777344 1.449219 L 25.121094 1.449219 C 22.617188 1.449219 19.757812 1.09375 18.066406 0.0742188 C 17.710938 -0.140625 17.246094 0.136719 17.25 0.554688 C 17.261719 3.433594 18.617188 11.207031 32.925781 11.207031 L 37.808594 11.207031 C 39.421875 11.207031 40.734375 12.519531 40.734375 14.136719 L 40.734375 18.078125 C 40.734375 19.140625 41.585938 20.007812 42.648438 20.027344 Z M 43.652344 20.046875 "/>
</g>
</svg>
