<?xml version="1.0" encoding="UTF-8"?>
<svg xmlns="http://www.w3.org/2000/svg" xmlns:xlink="http://www.w3.org/1999/xlink" width="60pt" height="60pt" viewBox="0 0 60 60" version="1.1">
<defs>
<filter id="alpha" filterUnits="objectBoundingBox" x="0%" y="0%" width="100%" height="100%">
  <feColorMatrix type="matrix" in="SourceGraphic" values="0 0 0 0 1 0 0 0 0 1 0 0 0 0 1 0 0 0 1 0"/>
</filter>
<mask id="mask0">
  <g filter="url(#alpha)">
<rect x="0" y="0" width="60" height="60" style="fill:rgb(0%,0%,0%);fill-opacity:0.25098;stroke:none;"/>
  </g>
</mask>
<clipPath id="clip1">
  <rect x="0" y="0" width="61" height="61"/>
</clipPath>
<g id="surface5" clip-path="url(#clip1)">
<path style=" stroke:none;fill-rule:nonzero;fill:rgb(0%,0%,0%);fill-opacity:1;" d="M 26.128906 42.414062 C 29.5625 45.421875 29.902344 50.640625 26.898438 54.070312 C 25.445312 55.730469 23.386719 56.738281 21.1875 56.871094 C 21.359375 56.882812 21.527344 56.898438 21.703125 56.898438 C 26.269531 56.902344 29.976562 53.203125 29.980469 48.636719 C 29.984375 46.253906 28.957031 43.984375 27.164062 42.414062 "/>
</g>
</defs>
<g id="surface1">
<path style=" stroke:none;fill-rule:nonzero;fill:rgb(10.980392%,58.823529%,60%);fill-opacity:1;" d="M 46.53125 42.414062 L 37.21875 42.414062 L 32.046875 47.585938 L 26.875 42.414062 L 17.566406 42.414062 C 14.136719 42.414062 11.359375 45.191406 11.359375 48.621094 L 11.359375 60 L 52.738281 60 L 52.738281 48.621094 C 52.738281 45.191406 49.957031 42.414062 46.53125 42.414062 Z M 46.53125 42.414062 "/>
<path style=" stroke:none;fill-rule:nonzero;fill:rgb(94.901961%,85.882353%,75.294118%);fill-opacity:1;" d="M 37.21875 42.414062 L 37.21875 34.957031 C 39.402344 33.851562 41.164062 32.066406 42.238281 29.871094 C 42.296875 29.75 42.359375 29.628906 42.414062 29.503906 C 42.484375 29.347656 42.554688 29.1875 42.621094 29.027344 C 42.6875 28.863281 42.75 28.691406 42.808594 28.523438 C 42.851562 28.390625 42.902344 28.265625 42.941406 28.132812 C 43.03125 27.835938 43.109375 27.535156 43.171875 27.234375 C 43.195312 27.121094 43.214844 27.011719 43.234375 26.898438 C 43.277344 26.664062 43.316406 26.425781 43.34375 26.183594 C 43.355469 26.082031 43.371094 25.972656 43.378906 25.863281 C 43.410156 25.523438 43.433594 25.179688 43.433594 24.828125 L 43.433594 18.621094 L 42.523438 18.621094 C 40.625 18.621094 38.972656 17.328125 38.511719 15.488281 L 36.1875 7.242188 L 34.0625 14.703125 C 33.488281 17.003906 31.421875 18.621094 29.046875 18.621094 L 20.667969 18.621094 L 20.667969 24.828125 C 20.671875 29.101562 23.066406 33.015625 26.875 34.957031 L 26.875 42.414062 L 26.128906 42.414062 C 27.644531 43.746094 28.621094 45.585938 28.875 47.585938 L 40.324219 47.585938 C 43.179688 47.585938 45.496094 45.269531 45.496094 42.414062 Z M 37.21875 42.414062 "/>
<path style=" stroke:none;fill-rule:nonzero;fill:rgb(18.823529%,15.294118%,12.156863%);fill-opacity:1;" d="M 26.875 25.605469 C 25.875 25.605469 25.066406 24.792969 25.066406 23.792969 C 25.066406 22.792969 25.875 21.984375 26.875 21.984375 C 27.875 21.984375 28.6875 22.792969 28.6875 23.792969 C 28.683594 24.792969 27.875 25.601562 26.875 25.605469 Z M 26.875 23.535156 C 26.734375 23.535156 26.617188 23.652344 26.617188 23.792969 C 26.617188 24.078125 27.132812 24.078125 27.132812 23.792969 C 27.132812 23.652344 27.019531 23.535156 26.875 23.535156 Z M 26.875 23.535156 "/>
<path style=" stroke:none;fill-rule:nonzero;fill:rgb(18.823529%,15.294118%,12.156863%);fill-opacity:1;" d="M 37.21875 25.605469 C 36.222656 25.605469 35.410156 24.792969 35.410156 23.792969 C 35.410156 22.792969 36.222656 21.984375 37.21875 21.984375 C 38.21875 21.984375 39.03125 22.792969 39.03125 23.792969 C 39.03125 24.792969 38.21875 25.601562 37.21875 25.605469 Z M 37.21875 23.535156 C 37.078125 23.535156 36.960938 23.652344 36.960938 23.792969 C 36.960938 24.078125 37.480469 24.078125 37.480469 23.792969 C 37.480469 23.652344 37.363281 23.535156 37.21875 23.535156 Z M 37.21875 23.535156 "/>
<path style=" stroke:none;fill-rule:nonzero;fill:rgb(94.117647%,79.215686%,65.882353%);fill-opacity:1;" d="M 32.046875 32.84375 C 29.90625 32.84375 28.171875 31.109375 28.167969 28.964844 L 29.722656 28.964844 C 29.722656 30.25 30.761719 31.292969 32.046875 31.292969 C 33.332031 31.292969 34.375 30.25 34.375 28.964844 L 35.925781 28.964844 C 35.925781 31.109375 34.191406 32.84375 32.046875 32.84375 Z M 32.046875 32.84375 "/>
<path style=" stroke:none;fill-rule:nonzero;fill:rgb(85.882353%,77.647059%,68.235294%);fill-opacity:1;" d="M 37.21875 35.988281 L 37.21875 34.953125 C 36.855469 35.140625 36.476562 35.308594 36.09375 35.453125 C 36.035156 35.476562 35.980469 35.496094 35.921875 35.515625 C 35.59375 35.636719 35.257812 35.738281 34.914062 35.824219 C 34.820312 35.851562 34.730469 35.875 34.636719 35.898438 C 34.316406 35.972656 33.988281 36.03125 33.660156 36.078125 C 33.558594 36.09375 33.453125 36.113281 33.351562 36.125 C 32.488281 36.230469 31.621094 36.230469 30.757812 36.125 C 30.65625 36.113281 30.550781 36.09375 30.449219 36.078125 C 30.121094 36.03125 29.792969 35.972656 29.472656 35.898438 C 29.378906 35.875 29.289062 35.851562 29.195312 35.824219 C 28.851562 35.738281 28.515625 35.632812 28.1875 35.515625 C 28.128906 35.496094 28.074219 35.476562 28.015625 35.453125 C 27.628906 35.308594 27.246094 35.144531 26.875 34.957031 L 26.875 35.992188 C 27.242188 36.175781 27.621094 36.34375 28.003906 36.488281 C 28.0625 36.511719 28.117188 36.53125 28.171875 36.550781 C 28.503906 36.671875 28.839844 36.773438 29.183594 36.863281 C 29.277344 36.886719 29.367188 36.910156 29.460938 36.933594 C 29.78125 37.007812 30.105469 37.066406 30.4375 37.113281 C 30.539062 37.128906 30.644531 37.148438 30.746094 37.160156 C 31.605469 37.265625 32.476562 37.265625 33.339844 37.160156 C 33.441406 37.148438 33.546875 37.128906 33.648438 37.113281 C 33.976562 37.066406 34.304688 37.007812 34.625 36.933594 C 34.714844 36.910156 34.808594 36.886719 34.902344 36.863281 C 35.246094 36.769531 35.582031 36.667969 35.910156 36.550781 C 35.96875 36.53125 36.023438 36.511719 36.078125 36.488281 C 36.46875 36.34375 36.847656 36.175781 37.21875 35.992188 Z M 37.21875 35.988281 "/>
<path style=" stroke:none;fill-rule:nonzero;fill:rgb(11.764706%,10.980392%,9.803922%);fill-opacity:1;" d="M 33.898438 0.105469 C 24.8125 -0.917969 16.621094 5.621094 15.601562 14.703125 C 15.53125 15.316406 15.496094 15.933594 15.496094 16.554688 L 15.496094 17.019531 C 15.496094 19.347656 15.945312 21.65625 16.820312 23.816406 C 16.957031 24.160156 17.105469 24.5 17.261719 24.828125 C 17.421875 25.160156 17.59375 25.496094 17.78125 25.839844 L 20.09375 30 L 14.460938 30 C 12.75 30 11.359375 31.390625 11.359375 33.105469 C 11.359375 34.816406 12.75 36.207031 14.460938 36.207031 L 13.429688 36.207031 C 10 36.230469 7.238281 39.027344 7.261719 42.457031 C 7.28125 45.453125 9.445312 48.011719 12.398438 48.527344 C 12.398438 48.558594 12.394531 48.589844 12.394531 48.621094 C 12.386719 53.191406 16.085938 56.902344 20.65625 56.90625 C 25.230469 56.914062 28.9375 53.214844 28.945312 48.644531 C 28.949219 46.257812 27.921875 43.988281 26.128906 42.414062 L 26.875 42.414062 L 26.875 34.953125 C 24.152344 33.5625 22.101562 31.132812 21.1875 28.214844 C 21.175781 28.1875 21.167969 28.160156 21.15625 28.132812 L 21.15625 28.117188 C 20.832031 27.050781 20.667969 25.941406 20.667969 24.828125 L 20.667969 18.621094 L 29.046875 18.621094 C 31.421875 18.621094 33.492188 17.007812 34.066406 14.703125 L 36.1875 7.242188 L 38.507812 15.488281 C 38.96875 17.328125 40.621094 18.621094 42.519531 18.621094 L 43.425781 18.621094 L 43.425781 24.828125 C 43.425781 25.179688 43.40625 25.523438 43.375 25.863281 C 43.367188 25.964844 43.351562 26.078125 43.339844 26.183594 C 43.308594 26.425781 43.273438 26.664062 43.230469 26.898438 C 43.210938 27.011719 43.191406 27.121094 43.167969 27.230469 C 43.101562 27.535156 43.027344 27.835938 42.9375 28.132812 C 42.898438 28.265625 42.847656 28.390625 42.800781 28.523438 C 42.742188 28.691406 42.683594 28.859375 42.617188 29.027344 C 42.550781 29.195312 42.484375 29.347656 42.410156 29.503906 C 42.355469 29.628906 42.292969 29.75 42.234375 29.871094 C 42.039062 30.273438 41.820312 30.660156 41.578125 31.035156 L 43.425781 31.035156 L 43.476562 30.949219 L 46.316406 25.839844 C 46.5 25.507812 46.671875 25.171875 46.832031 24.828125 C 46.992188 24.488281 47.140625 24.148438 47.277344 23.816406 C 48.148438 21.65625 48.597656 19.347656 48.601562 17.019531 C 48.601562 8.507812 42.363281 1.019531 33.898438 0.105469 Z M 33.898438 0.105469 "/>
<path style=" stroke:none;fill-rule:nonzero;fill:rgb(85.882353%,77.647059%,68.235294%);fill-opacity:1;" d="M 36.1875 7.242188 L 34.0625 14.703125 C 33.488281 17.003906 31.421875 18.621094 29.046875 18.621094 L 30.082031 18.621094 C 32.457031 18.621094 34.523438 17.007812 35.101562 14.703125 L 36.703125 9.070312 Z M 36.1875 7.242188 "/>
<use xlink:href="#surface5" mask="url(#mask0)"/>
</g>
</svg>
