<?xml version="1.0" encoding="UTF-8"?>
<svg xmlns="http://www.w3.org/2000/svg" xmlns:xlink="http://www.w3.org/1999/xlink" width="60pt" height="60pt" viewBox="0 0 60 60" version="1.1">
<g id="surface1">
<path style=" stroke:none;fill-rule:nonzero;fill:rgb(20%,4.705882%,0%);fill-opacity:1;" d="M 30.042969 12.632812 L 30.042969 59.082031 C 30.042969 59.082031 3.675781 61.816406 3.675781 48.960938 C 3.675781 48.960938 10.757812 49.855469 9.304688 43.945312 C 7.46875 36.457031 8.496094 24.328125 9.304688 17.699219 C 10.117188 11.070312 30.042969 12.632812 30.042969 12.632812 Z M 30.042969 12.632812 "/>
<path style=" stroke:none;fill-rule:nonzero;fill:rgb(20%,4.705882%,0%);fill-opacity:1;" d="M 29.957031 12.632812 L 29.957031 59.082031 C 29.957031 59.082031 56.324219 61.816406 56.324219 48.960938 C 56.324219 48.960938 49.242188 49.855469 50.695312 43.945312 C 52.53125 36.457031 51.503906 24.328125 50.695312 17.699219 C 49.882812 11.070312 29.957031 12.632812 29.957031 12.632812 Z M 29.957031 12.632812 "/>
<path style=" stroke:none;fill-rule:nonzero;fill:rgb(0%,70.588235%,59.215686%);fill-opacity:1;" d="M 30.503906 52.175781 L 30.503906 45.40625 C 30.503906 45.40625 41.246094 45.082031 41.246094 51.582031 Z M 30.503906 52.175781 "/>
<path style=" stroke:none;fill-rule:nonzero;fill:rgb(0%,70.588235%,59.215686%);fill-opacity:1;" d="M 29.582031 52.175781 L 29.582031 45.40625 C 29.582031 45.40625 18.839844 45.082031 18.839844 51.582031 Z M 29.582031 52.175781 "/>
<path style=" stroke:none;fill-rule:nonzero;fill:rgb(99.215686%,80%,60.784314%);fill-opacity:1;" d="M 25.777344 45.40625 L 34.308594 45.40625 L 34.308594 54.964844 L 25.777344 54.964844 Z M 25.777344 45.40625 "/>
<path style=" stroke:none;fill-rule:nonzero;fill:rgb(98.823529%,73.72549%,52.156863%);fill-opacity:1;" d="M 25.777344 46.53125 C 25.777344 46.53125 29.367188 48.820312 34.308594 48.289062 L 34.308594 45.40625 L 25.777344 45.40625 Z M 25.777344 46.53125 "/>
<path style=" stroke:none;fill-rule:nonzero;fill:rgb(98.823529%,73.72549%,52.156863%);fill-opacity:1;" d="M 17.632812 30.585938 C 17.632812 27.964844 15.769531 25.835938 13.46875 25.835938 C 11.171875 25.835938 9.304688 27.964844 9.304688 30.585938 C 9.304688 33.210938 11.171875 35.335938 13.46875 35.335938 C 15.769531 35.335938 17.632812 33.210938 17.632812 30.585938 Z M 17.632812 30.585938 "/>
<path style=" stroke:none;fill-rule:nonzero;fill:rgb(98.823529%,73.72549%,52.156863%);fill-opacity:1;" d="M 50.777344 30.585938 C 50.777344 27.964844 48.914062 25.835938 46.613281 25.835938 C 44.316406 25.835938 42.449219 27.964844 42.449219 30.585938 C 42.449219 33.210938 44.316406 35.335938 46.613281 35.335938 C 48.914062 35.335938 50.777344 33.210938 50.777344 30.585938 Z M 50.777344 30.585938 "/>
<path style=" stroke:none;fill-rule:nonzero;fill:rgb(99.215686%,80%,60.784314%);fill-opacity:1;" d="M 46.597656 21.511719 C 46.597656 14.515625 41.476562 9.394531 30.042969 9.394531 C 18.605469 9.394531 13.488281 14.515625 13.488281 21.511719 C 13.488281 28.511719 12.292969 46.941406 30.042969 46.941406 C 47.792969 46.941406 46.597656 28.511719 46.597656 21.511719 Z M 46.597656 21.511719 "/>
<path style=" stroke:none;fill-rule:nonzero;fill:rgb(23.137255%,14.509804%,9.803922%);fill-opacity:1;" d="M 23.769531 29.449219 C 23.769531 28.367188 22.96875 27.488281 21.980469 27.488281 C 20.988281 27.488281 20.1875 28.367188 20.1875 29.449219 C 20.1875 30.535156 20.988281 31.414062 21.980469 31.414062 C 22.96875 31.414062 23.769531 30.535156 23.769531 29.449219 Z M 23.769531 29.449219 "/>
<path style=" stroke:none;fill-rule:nonzero;fill:rgb(100%,100%,100%);fill-opacity:1;" d="M 21.734375 28.582031 C 21.734375 28.878906 21.492188 29.117188 21.199219 29.117188 C 20.902344 29.117188 20.660156 28.878906 20.660156 28.582031 C 20.660156 28.285156 20.902344 28.046875 21.199219 28.046875 C 21.492188 28.046875 21.734375 28.285156 21.734375 28.582031 Z M 21.734375 28.582031 "/>
<path style=" stroke:none;fill-rule:nonzero;fill:rgb(40.784314%,29.411765%,21.568627%);fill-opacity:1;" d="M 19.113281 25.21875 C 19.960938 25.542969 21.320312 24.113281 24.433594 25.355469 C 25.003906 25.582031 25.34375 23.421875 22.003906 23.421875 C 19.113281 23.421875 18.601562 25.019531 19.113281 25.21875 Z M 19.113281 25.21875 "/>
<path style=" stroke:none;fill-rule:nonzero;fill:rgb(23.137255%,14.509804%,9.803922%);fill-opacity:1;" d="M 40.121094 29.449219 C 40.121094 28.367188 39.316406 27.488281 38.328125 27.488281 C 37.335938 27.488281 36.535156 28.367188 36.535156 29.449219 C 36.535156 30.535156 37.335938 31.414062 38.328125 31.414062 C 39.316406 31.414062 40.121094 30.535156 40.121094 29.449219 Z M 40.121094 29.449219 "/>
<path style=" stroke:none;fill-rule:nonzero;fill:rgb(100%,100%,100%);fill-opacity:1;" d="M 38.082031 28.582031 C 38.082031 28.878906 37.84375 29.121094 37.546875 29.121094 C 37.25 29.121094 37.011719 28.878906 37.011719 28.582031 C 37.011719 28.285156 37.25 28.046875 37.546875 28.046875 C 37.84375 28.046875 38.082031 28.285156 38.082031 28.582031 Z M 38.082031 28.582031 "/>
<path style=" stroke:none;fill-rule:nonzero;fill:rgb(40.784314%,29.411765%,21.568627%);fill-opacity:1;" d="M 40.972656 25.21875 C 40.125 25.542969 38.765625 24.113281 35.648438 25.355469 C 35.082031 25.582031 34.742188 23.421875 38.082031 23.421875 C 40.972656 23.421875 41.484375 25.019531 40.972656 25.21875 Z M 40.972656 25.21875 "/>
<path style=" stroke:none;fill-rule:nonzero;fill:rgb(98.823529%,73.72549%,52.156863%);fill-opacity:1;" d="M 30.042969 36.351562 C 28.273438 36.351562 27.207031 35.03125 27.207031 35.671875 C 27.207031 36.308594 27.71875 37.527344 30.042969 37.527344 C 32.367188 37.527344 32.878906 36.3125 32.878906 35.671875 C 32.878906 35.03125 31.8125 36.351562 30.042969 36.351562 Z M 30.042969 36.351562 "/>
<path style=" stroke:none;fill-rule:nonzero;fill:rgb(98.823529%,73.72549%,52.156863%);fill-opacity:1;" d="M 30.042969 42.238281 C 29.429688 42.238281 29.0625 41.78125 29.0625 42.003906 C 29.0625 42.222656 29.238281 42.644531 30.042969 42.644531 C 30.847656 42.644531 31.023438 42.222656 31.023438 42.003906 C 31.023438 41.78125 30.65625 42.238281 30.042969 42.238281 Z M 30.042969 42.238281 "/>
<path style=" stroke:none;fill-rule:nonzero;fill:rgb(96.862745%,58.039216%,36.862745%);fill-opacity:1;" d="M 30.042969 40.605469 C 27.234375 40.605469 25.542969 39.464844 25.542969 39.753906 C 25.542969 40.042969 26.355469 41.183594 30.042969 41.183594 C 33.730469 41.183594 34.539062 40.042969 34.539062 39.753906 C 34.539062 39.464844 32.847656 40.605469 30.042969 40.605469 Z M 30.042969 40.605469 "/>
<path style=" stroke:none;fill-rule:nonzero;fill:rgb(97.647059%,66.666667%,55.294118%);fill-opacity:1;" d="M 22.105469 35.722656 C 22.105469 37.066406 21.019531 38.152344 19.675781 38.152344 C 18.332031 38.152344 17.242188 37.066406 17.242188 35.722656 C 17.242188 34.378906 18.332031 33.289062 19.675781 33.289062 C 21.019531 33.289062 22.105469 34.378906 22.105469 35.722656 Z M 22.105469 35.722656 "/>
<path style=" stroke:none;fill-rule:nonzero;fill:rgb(97.647059%,66.666667%,55.294118%);fill-opacity:1;" d="M 43.140625 35.722656 C 43.140625 37.066406 42.054688 38.152344 40.710938 38.152344 C 39.367188 38.152344 38.277344 37.066406 38.277344 35.722656 C 38.277344 34.378906 39.367188 33.289062 40.710938 33.289062 C 42.054688 33.289062 43.140625 34.378906 43.140625 35.722656 Z M 43.140625 35.722656 "/>
<path style=" stroke:none;fill-rule:nonzero;fill:rgb(56.078431%,83.921569%,90.588235%);fill-opacity:1;" d="M 30.042969 49.246094 L 30.042969 60 L 11.355469 60 C 11.355469 55.648438 20.230469 49.246094 30.042969 49.246094 Z M 30.042969 49.246094 "/>
<path style=" stroke:none;fill-rule:nonzero;fill:rgb(56.078431%,83.921569%,90.588235%);fill-opacity:1;" d="M 30.042969 49.246094 L 30.042969 60 L 48.730469 60 C 48.730469 55.648438 39.855469 49.246094 30.042969 49.246094 Z M 30.042969 49.246094 "/>
<path style=" stroke:none;fill-rule:nonzero;fill:rgb(96.470588%,69.411765%,81.176471%);fill-opacity:1;" d="M 30.042969 59.511719 L 30.042969 49.246094 C 27.308594 49.246094 24.65625 49.757812 22.242188 50.566406 Z M 30.042969 59.511719 "/>
<path style=" stroke:none;fill-rule:nonzero;fill:rgb(96.470588%,69.411765%,81.176471%);fill-opacity:1;" d="M 30.042969 59.511719 L 30.042969 49.246094 C 32.777344 49.246094 35.429688 49.757812 37.84375 50.566406 Z M 30.042969 59.511719 "/>
<path style=" stroke:none;fill-rule:nonzero;fill:rgb(94.901961%,51.372549%,70.588235%);fill-opacity:1;" d="M 30.042969 49.246094 C 28.054688 49.246094 26.109375 49.519531 24.265625 49.976562 C 24.527344 51.574219 25.605469 54.847656 30.042969 54.847656 C 34.476562 54.847656 35.558594 51.574219 35.820312 49.976562 C 33.976562 49.519531 32.03125 49.246094 30.042969 49.246094 Z M 30.042969 49.246094 "/>
<path style=" stroke:none;fill-rule:nonzero;fill:rgb(99.215686%,80%,60.784314%);fill-opacity:1;" d="M 25.777344 49.621094 C 25.777344 49.621094 25.777344 53.464844 30.042969 53.464844 C 34.308594 53.464844 34.308594 49.621094 34.308594 49.621094 C 34.308594 49.621094 29.882812 48.007812 25.777344 49.621094 Z M 25.777344 49.621094 "/>
<path style=" stroke:none;fill-rule:nonzero;fill:rgb(22.745098%,74.117647%,66.666667%);fill-opacity:1;" d="M 23.511719 50.050781 C 23.640625 49.21875 18.542969 49.832031 18.585938 52.175781 C 18.625 54.519531 24.214844 56.320312 25.753906 57.175781 C 27.289062 58.027344 30.019531 60 30.019531 60 C 30.019531 60 30.53125 58.019531 28.140625 56.492188 C 25.753906 54.964844 23.34375 51.160156 23.511719 50.050781 Z M 23.511719 50.050781 "/>
<path style=" stroke:none;fill-rule:nonzero;fill:rgb(22.745098%,74.117647%,66.666667%);fill-opacity:1;" d="M 36.511719 50.050781 C 36.382812 49.21875 41.480469 49.832031 41.4375 52.175781 C 41.394531 54.519531 35.804688 56.320312 34.269531 57.175781 C 32.734375 58.027344 30.003906 60 30.003906 60 C 30.003906 60 29.492188 58.019531 31.882812 56.492188 C 34.269531 54.964844 36.679688 51.160156 36.511719 50.050781 Z M 36.511719 50.050781 "/>
<path style=" stroke:none;fill-rule:nonzero;fill:rgb(25.098039%,9.803922%,0%);fill-opacity:1;" d="M 30.042969 0 C 10.84375 0 8.28125 16.765625 8.28125 29.117188 C 8.28125 41.472656 14.679688 48.648438 19.675781 50.652344 C 19.675781 50.652344 11.695312 36.511719 15.621094 23.421875 C 18.832031 12.710938 30.042969 15.871094 30.042969 15.871094 C 30.042969 15.871094 41.253906 12.710938 44.464844 23.421875 C 48.390625 36.511719 40.410156 50.652344 40.410156 50.652344 C 45.40625 48.648438 51.804688 41.472656 51.804688 29.117188 C 51.804688 16.765625 49.242188 0 30.042969 0 Z M 30.042969 0 "/>
<path style=" stroke:none;fill-rule:nonzero;fill:rgb(25.098039%,9.803922%,0%);fill-opacity:1;" d="M 36.535156 18.832031 C 36.535156 18.832031 29.328125 22.441406 22.964844 21.71875 C 16.601562 20.992188 14.15625 27.589844 14.542969 31.957031 L 12.421875 22.238281 L 16.261719 14.550781 L 27.207031 8.917969 L 37.546875 9.394531 L 42.449219 13.652344 L 46.613281 18.832031 L 49.542969 22.238281 L 48.132812 32.726562 L 45.152344 36.3125 C 45.152344 36.3125 47.851562 22.855469 36.535156 18.832031 Z M 36.535156 18.832031 "/>
</g>
</svg>
