<?xml version="1.0" encoding="UTF-8"?>
<svg xmlns="http://www.w3.org/2000/svg" xmlns:xlink="http://www.w3.org/1999/xlink" width="60pt" height="60pt" viewBox="0 0 60 60" version="1.1">
<g id="surface1">
<path style=" stroke:none;fill-rule:nonzero;fill:rgb(100%,87.45098%,72.941176%);fill-opacity:1;" d="M 49.910156 53.859375 L 49.910156 58.964844 C 49.910156 59.539062 49.449219 60 48.878906 60 L 11.121094 60 C 10.550781 60 10.089844 59.539062 10.089844 58.964844 L 10.089844 53.859375 C 10.089844 48.527344 14.449219 44.300781 19.78125 44.246094 C 21.546875 44.230469 23.144531 43.359375 24.125 41.964844 C 25.195312 40.433594 25.085938 39.054688 25.085938 38.019531 L 25.105469 37.972656 C 20.464844 36.050781 17.199219 31.476562 17.199219 26.140625 C 17.199219 26.140625 17.199219 25.996094 17.199219 25.734375 C 16.105469 25.734375 15.171875 25.226562 14.585938 24.433594 C 14.585938 24.433594 14.582031 24.433594 14.582031 24.433594 C 14.234375 23.992188 13.96875 23.289062 13.96875 22.5625 L 13.96875 9.960938 C 13.96875 8.035156 15.53125 6.472656 17.457031 6.472656 C 19.015625 2.574219 22.789062 0.0078125 27.007812 0.0078125 C 33.160156 0.0078125 37.113281 -0.0390625 37.445312 0.125 C 37.519531 0.136719 38.234375 0.261719 38.289062 0.292969 C 39.3125 0.527344 40.445312 1.046875 40.496094 1.101562 C 43.855469 2.792969 46.164062 6.273438 46.164062 10.289062 L 46.164062 22.375 C 46.164062 24.230469 44.65625 25.734375 42.800781 25.734375 L 42.800781 26.140625 C 42.800781 31.476562 39.535156 36.050781 34.894531 37.972656 L 34.914062 38.019531 C 34.914062 39.027344 34.796875 40.421875 35.875 41.964844 C 36.851562 43.355469 38.449219 44.230469 40.21875 44.246094 C 45.550781 44.300781 49.910156 48.527344 49.910156 53.859375 Z M 49.910156 53.859375 "/>
<path style=" stroke:none;fill-rule:nonzero;fill:rgb(25.882353%,26.27451%,30.196078%);fill-opacity:1;" d="M 46.164062 10.289062 L 46.164062 22.375 C 46.164062 24.230469 44.65625 25.734375 42.800781 25.734375 L 42.800781 18.578125 C 42.800781 18.03125 42.375 17.578125 41.828125 17.546875 C 35.765625 17.183594 29.695312 15.339844 24.230469 11.882812 C 23.632812 11.507812 22.851562 11.820312 22.671875 12.5 C 22.402344 13.519531 21.792969 14.832031 20.433594 15.652344 C 19.179688 16.40625 18.210938 16.253906 17.847656 16.40625 C 17.464844 16.558594 17.199219 16.929688 17.199219 17.363281 L 17.199219 25.734375 C 16.105469 25.734375 15.171875 25.226562 14.585938 24.433594 C 14.585938 24.433594 14.582031 24.433594 14.582031 24.433594 C 14.351562 24.140625 14.121094 23.660156 14.023438 23.164062 C 13.941406 22.742188 13.96875 23.695312 13.96875 9.960938 C 13.96875 8.035156 15.53125 6.472656 17.457031 6.472656 C 19.007812 2.59375 22.769531 0.0078125 27.007812 0.0078125 C 33.160156 0.0078125 37.113281 -0.0390625 37.445312 0.125 C 38.445312 0.277344 39.4375 0.59375 40.226562 0.96875 C 40.242188 0.976562 40.484375 1.089844 40.496094 1.101562 C 43.855469 2.792969 46.164062 6.273438 46.164062 10.289062 Z M 46.164062 10.289062 "/>
<path style=" stroke:none;fill-rule:nonzero;fill:rgb(83.921569%,95.686275%,98.823529%);fill-opacity:1;" d="M 49.910156 53.859375 L 49.910156 58.964844 C 49.910156 59.539062 49.449219 60 48.878906 60 L 11.121094 60 C 10.550781 60 10.089844 59.539062 10.089844 58.964844 L 10.089844 53.859375 C 10.089844 48.527344 14.449219 44.300781 19.78125 44.246094 C 21.546875 44.230469 23.144531 43.359375 24.125 41.964844 C 28.617188 46.957031 27.585938 45.808594 29.230469 47.640625 C 29.640625 48.09375 30.359375 48.09375 30.769531 47.640625 C 32.246094 45.996094 31.039062 47.335938 35.875 41.964844 C 36.851562 43.355469 38.449219 44.230469 40.21875 44.246094 C 45.550781 44.300781 49.910156 48.527344 49.910156 53.859375 Z M 49.910156 53.859375 "/>
<path style=" stroke:none;fill-rule:nonzero;fill:rgb(90.980392%,97.254902%,98.823529%);fill-opacity:1;" d="M 38.15625 43.816406 C 38.140625 43.851562 36.863281 49.65625 36.871094 49.617188 C 36.703125 50.382812 35.738281 50.628906 35.222656 50.039062 C 31.828125 46.128906 32.292969 46.636719 31.949219 46.328125 L 35.875 41.960938 C 36.445312 42.773438 37.234375 43.421875 38.15625 43.816406 Z M 38.15625 43.816406 "/>
<path style=" stroke:none;fill-rule:nonzero;fill:rgb(90.980392%,97.254902%,98.823529%);fill-opacity:1;" d="M 24.125 41.964844 L 27.957031 46.226562 L 24.777344 49.996094 C 24.269531 50.597656 23.289062 50.355469 23.121094 49.585938 C 23.113281 49.546875 21.859375 43.851562 21.84375 43.816406 C 22.765625 43.421875 23.554688 42.773438 24.125 41.964844 Z M 24.125 41.964844 "/>
<path style=" stroke:none;fill-rule:nonzero;fill:rgb(100%,92.156863%,82.352941%);fill-opacity:1;" d="M 42.800781 26.140625 C 42.800781 33.214844 37.066406 38.941406 30 38.941406 C 22.933594 38.941406 17.199219 33.214844 17.199219 26.140625 C 17.199219 25.933594 17.199219 17.117188 17.199219 17.363281 C 17.199219 16.8125 17.628906 16.363281 18.179688 16.332031 C 20.273438 16.210938 22.035156 14.898438 22.671875 12.5 C 22.851562 11.816406 23.632812 11.507812 24.230469 11.882812 C 29.519531 15.226562 35.546875 17.171875 41.828125 17.546875 C 42.375 17.578125 42.800781 18.03125 42.800781 18.578125 Z M 42.800781 26.140625 "/>
<path style=" stroke:none;fill-rule:nonzero;fill:rgb(30.196078%,30.588235%,34.901961%);fill-opacity:1;" d="M 39.8125 3.886719 L 30.886719 3.886719 C 26.9375 3.886719 23.355469 6.144531 21.644531 9.660156 C 21.449219 10.058594 21.070312 10.332031 20.632812 10.421875 C 19.042969 10.746094 17.847656 12.152344 17.847656 13.839844 L 17.847656 16.40625 C 17.464844 16.558594 17.199219 16.929688 17.199219 17.363281 L 17.199219 23.503906 C 17.199219 24.957031 15.304688 25.527344 14.527344 24.355469 C 14.347656 24.117188 14.121094 23.632812 14.050781 23.285156 C 13.933594 22.78125 13.96875 23.753906 13.96875 9.960938 C 13.96875 8.035156 15.53125 6.472656 17.457031 6.472656 C 19.023438 2.558594 22.808594 0.0078125 27.007812 0.0078125 C 33.117188 0.0078125 37.113281 -0.0390625 37.445312 0.125 C 38.683594 0.3125 39.820312 0.769531 39.988281 0.863281 C 40.027344 0.878906 40.476562 1.082031 40.496094 1.101562 C 41.890625 1.804688 41.375 3.894531 39.8125 3.886719 Z M 39.8125 3.886719 "/>
<path style=" stroke:none;fill-rule:nonzero;fill:rgb(100%,83.921569%,65.098039%);fill-opacity:1;" d="M 35.058594 40.140625 C 31.875 41.476562 28.375 41.578125 24.941406 40.140625 C 25.117188 39.414062 25.085938 38.945312 25.085938 38.019531 L 25.105469 37.972656 C 28.21875 39.265625 31.773438 39.265625 34.894531 37.972656 L 34.914062 38.019531 C 34.914062 38.945312 34.882812 39.414062 35.058594 40.140625 Z M 35.058594 40.140625 "/>
<path style=" stroke:none;fill-rule:nonzero;fill:rgb(90.980392%,97.254902%,98.823529%);fill-opacity:1;" d="M 22.515625 46.84375 C 17.398438 47.078125 13.320312 51.300781 13.320312 56.476562 L 13.320312 60 L 11.121094 60 C 10.550781 60 10.089844 59.535156 10.089844 58.964844 L 10.089844 53.867188 C 10.089844 48.535156 14.453125 44.300781 19.785156 44.246094 C 20.515625 44.238281 21.210938 44.085938 21.84375 43.816406 C 21.859375 43.851562 22.507812 46.808594 22.515625 46.84375 Z M 22.515625 46.84375 "/>
<path style=" stroke:none;fill-rule:nonzero;fill:rgb(74.117647%,93.72549%,98.823529%);fill-opacity:1;" d="M 37.484375 46.84375 C 42.601562 47.078125 46.679688 51.300781 46.679688 56.476562 L 46.679688 60 L 48.878906 60 C 49.449219 60 49.910156 59.535156 49.910156 58.964844 L 49.910156 53.867188 C 49.910156 48.535156 45.546875 44.300781 40.214844 44.246094 C 39.484375 44.238281 38.789062 44.085938 38.15625 43.816406 C 38.140625 43.851562 37.492188 46.808594 37.484375 46.84375 Z M 37.484375 46.84375 "/>
<path style=" stroke:none;fill-rule:nonzero;fill:rgb(94.509804%,98.039216%,98.823529%);fill-opacity:1;" d="M 24.203125 47.394531 C 24.398438 48.269531 24.601562 49.199219 24.777344 49.992188 C 24.269531 50.597656 23.289062 50.355469 23.121094 49.585938 C 22.625 47.328125 21.855469 43.839844 21.84375 43.816406 C 22.765625 43.421875 23.554688 42.773438 24.125 41.964844 L 25.226562 43.191406 C 24.277344 44.375 23.875 45.90625 24.203125 47.394531 Z M 24.203125 47.394531 "/>
<path style=" stroke:none;fill-rule:nonzero;fill:rgb(100%,95.294118%,89.411765%);fill-opacity:1;" d="M 27.175781 14.730469 C 26.949219 16.5625 26.144531 18.207031 24.804688 19.203125 C 22.417969 20.976562 21.078125 23.832031 21.078125 26.804688 L 21.078125 30.019531 C 21.078125 31.9375 18.636719 32.285156 18.03125 30.6875 C 17.492188 29.277344 17.199219 27.742188 17.199219 26.140625 L 17.199219 17.363281 C 17.199219 16.8125 17.628906 16.363281 18.179688 16.332031 C 20.277344 16.210938 22.039062 14.894531 22.671875 12.496094 C 22.851562 11.816406 23.632812 11.507812 24.226562 11.882812 C 24.882812 12.296875 25.59375 12.714844 26.359375 13.132812 C 26.9375 13.445312 27.257812 14.082031 27.175781 14.730469 Z M 27.175781 14.730469 "/>
<path style=" stroke:none;fill-rule:nonzero;fill:rgb(99.607843%,30.980392%,37.647059%);fill-opacity:1;" d="M 31.949219 46.328125 L 33.878906 60 L 26.121094 60 L 27.957031 46.226562 L 29.230469 47.636719 C 29.640625 48.09375 30.359375 48.09375 30.769531 47.636719 Z M 31.949219 46.328125 "/>
<path style=" stroke:none;fill-rule:nonzero;fill:rgb(90.980392%,28.235294%,34.117647%);fill-opacity:1;" d="M 29.308594 47.726562 L 27.671875 60 L 26.121094 60 L 27.957031 46.226562 Z M 29.308594 47.726562 "/>
</g>
</svg>
