<?xml version="1.0" encoding="UTF-8"?>
<svg xmlns="http://www.w3.org/2000/svg" xmlns:xlink="http://www.w3.org/1999/xlink" width="60pt" height="60pt" viewBox="0 0 60 60" version="1.1">
<g id="surface1">
<path style=" stroke:none;fill-rule:nonzero;fill:rgb(100%,87.843137%,15.294118%);fill-opacity:1;" d="M 60 30 C 60 37.898438 56.945312 45.085938 51.953125 50.441406 C 49.632812 52.9375 10.191406 52.792969 7.859375 50.246094 C 2.980469 44.910156 0 37.800781 0 30 C 0 13.433594 13.433594 0 30 0 C 46.566406 0 60 13.433594 60 30 Z M 60 30 "/>
<path style=" stroke:none;fill-rule:nonzero;fill:rgb(97.647059%,74.117647%,0%);fill-opacity:1;" d="M 51.953125 50.441406 C 56.949219 45.085938 60 37.898438 60 30 C 60 29.25 59.972656 28.507812 59.917969 27.769531 L 39.421875 8.421875 L 22.980469 36.253906 C 22.980469 36.253906 31.984375 45.253906 38.835938 52.109375 C 45.664062 51.875 51.132812 51.324219 51.953125 50.441406 Z M 51.953125 50.441406 "/>
<path style=" stroke:none;fill-rule:nonzero;fill:rgb(71.764706%,46.666667%,6.666667%);fill-opacity:1;" d="M 22.921875 35.703125 L 19.671875 40.59375 L 8.90625 29.828125 C 8.121094 29.042969 8.113281 27.773438 8.894531 26.980469 L 10.089844 25.761719 C 10.878906 24.957031 12.171875 24.949219 12.964844 25.746094 Z M 22.921875 35.703125 "/>
<path style=" stroke:none;fill-rule:nonzero;fill:rgb(11.764706%,20.784314%,27.843137%);fill-opacity:1;" d="M 22.914062 26.4375 L 36.875 26.421875 L 36.890625 41.230469 L 22.929688 41.242188 Z M 22.914062 26.4375 "/>
<path style=" stroke:none;fill-rule:nonzero;fill:rgb(3.921569%,12.156863%,17.647059%);fill-opacity:1;" d="M 29.894531 26.429688 L 36.875 26.421875 L 36.890625 41.230469 L 29.910156 41.238281 Z M 29.894531 26.429688 "/>
<path style=" stroke:none;fill-rule:nonzero;fill:rgb(23.921569%,33.72549%,42.745098%);fill-opacity:1;" d="M 36.894531 49.488281 L 23.105469 49.488281 L 22.921875 35.703125 L 36.894531 35.703125 Z M 36.894531 49.488281 "/>
<path style=" stroke:none;fill-rule:nonzero;fill:rgb(11.764706%,20.784314%,27.843137%);fill-opacity:1;" d="M 30 35.703125 L 36.894531 35.703125 L 36.894531 49.488281 L 30 49.488281 Z M 30 35.703125 "/>
<path style=" stroke:none;fill-rule:nonzero;fill:rgb(23.921569%,33.72549%,42.745098%);fill-opacity:1;" d="M 41.3125 16.054688 C 41.175781 20.902344 39.878906 24.710938 37.835938 27.304688 C 35.796875 29.898438 33.015625 31.285156 29.914062 31.292969 L 29.890625 31.292969 C 23.691406 31.277344 18.765625 25.753906 18.492188 16.054688 C 18.46875 15.175781 18.5 14.363281 18.578125 13.609375 C 18.667969 12.785156 19.304688 12.390625 19.5 11.703125 C 19.660156 11.144531 19.367188 10.273438 19.589844 9.796875 C 21.761719 5.164062 26.644531 4.320312 29.902344 4.320312 C 33.164062 4.320312 38.046875 5.164062 40.214844 9.796875 C 40.464844 10.328125 40.226562 11.070312 40.398438 11.703125 C 40.570312 12.339844 41.144531 12.863281 41.226562 13.609375 C 41.308594 14.363281 41.339844 15.175781 41.3125 16.054688 Z M 41.3125 16.054688 "/>
<path style=" stroke:none;fill-rule:nonzero;fill:rgb(11.764706%,20.784314%,27.843137%);fill-opacity:1;" d="M 41.3125 16.054688 C 41.175781 20.902344 39.878906 24.710938 37.835938 27.304688 C 35.816406 29.875 33.066406 31.257812 30 31.289062 L 30 4.320312 C 33.257812 4.335938 38.070312 5.207031 40.214844 9.796875 C 40.464844 10.328125 40.226562 11.070312 40.398438 11.703125 C 40.570312 12.339844 41.144531 12.863281 41.226562 13.609375 C 41.308594 14.363281 41.339844 15.175781 41.3125 16.054688 Z M 41.3125 16.054688 "/>
<path style=" stroke:none;fill-rule:nonzero;fill:rgb(100%,79.215686%,54.117647%);fill-opacity:1;" d="M 34.785156 20.152344 L 25.019531 20.152344 C 23.539062 20.152344 22.335938 18.949219 22.335938 17.46875 L 22.335938 15.761719 C 22.335938 14.28125 23.539062 13.078125 25.019531 13.078125 L 34.785156 13.078125 C 36.269531 13.078125 37.472656 14.28125 37.472656 15.761719 L 37.472656 17.46875 C 37.472656 18.949219 36.269531 20.152344 34.785156 20.152344 Z M 34.785156 20.152344 "/>
<path style=" stroke:none;fill-rule:nonzero;fill:rgb(96.862745%,65.098039%,38.823529%);fill-opacity:1;" d="M 37.46875 15.761719 L 37.46875 17.464844 C 37.46875 18.949219 36.269531 20.152344 34.785156 20.152344 L 30 20.152344 L 30 13.078125 L 34.785156 13.078125 C 36.269531 13.078125 37.46875 14.277344 37.46875 15.761719 Z M 37.46875 15.761719 "/>
<path style=" stroke:none;fill-rule:nonzero;fill:rgb(100%,21.176471%,15.294118%);fill-opacity:1;" d="M 41.226562 13.609375 L 18.578125 13.609375 C 18.742188 12.117188 19.09375 10.859375 19.589844 9.796875 L 40.214844 9.796875 C 40.710938 10.859375 41.066406 12.117188 41.226562 13.609375 Z M 41.226562 13.609375 "/>
<path style=" stroke:none;fill-rule:nonzero;fill:rgb(82.745098%,10.196078%,8.627451%);fill-opacity:1;" d="M 41.226562 13.609375 L 30 13.609375 L 30 9.796875 L 40.214844 9.796875 C 40.710938 10.859375 41.066406 12.117188 41.226562 13.609375 Z M 41.226562 13.609375 "/>
<path style=" stroke:none;fill-rule:nonzero;fill:rgb(11.764706%,20.784314%,27.843137%);fill-opacity:1;" d="M 51.953125 45.238281 L 51.953125 50.441406 C 49.632812 52.9375 46.890625 55.035156 43.839844 56.621094 C 39.699219 58.78125 34.992188 60 30 60 C 24.957031 60 20.207031 58.757812 16.039062 56.558594 L 36.894531 35.703125 L 42.421875 35.703125 C 47.6875 35.703125 51.953125 39.972656 51.953125 45.238281 Z M 51.953125 45.238281 "/>
<path style=" stroke:none;fill-rule:nonzero;fill:rgb(3.921569%,12.156863%,17.647059%);fill-opacity:1;" d="M 51.953125 45.238281 L 51.953125 50.441406 C 49.632812 52.9375 46.890625 55.035156 43.839844 56.621094 C 39.699219 58.78125 34.992188 60 30 60 L 30 42.597656 L 36.894531 35.703125 L 42.421875 35.703125 C 47.6875 35.703125 51.953125 39.972656 51.953125 45.238281 Z M 51.953125 45.238281 "/>
<path style=" stroke:none;fill-rule:nonzero;fill:rgb(11.764706%,20.784314%,27.843137%);fill-opacity:1;" d="M 43.839844 56.621094 C 39.699219 58.78125 34.992188 60 30 60 C 21.234375 60 13.347656 56.242188 7.859375 50.246094 L 7.859375 45.238281 C 7.859375 39.972656 12.128906 35.703125 17.394531 35.703125 L 22.921875 35.703125 Z M 43.839844 56.621094 "/>
<path style=" stroke:none;fill-rule:nonzero;fill:rgb(7.058824%,15.294118%,20.784314%);fill-opacity:1;" d="M 43.839844 56.621094 C 39.699219 58.78125 34.992188 60 30 60 L 30 42.78125 Z M 43.839844 56.621094 "/>
</g>
</svg>
