<?xml version="1.0" encoding="UTF-8"?>
<svg xmlns="http://www.w3.org/2000/svg" xmlns:xlink="http://www.w3.org/1999/xlink" width="60pt" height="60pt" viewBox="0 0 60 60" version="1.1">
<g id="surface1">
<path style=" stroke:none;fill-rule:nonzero;fill:rgb(100%,34.509804%,24.313725%);fill-opacity:1;" d="M 48.902344 53.296875 C 55.671875 47.796875 60 39.402344 60 30 C 60 13.429688 46.570312 0 30 0 C 13.429688 0 0 13.429688 0 30 C 0 39.402344 4.328125 47.796875 11.097656 53.296875 Z M 48.902344 53.296875 "/>
<path style=" stroke:none;fill-rule:nonzero;fill:rgb(85.882353%,1.568627%,1.568627%);fill-opacity:1;" d="M 48.902344 53.296875 C 55.039062 48.3125 59.167969 40.953125 59.886719 32.621094 L 37.703125 10.429688 L 37.503906 10.234375 L 23.542969 20.789062 L 16.347656 13.597656 L 13.046875 20.058594 L 17.984375 24.996094 L 16.800781 25.886719 L 23.707031 32.792969 L 22.796875 33.484375 L 23.003906 33.699219 L 43.675781 54.363281 Z M 48.902344 53.296875 "/>
<path style=" stroke:none;fill-rule:nonzero;fill:rgb(91.372549%,92.941176%,96.078431%);fill-opacity:1;" d="M 25.15625 39.6875 C 24.972656 39.78125 24.777344 39.851562 24.570312 39.898438 L 17.804688 41.394531 C 15.894531 41.820312 14.351562 43.222656 13.75 45.085938 L 11.097656 53.296875 C 16.257812 57.488281 22.835938 60 30 60 C 30.109375 60 30.21875 59.996094 30.328125 59.996094 L 30.328125 39.6875 Z M 25.15625 39.6875 "/>
<path style=" stroke:none;fill-rule:nonzero;fill:rgb(80.392157%,82.352941%,88.235294%);fill-opacity:1;" d="M 48.902344 53.296875 L 46.25 45.085938 C 45.648438 43.222656 44.105469 41.820312 42.195312 41.394531 L 35.429688 39.898438 C 35.222656 39.851562 35.027344 39.78125 34.84375 39.6875 L 29.957031 39.6875 L 29.957031 60 C 29.972656 60 29.984375 60 30 60 C 37.164062 60 43.742188 57.488281 48.902344 53.296875 Z M 48.902344 53.296875 "/>
<path style=" stroke:none;fill-rule:nonzero;fill:rgb(25.490196%,28.627451%,32.156863%);fill-opacity:1;" d="M 27.597656 19.886719 C 27.597656 23.789062 24.433594 26.953125 20.53125 26.953125 C 16.628906 26.953125 13.464844 23.789062 13.464844 19.886719 C 13.464844 15.984375 16.628906 12.824219 20.53125 12.824219 C 24.433594 12.824219 27.597656 15.984375 27.597656 19.886719 Z M 27.597656 19.886719 "/>
<path style=" stroke:none;fill-rule:nonzero;fill:rgb(100%,74.509804%,66.666667%);fill-opacity:1;" d="M 33.550781 37.558594 L 33.550781 33.144531 L 26.449219 33.144531 L 26.449219 37.558594 C 26.449219 38.46875 25.933594 39.28125 25.15625 39.6875 L 30 48.0625 L 34.84375 39.6875 C 34.066406 39.28125 33.550781 38.46875 33.550781 37.558594 Z M 33.550781 37.558594 "/>
<path style=" stroke:none;fill-rule:nonzero;fill:rgb(98.039216%,65.098039%,55.686275%);fill-opacity:1;" d="M 34.84375 39.6875 C 34.066406 39.28125 33.550781 38.46875 33.550781 37.558594 L 33.550781 33.144531 L 29.957031 33.144531 L 29.957031 47.988281 L 30 48.0625 Z M 34.84375 39.6875 "/>
<path style=" stroke:none;fill-rule:nonzero;fill:rgb(100%,100%,100%);fill-opacity:1;" d="M 18.390625 18.15625 C 18.109375 17.929688 17.808594 17.753906 17.503906 17.621094 C 17.808594 17.492188 18.109375 17.3125 18.390625 17.089844 C 19.050781 16.5625 19.484375 15.875 19.652344 15.1875 C 18.945312 15.199219 18.179688 15.472656 17.519531 16 C 17.316406 16.164062 17.132812 16.339844 16.972656 16.527344 C 17.019531 16.285156 17.046875 16.035156 17.046875 15.773438 C 17.046875 14.925781 16.78125 14.160156 16.347656 13.597656 C 15.917969 14.160156 15.652344 14.925781 15.652344 15.773438 C 15.652344 16.035156 15.675781 16.285156 15.722656 16.527344 C 15.566406 16.339844 15.382812 16.164062 15.179688 16 C 14.519531 15.472656 13.753906 15.199219 13.046875 15.1875 C 13.214844 15.875 13.648438 16.5625 14.308594 17.089844 C 14.589844 17.3125 14.886719 17.492188 15.195312 17.621094 C 14.886719 17.753906 14.589844 17.929688 14.308594 18.15625 C 13.648438 18.683594 13.214844 19.371094 13.046875 20.058594 C 13.753906 20.042969 14.519531 19.773438 15.179688 19.246094 C 15.382812 19.082031 15.566406 18.90625 15.722656 18.714844 C 15.675781 18.957031 15.652344 19.210938 15.652344 19.472656 C 15.652344 20.316406 15.917969 21.085938 16.347656 21.648438 C 16.78125 21.085938 17.046875 20.316406 17.046875 19.472656 C 17.046875 19.210938 17.019531 18.957031 16.972656 18.714844 C 17.132812 18.90625 17.316406 19.082031 17.519531 19.246094 C 18.179688 19.773438 18.945312 20.042969 19.652344 20.058594 C 19.484375 19.371094 19.050781 18.683594 18.390625 18.15625 Z M 18.390625 18.15625 "/>
<path style=" stroke:none;fill-rule:nonzero;fill:rgb(33.333333%,35.294118%,40%);fill-opacity:1;" d="M 36.5 29.9375 C 38.929688 29.9375 40.929688 27.984375 40.941406 25.554688 C 40.941406 25.539062 40.941406 25.523438 40.941406 25.507812 L 40.941406 18.199219 C 40.941406 12.15625 36.042969 7.257812 30 7.257812 C 23.957031 7.257812 19.058594 12.15625 19.058594 18.199219 L 19.058594 25.507812 C 19.058594 25.523438 19.058594 25.539062 19.058594 25.554688 C 19.070312 27.984375 21.070312 29.9375 23.5 29.9375 Z M 36.5 29.9375 "/>
<path style=" stroke:none;fill-rule:nonzero;fill:rgb(20%,22.352941%,25.098039%);fill-opacity:1;" d="M 30 7.257812 C 29.984375 7.257812 29.972656 7.257812 29.957031 7.257812 L 29.957031 29.9375 L 36.5 29.9375 C 38.929688 29.9375 40.929688 27.984375 40.941406 25.554688 C 40.941406 25.539062 40.941406 25.523438 40.941406 25.507812 L 40.941406 18.199219 C 40.941406 12.15625 36.042969 7.257812 30 7.257812 Z M 30 7.257812 "/>
<path style=" stroke:none;fill-rule:nonzero;fill:rgb(100%,80.392157%,74.509804%);fill-opacity:1;" d="M 30 36.585938 C 24.523438 36.585938 20.085938 32.148438 20.085938 26.671875 L 20.085938 23.398438 C 20.085938 17.921875 24.523438 13.484375 30 13.484375 C 35.476562 13.484375 39.914062 17.921875 39.914062 23.398438 L 39.914062 26.671875 C 39.914062 32.148438 35.476562 36.585938 30 36.585938 Z M 30 36.585938 "/>
<path style=" stroke:none;fill-rule:nonzero;fill:rgb(100%,74.509804%,66.666667%);fill-opacity:1;" d="M 30 13.484375 C 29.984375 13.484375 29.972656 13.484375 29.957031 13.484375 L 29.957031 36.585938 C 29.972656 36.585938 29.984375 36.585938 30 36.585938 C 35.476562 36.585938 39.914062 32.148438 39.914062 26.671875 L 39.914062 23.398438 C 39.914062 17.921875 35.476562 13.484375 30 13.484375 Z M 30 13.484375 "/>
<path style=" stroke:none;fill-rule:nonzero;fill:rgb(100%,100%,100%);fill-opacity:1;" d="M 29.863281 47.742188 L 26.660156 47.742188 L 22.796875 39.828125 L 26.132812 38.199219 Z M 29.863281 47.742188 "/>
<path style=" stroke:none;fill-rule:nonzero;fill:rgb(91.372549%,92.941176%,96.078431%);fill-opacity:1;" d="M 30.136719 47.742188 L 33.339844 47.742188 L 37.203125 39.828125 L 33.867188 38.199219 Z M 30.136719 47.742188 "/>
<path style=" stroke:none;fill-rule:nonzero;fill:rgb(100%,80.784314%,0%);fill-opacity:1;" d="M 30.449219 46.433594 C 28.738281 46.1875 27.152344 47.378906 26.910156 49.089844 C 26.664062 50.800781 27.855469 52.382812 29.566406 52.625 C 31.277344 52.871094 32.859375 51.679688 33.105469 49.96875 C 33.347656 48.257812 32.160156 46.675781 30.449219 46.433594 Z M 30.449219 46.433594 "/>
<path style=" stroke:none;fill-rule:nonzero;fill:rgb(99.215686%,72.941176%,7.058824%);fill-opacity:1;" d="M 30 46.382812 C 29.984375 46.382812 29.972656 46.382812 29.957031 46.382812 L 29.957031 52.640625 C 29.972656 52.640625 29.984375 52.640625 30 52.640625 C 31.726562 52.640625 33.128906 51.238281 33.128906 49.511719 C 33.128906 47.785156 31.726562 46.382812 30 46.382812 Z M 30 46.382812 "/>
<path style=" stroke:none;fill-rule:nonzero;fill:rgb(100%,80.784314%,0%);fill-opacity:1;" d="M 31.019531 56.097656 C 31.019531 56.660156 30.5625 57.117188 30 57.117188 C 29.4375 57.117188 28.980469 56.660156 28.980469 56.097656 C 28.980469 55.535156 29.4375 55.078125 30 55.078125 C 30.5625 55.078125 31.019531 55.535156 31.019531 56.097656 Z M 31.019531 56.097656 "/>
<path style=" stroke:none;fill-rule:nonzero;fill:rgb(99.215686%,72.941176%,7.058824%);fill-opacity:1;" d="M 30 55.078125 C 29.984375 55.078125 29.972656 55.082031 29.957031 55.082031 L 29.957031 57.113281 C 29.972656 57.113281 29.984375 57.117188 30 57.117188 C 30.5625 57.117188 31.019531 56.660156 31.019531 56.097656 C 31.019531 55.535156 30.5625 55.078125 30 55.078125 Z M 30 55.078125 "/>
<path style=" stroke:none;fill-rule:nonzero;fill:rgb(100%,63.921569%,0%);fill-opacity:1;" d="M 34.84375 52.640625 C 34.84375 52.003906 33.761719 51.488281 32.421875 51.488281 C 31.085938 51.488281 30 52.003906 30 52.640625 C 30 53.277344 31.085938 53.792969 32.421875 53.792969 C 33.761719 53.792969 34.84375 53.277344 34.84375 52.640625 Z M 34.84375 52.640625 "/>
<path style=" stroke:none;fill-rule:nonzero;fill:rgb(99.215686%,72.941176%,7.058824%);fill-opacity:1;" d="M 30 52.640625 C 30 52.003906 28.914062 51.488281 27.578125 51.488281 C 26.238281 51.488281 25.15625 52.003906 25.15625 52.640625 C 25.15625 53.277344 26.238281 53.792969 27.578125 53.792969 C 28.914062 53.792969 30 53.277344 30 52.640625 Z M 30 52.640625 "/>
</g>
</svg>
