<?xml version="1.0" encoding="UTF-8"?>
<svg xmlns="http://www.w3.org/2000/svg" xmlns:xlink="http://www.w3.org/1999/xlink" width="60pt" height="60pt" viewBox="0 0 60 60" version="1.1">
<g id="surface1">
<path style=" stroke:none;fill-rule:nonzero;fill:rgb(40%,70.588235%,61.568627%);fill-opacity:1;" d="M 59.121094 30 C 59.121094 40.472656 53.589844 49.65625 45.292969 54.789062 C 40.847656 57.535156 35.609375 59.121094 30 59.121094 C 26.894531 59.121094 23.902344 58.632812 21.097656 57.734375 C 18.832031 57.007812 16.6875 56.011719 14.703125 54.78125 C 6.40625 49.652344 0.878906 40.46875 0.878906 30 C 0.878906 13.917969 13.917969 0.878906 30 0.878906 C 46.082031 0.878906 59.121094 13.917969 59.121094 30 Z M 59.121094 30 "/>
<path style=" stroke:none;fill-rule:nonzero;fill:rgb(52.54902%,94.509804%,65.490196%);fill-opacity:1;" d="M 54.273438 34.847656 C 54.273438 43.578125 49.664062 51.230469 42.746094 55.507812 C 39.042969 57.800781 34.675781 59.121094 30 59.121094 C 27.414062 59.121094 24.917969 58.714844 22.582031 57.964844 C 20.691406 57.359375 18.902344 56.53125 17.25 55.503906 C 10.332031 51.226562 5.726562 43.574219 5.726562 34.847656 C 5.726562 21.441406 16.59375 10.574219 30 10.574219 C 43.40625 10.574219 54.273438 21.441406 54.273438 34.847656 Z M 54.273438 34.847656 "/>
<path style=" stroke:none;fill-rule:nonzero;fill:rgb(98.823529%,81.568627%,63.921569%);fill-opacity:1;" d="M 32.371094 52.703125 L 27.621094 52.703125 C 25.492188 52.703125 23.765625 50.976562 23.765625 48.847656 L 23.765625 43.074219 L 36.226562 43.074219 L 36.226562 48.847656 C 36.226562 50.976562 34.5 52.703125 32.371094 52.703125 Z M 32.371094 52.703125 "/>
<path style=" stroke:none;fill-rule:nonzero;fill:rgb(100%,72.54902%,51.372549%);fill-opacity:1;" d="M 44.695312 35.789062 L 44.71875 35.789062 C 46.484375 35.789062 47.917969 34.355469 47.917969 32.585938 C 47.917969 30.820312 46.484375 29.386719 44.71875 29.386719 C 44.695312 29.386719 44.671875 29.386719 44.648438 29.386719 L 15.34375 29.386719 C 15.320312 29.386719 15.296875 29.386719 15.273438 29.386719 C 13.507812 29.386719 12.074219 30.820312 12.074219 32.585938 C 12.074219 34.355469 13.507812 35.789062 15.273438 35.789062 L 15.296875 35.789062 "/>
<path style=" stroke:none;fill-rule:nonzero;fill:rgb(86.666667%,38.823529%,43.137255%);fill-opacity:1;" d="M 45.292969 51.671875 L 45.292969 54.789062 C 40.847656 57.535156 35.609375 59.121094 30 59.121094 C 26.894531 59.121094 23.90625 58.636719 21.097656 57.734375 C 18.832031 57.007812 16.6875 56.011719 14.703125 54.78125 L 14.703125 51.671875 C 14.703125 48.785156 18.699219 47.3125 21.382812 46.652344 C 21.882812 46.527344 22.335938 46.433594 22.710938 46.363281 C 23.355469 46.238281 23.765625 46.1875 23.765625 46.1875 L 36.226562 46.1875 C 36.226562 46.1875 36.917969 46.273438 37.917969 46.492188 C 40.542969 47.058594 45.292969 48.527344 45.292969 51.671875 Z M 45.292969 51.671875 "/>
<path style=" stroke:none;fill-rule:nonzero;fill:rgb(77.647059%,23.921569%,30.980392%);fill-opacity:1;" d="M 21.097656 57.734375 C 18.832031 57.007812 16.6875 56.011719 14.703125 54.78125 L 14.703125 51.671875 C 14.703125 48.785156 18.699219 47.3125 21.382812 46.652344 C 20.9375 47.847656 20.859375 52.820312 21.097656 57.734375 Z M 21.097656 57.734375 "/>
<path style=" stroke:none;fill-rule:nonzero;fill:rgb(98.823529%,81.568627%,63.921569%);fill-opacity:1;" d="M 43.960938 21.03125 C 34.652344 20.125 25.339844 20.125 16.03125 21.03125 C 15.308594 26.816406 15.097656 32.605469 15.394531 38.394531 C 15.609375 42.609375 18.980469 45.960938 23.195312 46.160156 C 27.730469 46.375 32.261719 46.375 36.796875 46.160156 C 41.011719 45.960938 44.382812 42.609375 44.597656 38.394531 C 44.894531 32.605469 44.683594 26.816406 43.960938 21.03125 Z M 43.960938 21.03125 "/>
<path style=" stroke:none;fill-rule:nonzero;fill:rgb(100%,72.54902%,51.372549%);fill-opacity:1;" d="M 16.03125 21.027344 C 20.6875 20.578125 25.339844 20.351562 29.996094 20.351562 C 27.640625 20.351562 25.28125 20.578125 22.925781 21.035156 C 22.558594 26.878906 22.453125 32.722656 22.601562 38.566406 C 22.703125 42.414062 24.105469 45.546875 25.953125 46.265625 C 25.03125 46.238281 24.113281 46.203125 23.195312 46.160156 C 18.980469 45.960938 15.609375 42.609375 15.394531 38.394531 C 15.097656 32.605469 15.308594 26.816406 16.03125 21.027344 Z M 16.03125 21.027344 "/>
<path style=" stroke:none;fill-rule:nonzero;fill:rgb(100%,72.54902%,51.372549%);fill-opacity:1;" d="M 37.917969 46.488281 C 37.808594 49.820312 34.445312 52.492188 30.316406 52.492188 C 26.132812 52.492188 22.738281 49.75 22.710938 46.363281 C 23.355469 46.238281 23.765625 46.1875 23.765625 46.1875 L 36.226562 46.1875 C 36.226562 46.1875 36.917969 46.273438 37.917969 46.488281 Z M 37.917969 46.488281 "/>
<path style=" stroke:none;fill-rule:nonzero;fill:rgb(38.039216%,47.058824%,50.588235%);fill-opacity:1;" d="M 44.570312 26.792969 C 41.597656 29.765625 35.710938 23.820312 35.710938 23.820312 C 35.878906 24.898438 35.574219 25.945312 34.410156 26.78125 C 33.582031 27.371094 32.648438 27.628906 31.679688 27.667969 C 27.800781 27.824219 23.402344 24.414062 23.402344 24.414062 C 22.621094 26.566406 20.308594 26.523438 18.394531 26.050781 C 16.632812 25.617188 15.140625 24.449219 14.292969 22.847656 C 12.832031 20.089844 10.851562 15.425781 12.871094 13.40625 C 15.828125 10.449219 19.496094 13.40625 19.496094 13.40625 C 19.496094 13.40625 23.0625 12.070312 27.609375 11.121094 C 27.613281 11.121094 27.613281 11.121094 27.617188 11.121094 C 33.058594 9.988281 39.910156 9.410156 43.757812 12.34375 C 47.730469 15.371094 47.542969 23.820312 44.570312 26.792969 Z M 44.570312 26.792969 "/>
<path style=" stroke:none;fill-rule:nonzero;fill:rgb(25.098039%,29.019608%,29.019608%);fill-opacity:1;" d="M 31.679688 27.667969 C 27.800781 27.824219 23.402344 24.414062 23.402344 24.414062 C 22.621094 26.566406 20.308594 26.523438 18.394531 26.050781 C 16.632812 25.617188 15.140625 24.449219 14.292969 22.847656 C 12.832031 20.089844 10.851562 15.425781 12.871094 13.40625 C 15.828125 10.449219 19.496094 13.40625 19.496094 13.40625 C 19.496094 13.40625 23.0625 12.070312 27.609375 11.121094 C 21.730469 12.667969 26.550781 25.828125 31.679688 27.667969 Z M 31.679688 27.667969 "/>
<path style=" stroke:none;fill-rule:nonzero;fill:rgb(0%,0%,0%);fill-opacity:1;" d="M 24.511719 31.464844 C 24.511719 30.371094 23.914062 29.480469 23.183594 29.480469 C 22.449219 29.480469 21.851562 30.371094 21.851562 31.464844 C 21.851562 32.554688 22.449219 33.445312 23.183594 33.445312 C 23.914062 33.445312 24.511719 32.554688 24.511719 31.464844 Z M 24.511719 31.464844 "/>
<path style=" stroke:none;fill-rule:nonzero;fill:rgb(0%,0%,0%);fill-opacity:1;" d="M 38.140625 31.464844 C 38.140625 30.367188 37.546875 29.480469 36.808594 29.480469 C 36.074219 29.480469 35.480469 30.367188 35.480469 31.464844 C 35.480469 32.558594 36.074219 33.445312 36.808594 33.445312 C 37.546875 33.445312 38.140625 32.558594 38.140625 31.464844 Z M 38.140625 31.464844 "/>
<path style=" stroke:none;fill-rule:nonzero;fill:rgb(0%,0%,0%);fill-opacity:1;" d="M 29.996094 39.164062 C 31.625 39.164062 33.132812 38.210938 33.832031 36.738281 C 34.039062 36.296875 33.851562 35.773438 33.414062 35.566406 C 32.976562 35.359375 32.453125 35.542969 32.242188 35.984375 C 31.832031 36.847656 30.953125 37.40625 29.996094 37.40625 C 29.039062 37.40625 28.15625 36.847656 27.75 35.984375 C 27.539062 35.542969 27.015625 35.359375 26.578125 35.566406 C 26.140625 35.773438 25.953125 36.296875 26.160156 36.738281 C 26.859375 38.210938 28.367188 39.164062 29.996094 39.164062 Z M 29.996094 39.164062 "/>
<path style=" stroke:none;fill-rule:nonzero;fill:rgb(0%,0%,0%);fill-opacity:1;" d="M 51.214844 8.785156 C 45.546875 3.121094 38.015625 0 30 0 C 25.476562 0 21.128906 0.980469 17.074219 2.917969 C 16.636719 3.128906 16.453125 3.652344 16.664062 4.089844 C 16.871094 4.53125 17.398438 4.714844 17.835938 4.503906 C 21.648438 2.683594 25.742188 1.757812 30 1.757812 C 37.542969 1.757812 44.636719 4.695312 49.96875 10.03125 C 55.304688 15.363281 58.242188 22.457031 58.242188 30 C 58.242188 34.902344 56.96875 39.730469 54.554688 43.960938 C 52.480469 47.601562 49.601562 50.753906 46.167969 53.15625 L 46.167969 51.671875 C 46.167969 48.917969 43.390625 47.324219 41.0625 46.472656 C 40.792969 46.375 40.523438 46.285156 40.257812 46.199219 C 43.222656 44.824219 45.300781 41.902344 45.476562 38.441406 C 45.507812 37.820312 45.53125 37.203125 45.550781 36.582031 C 47.402344 36.195312 48.796875 34.550781 48.796875 32.585938 C 48.796875 30.601562 47.371094 28.945312 45.492188 28.582031 C 45.46875 28.113281 45.445312 27.644531 45.414062 27.175781 C 46.980469 25.414062 47.839844 22.242188 47.617188 18.96875 C 47.402344 15.761719 46.191406 13.089844 44.289062 11.644531 C 37.488281 6.457031 22.460938 11.421875 19.628906 12.425781 C 19.191406 12.140625 18.445312 11.714844 17.535156 11.453125 C 15.527344 10.875 13.699219 11.335938 12.25 12.785156 C 9.9375 15.097656 11.660156 19.757812 13.515625 23.257812 C 13.84375 23.878906 14.261719 24.441406 14.742188 24.933594 C 14.636719 26.144531 14.558594 27.363281 14.5 28.582031 C 12.621094 28.945312 11.195312 30.601562 11.195312 32.585938 C 11.195312 34.550781 12.589844 36.195312 14.4375 36.582031 C 14.457031 37.203125 14.484375 37.820312 14.515625 38.441406 C 14.691406 41.902344 16.769531 44.824219 19.734375 46.199219 C 19.46875 46.285156 19.199219 46.375 18.929688 46.472656 C 16.601562 47.324219 13.824219 48.917969 13.824219 51.671875 L 13.824219 53.148438 C 10.394531 50.746094 7.515625 47.597656 5.441406 43.957031 C 3.03125 39.726562 1.757812 34.898438 1.757812 30 C 1.757812 20.425781 6.550781 11.578125 14.578125 6.335938 C 14.984375 6.070312 15.097656 5.527344 14.832031 5.121094 C 14.566406 4.714844 14.023438 4.601562 13.617188 4.867188 C 5.089844 10.433594 0 19.828125 0 30 C 0 35.203125 1.355469 40.332031 3.914062 44.828125 C 6.398438 49.1875 9.96875 52.890625 14.238281 55.53125 C 16.300781 56.808594 18.519531 57.832031 20.828125 58.570312 C 23.78125 59.519531 26.867188 60 30 60 C 35.582031 60 41.027344 58.457031 45.753906 55.535156 C 50.027344 52.894531 53.597656 49.191406 56.082031 44.832031 C 58.644531 40.335938 60 35.207031 60 30 C 60 21.984375 56.878906 14.453125 51.214844 8.785156 Z M 47.039062 32.585938 C 47.039062 33.558594 46.441406 34.390625 45.59375 34.734375 C 45.613281 33.300781 45.601562 31.863281 45.5625 30.425781 C 46.425781 30.765625 47.039062 31.605469 47.039062 32.585938 Z M 13.492188 14.027344 C 15.847656 11.671875 18.824219 13.992188 18.945312 14.089844 C 19.1875 14.285156 19.515625 14.339844 19.804688 14.230469 C 19.847656 14.214844 24.089844 12.632812 29.132812 11.71875 C 33.6875 10.894531 39.828125 10.453125 43.226562 13.042969 C 44.722656 14.179688 45.683594 16.386719 45.867188 19.085938 C 46.058594 21.984375 45.289062 24.832031 43.949219 26.171875 C 43.5625 26.558594 43.089844 26.746094 42.507812 26.746094 C 42.503906 26.746094 42.503906 26.746094 42.5 26.746094 C 40.324219 26.742188 37.3125 24.1875 36.335938 23.203125 C 36.070312 22.933594 35.65625 22.863281 35.316406 23.035156 C 34.976562 23.207031 34.785156 23.578125 34.84375 23.957031 C 34.980469 24.835938 34.679688 25.507812 33.898438 26.066406 C 30.339844 28.605469 24.003906 23.769531 23.941406 23.71875 C 23.785156 23.597656 23.597656 23.535156 23.402344 23.535156 C 23.320312 23.535156 23.238281 23.546875 23.160156 23.570312 C 22.890625 23.648438 22.671875 23.847656 22.578125 24.113281 C 22.40625 24.582031 21.886719 26.007812 18.605469 25.199219 C 17.089844 24.824219 15.800781 23.820312 15.070312 22.4375 C 12.902344 18.347656 12.3125 15.207031 13.492188 14.027344 Z M 12.953125 32.585938 C 12.953125 31.605469 13.566406 30.765625 14.429688 30.425781 C 14.386719 31.863281 14.375 33.300781 14.394531 34.734375 C 13.550781 34.386719 12.953125 33.558594 12.953125 32.585938 Z M 16.269531 38.351562 C 16.0625 34.320312 16.109375 30.242188 16.402344 26.207031 C 16.957031 26.515625 17.554688 26.75 18.183594 26.90625 C 21.355469 27.6875 22.925781 26.753906 23.703125 25.703125 C 25.179688 26.695312 28.363281 28.554688 31.429688 28.554688 C 32.648438 28.554688 33.851562 28.257812 34.921875 27.496094 C 35.644531 26.976562 36.148438 26.347656 36.410156 25.628906 C 36.722656 25.882812 37.074219 26.15625 37.457031 26.433594 C 39.355469 27.804688 41.050781 28.5 42.496094 28.503906 L 42.507812 28.503906 C 42.9375 28.503906 43.34375 28.445312 43.722656 28.324219 C 43.890625 31.65625 43.890625 35.023438 43.722656 38.351562 C 43.527344 42.125 40.53125 45.105469 36.753906 45.285156 C 32.269531 45.496094 27.722656 45.496094 23.238281 45.285156 C 19.457031 45.105469 16.464844 42.125 16.269531 38.351562 Z M 21.367188 56.898438 C 19.347656 56.25 17.402344 55.371094 15.582031 54.285156 L 15.582031 51.671875 C 15.582031 49.941406 17.71875 48.792969 19.511719 48.132812 C 20.355469 47.824219 21.210938 47.589844 21.9375 47.421875 C 22.578125 50.785156 26.097656 53.371094 30.316406 53.371094 C 31.378906 53.371094 32.414062 53.210938 33.394531 52.890625 C 33.859375 52.742188 34.109375 52.246094 33.960938 51.785156 C 33.8125 51.324219 33.316406 51.070312 32.855469 51.21875 C 32.046875 51.480469 31.195312 51.613281 30.316406 51.613281 C 26.945312 51.613281 24.136719 49.640625 23.664062 47.089844 C 23.730469 47.078125 23.78125 47.070312 23.816406 47.066406 C 25.867188 47.152344 27.933594 47.199219 29.996094 47.199219 C 32.058594 47.199219 34.125 47.152344 36.175781 47.066406 C 36.398438 47.09375 36.660156 47.136719 36.949219 47.1875 C 36.78125 47.992188 36.375 48.753906 35.757812 49.425781 C 35.425781 49.78125 35.445312 50.335938 35.804688 50.667969 C 35.972656 50.824219 36.1875 50.902344 36.402344 50.902344 C 36.636719 50.902344 36.871094 50.808594 37.046875 50.621094 C 37.882812 49.71875 38.429688 48.679688 38.667969 47.570312 C 41.25 48.253906 44.410156 49.578125 44.410156 51.671875 L 44.410156 54.292969 C 40.0625 56.878906 35.089844 58.242188 30 58.242188 C 27.050781 58.242188 24.144531 57.789062 21.367188 56.898438 Z M 21.367188 56.898438 "/>
</g>
</svg>
