<?xml version="1.0" encoding="UTF-8"?>
<svg xmlns="http://www.w3.org/2000/svg" xmlns:xlink="http://www.w3.org/1999/xlink" width="60pt" height="60pt" viewBox="0 0 60 60" version="1.1">
<g id="surface1">
<path style=" stroke:none;fill-rule:nonzero;fill:rgb(35.294118%,67.058824%,37.254902%);fill-opacity:1;" d="M 55.457031 44.574219 C 57.535156 40.601562 58.710938 36.082031 58.710938 31.289062 C 58.710938 15.433594 45.855469 2.578125 30 2.578125 C 14.144531 2.578125 1.289062 15.433594 1.289062 31.289062 C 1.289062 36.082031 2.464844 40.601562 4.542969 44.574219 Z M 55.457031 44.574219 "/>
<path style=" stroke:none;fill-rule:nonzero;fill:rgb(40%,32.54902%,39.215686%);fill-opacity:1;" d="M 27.847656 0.132812 C 21.382812 1.015625 20.769531 4.679688 20.765625 6.023438 C 20.765625 6.308594 20.609375 6.570312 20.355469 6.691406 C 16.992188 8.328125 18.804688 16.210938 18.804688 16.210938 C 19.144531 16.234375 19.496094 16.371094 19.761719 16.5 C 19.824219 16.097656 19.929688 15.699219 20.078125 15.320312 C 20.191406 15.027344 20.332031 14.734375 20.511719 14.457031 C 20.820312 13.972656 20.957031 13.402344 20.917969 12.835938 C 20.796875 11.191406 20.855469 7.949219 23.027344 6.972656 C 24.863281 6.144531 27.121094 6.625 28.558594 7.101562 C 29.492188 7.414062 30.507812 7.414062 31.441406 7.101562 C 32.878906 6.625 35.136719 6.144531 36.976562 6.972656 C 39.140625 7.945312 39.203125 11.171875 39.085938 12.820312 C 39.042969 13.394531 39.179688 13.96875 39.488281 14.453125 C 39.671875 14.742188 39.816406 15.046875 39.933594 15.347656 C 40.074219 15.71875 40.175781 16.105469 40.238281 16.5 C 40.574219 16.335938 41.046875 16.160156 41.453125 16.21875 C 41.503906 14.496094 41.664062 12.636719 41.664062 12.636719 C 43.578125 3.253906 34.808594 -0.8125 27.847656 0.132812 Z M 27.847656 0.132812 "/>
<path style=" stroke:none;fill-rule:nonzero;fill:rgb(32.941176%,24.313725%,35.686275%);fill-opacity:1;" d="M 27.847656 0.132812 C 21.382812 1.015625 20.769531 4.679688 20.765625 6.023438 C 20.765625 6.308594 20.609375 6.566406 20.355469 6.691406 C 16.992188 8.328125 18.804688 16.210938 18.804688 16.210938 C 19.144531 16.234375 19.496094 16.371094 19.761719 16.5 C 19.824219 16.097656 19.929688 15.699219 20.078125 15.320312 C 20.191406 15.027344 20.335938 14.734375 20.511719 14.453125 C 20.820312 13.972656 20.957031 13.402344 20.917969 12.835938 C 20.796875 11.191406 20.855469 7.949219 23.027344 6.972656 C 24.777344 6.183594 26.902344 6.582031 28.34375 7.03125 C 28.332031 7.007812 28.320312 6.984375 28.304688 6.960938 C 25.898438 2.753906 29.972656 0.0976562 30.117188 0.00390625 C 29.351562 -0.0117188 28.589844 0.03125 27.847656 0.132812 Z M 27.847656 0.132812 "/>
<path style=" stroke:none;fill-rule:nonzero;fill:rgb(98.823529%,67.843137%,42.745098%);fill-opacity:1;" d="M 42.179688 16.441406 C 41.675781 15.980469 40.671875 16.214844 40.238281 16.5 C 40.335938 17.089844 40.339844 17.695312 40.257812 18.292969 L 39.746094 22.019531 C 39.746094 22.320312 39.738281 22.613281 39.71875 22.90625 C 40.96875 23.28125 41.585938 22.160156 41.691406 21.390625 C 41.738281 21.0625 41.808594 20.734375 41.910156 20.417969 C 42.242188 19.378906 43.441406 17.597656 42.179688 16.441406 Z M 42.179688 16.441406 "/>
<path style=" stroke:none;fill-rule:nonzero;fill:rgb(99.215686%,60%,35.686275%);fill-opacity:1;" d="M 41.097656 19.582031 C 40.738281 19.582031 40.402344 19.476562 40.121094 19.300781 L 39.746094 22.019531 C 39.746094 22.320312 39.738281 22.613281 39.71875 22.90625 C 40.96875 23.28125 41.585938 22.160156 41.691406 21.390625 C 41.738281 21.0625 41.808594 20.734375 41.914062 20.417969 C 42.042969 20.011719 42.304688 19.492188 42.5 18.941406 C 42.160156 19.332031 41.65625 19.582031 41.097656 19.582031 Z M 41.097656 19.582031 "/>
<path style=" stroke:none;fill-rule:nonzero;fill:rgb(98.823529%,67.843137%,42.745098%);fill-opacity:1;" d="M 17.820312 16.441406 C 18.324219 15.980469 19.328125 16.214844 19.761719 16.5 C 19.664062 17.089844 19.660156 17.695312 19.742188 18.292969 L 20.253906 22.019531 C 20.253906 22.320312 20.261719 22.613281 20.28125 22.90625 C 19.03125 23.28125 18.414062 22.160156 18.308594 21.390625 C 18.261719 21.0625 18.191406 20.734375 18.085938 20.417969 C 17.757812 19.378906 16.558594 17.597656 17.820312 16.441406 Z M 17.820312 16.441406 "/>
<path style=" stroke:none;fill-rule:nonzero;fill:rgb(99.215686%,60%,35.686275%);fill-opacity:1;" d="M 19.863281 19.167969 C 19.542969 19.425781 19.136719 19.582031 18.695312 19.582031 C 18.289062 19.582031 17.914062 19.449219 17.609375 19.230469 C 17.785156 19.671875 17.980469 20.082031 18.085938 20.417969 C 18.191406 20.734375 18.261719 21.0625 18.308594 21.390625 C 18.414062 22.160156 19.03125 23.28125 20.28125 22.90625 C 20.261719 22.613281 20.253906 22.320312 20.253906 22.019531 Z M 19.863281 19.167969 "/>
<path style=" stroke:none;fill-rule:nonzero;fill:rgb(98.823529%,67.843137%,42.745098%);fill-opacity:1;" d="M 23.632812 36.917969 C 24.320312 38.582031 25.535156 40.144531 27.25 41.566406 C 27.457031 41.742188 27.585938 41.996094 27.59375 42.269531 L 27.601562 42.433594 L 32.398438 42.433594 L 32.40625 42.269531 C 32.414062 41.996094 32.542969 41.742188 32.75 41.566406 C 34.464844 40.144531 35.679688 38.582031 36.367188 36.917969 C 36.839844 35.769531 36.972656 34.785156 36.984375 34.078125 C 36.601562 32.953125 36.472656 31.683594 36.4375 30.671875 C 35.785156 31.429688 35.105469 32.0625 34.453125 32.570312 C 33.183594 33.554688 31.613281 34.09375 30 34.09375 C 28.386719 34.09375 26.816406 33.554688 25.546875 32.570312 C 24.894531 32.0625 24.214844 31.429688 23.5625 30.671875 C 23.527344 31.683594 23.398438 32.953125 23.015625 34.078125 C 23.027344 34.785156 23.160156 35.769531 23.632812 36.917969 Z M 23.632812 36.917969 "/>
<path style=" stroke:none;fill-rule:nonzero;fill:rgb(99.215686%,60%,35.686275%);fill-opacity:1;" d="M 30 34.09375 C 28.386719 34.09375 26.816406 33.554688 25.546875 32.570312 C 24.894531 32.0625 24.214844 31.429688 23.5625 30.671875 C 23.527344 31.679688 23.398438 32.953125 23.015625 34.078125 C 23.027344 34.785156 23.160156 35.769531 23.632812 36.917969 C 24.320312 38.582031 25.535156 40.144531 27.25 41.566406 C 27.265625 41.578125 27.277344 41.59375 27.292969 41.609375 C 29.84375 39.222656 30 34.09375 30 34.09375 Z M 30 34.09375 "/>
<path style=" stroke:none;fill-rule:nonzero;fill:rgb(74.509804%,78.431373%,96.862745%);fill-opacity:1;" d="M 32.316406 56.753906 C 34.78125 52.394531 36.351562 48.082031 37.355469 44.277344 C 36.972656 44.863281 36.613281 45.390625 36.304688 45.828125 C 36.140625 46.0625 35.882812 46.199219 35.597656 46.207031 C 35.308594 46.207031 35.046875 46.082031 34.871094 45.855469 L 33.863281 44.539062 L 32.832031 46.375 C 32.566406 46.90625 32.03125 47.238281 31.433594 47.238281 L 28.585938 47.238281 C 27.988281 47.238281 27.453125 46.90625 27.1875 46.375 L 26.144531 44.523438 L 25.128906 45.855469 C 24.953125 46.082031 24.6875 46.207031 24.402344 46.207031 C 24.117188 46.199219 23.859375 46.0625 23.695312 45.828125 C 23.386719 45.390625 23.027344 44.863281 22.644531 44.277344 C 23.648438 48.078125 25.21875 52.394531 27.6875 56.753906 Z M 32.316406 56.753906 "/>
<path style=" stroke:none;fill-rule:nonzero;fill:rgb(32.941176%,24.313725%,35.686275%);fill-opacity:1;" d="M 31.433594 47.238281 L 28.585938 47.238281 C 28.449219 47.238281 28.3125 47.21875 28.183594 47.1875 C 27.429688 49.203125 26.933594 52.191406 26.609375 54.75 C 27.492188 56.488281 28.511719 58.25 29.6875 59.996094 C 29.792969 59.996094 29.894531 60 30 60 C 30.105469 60 30.207031 59.996094 30.3125 59.996094 C 31.542969 58.167969 32.601562 56.324219 33.511719 54.503906 C 33.1875 52 32.695312 49.105469 31.957031 47.148438 C 31.792969 47.207031 31.617188 47.238281 31.433594 47.238281 Z M 31.433594 47.238281 "/>
<path style=" stroke:none;fill-rule:nonzero;fill:rgb(32.941176%,24.313725%,35.686275%);fill-opacity:1;" d="M 31.433594 47.238281 L 28.585938 47.238281 C 28.449219 47.238281 28.3125 47.21875 28.183594 47.1875 C 27.429688 49.203125 26.933594 52.191406 26.609375 54.75 C 27.492188 56.488281 28.511719 58.25 29.6875 59.996094 C 29.792969 59.996094 29.894531 60 30 60 C 30.105469 60 30.207031 59.996094 30.3125 59.996094 C 31.542969 58.167969 32.601562 56.324219 33.511719 54.503906 C 33.1875 52 32.695312 49.105469 31.957031 47.148438 C 31.792969 47.207031 31.617188 47.238281 31.433594 47.238281 Z M 31.433594 47.238281 "/>
<path style=" stroke:none;fill-rule:nonzero;fill:rgb(25.882353%,16.078431%,32.54902%);fill-opacity:1;" d="M 30.011719 52.914062 C 28.808594 52.914062 27.75 52.308594 27.121094 51.386719 C 26.914062 52.515625 26.746094 53.671875 26.609375 54.75 C 27.492188 56.488281 28.515625 58.25 29.6875 59.996094 C 29.792969 59.996094 29.894531 60 30 60 C 30.105469 60 30.207031 59.996094 30.3125 59.996094 C 31.542969 58.167969 32.601562 56.324219 33.511719 54.503906 C 33.375 53.449219 33.207031 52.324219 33.003906 51.226562 C 32.390625 52.238281 31.28125 52.914062 30.011719 52.914062 Z M 30.011719 52.914062 "/>
<path style=" stroke:none;fill-rule:nonzero;fill:rgb(40%,32.54902%,39.215686%);fill-opacity:1;" d="M 32.507812 42.265625 C 31 42.265625 29.132812 42.265625 27.621094 42.265625 L 26.058594 44.730469 L 27.03125 46.679688 C 27.328125 47.265625 27.929688 47.636719 28.585938 47.636719 L 31.433594 47.636719 C 32.089844 47.636719 32.691406 47.265625 32.984375 46.679688 L 33.960938 44.730469 Z M 32.507812 42.265625 "/>
<path style=" stroke:none;fill-rule:nonzero;fill:rgb(32.941176%,24.313725%,35.686275%);fill-opacity:1;" d="M 30.417969 46.65625 C 29.796875 45.417969 29.871094 43.949219 30.613281 42.78125 L 30.9375 42.265625 C 29.816406 42.265625 28.636719 42.265625 27.621094 42.265625 L 26.058594 44.730469 L 27.03125 46.679688 C 27.328125 47.265625 27.929688 47.636719 28.585938 47.636719 L 31.433594 47.636719 C 31.53125 47.636719 31.625 47.628906 31.71875 47.613281 C 31.160156 47.523438 30.675781 47.171875 30.417969 46.65625 Z M 30.417969 46.65625 "/>
<path style=" stroke:none;fill-rule:nonzero;fill:rgb(91.372549%,93.72549%,100%);fill-opacity:1;" d="M 34.738281 45.960938 C 35.171875 46.527344 36.03125 46.511719 36.441406 45.929688 C 36.792969 45.433594 37.222656 44.804688 37.675781 44.09375 C 38.699219 40.035156 39.042969 36.8125 39.179688 35.179688 L 37.238281 33.488281 C 37.066406 33.335938 36.796875 33.46875 36.808594 33.699219 C 36.871094 35.03125 36.535156 38.203125 32.640625 41.433594 C 32.175781 41.820312 32.097656 42.507812 32.464844 42.988281 Z M 34.738281 45.960938 "/>
<path style=" stroke:none;fill-rule:nonzero;fill:rgb(91.372549%,93.72549%,100%);fill-opacity:1;" d="M 22.324219 44.09375 C 22.777344 44.804688 23.207031 45.433594 23.558594 45.929688 C 23.96875 46.511719 24.828125 46.527344 25.261719 45.960938 L 27.535156 42.988281 C 27.902344 42.507812 27.824219 41.820312 27.359375 41.433594 C 23.464844 38.203125 23.128906 35.03125 23.191406 33.699219 C 23.203125 33.46875 22.933594 33.335938 22.757812 33.488281 L 20.820312 35.179688 C 20.957031 36.8125 21.300781 40.035156 22.324219 44.09375 Z M 22.324219 44.09375 "/>
<path style=" stroke:none;fill-rule:nonzero;fill:rgb(85.490196%,88.627451%,99.607843%);fill-opacity:1;" d="M 26.058594 40.230469 C 23.386719 37.4375 23.136719 34.863281 23.191406 33.699219 C 23.203125 33.46875 22.933594 33.335938 22.761719 33.488281 L 20.820312 35.179688 C 20.9375 36.582031 21.207031 39.15625 21.929688 42.421875 C 22.367188 42.339844 22.765625 42.085938 23.027344 41.707031 C 24.496094 39.5625 26.058594 40.230469 26.058594 40.230469 Z M 26.058594 40.230469 "/>
<path style=" stroke:none;fill-rule:nonzero;fill:rgb(25.882353%,16.078431%,32.54902%);fill-opacity:1;" d="M 18.675781 52.738281 C 18.527344 52.570312 18.511719 52.320312 18.636719 52.136719 L 20.664062 49.117188 C 20.8125 48.898438 20.847656 48.632812 20.761719 48.382812 C 20.679688 48.136719 20.492188 47.945312 20.242188 47.859375 L 16.855469 46.6875 C 16.671875 46.625 16.542969 46.460938 16.523438 46.265625 C 16.1875 42.859375 16.410156 39.863281 16.574219 38.382812 C 16.601562 38.125 16.691406 37.882812 16.828125 37.667969 C 15.96875 38.058594 15.121094 38.488281 14.28125 38.960938 C 13.300781 39.515625 12.859375 39.835938 12.027344 39.90625 C 8.246094 40.214844 5.914062 42.09375 4.480469 44.457031 C 8.691406 52.601562 16.691406 58.472656 26.148438 59.742188 C 22.449219 56.9375 19.59375 53.792969 18.675781 52.738281 Z M 18.675781 52.738281 "/>
<path style=" stroke:none;fill-rule:nonzero;fill:rgb(18.823529%,7.843137%,29.019608%);fill-opacity:1;" d="M 11.535156 53.273438 C 11.957031 45.878906 16.179688 44.277344 16.179688 44.277344 C 16.246094 44.210938 16.308594 44.148438 16.375 44.085938 C 16.28125 41.613281 16.445312 39.539062 16.574219 38.382812 C 16.601562 38.125 16.691406 37.882812 16.828125 37.667969 C 15.96875 38.058594 15.121094 38.488281 14.28125 38.960938 C 13.300781 39.515625 12.859375 39.835938 12.027344 39.90625 C 8.246094 40.214844 5.914062 42.09375 4.480469 44.457031 C 6.234375 47.84375 8.640625 50.839844 11.535156 53.273438 Z M 11.535156 53.273438 "/>
<path style=" stroke:none;fill-rule:nonzero;fill:rgb(32.941176%,24.313725%,35.686275%);fill-opacity:1;" d="M 21.207031 34.910156 C 21.175781 34.519531 20.722656 34.320312 20.414062 34.558594 L 17.109375 37.105469 C 16.714844 37.410156 16.457031 37.863281 16.402344 38.363281 C 16.25 39.75 16.011719 42.8125 16.351562 46.28125 C 16.378906 46.542969 16.550781 46.765625 16.800781 46.851562 L 20.1875 48.019531 C 20.601562 48.164062 20.765625 48.660156 20.523438 49.023438 L 18.496094 52.039062 C 18.328125 52.289062 18.347656 52.621094 18.546875 52.847656 C 19.464844 53.90625 22.214844 56.9375 25.800781 59.695312 C 27.140625 59.890625 28.503906 59.992188 29.894531 60 C 22.636719 49.265625 21.464844 38.132812 21.207031 34.910156 Z M 21.207031 34.910156 "/>
<path style=" stroke:none;fill-rule:nonzero;fill:rgb(25.882353%,16.078431%,32.54902%);fill-opacity:1;" d="M 21.207031 34.910156 C 21.175781 34.519531 20.722656 34.320312 20.414062 34.558594 L 17.109375 37.105469 C 16.714844 37.410156 16.457031 37.863281 16.402344 38.363281 C 16.28125 39.472656 16.105469 41.648438 16.210938 44.246094 C 18.160156 42.320312 20.167969 42.238281 21.359375 42.429688 C 21.699219 42.484375 22.039062 42.429688 22.339844 42.289062 C 21.570312 38.882812 21.3125 36.230469 21.207031 34.910156 Z M 21.207031 34.910156 "/>
<path style=" stroke:none;fill-rule:nonzero;fill:rgb(32.941176%,24.313725%,35.686275%);fill-opacity:1;" d="M 33.875 59.738281 C 43.320312 58.464844 51.3125 52.597656 55.519531 44.457031 C 54.085938 42.09375 51.753906 40.214844 47.972656 39.90625 C 47.140625 39.835938 46.699219 39.515625 45.71875 38.960938 C 44.878906 38.488281 44.03125 38.058594 43.171875 37.667969 C 43.308594 37.882812 43.398438 38.125 43.425781 38.382812 C 43.589844 39.863281 43.8125 42.859375 43.476562 46.265625 C 43.457031 46.460938 43.328125 46.625 43.144531 46.6875 L 39.757812 47.859375 C 39.507812 47.945312 39.320312 48.136719 39.238281 48.382812 C 39.152344 48.632812 39.1875 48.898438 39.335938 49.117188 L 41.363281 52.136719 C 41.488281 52.320312 41.472656 52.570312 41.324219 52.738281 C 38.738281 55.710938 36.148438 58.011719 33.875 59.738281 Z M 33.875 59.738281 "/>
<path style=" stroke:none;fill-rule:nonzero;fill:rgb(40%,32.54902%,39.215686%);fill-opacity:1;" d="M 42.890625 37.105469 L 39.585938 34.558594 C 39.277344 34.320312 38.824219 34.519531 38.792969 34.910156 C 38.535156 38.132812 37.363281 49.265625 30.105469 60 C 31.496094 59.992188 32.863281 59.890625 34.199219 59.695312 C 37.785156 56.9375 40.535156 53.90625 41.453125 52.847656 C 41.652344 52.621094 41.671875 52.289062 41.503906 52.039062 L 39.476562 49.023438 C 39.234375 48.660156 39.398438 48.164062 39.8125 48.019531 L 43.199219 46.851562 C 43.449219 46.765625 43.621094 46.542969 43.648438 46.28125 C 43.988281 42.8125 43.75 39.753906 43.597656 38.363281 C 43.542969 37.863281 43.285156 37.410156 42.890625 37.105469 Z M 42.890625 37.105469 "/>
<path style=" stroke:none;fill-rule:nonzero;fill:rgb(97.647059%,72.941176%,56.078431%);fill-opacity:1;" d="M 39.984375 15.328125 C 39.621094 14.375 39.058594 13.984375 39.140625 12.824219 C 39.441406 8.660156 37.925781 7.339844 36.996094 6.921875 C 35.175781 6.101562 32.960938 6.535156 31.421875 7.046875 C 30.503906 7.351562 29.496094 7.351562 28.578125 7.046875 C 27.039062 6.535156 24.824219 6.101562 23.003906 6.921875 C 22.070312 7.339844 20.554688 8.664062 20.859375 12.839844 C 20.945312 13.972656 20.386719 14.367188 20.027344 15.296875 C 19.660156 16.234375 19.542969 17.269531 19.683594 18.300781 L 20.195312 22.019531 C 20.195312 28.164062 23.914062 31.714844 25.511719 32.957031 C 28.136719 34.992188 31.84375 35.007812 34.488281 32.957031 C 36.085938 31.714844 39.804688 28.164062 39.804688 22.027344 L 40.316406 18.300781 C 40.453125 17.28125 40.339844 16.253906 39.984375 15.328125 Z M 39.984375 15.328125 "/>
<path style=" stroke:none;fill-rule:nonzero;fill:rgb(98.823529%,67.843137%,42.745098%);fill-opacity:1;" d="M 30.902344 32.957031 C 29.304688 31.714844 25.585938 28.164062 25.585938 22.019531 L 25.074219 18.300781 C 24.933594 17.269531 25.050781 16.234375 25.417969 15.296875 C 25.777344 14.367188 26.335938 13.972656 26.25 12.839844 C 25.953125 8.792969 27.371094 7.421875 28.304688 6.960938 C 26.785156 6.492188 24.722656 6.148438 23.003906 6.921875 C 22.070312 7.339844 20.554688 8.664062 20.859375 12.839844 C 20.945312 13.972656 20.386719 14.367188 20.027344 15.296875 C 19.660156 16.234375 19.542969 17.269531 19.683594 18.300781 L 20.195312 22.019531 C 20.195312 28.164062 23.914062 31.714844 25.511719 32.957031 C 27.582031 34.5625 30.332031 34.910156 32.695312 33.976562 C 32.0625 33.726562 31.457031 33.386719 30.902344 32.957031 Z M 30.902344 32.957031 "/>
<path style=" stroke:none;fill-rule:nonzero;fill:rgb(25.882353%,16.078431%,32.54902%);fill-opacity:1;" d="M 49.566406 52.296875 C 49.203125 51.871094 48.820312 51.488281 48.441406 51.152344 C 47.480469 50.296875 45.953125 50.996094 45.953125 52.285156 L 45.953125 55.160156 C 47.234375 54.304688 48.441406 53.34375 49.566406 52.296875 Z M 49.566406 52.296875 "/>
<path style=" stroke:none;fill-rule:nonzero;fill:rgb(50.588235%,77.647059%,42.745098%);fill-opacity:1;" d="M 58.710938 31.289062 C 58.710938 22.027344 54.324219 13.792969 47.515625 8.542969 C 48.371094 11.445312 48.761719 15.507812 46.824219 20.023438 C 43.847656 26.960938 42.183594 31.382812 47.757812 33.421875 C 51.714844 34.871094 55.632812 35.578125 57.957031 37.855469 C 58.449219 35.746094 58.710938 33.546875 58.710938 31.289062 Z M 58.710938 31.289062 "/>
<path style=" stroke:none;fill-rule:nonzero;fill:rgb(50.588235%,77.647059%,42.745098%);fill-opacity:1;" d="M 1.289062 31.289062 C 1.289062 22.027344 5.675781 13.792969 12.484375 8.542969 C 11.628906 11.445312 11.238281 15.507812 13.175781 20.023438 C 16.152344 26.960938 17.816406 31.382812 12.242188 33.421875 C 8.285156 34.871094 4.367188 35.578125 2.042969 37.855469 C 1.550781 35.746094 1.289062 33.546875 1.289062 31.289062 Z M 1.289062 31.289062 "/>
</g>
</svg>
