<?xml version="1.0" encoding="UTF-8"?>
<svg xmlns="http://www.w3.org/2000/svg" xmlns:xlink="http://www.w3.org/1999/xlink" width="60pt" height="60pt" viewBox="0 0 60 60" version="1.1">
<g id="surface1">
<path style=" stroke:none;fill-rule:nonzero;fill:rgb(35.294118%,27.45098%,31.372549%);fill-opacity:1;" d="M 48.382812 45.082031 L 38.390625 41.550781 L 21.609375 41.550781 L 11.617188 45.082031 C 9.292969 45.898438 7.742188 48.09375 7.742188 50.554688 L 7.742188 57.097656 C 7.742188 58.699219 9.042969 60 10.644531 60 L 49.355469 60 C 50.957031 60 52.257812 58.699219 52.257812 57.097656 L 52.257812 50.554688 C 52.257812 48.09375 50.707031 45.898438 48.382812 45.082031 Z M 48.382812 45.082031 "/>
<path style=" stroke:none;fill-rule:nonzero;fill:rgb(43.137255%,35.294118%,39.215686%);fill-opacity:1;" d="M 43.957031 39.449219 C 42.492188 38.347656 41.613281 36.628906 41.613281 34.792969 L 41.613281 30.96875 C 41.613281 20.324219 35.804688 6.773438 30 6.773438 C 24.195312 6.773438 18.386719 20.324219 18.386719 30.96875 L 18.386719 34.792969 C 18.386719 36.628906 17.507812 38.347656 16.042969 39.449219 C 14.460938 40.636719 13.546875 42.042969 13.546875 43.546875 C 13.546875 47.824219 17.707031 56.128906 30 56.128906 C 42.292969 56.128906 46.453125 47.824219 46.453125 43.546875 C 46.453125 42.042969 45.539062 40.636719 43.957031 39.449219 Z M 43.957031 39.449219 "/>
<path style=" stroke:none;fill-rule:nonzero;fill:rgb(35.294118%,27.45098%,31.372549%);fill-opacity:1;" d="M 40.128906 49.96875 C 42.605469 47.609375 44.460938 44.65625 45.679688 41.207031 C 45.308594 40.652344 44.792969 40.125 44.171875 39.632812 C 43.066406 43.203125 41.261719 46.214844 38.792969 48.570312 C 34.367188 52.785156 27.980469 54.71875 20.71875 54.0625 C 22.40625 54.949219 24.453125 55.597656 26.863281 55.910156 C 32.066406 55.300781 36.644531 53.289062 40.128906 49.96875 Z M 40.128906 49.96875 "/>
<path style=" stroke:none;fill-rule:nonzero;fill:rgb(35.294118%,27.45098%,31.372549%);fill-opacity:1;" d="M 30 41.613281 C 23.0625 41.613281 17.417969 36.835938 17.417969 30.96875 C 17.417969 25.097656 23.0625 20.324219 30 20.324219 C 36.9375 20.324219 42.582031 25.097656 42.582031 30.96875 C 42.582031 36.835938 36.9375 41.613281 30 41.613281 Z M 30 41.613281 "/>
<path style=" stroke:none;fill-rule:nonzero;fill:rgb(96.078431%,72.54902%,49.019608%);fill-opacity:1;" d="M 30 36.773438 C 23.050781 36.773438 17.417969 31.140625 17.417969 24.195312 L 17.417969 12.582031 L 42.582031 12.582031 L 42.582031 24.195312 C 42.582031 31.140625 36.949219 36.773438 30 36.773438 Z M 30 36.773438 "/>
<path style=" stroke:none;fill-rule:nonzero;fill:rgb(89.019608%,66.666667%,45.882353%);fill-opacity:1;" d="M 21.289062 24.195312 L 21.289062 22.257812 C 21.289062 17.980469 24.757812 14.515625 29.03125 14.515625 L 42.582031 14.515625 L 42.582031 12.582031 L 17.417969 12.582031 L 17.417969 24.195312 C 17.417969 31.140625 23.050781 36.773438 30 36.773438 C 30.660156 36.773438 31.304688 36.707031 31.933594 36.609375 C 25.910156 35.675781 21.289062 30.480469 21.289062 24.195312 Z M 21.289062 24.195312 "/>
<path style=" stroke:none;fill-rule:nonzero;fill:rgb(71.372549%,49.803922%,37.254902%);fill-opacity:1;" d="M 30.042969 30.96875 C 28.589844 30.96875 27.25 30.5 26.460938 29.722656 C 26.078125 29.34375 26.074219 28.734375 26.449219 28.351562 C 26.828125 27.972656 27.441406 27.96875 27.820312 28.34375 C 28.140625 28.660156 28.917969 29.03125 30.042969 29.03125 C 31.167969 29.03125 31.945312 28.660156 32.265625 28.34375 C 32.648438 27.96875 33.257812 27.972656 33.636719 28.351562 C 34.011719 28.734375 34.007812 29.34375 33.625 29.722656 C 32.835938 30.5 31.496094 30.96875 30.042969 30.96875 Z M 30.042969 30.96875 "/>
<path style=" stroke:none;fill-rule:nonzero;fill:rgb(35.294118%,27.45098%,31.372549%);fill-opacity:1;" d="M 24.238281 24.179688 C 23.703125 24.179688 23.269531 23.746094 23.269531 23.210938 L 23.269531 22.242188 C 23.269531 21.707031 23.703125 21.277344 24.238281 21.277344 C 24.773438 21.277344 25.203125 21.710938 25.203125 22.242188 L 25.203125 23.210938 C 25.203125 23.746094 24.773438 24.179688 24.238281 24.179688 Z M 24.238281 24.179688 "/>
<path style=" stroke:none;fill-rule:nonzero;fill:rgb(35.294118%,27.45098%,31.372549%);fill-opacity:1;" d="M 35.851562 24.179688 C 35.316406 24.179688 34.882812 23.746094 34.882812 23.210938 L 34.882812 22.242188 C 34.882812 21.707031 35.316406 21.277344 35.851562 21.277344 C 36.382812 21.277344 36.816406 21.710938 36.816406 22.242188 L 36.816406 23.210938 C 36.816406 23.746094 36.386719 24.179688 35.851562 24.179688 Z M 35.851562 24.179688 "/>
<path style=" stroke:none;fill-rule:nonzero;fill:rgb(43.137255%,35.294118%,39.215686%);fill-opacity:1;" d="M 25.203125 20.308594 L 23.269531 20.308594 C 22.734375 20.308594 22.300781 19.875 22.300781 19.339844 C 22.300781 18.804688 22.734375 18.371094 23.269531 18.371094 L 25.203125 18.371094 C 25.738281 18.371094 26.171875 18.804688 26.171875 19.339844 C 26.171875 19.875 25.738281 20.308594 25.203125 20.308594 Z M 25.203125 20.308594 "/>
<path style=" stroke:none;fill-rule:nonzero;fill:rgb(43.137255%,35.294118%,39.215686%);fill-opacity:1;" d="M 36.816406 20.308594 L 34.882812 20.308594 C 34.347656 20.308594 33.914062 19.875 33.914062 19.339844 C 33.914062 18.804688 34.347656 18.371094 34.882812 18.371094 L 36.816406 18.371094 C 37.351562 18.371094 37.785156 18.804688 37.785156 19.339844 C 37.785156 19.875 37.351562 20.308594 36.816406 20.308594 Z M 36.816406 20.308594 "/>
<path style=" stroke:none;fill-rule:nonzero;fill:rgb(51.764706%,45.098039%,48.235294%);fill-opacity:1;" d="M 47.285156 30.03125 L 46.4375 15.902344 C 45.933594 7.507812 39.367188 0.511719 30.972656 0.0273438 C 21.84375 -0.5 14.128906 6.453125 13.589844 15.457031 L 12.714844 30.03125 C 12.140625 39.578125 19.398438 47.671875 28.789062 48.324219 C 22.945312 47.71875 18.386719 42.777344 18.386719 36.773438 C 18.386719 32.5 18.386719 31.933594 18.386719 30.96875 C 18.386719 20.324219 24.195312 6.773438 30 6.773438 C 35.804688 6.773438 41.613281 20.324219 41.613281 30.96875 L 41.613281 40.347656 C 41.613281 41.648438 43.289062 42.21875 44.050781 41.164062 C 46.296875 38.054688 47.535156 34.183594 47.285156 30.03125 Z M 47.285156 30.03125 "/>
</g>
</svg>
