<?xml version="1.0" encoding="UTF-8"?>
<svg xmlns="http://www.w3.org/2000/svg" xmlns:xlink="http://www.w3.org/1999/xlink" width="60pt" height="60pt" viewBox="0 0 60 60" version="1.1">
<g id="surface1">
<path style=" stroke:none;fill-rule:nonzero;fill:rgb(20%,44.313725%,50.196078%);fill-opacity:1;" d="M 30 0 C 13.429688 0 0 13.429688 0 30 C 0 46.566406 13.429688 60 30 60 C 46.570312 60 60 46.566406 60 30 C 60 13.429688 46.570312 0 30 0 Z M 30 0 "/>
<path style=" stroke:none;fill-rule:nonzero;fill:rgb(89.803922%,80.784314%,41.568627%);fill-opacity:1;" d="M 20.871094 23.398438 L 39.007812 23.398438 L 39.007812 49.359375 L 20.871094 49.359375 Z M 20.871094 23.398438 "/>
<path style=" stroke:none;fill-rule:nonzero;fill:rgb(82.745098%,23.921569%,23.921569%);fill-opacity:1;" d="M 47.746094 46.285156 C 46.859375 42.984375 39.292969 40.316406 29.960938 40.316406 C 20.628906 40.316406 13.140625 42.984375 12.253906 46.285156 C 11.859375 47.753906 11.414062 50.539062 11.03125 53.238281 C 16.199219 57.464844 22.804688 60 30 60 C 37.195312 60 43.800781 57.464844 48.96875 53.238281 C 48.585938 50.539062 48.140625 47.753906 47.746094 46.285156 Z M 47.746094 46.285156 "/>
<path style=" stroke:none;fill-rule:nonzero;fill:rgb(80.784314%,57.254902%,41.568627%);fill-opacity:1;" d="M 34.703125 34.117188 L 25.296875 34.117188 C 26.765625 38.539062 25.414062 40.5625 25.414062 40.5625 L 28.667969 41.292969 L 31.332031 41.292969 L 34.585938 40.5625 C 34.585938 40.5625 33.234375 38.539062 34.703125 34.117188 Z M 34.703125 34.117188 "/>
<path style=" stroke:none;fill-rule:nonzero;fill:rgb(94.901961%,87.058824%,48.627451%);fill-opacity:1;" d="M 36.027344 21.167969 L 20.929688 12.34375 C 14.398438 25.164062 15.347656 38.609375 17.5 42.074219 C 21.835938 49.054688 17.0625 51.476562 17.0625 51.476562 L 17.292969 51.359375 C 17.292969 51.359375 26.074219 50.222656 24.558594 42.148438 C 23.832031 38.285156 23.4375 30.292969 36.027344 21.167969 Z M 36.027344 21.167969 "/>
<path style=" stroke:none;fill-rule:nonzero;fill:rgb(94.901961%,87.058824%,48.627451%);fill-opacity:1;" d="M 42.496094 42.074219 C 44.648438 38.609375 45.597656 25.164062 39.066406 12.34375 L 23.96875 21.167969 C 36.558594 30.292969 36.164062 38.285156 35.4375 42.148438 C 33.921875 50.222656 42.703125 51.359375 42.703125 51.359375 L 42.9375 51.476562 C 42.9375 51.476562 38.160156 49.054688 42.496094 42.074219 Z M 42.496094 42.074219 "/>
<path style=" stroke:none;fill-rule:nonzero;fill:rgb(85.882353%,60.392157%,43.137255%);fill-opacity:1;" d="M 30 7.445312 C 24.671875 7.445312 20.355469 10.007812 20.355469 21.183594 C 20.355469 24.964844 21.03125 27.925781 22.046875 30.214844 C 24.273438 35.246094 28.132812 37.003906 30 37.003906 C 31.867188 37.003906 35.726562 35.246094 37.953125 30.214844 C 38.96875 27.925781 39.644531 24.964844 39.644531 21.183594 C 39.644531 10.007812 35.328125 7.445312 30 7.445312 Z M 30 7.445312 "/>
<path style=" stroke:none;fill-rule:nonzero;fill:rgb(88.627451%,26.666667%,26.666667%);fill-opacity:1;" d="M 31.261719 31.167969 C 30.902344 31.117188 30 31.472656 30 31.472656 C 30 31.472656 29.085938 31.117188 28.722656 31.171875 C 28.144531 31.257812 27.277344 32.253906 27.277344 32.417969 C 27.277344 32.417969 28.496094 33.054688 30 33.054688 C 31.503906 33.054688 32.722656 32.417969 32.722656 32.417969 C 32.722656 32.417969 31.851562 31.257812 31.261719 31.167969 Z M 31.261719 31.167969 "/>
<path style=" stroke:none;fill-rule:nonzero;fill:rgb(82.745098%,23.921569%,23.921569%);fill-opacity:1;" d="M 30.742188 31.976562 C 30.503906 31.960938 30.203125 32.175781 30 32.175781 C 29.765625 32.175781 29.417969 31.964844 29.152344 31.980469 C 27.558594 32.078125 27.277344 32.417969 27.277344 32.417969 C 27.277344 32.417969 28.496094 33.523438 30 33.523438 C 31.503906 33.523438 32.722656 32.417969 32.722656 32.417969 C 32.722656 32.417969 32.390625 32.0625 30.742188 31.976562 Z M 30.742188 31.976562 "/>
<path style=" stroke:none;fill-rule:nonzero;fill:rgb(80.784314%,57.254902%,41.568627%);fill-opacity:1;" d="M 34.574219 40.5625 C 34.574219 40.5625 33.496094 42.65625 29.964844 42.65625 C 26.433594 42.65625 25.425781 40.5625 25.425781 40.5625 C 25.425781 40.5625 24.578125 47.171875 30.007812 47.171875 C 35.441406 47.171875 34.574219 40.5625 34.574219 40.5625 Z M 34.574219 40.5625 "/>
<path style=" stroke:none;fill-rule:nonzero;fill:rgb(80.784314%,57.254902%,41.568627%);fill-opacity:1;" d="M 29.96875 38.335938 L 25.414062 40.5625 C 25.414062 40.5625 27.449219 43.957031 29.964844 43.957031 C 32.480469 43.957031 34.585938 40.5625 34.585938 40.5625 Z M 29.96875 38.335938 "/>
<path style=" stroke:none;fill-rule:nonzero;fill:rgb(94.901961%,87.058824%,48.627451%);fill-opacity:1;" d="M 30 7.445312 C 24.105469 7.445312 19.328125 10.007812 19.328125 21.183594 C 19.328125 21.183594 29.988281 18.453125 29.988281 14.382812 C 29.988281 18.449219 40.671875 21.183594 40.671875 21.183594 C 40.671875 10.007812 35.894531 7.445312 30 7.445312 Z M 30 7.445312 "/>
<path style=" stroke:none;fill-rule:nonzero;fill:rgb(85.882353%,60.392157%,43.137255%);fill-opacity:1;" d="M 20.53125 21.519531 C 19.609375 21.679688 18.90625 22.074219 19.425781 25.117188 C 19.945312 28.160156 20.59375 28.300781 21.515625 28.144531 Z M 20.53125 21.519531 "/>
<path style=" stroke:none;fill-rule:nonzero;fill:rgb(85.882353%,60.392157%,43.137255%);fill-opacity:1;" d="M 39.480469 21.519531 L 38.496094 28.144531 C 39.417969 28.300781 40.066406 28.160156 40.585938 25.117188 C 41.105469 22.074219 40.402344 21.679688 39.480469 21.519531 Z M 39.480469 21.519531 "/>
<path style=" stroke:none;fill-rule:nonzero;fill:rgb(94.901961%,87.058824%,48.627451%);fill-opacity:1;" d="M 21.132812 21.9375 C 21.007812 21.140625 21.140625 20.507812 21.140625 20.507812 L 19.328125 21.183594 C 19.328125 21.183594 20.445312 21.332031 20.851562 22.625 C 20.851562 22.625 21.292969 22.953125 21.132812 21.9375 Z M 21.132812 21.9375 "/>
<path style=" stroke:none;fill-rule:nonzero;fill:rgb(94.901961%,87.058824%,48.627451%);fill-opacity:1;" d="M 38.863281 20.507812 C 38.863281 20.507812 39 21.140625 38.871094 21.9375 C 38.710938 22.953125 39.15625 22.625 39.15625 22.625 C 39.558594 21.332031 40.675781 21.183594 40.675781 21.183594 Z M 38.863281 20.507812 "/>
</g>
</svg>
