<?xml version="1.0" encoding="UTF-8"?>
<svg xmlns="http://www.w3.org/2000/svg" xmlns:xlink="http://www.w3.org/1999/xlink" width="60pt" height="60pt" viewBox="0 0 60 60" version="1.1">
<g id="surface1">
<path style=" stroke:none;fill-rule:nonzero;fill:rgb(20%,44.313725%,50.196078%);fill-opacity:1;" d="M 30 0 C 13.429688 0 0 13.429688 0 30 C 0 46.566406 13.429688 60 30 60 C 46.570312 60 60 46.566406 60 30 C 60 13.429688 46.570312 0 30 0 Z M 30 0 "/>
<path style=" stroke:none;fill-rule:nonzero;fill:rgb(14.901961%,11.372549%,9.019608%);fill-opacity:1;" d="M 30 12.707031 L 17.96875 20.929688 L 17.96875 49.359375 L 42.03125 49.359375 L 42.03125 20.929688 Z M 30 12.707031 "/>
<path style=" stroke:none;fill-rule:nonzero;fill:rgb(72.941176%,5.882353%,5.882353%);fill-opacity:1;" d="M 47.746094 46.285156 C 46.859375 42.984375 39.292969 40.316406 29.960938 40.316406 C 20.628906 40.316406 13.140625 42.984375 12.253906 46.285156 C 11.859375 47.753906 11.414062 50.539062 11.03125 53.238281 C 16.199219 57.464844 22.804688 60 30 60 C 37.195312 60 43.800781 57.464844 48.96875 53.238281 C 48.585938 50.539062 48.140625 47.753906 47.746094 46.285156 Z M 47.746094 46.285156 "/>
<path style=" stroke:none;fill-rule:nonzero;fill:rgb(88.627451%,63.137255%,46.27451%);fill-opacity:1;" d="M 34.703125 34.117188 L 25.296875 34.117188 C 26.765625 38.539062 25.414062 40.5625 25.414062 40.5625 L 28.667969 41.292969 L 31.332031 41.292969 L 34.585938 40.5625 C 34.585938 40.5625 33.234375 38.539062 34.703125 34.117188 Z M 34.703125 34.117188 "/>
<path style=" stroke:none;fill-rule:nonzero;fill:rgb(95.686275%,70.196078%,50.980392%);fill-opacity:1;" d="M 30 7.445312 C 24.671875 7.445312 20.355469 10.007812 20.355469 21.183594 C 20.355469 24.964844 21.03125 27.925781 22.046875 30.214844 C 24.273438 35.246094 28.132812 37.003906 30 37.003906 C 31.867188 37.003906 35.726562 35.246094 37.953125 30.214844 C 38.96875 27.925781 39.644531 24.964844 39.644531 21.183594 C 39.644531 10.007812 35.328125 7.445312 30 7.445312 Z M 30 7.445312 "/>
<path style=" stroke:none;fill-rule:nonzero;fill:rgb(88.627451%,26.666667%,26.666667%);fill-opacity:1;" d="M 31.261719 31.167969 C 30.902344 31.117188 30 31.472656 30 31.472656 C 30 31.472656 29.085938 31.117188 28.722656 31.171875 C 28.144531 31.257812 27.277344 32.253906 27.277344 32.417969 C 27.277344 32.417969 28.496094 33.054688 30 33.054688 C 31.503906 33.054688 32.722656 32.417969 32.722656 32.417969 C 32.722656 32.417969 31.851562 31.257812 31.261719 31.167969 Z M 31.261719 31.167969 "/>
<path style=" stroke:none;fill-rule:nonzero;fill:rgb(82.745098%,23.921569%,23.921569%);fill-opacity:1;" d="M 30.742188 31.976562 C 30.503906 31.960938 30.203125 32.175781 30 32.175781 C 29.765625 32.175781 29.417969 31.964844 29.152344 31.980469 C 27.558594 32.078125 27.277344 32.417969 27.277344 32.417969 C 27.277344 32.417969 28.496094 33.523438 30 33.523438 C 31.503906 33.523438 32.722656 32.417969 32.722656 32.417969 C 32.722656 32.417969 32.390625 32.0625 30.742188 31.976562 Z M 30.742188 31.976562 "/>
<path style=" stroke:none;fill-rule:nonzero;fill:rgb(88.627451%,63.137255%,46.27451%);fill-opacity:1;" d="M 34.574219 40.5625 C 34.574219 40.5625 33.496094 42.65625 29.964844 42.65625 C 26.433594 42.65625 25.425781 40.5625 25.425781 40.5625 C 25.425781 40.5625 24.578125 47.171875 30.007812 47.171875 C 35.441406 47.171875 34.574219 40.5625 34.574219 40.5625 Z M 34.574219 40.5625 "/>
<path style=" stroke:none;fill-rule:nonzero;fill:rgb(88.627451%,63.137255%,46.27451%);fill-opacity:1;" d="M 29.96875 38.335938 L 25.414062 40.5625 C 25.414062 40.5625 27.449219 43.957031 29.964844 43.957031 C 32.480469 43.957031 34.585938 40.5625 34.585938 40.5625 Z M 29.96875 38.335938 "/>
<path style=" stroke:none;fill-rule:nonzero;fill:rgb(14.901961%,11.372549%,9.019608%);fill-opacity:1;" d="M 30 7.445312 C 23.375 7.445312 18 10.007812 18 21.183594 C 18 21.183594 33.738281 21.007812 33.738281 16.941406 C 33.738281 21.007812 42 21.183594 42 21.183594 C 42 10.007812 36.625 7.445312 30 7.445312 Z M 30 7.445312 "/>
<path style=" stroke:none;fill-rule:nonzero;fill:rgb(95.686275%,70.196078%,50.980392%);fill-opacity:1;" d="M 20.53125 21.519531 C 19.609375 21.679688 18.90625 22.074219 19.425781 25.117188 C 19.945312 28.160156 20.59375 28.300781 21.515625 28.144531 Z M 20.53125 21.519531 "/>
<path style=" stroke:none;fill-rule:nonzero;fill:rgb(95.686275%,70.196078%,50.980392%);fill-opacity:1;" d="M 39.480469 21.519531 L 38.496094 28.144531 C 39.417969 28.300781 40.066406 28.160156 40.585938 25.117188 C 41.105469 22.074219 40.402344 21.679688 39.480469 21.519531 Z M 39.480469 21.519531 "/>
<path style=" stroke:none;fill-rule:nonzero;fill:rgb(14.901961%,11.372549%,9.019608%);fill-opacity:1;" d="M 21.132812 21.9375 C 21.007812 21.140625 21.140625 20.507812 21.140625 20.507812 L 19.328125 21.183594 C 19.328125 21.183594 20.445312 21.332031 20.851562 22.625 C 20.851562 22.625 21.292969 22.953125 21.132812 21.9375 Z M 21.132812 21.9375 "/>
<path style=" stroke:none;fill-rule:nonzero;fill:rgb(14.901961%,11.372549%,9.019608%);fill-opacity:1;" d="M 38.863281 20.507812 C 38.863281 20.507812 39 21.140625 38.871094 21.9375 C 38.710938 22.953125 39.15625 22.625 39.15625 22.625 C 39.558594 21.332031 40.675781 21.183594 40.675781 21.183594 Z M 38.863281 20.507812 "/>
<path style=" stroke:none;fill-rule:nonzero;fill:rgb(55.686275%,47.45098%,12.54902%);fill-opacity:1;" d="M 40.554688 27.933594 C 40.527344 27.605469 40.332031 27.335938 40.058594 27.199219 L 39.933594 27.472656 C 40.109375 27.566406 40.234375 27.742188 40.253906 27.957031 C 40.28125 28.289062 40.03125 28.582031 39.699219 28.609375 C 39.367188 28.636719 39.074219 28.386719 39.046875 28.054688 C 39.03125 27.859375 39.113281 27.675781 39.25 27.554688 L 39.179688 27.234375 C 38.898438 27.40625 38.71875 27.726562 38.746094 28.078125 C 38.789062 28.578125 39.226562 28.949219 39.722656 28.910156 C 40.222656 28.871094 40.59375 28.433594 40.554688 27.933594 Z M 40.554688 27.933594 "/>
<path style=" stroke:none;fill-rule:nonzero;fill:rgb(55.686275%,47.45098%,12.54902%);fill-opacity:1;" d="M 20.832031 27.234375 L 20.757812 27.554688 C 20.894531 27.675781 20.976562 27.859375 20.960938 28.054688 C 20.933594 28.386719 20.640625 28.636719 20.308594 28.609375 C 19.976562 28.582031 19.730469 28.289062 19.753906 27.957031 C 19.773438 27.742188 19.898438 27.566406 20.078125 27.472656 L 19.953125 27.195312 C 19.679688 27.335938 19.480469 27.605469 19.453125 27.933594 C 19.414062 28.433594 19.785156 28.871094 20.285156 28.910156 C 20.785156 28.949219 21.222656 28.578125 21.261719 28.078125 C 21.289062 27.726562 21.113281 27.40625 20.832031 27.234375 Z M 20.832031 27.234375 "/>
<path style=" stroke:none;fill-rule:nonzero;fill:rgb(14.901961%,11.372549%,9.019608%);fill-opacity:1;" d="M 25.648438 21.644531 C 23.621094 21.644531 21.976562 21.996094 21.976562 24.527344 C 21.976562 26.121094 22.890625 27.714844 25.648438 27.714844 C 27.671875 27.714844 29.316406 26.121094 29.316406 24.527344 C 29.316406 22.933594 27.671875 21.644531 25.648438 21.644531 Z M 25.648438 27.085938 C 23.460938 27.085938 22.738281 25.820312 22.738281 24.558594 C 22.738281 22.550781 24.039062 22.269531 25.648438 22.269531 C 27.253906 22.269531 28.554688 23.296875 28.554688 24.558594 C 28.554688 25.820312 27.253906 27.085938 25.648438 27.085938 Z M 25.648438 27.085938 "/>
<path style=" stroke:none;fill-rule:nonzero;fill:rgb(95.686275%,76.862745%,64.313725%);fill-opacity:1;" d="M 25.648438 22.273438 C 24.039062 22.273438 22.738281 22.550781 22.738281 24.558594 C 22.738281 25.820312 23.460938 27.085938 25.648438 27.085938 C 27.253906 27.085938 28.554688 25.820312 28.554688 24.558594 C 28.554688 23.296875 27.253906 22.273438 25.648438 22.273438 Z M 25.648438 22.273438 "/>
<path style=" stroke:none;fill-rule:nonzero;fill:rgb(95.686275%,80%,69.019608%);fill-opacity:1;" d="M 25.648438 22.273438 C 24.039062 22.273438 22.738281 22.550781 22.738281 24.558594 C 22.738281 25.617188 23.246094 26.679688 24.699219 26.992188 L 26.441406 22.359375 C 26.1875 22.300781 25.921875 22.273438 25.648438 22.273438 Z M 25.648438 22.273438 "/>
<path style=" stroke:none;fill-rule:nonzero;fill:rgb(95.686275%,76.862745%,64.313725%);fill-opacity:1;" d="M 26.441406 22.359375 L 24.699219 26.992188 C 24.980469 27.054688 25.292969 27.085938 25.648438 27.085938 C 27.253906 27.085938 28.554688 25.820312 28.554688 24.558594 C 28.554688 23.511719 27.660156 22.628906 26.441406 22.359375 Z M 26.441406 22.359375 "/>
<path style=" stroke:none;fill-rule:nonzero;fill:rgb(14.901961%,11.372549%,9.019608%);fill-opacity:1;" d="M 22.6875 23.0625 L 21.277344 21.53125 C 21.140625 21.382812 20.914062 21.375 20.765625 21.511719 C 20.617188 21.644531 20.609375 21.875 20.742188 22.023438 L 22.15625 23.554688 C 22.226562 23.632812 22.324219 23.671875 22.421875 23.671875 C 22.507812 23.671875 22.597656 23.640625 22.667969 23.574219 C 22.816406 23.441406 22.824219 23.210938 22.6875 23.0625 Z M 22.6875 23.0625 "/>
<path style=" stroke:none;fill-rule:nonzero;fill:rgb(14.901961%,11.372549%,9.019608%);fill-opacity:1;" d="M 39.316406 21.511719 C 39.167969 21.375 38.9375 21.382812 38.804688 21.53125 L 37.390625 23.0625 C 37.257812 23.210938 37.265625 23.441406 37.414062 23.574219 C 37.484375 23.640625 37.570312 23.671875 37.660156 23.671875 C 37.757812 23.671875 37.855469 23.632812 37.925781 23.554688 L 39.335938 22.023438 C 39.472656 21.875 39.460938 21.644531 39.316406 21.511719 Z M 39.316406 21.511719 "/>
<path style=" stroke:none;fill-rule:nonzero;fill:rgb(14.901961%,11.372549%,9.019608%);fill-opacity:1;" d="M 34.351562 21.644531 C 32.328125 21.644531 30.683594 22.933594 30.683594 24.527344 C 30.683594 26.121094 32.328125 27.714844 34.351562 27.714844 C 37.109375 27.714844 38.023438 26.121094 38.023438 24.527344 C 38.023438 21.996094 36.378906 21.644531 34.351562 21.644531 Z M 34.351562 27.085938 C 32.746094 27.085938 31.445312 25.820312 31.445312 24.558594 C 31.445312 23.296875 32.746094 22.269531 34.351562 22.269531 C 35.960938 22.269531 37.261719 22.550781 37.261719 24.558594 C 37.261719 25.820312 36.539062 27.085938 34.351562 27.085938 Z M 34.351562 27.085938 "/>
<path style=" stroke:none;fill-rule:nonzero;fill:rgb(95.686275%,76.862745%,64.313725%);fill-opacity:1;" d="M 34.351562 22.273438 C 32.746094 22.273438 31.445312 23.296875 31.445312 24.558594 C 31.445312 25.820312 32.746094 27.085938 34.351562 27.085938 C 36.539062 27.085938 37.261719 25.820312 37.261719 24.558594 C 37.261719 22.550781 35.960938 22.273438 34.351562 22.273438 Z M 34.351562 22.273438 "/>
<path style=" stroke:none;fill-rule:nonzero;fill:rgb(95.686275%,80%,69.019608%);fill-opacity:1;" d="M 34.351562 22.273438 C 34.078125 22.273438 33.8125 22.300781 33.558594 22.359375 C 32.339844 22.628906 31.445312 23.511719 31.445312 24.558594 C 31.445312 25.605469 32.335938 26.648438 33.554688 26.980469 L 35.304688 22.320312 C 35.003906 22.285156 34.6875 22.273438 34.351562 22.273438 Z M 34.351562 22.273438 "/>
<path style=" stroke:none;fill-rule:nonzero;fill:rgb(95.686275%,76.862745%,64.313725%);fill-opacity:1;" d="M 35.304688 22.320312 L 33.554688 26.980469 C 33.808594 27.046875 34.074219 27.085938 34.351562 27.085938 C 34.707031 27.085938 35.019531 27.054688 35.300781 26.992188 C 36.753906 26.679688 37.261719 25.617188 37.261719 24.558594 C 37.261719 22.96875 36.441406 22.460938 35.304688 22.320312 Z M 35.304688 22.320312 "/>
<path style=" stroke:none;fill-rule:nonzero;fill:rgb(14.901961%,11.372549%,9.019608%);fill-opacity:1;" d="M 31.597656 23.667969 L 28.402344 23.667969 C 28.375 23.667969 28.984375 24.925781 29.007812 24.925781 L 31.296875 24.925781 C 31.320312 24.925781 31.625 23.667969 31.597656 23.667969 Z M 31.597656 23.667969 "/>
<path style=" stroke:none;fill-rule:nonzero;fill:rgb(14.901961%,11.372549%,9.019608%);fill-opacity:1;" d="M 31.097656 24.941406 C 30.78125 24.71875 30.394531 24.496094 29.988281 24.496094 C 29.675781 24.496094 29.378906 24.664062 29.113281 24.796875 C 28.699219 25.007812 28.699219 26.148438 28.699219 26.148438 C 28.9375 25.652344 29.441406 25.335938 29.988281 25.335938 C 30.53125 25.335938 31.039062 25.652344 31.273438 26.148438 C 31.273438 26.148438 31.398438 25.15625 31.097656 24.941406 Z M 31.097656 24.941406 "/>
</g>
</svg>
