<?xml version="1.0" encoding="UTF-8"?>
<svg xmlns="http://www.w3.org/2000/svg" xmlns:xlink="http://www.w3.org/1999/xlink" width="60pt" height="60pt" viewBox="0 0 60 60" version="1.1">
<g id="surface1">
<path style=" stroke:none;fill-rule:nonzero;fill:rgb(15.294118%,32.54902%,41.960784%);fill-opacity:1;" d="M 60 30 C 60 35.34375 58.601562 40.359375 56.15625 44.703125 C 56.113281 44.78125 56.070312 44.855469 56.023438 44.933594 C 55.980469 45.007812 55.9375 45.085938 55.890625 45.160156 C 55.0625 46.578125 54.117188 47.917969 53.074219 49.175781 C 51.761719 50.746094 50.296875 52.183594 48.695312 53.460938 C 47.828125 54.15625 46.921875 54.800781 45.980469 55.394531 C 45.285156 55.832031 44.570312 56.242188 43.839844 56.625 C 39.699219 58.78125 34.992188 60 30 60 C 25.007812 60 20.300781 58.78125 16.160156 56.625 C 15.386719 56.21875 14.628906 55.78125 13.894531 55.316406 C 11.886719 54.035156 10.042969 52.523438 8.398438 50.816406 C 7.890625 50.289062 7.398438 49.742188 6.929688 49.175781 C 6.148438 48.234375 5.421875 47.246094 4.757812 46.214844 C 4.726562 46.167969 4.699219 46.121094 4.667969 46.078125 C 4.621094 46.003906 4.574219 45.929688 4.527344 45.851562 C 4.480469 45.777344 4.433594 45.703125 4.386719 45.625 C 4.347656 45.558594 4.304688 45.488281 4.261719 45.417969 C 2.777344 42.945312 1.636719 40.242188 0.914062 37.371094 C 0.824219 37.027344 0.746094 36.679688 0.667969 36.328125 C 0.230469 34.289062 0 32.171875 0 30 C 0 13.429688 13.433594 0 30 0 C 32.171875 0 34.289062 0.230469 36.328125 0.667969 C 36.679688 0.746094 37.027344 0.824219 37.371094 0.914062 C 43.5 2.460938 48.875 5.894531 52.847656 10.558594 C 53.046875 10.789062 53.238281 11.023438 53.429688 11.261719 C 57.539062 16.394531 60 22.910156 60 30 Z M 60 30 "/>
<path style=" stroke:none;fill-rule:nonzero;fill:rgb(100%,100%,100%);fill-opacity:1;" d="M 10.773438 13.996094 L 14.140625 13.621094 L 10.773438 13.25 L 10.398438 9.882812 L 10.027344 13.25 L 6.660156 13.621094 L 10.027344 13.996094 L 10.398438 17.363281 Z M 10.773438 13.996094 "/>
<path style=" stroke:none;fill-rule:nonzero;fill:rgb(100%,100%,100%);fill-opacity:1;" d="M 19.878906 50.722656 L 23.246094 50.351562 L 19.878906 49.980469 L 19.507812 46.609375 L 19.136719 49.980469 L 15.769531 50.351562 L 19.136719 50.722656 L 19.507812 54.089844 Z M 19.878906 50.722656 "/>
<path style=" stroke:none;fill-rule:nonzero;fill:rgb(100%,100%,100%);fill-opacity:1;" d="M 45.519531 14.128906 L 50.554688 13.574219 L 45.519531 13.015625 L 44.964844 7.984375 L 44.40625 13.015625 L 39.371094 13.574219 L 44.40625 14.128906 L 44.964844 19.164062 Z M 45.519531 14.128906 "/>
<path style=" stroke:none;fill-rule:nonzero;fill:rgb(100%,100%,100%);fill-opacity:1;" d="M 6.023438 34.539062 L 5.164062 33.679688 L 6.023438 32.820312 L 6.882812 33.679688 Z M 6.023438 34.539062 "/>
<path style=" stroke:none;fill-rule:nonzero;fill:rgb(100%,100%,100%);fill-opacity:1;" d="M 55.21875 31.933594 L 54.359375 31.078125 L 55.21875 30.21875 L 56.078125 31.078125 Z M 55.21875 31.933594 "/>
<path style=" stroke:none;fill-rule:nonzero;fill:rgb(100%,100%,100%);fill-opacity:1;" d="M 40.492188 17.492188 L 39.632812 16.632812 L 40.492188 15.773438 L 41.347656 16.632812 Z M 40.492188 17.492188 "/>
<path style=" stroke:none;fill-rule:nonzero;fill:rgb(100%,100%,100%);fill-opacity:1;" d="M 15.546875 11.378906 L 14.6875 10.519531 L 15.546875 9.660156 L 16.402344 10.519531 Z M 15.546875 11.378906 "/>
<path style=" stroke:none;fill-rule:nonzero;fill:rgb(100%,100%,100%);fill-opacity:1;" d="M 32.550781 51.972656 L 31.695312 51.113281 L 32.550781 50.253906 L 33.410156 51.113281 Z M 32.550781 51.972656 "/>
<path style=" stroke:none;fill-rule:nonzero;fill:rgb(90.196078%,90.196078%,90.196078%);fill-opacity:1;" d="M 30.878906 43.046875 L 32.125 41.800781 C 32.265625 41.660156 32.414062 41.53125 32.570312 41.410156 C 32.71875 41.820312 35.460938 39.09375 35.609375 38.679688 C 33.359375 36.429688 32.191406 35.210938 35.636719 38.652344 L 40.03125 43.046875 L 40.113281 43.132812 L 41.1875 44.203125 L 41 44.390625 L 36.609375 48.777344 L 35.453125 47.621094 "/>
<path style=" stroke:none;fill-rule:nonzero;fill:rgb(96.862745%,46.666667%,34.901961%);fill-opacity:1;" d="M 46.886719 46.808594 L 40.761719 52.933594 L 39.566406 51.738281 L 45.691406 45.613281 Z M 46.886719 46.808594 "/>
<path style=" stroke:none;fill-rule:nonzero;fill:rgb(80%,80%,80%);fill-opacity:1;" d="M 45.691406 45.613281 L 39.566406 51.738281 L 37.769531 49.941406 L 37.773438 49.941406 L 36.609375 48.777344 L 41 44.390625 L 41.183594 44.203125 L 42.347656 45.367188 C 43.203125 44.511719 44.589844 44.511719 45.445312 45.367188 Z M 45.691406 45.613281 "/>
<path style=" stroke:none;fill-rule:nonzero;fill:rgb(90.196078%,90.196078%,90.196078%);fill-opacity:1;" d="M 27.328125 25.21875 L 33.214844 23.007812 L 34.859375 18.535156 L 39.214844 19.828125 L 37.332031 26.421875 L 31.800781 29.691406 "/>
<path style=" stroke:none;fill-rule:nonzero;fill:rgb(80%,80%,80%);fill-opacity:1;" d="M 12.882812 20.214844 C 12.882812 19.933594 12.898438 19.660156 12.933594 19.386719 L 9.46875 22.851562 C 8.359375 23.960938 8.359375 25.757812 9.46875 26.867188 L 16.964844 34.363281 L 17.210938 34.363281 L 17.210938 26.832031 L 17.300781 26.59375 C 14.722656 25.625 12.882812 23.132812 12.882812 20.214844 Z M 12.882812 20.214844 "/>
<path style=" stroke:none;fill-rule:nonzero;fill:rgb(100%,100%,100%);fill-opacity:1;" d="M 21.082031 40.222656 C 21.871094 39.140625 21.808594 37.628906 20.902344 36.605469 L 23.679688 33.828125 L 26.664062 33.828125 C 26.867188 33.828125 27.066406 33.847656 27.257812 33.882812 L 27.246094 33.945312 L 27.246094 40.070312 L 27.277344 40.242188 C 27.078125 40.28125 26.875 40.300781 26.664062 40.300781 L 21.917969 40.300781 C 21.632812 40.300781 21.351562 40.273438 21.082031 40.222656 Z M 21.082031 40.222656 "/>
<path style=" stroke:none;fill-rule:nonzero;fill:rgb(100%,100%,100%);fill-opacity:1;" d="M 17.210938 34.363281 L 17.210938 26.832031 L 17.300781 26.59375 C 18.046875 26.871094 18.851562 27.023438 19.691406 27.023438 C 21.179688 27.023438 22.558594 26.546875 23.679688 25.734375 L 23.679688 33.828125 L 20.902344 36.605469 C 20.867188 36.566406 20.828125 36.523438 20.785156 36.484375 C 19.824219 35.519531 18.347656 35.378906 17.234375 36.0625 C 17.21875 35.910156 17.210938 35.75 17.210938 35.59375 Z M 17.210938 34.363281 "/>
<path style=" stroke:none;fill-rule:nonzero;fill:rgb(94.901961%,94.901961%,94.901961%);fill-opacity:1;" d="M 40.855469 35.835938 L 37.0625 39.628906 L 37.054688 39.621094 L 35.863281 40.808594 C 32.410156 44.261719 26.816406 44.261719 23.363281 40.808594 L 22.851562 40.300781 L 26.664062 40.300781 C 26.875 40.300781 26.867188 33.828125 26.664062 33.828125 L 23.679688 33.828125 L 23.679688 25.734375 C 24.019531 25.488281 24.332031 25.214844 24.621094 24.914062 L 24.871094 24.957031 L 33.726562 33.8125 L 35.84375 31.699219 L 36.277344 31.261719 L 37.523438 30.015625 C 37.667969 29.875 37.816406 29.742188 37.96875 29.625 C 38.117188 30.035156 38.355469 30.417969 38.683594 30.746094 C 39.878906 31.941406 41.816406 31.941406 43.011719 30.746094 C 43.34375 30.414062 43.578125 30.027344 43.726562 29.617188 C 43.886719 29.738281 44.039062 29.871094 44.183594 30.015625 L 46.585938 32.417969 L 42.011719 36.992188 Z M 40.855469 35.835938 "/>
<path style=" stroke:none;fill-rule:nonzero;fill:rgb(96.862745%,46.666667%,34.901961%);fill-opacity:1;" d="M 52.289062 35.023438 L 46.160156 41.148438 L 44.964844 39.953125 L 51.042969 33.871094 L 51.089844 33.828125 Z M 52.289062 35.023438 "/>
<path style=" stroke:none;fill-rule:nonzero;fill:rgb(96.862745%,46.666667%,34.901961%);fill-opacity:1;" d="M 43.726562 29.617188 C 43.578125 30.027344 43.34375 30.414062 43.011719 30.746094 C 41.816406 31.941406 39.878906 31.941406 38.683594 30.746094 C 38.355469 30.417969 38.117188 30.035156 37.96875 29.625 C 38.175781 29.464844 38.390625 29.324219 38.613281 29.199219 C 39.519531 28.714844 40.546875 28.542969 41.539062 28.6875 C 42.316406 28.800781 43.074219 29.109375 43.726562 29.617188 Z M 43.726562 29.617188 "/>
<path style=" stroke:none;fill-rule:nonzero;fill:rgb(96.862745%,46.666667%,34.901961%);fill-opacity:1;" d="M 20.902344 36.605469 C 21.808594 37.628906 21.871094 39.140625 21.082031 40.222656 C 19.03125 39.859375 17.441406 38.164062 17.234375 36.066406 C 18.347656 35.378906 19.824219 35.519531 20.785156 36.484375 C 20.828125 36.523438 20.863281 36.566406 20.902344 36.605469 Z M 20.902344 36.605469 "/>
<path style=" stroke:none;fill-rule:nonzero;fill:rgb(80%,80%,80%);fill-opacity:1;" d="M 51.089844 33.828125 L 51.042969 33.871094 L 44.964844 39.953125 L 43.167969 38.15625 L 43.171875 38.15625 L 42.007812 36.992188 L 46.398438 32.605469 L 46.585938 32.417969 L 47.746094 33.578125 C 48.601562 32.722656 49.988281 32.722656 50.84375 33.578125 Z M 51.089844 33.828125 "/>
<path style=" stroke:none;fill-rule:nonzero;fill:rgb(90.196078%,90.196078%,90.196078%);fill-opacity:1;" d="M 24.871094 24.957031 L 24.621094 24.914062 C 25.367188 24.128906 25.933594 23.164062 26.238281 22.09375 L 35.84375 31.699219 L 33.726562 33.8125 Z M 24.871094 24.957031 "/>
<path style=" stroke:none;fill-rule:nonzero;fill:rgb(94.901961%,94.901961%,94.901961%);fill-opacity:1;" d="M 14.796875 27.550781 L 14.691406 27.65625 L 12.722656 29.628906 L 12.476562 29.875 L 11.066406 28.464844 L 13.390625 26.140625 Z M 14.796875 27.550781 "/>
<path style=" stroke:none;fill-rule:nonzero;fill:rgb(96.862745%,46.666667%,34.901961%);fill-opacity:1;" d="M 27.257812 33.882812 L 28.238281 32.902344 C 28.535156 32.605469 29.039062 32.816406 29.039062 33.234375 L 29.039062 34.203125 L 29.890625 34.28125 C 30.867188 34.371094 31.613281 35.1875 31.613281 36.164062 L 31.613281 37.726562 C 31.613281 38.621094 30.984375 39.394531 30.109375 39.578125 L 26.664062 40.300781 L 26.664062 33.828125 "/>
<path style=" stroke:none;fill-rule:nonzero;fill:rgb(94.901961%,94.901961%,94.901961%);fill-opacity:1;" d="M 26.726562 20.550781 C 26.726562 24.417969 23.59375 27.550781 19.722656 27.550781 C 15.855469 27.550781 12.71875 24.417969 12.71875 20.550781 C 12.71875 16.679688 15.855469 13.546875 19.722656 13.546875 C 23.59375 13.546875 26.726562 16.679688 26.726562 20.550781 Z M 26.726562 20.550781 "/>
<path style=" stroke:none;fill-rule:nonzero;fill:rgb(31.764706%,74.509804%,89.803922%);fill-opacity:1;" d="M 17.878906 14.960938 C 14.6875 15.976562 12.773438 18.902344 13.601562 21.496094 C 14.429688 24.089844 17.683594 25.367188 20.875 24.351562 C 24.0625 23.335938 25.976562 20.40625 25.152344 17.8125 C 24.324219 15.21875 21.066406 13.941406 17.878906 14.960938 Z M 17.878906 14.960938 "/>
<path style=" stroke:none;fill-rule:nonzero;fill:rgb(45.098039%,83.529412%,93.72549%);fill-opacity:1;" d="M 22.765625 17.398438 C 22.03125 17.535156 21.589844 18.476562 21.78125 19.5 C 21.972656 20.519531 22.722656 21.238281 23.457031 21.101562 C 24.191406 20.964844 24.632812 20.023438 24.441406 19 C 24.25 17.976562 23.5 17.261719 22.765625 17.398438 Z M 22.765625 17.398438 "/>
<path style=" stroke:none;fill-rule:nonzero;fill:rgb(96.862745%,46.666667%,34.901961%);fill-opacity:1;" d="M 34.859375 18.535156 L 33.863281 17 C 33.601562 16.601562 33.890625 16.074219 34.363281 16.074219 L 34.90625 16.074219 L 35.597656 14.492188 C 36.011719 13.546875 37.0625 13.050781 38.054688 13.339844 L 38.449219 13.453125 C 39.457031 13.742188 40.082031 14.742188 39.90625 15.773438 L 39.214844 19.828125 Z M 34.859375 18.535156 "/>
</g>
</svg>
