<?xml version="1.0" encoding="UTF-8"?>
<svg xmlns="http://www.w3.org/2000/svg" xmlns:xlink="http://www.w3.org/1999/xlink" width="60pt" height="60pt" viewBox="0 0 60 60" version="1.1">
<g id="surface1">
<path style=" stroke:none;fill-rule:nonzero;fill:rgb(36.470588%,91.372549%,95.686275%);fill-opacity:1;" d="M 60 30 C 60 36.984375 57.613281 43.414062 53.609375 48.511719 C 49.410156 53.859375 43.429688 50.460938 36.566406 51.992188 C 34.453125 52.464844 25.546875 52.464844 23.433594 51.992188 C 16.570312 50.460938 10.589844 53.859375 6.390625 48.511719 C 2.386719 43.414062 0 36.984375 0 30 C 0 13.433594 13.433594 0 30 0 C 46.566406 0 60 13.433594 60 30 Z M 60 30 "/>
<path style=" stroke:none;fill-rule:nonzero;fill:rgb(29.411765%,77.254902%,93.72549%);fill-opacity:1;" d="M 38.878906 9.644531 L 38.574219 11.589844 L 30 3.015625 L 18.824219 25.277344 L 29.246094 35.699219 L 46.886719 51.667969 C 49.4375 51.5625 51.707031 50.9375 53.609375 48.511719 C 57.46875 43.597656 59.824219 37.449219 59.992188 30.753906 Z M 38.878906 9.644531 "/>
<path style=" stroke:none;fill-rule:nonzero;fill:rgb(91.764706%,65.098039%,47.058824%);fill-opacity:1;" d="M 23.433594 29.324219 L 36.566406 29.324219 L 36.566406 43.25 L 23.433594 43.25 Z M 23.433594 29.324219 "/>
<path style=" stroke:none;fill-rule:nonzero;fill:rgb(82.745098%,54.901961%,35.686275%);fill-opacity:1;" d="M 30 29.324219 L 36.566406 29.324219 L 36.566406 43.25 L 30 43.25 Z M 30 29.324219 "/>
<path style=" stroke:none;fill-rule:nonzero;fill:rgb(100%,76.470588%,59.215686%);fill-opacity:1;" d="M 40.34375 17.839844 C 39.90625 11.207031 34.539062 8.753906 30 8.753906 C 25.460938 8.753906 20.09375 11.207031 19.65625 17.839844 C 18.484375 18.066406 17.648438 19.605469 17.78125 20.851562 L 17.984375 23.683594 C 18.121094 24.992188 19.269531 25.945312 20.535156 25.804688 L 20.753906 25.78125 C 23.347656 32.746094 27.417969 33.472656 30 33.878906 C 32.582031 33.472656 36.652344 32.746094 39.246094 25.78125 L 39.464844 25.804688 C 40.730469 25.945312 41.878906 24.992188 42.015625 23.683594 L 42.21875 20.851562 C 42.351562 19.605469 41.515625 18.066406 40.34375 17.839844 Z M 40.34375 17.839844 "/>
<path style=" stroke:none;fill-rule:nonzero;fill:rgb(91.764706%,65.098039%,47.058824%);fill-opacity:1;" d="M 42.21875 20.851562 L 42.015625 23.683594 C 41.878906 24.992188 40.730469 25.945312 39.464844 25.804688 L 39.246094 25.78125 C 38.359375 28.15625 37.300781 29.808594 36.1875 30.96875 C 34.046875 33.203125 31.703125 33.613281 30 33.878906 L 30 8.753906 C 34.539062 8.753906 39.90625 11.207031 40.34375 17.839844 C 41.515625 18.066406 42.351562 19.605469 42.21875 20.851562 Z M 42.21875 20.851562 "/>
<path style=" stroke:none;fill-rule:nonzero;fill:rgb(31.764706%,31.764706%,31.764706%);fill-opacity:1;" d="M 38.882812 9.644531 C 37.027344 7.894531 30 3.015625 30 3.015625 C 30 3.015625 22.972656 7.894531 21.117188 9.644531 C 19.265625 11.398438 16.378906 15.828125 20.089844 22.21875 L 21.945312 22.21875 L 23.0625 16.679688 C 23.398438 15.035156 25.113281 14.070312 26.691406 14.640625 L 26.984375 14.746094 C 28.933594 15.445312 31.066406 15.445312 33.015625 14.746094 L 33.308594 14.640625 C 34.886719 14.070312 36.601562 15.035156 36.9375 16.679688 L 38.054688 22.21875 L 39.910156 22.21875 C 43.621094 15.828125 40.734375 11.398438 38.882812 9.644531 Z M 38.882812 9.644531 "/>
<path style=" stroke:none;fill-rule:nonzero;fill:rgb(100%,76.470588%,59.215686%);fill-opacity:1;" d="M 23.433594 38.066406 L 36.566406 38.066406 L 36.566406 51.992188 L 23.433594 51.992188 Z M 23.433594 38.066406 "/>
<path style=" stroke:none;fill-rule:nonzero;fill:rgb(91.764706%,65.098039%,47.058824%);fill-opacity:1;" d="M 30 38.066406 L 36.566406 38.066406 L 36.566406 51.992188 L 30 51.992188 Z M 30 38.066406 "/>
<path style=" stroke:none;fill-rule:nonzero;fill:rgb(100%,100%,100%);fill-opacity:1;" d="M 40.539062 58.09375 C 39.253906 58.578125 37.925781 58.976562 36.566406 59.277344 C 34.453125 59.75 32.257812 60 30 60 C 27.742188 60 25.546875 59.75 23.433594 59.277344 C 22.074219 58.976562 20.746094 58.578125 19.460938 58.09375 L 23.433594 38.679688 C 24.949219 41.105469 27.472656 42.320312 30 42.320312 C 32.523438 42.320312 35.050781 41.105469 36.566406 38.679688 Z M 40.539062 58.09375 "/>
<path style=" stroke:none;fill-rule:nonzero;fill:rgb(80.784314%,80.784314%,80.784314%);fill-opacity:1;" d="M 40.539062 58.09375 C 39.253906 58.578125 37.925781 58.976562 36.566406 59.277344 C 34.453125 59.75 32.257812 60 30 60 L 30 42.320312 C 32.523438 42.320312 35.050781 41.105469 36.566406 38.679688 Z M 40.539062 58.09375 "/>
<path style=" stroke:none;fill-rule:nonzero;fill:rgb(68.627451%,36.862745%,13.333333%);fill-opacity:1;" d="M 23.433594 38.066406 L 23.433594 59.277344 C 16.570312 57.746094 10.589844 53.859375 6.390625 48.511719 L 6.390625 44.675781 C 6.390625 41.023438 9.351562 38.066406 13.003906 38.066406 L 16.949219 38.066406 L 20.820312 39.15625 Z M 23.433594 38.066406 "/>
<path style=" stroke:none;fill-rule:nonzero;fill:rgb(53.72549%,28.627451%,11.372549%);fill-opacity:1;" d="M 53.609375 44.675781 L 53.609375 48.511719 C 49.410156 53.859375 43.429688 57.746094 36.566406 59.277344 L 36.566406 38.066406 L 39.714844 38.78125 L 43.050781 38.066406 L 46.996094 38.066406 C 50.648438 38.066406 53.609375 41.023438 53.609375 44.675781 Z M 53.609375 44.675781 "/>
<path style=" stroke:none;fill-rule:nonzero;fill:rgb(53.72549%,28.627451%,11.372549%);fill-opacity:1;" d="M 23.433594 38.066406 L 16.949219 38.066406 L 18.996094 45.976562 L 20.820312 46.460938 L 23.433594 51.992188 Z M 23.433594 38.066406 "/>
<path style=" stroke:none;fill-rule:nonzero;fill:rgb(35.686275%,18.039216%,6.27451%);fill-opacity:1;" d="M 36.566406 38.066406 L 43.050781 38.066406 L 41.003906 45.976562 L 39.179688 46.460938 L 36.566406 51.992188 Z M 36.566406 38.066406 "/>
<path style=" stroke:none;fill-rule:nonzero;fill:rgb(23.921569%,23.921569%,23.921569%);fill-opacity:1;" d="M 39.910156 22.21875 L 38.054688 22.21875 L 36.9375 16.679688 C 36.601562 15.039062 34.886719 14.070312 33.308594 14.640625 L 33.015625 14.746094 C 32.042969 15.09375 31.019531 15.269531 30 15.269531 L 30 3.015625 C 30 3.015625 37.023438 7.894531 38.878906 9.644531 C 40.734375 11.398438 43.621094 15.828125 39.910156 22.21875 Z M 39.910156 22.21875 "/>
</g>
</svg>
