<?xml version="1.0" encoding="UTF-8"?>
<svg xmlns="http://www.w3.org/2000/svg" xmlns:xlink="http://www.w3.org/1999/xlink" width="60pt" height="60pt" viewBox="0 0 60 60" version="1.1">
<g id="surface1">
<path style=" stroke:none;fill-rule:nonzero;fill:rgb(86.666667%,27.058824%,44.313725%);fill-opacity:1;" d="M 0 30 C 0 13.429688 13.429688 0 30 0 C 46.570312 0 60 13.429688 60 30 C 60 37.984375 56.882812 45.238281 51.796875 50.613281 C 46.328125 56.394531 38.585938 52.148438 30 52.148438 C 21.414062 52.148438 13.671875 56.394531 8.203125 50.613281 C 3.117188 45.238281 0 37.984375 0 30 Z M 0 30 "/>
<path style=" stroke:none;fill-rule:nonzero;fill:rgb(75.686275%,12.941176%,33.72549%);fill-opacity:1;" d="M 33.769531 4.1875 L 28.527344 24.804688 L 24.207031 22.847656 L 18.957031 25.382812 L 26.46875 32.894531 L 24.207031 41.785156 L 42.5625 53.589844 C 46.054688 53.847656 49.183594 53.375 51.796875 50.613281 C 56.792969 45.332031 59.890625 38.234375 59.996094 30.414062 Z M 33.769531 4.1875 "/>
<path style=" stroke:none;fill-rule:nonzero;fill:rgb(23.921569%,23.921569%,23.921569%);fill-opacity:1;" d="M 33.511719 3.914062 C 31.570312 1.972656 28.421875 1.972656 26.480469 3.914062 C 24.539062 5.855469 24.539062 9.003906 26.480469 10.945312 C 28.421875 12.886719 31.570312 12.886719 33.511719 10.945312 C 35.453125 9.003906 35.453125 5.855469 33.511719 3.914062 Z M 33.511719 3.914062 "/>
<path style=" stroke:none;fill-rule:nonzero;fill:rgb(14.117647%,14.901961%,14.509804%);fill-opacity:1;" d="M 34.972656 7.425781 C 34.972656 7.855469 34.917969 8.265625 34.816406 8.664062 C 34.265625 10.808594 32.320312 12.398438 30 12.398438 L 30 2.457031 C 32.746094 2.457031 34.972656 4.679688 34.972656 7.425781 Z M 34.972656 7.425781 "/>
<path style=" stroke:none;fill-rule:nonzero;fill:rgb(91.764706%,65.098039%,47.058824%);fill-opacity:1;" d="M 23.433594 29.324219 L 36.566406 29.324219 L 36.566406 43.25 L 23.433594 43.25 Z M 23.433594 29.324219 "/>
<path style=" stroke:none;fill-rule:nonzero;fill:rgb(82.745098%,54.901961%,35.686275%);fill-opacity:1;" d="M 30 29.324219 L 36.566406 29.324219 L 36.566406 43.25 L 30 43.25 Z M 30 29.324219 "/>
<path style=" stroke:none;fill-rule:nonzero;fill:rgb(100%,76.470588%,59.215686%);fill-opacity:1;" d="M 48.988281 50.644531 L 11.011719 50.644531 L 11.011719 46.328125 C 11.011719 41.925781 14.582031 38.355469 18.984375 38.355469 L 41.015625 38.355469 C 45.417969 38.355469 48.988281 41.925781 48.988281 46.328125 Z M 48.988281 50.644531 "/>
<path style=" stroke:none;fill-rule:nonzero;fill:rgb(91.764706%,65.098039%,47.058824%);fill-opacity:1;" d="M 48.992188 46.328125 L 48.992188 50.640625 L 30 50.640625 L 30 38.355469 L 41.015625 38.355469 C 44.328125 38.355469 47.171875 40.375 48.375 43.25 C 48.769531 44.199219 48.992188 45.238281 48.992188 46.328125 Z M 48.992188 46.328125 "/>
<path style=" stroke:none;fill-rule:nonzero;fill:rgb(100%,100%,100%);fill-opacity:1;" d="M 51.796875 44.453125 L 51.796875 49.355469 L 50.738281 50.234375 C 49.984375 51.027344 50.25 52.164062 49.414062 52.871094 C 47.695312 54.332031 45.808594 55.601562 43.789062 56.652344 C 39.660156 58.789062 34.972656 60 30 60 C 25.027344 60 20.339844 58.789062 16.214844 56.652344 C 14.191406 55.601562 12.304688 54.332031 10.585938 52.871094 C 9.75 52.164062 10.179688 51.160156 9.425781 50.363281 L 8.203125 49.355469 L 8.203125 45.578125 C 9.074219 44.691406 8.691406 42.0625 8.691406 42.0625 C 9.625 39.882812 11.785156 38.355469 14.304688 38.355469 L 18.984375 38.355469 L 22.238281 42.0625 L 24.226562 44.328125 C 24.652344 44.8125 25.121094 45.230469 25.625 45.578125 C 28.242188 47.398438 31.757812 47.398438 34.375 45.578125 C 34.878906 45.226562 35.347656 44.8125 35.773438 44.328125 L 37.761719 42.0625 L 41.015625 38.355469 L 45.695312 38.355469 C 48.214844 38.355469 50.375 39.882812 51.308594 42.0625 C 51.621094 42.796875 51.796875 43.605469 51.796875 44.453125 Z M 51.796875 44.453125 "/>
<path style=" stroke:none;fill-rule:nonzero;fill:rgb(85.882353%,85.882353%,85.882353%);fill-opacity:1;" d="M 50.605469 44.5 L 51.796875 45.578125 L 51.796875 49.355469 L 49.945312 51.113281 C 49.191406 51.910156 50.25 52.164062 49.414062 52.871094 C 47.695312 54.332031 45.808594 55.601562 43.789062 56.652344 C 41.988281 57.585938 38.882812 57.769531 36.894531 58.324219 C 34.320312 59.042969 32.804688 58.324219 30 58.324219 L 30 46.941406 C 32.121094 46.941406 34.242188 46.070312 35.773438 44.328125 L 36.71875 43.25 L 41.015625 38.355469 L 45.695312 38.355469 C 46.773438 38.355469 47.789062 38.632812 48.667969 39.128906 C 49.84375 39.785156 50.777344 40.816406 51.308594 42.0625 C 51.621094 42.796875 50.605469 43.648438 50.605469 44.5 Z M 50.605469 44.5 "/>
<path style=" stroke:none;fill-rule:nonzero;fill:rgb(100%,76.470588%,59.215686%);fill-opacity:1;" d="M 40.34375 17.839844 C 39.90625 11.207031 34.539062 8.753906 30 8.753906 C 25.460938 8.753906 20.09375 11.207031 19.65625 17.839844 C 18.484375 18.066406 17.648438 19.605469 17.78125 20.851562 L 17.984375 23.683594 C 18.121094 24.992188 19.269531 25.945312 20.535156 25.804688 L 20.753906 25.78125 C 23.347656 32.746094 27.417969 33.472656 30 33.878906 C 32.582031 33.472656 36.652344 32.746094 39.246094 25.78125 L 39.464844 25.804688 C 40.730469 25.945312 41.878906 24.992188 42.015625 23.683594 L 42.21875 20.851562 C 42.351562 19.605469 41.515625 18.066406 40.34375 17.839844 Z M 40.34375 17.839844 "/>
<path style=" stroke:none;fill-rule:nonzero;fill:rgb(91.764706%,65.098039%,47.058824%);fill-opacity:1;" d="M 42.21875 20.851562 L 42.015625 23.683594 C 41.878906 24.992188 40.730469 25.945312 39.464844 25.804688 L 39.246094 25.78125 C 38.359375 28.15625 37.300781 29.808594 36.1875 30.96875 C 34.046875 33.203125 31.703125 33.613281 30 33.878906 L 30 8.753906 C 34.539062 8.753906 39.90625 11.207031 40.34375 17.839844 C 41.515625 18.066406 42.351562 19.605469 42.21875 20.851562 Z M 42.21875 20.851562 "/>
<path style=" stroke:none;fill-rule:nonzero;fill:rgb(31.764706%,31.764706%,31.764706%);fill-opacity:1;" d="M 34.492188 8.550781 C 33.710938 7.871094 32.46875 7.425781 30.546875 7.425781 C 18.941406 7.425781 18.535156 17.632812 20.40625 22.550781 C 20.40625 22.550781 28.035156 21.984375 33.722656 15.652344 C 35.75 20.101562 40.289062 22.550781 40.289062 22.550781 C 42.113281 12.40625 37.546875 9.558594 34.492188 8.550781 Z M 34.492188 8.550781 "/>
<path style=" stroke:none;fill-rule:nonzero;fill:rgb(23.921569%,23.921569%,23.921569%);fill-opacity:1;" d="M 40.289062 22.550781 C 40.289062 22.550781 35.75 20.101562 33.722656 15.652344 C 32.539062 16.976562 31.265625 18.042969 30 18.910156 L 30 7.4375 C 30.179688 7.429688 30.359375 7.425781 30.542969 7.425781 C 32.46875 7.425781 33.710938 7.871094 34.492188 8.550781 C 34.597656 8.585938 34.707031 8.625 34.816406 8.664062 C 37.859375 9.765625 42.046875 12.757812 40.289062 22.550781 Z M 40.289062 22.550781 "/>
<path style=" stroke:none;fill-rule:nonzero;fill:rgb(35.686275%,73.72549%,58.823529%);fill-opacity:1;" d="M 25.625 45.578125 L 8.203125 45.578125 L 8.203125 44.453125 C 8.203125 43.605469 8.378906 42.796875 8.691406 42.0625 L 22.238281 42.0625 L 24.226562 44.328125 C 24.652344 44.8125 25.121094 45.226562 25.625 45.578125 Z M 25.625 45.578125 "/>
<path style=" stroke:none;fill-rule:nonzero;fill:rgb(22.352941%,61.960784%,45.098039%);fill-opacity:1;" d="M 51.796875 44.453125 L 51.796875 45.578125 L 34.375 45.578125 C 34.878906 45.226562 35.347656 44.8125 35.773438 44.328125 L 37.761719 42.0625 L 51.308594 42.0625 C 51.621094 42.796875 51.796875 43.605469 51.796875 44.453125 Z M 51.796875 44.453125 "/>
<path style=" stroke:none;fill-rule:nonzero;fill:rgb(35.686275%,73.72549%,58.823529%);fill-opacity:1;" d="M 51.796875 49.355469 L 51.796875 50.613281 C 51.042969 51.410156 50.25 52.164062 49.414062 52.871094 L 10.585938 52.871094 C 9.75 52.164062 8.957031 51.410156 8.203125 50.613281 L 8.203125 49.355469 Z M 51.796875 49.355469 "/>
<path style=" stroke:none;fill-rule:nonzero;fill:rgb(35.686275%,73.72549%,58.823529%);fill-opacity:1;" d="M 43.789062 56.652344 C 39.660156 58.789062 34.972656 60 30 60 C 25.027344 60 20.339844 58.789062 16.214844 56.652344 Z M 43.789062 56.652344 "/>
<path style=" stroke:none;fill-rule:nonzero;fill:rgb(22.352941%,61.960784%,45.098039%);fill-opacity:1;" d="M 51.796875 49.355469 L 51.796875 50.613281 C 51.042969 51.410156 50.25 52.164062 49.414062 52.871094 L 30 52.871094 L 30 49.355469 Z M 51.796875 49.355469 "/>
<path style=" stroke:none;fill-rule:nonzero;fill:rgb(22.352941%,61.960784%,45.098039%);fill-opacity:1;" d="M 43.789062 56.652344 C 39.660156 58.789062 34.972656 60 30 60 L 30 56.652344 Z M 43.789062 56.652344 "/>
</g>
</svg>
