<?xml version="1.0" encoding="UTF-8"?>
<svg xmlns="http://www.w3.org/2000/svg" xmlns:xlink="http://www.w3.org/1999/xlink" width="60pt" height="60pt" viewBox="0 0 60 60" version="1.1">
<g id="surface1">
<path style=" stroke:none;fill-rule:nonzero;fill:rgb(100%,81.960784%,39.215686%);fill-opacity:1;" d="M 30 0 C 20.914062 0 13.546875 7.367188 13.546875 16.453125 L 13.546875 23.871094 C 13.546875 36.855469 21.609375 43.492188 21.609375 43.492188 L 46.453125 43.492188 L 46.453125 16.453125 C 46.453125 7.367188 39.085938 0 30 0 Z M 30 0 "/>
<path style=" stroke:none;fill-rule:nonzero;fill:rgb(100%,76.470588%,31.372549%);fill-opacity:1;" d="M 13.546875 16.453125 L 13.546875 23.871094 C 13.546875 36.855469 21.609375 43.492188 21.609375 43.492188 L 30 43.492188 L 30 0 C 20.914062 0 13.546875 7.367188 13.546875 16.453125 Z M 13.546875 16.453125 "/>
<path style=" stroke:none;fill-rule:nonzero;fill:rgb(96.862745%,82.352941%,56.862745%);fill-opacity:1;" d="M 48.382812 47.019531 L 38.390625 43.492188 C 36.839844 42.945312 35.804688 41.484375 35.804688 39.84375 L 35.804688 33.871094 L 24.195312 33.871094 L 24.195312 39.84375 C 24.195312 41.484375 23.160156 42.945312 21.609375 43.492188 L 11.617188 47.019531 C 9.292969 47.839844 7.742188 50.035156 7.742188 52.496094 L 7.742188 57.097656 C 7.742188 58.699219 9.042969 60 10.644531 60 L 49.355469 60 C 50.957031 60 52.257812 58.699219 52.257812 57.097656 L 52.257812 52.496094 C 52.257812 50.035156 50.707031 47.839844 48.382812 47.019531 Z M 48.382812 47.019531 "/>
<path style=" stroke:none;fill-rule:nonzero;fill:rgb(64.705882%,80.392157%,100%);fill-opacity:1;" d="M 48.382812 47.019531 L 40.066406 44.085938 C 38.636719 48.273438 34.675781 51.289062 30 51.289062 C 25.324219 51.289062 21.363281 48.273438 19.933594 44.085938 L 11.617188 47.019531 C 9.292969 47.839844 7.742188 50.035156 7.742188 52.496094 L 7.742188 57.097656 C 7.742188 58.699219 9.042969 60 10.644531 60 L 49.355469 60 C 50.957031 60 52.257812 58.699219 52.257812 57.097656 L 52.257812 52.496094 C 52.257812 50.035156 50.707031 47.839844 48.382812 47.019531 Z M 48.382812 47.019531 "/>
<path style=" stroke:none;fill-rule:nonzero;fill:rgb(92.941176%,92.156863%,92.941176%);fill-opacity:1;" d="M 30 55.160156 C 36.359375 55.160156 41.75 51.066406 43.714844 45.371094 L 40.066406 44.085938 C 38.636719 48.273438 34.675781 51.289062 30 51.289062 C 25.324219 51.289062 21.363281 48.273438 19.933594 44.085938 L 16.285156 45.371094 C 18.25 51.066406 23.640625 55.160156 30 55.160156 Z M 30 55.160156 "/>
<path style=" stroke:none;fill-rule:nonzero;fill:rgb(54.901961%,70.588235%,92.156863%);fill-opacity:1;" d="M 14.761719 53.269531 L 9.28125 48.570312 C 8.835938 49.054688 8.484375 49.609375 8.226562 50.214844 L 13.503906 54.738281 C 14.148438 55.289062 14.515625 56.09375 14.515625 56.941406 L 14.515625 60 L 16.453125 60 L 16.453125 56.941406 C 16.453125 55.527344 15.835938 54.1875 14.761719 53.269531 Z M 14.761719 53.269531 "/>
<path style=" stroke:none;fill-rule:nonzero;fill:rgb(94.117647%,76.470588%,50.980392%);fill-opacity:1;" d="M 24.195312 37.472656 C 25.769531 38.171875 27.484375 38.609375 29.300781 38.691406 C 29.535156 38.703125 29.769531 38.710938 30 38.710938 C 32.066406 38.710938 34.027344 38.269531 35.804688 37.488281 L 35.804688 33.871094 L 24.195312 33.871094 Z M 24.195312 37.472656 "/>
<path style=" stroke:none;fill-rule:nonzero;fill:rgb(100%,88.235294%,62.745098%);fill-opacity:1;" d="M 42.925781 20.324219 C 41.667969 20.324219 40.644531 19.300781 40.644531 18.042969 L 40.644531 16.453125 C 40.644531 13.777344 38.480469 11.613281 35.804688 11.613281 L 24.195312 11.613281 C 21.519531 11.613281 19.355469 13.777344 19.355469 16.453125 L 19.355469 18.042969 C 19.355469 19.300781 18.332031 20.324219 17.074219 20.324219 C 15.808594 20.324219 14.65625 21.234375 14.527344 22.492188 C 14.382812 23.941406 15.515625 25.160156 16.933594 25.160156 L 17.46875 25.160156 C 17.964844 31.65625 23.378906 36.773438 30 36.773438 C 36.621094 36.773438 42.035156 31.65625 42.53125 25.160156 L 43.0625 25.160156 C 44.484375 25.160156 45.617188 23.941406 45.472656 22.492188 C 45.34375 21.234375 44.191406 20.324219 42.925781 20.324219 Z M 42.925781 20.324219 "/>
<path style=" stroke:none;fill-rule:nonzero;fill:rgb(96.862745%,82.352941%,56.862745%);fill-opacity:1;" d="M 24.195312 14.929688 C 25.144531 14.796875 26.113281 15.058594 26.839844 15.683594 C 31.632812 19.824219 37.839844 22.257812 44.515625 22.257812 C 44.804688 22.257812 45.105469 22.25 45.417969 22.238281 C 45.171875 21.105469 44.085938 20.308594 42.898438 20.324219 C 41.648438 20.335938 40.644531 19.289062 40.644531 18.042969 L 40.644531 16.453125 C 40.644531 13.777344 38.480469 11.613281 35.804688 11.613281 L 24.195312 11.613281 C 23.101562 11.613281 22.101562 11.984375 21.289062 12.597656 L 21.289062 12.601562 C 20.121094 13.484375 19.355469 14.875 19.355469 16.453125 L 19.355469 18.140625 C 19.355469 19.394531 18.300781 20.308594 17.046875 20.324219 C 15.792969 20.335938 14.652344 21.242188 14.527344 22.492188 C 14.382812 23.941406 15.515625 25.160156 16.933594 25.160156 L 17.46875 25.160156 C 17.964844 31.65625 23.378906 36.773438 30 36.773438 C 30.660156 36.773438 31.308594 36.710938 31.941406 36.609375 C 25.910156 35.679688 21.289062 30.484375 21.289062 24.195312 L 21.289062 18.28125 C 21.289062 16.597656 22.527344 15.167969 24.195312 14.929688 Z M 24.195312 14.929688 "/>
<path style=" stroke:none;fill-rule:nonzero;fill:rgb(43.137255%,35.294118%,39.215686%);fill-opacity:1;" d="M 24.195312 23.226562 C 23.660156 23.226562 23.226562 22.792969 23.226562 22.257812 L 23.226562 21.289062 C 23.226562 20.757812 23.660156 20.324219 24.195312 20.324219 C 24.726562 20.324219 25.160156 20.757812 25.160156 21.289062 L 25.160156 22.257812 C 25.160156 22.792969 24.726562 23.226562 24.195312 23.226562 Z M 24.195312 23.226562 "/>
<path style=" stroke:none;fill-rule:nonzero;fill:rgb(43.137255%,35.294118%,39.215686%);fill-opacity:1;" d="M 35.804688 23.226562 C 35.269531 23.226562 34.839844 22.792969 34.839844 22.257812 L 34.839844 21.289062 C 34.839844 20.757812 35.273438 20.324219 35.804688 20.324219 C 36.339844 20.324219 36.773438 20.757812 36.773438 21.289062 L 36.773438 22.257812 C 36.773438 22.792969 36.339844 23.226562 35.804688 23.226562 Z M 35.804688 23.226562 "/>
<path style=" stroke:none;fill-rule:nonzero;fill:rgb(89.019608%,66.666667%,45.882353%);fill-opacity:1;" d="M 30 30 C 28.546875 30 27.207031 29.535156 26.417969 28.753906 C 26.035156 28.378906 26.03125 27.765625 26.40625 27.386719 C 26.78125 27.003906 27.398438 27 27.777344 27.375 C 28.097656 27.695312 28.875 28.066406 30 28.066406 C 31.125 28.066406 31.902344 27.695312 32.222656 27.375 C 32.601562 27 33.21875 27.003906 33.59375 27.386719 C 33.96875 27.765625 33.964844 28.378906 33.582031 28.753906 C 32.792969 29.535156 31.453125 30 30 30 Z M 30 30 "/>
<path style=" stroke:none;fill-rule:nonzero;fill:rgb(54.901961%,70.588235%,92.156863%);fill-opacity:1;" d="M 45.238281 53.269531 L 50.71875 48.570312 C 51.164062 49.054688 51.515625 49.609375 51.773438 50.214844 L 46.496094 54.738281 C 45.851562 55.289062 45.484375 56.09375 45.484375 56.941406 L 45.484375 60 L 43.546875 60 L 43.546875 56.941406 C 43.546875 55.527344 44.164062 54.1875 45.238281 53.269531 Z M 45.238281 53.269531 "/>
<path style=" stroke:none;fill-rule:nonzero;fill:rgb(89.019608%,66.666667%,45.882353%);fill-opacity:1;" d="M 22.257812 19.355469 C 21.851562 19.355469 21.476562 19.097656 21.339844 18.691406 C 21.171875 18.1875 21.445312 17.636719 21.953125 17.46875 L 24.855469 16.5 C 25.367188 16.332031 25.910156 16.605469 26.078125 17.113281 C 26.25 17.621094 25.972656 18.167969 25.46875 18.335938 L 22.5625 19.304688 C 22.460938 19.339844 22.359375 19.355469 22.257812 19.355469 Z M 22.257812 19.355469 "/>
<path style=" stroke:none;fill-rule:nonzero;fill:rgb(100%,88.235294%,49.019608%);fill-opacity:1;" d="M 30 0 C 26.5 0 23.261719 1.101562 20.59375 2.964844 C 23.878906 13.039062 33.34375 20.324219 44.515625 20.324219 C 45.167969 20.324219 45.8125 20.289062 46.453125 20.242188 L 46.453125 16.453125 C 46.453125 7.367188 39.085938 0 30 0 Z M 30 0 "/>
<path style=" stroke:none;fill-rule:nonzero;fill:rgb(100%,81.960784%,39.215686%);fill-opacity:1;" d="M 35.804688 36.773438 L 35.804688 40.644531 C 35.804688 49.191406 42.582031 52.257812 42.582031 60 L 46.453125 60 L 46.453125 36.773438 Z M 35.804688 36.773438 "/>
</g>
</svg>
