<?xml version="1.0" encoding="UTF-8"?>
<svg xmlns="http://www.w3.org/2000/svg" xmlns:xlink="http://www.w3.org/1999/xlink" width="60pt" height="60pt" viewBox="0 0 60 60" version="1.1">
<g id="surface1">
<path style=" stroke:none;fill-rule:nonzero;fill:rgb(54.901961%,37.254902%,29.411765%);fill-opacity:1;" d="M 46.410156 15.90625 C 45.890625 6.972656 38.699219 0 30 0 C 21.300781 0 14.109375 6.972656 13.589844 15.90625 L 12.761719 29.503906 C 12.140625 39.738281 20.039062 48.386719 30 48.386719 C 39.960938 48.386719 47.859375 39.738281 47.238281 29.503906 Z M 46.410156 15.90625 "/>
<path style=" stroke:none;fill-rule:nonzero;fill:rgb(89.019608%,66.666667%,45.882353%);fill-opacity:1;" d="M 48.382812 47.019531 L 38.390625 43.492188 C 36.839844 42.945312 35.804688 41.484375 35.804688 39.84375 L 35.804688 34.839844 L 24.195312 34.839844 L 24.195312 39.84375 C 24.195312 41.484375 23.160156 42.945312 21.609375 43.492188 L 11.617188 47.019531 C 9.292969 47.839844 7.742188 50.035156 7.742188 52.496094 L 7.742188 57.097656 C 7.742188 58.699219 9.042969 60 10.644531 60 L 49.355469 60 C 50.957031 60 52.257812 58.699219 52.257812 57.097656 L 52.257812 52.496094 C 52.257812 50.035156 50.707031 47.839844 48.382812 47.019531 Z M 48.382812 47.019531 "/>
<path style=" stroke:none;fill-rule:nonzero;fill:rgb(82.352941%,60.784314%,43.137255%);fill-opacity:1;" d="M 24.195312 37.472656 C 25.980469 38.261719 27.945312 38.710938 30 38.710938 C 32.054688 38.710938 34.019531 38.261719 35.804688 37.472656 L 35.804688 34.839844 L 24.195312 34.839844 Z M 24.195312 37.472656 "/>
<path style=" stroke:none;fill-rule:nonzero;fill:rgb(96.078431%,72.54902%,49.019608%);fill-opacity:1;" d="M 37.742188 11.613281 L 22.257812 11.613281 C 19.585938 11.613281 17.417969 13.777344 17.417969 16.453125 L 17.417969 23.839844 C 17.417969 30.613281 22.625 36.441406 29.390625 36.761719 C 36.617188 37.101562 42.582031 31.34375 42.582031 24.195312 L 42.582031 16.453125 C 42.582031 13.777344 40.414062 11.613281 37.742188 11.613281 Z M 37.742188 11.613281 "/>
<path style=" stroke:none;fill-rule:nonzero;fill:rgb(89.019608%,66.666667%,45.882353%);fill-opacity:1;" d="M 21.289062 20.324219 L 27.097656 20.324219 L 27.097656 22.257812 L 21.289062 22.257812 Z M 21.289062 20.324219 "/>
<path style=" stroke:none;fill-rule:nonzero;fill:rgb(89.019608%,66.666667%,45.882353%);fill-opacity:1;" d="M 32.902344 20.324219 L 38.710938 20.324219 L 38.710938 22.257812 L 32.902344 22.257812 Z M 32.902344 20.324219 "/>
<path style=" stroke:none;fill-rule:nonzero;fill:rgb(89.019608%,66.666667%,45.882353%);fill-opacity:1;" d="M 21.289062 23.839844 L 21.289062 18.386719 C 21.289062 15.714844 23.457031 13.546875 26.128906 13.546875 L 35.804688 13.546875 C 36.875 13.546875 37.742188 12.683594 37.742188 11.613281 L 22.257812 11.613281 C 19.585938 11.613281 17.417969 13.777344 17.417969 16.453125 L 17.417969 23.8125 C 17.417969 29.488281 21.03125 34.679688 26.480469 36.269531 C 28.375 36.824219 30.210938 36.886719 31.9375 36.621094 C 25.828125 35.660156 21.289062 30.164062 21.289062 23.839844 Z M 21.289062 23.839844 "/>
<path style=" stroke:none;fill-rule:nonzero;fill:rgb(35.294118%,27.45098%,31.372549%);fill-opacity:1;" d="M 23.226562 19.355469 L 23.226562 21.375 C 23.226562 21.910156 23.660156 22.34375 24.195312 22.34375 C 24.726562 22.34375 25.160156 21.910156 25.160156 21.375 L 25.160156 19.355469 Z M 23.226562 19.355469 "/>
<path style=" stroke:none;fill-rule:nonzero;fill:rgb(35.294118%,27.45098%,31.372549%);fill-opacity:1;" d="M 34.839844 19.355469 L 34.839844 21.375 C 34.839844 21.910156 35.273438 22.34375 35.804688 22.34375 C 36.339844 22.34375 36.773438 21.910156 36.773438 21.375 L 36.773438 19.355469 Z M 34.839844 19.355469 "/>
<path style=" stroke:none;fill-rule:nonzero;fill:rgb(71.372549%,49.803922%,37.254902%);fill-opacity:1;" d="M 30 30.96875 C 28.546875 30.96875 27.207031 30.5 26.417969 29.722656 C 26.035156 29.34375 26.03125 28.734375 26.40625 28.351562 C 26.785156 27.972656 27.398438 27.96875 27.777344 28.34375 C 28.097656 28.660156 28.875 29.03125 30 29.03125 C 31.125 29.03125 31.902344 28.660156 32.222656 28.34375 C 32.601562 27.96875 33.214844 27.972656 33.59375 28.351562 C 33.96875 28.734375 33.964844 29.34375 33.582031 29.722656 C 32.792969 30.5 31.453125 30.96875 30 30.96875 Z M 30 30.96875 "/>
<path style=" stroke:none;fill-rule:nonzero;fill:rgb(35.294118%,27.45098%,31.372549%);fill-opacity:1;" d="M 20.324219 20.324219 L 17.417969 20.324219 C 16.882812 20.324219 16.453125 19.890625 16.453125 19.355469 C 16.453125 18.820312 16.882812 18.386719 17.417969 18.386719 L 20.324219 18.386719 C 20.859375 18.386719 21.289062 18.820312 21.289062 19.355469 C 21.289062 19.890625 20.859375 20.324219 20.324219 20.324219 Z M 20.324219 20.324219 "/>
<path style=" stroke:none;fill-rule:nonzero;fill:rgb(35.294118%,27.45098%,31.372549%);fill-opacity:1;" d="M 42.582031 20.324219 L 39.675781 20.324219 C 39.140625 20.324219 38.710938 19.890625 38.710938 19.355469 C 38.710938 18.820312 39.144531 18.386719 39.675781 18.386719 L 42.582031 18.386719 C 43.117188 18.386719 43.546875 18.820312 43.546875 19.355469 C 43.546875 19.890625 43.117188 20.324219 42.582031 20.324219 Z M 42.582031 20.324219 "/>
<path style=" stroke:none;fill-rule:nonzero;fill:rgb(35.294118%,27.45098%,31.372549%);fill-opacity:1;" d="M 31.933594 21.289062 L 28.066406 21.289062 C 27.53125 21.289062 27.097656 20.855469 27.097656 20.324219 C 27.097656 19.789062 27.53125 19.355469 28.066406 19.355469 L 31.933594 19.355469 C 32.46875 19.355469 32.902344 19.789062 32.902344 20.324219 C 32.902344 20.855469 32.46875 21.289062 31.933594 21.289062 Z M 31.933594 21.289062 "/>
<path style=" stroke:none;fill-rule:nonzero;fill:rgb(54.901961%,37.254902%,29.411765%);fill-opacity:1;" d="M 23.226562 17.417969 C 22.789062 17.417969 22.398438 17.125 22.289062 16.6875 C 22.15625 16.167969 22.472656 15.640625 22.992188 15.511719 L 24.925781 15.027344 C 25.441406 14.894531 25.96875 15.214844 26.101562 15.734375 C 26.230469 16.25 25.914062 16.777344 25.394531 16.90625 L 23.460938 17.390625 C 23.382812 17.410156 23.300781 17.417969 23.226562 17.417969 Z M 23.226562 17.417969 "/>
<path style=" stroke:none;fill-rule:nonzero;fill:rgb(54.901961%,37.254902%,29.411765%);fill-opacity:1;" d="M 36.773438 17.417969 C 36.699219 17.417969 36.617188 17.410156 36.539062 17.390625 L 34.605469 16.90625 C 34.085938 16.777344 33.769531 16.25 33.898438 15.734375 C 34.027344 15.214844 34.554688 14.894531 35.074219 15.027344 L 37.007812 15.511719 C 37.527344 15.640625 37.84375 16.167969 37.710938 16.6875 C 37.601562 17.125 37.207031 17.417969 36.773438 17.417969 Z M 36.773438 17.417969 "/>
<path style=" stroke:none;fill-rule:nonzero;fill:rgb(62.745098%,43.137255%,31.372549%);fill-opacity:1;" d="M 33.871094 9.675781 L 44.859375 9.675781 C 42.214844 3.933594 36.53125 0 30 0 C 27.980469 0 26.050781 0.390625 24.257812 1.078125 C 24.792969 5.914062 28.890625 9.675781 33.871094 9.675781 Z M 33.871094 9.675781 "/>
<path style=" stroke:none;fill-rule:nonzero;fill:rgb(70.588235%,94.117647%,60.784314%);fill-opacity:1;" d="M 10.644531 60 L 49.355469 60 C 50.957031 60 52.257812 58.699219 52.257812 57.097656 L 52.257812 52.496094 C 52.257812 50.035156 50.707031 47.839844 48.382812 47.019531 L 43.414062 45.265625 C 41.875 47.070312 37.476562 51.757812 31.152344 54.683594 C 30.785156 54.851562 30.394531 54.933594 30 54.933594 C 29.605469 54.933594 29.214844 54.851562 28.851562 54.683594 C 22.523438 51.757812 18.128906 47.070312 16.585938 45.265625 L 11.617188 47.019531 C 9.292969 47.839844 7.742188 50.035156 7.742188 52.496094 L 7.742188 57.097656 C 7.742188 58.699219 9.042969 60 10.644531 60 Z M 10.644531 60 "/>
<path style=" stroke:none;fill-rule:nonzero;fill:rgb(60.784314%,86.27451%,60.784314%);fill-opacity:1;" d="M 15.042969 46.4375 L 15.113281 46.523438 C 16.785156 48.480469 21.394531 53.367188 28.039062 56.4375 C 28.65625 56.726562 29.316406 56.871094 30 56.871094 C 30.683594 56.871094 31.34375 56.726562 31.960938 56.4375 C 38.605469 53.367188 43.214844 48.480469 44.886719 46.523438 L 44.957031 46.4375 L 45.332031 45.941406 L 43.414062 45.265625 C 41.875 47.070312 37.476562 51.757812 31.148438 54.683594 C 30.785156 54.851562 30.394531 54.933594 30 54.933594 C 29.605469 54.933594 29.214844 54.851562 28.851562 54.683594 C 22.523438 51.757812 18.125 47.070312 16.585938 45.265625 L 14.667969 45.941406 Z M 15.042969 46.4375 "/>
<path style=" stroke:none;fill-rule:nonzero;fill:rgb(39.215686%,31.372549%,35.294118%);fill-opacity:1;" d="M 35.804688 26.128906 C 33.136719 26.128906 30.96875 23.957031 30.96875 21.289062 L 30.96875 19.355469 C 30.96875 18.820312 31.402344 18.386719 31.933594 18.386719 L 39.675781 18.386719 C 40.210938 18.386719 40.644531 18.820312 40.644531 19.355469 L 40.644531 21.289062 C 40.644531 23.957031 38.472656 26.128906 35.804688 26.128906 Z M 32.902344 20.324219 L 32.902344 21.289062 C 32.902344 22.890625 34.207031 24.195312 35.804688 24.195312 C 37.40625 24.195312 38.710938 22.890625 38.710938 21.289062 L 38.710938 20.324219 Z M 32.902344 20.324219 "/>
<path style=" stroke:none;fill-rule:nonzero;fill:rgb(39.215686%,31.372549%,35.294118%);fill-opacity:1;" d="M 24.195312 26.128906 C 21.527344 26.128906 19.355469 23.957031 19.355469 21.289062 L 19.355469 19.355469 C 19.355469 18.820312 19.789062 18.386719 20.324219 18.386719 L 28.066406 18.386719 C 28.601562 18.386719 29.03125 18.820312 29.03125 19.355469 L 29.03125 21.289062 C 29.03125 23.957031 26.863281 26.128906 24.195312 26.128906 Z M 21.289062 20.324219 L 21.289062 21.289062 C 21.289062 22.890625 22.59375 24.195312 24.195312 24.195312 C 25.792969 24.195312 27.097656 22.890625 27.097656 21.289062 L 27.097656 20.324219 Z M 21.289062 20.324219 "/>
</g>
</svg>
