<?xml version="1.0" encoding="UTF-8"?>
<svg xmlns="http://www.w3.org/2000/svg" xmlns:xlink="http://www.w3.org/1999/xlink" width="60pt" height="60pt" viewBox="0 0 60 60" version="1.1">
<g id="surface1">
<path style=" stroke:none;fill-rule:nonzero;fill:rgb(35.294118%,27.45098%,31.372549%);fill-opacity:1;" d="M 16.414062 22.484375 L 43.585938 22.484375 L 44.746094 14.949219 C 45.882812 7.550781 40.160156 0.878906 32.675781 0.878906 L 27.324219 0.878906 C 19.839844 0.878906 14.117188 7.550781 15.253906 14.949219 Z M 16.414062 22.484375 "/>
<path style=" stroke:none;fill-rule:nonzero;fill:rgb(71.372549%,49.803922%,37.254902%);fill-opacity:1;" d="M 48.5 42.902344 L 38.597656 39.988281 C 37.398438 39.636719 36.574219 38.535156 36.574219 37.285156 L 36.574219 32.816406 L 23.425781 32.816406 L 23.425781 37.285156 C 23.425781 38.535156 22.601562 39.636719 21.402344 39.988281 L 11.5 42.902344 C 9.101562 43.605469 7.453125 45.808594 7.453125 48.308594 L 7.453125 59.121094 L 52.546875 59.121094 L 52.546875 48.308594 C 52.546875 45.808594 50.898438 43.605469 48.5 42.902344 Z M 48.5 42.902344 "/>
<path style=" stroke:none;fill-rule:nonzero;fill:rgb(35.294118%,27.45098%,31.372549%);fill-opacity:1;" d="M 48.5 42.902344 L 38.597656 39.988281 C 38.429688 39.941406 39.546875 40.410156 39.394531 40.332031 L 30 43.152344 L 20.605469 40.332031 C 20.453125 40.410156 21.570312 39.941406 21.402344 39.988281 L 11.5 42.902344 C 9.101562 43.605469 7.453125 45.808594 7.453125 48.308594 L 7.453125 59.121094 L 52.546875 59.121094 L 52.546875 48.308594 C 52.546875 45.808594 50.898438 43.605469 48.5 42.902344 Z M 48.5 42.902344 "/>
<path style=" stroke:none;fill-rule:nonzero;fill:rgb(64.705882%,80.392157%,100%);fill-opacity:1;" d="M 39.070312 41.890625 L 37.953125 40.769531 L 30 42.210938 L 22.046875 40.769531 L 20.929688 41.890625 C 19.519531 43.300781 18.726562 45.210938 18.726562 47.203125 L 18.726562 59.121094 L 41.273438 59.121094 L 41.273438 47.203125 C 41.273438 45.210938 40.480469 43.300781 39.070312 41.890625 Z M 39.070312 41.890625 "/>
<path style=" stroke:none;fill-rule:nonzero;fill:rgb(54.901961%,70.588235%,92.156863%);fill-opacity:1;" d="M 39.070312 41.890625 L 37.953125 40.769531 L 30 42.210938 L 22.046875 40.769531 L 20.929688 41.890625 C 20.222656 42.59375 19.671875 43.425781 19.300781 44.328125 L 22.519531 48.007812 C 23.234375 48.824219 24.265625 49.292969 25.347656 49.292969 C 26.351562 49.292969 27.296875 48.902344 28.007812 48.191406 L 30 46.199219 L 31.996094 48.191406 C 32.703125 48.902344 33.648438 49.292969 34.652344 49.292969 C 35.734375 49.292969 36.765625 48.824219 37.480469 48.007812 L 40.699219 44.328125 C 40.324219 43.425781 39.777344 42.59375 39.070312 41.890625 Z M 39.070312 41.890625 "/>
<path style=" stroke:none;fill-rule:nonzero;fill:rgb(35.294118%,27.45098%,31.372549%);fill-opacity:1;" d="M 28.644531 46.910156 L 27.183594 59.121094 L 32.816406 59.121094 L 31.355469 46.910156 Z M 28.644531 46.910156 "/>
<path style=" stroke:none;fill-rule:nonzero;fill:rgb(39.215686%,31.372549%,35.294118%);fill-opacity:1;" d="M 31.203125 47.847656 L 28.796875 47.847656 C 28.394531 47.847656 28.035156 47.589844 27.90625 47.207031 L 26.242188 42.210938 L 33.757812 42.210938 L 32.09375 47.207031 C 31.964844 47.589844 31.605469 47.847656 31.203125 47.847656 Z M 31.203125 47.847656 "/>
<path style=" stroke:none;fill-rule:nonzero;fill:rgb(62.745098%,43.137255%,31.372549%);fill-opacity:1;" d="M 23.425781 35.855469 C 25.398438 36.90625 27.636719 37.515625 30 37.515625 C 32.363281 37.515625 34.601562 36.90625 36.574219 35.855469 L 36.574219 32.816406 L 23.425781 32.816406 Z M 23.425781 35.855469 "/>
<path style=" stroke:none;fill-rule:nonzero;fill:rgb(64.705882%,80.392157%,100%);fill-opacity:1;" d="M 22.796875 38.210938 L 20.320312 41.214844 L 24.640625 46.152344 C 25 46.5625 25.628906 46.582031 26.011719 46.199219 L 30 42.210938 Z M 22.796875 38.210938 "/>
<path style=" stroke:none;fill-rule:nonzero;fill:rgb(64.705882%,80.392157%,100%);fill-opacity:1;" d="M 37.203125 38.210938 L 39.679688 41.214844 L 35.359375 46.152344 C 35 46.5625 34.371094 46.582031 33.988281 46.199219 L 30 42.210938 Z M 37.203125 38.210938 "/>
<path style=" stroke:none;fill-rule:nonzero;fill:rgb(39.215686%,31.372549%,35.294118%);fill-opacity:1;" d="M 14.03125 59.121094 L 12.375 52.613281 C 12.234375 51.984375 12.425781 51.332031 12.878906 50.875 L 15.910156 47.847656 L 14.515625 45.757812 C 14.1875 45.265625 14.117188 44.648438 14.304688 44.085938 C 16.542969 37.355469 23.425781 35.636719 23.425781 35.636719 L 23.425781 37.449219 C 23.425781 38.695312 22.929688 39.890625 22.046875 40.769531 L 20.929688 41.890625 C 19.519531 43.300781 18.726562 45.210938 18.726562 47.203125 L 18.726562 59.121094 "/>
<path style=" stroke:none;fill-rule:nonzero;fill:rgb(39.215686%,31.372549%,35.294118%);fill-opacity:1;" d="M 45.96875 59.121094 L 47.625 52.613281 C 47.765625 51.984375 47.574219 51.332031 47.117188 50.875 L 44.089844 47.847656 L 45.484375 45.757812 C 45.8125 45.265625 45.882812 44.648438 45.695312 44.085938 C 43.457031 37.355469 36.574219 35.636719 36.574219 35.636719 L 36.574219 37.449219 C 36.574219 38.695312 37.070312 39.890625 37.949219 40.769531 L 39.070312 41.890625 C 40.480469 43.300781 41.273438 45.210938 41.273438 47.203125 L 41.273438 59.121094 "/>
<path style=" stroke:none;fill-rule:nonzero;fill:rgb(80.392157%,56.862745%,43.137255%);fill-opacity:1;" d="M 43.621094 18.726562 L 42.558594 18.726562 C 41.417969 18.726562 40.566406 17.667969 40.816406 16.554688 C 41.53125 13.332031 39.078125 10.273438 35.777344 10.273438 L 24.222656 10.273438 C 20.921875 10.273438 18.46875 13.332031 19.183594 16.554688 C 19.429688 17.667969 18.582031 18.726562 17.441406 18.726562 L 16.378906 18.726562 C 15.082031 18.726562 14.03125 19.777344 14.03125 21.074219 C 14.03125 22.371094 15.082031 23.425781 16.378906 23.425781 L 17.835938 23.425781 C 18.316406 29.726562 23.574219 34.695312 30 34.695312 C 36.425781 34.695312 41.683594 29.726562 42.164062 23.425781 L 43.621094 23.425781 C 44.917969 23.425781 45.96875 22.371094 45.96875 21.074219 C 45.96875 19.777344 44.917969 18.726562 43.621094 18.726562 Z M 43.621094 18.726562 "/>
<path style=" stroke:none;fill-rule:nonzero;fill:rgb(71.372549%,49.803922%,37.254902%);fill-opacity:1;" d="M 24.222656 10.273438 C 20.917969 10.273438 18.464844 13.335938 19.183594 16.5625 C 19.433594 17.675781 18.582031 18.726562 17.441406 18.726562 L 16.511719 18.726562 C 15.285156 18.726562 14.164062 19.609375 14.042969 20.832031 C 13.902344 22.238281 15 23.425781 16.378906 23.425781 L 17.835938 23.425781 C 18.316406 29.726562 23.574219 34.695312 30 34.695312 C 30.640625 34.695312 31.269531 34.632812 31.882812 34.539062 C 26.03125 33.636719 21.546875 28.589844 21.546875 22.484375 L 21.546875 17.789062 C 21.546875 15.195312 23.648438 13.089844 26.242188 13.089844 L 32.816406 13.089844 C 34.375 13.089844 35.636719 11.828125 35.636719 10.273438 C 35.636719 10.273438 24.222656 10.273438 24.222656 10.273438 Z M 24.222656 10.273438 "/>
<path style=" stroke:none;fill-rule:nonzero;fill:rgb(39.215686%,31.372549%,35.294118%);fill-opacity:1;" d="M 32.675781 0.878906 L 27.324219 0.878906 C 26.355469 0.878906 25.417969 0.996094 24.519531 1.207031 C 24.691406 4.683594 27.558594 7.453125 31.078125 7.453125 L 43.5 7.453125 C 41.476562 3.585938 37.4375 0.878906 32.675781 0.878906 Z M 32.675781 0.878906 "/>
<path style=" stroke:none;fill-rule:nonzero;fill:rgb(0%,0%,0%);fill-opacity:1;" d="M 18.726562 50.726562 C 18.242188 50.726562 17.847656 51.121094 17.847656 51.605469 L 17.847656 59.121094 C 17.847656 59.605469 18.242188 60 18.726562 60 C 19.210938 60 19.605469 59.605469 19.605469 59.121094 L 19.605469 51.605469 C 19.605469 51.121094 19.210938 50.726562 18.726562 50.726562 Z M 18.726562 50.726562 "/>
<path style=" stroke:none;fill-rule:nonzero;fill:rgb(0%,0%,0%);fill-opacity:1;" d="M 41.273438 50.726562 C 40.785156 50.726562 40.394531 51.121094 40.394531 51.605469 L 40.394531 59.121094 C 40.394531 59.605469 40.785156 60 41.273438 60 C 41.757812 60 42.152344 59.605469 42.152344 59.121094 L 42.152344 51.605469 C 42.152344 51.121094 41.757812 50.726562 41.273438 50.726562 Z M 41.273438 50.726562 "/>
<path style=" stroke:none;fill-rule:nonzero;fill:rgb(0%,0%,0%);fill-opacity:1;" d="M 48.746094 41.894531 L 45.226562 40.859375 C 42.824219 36.984375 38.996094 35.347656 37.453125 34.824219 L 37.453125 33.238281 C 40.386719 31.199219 42.449219 27.996094 42.964844 24.304688 L 43.488281 24.304688 C 45.199219 24.304688 46.667969 23.03125 46.832031 21.40625 C 46.921875 20.496094 46.625 19.585938 46.015625 18.910156 C 45.640625 18.496094 45.164062 18.191406 44.644531 18.015625 L 45.117188 15.460938 C 45.824219 11.628906 44.796875 7.710938 42.300781 4.714844 C 39.808594 1.71875 36.140625 0 32.242188 0 L 27.382812 0 C 23.546875 0 19.921875 1.671875 17.429688 4.585938 C 14.9375 7.5 13.855469 11.34375 14.453125 15.132812 L 14.941406 18.230469 C 13.976562 18.722656 13.277344 19.65625 13.167969 20.746094 C 13.078125 21.65625 13.375 22.566406 13.984375 23.242188 C 14.597656 23.914062 15.46875 24.304688 16.378906 24.304688 L 17.035156 24.304688 C 17.550781 27.996094 19.613281 31.203125 22.546875 33.238281 L 22.546875 34.824219 C 21.003906 35.347656 17.175781 36.984375 14.773438 40.859375 L 11.253906 41.894531 C 8.5 42.703125 6.574219 45.273438 6.574219 48.144531 L 6.574219 59.121094 C 6.574219 59.605469 6.96875 60 7.453125 60 C 7.941406 60 8.332031 59.605469 8.332031 59.121094 L 8.332031 48.144531 C 8.332031 46.050781 9.738281 44.171875 11.75 43.582031 L 13.703125 43.007812 C 13.621094 43.214844 13.542969 43.429688 13.46875 43.648438 C 13.191406 44.480469 13.308594 45.367188 13.785156 46.082031 L 14.777344 47.574219 L 12.277344 50.074219 C 11.601562 50.75 11.320312 51.75 11.550781 52.679688 L 13.175781 59.328125 C 13.273438 59.730469 13.632812 60 14.03125 60 C 14.097656 60 14.167969 59.992188 14.238281 59.972656 C 14.710938 59.859375 15 59.382812 14.882812 58.910156 L 13.257812 52.261719 C 13.175781 51.921875 13.273438 51.5625 13.519531 51.316406 L 16.53125 48.304688 C 16.828125 48.011719 16.871094 47.546875 16.640625 47.199219 L 15.246094 45.109375 C 15.074219 44.847656 15.035156 44.515625 15.136719 44.203125 C 16.671875 39.59375 20.617188 37.484375 22.546875 36.707031 L 22.546875 37.285156 C 22.546875 38.304688 22.148438 39.261719 21.425781 39.984375 L 20.308594 41.105469 C 18.722656 42.691406 17.847656 44.796875 17.847656 47.039062 L 17.847656 47.847656 C 17.847656 48.332031 18.242188 48.726562 18.726562 48.726562 C 19.210938 48.726562 19.605469 48.332031 19.605469 47.847656 L 19.605469 47.039062 C 19.605469 45.578125 20.074219 44.191406 20.941406 43.046875 L 23.3125 45.890625 C 23.804688 46.484375 24.53125 46.84375 25.304688 46.878906 C 25.34375 46.882812 25.386719 46.882812 25.429688 46.882812 C 25.894531 46.882812 26.355469 46.761719 26.757812 46.539062 L 26.859375 46.839844 C 27.015625 47.316406 27.296875 47.722656 27.652344 48.039062 L 26.308594 59.015625 C 26.25 59.496094 26.59375 59.933594 27.074219 59.992188 C 27.113281 59.996094 27.148438 60 27.183594 60 C 27.621094 60 28 59.671875 28.054688 59.226562 L 29.339844 48.722656 C 29.382812 48.722656 29.429688 48.726562 29.476562 48.726562 L 30.523438 48.726562 C 30.570312 48.726562 30.613281 48.722656 30.660156 48.722656 L 31.945312 59.226562 C 32 59.671875 32.378906 60 32.816406 60 C 32.851562 60 32.890625 59.996094 32.925781 59.992188 C 33.40625 59.933594 33.75 59.496094 33.691406 59.015625 L 32.347656 48.039062 C 32.703125 47.722656 32.984375 47.316406 33.140625 46.839844 L 33.242188 46.539062 C 33.644531 46.761719 34.105469 46.882812 34.570312 46.882812 C 34.613281 46.882812 34.652344 46.882812 34.695312 46.878906 C 35.46875 46.84375 36.195312 46.484375 36.6875 45.890625 L 39.058594 43.046875 C 39.925781 44.191406 40.394531 45.578125 40.394531 47.039062 L 40.394531 47.847656 C 40.394531 48.332031 40.789062 48.726562 41.273438 48.726562 C 41.757812 48.726562 42.152344 48.332031 42.152344 47.847656 L 42.152344 47.039062 C 42.152344 44.796875 41.277344 42.691406 39.691406 41.105469 L 38.574219 39.984375 C 37.851562 39.261719 37.453125 38.304688 37.453125 37.285156 L 37.453125 36.703125 C 39.378906 37.476562 43.320312 39.574219 44.863281 44.203125 C 44.964844 44.515625 44.925781 44.847656 44.753906 45.109375 L 43.359375 47.199219 C 43.128906 47.546875 43.171875 48.011719 43.46875 48.304688 L 46.480469 51.316406 C 46.726562 51.5625 46.824219 51.921875 46.742188 52.261719 L 45.117188 58.910156 C 45 59.382812 45.289062 59.859375 45.761719 59.972656 C 45.832031 59.992188 45.902344 60 45.96875 60 C 46.367188 60 46.726562 59.730469 46.824219 59.328125 L 48.449219 52.679688 C 48.679688 51.75 48.398438 50.75 47.722656 50.074219 L 45.222656 47.574219 L 46.214844 46.082031 C 46.691406 45.367188 46.808594 44.480469 46.53125 43.648438 C 46.457031 43.429688 46.378906 43.214844 46.296875 43.007812 L 48.25 43.582031 C 50.261719 44.171875 51.667969 46.050781 51.667969 48.144531 L 51.667969 59.121094 C 51.667969 59.605469 52.058594 60 52.546875 60 C 53.03125 60 53.425781 59.605469 53.425781 59.121094 L 53.425781 48.144531 C 53.425781 45.273438 51.5 42.703125 48.746094 41.894531 Z M 18.667969 22.484375 C 18.667969 22 18.273438 21.605469 17.789062 21.605469 C 17.300781 21.605469 16.910156 22 16.910156 22.484375 L 16.910156 22.546875 L 16.378906 22.546875 C 15.964844 22.546875 15.566406 22.367188 15.289062 22.0625 C 15.007812 21.75 14.875 21.34375 14.917969 20.921875 C 14.992188 20.183594 15.691406 19.605469 16.511719 19.605469 L 17.566406 19.605469 C 18.351562 19.605469 19.101562 19.269531 19.621094 18.6875 C 20.144531 18.105469 20.394531 17.324219 20.308594 16.542969 L 20.179688 15.390625 C 20.058594 14.3125 20.40625 13.230469 21.128906 12.421875 C 21.851562 11.617188 22.890625 11.152344 23.976562 11.152344 L 31.878906 11.152344 C 32.363281 11.152344 32.757812 10.757812 32.757812 10.273438 C 32.757812 9.789062 32.363281 9.394531 31.878906 9.394531 L 23.976562 9.394531 C 22.390625 9.394531 20.875 10.070312 19.820312 11.25 C 18.765625 12.429688 18.257812 14.011719 18.433594 15.585938 L 18.5625 16.738281 C 18.59375 17.023438 18.503906 17.300781 18.3125 17.515625 C 18.121094 17.730469 17.855469 17.847656 17.566406 17.847656 L 16.660156 17.847656 L 16.1875 14.859375 C 15.671875 11.578125 16.609375 8.253906 18.765625 5.730469 C 20.921875 3.203125 24.0625 1.757812 27.382812 1.757812 L 32.242188 1.757812 C 35.617188 1.757812 38.792969 3.246094 40.949219 5.839844 C 43.109375 8.433594 44 11.824219 43.386719 15.144531 L 42.890625 17.847656 L 42.433594 17.847656 C 42.144531 17.847656 41.878906 17.730469 41.6875 17.515625 C 41.496094 17.300781 41.40625 17.023438 41.4375 16.738281 L 41.566406 15.585938 C 41.742188 14.011719 41.234375 12.429688 40.179688 11.25 C 39.121094 10.070312 37.609375 9.394531 36.023438 9.394531 L 35.636719 9.394531 C 35.148438 9.394531 34.757812 9.789062 34.757812 10.273438 C 34.757812 10.757812 35.148438 11.152344 35.636719 11.152344 L 36.023438 11.152344 C 37.109375 11.152344 38.144531 11.613281 38.871094 12.421875 C 39.59375 13.230469 39.9375 14.3125 39.820312 15.390625 L 39.691406 16.542969 C 39.605469 17.324219 39.855469 18.105469 40.378906 18.6875 C 40.898438 19.269531 41.648438 19.605469 42.433594 19.605469 L 43.617188 19.605469 C 43.621094 19.605469 43.621094 19.605469 43.621094 19.605469 C 44.035156 19.605469 44.433594 19.78125 44.710938 20.089844 C 44.992188 20.402344 45.125 20.804688 45.082031 21.230469 C 45.007812 21.96875 44.308594 22.546875 43.488281 22.546875 L 43.089844 22.546875 L 43.089844 22.492188 C 43.089844 22.007812 42.695312 21.613281 42.210938 21.613281 C 41.726562 21.613281 41.332031 22.007812 41.332031 22.492188 C 41.328125 28.738281 36.242188 33.816406 30 33.816406 C 23.75 33.816406 18.667969 28.734375 18.667969 22.484375 Z M 30 35.574219 C 32.039062 35.574219 33.972656 35.105469 35.695312 34.269531 L 35.695312 37.285156 C 35.695312 37.5 35.710938 37.710938 35.734375 37.921875 L 30 41.199219 L 24.265625 37.921875 C 24.289062 37.710938 24.304688 37.5 24.304688 37.285156 L 24.304688 34.269531 C 26.027344 35.105469 27.960938 35.574219 30 35.574219 Z M 25.382812 45.125 C 25.101562 45.113281 24.84375 44.984375 24.660156 44.765625 L 22.148438 41.75 L 22.667969 41.226562 C 23.132812 40.765625 23.5 40.238281 23.773438 39.664062 L 28.566406 42.402344 L 26.136719 44.832031 C 25.933594 45.035156 25.667969 45.136719 25.382812 45.125 Z M 29.476562 46.96875 C 29.042969 46.96875 28.664062 46.695312 28.527344 46.285156 L 28.1875 45.265625 L 30 43.453125 L 31.8125 45.269531 L 31.472656 46.285156 C 31.335938 46.695312 30.957031 46.96875 30.523438 46.96875 Z M 37.851562 41.75 L 35.339844 44.765625 C 35.15625 44.984375 34.898438 45.113281 34.617188 45.125 C 34.332031 45.136719 34.066406 45.035156 33.863281 44.832031 L 31.433594 42.402344 L 36.226562 39.664062 C 36.496094 40.238281 36.867188 40.765625 37.328125 41.226562 Z M 37.851562 41.75 "/>
<path style=" stroke:none;fill-rule:nonzero;fill:rgb(0%,0%,0%);fill-opacity:1;" d="M 24.363281 18.789062 C 23.878906 18.789062 23.484375 19.179688 23.484375 19.667969 L 23.484375 20.605469 C 23.484375 21.089844 23.878906 21.484375 24.363281 21.484375 C 24.847656 21.484375 25.242188 21.089844 25.242188 20.605469 L 25.242188 19.667969 C 25.242188 19.179688 24.847656 18.789062 24.363281 18.789062 Z M 24.363281 18.789062 "/>
<path style=" stroke:none;fill-rule:nonzero;fill:rgb(0%,0%,0%);fill-opacity:1;" d="M 35.636719 18.789062 C 35.152344 18.789062 34.757812 19.179688 34.757812 19.667969 L 34.757812 20.605469 C 34.757812 21.089844 35.152344 21.484375 35.636719 21.484375 C 36.121094 21.484375 36.515625 21.089844 36.515625 20.605469 L 36.515625 19.667969 C 36.515625 19.179688 36.121094 18.789062 35.636719 18.789062 Z M 35.636719 18.789062 "/>
<path style=" stroke:none;fill-rule:nonzero;fill:rgb(0%,0%,0%);fill-opacity:1;" d="M 33.433594 26.867188 C 33.78125 26.527344 33.785156 25.96875 33.445312 25.625 C 33.101562 25.28125 32.546875 25.277344 32.199219 25.617188 C 31.878906 25.933594 31.109375 26.304688 30 26.304688 C 28.890625 26.304688 28.121094 25.933594 27.800781 25.617188 C 27.453125 25.277344 26.898438 25.28125 26.554688 25.625 C 26.214844 25.96875 26.21875 26.527344 26.5625 26.867188 C 27.320312 27.613281 28.605469 28.0625 30 28.0625 C 31.394531 28.0625 32.679688 27.613281 33.433594 26.867188 Z M 33.433594 26.867188 "/>
<path style=" stroke:none;fill-rule:nonzero;fill:rgb(0%,0%,0%);fill-opacity:1;" d="M 25.304688 15.96875 L 23.425781 15.96875 C 22.9375 15.96875 22.546875 16.363281 22.546875 16.847656 C 22.546875 17.332031 22.9375 17.726562 23.425781 17.726562 L 25.304688 17.726562 C 25.789062 17.726562 26.183594 17.332031 26.183594 16.847656 C 26.183594 16.363281 25.789062 15.96875 25.304688 15.96875 Z M 25.304688 15.96875 "/>
<path style=" stroke:none;fill-rule:nonzero;fill:rgb(0%,0%,0%);fill-opacity:1;" d="M 34.695312 17.726562 L 36.574219 17.726562 C 37.0625 17.726562 37.453125 17.332031 37.453125 16.847656 C 37.453125 16.363281 37.0625 15.96875 36.574219 15.96875 L 34.695312 15.96875 C 34.210938 15.96875 33.816406 16.363281 33.816406 16.847656 C 33.816406 17.332031 34.210938 17.726562 34.695312 17.726562 Z M 34.695312 17.726562 "/>
</g>
</svg>
