<?xml version="1.0" encoding="UTF-8"?>
<svg xmlns="http://www.w3.org/2000/svg" xmlns:xlink="http://www.w3.org/1999/xlink" width="60pt" height="60pt" viewBox="0 0 60 60" version="1.1">
<g id="surface1">
<path style=" stroke:none;fill-rule:nonzero;fill:rgb(100%,87.45098%,72.941176%);fill-opacity:1;" d="M 49.25 53.066406 L 49.25 58 C 49.25 58.550781 48.800781 59 48.25 59 L 11.75 59 C 11.199219 59 10.75 58.550781 10.75 58 L 10.75 53.066406 C 10.75 47.910156 14.96875 43.820312 20.121094 43.769531 C 21.828125 43.753906 23.371094 42.914062 24.320312 41.5625 C 25.355469 40.082031 25.25 38.75 25.25 37.75 L 25.269531 37.703125 C 20.78125 35.847656 17.625 31.425781 17.625 26.265625 C 17.625 26.265625 17.625 26.125 17.625 25.875 C 16.566406 25.875 15.664062 25.382812 15.097656 24.617188 C 15.097656 24.617188 15.097656 24.617188 15.097656 24.613281 C 14.757812 24.1875 14.5 23.511719 14.5 22.808594 L 14.5 10.625 C 14.5 8.761719 16.011719 7.25 17.875 7.25 C 19.382812 3.484375 23.03125 1 27.105469 1 C 33.054688 1 36.878906 0.957031 37.195312 1.113281 C 37.269531 1.125 37.960938 1.25 38.015625 1.277344 C 39.003906 1.503906 40.097656 2.007812 40.148438 2.058594 C 43.394531 3.691406 45.625 7.058594 45.625 10.941406 L 45.625 22.625 C 45.625 24.421875 44.167969 25.875 42.375 25.875 L 42.375 26.265625 C 42.375 31.425781 39.21875 35.847656 34.730469 37.703125 L 34.75 37.75 C 34.75 38.722656 34.636719 40.070312 35.679688 41.5625 C 36.625 42.910156 38.167969 43.753906 39.878906 43.769531 C 45.03125 43.820312 49.25 47.910156 49.25 53.066406 Z M 49.25 53.066406 "/>
<path style=" stroke:none;fill-rule:nonzero;fill:rgb(25.882353%,26.27451%,30.196078%);fill-opacity:1;" d="M 45.625 10.941406 L 45.625 22.625 C 45.625 24.421875 44.167969 25.875 42.375 25.875 L 42.375 18.953125 C 42.375 18.425781 41.964844 17.988281 41.4375 17.957031 C 35.574219 17.605469 29.707031 15.824219 24.421875 12.484375 C 23.847656 12.121094 23.089844 12.421875 22.914062 13.078125 C 22.652344 14.066406 22.066406 15.332031 20.75 16.125 C 19.539062 16.855469 18.601562 16.710938 18.25 16.855469 C 17.882812 17.003906 17.625 17.363281 17.625 17.78125 L 17.625 25.875 C 16.566406 25.875 15.664062 25.382812 15.097656 24.617188 C 15.097656 24.617188 15.097656 24.617188 15.097656 24.613281 C 14.871094 24.332031 14.648438 23.867188 14.554688 23.390625 C 14.476562 22.980469 14.5 23.902344 14.5 10.625 C 14.5 8.761719 16.011719 7.25 17.875 7.25 C 19.375 3.503906 23.011719 1 27.105469 1 C 33.054688 1 36.878906 0.957031 37.195312 1.113281 C 38.167969 1.261719 39.121094 1.566406 39.886719 1.929688 C 39.898438 1.9375 40.136719 2.046875 40.148438 2.058594 C 43.394531 3.691406 45.625 7.058594 45.625 10.941406 Z M 45.625 10.941406 "/>
<path style=" stroke:none;fill-rule:nonzero;fill:rgb(83.921569%,95.686275%,98.823529%);fill-opacity:1;" d="M 49.25 53.066406 L 49.25 58 C 49.25 58.550781 48.800781 59 48.25 59 L 11.75 59 C 11.199219 59 10.75 58.550781 10.75 58 L 10.75 53.066406 C 10.75 47.910156 14.96875 43.820312 20.121094 43.769531 C 21.828125 43.753906 23.371094 42.914062 24.320312 41.5625 C 28.664062 46.390625 27.664062 45.28125 29.257812 47.050781 C 29.652344 47.492188 30.347656 47.492188 30.742188 47.050781 C 32.171875 45.464844 31.003906 46.757812 35.679688 41.5625 C 36.625 42.910156 38.167969 43.753906 39.878906 43.769531 C 45.03125 43.820312 49.25 47.910156 49.25 53.066406 Z M 49.25 53.066406 "/>
<path style=" stroke:none;fill-rule:nonzero;fill:rgb(90.980392%,97.254902%,98.823529%);fill-opacity:1;" d="M 37.886719 43.355469 C 37.871094 43.386719 36.636719 49 36.644531 48.964844 C 36.480469 49.703125 35.546875 49.941406 35.050781 49.367188 C 31.769531 45.589844 32.214844 46.082031 31.882812 45.78125 L 35.679688 41.5625 C 36.230469 42.347656 36.992188 42.972656 37.886719 43.355469 Z M 37.886719 43.355469 "/>
<path style=" stroke:none;fill-rule:nonzero;fill:rgb(90.980392%,97.254902%,98.823529%);fill-opacity:1;" d="M 24.320312 41.5625 L 28.027344 45.683594 L 24.949219 49.328125 C 24.460938 49.910156 23.511719 49.675781 23.347656 48.929688 C 23.339844 48.894531 22.128906 43.386719 22.113281 43.355469 C 23.007812 42.972656 23.769531 42.347656 24.320312 41.5625 Z M 24.320312 41.5625 "/>
<path style=" stroke:none;fill-rule:nonzero;fill:rgb(100%,92.156863%,82.352941%);fill-opacity:1;" d="M 42.375 26.265625 C 42.375 33.101562 36.832031 38.640625 30 38.640625 C 23.167969 38.640625 17.625 33.101562 17.625 26.265625 C 17.625 26.066406 17.625 17.539062 17.625 17.78125 C 17.625 17.25 18.039062 16.8125 18.570312 16.78125 C 20.597656 16.667969 22.300781 15.398438 22.914062 13.078125 C 23.089844 12.417969 23.847656 12.121094 24.421875 12.484375 C 29.535156 15.714844 35.363281 17.59375 41.4375 17.957031 C 41.964844 17.988281 42.375 18.425781 42.375 18.953125 Z M 42.375 26.265625 "/>
<path style=" stroke:none;fill-rule:nonzero;fill:rgb(30.196078%,30.588235%,34.901961%);fill-opacity:1;" d="M 39.484375 4.75 L 30.855469 4.75 C 27.039062 4.75 23.578125 6.933594 21.921875 10.332031 C 21.734375 10.71875 21.367188 10.984375 20.945312 11.070312 C 19.40625 11.382812 18.25 12.742188 18.25 14.375 L 18.25 16.855469 C 17.882812 17.003906 17.625 17.363281 17.625 17.78125 L 17.625 23.714844 C 17.625 25.121094 15.792969 25.671875 15.039062 24.539062 C 14.867188 24.308594 14.648438 23.839844 14.582031 23.503906 C 14.46875 23.019531 14.5 23.957031 14.5 10.625 C 14.5 8.761719 16.011719 7.25 17.875 7.25 C 19.386719 3.46875 23.046875 1 27.105469 1 C 33.015625 1 36.875 0.957031 37.195312 1.113281 C 38.394531 1.296875 39.496094 1.738281 39.65625 1.828125 C 39.695312 1.84375 40.128906 2.039062 40.148438 2.058594 C 41.492188 2.738281 40.996094 4.757812 39.484375 4.75 Z M 39.484375 4.75 "/>
<path style=" stroke:none;fill-rule:nonzero;fill:rgb(100%,83.921569%,65.098039%);fill-opacity:1;" d="M 34.890625 39.800781 C 31.8125 41.089844 28.425781 41.191406 25.109375 39.800781 C 25.277344 39.097656 25.25 38.644531 25.25 37.75 L 25.269531 37.703125 C 28.277344 38.953125 31.714844 38.957031 34.730469 37.703125 L 34.75 37.75 C 34.75 38.644531 34.722656 39.097656 34.890625 39.800781 Z M 34.890625 39.800781 "/>
<path style=" stroke:none;fill-rule:nonzero;fill:rgb(90.980392%,97.254902%,98.823529%);fill-opacity:1;" d="M 22.765625 46.28125 C 17.816406 46.507812 13.875 50.589844 13.875 55.59375 L 13.875 59 L 11.75 59 C 11.199219 59 10.75 58.550781 10.75 58 L 10.75 53.074219 C 10.75 47.914062 14.96875 43.824219 20.125 43.769531 C 20.832031 43.761719 21.503906 43.617188 22.113281 43.355469 C 22.128906 43.386719 22.757812 46.246094 22.765625 46.28125 Z M 22.765625 46.28125 "/>
<path style=" stroke:none;fill-rule:nonzero;fill:rgb(74.117647%,93.72549%,98.823529%);fill-opacity:1;" d="M 37.234375 46.28125 C 42.183594 46.507812 46.125 50.589844 46.125 55.59375 L 46.125 59 L 48.25 59 C 48.800781 59 49.25 58.550781 49.25 58 L 49.25 53.074219 C 49.25 47.914062 45.03125 43.824219 39.875 43.769531 C 39.167969 43.761719 38.496094 43.617188 37.886719 43.355469 C 37.871094 43.386719 37.242188 46.246094 37.234375 46.28125 Z M 37.234375 46.28125 "/>
<path style=" stroke:none;fill-rule:nonzero;fill:rgb(94.509804%,98.039216%,98.823529%);fill-opacity:1;" d="M 24.398438 46.8125 C 24.582031 47.660156 24.78125 48.558594 24.953125 49.324219 C 24.460938 49.910156 23.515625 49.675781 23.351562 48.929688 C 22.867188 46.75 22.125 43.375 22.113281 43.355469 C 23.007812 42.972656 23.769531 42.347656 24.320312 41.5625 L 25.386719 42.75 C 24.46875 43.890625 24.078125 45.375 24.398438 46.8125 Z M 24.398438 46.8125 "/>
<path style=" stroke:none;fill-rule:nonzero;fill:rgb(100%,95.294118%,89.411765%);fill-opacity:1;" d="M 27.269531 15.234375 C 27.050781 17.007812 26.273438 18.597656 24.976562 19.558594 C 22.671875 21.273438 21.375 24.035156 21.375 26.910156 L 21.375 30.015625 C 21.375 31.871094 19.015625 32.207031 18.429688 30.664062 C 17.910156 29.296875 17.625 27.816406 17.625 26.265625 L 17.625 17.78125 C 17.625 17.25 18.039062 16.8125 18.570312 16.78125 C 20.601562 16.667969 22.304688 15.394531 22.914062 13.078125 C 23.089844 12.417969 23.84375 12.121094 24.417969 12.484375 C 25.050781 12.882812 25.738281 13.289062 26.480469 13.691406 C 27.039062 13.992188 27.347656 14.605469 27.269531 15.234375 Z M 27.269531 15.234375 "/>
<path style=" stroke:none;fill-rule:nonzero;fill:rgb(99.607843%,30.980392%,37.647059%);fill-opacity:1;" d="M 31.882812 45.78125 L 33.75 59 L 26.25 59 L 28.027344 45.683594 L 29.257812 47.050781 C 29.652344 47.492188 30.347656 47.492188 30.742188 47.050781 Z M 31.882812 45.78125 "/>
<path style=" stroke:none;fill-rule:nonzero;fill:rgb(90.980392%,28.235294%,34.117647%);fill-opacity:1;" d="M 29.332031 47.132812 L 27.75 59 L 26.25 59 L 28.027344 45.683594 Z M 29.332031 47.132812 "/>
<path style=" stroke:none;fill-rule:nonzero;fill:rgb(0%,0%,0%);fill-opacity:1;" d="M 39.929688 42.769531 C 38.457031 42.769531 37.121094 42.019531 36.355469 40.765625 C 36.066406 40.292969 35.453125 40.144531 34.980469 40.429688 C 34.507812 40.71875 34.359375 41.332031 34.644531 41.804688 C 35.179688 42.679688 35.898438 43.382812 36.738281 43.890625 L 35.703125 48.59375 L 33.203125 45.714844 C 33.65625 45.195312 33.546875 44.585938 33.15625 44.246094 C 32.738281 43.882812 32.109375 43.925781 31.746094 44.34375 L 29.988281 46.367188 L 25.558594 41.445312 C 25.933594 40.722656 26.164062 39.925781 26.230469 39.097656 C 34.800781 41.621094 43.375 35.152344 43.375 26.265625 L 43.375 18 C 43.375 17.449219 42.925781 17 42.375 17 C 41.824219 17 41.375 17.449219 41.375 18 L 41.375 26.265625 C 41.375 32.539062 36.273438 37.640625 30 37.640625 C 23.726562 37.640625 18.625 32.539062 18.625 26.265625 L 18.625 17.777344 C 21.0625 17.640625 23.136719 16.109375 23.875 13.335938 C 28.039062 16.003906 32.707031 17.730469 37.605469 18.414062 C 38.152344 18.492188 38.65625 18.109375 38.734375 17.5625 C 38.808594 17.015625 38.429688 16.511719 37.882812 16.433594 C 32.894531 15.738281 28.027344 13.871094 23.703125 10.808594 C 23.042969 10.339844 22.121094 10.816406 22.125 11.632812 C 22.125 11.65625 22.117188 14.136719 20.234375 15.269531 C 19.042969 15.984375 17.839844 15.753906 17.632812 15.75 C 17.125 15.746094 16.691406 16.128906 16.632812 16.636719 C 16.621094 16.730469 16.625 16.402344 16.625 24.636719 C 15.957031 24.289062 15.5 23.601562 15.5 22.808594 L 15.5 10.625 C 15.5 9.316406 16.566406 8.25 17.875 8.25 C 18.285156 8.25 18.652344 8 18.804688 7.621094 C 20.167969 4.207031 23.429688 2 27.105469 2 L 35.683594 2 C 40.613281 2 44.625 6.011719 44.625 10.941406 L 44.625 22.808594 C 44.625 23.359375 45.074219 23.808594 45.625 23.808594 C 46.175781 23.808594 46.625 23.359375 46.625 22.808594 L 46.625 10.941406 C 46.625 4.910156 41.714844 0 35.683594 0 L 27.105469 0 C 22.816406 0 18.992188 2.453125 17.195312 6.300781 C 15.105469 6.628906 13.5 8.445312 13.5 10.625 L 13.5 22.808594 C 13.5 24.71875 14.839844 26.328125 16.636719 26.761719 C 16.820312 31.867188 19.886719 36.253906 24.25 38.339844 L 24.25 38.605469 C 24.25 39.71875 23.816406 40.765625 23.027344 41.550781 C 21.628906 42.945312 19.863281 42.769531 20.070312 42.769531 C 14.367188 42.769531 9.75 47.386719 9.75 53.09375 L 9.75 59 C 9.75 59.550781 10.199219 60 10.75 60 C 11.300781 60 11.75 59.550781 11.75 59 L 11.75 53.09375 C 11.75 48.492188 15.472656 44.769531 20.070312 44.769531 C 20.507812 44.769531 20.945312 44.726562 21.378906 44.632812 L 22.773438 50.964844 C 22.949219 51.765625 23.96875 52.023438 24.503906 51.40625 L 26.476562 49.136719 L 25.257812 58.875 C 25.1875 59.425781 25.578125 59.921875 26.125 59.992188 C 26.675781 60.058594 27.175781 59.671875 27.242188 59.125 L 28.648438 47.867188 C 28.714844 47.9375 29.269531 48.5625 29.339844 48.625 C 29.753906 48.988281 30.382812 48.949219 30.75 48.539062 C 30.945312 48.3125 30.433594 48.898438 31.347656 47.847656 L 32.757812 59.125 C 32.824219 59.671875 33.324219 60.058594 33.875 59.992188 C 34.421875 59.921875 34.8125 59.421875 34.742188 58.875 L 33.523438 49.136719 L 35.496094 51.40625 C 36.035156 52.027344 37.050781 51.765625 37.226562 50.964844 L 38.621094 44.632812 C 39.046875 44.722656 39.480469 44.769531 39.929688 44.769531 C 44.527344 44.769531 48.25 48.492188 48.25 53.09375 L 48.25 59 C 48.25 59.550781 48.699219 60 49.25 60 C 49.800781 60 50.25 59.550781 50.25 59 L 50.25 53.09375 C 50.25 47.386719 45.632812 42.769531 39.929688 42.769531 Z M 24.296875 48.59375 L 23.261719 43.886719 C 23.644531 43.65625 24 43.382812 24.332031 43.070312 L 26.753906 45.765625 Z M 24.296875 48.59375 "/>
</g>
</svg>
