<?xml version="1.0" encoding="UTF-8"?>
<svg xmlns="http://www.w3.org/2000/svg" xmlns:xlink="http://www.w3.org/1999/xlink" width="60pt" height="60pt" viewBox="0 0 60 60" version="1.1">
<g id="surface1">
<path style=" stroke:none;fill-rule:nonzero;fill:rgb(80.392157%,96.078431%,62.745098%);fill-opacity:1;" d="M 49.371094 44 L 39.273438 41.03125 L 31.636719 46.121094 C 30.644531 46.78125 29.355469 46.78125 28.363281 46.121094 L 20.726562 41.03125 L 10.628906 44 C 8.117188 44.738281 6.394531 47.042969 6.394531 49.660156 L 6.394531 57.050781 C 6.394531 58.679688 7.714844 60 9.34375 60 L 50.65625 60 C 52.285156 60 53.605469 58.679688 53.605469 57.050781 L 53.605469 49.660156 C 53.605469 47.042969 51.882812 44.738281 49.371094 44 Z M 49.371094 44 "/>
<path style=" stroke:none;fill-rule:nonzero;fill:rgb(70.588235%,94.117647%,60.784314%);fill-opacity:1;" d="M 40.820312 32.460938 L 19.179688 32.460938 C 15.921875 32.460938 13.277344 35.101562 13.277344 38.359375 C 13.277344 44.878906 18.5625 50.164062 25.082031 50.164062 L 34.917969 50.164062 C 41.4375 50.164062 46.722656 44.878906 46.722656 38.359375 C 46.722656 35.101562 44.078125 32.460938 40.820312 32.460938 Z M 40.820312 32.460938 "/>
<path style=" stroke:none;fill-rule:nonzero;fill:rgb(39.215686%,86.27451%,62.745098%);fill-opacity:1;" d="M 40.558594 35.410156 C 42.699219 35.410156 43.539062 38.1875 41.757812 39.375 L 31.636719 46.121094 C 30.644531 46.78125 29.355469 46.78125 28.363281 46.121094 L 18.242188 39.375 C 16.460938 38.1875 17.300781 35.410156 19.441406 35.410156 Z M 40.558594 35.410156 "/>
<path style=" stroke:none;fill-rule:nonzero;fill:rgb(71.372549%,49.803922%,37.254902%);fill-opacity:1;" d="M 20.726562 41.03125 L 28.363281 46.121094 C 29.355469 46.78125 30.644531 46.78125 31.636719 46.121094 L 39.273438 41.03125 L 39.003906 40.949219 C 37.746094 40.582031 36.886719 39.429688 36.886719 38.121094 L 36.886719 33.441406 L 23.113281 33.441406 L 23.113281 38.121094 C 23.113281 39.429688 22.253906 40.582031 20.996094 40.949219 Z M 20.726562 41.03125 "/>
<path style=" stroke:none;fill-rule:nonzero;fill:rgb(62.745098%,43.137255%,31.372549%);fill-opacity:1;" d="M 23.113281 35.636719 C 25.179688 36.742188 27.523438 37.378906 30 37.378906 C 32.476562 37.378906 34.820312 36.742188 36.886719 35.636719 L 36.886719 33.441406 L 23.113281 33.441406 Z M 23.113281 35.636719 "/>
<path style=" stroke:none;fill-rule:nonzero;fill:rgb(80.392157%,56.862745%,43.137255%);fill-opacity:1;" d="M 43.277344 18.6875 L 42.785156 18.6875 L 42.785156 6.886719 L 17.214844 8.851562 L 17.214844 18.6875 L 16.722656 18.6875 C 15.363281 18.6875 14.261719 19.789062 14.261719 21.148438 C 14.261719 22.503906 15.363281 23.605469 16.722656 23.605469 L 17.261719 23.605469 C 17.765625 30.207031 23.269531 35.410156 30 35.410156 C 36.730469 35.410156 42.234375 30.207031 42.738281 23.605469 L 43.277344 23.605469 C 44.636719 23.605469 45.738281 22.503906 45.738281 21.148438 C 45.738281 19.789062 44.636719 18.6875 43.277344 18.6875 Z M 43.277344 18.6875 "/>
<path style=" stroke:none;fill-rule:nonzero;fill:rgb(71.372549%,49.803922%,37.254902%);fill-opacity:1;" d="M 38.851562 8.851562 L 38.851562 7.867188 L 17.214844 8.851562 L 17.214844 18.6875 L 16.863281 18.6875 C 15.574219 18.6875 14.402344 19.613281 14.273438 20.894531 C 14.128906 22.367188 15.28125 23.605469 16.722656 23.605469 L 17.261719 23.605469 C 17.765625 30.207031 23.269531 35.410156 30 35.410156 C 30.671875 35.410156 31.328125 35.34375 31.972656 35.246094 C 25.84375 34.296875 21.148438 29.015625 21.148438 22.625 L 21.148438 14.753906 C 21.148438 12.582031 22.910156 10.820312 25.082031 10.820312 L 36.886719 10.820312 C 37.972656 10.820312 38.851562 9.9375 38.851562 8.851562 Z M 38.851562 8.851562 "/>
<path style=" stroke:none;fill-rule:nonzero;fill:rgb(35.294118%,27.45098%,31.372549%);fill-opacity:1;" d="M 24.097656 21.640625 C 23.554688 21.640625 23.113281 21.199219 23.113281 20.65625 L 23.113281 19.671875 C 23.113281 19.128906 23.554688 18.6875 24.097656 18.6875 C 24.640625 18.6875 25.082031 19.128906 25.082031 19.671875 L 25.082031 20.65625 C 25.082031 21.199219 24.640625 21.640625 24.097656 21.640625 Z M 24.097656 21.640625 "/>
<path style=" stroke:none;fill-rule:nonzero;fill:rgb(35.294118%,27.45098%,31.372549%);fill-opacity:1;" d="M 35.902344 21.640625 C 35.359375 21.640625 34.917969 21.199219 34.917969 20.65625 L 34.917969 19.671875 C 34.917969 19.128906 35.359375 18.6875 35.902344 18.6875 C 36.445312 18.6875 36.886719 19.128906 36.886719 19.671875 L 36.886719 20.65625 C 36.886719 21.199219 36.445312 21.640625 35.902344 21.640625 Z M 35.902344 21.640625 "/>
<path style=" stroke:none;fill-rule:nonzero;fill:rgb(39.215686%,31.372549%,35.294118%);fill-opacity:1;" d="M 23.113281 17.703125 C 22.648438 17.703125 22.238281 17.375 22.148438 16.902344 C 22.046875 16.367188 22.398438 15.855469 22.933594 15.753906 L 24.902344 15.386719 C 25.441406 15.285156 25.949219 15.636719 26.046875 16.171875 C 26.148438 16.703125 25.796875 17.21875 25.261719 17.320312 L 23.296875 17.6875 C 23.234375 17.699219 23.171875 17.703125 23.113281 17.703125 Z M 23.113281 17.703125 "/>
<path style=" stroke:none;fill-rule:nonzero;fill:rgb(39.215686%,31.372549%,35.294118%);fill-opacity:1;" d="M 36.886719 17.703125 C 36.828125 17.703125 36.765625 17.699219 36.703125 17.6875 L 34.738281 17.320312 C 34.203125 17.21875 33.851562 16.703125 33.953125 16.171875 C 34.050781 15.636719 34.558594 15.285156 35.101562 15.386719 L 37.066406 15.753906 C 37.601562 15.855469 37.953125 16.367188 37.851562 16.902344 C 37.761719 17.375 37.351562 17.703125 36.886719 17.703125 Z M 36.886719 17.703125 "/>
<path style=" stroke:none;fill-rule:nonzero;fill:rgb(35.294118%,27.45098%,31.372549%);fill-opacity:1;" d="M 26.066406 0 C 21.175781 0 17.214844 3.964844 17.214844 8.851562 L 37.867188 8.851562 C 42.382812 8.851562 46.109375 5.472656 46.652344 1.105469 C 46.726562 0.519531 46.261719 0 45.667969 0 C 45.667969 0 26.066406 0 26.066406 0 Z M 26.066406 0 "/>
<path style=" stroke:none;fill-rule:nonzero;fill:rgb(39.215686%,31.372549%,35.294118%);fill-opacity:1;" d="M 45.667969 0 L 28.375 0 C 26.992188 1.117188 25.949219 2.644531 25.4375 4.394531 C 25.074219 5.640625 26.042969 6.886719 27.339844 6.886719 L 43.421875 6.886719 C 45.160156 5.480469 46.363281 3.433594 46.652344 1.097656 C 46.726562 0.515625 46.257812 0 45.667969 0 Z M 45.667969 0 "/>
<path style=" stroke:none;fill-rule:nonzero;fill:rgb(100%,81.960784%,39.215686%);fill-opacity:1;" d="M 26.066406 60 L 24.097656 60 L 24.097656 48.195312 C 24.097656 47.652344 24.539062 47.214844 25.082031 47.214844 C 25.625 47.214844 26.066406 47.652344 26.066406 48.195312 Z M 26.066406 60 "/>
<path style=" stroke:none;fill-rule:nonzero;fill:rgb(100%,81.960784%,39.215686%);fill-opacity:1;" d="M 35.902344 60 L 33.933594 60 L 33.933594 48.195312 C 33.933594 47.652344 34.375 47.214844 34.917969 47.214844 C 35.460938 47.214844 35.902344 47.652344 35.902344 48.195312 Z M 35.902344 60 "/>
<path style=" stroke:none;fill-rule:nonzero;fill:rgb(62.745098%,43.137255%,31.372549%);fill-opacity:1;" d="M 30 28.523438 C 28.523438 28.523438 27.164062 28.050781 26.359375 27.257812 C 25.972656 26.875 25.96875 26.253906 26.347656 25.867188 C 26.730469 25.480469 27.355469 25.476562 27.738281 25.855469 C 28.066406 26.179688 28.855469 26.558594 30 26.558594 C 31.144531 26.558594 31.933594 26.179688 32.261719 25.855469 C 32.644531 25.476562 33.269531 25.480469 33.652344 25.867188 C 34.03125 26.253906 34.027344 26.875 33.640625 27.257812 C 32.835938 28.050781 31.476562 28.523438 30 28.523438 Z M 30 28.523438 "/>
</g>
</svg>
