<?xml version="1.0" encoding="UTF-8"?>
<svg xmlns="http://www.w3.org/2000/svg" xmlns:xlink="http://www.w3.org/1999/xlink" width="60pt" height="60pt" viewBox="0 0 60 60" version="1.1">
<g id="surface1">
<path style=" stroke:none;fill-rule:nonzero;fill:rgb(63.921569%,83.137255%,100%);fill-opacity:1;" d="M 13.273438 54.910156 C 5.269531 49.523438 0 40.375 0 30 C 0 13.429688 13.429688 0 30 0 C 46.570312 0 60 13.429688 60 30 C 60 40.375 54.730469 49.523438 46.726562 54.910156 Z M 13.273438 54.910156 "/>
<path style=" stroke:none;fill-rule:nonzero;fill:rgb(39.607843%,69.411765%,98.823529%);fill-opacity:1;" d="M 23.082031 54.910156 L 46.726562 54.910156 C 54.730469 49.523438 60 40.375 60 30 C 60 26.082031 59.25 22.339844 57.882812 18.910156 L 46.28125 7.3125 L 38.121094 27.183594 L 23.082031 12.144531 Z M 23.082031 54.910156 "/>
<path style=" stroke:none;fill-rule:nonzero;fill:rgb(94.901961%,27.058824%,0%);fill-opacity:1;" d="M 13.71875 7.3125 L 14.738281 20.410156 C 14.855469 21.898438 16.597656 22.640625 17.75 21.691406 L 22.875 17.460938 C 24.867188 15.816406 24.503906 12.667969 22.191406 11.519531 Z M 13.71875 7.3125 "/>
<path style=" stroke:none;fill-rule:nonzero;fill:rgb(72.941176%,16.862745%,1.568627%);fill-opacity:1;" d="M 46.28125 7.3125 L 45.261719 20.410156 C 45.144531 21.898438 43.402344 22.640625 42.25 21.691406 L 37.125 17.460938 C 35.132812 15.816406 35.496094 12.667969 37.808594 11.519531 Z M 46.28125 7.3125 "/>
<path style=" stroke:none;fill-rule:nonzero;fill:rgb(99.607843%,41.568627%,8.627451%);fill-opacity:1;" d="M 38.011719 58.917969 C 41.152344 58.050781 44.085938 56.683594 46.726562 54.910156 L 41.363281 35.074219 L 18.636719 35.074219 L 13.273438 54.910156 C 15.914062 56.683594 18.847656 58.050781 21.988281 58.917969 Z M 38.011719 58.917969 "/>
<path style=" stroke:none;fill-rule:nonzero;fill:rgb(94.901961%,27.058824%,0%);fill-opacity:1;" d="M 46.726562 54.910156 L 41.363281 35.074219 L 29.957031 35.074219 L 29.957031 58.917969 L 38.011719 58.917969 C 41.152344 58.050781 44.089844 56.683594 46.726562 54.910156 Z M 46.726562 54.910156 "/>
<path style=" stroke:none;fill-rule:nonzero;fill:rgb(94.901961%,27.058824%,0%);fill-opacity:1;" d="M 30 44.265625 C 25.574219 44.265625 21.988281 47.851562 21.988281 52.277344 L 21.988281 58.917969 C 24.539062 59.625 27.226562 60 30 60 C 32.773438 60 35.460938 59.625 38.011719 58.917969 L 38.011719 52.277344 C 38.011719 47.851562 34.425781 44.265625 30 44.265625 Z M 30 44.265625 "/>
<path style=" stroke:none;fill-rule:nonzero;fill:rgb(72.941176%,16.862745%,1.568627%);fill-opacity:1;" d="M 30 44.265625 C 29.984375 44.265625 29.972656 44.265625 29.957031 44.265625 L 29.957031 60 C 29.972656 60 29.984375 60 30 60 C 32.773438 60 35.460938 59.625 38.011719 58.917969 L 38.011719 52.277344 C 38.011719 47.851562 34.425781 44.265625 30 44.265625 Z M 30 44.265625 "/>
<path style=" stroke:none;fill-rule:nonzero;fill:rgb(99.607843%,50.980392%,1.960784%);fill-opacity:1;" d="M 42.484375 33.953125 C 39.6875 38.4375 35.136719 41.738281 30 41.738281 C 21.503906 41.738281 14.613281 32.714844 14.613281 24.214844 C 14.613281 15.71875 21.503906 12.417969 30 12.417969 C 30.714844 12.417969 31.417969 12.441406 32.105469 12.488281 Z M 42.484375 33.953125 "/>
<path style=" stroke:none;fill-rule:nonzero;fill:rgb(98.039216%,36.470588%,5.882353%);fill-opacity:1;" d="M 32.105469 12.488281 C 31.417969 12.441406 30.714844 12.417969 30 12.417969 C 29.984375 12.417969 29.972656 12.417969 29.957031 12.417969 L 29.957031 41.738281 C 29.972656 41.738281 29.984375 41.738281 30 41.738281 C 35.136719 41.738281 39.6875 38.4375 42.484375 33.953125 Z M 32.105469 12.488281 "/>
<path style=" stroke:none;fill-rule:nonzero;fill:rgb(33.333333%,35.294118%,40%);fill-opacity:1;" d="M 35.628906 38.734375 C 35.628906 40.859375 33.109375 43.46875 30 43.46875 C 26.890625 43.46875 24.371094 40.859375 24.371094 38.734375 C 24.371094 36.613281 26.890625 35.789062 30 35.789062 C 33.109375 35.789062 35.628906 36.613281 35.628906 38.734375 Z M 35.628906 38.734375 "/>
<path style=" stroke:none;fill-rule:nonzero;fill:rgb(20%,22.352941%,25.098039%);fill-opacity:1;" d="M 30 35.789062 C 29.984375 35.789062 29.972656 35.789062 29.957031 35.789062 L 29.957031 43.46875 C 29.972656 43.46875 29.984375 43.46875 30 43.46875 C 33.109375 43.46875 35.628906 40.859375 35.628906 38.734375 C 35.628906 36.613281 33.109375 35.789062 30 35.789062 Z M 30 35.789062 "/>
<path style=" stroke:none;fill-rule:nonzero;fill:rgb(99.607843%,50.980392%,1.960784%);fill-opacity:1;" d="M 32.105469 12.488281 L 32.105469 25.660156 C 32.105469 30.238281 35.816406 33.953125 40.394531 33.953125 L 42.484375 33.953125 C 44.308594 31.015625 45.386719 27.574219 45.386719 24.214844 C 45.386719 16.433594 39.605469 13.011719 32.105469 12.488281 Z M 32.105469 12.488281 "/>
<path style=" stroke:none;fill-rule:nonzero;fill:rgb(33.333333%,35.294118%,40%);fill-opacity:1;" d="M 24.03125 27.503906 C 24.03125 28.429688 23.28125 29.179688 22.355469 29.179688 C 21.429688 29.179688 20.679688 28.429688 20.679688 27.503906 C 20.679688 26.578125 21.429688 25.828125 22.355469 25.828125 C 23.28125 25.828125 24.03125 26.578125 24.03125 27.503906 Z M 24.03125 27.503906 "/>
<path style=" stroke:none;fill-rule:nonzero;fill:rgb(20%,22.352941%,25.098039%);fill-opacity:1;" d="M 39.320312 27.503906 C 39.320312 28.429688 38.570312 29.179688 37.644531 29.179688 C 36.71875 29.179688 35.96875 28.429688 35.96875 27.503906 C 35.96875 26.578125 36.71875 25.828125 37.644531 25.828125 C 38.570312 25.828125 39.320312 26.578125 39.320312 27.503906 Z M 39.320312 27.503906 "/>
</g>
</svg>
