<?xml version="1.0" encoding="UTF-8"?>
<svg xmlns="http://www.w3.org/2000/svg" xmlns:xlink="http://www.w3.org/1999/xlink" width="60pt" height="60pt" viewBox="0 0 60 60" version="1.1">
<g id="surface1">
<path style=" stroke:none;fill-rule:nonzero;fill:rgb(39.607843%,41.960784%,46.27451%);fill-opacity:1;" d="M 42.1875 45 L 17.8125 45 C 11.082031 45 5.625 50.457031 5.625 57.1875 L 54.375 57.1875 C 54.375 50.457031 48.917969 45 42.1875 45 Z M 42.1875 45 "/>
<path style=" stroke:none;fill-rule:nonzero;fill:rgb(27.45098%,29.019608%,31.764706%);fill-opacity:1;" d="M 47.304688 54.375 L 43.371094 54.375 C 42.375 54.375 42.058594 53.03125 42.949219 52.585938 C 45.011719 51.558594 45.664062 48.929688 44.324219 47.054688 L 42.882812 45.035156 C 42.652344 45.023438 42.421875 45 42.1875 45 L 17.8125 45 C 11.082031 45 5.625 50.457031 5.625 57.1875 L 54.375 57.1875 C 54.375 55.335938 53.949219 53.585938 53.210938 52.015625 C 51.683594 53.464844 49.625 54.375 47.304688 54.375 Z M 47.304688 54.375 "/>
<path style=" stroke:none;fill-rule:nonzero;fill:rgb(39.607843%,41.960784%,46.27451%);fill-opacity:1;" d="M 30 2.8125 C 21.199219 2.8125 14.0625 9.949219 14.0625 18.75 L 14.0625 22.5 L 45.9375 22.5 L 45.9375 18.75 C 45.9375 9.949219 38.800781 2.8125 30 2.8125 Z M 30 2.8125 "/>
<path style=" stroke:none;fill-rule:nonzero;fill:rgb(27.45098%,29.019608%,31.764706%);fill-opacity:1;" d="M 45.9375 18.75 L 45.9375 22.5 L 14.0625 22.5 L 14.0625 18.75 C 14.0625 12.328125 17.859375 6.796875 23.324219 4.285156 L 23.671875 4.574219 C 25.921875 6.441406 28.828125 7.320312 31.734375 6.992188 C 32.128906 6.945312 32.53125 6.929688 32.925781 6.929688 C 35.035156 6.929688 37.105469 7.554688 38.878906 8.738281 L 39.816406 9.355469 C 40.742188 9.976562 41.445312 10.894531 41.792969 11.953125 C 42.375 13.695312 43.835938 14.933594 45.5625 15.28125 C 45.804688 16.398438 45.9375 17.558594 45.9375 18.75 Z M 45.9375 18.75 "/>
<path style=" stroke:none;fill-rule:nonzero;fill:rgb(97.647059%,85.882353%,68.627451%);fill-opacity:1;" d="M 34.6875 12.1875 C 32.730469 12.1875 31.007812 13.1875 30 14.707031 C 28.992188 13.1875 27.269531 12.1875 25.3125 12.1875 C 22.207031 12.1875 19.6875 14.707031 19.6875 17.8125 C 19.6875 20.917969 22.207031 23.4375 25.3125 23.4375 C 27.269531 23.4375 28.992188 22.4375 30 20.917969 C 31.007812 22.4375 32.730469 23.4375 34.6875 23.4375 C 37.792969 23.4375 40.3125 20.917969 40.3125 17.8125 C 40.3125 14.707031 37.792969 12.1875 34.6875 12.1875 Z M 34.6875 12.1875 "/>
<path style=" stroke:none;fill-rule:nonzero;fill:rgb(92.941176%,72.156863%,55.686275%);fill-opacity:1;" d="M 20.894531 14.335938 C 20.140625 15.292969 19.6875 16.5 19.6875 17.8125 C 19.6875 20.917969 22.207031 23.4375 25.3125 23.4375 C 27.269531 23.4375 28.992188 22.4375 30 20.917969 C 31.007812 22.4375 32.730469 23.4375 34.6875 23.4375 C 37.792969 23.4375 40.3125 20.917969 40.3125 17.8125 C 40.3125 16.5 39.859375 15.292969 39.105469 14.335938 C 33.191406 16.285156 26.808594 16.285156 20.894531 14.335938 Z M 20.894531 14.335938 "/>
<path style=" stroke:none;fill-rule:nonzero;fill:rgb(100%,45.098039%,45.098039%);fill-opacity:1;" d="M 30 57.1875 L 25.175781 57.1875 L 19.6875 54.375 L 22.5 51.5625 L 16.875 50.625 L 20.625 45 L 30 45 Z M 30 57.1875 "/>
<path style=" stroke:none;fill-rule:nonzero;fill:rgb(100%,45.098039%,45.098039%);fill-opacity:1;" d="M 30 57.1875 L 34.824219 57.1875 L 40.3125 54.375 L 37.5 51.5625 L 43.125 50.625 L 39.375 45 L 30 45 Z M 30 57.1875 "/>
<path style=" stroke:none;fill-rule:nonzero;fill:rgb(93.72549%,32.54902%,31.372549%);fill-opacity:1;" d="M 37 49.90625 L 39.945312 45.855469 L 39.375 45 L 30 45 L 30 57.1875 L 34.824219 57.1875 L 40.3125 54.375 L 39.273438 54.375 C 36.972656 54.375 35.648438 51.765625 37 49.90625 Z M 37 49.90625 "/>
<path style=" stroke:none;fill-rule:nonzero;fill:rgb(93.72549%,32.54902%,31.372549%);fill-opacity:1;" d="M 23 49.90625 L 20.054688 45.855469 L 20.625 45 L 30 45 L 30 57.1875 L 25.175781 57.1875 L 19.6875 54.375 L 20.726562 54.375 C 23.027344 54.375 24.351562 51.765625 23 49.90625 Z M 23 49.90625 "/>
<path style=" stroke:none;fill-rule:nonzero;fill:rgb(93.72549%,32.54902%,31.372549%);fill-opacity:1;" d="M 32.8125 35.625 L 32.847656 35.609375 C 39.097656 32.769531 46.433594 33.878906 51.5625 38.4375 L 49.929688 38.574219 C 43.921875 39.074219 38.554688 42.539062 35.625 47.8125 L 30 40.3125 Z M 32.8125 35.625 "/>
<path style=" stroke:none;fill-rule:nonzero;fill:rgb(93.72549%,32.54902%,31.372549%);fill-opacity:1;" d="M 27.1875 35.625 L 27.152344 35.609375 C 20.902344 32.769531 13.566406 33.878906 8.4375 38.4375 L 10.070312 38.574219 C 16.078125 39.074219 21.445312 42.539062 24.375 47.8125 L 30 40.3125 Z M 27.1875 35.625 "/>
<path style=" stroke:none;fill-rule:nonzero;fill:rgb(89.803922%,22.352941%,20.784314%);fill-opacity:1;" d="M 43.328125 39.140625 L 41.925781 40.164062 C 41.046875 40.800781 39.964844 39.6875 40.632812 38.828125 L 40.75 38.675781 C 41.757812 37.382812 42.316406 35.824219 42.402344 34.222656 C 39.210938 33.78125 35.902344 34.222656 32.847656 35.609375 L 32.8125 35.625 L 30 40.3125 L 35.625 47.8125 C 38.554688 42.539062 43.921875 39.074219 49.929688 38.574219 L 51.5625 38.4375 L 50.949219 38.191406 C 48.414062 37.175781 45.535156 37.535156 43.328125 39.140625 Z M 43.328125 39.140625 "/>
<path style=" stroke:none;fill-rule:nonzero;fill:rgb(89.803922%,22.352941%,20.784314%);fill-opacity:1;" d="M 16.671875 39.140625 L 18.074219 40.164062 C 18.953125 40.800781 20.035156 39.6875 19.367188 38.828125 L 19.25 38.675781 C 18.242188 37.382812 17.683594 35.824219 17.597656 34.222656 C 20.789062 33.78125 24.097656 34.222656 27.152344 35.609375 L 27.1875 35.625 L 30 40.3125 L 24.375 47.8125 C 21.445312 42.539062 16.078125 39.074219 10.070312 38.574219 L 8.4375 38.4375 L 9.050781 38.191406 C 11.585938 37.175781 14.464844 37.535156 16.671875 39.140625 Z M 16.671875 39.140625 "/>
<path style=" stroke:none;fill-rule:nonzero;fill:rgb(97.647059%,85.882353%,68.627451%);fill-opacity:1;" d="M 35.625 47.8125 L 30 57.1875 L 24.375 47.8125 L 24.375 36.5625 L 35.625 36.5625 Z M 35.625 47.8125 "/>
<path style=" stroke:none;fill-rule:nonzero;fill:rgb(92.941176%,72.156863%,55.686275%);fill-opacity:1;" d="M 28.207031 45.921875 C 31.003906 45.902344 33.578125 44.945312 35.625 43.34375 L 35.625 36.5625 L 24.375 36.5625 L 24.375 47.8125 L 30 57.1875 L 35.625 47.8125 L 32.8125 47.8125 C 31.015625 47.8125 29.390625 47.089844 28.207031 45.921875 Z M 28.207031 45.921875 "/>
<path style=" stroke:none;fill-rule:nonzero;fill:rgb(91.372549%,94.509804%,94.901961%);fill-opacity:1;" d="M 45.9375 18.75 C 43.867188 18.75 42.1875 20.429688 42.1875 22.5 L 42.1875 15 C 34.453125 18.570312 25.546875 18.570312 17.8125 15 L 17.8125 22.5 C 17.8125 20.429688 16.132812 18.75 14.0625 18.75 L 12.1875 18.75 L 12.1875 22.5 C 12.1875 25.605469 14.707031 28.125 17.8125 28.125 L 17.8125 30.59375 C 17.8125 37.15625 22.855469 42.800781 29.410156 43.109375 C 36.410156 43.441406 42.1875 37.863281 42.1875 30.9375 L 42.1875 28.125 C 45.292969 28.125 47.8125 25.605469 47.8125 22.5 L 47.8125 18.75 Z M 45.9375 18.75 "/>
<path style=" stroke:none;fill-rule:nonzero;fill:rgb(81.568627%,84.705882%,85.490196%);fill-opacity:1;" d="M 35.625 39.375 C 28.375 39.375 22.5 33.5 22.5 26.25 L 22.5 16.6875 C 20.90625 16.261719 19.335938 15.703125 17.8125 15 L 17.8125 22.5 C 17.8125 20.429688 16.132812 18.75 14.0625 18.75 L 12.1875 18.75 L 12.1875 22.5 C 12.1875 25.605469 14.707031 28.125 17.8125 28.125 L 17.8125 30.59375 C 17.8125 37.15625 22.855469 42.800781 29.410156 43.109375 C 33.453125 43.300781 37.082031 41.511719 39.429688 38.640625 C 38.25 39.109375 36.96875 39.375 35.625 39.375 Z M 35.625 39.375 "/>
<path style=" stroke:none;fill-rule:nonzero;fill:rgb(57.647059%,60%,60.392157%);fill-opacity:1;" d="M 32.8125 23.4375 L 38.4375 20.625 L 37.832031 24.25 C 37.640625 25.40625 36.644531 26.25 35.472656 26.25 C 34.445312 26.25 33.53125 25.589844 33.207031 24.613281 Z M 32.8125 23.4375 "/>
<path style=" stroke:none;fill-rule:nonzero;fill:rgb(57.647059%,60%,60.392157%);fill-opacity:1;" d="M 27.1875 23.4375 L 21.5625 20.625 L 22.167969 24.25 C 22.359375 25.40625 23.355469 26.25 24.527344 26.25 C 25.554688 26.25 26.46875 25.589844 26.792969 24.613281 Z M 27.1875 23.4375 "/>
<path style=" stroke:none;fill-rule:nonzero;fill:rgb(57.647059%,60%,60.392157%);fill-opacity:1;" d="M 30 39.375 C 27.671875 39.375 25.519531 38.15625 24.320312 36.160156 L 23.4375 34.6875 L 36.5625 34.6875 L 35.679688 36.160156 C 34.480469 38.15625 32.328125 39.375 30 39.375 Z M 30 39.375 "/>
<path style=" stroke:none;fill-rule:nonzero;fill:rgb(57.647059%,60%,60.392157%);fill-opacity:1;" d="M 31.875 29.0625 C 31.875 30.097656 31.035156 30.9375 30 30.9375 C 28.964844 30.9375 28.125 30.097656 28.125 29.0625 C 28.125 28.027344 30 26.25 30 26.25 C 30 26.25 31.875 28.027344 31.875 29.0625 Z M 31.875 29.0625 "/>
<path style=" stroke:none;fill-rule:nonzero;fill:rgb(39.607843%,41.960784%,46.27451%);fill-opacity:1;" d="M 32.8125 23.4375 L 38.4375 20.625 L 37.832031 23.3125 C 37.640625 24.46875 36.644531 25.3125 35.472656 25.3125 C 34.417969 25.3125 33.453125 24.714844 32.980469 23.769531 Z M 32.8125 23.4375 "/>
<path style=" stroke:none;fill-rule:nonzero;fill:rgb(39.607843%,41.960784%,46.27451%);fill-opacity:1;" d="M 27.1875 23.4375 L 21.5625 20.625 L 22.167969 23.3125 C 22.359375 24.46875 23.355469 25.3125 24.527344 25.3125 C 25.582031 25.3125 26.546875 24.714844 27.019531 23.769531 Z M 27.1875 23.4375 "/>
<path style=" stroke:none;fill-rule:nonzero;fill:rgb(39.607843%,41.960784%,46.27451%);fill-opacity:1;" d="M 30 37.5 C 25.3125 37.5 23.4375 34.6875 23.4375 34.6875 L 36.5625 34.6875 C 36.5625 34.6875 34.6875 37.5 30 37.5 Z M 30 37.5 "/>
<path style=" stroke:none;fill-rule:nonzero;fill:rgb(39.607843%,41.960784%,46.27451%);fill-opacity:1;" d="M 30 26.25 C 30 26.25 28.566406 27.609375 28.207031 28.640625 C 28.433594 29.425781 29.144531 30 30 30 C 30.855469 30 31.566406 29.425781 31.792969 28.640625 C 31.433594 27.609375 30 26.25 30 26.25 Z M 30 26.25 "/>
<path style=" stroke:none;fill-rule:nonzero;fill:rgb(19.607843%,19.607843%,19.607843%);fill-opacity:1;" d="M 23.570312 48.296875 L 29.195312 57.671875 C 29.367188 57.953125 29.671875 58.125 30 58.125 C 30.328125 58.125 30.636719 57.953125 30.804688 57.667969 L 33.308594 53.488281 C 33.574219 53.042969 33.429688 52.46875 32.984375 52.203125 C 32.539062 51.9375 31.964844 52.082031 31.699219 52.523438 L 30 55.363281 L 25.3125 47.554688 L 25.3125 43.175781 C 26.578125 43.671875 27.9375 43.980469 29.367188 44.046875 C 29.582031 44.058594 29.792969 44.0625 30.007812 44.0625 C 31.632812 44.0625 33.210938 43.761719 34.6875 43.195312 L 34.6875 47.550781 L 33.632812 49.304688 C 33.363281 49.75 33.507812 50.324219 33.953125 50.59375 C 34.101562 50.683594 34.269531 50.726562 34.433594 50.726562 C 34.753906 50.726562 35.0625 50.566406 35.238281 50.273438 L 36.429688 48.296875 L 36.445312 48.265625 C 36.90625 47.4375 37.433594 46.664062 38.011719 45.9375 L 38.875 45.9375 L 41.542969 49.9375 L 37.347656 50.636719 C 37 50.695312 36.714844 50.941406 36.609375 51.277344 C 36.5 51.609375 36.589844 51.976562 36.839844 52.222656 L 38.742188 54.125 L 34.398438 56.351562 C 33.9375 56.589844 33.753906 57.15625 33.988281 57.613281 C 34.15625 57.9375 34.484375 58.125 34.824219 58.125 C 34.96875 58.125 35.117188 58.09375 35.25 58.023438 L 40.738281 55.210938 C 41.007812 55.074219 41.191406 54.816406 41.238281 54.519531 C 41.285156 54.222656 41.1875 53.925781 40.976562 53.710938 L 39.449219 52.1875 L 43.277344 51.550781 C 43.59375 51.496094 43.859375 51.289062 43.984375 50.996094 C 44.113281 50.703125 44.082031 50.367188 43.90625 50.105469 L 41.125 45.9375 L 42.1875 45.9375 C 48.390625 45.9375 53.4375 50.984375 53.4375 57.1875 C 53.4375 57.703125 53.855469 58.125 54.375 58.125 C 54.894531 58.125 55.3125 57.703125 55.3125 57.1875 C 55.3125 49.949219 49.425781 44.0625 42.1875 44.0625 L 39.730469 44.0625 C 42.507812 41.464844 46.109375 39.832031 50.007812 39.507812 L 51.640625 39.371094 C 52.011719 39.339844 52.332031 39.089844 52.453125 38.734375 C 52.570312 38.378906 52.464844 37.988281 52.183594 37.738281 C 49.554688 35.398438 46.359375 33.90625 42.894531 33.359375 C 43.039062 32.570312 43.125 31.761719 43.125 30.9375 L 43.125 28.996094 C 46.300781 28.539062 48.75 25.800781 48.75 22.5 L 48.75 18.75 C 48.75 18.234375 48.332031 17.8125 47.8125 17.8125 L 46.832031 17.8125 C 46.625 14.109375 45.214844 10.558594 42.785156 7.75 C 42.445312 7.359375 41.855469 7.316406 41.460938 7.652344 C 41.070312 7.992188 41.027344 8.585938 41.367188 8.976562 C 43.527344 11.472656 44.78125 14.632812 44.964844 17.929688 C 44.285156 18.070312 43.660156 18.351562 43.125 18.753906 L 43.125 15 C 43.125 14.679688 42.960938 14.382812 42.691406 14.210938 C 42.421875 14.039062 42.085938 14.015625 41.792969 14.148438 C 41.355469 14.351562 40.90625 14.53125 40.460938 14.710938 C 39.328125 12.609375 37.117188 11.25 34.6875 11.25 C 32.902344 11.25 31.222656 11.96875 30 13.222656 C 28.777344 11.96875 27.097656 11.25 25.3125 11.25 C 22.878906 11.25 20.667969 12.613281 19.535156 14.71875 C 19.085938 14.539062 18.640625 14.351562 18.207031 14.148438 C 17.914062 14.015625 17.578125 14.039062 17.308594 14.210938 C 17.039062 14.382812 16.875 14.679688 16.875 15 L 16.875 18.75 C 16.339844 18.351562 15.714844 18.070312 15.042969 17.929688 C 15.472656 10.058594 22.050781 3.75 30 3.75 C 33.171875 3.75 36.199219 4.730469 38.757812 6.582031 C 39.179688 6.886719 39.765625 6.792969 40.066406 6.371094 C 40.371094 5.953125 40.277344 5.367188 39.859375 5.0625 C 36.980469 2.976562 33.570312 1.875 30 1.875 C 21.058594 1.875 13.664062 8.964844 13.171875 17.8125 L 12.1875 17.8125 C 11.667969 17.8125 11.25 18.234375 11.25 18.75 L 11.25 22.5 C 11.25 25.800781 13.699219 28.539062 16.875 28.996094 L 16.875 30.59375 C 16.875 35.582031 19.5 39.945312 23.4375 42.273438 L 23.4375 44.742188 C 20.359375 40.871094 15.878906 38.332031 10.90625 37.71875 C 12.265625 36.816406 13.753906 36.125 15.347656 35.660156 C 15.84375 35.515625 16.128906 34.996094 15.984375 34.5 C 15.839844 34 15.324219 33.714844 14.824219 33.859375 C 12.207031 34.625 9.847656 35.929688 7.816406 37.738281 C 7.535156 37.988281 7.429688 38.378906 7.546875 38.734375 C 7.667969 39.089844 7.988281 39.339844 8.359375 39.371094 L 9.992188 39.507812 C 13.890625 39.832031 17.492188 41.464844 20.269531 44.0625 L 17.8125 44.0625 C 10.574219 44.0625 4.6875 49.949219 4.6875 57.1875 C 4.6875 57.703125 5.105469 58.125 5.625 58.125 C 6.144531 58.125 6.5625 57.703125 6.5625 57.1875 C 6.5625 50.984375 11.609375 45.9375 17.8125 45.9375 L 18.875 45.9375 L 16.09375 50.105469 C 15.917969 50.367188 15.886719 50.707031 16.015625 50.996094 C 16.140625 51.289062 16.40625 51.496094 16.722656 51.550781 L 20.550781 52.1875 L 19.023438 53.710938 C 18.8125 53.925781 18.714844 54.222656 18.761719 54.519531 C 18.808594 54.816406 18.992188 55.074219 19.261719 55.210938 L 24.75 58.023438 C 24.886719 58.09375 25.03125 58.125 25.175781 58.125 C 25.515625 58.125 25.84375 57.9375 26.011719 57.613281 C 26.246094 57.15625 26.0625 56.589844 25.601562 56.351562 L 21.261719 54.128906 L 23.164062 52.226562 C 23.410156 51.976562 23.5 51.609375 23.390625 51.277344 C 23.285156 50.941406 23 50.695312 22.652344 50.636719 L 18.457031 49.9375 L 21.125 45.9375 L 21.992188 45.9375 C 22.570312 46.664062 23.09375 47.441406 23.554688 48.269531 Z M 29.453125 42.175781 C 23.453125 41.890625 18.75 36.804688 18.75 30.59375 L 18.75 28.125 C 18.75 27.609375 18.332031 27.1875 17.8125 27.1875 C 15.800781 27.1875 14.09375 25.90625 13.429688 24.121094 C 13.597656 24.277344 13.816406 24.375 14.0625 24.375 C 14.578125 24.375 15 23.953125 15 23.4375 C 15 22.921875 14.578125 22.5 14.0625 22.5 C 13.65625 22.5 13.316406 22.761719 13.1875 23.125 C 13.160156 22.917969 13.125 22.714844 13.125 22.5 L 13.125 19.6875 L 14.0625 19.6875 C 15.613281 19.6875 16.875 20.949219 16.875 22.5 C 16.875 23.015625 17.292969 23.4375 17.8125 23.4375 C 18.332031 23.4375 18.75 23.015625 18.75 22.5 L 18.75 16.425781 C 20.179688 17 21.671875 17.472656 23.203125 17.828125 C 23.703125 17.941406 24.210938 17.632812 24.328125 17.125 C 24.445312 16.621094 24.128906 16.117188 23.625 16 C 22.851562 15.820312 22.089844 15.601562 21.339844 15.359375 C 22.179688 13.996094 23.671875 13.125 25.3125 13.125 C 26.886719 13.125 28.347656 13.910156 29.21875 15.222656 C 29.566406 15.746094 30.433594 15.746094 30.78125 15.222656 C 31.652344 13.910156 33.113281 13.125 34.6875 13.125 C 36.328125 13.125 37.820312 14 38.664062 15.359375 C 34.984375 16.546875 31.082031 16.980469 27.207031 16.59375 C 26.683594 16.546875 26.234375 16.917969 26.179688 17.433594 C 26.128906 17.949219 26.507812 18.410156 27.023438 18.460938 C 31.867188 18.941406 36.753906 18.242188 41.25 16.425781 L 41.25 22.5 C 41.25 23.015625 41.667969 23.4375 42.1875 23.4375 C 42.707031 23.4375 43.125 23.015625 43.125 22.5 C 43.125 20.949219 44.386719 19.6875 45.9375 19.6875 L 46.875 19.6875 L 46.875 22.5 C 46.875 22.714844 46.839844 22.917969 46.8125 23.125 C 46.683594 22.761719 46.34375 22.5 45.9375 22.5 C 45.421875 22.5 45 22.921875 45 23.4375 C 45 23.953125 45.421875 24.375 45.9375 24.375 C 46.183594 24.375 46.402344 24.277344 46.570312 24.121094 C 45.90625 25.90625 44.199219 27.1875 42.1875 27.1875 C 41.667969 27.1875 41.25 27.609375 41.25 28.125 L 41.25 30.9375 C 41.25 34.042969 40.011719 36.933594 37.765625 39.078125 C 35.519531 41.222656 32.566406 42.324219 29.453125 42.175781 Z M 39.058594 40.433594 C 40.617188 38.949219 41.746094 37.148438 42.417969 35.179688 C 44.824219 35.53125 47.09375 36.390625 49.09375 37.71875 C 44.121094 38.332031 39.640625 40.871094 36.5625 44.742188 L 36.5625 42.292969 C 37.453125 41.777344 38.292969 41.164062 39.058594 40.433594 Z M 39.058594 40.433594 "/>
<path style=" stroke:none;fill-rule:nonzero;fill:rgb(19.607843%,19.607843%,19.607843%);fill-opacity:1;" d="M 39.363281 20.78125 C 39.421875 20.433594 39.277344 20.082031 38.992188 19.871094 C 38.710938 19.660156 38.332031 19.628906 38.015625 19.785156 L 32.390625 22.597656 C 31.976562 22.808594 31.773438 23.292969 31.921875 23.734375 L 32.316406 24.910156 C 32.769531 26.273438 34.039062 27.1875 35.472656 27.1875 C 37.109375 27.1875 38.488281 26.015625 38.757812 24.40625 Z M 36.910156 24.097656 C 36.792969 24.800781 36.1875 25.3125 35.472656 25.3125 C 34.847656 25.3125 34.292969 24.914062 34.09375 24.316406 L 33.960938 23.910156 L 37.210938 22.285156 Z M 36.910156 24.097656 "/>
<path style=" stroke:none;fill-rule:nonzero;fill:rgb(19.607843%,19.607843%,19.607843%);fill-opacity:1;" d="M 27.683594 24.910156 L 28.078125 23.734375 C 28.222656 23.292969 28.023438 22.808594 27.605469 22.597656 L 21.980469 19.785156 C 21.667969 19.628906 21.289062 19.664062 21.003906 19.871094 C 20.722656 20.082031 20.578125 20.433594 20.636719 20.78125 L 21.242188 24.40625 C 21.511719 26.015625 22.890625 27.1875 24.527344 27.1875 C 25.960938 27.1875 27.230469 26.273438 27.683594 24.910156 Z M 23.089844 24.097656 L 22.789062 22.289062 L 26.039062 23.914062 L 25.90625 24.320312 C 25.707031 24.914062 25.152344 25.3125 24.527344 25.3125 C 23.8125 25.3125 23.207031 24.800781 23.089844 24.097656 Z M 23.089844 24.097656 "/>
<path style=" stroke:none;fill-rule:nonzero;fill:rgb(19.607843%,19.607843%,19.607843%);fill-opacity:1;" d="M 36.5625 33.75 L 23.4375 33.75 C 23.101562 33.75 22.789062 33.933594 22.621094 34.226562 C 22.453125 34.519531 22.460938 34.878906 22.632812 35.167969 L 23.515625 36.640625 C 24.875 38.90625 27.359375 40.3125 30 40.3125 C 32.640625 40.3125 35.125 38.90625 36.484375 36.640625 L 37.367188 35.167969 C 37.539062 34.878906 37.542969 34.519531 37.378906 34.226562 C 37.210938 33.933594 36.898438 33.75 36.5625 33.75 Z M 34.875 35.675781 C 33.851562 37.378906 31.984375 38.4375 30 38.4375 C 28.015625 38.4375 26.148438 37.378906 25.125 35.675781 L 25.09375 35.625 L 26.25 35.625 L 26.25 36.5625 C 26.25 37.078125 26.667969 37.5 27.1875 37.5 C 27.707031 37.5 28.125 37.078125 28.125 36.5625 L 28.125 35.625 L 31.875 35.625 L 31.875 36.5625 C 31.875 37.078125 32.292969 37.5 32.8125 37.5 C 33.332031 37.5 33.75 37.078125 33.75 36.5625 L 33.75 35.625 L 34.90625 35.625 Z M 34.875 35.675781 "/>
<path style=" stroke:none;fill-rule:nonzero;fill:rgb(19.607843%,19.607843%,19.607843%);fill-opacity:1;" d="M 30 31.875 C 31.550781 31.875 32.8125 30.613281 32.8125 29.0625 C 32.8125 27.726562 31.152344 26.050781 30.644531 25.570312 C 30.28125 25.226562 29.714844 25.226562 29.355469 25.570312 C 28.847656 26.050781 27.1875 27.726562 27.1875 29.0625 C 27.1875 30.613281 28.449219 31.875 30 31.875 Z M 30 27.609375 C 30.523438 28.210938 30.925781 28.820312 30.9375 29.0625 C 30.9375 29.578125 30.515625 30 30 30 C 29.484375 30 29.0625 29.578125 29.0625 29.0625 C 29.074219 28.820312 29.476562 28.210938 30 27.609375 Z M 30 27.609375 "/>
</g>
</svg>
