<?xml version="1.0" encoding="UTF-8"?>
<svg xmlns="http://www.w3.org/2000/svg" xmlns:xlink="http://www.w3.org/1999/xlink" width="60pt" height="60pt" viewBox="0 0 60 60" version="1.1">
<g id="surface1">
<path style=" stroke:none;fill-rule:nonzero;fill:rgb(5.490196%,82.352941%,70.196078%);fill-opacity:1;" d="M 50.390625 45 C 50.390625 51.441406 45.167969 56.667969 38.722656 56.667969 C 32.28125 56.667969 27.058594 51.441406 27.058594 45 C 27.058594 38.558594 32.28125 33.332031 38.722656 33.332031 C 45.167969 33.332031 50.390625 38.558594 50.390625 45 Z M 50.390625 45 "/>
<path style=" stroke:none;fill-rule:nonzero;fill:rgb(99.607843%,82.352941%,64.313725%);fill-opacity:1;" d="M 28.761719 45 C 32.675781 45 36.0625 41.085938 37.703125 37.8125 L 36.636719 37.503906 C 35.375 37.144531 34.507812 35.992188 34.507812 34.683594 L 34.507812 31.289062 C 32.867188 32.410156 30.886719 33.066406 28.761719 33.066406 C 26.632812 33.066406 24.652344 32.410156 23.015625 31.289062 L 23.015625 34.683594 C 23.015625 35.992188 22.148438 37.144531 20.886719 37.503906 L 19.816406 37.8125 C 21.460938 41.085938 24.847656 45 28.761719 45 Z M 28.761719 45 "/>
<path style=" stroke:none;fill-rule:nonzero;fill:rgb(94.901961%,98.431373%,100%);fill-opacity:1;" d="M 40.929688 38.789062 C 38.84375 43.433594 34.179688 45 28.761719 45 C 23.339844 45 18.675781 43.433594 16.589844 38.789062 C 12.410156 40.453125 9.609375 44.511719 9.609375 49.085938 L 9.609375 59.878906 C 9.609375 59.945312 9.664062 60 9.730469 60 L 47.789062 60 C 47.859375 60 47.910156 59.945312 47.910156 59.878906 L 47.910156 49.085938 C 47.910156 44.511719 45.109375 40.453125 40.929688 38.789062 Z M 40.929688 38.789062 "/>
<path style=" stroke:none;fill-rule:nonzero;fill:rgb(87.45098%,96.470588%,99.215686%);fill-opacity:1;" d="M 40.929688 38.789062 C 40.804688 39.070312 40.671875 39.335938 40.527344 39.59375 C 42.136719 41.535156 43.082031 44.015625 43.082031 46.671875 L 43.082031 50.875 C 43.082031 54.582031 40.078125 57.585938 36.371094 57.585938 L 9.609375 57.585938 L 9.609375 59.878906 C 9.609375 59.945312 9.664062 60 9.730469 60 L 47.789062 60 C 47.855469 60 47.910156 59.945312 47.910156 59.878906 L 47.910156 49.085938 C 47.910156 44.511719 45.109375 40.453125 40.929688 38.789062 Z M 40.929688 38.789062 "/>
<path style=" stroke:none;fill-rule:nonzero;fill:rgb(0.392157%,44.705882%,59.215686%);fill-opacity:1;" d="M 44.871094 43.332031 L 12.648438 43.332031 L 14.871094 46.667969 L 42.648438 46.667969 Z M 44.871094 43.332031 "/>
<path style=" stroke:none;fill-rule:nonzero;fill:rgb(0.784314%,37.254902%,50.196078%);fill-opacity:1;" d="M 43.066406 46.042969 L 44.871094 43.332031 L 42.570312 43.332031 C 42.84375 44.199219 43.011719 45.109375 43.066406 46.042969 Z M 43.066406 46.042969 "/>
<path style=" stroke:none;fill-rule:nonzero;fill:rgb(87.45098%,96.470588%,99.215686%);fill-opacity:1;" d="M 46.121094 43.042969 L 42.566406 48.375 C 41.742188 49.613281 41.304688 51.050781 41.304688 52.539062 L 41.304688 60 L 39.546875 60 L 39.546875 52.539062 C 39.546875 50.703125 40.085938 48.925781 41.101562 47.398438 L 44.980469 41.578125 C 45.402344 42.035156 45.78125 42.523438 46.121094 43.042969 Z M 17.972656 60 L 17.972656 52.539062 C 17.972656 50.703125 17.433594 48.925781 16.417969 47.398438 L 12.539062 41.582031 C 12.121094 42.035156 11.738281 42.527344 11.402344 43.042969 L 14.953125 48.375 C 15.78125 49.609375 16.214844 51.050781 16.214844 52.539062 L 16.214844 60 Z M 17.972656 60 "/>
<path style=" stroke:none;fill-rule:nonzero;fill:rgb(87.45098%,96.470588%,99.215686%);fill-opacity:1;" d="M 13.707031 43.332031 L 12.648438 43.332031 L 14.871094 46.667969 L 15.929688 46.667969 Z M 13.707031 43.332031 "/>
<path style=" stroke:none;fill-rule:nonzero;fill:rgb(78.431373%,93.72549%,99.607843%);fill-opacity:1;" d="M 39.546875 56.789062 L 39.546875 60 L 41.304688 60 L 41.304688 55.425781 C 40.800781 55.96875 40.207031 56.433594 39.546875 56.789062 Z M 39.546875 56.789062 "/>
<path style=" stroke:none;fill-rule:nonzero;fill:rgb(78.431373%,93.72549%,99.607843%);fill-opacity:1;" d="M 44.984375 41.578125 L 42.90625 44.695312 C 43.023438 45.339844 43.082031 46 43.082031 46.671875 L 43.082031 47.597656 L 46.121094 43.042969 C 45.785156 42.53125 45.40625 42.039062 44.984375 41.578125 Z M 44.984375 41.578125 "/>
<path style=" stroke:none;fill-rule:nonzero;fill:rgb(2.352941%,50.588235%,68.627451%);fill-opacity:1;" d="M 28.761719 46.667969 C 34.179688 46.667969 38.84375 43.433594 40.929688 38.789062 C 40.585938 38.652344 40.234375 38.535156 39.875 38.429688 L 37.703125 37.8125 C 36.0625 41.085938 32.675781 43.332031 28.761719 43.332031 C 24.847656 43.332031 21.460938 41.085938 19.816406 37.8125 L 17.648438 38.429688 C 17.285156 38.535156 16.933594 38.652344 16.589844 38.789062 C 18.675781 43.433594 23.339844 46.667969 28.761719 46.667969 Z M 28.761719 46.667969 "/>
<path style=" stroke:none;fill-rule:nonzero;fill:rgb(0.392157%,44.705882%,59.215686%);fill-opacity:1;" d="M 47.910156 59.878906 L 47.910156 56.667969 L 9.609375 56.667969 L 9.609375 59.878906 C 9.609375 59.945312 9.664062 60 9.730469 60 L 47.789062 60 C 47.859375 60 47.910156 59.945312 47.910156 59.878906 Z M 47.910156 59.878906 "/>
<path style=" stroke:none;fill-rule:nonzero;fill:rgb(0.784314%,37.254902%,50.196078%);fill-opacity:1;" d="M 36.371094 57.585938 L 9.609375 57.585938 L 9.609375 59.878906 C 9.609375 59.945312 9.664062 60 9.730469 60 L 47.789062 60 C 47.855469 60 47.910156 59.945312 47.910156 59.878906 L 47.910156 56.667969 L 39.761719 56.667969 C 38.765625 57.25 37.609375 57.585938 36.371094 57.585938 Z M 36.371094 57.585938 "/>
<path style=" stroke:none;fill-rule:nonzero;fill:rgb(0.784314%,29.803922%,40.392157%);fill-opacity:1;" d="M 39.546875 56.667969 L 41.304688 56.667969 L 41.304688 60 L 39.546875 60 Z M 39.546875 56.667969 "/>
<path style=" stroke:none;fill-rule:nonzero;fill:rgb(0.784314%,37.254902%,50.196078%);fill-opacity:1;" d="M 16.214844 56.667969 L 17.972656 56.667969 L 17.972656 60 L 16.214844 60 Z M 16.214844 56.667969 "/>
<path style=" stroke:none;fill-rule:nonzero;fill:rgb(0.784314%,29.803922%,40.392157%);fill-opacity:1;" d="M 16.214844 57.585938 L 17.972656 57.585938 L 17.972656 60 L 16.214844 60 Z M 16.214844 57.585938 "/>
<path style=" stroke:none;fill-rule:nonzero;fill:rgb(0.392157%,44.705882%,59.215686%);fill-opacity:1;" d="M 9.609375 50 L 47.910156 50 L 47.910156 53.332031 L 9.609375 53.332031 Z M 9.609375 50 "/>
<path style=" stroke:none;fill-rule:nonzero;fill:rgb(0.784314%,37.254902%,50.196078%);fill-opacity:1;" d="M 39.898438 50 C 39.667969 50.820312 39.546875 51.671875 39.546875 52.539062 L 39.546875 53.332031 L 41.304688 53.332031 L 41.304688 52.539062 C 41.304688 51.664062 41.453125 50.808594 41.746094 50 Z M 39.898438 50 "/>
<path style=" stroke:none;fill-rule:nonzero;fill:rgb(0.784314%,37.254902%,50.196078%);fill-opacity:1;" d="M 16.214844 52.539062 L 16.214844 53.332031 L 17.972656 53.332031 L 17.972656 52.539062 C 17.972656 51.671875 17.855469 50.820312 17.621094 50 L 15.773438 50 C 16.066406 50.808594 16.214844 51.664062 16.214844 52.539062 Z M 16.214844 52.539062 "/>
<path style=" stroke:none;fill-rule:nonzero;fill:rgb(0.784314%,37.254902%,50.196078%);fill-opacity:1;" d="M 43.082031 50.875 C 43.082031 51.742188 42.917969 52.570312 42.617188 53.332031 L 47.910156 53.332031 L 47.910156 50 L 43.082031 50 Z M 43.082031 50.875 "/>
<path style=" stroke:none;fill-rule:nonzero;fill:rgb(100%,89.803922%,76.078431%);fill-opacity:1;" d="M 18.164062 19.578125 L 15.761719 19.578125 C 14.132812 19.578125 12.8125 20.902344 12.8125 22.53125 C 12.8125 25.734375 15.40625 28.332031 18.613281 28.332031 L 18.722656 28.332031 Z M 18.164062 19.578125 "/>
<path style=" stroke:none;fill-rule:nonzero;fill:rgb(99.607843%,82.352941%,64.313725%);fill-opacity:1;" d="M 41.683594 19.578125 L 39.28125 19.578125 L 38.722656 28.332031 L 38.835938 28.332031 C 42.039062 28.332031 44.636719 25.734375 44.636719 22.53125 C 44.636719 20.902344 43.316406 19.578125 41.683594 19.578125 Z M 41.683594 19.578125 "/>
<path style=" stroke:none;fill-rule:nonzero;fill:rgb(100%,95.294118%,87.058824%);fill-opacity:1;" d="M 28.722656 33.972656 C 22.558594 33.972656 17.441406 29.207031 17 23.058594 L 16.527344 16.429688 C 16.023438 9.351562 21.628906 3.332031 28.722656 3.332031 C 35.820312 3.332031 41.425781 9.355469 40.917969 16.433594 L 40.445312 23.058594 C 40.003906 29.210938 34.886719 33.972656 28.722656 33.972656 Z M 28.722656 33.972656 "/>
<path style=" stroke:none;fill-rule:nonzero;fill:rgb(100%,89.803922%,76.078431%);fill-opacity:1;" d="M 31.636719 3.683594 C 34.59375 6.105469 36.386719 9.878906 36.089844 14.015625 L 35.617188 20.644531 C 35.175781 26.792969 30.058594 31.558594 23.894531 31.558594 C 22.96875 31.558594 22.0625 31.453125 21.195312 31.246094 C 23.242188 32.953125 25.871094 33.972656 28.722656 33.972656 C 34.890625 33.972656 40.007812 29.210938 40.445312 23.058594 L 40.917969 16.433594 C 41.351562 10.355469 37.285156 5.0625 31.636719 3.683594 Z M 31.636719 3.683594 "/>
<path style=" stroke:none;fill-rule:nonzero;fill:rgb(99.607843%,82.352941%,64.313725%);fill-opacity:1;" d="M 40.449219 60 L 35.390625 60 L 35.390625 52 L 39.390625 52 Z M 40.449219 60 "/>
<path style=" stroke:none;fill-rule:nonzero;fill:rgb(100%,95.294118%,87.058824%);fill-opacity:1;" d="M 44.542969 60 L 40.238281 60 C 39.769531 60 39.390625 59.621094 39.390625 59.152344 L 39.390625 50.847656 C 39.390625 50.378906 39.769531 50 40.238281 50 L 44.542969 50 C 45.011719 50 45.390625 50.378906 45.390625 50.847656 L 45.390625 59.152344 C 45.390625 59.621094 45.011719 60 44.542969 60 Z M 44.542969 60 "/>
<path style=" stroke:none;fill-rule:nonzero;fill:rgb(100%,89.803922%,76.078431%);fill-opacity:1;" d="M 39.390625 56 L 37.390625 56 C 36.285156 56 35.390625 55.105469 35.390625 54 L 35.390625 52 C 35.390625 50.894531 36.285156 50 37.390625 50 L 38.65625 50 C 39.0625 50 39.390625 50.328125 39.390625 50.734375 Z M 39.390625 56 "/>
<path style=" stroke:none;fill-rule:nonzero;fill:rgb(99.215686%,41.176471%,18.823529%);fill-opacity:1;" d="M 43.722656 50 L 40.390625 50 L 40.390625 37.351562 C 40.390625 37.035156 40.722656 36.832031 41 36.972656 L 43.492188 38.214844 C 43.632812 38.289062 43.722656 38.433594 43.722656 38.59375 Z M 43.722656 50 "/>
<path style=" stroke:none;fill-rule:nonzero;fill:rgb(100%,89.803922%,76.078431%);fill-opacity:1;" d="M 42.449219 54.878906 L 39.390625 54.878906 C 38.90625 54.878906 38.511719 54.484375 38.511719 54 C 38.511719 53.515625 38.90625 53.121094 39.390625 53.121094 L 42.449219 53.121094 C 42.933594 53.121094 43.328125 53.515625 43.328125 54 C 43.328125 54.484375 42.933594 54.878906 42.449219 54.878906 Z M 42.449219 54.878906 "/>
<path style=" stroke:none;fill-rule:nonzero;fill:rgb(100%,89.803922%,76.078431%);fill-opacity:1;" d="M 27.925781 25.257812 L 27.628906 25.257812 C 27.144531 25.257812 26.75 24.863281 26.75 24.378906 C 26.75 23.890625 27.144531 23.5 27.628906 23.5 L 27.925781 23.5 C 28.484375 23.5 28.9375 23.042969 28.9375 22.484375 L 28.9375 18.332031 C 28.9375 17.847656 29.332031 17.453125 29.816406 17.453125 C 30.304688 17.453125 30.695312 17.847656 30.695312 18.332031 L 30.695312 22.484375 C 30.695312 24.011719 29.453125 25.257812 27.925781 25.257812 Z M 27.925781 25.257812 "/>
<path style=" stroke:none;fill-rule:nonzero;fill:rgb(100%,89.803922%,76.078431%);fill-opacity:1;" d="M 28.722656 29.617188 C 26.601562 29.617188 24.605469 28.789062 23.101562 27.289062 C 22.757812 26.945312 22.757812 26.386719 23.101562 26.046875 C 23.445312 25.703125 24.003906 25.703125 24.34375 26.046875 C 25.515625 27.214844 27.070312 27.859375 28.722656 27.859375 C 30.378906 27.859375 31.933594 27.214844 33.101562 26.046875 C 33.445312 25.703125 34 25.703125 34.34375 26.046875 C 34.6875 26.386719 34.6875 26.945312 34.34375 27.289062 C 32.84375 28.789062 30.847656 29.617188 28.722656 29.617188 Z M 28.722656 29.617188 "/>
<path style=" stroke:none;fill-rule:nonzero;fill:rgb(99.607843%,82.352941%,64.313725%);fill-opacity:1;" d="M 34.34375 27.289062 C 34.6875 26.945312 34.6875 26.386719 34.34375 26.046875 C 34.242188 25.941406 34.117188 25.871094 33.988281 25.828125 C 33.15625 27.21875 32.046875 28.421875 30.738281 29.359375 C 32.089844 29.007812 33.332031 28.300781 34.34375 27.289062 Z M 34.34375 27.289062 "/>
<path style=" stroke:none;fill-rule:nonzero;fill:rgb(0.392157%,44.705882%,59.215686%);fill-opacity:1;" d="M 16.542969 11.496094 C 16.015625 13.070312 15.800781 14.753906 15.925781 16.472656 L 16.257812 21.105469 C 16.277344 21.421875 16.542969 21.667969 16.859375 21.667969 L 23.742188 21.667969 C 25.464844 21.667969 27.078125 20.804688 28.03125 19.371094 C 28.363281 18.875 29.085938 18.875 29.414062 19.371094 C 30.371094 20.804688 31.980469 21.667969 33.707031 21.667969 L 40.585938 21.667969 C 40.902344 21.667969 41.167969 21.421875 41.191406 21.105469 L 41.519531 16.476562 C 41.644531 14.753906 41.429688 13.070312 40.90625 11.496094 Z M 16.542969 11.496094 "/>
<path style=" stroke:none;fill-rule:nonzero;fill:rgb(0.784314%,37.254902%,50.196078%);fill-opacity:1;" d="M 40.90625 11.496094 L 36.011719 11.496094 C 36.121094 12.3125 36.152344 13.15625 36.089844 14.015625 L 35.617188 20.644531 C 35.589844 20.988281 35.550781 21.332031 35.5 21.667969 L 40.585938 21.667969 C 40.902344 21.667969 41.167969 21.421875 41.191406 21.105469 L 41.519531 16.476562 C 41.644531 14.753906 41.429688 13.070312 40.90625 11.496094 Z M 40.90625 11.496094 "/>
<path style=" stroke:none;fill-rule:nonzero;fill:rgb(99.215686%,41.176471%,18.823529%);fill-opacity:1;" d="M 40.820312 13.332031 L 16.628906 13.332031 C 15.292969 13.332031 14.425781 11.929688 15.023438 10.734375 L 17.488281 5.800781 C 19.265625 2.246094 22.902344 0 26.878906 0 L 30.570312 0 C 34.546875 0 38.179688 2.246094 39.957031 5.800781 L 42.425781 10.734375 C 43.023438 11.929688 42.152344 13.332031 40.820312 13.332031 Z M 40.820312 13.332031 "/>
<path style=" stroke:none;fill-rule:nonzero;fill:rgb(99.215686%,32.941176%,14.901961%);fill-opacity:1;" d="M 42.425781 10.734375 L 39.957031 5.800781 C 38.503906 2.890625 35.804688 0.859375 32.691406 0.214844 C 33.683594 1.09375 34.515625 2.164062 35.128906 3.386719 L 35.742188 4.617188 C 37.191406 7.511719 35.085938 10.917969 31.847656 10.917969 L 14.941406 10.917969 C 14.515625 12.066406 15.363281 13.332031 16.628906 13.332031 L 40.820312 13.332031 C 42.152344 13.332031 43.023438 11.929688 42.425781 10.734375 Z M 42.425781 10.734375 "/>
<path style=" stroke:none;fill-rule:nonzero;fill:rgb(99.215686%,32.941176%,14.901961%);fill-opacity:1;" d="M 19.003906 7.550781 C 19.390625 9.480469 21.097656 10.878906 23.0625 10.878906 L 34.382812 10.878906 C 36.351562 10.878906 38.058594 9.480469 38.441406 7.550781 L 39.082031 4.355469 C 38.648438 3.753906 38.15625 3.207031 37.617188 2.71875 L 36.71875 7.207031 C 36.496094 8.316406 35.515625 9.121094 34.382812 9.121094 L 23.0625 9.121094 C 21.933594 9.121094 20.949219 8.316406 20.726562 7.207031 L 19.832031 2.71875 C 19.289062 3.207031 18.796875 3.753906 18.367188 4.355469 Z M 19.003906 7.550781 "/>
<path style=" stroke:none;fill-rule:nonzero;fill:rgb(93.72549%,26.666667%,14.117647%);fill-opacity:1;" d="M 34.382812 10.878906 C 36.351562 10.878906 38.058594 9.480469 38.441406 7.550781 L 39.082031 4.355469 C 38.648438 3.753906 38.15625 3.207031 37.617188 2.71875 L 36.71875 7.207031 C 36.582031 7.886719 36.160156 8.457031 35.589844 8.792969 C 34.941406 9.882812 33.820312 10.695312 32.441406 10.878906 Z M 34.382812 10.878906 "/>
<path style=" stroke:none;fill-rule:nonzero;fill:rgb(0.784314%,37.254902%,50.196078%);fill-opacity:1;" d="M 22.058594 19.210938 C 21.570312 19.210938 21.179688 18.820312 21.179688 18.332031 C 21.179688 17.988281 21.378906 17.691406 21.667969 17.546875 L 20.390625 17.546875 C 19.90625 17.546875 19.511719 17.152344 19.511719 16.667969 C 19.511719 16.183594 19.90625 15.789062 20.390625 15.789062 L 25.390625 15.789062 C 25.746094 15.789062 26.066406 16.003906 26.203125 16.332031 C 26.339844 16.660156 26.261719 17.039062 26.011719 17.289062 L 25.523438 17.777344 C 24.597656 18.703125 23.367188 19.210938 22.058594 19.210938 Z M 22.058594 19.210938 "/>
<path style=" stroke:none;fill-rule:nonzero;fill:rgb(0.784314%,37.254902%,50.196078%);fill-opacity:1;" d="M 35.390625 19.210938 C 34.082031 19.210938 32.851562 18.703125 31.921875 17.777344 L 31.433594 17.289062 C 31.183594 17.039062 31.109375 16.660156 31.246094 16.332031 C 31.382812 16.003906 31.703125 15.789062 32.058594 15.789062 L 37.058594 15.789062 C 37.542969 15.789062 37.9375 16.183594 37.9375 16.667969 C 37.9375 17.152344 37.542969 17.546875 37.058594 17.546875 L 35.78125 17.546875 C 36.070312 17.691406 36.269531 17.988281 36.269531 18.332031 C 36.269531 18.820312 35.875 19.210938 35.390625 19.210938 Z M 35.390625 19.210938 "/>
<path style=" stroke:none;fill-rule:nonzero;fill:rgb(0.784314%,29.803922%,40.392157%);fill-opacity:1;" d="M 36.269531 18.332031 C 36.269531 18.011719 36.09375 17.730469 35.835938 17.574219 L 35.722656 19.148438 C 36.042969 19.015625 36.269531 18.703125 36.269531 18.332031 Z M 36.269531 18.332031 "/>
<path style=" stroke:none;fill-rule:nonzero;fill:rgb(0.784314%,29.803922%,40.392157%);fill-opacity:1;" d="M 37.058594 15.789062 L 35.964844 15.789062 L 35.835938 17.546875 L 37.058594 17.546875 C 37.542969 17.546875 37.9375 17.152344 37.9375 16.667969 C 37.9375 16.183594 37.542969 15.789062 37.058594 15.789062 Z M 37.058594 15.789062 "/>
</g>
</svg>
