<?xml version="1.0" encoding="UTF-8"?>
<svg xmlns="http://www.w3.org/2000/svg" xmlns:xlink="http://www.w3.org/1999/xlink" width="60pt" height="60pt" viewBox="0 0 60 60" version="1.1">
<g id="surface1">
<path style=" stroke:none;fill-rule:nonzero;fill:rgb(0.392157%,44.705882%,59.215686%);fill-opacity:1;" d="M 33.5 37.191406 C 32.425781 36.761719 31.707031 35.71875 31.707031 34.546875 L 31.707031 31.25 C 30.117188 32.339844 28.191406 32.976562 26.128906 32.976562 C 24.066406 32.976562 22.140625 32.339844 20.550781 31.25 L 20.550781 34.546875 C 20.550781 35.71875 19.832031 36.761719 18.761719 37.191406 L 26.128906 44.5625 Z M 33.5 37.191406 "/>
<path style=" stroke:none;fill-rule:nonzero;fill:rgb(42.352941%,67.058824%,79.215686%);fill-opacity:1;" d="M 9.242188 41.695312 C 7.746094 43.679688 6.953125 46.042969 6.953125 48.527344 L 6.953125 59.003906 C 6.953125 59.070312 7.003906 59.121094 7.070312 59.121094 L 14.804688 59.121094 L 16.421875 47.796875 L 14.804688 37.734375 C 12.574219 38.453125 10.65625 39.816406 9.242188 41.695312 Z M 9.242188 41.695312 "/>
<path style=" stroke:none;fill-rule:nonzero;fill:rgb(42.352941%,67.058824%,79.215686%);fill-opacity:1;" d="M 45.304688 48.527344 C 45.304688 46.0625 44.527344 43.714844 43.050781 41.742188 C 41.648438 39.859375 39.675781 38.484375 37.453125 37.742188 L 35.835938 46.179688 L 37.453125 59.121094 L 45.1875 59.121094 C 45.253906 59.121094 45.304688 59.070312 45.304688 59.003906 Z M 45.304688 48.527344 "/>
<path style=" stroke:none;fill-rule:nonzero;fill:rgb(21.176471%,57.254902%,73.72549%);fill-opacity:1;" d="M 43.050781 41.742188 C 41.648438 39.859375 39.675781 38.484375 37.453125 37.742188 L 37.359375 38.230469 C 37.71875 38.59375 38.054688 38.984375 38.363281 39.398438 C 39.839844 41.371094 40.617188 43.71875 40.617188 46.183594 L 40.617188 50.664062 C 40.617188 53.117188 39.171875 55.230469 37.089844 56.207031 L 37.453125 59.121094 L 45.1875 59.121094 C 45.253906 59.121094 45.304688 59.070312 45.304688 59.003906 L 45.304688 48.527344 C 45.304688 46.0625 44.527344 43.714844 43.050781 41.742188 Z M 43.050781 41.742188 "/>
<path style=" stroke:none;fill-rule:nonzero;fill:rgb(54.117647%,73.333333%,83.529412%);fill-opacity:1;" d="M 36.933594 37.578125 L 33.933594 36.722656 C 33.933594 36.722656 33.933594 36.722656 33.929688 36.722656 C 33.722656 36.660156 33.503906 36.648438 33.292969 36.703125 L 27.746094 38.089844 L 26.128906 41.324219 L 24.511719 38.089844 L 18.964844 36.703125 C 18.753906 36.648438 18.535156 36.660156 18.328125 36.722656 C 18.328125 36.722656 18.324219 36.722656 18.324219 36.722656 L 15.179688 37.621094 C 15.054688 37.65625 14.929688 37.695312 14.804688 37.734375 L 14.804688 59.121094 L 37.453125 59.121094 L 37.453125 37.738281 C 37.28125 37.683594 37.109375 37.628906 36.933594 37.578125 Z M 36.933594 37.578125 "/>
<path style=" stroke:none;fill-rule:nonzero;fill:rgb(21.176471%,57.254902%,73.72549%);fill-opacity:1;" d="M 6.953125 56.777344 L 6.953125 59.003906 C 6.953125 59.070312 7.003906 59.121094 7.070312 59.121094 L 14.804688 59.121094 L 15.140625 56.777344 Z M 6.953125 56.777344 "/>
<path style=" stroke:none;fill-rule:nonzero;fill:rgb(42.352941%,67.058824%,79.215686%);fill-opacity:1;" d="M 34.503906 56.777344 L 14.804688 56.777344 L 14.804688 59.121094 L 37.453125 59.121094 L 37.453125 56.019531 C 36.578125 56.503906 35.574219 56.777344 34.503906 56.777344 Z M 34.503906 56.777344 "/>
<path style=" stroke:none;fill-rule:nonzero;fill:rgb(100%,89.803922%,76.078431%);fill-opacity:1;" d="M 34.21875 13.820312 L 18.039062 13.820312 L 14.773438 23.558594 C 15.339844 29.382812 20.242188 33.855469 26.128906 33.855469 C 32.015625 33.855469 36.917969 29.382812 37.484375 23.558594 Z M 34.21875 13.820312 "/>
<path style=" stroke:none;fill-rule:nonzero;fill:rgb(99.607843%,82.352941%,64.313725%);fill-opacity:1;" d="M 34.21875 13.820312 L 29.53125 13.820312 L 29.53125 15.75 C 29.53125 17.160156 30.089844 18.507812 31.085938 19.503906 L 31.210938 19.628906 C 32.324219 20.742188 32.726562 22.398438 32.207031 23.886719 C 30.640625 28.355469 26.386719 31.511719 21.441406 31.511719 C 20.542969 31.511719 19.664062 31.410156 18.824219 31.210938 C 20.808594 32.867188 23.359375 33.855469 26.128906 33.855469 C 32.015625 33.855469 36.917969 29.382812 37.484375 23.558594 Z M 34.21875 13.820312 "/>
<path style=" stroke:none;fill-rule:nonzero;fill:rgb(98.039216%,77.647059%,0%);fill-opacity:1;" d="M 35.773438 21.847656 L 37.484375 23.558594 C 37.492188 23.460938 37.5 23.359375 37.507812 23.261719 L 37.96875 16.828125 C 38.042969 15.796875 37.980469 14.789062 37.804688 13.820312 L 34.21875 13.820312 L 34.21875 18.09375 C 34.21875 19.503906 34.777344 20.851562 35.773438 21.847656 Z M 35.773438 21.847656 "/>
<path style=" stroke:none;fill-rule:nonzero;fill:rgb(99.607843%,83.137255%,0.784314%);fill-opacity:1;" d="M 18.039062 18.09375 L 18.039062 13.820312 L 14.457031 13.820312 C 14.277344 14.789062 14.21875 15.796875 14.289062 16.828125 L 14.75 23.261719 C 14.757812 23.359375 14.765625 23.460938 14.773438 23.558594 L 16.484375 21.847656 C 17.480469 20.851562 18.039062 19.503906 18.039062 18.09375 Z M 18.039062 18.09375 "/>
<path style=" stroke:none;fill-rule:nonzero;fill:rgb(54.117647%,73.333333%,83.529412%);fill-opacity:1;" d="M 26.128906 0.878906 C 17.886719 0.878906 11.375 7.871094 11.960938 16.09375 L 12.511719 23.792969 C 12.902344 29.234375 16.445312 33.742188 21.277344 35.582031 L 21.277344 32.878906 C 21.277344 32.089844 20.882812 31.355469 20.226562 30.917969 L 18.949219 30.066406 C 17.347656 29 16.300781 27.277344 16.085938 25.363281 L 14.804688 13.820312 L 37.453125 13.820312 L 36.171875 25.363281 C 35.960938 27.277344 34.910156 29 33.308594 30.066406 L 32.035156 30.917969 C 31.378906 31.355469 30.984375 32.089844 30.984375 32.878906 L 30.984375 35.582031 C 35.816406 33.742188 39.355469 29.234375 39.746094 23.792969 L 40.296875 16.09375 C 40.882812 7.871094 34.371094 0.878906 26.128906 0.878906 Z M 26.128906 0.878906 "/>
<path style=" stroke:none;fill-rule:nonzero;fill:rgb(70.588235%,82.352941%,88.627451%);fill-opacity:1;" d="M 11.847656 13.882812 L 26.128906 17.058594 L 40.410156 13.882812 C 40.574219 13.847656 40.691406 13.703125 40.691406 13.535156 L 40.691406 10.820312 C 40.691406 10.675781 40.605469 10.550781 40.476562 10.492188 L 26.359375 4.382812 L 11.78125 10.761719 C 11.652344 10.820312 11.570312 10.945312 11.570312 11.085938 L 11.570312 13.535156 C 11.570312 13.703125 11.683594 13.847656 11.847656 13.882812 Z M 11.847656 13.882812 "/>
<path style=" stroke:none;fill-rule:nonzero;fill:rgb(70.588235%,82.352941%,88.627451%);fill-opacity:1;" d="M 19.65625 42.941406 L 16.175781 36.847656 C 16.140625 36.785156 16.066406 36.757812 16 36.777344 L 15.140625 37.023438 C 12.628906 37.738281 10.386719 39.222656 8.804688 41.304688 C 7.210938 43.398438 6.367188 45.898438 6.367188 48.527344 L 6.367188 52.554688 C 6.367188 52.660156 6.46875 52.730469 6.566406 52.699219 L 16.421875 49.414062 Z M 19.65625 42.941406 "/>
<path style=" stroke:none;fill-rule:nonzero;fill:rgb(70.588235%,82.352941%,88.627451%);fill-opacity:1;" d="M 32.601562 42.941406 L 36.085938 36.847656 C 36.117188 36.785156 36.191406 36.757812 36.257812 36.777344 L 37.117188 37.023438 C 39.632812 37.738281 41.871094 39.222656 43.457031 41.304688 C 45.050781 43.398438 45.890625 45.898438 45.890625 48.527344 L 45.890625 52.554688 C 45.890625 52.660156 45.789062 52.730469 45.691406 52.699219 L 35.835938 49.414062 Z M 32.601562 42.941406 "/>
<path style=" stroke:none;fill-rule:nonzero;fill:rgb(54.117647%,73.333333%,83.529412%);fill-opacity:1;" d="M 43.457031 41.304688 C 41.871094 39.222656 39.632812 37.738281 37.117188 37.023438 L 36.257812 36.777344 C 36.191406 36.757812 36.117188 36.785156 36.082031 36.847656 L 35.972656 37.042969 C 36.878906 37.699219 37.6875 38.492188 38.363281 39.398438 C 39.839844 41.371094 40.617188 43.71875 40.617188 46.183594 L 40.617188 50.664062 C 40.617188 50.78125 40.613281 50.890625 40.609375 51.003906 L 45.691406 52.699219 C 45.789062 52.730469 45.890625 52.660156 45.890625 52.554688 L 45.890625 48.527344 C 45.890625 45.894531 45.050781 43.398438 43.457031 41.304688 Z M 43.457031 41.304688 "/>
<path style=" stroke:none;fill-rule:nonzero;fill:rgb(0.784314%,29.803922%,40.392157%);fill-opacity:1;" d="M 47.589844 59.121094 L 43.496094 59.121094 L 43.496094 52.648438 L 46.734375 52.648438 Z M 47.589844 59.121094 "/>
<path style=" stroke:none;fill-rule:nonzero;fill:rgb(0.392157%,44.705882%,59.215686%);fill-opacity:1;" d="M 50.898438 59.121094 L 47.417969 59.121094 C 47.039062 59.121094 46.734375 58.8125 46.734375 58.433594 L 46.734375 51.03125 L 50.898438 51.03125 C 51.277344 51.03125 51.585938 51.339844 51.585938 51.71875 L 51.585938 58.433594 C 51.585938 58.8125 51.277344 59.121094 50.898438 59.121094 Z M 50.898438 59.121094 "/>
<path style=" stroke:none;fill-rule:nonzero;fill:rgb(0.784314%,37.254902%,50.196078%);fill-opacity:1;" d="M 46.734375 55.886719 L 45.113281 55.886719 C 44.222656 55.886719 43.496094 55.160156 43.496094 54.265625 L 43.496094 52.648438 C 43.496094 51.757812 44.222656 51.03125 45.113281 51.03125 L 46.734375 51.03125 Z M 46.734375 55.886719 "/>
<path style=" stroke:none;fill-rule:nonzero;fill:rgb(84.705882%,90.980392%,94.117647%);fill-opacity:1;" d="M 50.398438 47.796875 L 43.925781 47.796875 L 43.925781 28.4375 C 43.925781 28.402344 43.941406 28.367188 43.964844 28.34375 L 47.066406 25.242188 C 47.117188 25.1875 47.203125 25.1875 47.253906 25.242188 L 50.359375 28.34375 C 50.382812 28.367188 50.398438 28.402344 50.398438 28.4375 Z M 50.398438 47.796875 "/>
<path style=" stroke:none;fill-rule:nonzero;fill:rgb(99.607843%,83.137255%,0.784314%);fill-opacity:1;" d="M 53.457031 47.796875 L 40.863281 47.796875 C 40.769531 47.796875 40.691406 47.875 40.691406 47.96875 L 40.691406 49.320312 C 40.691406 50.265625 41.457031 51.03125 42.402344 51.03125 L 51.921875 51.03125 C 52.867188 51.03125 53.632812 50.265625 53.632812 49.320312 L 53.632812 47.96875 C 53.632812 47.875 53.554688 47.796875 53.457031 47.796875 Z M 53.457031 47.796875 "/>
<path style=" stroke:none;fill-rule:nonzero;fill:rgb(0%,0%,0%);fill-opacity:1;" d="M 25.066406 25.421875 L 25.351562 25.421875 C 26.851562 25.421875 28.070312 24.203125 28.070312 22.703125 L 28.070312 20.292969 C 28.070312 19.808594 27.675781 19.414062 27.191406 19.414062 C 26.707031 19.414062 26.3125 19.808594 26.3125 20.292969 L 26.3125 22.703125 C 26.3125 23.234375 25.882812 23.664062 25.351562 23.664062 L 25.066406 23.664062 C 24.582031 23.664062 24.1875 24.054688 24.1875 24.542969 C 24.1875 25.027344 24.582031 25.421875 25.066406 25.421875 Z M 25.066406 25.421875 "/>
<path style=" stroke:none;fill-rule:nonzero;fill:rgb(0%,0%,0%);fill-opacity:1;" d="M 26.128906 14.699219 C 26.613281 14.699219 27.007812 14.308594 27.007812 13.820312 L 27.007812 7.351562 C 27.007812 6.863281 26.613281 6.472656 26.128906 6.472656 C 25.644531 6.472656 25.25 6.863281 25.25 7.351562 L 25.25 13.820312 C 25.25 14.308594 25.644531 14.699219 26.128906 14.699219 Z M 26.128906 14.699219 "/>
<path style=" stroke:none;fill-rule:nonzero;fill:rgb(0%,0%,0%);fill-opacity:1;" d="M 22.894531 13.082031 C 23.378906 13.082031 23.773438 12.6875 23.773438 12.203125 L 23.773438 8.96875 C 23.773438 8.484375 23.378906 8.089844 22.894531 8.089844 C 22.410156 8.089844 22.015625 8.484375 22.015625 8.96875 L 22.015625 12.203125 C 22.015625 12.6875 22.410156 13.082031 22.894531 13.082031 Z M 22.894531 13.082031 "/>
<path style=" stroke:none;fill-rule:nonzero;fill:rgb(0%,0%,0%);fill-opacity:1;" d="M 18.777344 10.585938 L 18.777344 12.203125 C 18.777344 12.6875 19.171875 13.082031 19.65625 13.082031 C 20.144531 13.082031 20.535156 12.6875 20.535156 12.203125 L 20.535156 10.585938 C 20.535156 10.101562 20.144531 9.707031 19.65625 9.707031 C 19.171875 9.707031 18.777344 10.101562 18.777344 10.585938 Z M 18.777344 10.585938 "/>
<path style=" stroke:none;fill-rule:nonzero;fill:rgb(0%,0%,0%);fill-opacity:1;" d="M 29.363281 13.082031 C 29.851562 13.082031 30.242188 12.6875 30.242188 12.203125 L 30.242188 8.96875 C 30.242188 8.484375 29.851562 8.089844 29.363281 8.089844 C 28.878906 8.089844 28.484375 8.484375 28.484375 8.96875 L 28.484375 12.203125 C 28.484375 12.6875 28.878906 13.082031 29.363281 13.082031 Z M 29.363281 13.082031 "/>
<path style=" stroke:none;fill-rule:nonzero;fill:rgb(0%,0%,0%);fill-opacity:1;" d="M 32.601562 13.082031 C 33.085938 13.082031 33.480469 12.6875 33.480469 12.203125 L 33.480469 10.585938 C 33.480469 10.101562 33.085938 9.707031 32.601562 9.707031 C 32.117188 9.707031 31.722656 10.101562 31.722656 10.585938 L 31.722656 12.203125 C 31.722656 12.6875 32.117188 13.082031 32.601562 13.082031 Z M 32.601562 13.082031 "/>
<path style=" stroke:none;fill-rule:nonzero;fill:rgb(0%,0%,0%);fill-opacity:1;" d="M 30.269531 27.546875 C 30.613281 27.203125 30.613281 26.644531 30.269531 26.300781 C 29.925781 25.960938 29.371094 25.960938 29.027344 26.300781 C 27.429688 27.902344 24.828125 27.902344 23.230469 26.300781 C 22.886719 25.960938 22.332031 25.960938 21.988281 26.300781 C 21.644531 26.644531 21.644531 27.203125 21.988281 27.546875 C 24.269531 29.828125 27.988281 29.828125 30.269531 27.546875 Z M 30.269531 27.546875 "/>
<path style=" stroke:none;fill-rule:nonzero;fill:rgb(0%,0%,0%);fill-opacity:1;" d="M 26.128906 50.292969 C 26.613281 50.292969 27.007812 49.898438 27.007812 49.414062 L 27.007812 44.5625 C 27.007812 44.074219 26.613281 43.679688 26.128906 43.679688 C 25.644531 43.679688 25.25 44.074219 25.25 44.5625 L 25.25 49.414062 C 25.25 49.898438 25.644531 50.292969 26.128906 50.292969 Z M 26.128906 50.292969 "/>
<path style=" stroke:none;fill-rule:nonzero;fill:rgb(0%,0%,0%);fill-opacity:1;" d="M 53.457031 46.917969 L 51.277344 46.917969 L 51.277344 44.558594 C 51.277344 44.074219 50.882812 43.679688 50.398438 43.679688 C 49.910156 43.679688 49.519531 44.074219 49.519531 44.558594 L 49.519531 46.917969 L 48.039062 46.917969 L 48.039062 31.617188 C 48.039062 31.132812 47.648438 30.738281 47.160156 30.738281 C 46.675781 30.738281 46.28125 31.132812 46.28125 31.617188 L 46.28125 46.917969 L 44.804688 46.917969 C 44.804688 40.789062 44.804688 32.339844 44.804688 28.746094 L 47.160156 26.390625 L 49.519531 28.746094 L 49.519531 40.457031 C 49.519531 40.941406 49.910156 41.335938 50.398438 41.335938 C 50.882812 41.335938 51.277344 40.941406 51.277344 40.457031 L 51.277344 28.4375 C 51.277344 28.167969 51.171875 27.914062 50.980469 27.722656 L 47.878906 24.621094 C 47.484375 24.226562 46.839844 24.226562 46.445312 24.621094 L 43.34375 27.722656 C 43.152344 27.914062 43.046875 28.167969 43.046875 28.4375 L 43.046875 39.503906 C 41.496094 37.953125 39.523438 36.796875 37.359375 36.175781 L 36.5 35.929688 C 36.109375 35.820312 35.703125 35.945312 35.445312 36.238281 L 34.175781 35.875 C 34.171875 35.875 34.167969 35.875 34.167969 35.875 C 33.804688 35.769531 33.429688 35.761719 33.078125 35.851562 C 33.027344 35.789062 32.976562 35.726562 32.933594 35.660156 C 37.308594 33.335938 40.261719 28.871094 40.621094 23.855469 C 41.136719 16.246094 41.261719 15.894531 41.199219 14.421875 C 41.429688 14.195312 41.570312 13.882812 41.570312 13.535156 L 41.570312 10.820312 C 41.570312 10.328125 41.277344 9.882812 40.824219 9.6875 L 40.09375 9.371094 C 38.996094 6.699219 37.175781 4.414062 34.800781 2.742188 C 32.257812 0.949219 29.257812 0 26.128906 0 C 19.878906 0 14.265625 3.878906 12.039062 9.691406 L 11.429688 9.957031 C 10.980469 10.152344 10.691406 10.597656 10.691406 11.085938 L 10.691406 13.535156 C 10.691406 13.882812 10.828125 14.195312 11.058594 14.421875 C 10.996094 15.902344 11.128906 16.390625 11.636719 23.855469 C 11.992188 28.871094 14.949219 33.335938 19.328125 35.660156 C 19.28125 35.726562 19.230469 35.789062 19.179688 35.851562 C 18.828125 35.761719 18.449219 35.769531 18.085938 35.875 C 18.085938 35.875 18.082031 35.875 18.082031 35.875 L 16.816406 36.238281 C 16.554688 35.945312 16.148438 35.820312 15.757812 35.929688 L 14.898438 36.175781 C 12.179688 36.953125 9.765625 38.585938 8.105469 40.769531 C 6.394531 43.019531 5.488281 45.703125 5.488281 48.527344 L 5.488281 52.554688 C 5.488281 52.941406 5.710938 53.3125 6.074219 53.484375 L 6.074219 59.003906 C 6.074219 59.554688 6.519531 60 7.070312 60 C 8.5 60 49.46875 60 50.898438 60 C 51.761719 60 52.464844 59.296875 52.464844 58.433594 L 52.464844 51.851562 C 53.632812 51.601562 54.511719 50.5625 54.511719 49.320312 L 54.511719 47.96875 C 54.511719 47.390625 54.039062 46.917969 53.457031 46.917969 Z M 42.757812 41.835938 C 42.855469 41.964844 42.953125 42.097656 43.046875 42.234375 L 43.046875 46.917969 L 40.863281 46.917969 C 40.28125 46.917969 39.8125 47.390625 39.8125 47.96875 L 39.8125 49.320312 C 39.8125 49.496094 39.828125 49.664062 39.859375 49.828125 C 39.765625 49.796875 36.917969 48.847656 36.460938 48.695312 L 33.597656 42.96875 L 36.5625 37.777344 L 36.875 37.867188 C 39.234375 38.539062 41.320312 39.949219 42.757812 41.835938 Z M 45.855469 55.007812 L 45.117188 55.007812 C 44.707031 55.007812 44.375 54.675781 44.375 54.265625 L 44.375 52.648438 C 44.375 52.242188 44.707031 51.910156 45.117188 51.910156 L 45.855469 51.910156 Z M 38.332031 51.171875 L 42.617188 52.601562 C 42.617188 52.644531 42.617188 52.277344 42.617188 58.242188 L 38.332031 58.242188 Z M 15.894531 15.683594 L 17.160156 15.964844 L 17.160156 18.09375 C 17.160156 18.972656 16.90625 19.8125 16.433594 20.527344 Z M 17.105469 22.46875 C 18.277344 21.300781 18.917969 19.746094 18.917969 18.09375 L 18.917969 16.355469 L 25.9375 17.914062 C 26.0625 17.941406 26.195312 17.941406 26.320312 17.914062 L 33.339844 16.355469 L 33.339844 18.09375 C 33.339844 19.746094 33.984375 21.300781 35.152344 22.46875 L 35.5625 22.878906 L 35.296875 25.265625 C 35.113281 26.925781 34.210938 28.410156 32.820312 29.335938 L 31.546875 30.1875 C 30.84375 30.652344 30.363281 31.367188 30.183594 32.167969 C 28.898438 32.707031 27.539062 32.976562 26.128906 32.976562 C 24.71875 32.976562 23.359375 32.707031 22.078125 32.167969 C 21.894531 31.367188 21.414062 30.652344 20.710938 30.1875 L 19.4375 29.335938 C 18.046875 28.410156 17.144531 26.925781 16.960938 25.265625 L 16.695312 22.878906 Z M 36.363281 15.683594 L 35.824219 20.527344 C 35.351562 19.8125 35.097656 18.972656 35.097656 18.09375 L 35.097656 15.964844 Z M 22.15625 35.582031 L 22.15625 34.078125 C 23.429688 34.515625 24.757812 34.734375 26.128906 34.734375 C 27.5 34.734375 28.832031 34.515625 30.105469 34.078125 L 30.105469 35.582031 C 30.105469 35.984375 30.375 36.328125 30.753906 36.429688 L 27.535156 37.238281 C 27.285156 37.296875 27.074219 37.464844 26.960938 37.695312 L 26.128906 39.359375 L 25.296875 37.695312 C 25.183594 37.464844 24.972656 37.296875 24.726562 37.238281 L 21.503906 36.429688 C 21.890625 36.328125 22.15625 35.980469 22.15625 35.582031 Z M 38.867188 23.730469 C 38.546875 28.234375 35.84375 32.230469 31.863281 34.234375 C 31.863281 32.699219 31.859375 32.898438 31.863281 32.800781 C 31.890625 32.335938 32.128906 31.910156 32.519531 31.648438 L 33.796875 30.800781 C 35.617188 29.582031 36.804688 27.636719 37.046875 25.460938 L 38.175781 15.28125 L 39.453125 14.996094 C 39.457031 15.902344 39.417969 15.875 38.867188 23.730469 Z M 26.128906 1.757812 C 30.851562 1.757812 35.214844 4.308594 37.589844 8.285156 L 26.707031 3.578125 C 26.484375 3.480469 26.230469 3.480469 26.003906 3.578125 L 22.792969 4.984375 C 22.347656 5.179688 22.144531 5.695312 22.339844 6.140625 C 22.535156 6.585938 23.054688 6.789062 23.5 6.59375 L 26.359375 5.34375 L 39.8125 11.164062 L 39.8125 13.117188 C 37.117188 13.714844 28.871094 15.546875 26.128906 16.15625 C 23.472656 15.566406 15.085938 13.703125 12.449219 13.117188 L 12.449219 11.429688 L 19.636719 8.285156 C 20.082031 8.089844 20.285156 7.570312 20.089844 7.125 C 19.898438 6.679688 19.378906 6.480469 18.933594 6.671875 L 14.46875 8.625 C 16.789062 4.445312 21.238281 1.757812 26.128906 1.757812 Z M 13.386719 23.730469 C 12.835938 15.816406 12.800781 15.902344 12.804688 14.996094 L 14.082031 15.28125 L 15.214844 25.460938 C 15.457031 27.636719 16.640625 29.582031 18.464844 30.800781 L 19.738281 31.648438 C 20.109375 31.894531 20.363281 32.296875 20.394531 32.824219 C 20.398438 32.871094 20.398438 32.882812 20.398438 34.234375 C 16.414062 32.230469 13.710938 28.234375 13.386719 23.730469 Z M 7.246094 48.527344 C 7.246094 46.089844 8.027344 43.777344 9.503906 41.835938 C 10.9375 39.949219 13.023438 38.539062 15.382812 37.867188 L 15.695312 37.777344 L 18.660156 42.96875 L 15.800781 48.695312 C 15.234375 48.882812 7.496094 51.464844 7.246094 51.546875 Z M 7.832031 53.203125 L 13.925781 51.171875 L 13.925781 58.242188 L 7.832031 58.242188 Z M 15.683594 50.746094 L 20.121094 52.648438 C 20.566406 52.839844 21.082031 52.632812 21.273438 52.1875 C 21.464844 51.738281 21.257812 51.222656 20.8125 51.03125 L 17.339844 49.542969 L 20.445312 43.335938 C 20.574219 43.074219 20.566406 42.761719 20.421875 42.507812 L 17.734375 37.804688 C 18.941406 37.460938 18.445312 37.601562 18.570312 37.566406 C 18.617188 37.550781 18.6875 37.539062 18.753906 37.554688 L 23.90625 38.84375 L 25.34375 41.71875 C 25.492188 42.015625 25.796875 42.203125 26.128906 42.203125 C 26.460938 42.203125 26.765625 42.015625 26.914062 41.71875 L 28.351562 38.84375 C 30.445312 38.320312 32.113281 37.902344 33.503906 37.554688 C 33.570312 37.539062 33.640625 37.550781 33.6875 37.566406 C 33.714844 37.574219 33.835938 37.605469 34.523438 37.804688 L 31.835938 42.507812 C 31.691406 42.761719 31.683594 43.074219 31.816406 43.335938 L 34.917969 49.542969 L 26.128906 53.3125 L 24.589844 52.652344 C 24.140625 52.460938 23.625 52.667969 23.433594 53.113281 C 23.242188 53.558594 23.449219 54.074219 23.894531 54.265625 L 25.78125 55.074219 C 26.003906 55.171875 26.253906 55.171875 26.476562 55.074219 L 36.574219 50.746094 L 36.574219 58.242188 L 27.007812 58.242188 L 27.007812 57.503906 C 27.007812 57.015625 26.613281 56.625 26.128906 56.625 C 25.644531 56.625 25.25 57.015625 25.25 57.503906 L 25.25 58.242188 L 15.683594 58.242188 Z M 44.375 56.652344 C 44.609375 56.726562 44.859375 56.765625 45.117188 56.765625 L 45.855469 56.765625 L 45.855469 58.242188 L 44.375 58.242188 Z M 50.707031 58.242188 L 47.613281 58.242188 L 47.613281 55.144531 L 49.207031 55.144531 C 49.691406 55.144531 50.085938 54.753906 50.085938 54.265625 C 50.085938 53.78125 49.691406 53.386719 49.207031 53.386719 L 47.613281 53.386719 L 47.613281 51.910156 L 50.707031 51.910156 Z M 52.753906 49.320312 C 52.753906 49.78125 52.378906 50.152344 51.921875 50.152344 L 42.402344 50.152344 C 41.941406 50.152344 41.570312 49.78125 41.570312 49.320312 L 41.570312 48.675781 L 52.753906 48.675781 Z M 52.753906 49.320312 "/>
</g>
</svg>
