<?xml version="1.0" encoding="UTF-8"?>
<svg xmlns="http://www.w3.org/2000/svg" xmlns:xlink="http://www.w3.org/1999/xlink" width="60pt" height="60pt" viewBox="0 0 60 60" version="1.1">
<g id="surface1">
<path style=" stroke:none;fill-rule:nonzero;fill:rgb(99.607843%,33.72549%,58.039216%);fill-opacity:1;" d="M 49.976562 7.207031 C 50.214844 7.625 48.660156 11.816406 45.867188 13.429688 C 43.078125 15.039062 40.792969 14.636719 39.871094 13.042969 C 38.953125 11.445312 39.746094 9.265625 42.535156 7.65625 C 45.324219 6.042969 49.734375 6.789062 49.976562 7.207031 Z M 49.976562 7.207031 "/>
<path style=" stroke:none;fill-rule:nonzero;fill:rgb(99.607843%,46.27451%,65.882353%);fill-opacity:1;" d="M 10.023438 7.207031 C 9.785156 7.625 11.339844 11.816406 14.132812 13.429688 C 16.921875 15.039062 19.207031 14.636719 20.128906 13.042969 C 21.046875 11.445312 20.253906 9.265625 17.464844 7.65625 C 14.675781 6.042969 10.265625 6.789062 10.023438 7.207031 Z M 10.023438 7.207031 "/>
<path style=" stroke:none;fill-rule:nonzero;fill:rgb(99.215686%,20.784314%,50.588235%);fill-opacity:1;" d="M 40.003906 13.378906 C 39.683594 13.378906 39.371094 13.199219 39.21875 12.890625 C 39 12.457031 39.175781 11.929688 39.609375 11.710938 L 44.605469 9.214844 C 45.039062 8.996094 45.570312 9.171875 45.785156 9.609375 C 46.003906 10.042969 45.828125 10.570312 45.390625 10.785156 L 40.398438 13.285156 C 40.269531 13.347656 40.136719 13.378906 40.003906 13.378906 Z M 40.003906 13.378906 "/>
<path style=" stroke:none;fill-rule:nonzero;fill:rgb(99.607843%,33.72549%,58.039216%);fill-opacity:1;" d="M 20.910156 13.835938 C 20.777344 13.835938 20.644531 13.804688 20.515625 13.742188 L 14.609375 10.785156 C 14.171875 10.570312 13.996094 10.042969 14.214844 9.609375 C 14.433594 9.171875 14.960938 8.996094 15.394531 9.214844 L 21.304688 12.167969 C 21.738281 12.386719 21.914062 12.914062 21.695312 13.347656 C 21.542969 13.65625 21.230469 13.835938 20.910156 13.835938 Z M 20.910156 13.835938 "/>
<path style=" stroke:none;fill-rule:nonzero;fill:rgb(3.137255%,66.27451%,94.509804%);fill-opacity:1;" d="M 59.878906 36.667969 L 48.246094 36.667969 C 46.21875 36.667969 44.296875 37.566406 42.996094 39.125 L 39.125 43.773438 L 42.488281 52.742188 L 45 51.667969 L 50.523438 51.667969 C 53.195312 51.667969 55.570312 49.957031 56.414062 47.421875 L 56.613281 46.824219 C 56.640625 46.746094 56.582031 46.667969 56.5 46.667969 L 52.191406 46.667969 C 54.863281 46.667969 57.238281 44.957031 58.082031 42.421875 L 58.28125 41.824219 C 58.304688 41.746094 58.25 41.667969 58.164062 41.667969 L 53.902344 41.667969 C 56.578125 41.667969 58.949219 39.957031 59.796875 37.421875 L 59.992188 36.824219 C 60.019531 36.746094 59.960938 36.667969 59.878906 36.667969 Z M 59.878906 36.667969 "/>
<path style=" stroke:none;fill-rule:nonzero;fill:rgb(0.392157%,75.294118%,98.039216%);fill-opacity:1;" d="M 0.0078125 36.824219 C -0.0195312 36.746094 0.0390625 36.667969 0.121094 36.667969 L 11.753906 36.667969 C 13.78125 36.667969 15.703125 37.566406 17.003906 39.125 L 20.875 43.773438 L 17.511719 52.742188 L 15 51.667969 L 9.476562 51.667969 C 6.804688 51.667969 4.429688 49.957031 3.585938 47.421875 L 3.386719 46.824219 C 3.359375 46.746094 3.417969 46.667969 3.5 46.667969 L 7.808594 46.667969 C 5.136719 46.667969 2.761719 44.957031 1.917969 42.421875 L 1.71875 41.824219 C 1.695312 41.746094 1.75 41.667969 1.835938 41.667969 L 6.097656 41.667969 C 3.421875 41.667969 1.050781 39.957031 0.203125 37.421875 Z M 0.0078125 36.824219 "/>
<path style=" stroke:none;fill-rule:nonzero;fill:rgb(94.901961%,98.431373%,100%);fill-opacity:1;" d="M 40.460938 39.699219 C 39.824219 39.382812 39.636719 38.5625 40.074219 38 L 41.800781 35.78125 C 43.894531 33.085938 45.222656 29.878906 45.644531 26.496094 C 46.296875 21.289062 44.761719 16.046875 41.398438 12.015625 L 39.167969 9.335938 C 37.757812 7.644531 35.671875 6.667969 33.46875 6.667969 L 26.53125 6.667969 C 24.328125 6.667969 22.242188 7.644531 20.832031 9.335938 L 18.601562 12.015625 C 15.242188 16.046875 13.703125 21.289062 14.355469 26.496094 C 14.777344 29.878906 16.105469 33.085938 18.199219 35.78125 L 19.628906 37.617188 C 19.914062 37.984375 20.007812 38.472656 19.875 38.921875 C 19.742188 39.371094 19.402344 39.730469 18.960938 39.882812 C 14.796875 41.339844 11.976562 45.273438 11.976562 49.726562 L 11.976562 59.878906 C 11.976562 59.945312 12.03125 60 12.097656 60 L 47.902344 60 C 47.96875 60 48.023438 59.945312 48.023438 59.878906 L 48.023438 49.726562 C 48.023438 45.070312 44.9375 40.980469 40.460938 39.699219 Z M 40.460938 39.699219 "/>
<path style=" stroke:none;fill-rule:nonzero;fill:rgb(87.45098%,96.470588%,99.215686%);fill-opacity:1;" d="M 40.460938 39.699219 C 39.824219 39.382812 39.636719 38.5625 40.074219 38 L 41.800781 35.78125 C 43.894531 33.085938 45.222656 29.878906 45.644531 26.496094 C 46.296875 21.289062 44.761719 16.046875 41.402344 12.015625 L 39.167969 9.335938 C 37.90625 7.820312 36.09375 6.875 34.144531 6.699219 C 34.210938 6.769531 34.277344 6.847656 34.339844 6.921875 L 36.570312 9.597656 C 39.929688 13.628906 41.46875 18.875 40.816406 24.082031 C 40.394531 27.464844 39.066406 30.671875 36.972656 33.367188 C 35.722656 34.972656 36.167969 37.3125 37.925781 38.339844 C 40.386719 39.777344 43.195312 42.375 43.195312 47.3125 L 43.195312 50.886719 C 43.195312 54.585938 40.195312 57.585938 36.5 57.585938 L 11.976562 57.585938 L 11.976562 59.878906 C 11.976562 59.945312 12.03125 60 12.097656 60 L 47.902344 60 C 47.96875 60 48.023438 59.945312 48.023438 59.878906 L 48.023438 49.726562 C 48.023438 45.070312 44.9375 40.980469 40.460938 39.699219 Z M 40.460938 39.699219 "/>
<path style=" stroke:none;fill-rule:nonzero;fill:rgb(99.607843%,46.27451%,65.882353%);fill-opacity:1;" d="M 38.753906 31.203125 C 37.964844 33.261719 36.882812 35.449219 35.75 37.507812 C 33.027344 42.449219 26.972656 42.449219 24.25 37.503906 C 23.117188 35.449219 22.035156 33.265625 21.246094 31.207031 C 20.488281 29.222656 39.511719 29.222656 38.753906 31.203125 Z M 38.753906 31.203125 "/>
<path style=" stroke:none;fill-rule:nonzero;fill:rgb(100%,80.784314%,74.901961%);fill-opacity:1;" d="M 35.75 37.507812 C 35.53125 37.105469 35.40625 36.652344 35.40625 36.171875 L 35.40625 32.976562 C 33.867188 34.035156 32 34.652344 30 34.652344 C 28 34.652344 26.132812 34.035156 24.59375 32.976562 L 24.59375 36.171875 C 24.59375 36.652344 24.46875 37.105469 24.25 37.507812 C 26.972656 42.449219 30 46.667969 30 46.667969 C 30 46.667969 33.027344 42.449219 35.75 37.507812 Z M 35.75 37.507812 "/>
<path style=" stroke:none;fill-rule:nonzero;fill:rgb(100%,93.333333%,90.196078%);fill-opacity:1;" d="M 35 16.246094 C 33.527344 15.425781 31.820312 15 30 15 C 28.179688 15 26.472656 15.425781 25 16.246094 L 20.097656 24.117188 C 20.03125 24.679688 20 25.253906 20 25.832031 C 20 27.359375 20.488281 29.222656 21.246094 31.207031 C 23.277344 33.832031 26.453125 35.503906 30 35.503906 C 33.546875 35.503906 36.722656 33.828125 38.753906 31.203125 C 39.511719 29.222656 40 27.355469 40 25.832031 C 40 25.253906 39.96875 24.679688 39.902344 24.117188 Z M 35 16.246094 "/>
<path style=" stroke:none;fill-rule:nonzero;fill:rgb(100%,87.45098%,81.176471%);fill-opacity:1;" d="M 39.902344 24.117188 L 35 16.246094 C 33.574219 15.453125 31.929688 15.027344 30.171875 15 L 30.171875 15.773438 C 30.171875 17.90625 31.375 19.855469 33.28125 20.808594 L 33.695312 21.015625 C 34.597656 21.464844 35.171875 22.390625 35.171875 23.402344 L 35.171875 23.417969 C 35.171875 24.730469 34.808594 26.292969 34.226562 27.964844 C 34.019531 28.558594 33.695312 29.105469 33.265625 29.566406 C 31.242188 31.738281 28.355469 33.089844 25.171875 33.089844 C 24.355469 33.089844 23.558594 33 22.789062 32.832031 C 24.730469 34.503906 27.253906 35.503906 30 35.503906 C 33.546875 35.503906 36.722656 33.828125 38.753906 31.207031 C 39.511719 29.222656 40 27.355469 40 25.832031 C 40 25.253906 39.96875 24.679688 39.902344 24.117188 Z M 39.902344 24.117188 "/>
<path style=" stroke:none;fill-rule:nonzero;fill:rgb(100%,87.45098%,81.176471%);fill-opacity:1;" d="M 30 31.003906 C 28.460938 31.003906 26.921875 30.417969 25.753906 29.246094 C 25.410156 28.90625 25.410156 28.347656 25.753906 28.003906 C 26.097656 27.660156 26.652344 27.660156 26.996094 28.003906 C 28.652344 29.660156 31.347656 29.660156 33.003906 28.003906 C 33.347656 27.660156 33.902344 27.660156 34.246094 28.003906 C 34.589844 28.347656 34.589844 28.90625 34.246094 29.246094 C 33.078125 30.417969 31.539062 31.003906 30 31.003906 Z M 29.246094 27.351562 L 28.96875 27.351562 C 28.484375 27.351562 28.089844 26.957031 28.089844 26.472656 C 28.089844 25.988281 28.484375 25.59375 28.96875 25.59375 L 29.246094 25.59375 C 29.746094 25.59375 30.152344 25.1875 30.152344 24.691406 L 30.152344 22.351562 C 30.152344 21.867188 30.542969 21.472656 31.03125 21.472656 C 31.515625 21.472656 31.910156 21.867188 31.910156 22.351562 L 31.910156 24.691406 C 31.910156 26.15625 30.714844 27.351562 29.246094 27.351562 Z M 29.246094 27.351562 "/>
<path style=" stroke:none;fill-rule:nonzero;fill:rgb(100%,80.784314%,74.901961%);fill-opacity:1;" d="M 34.222656 27.980469 C 34.222656 27.984375 34.21875 27.984375 34.21875 27.988281 C 34.011719 28.574219 33.6875 29.113281 33.261719 29.570312 C 32.917969 29.941406 32.546875 30.289062 32.152344 30.609375 C 32.917969 30.316406 33.632812 29.863281 34.246094 29.246094 C 34.597656 28.894531 34.589844 28.320312 34.222656 27.980469 Z M 34.222656 27.980469 "/>
<path style=" stroke:none;fill-rule:nonzero;fill:rgb(99.607843%,94.117647%,68.235294%);fill-opacity:1;" d="M 32.382812 8.332031 C 30.953125 9.332031 29.046875 9.332031 27.617188 8.332031 L 28.640625 1.179688 C 28.738281 0.503906 29.316406 0 30 0 C 30.683594 0 31.261719 0.503906 31.359375 1.179688 Z M 32.382812 8.332031 "/>
<path style=" stroke:none;fill-rule:nonzero;fill:rgb(100%,78.431373%,86.666667%);fill-opacity:1;" d="M 23.332031 60 C 23.332031 55.398438 26.316406 51.667969 30 51.667969 C 33.683594 51.667969 36.667969 55.398438 36.667969 60 Z M 23.332031 60 "/>
<path style=" stroke:none;fill-rule:nonzero;fill:rgb(99.607843%,1.176471%,39.215686%);fill-opacity:1;" d="M 38.109375 23.222656 L 39.902344 24.117188 C 39.507812 20.804688 37.941406 17.890625 35 16.246094 L 35 18.1875 C 35 20.320312 36.203125 22.269531 38.109375 23.222656 Z M 38.109375 23.222656 "/>
<path style=" stroke:none;fill-rule:nonzero;fill:rgb(99.607843%,1.176471%,39.215686%);fill-opacity:1;" d="M 25 18.1875 L 25 16.246094 C 22.054688 17.890625 20.492188 20.808594 20.097656 24.117188 L 21.890625 23.222656 C 23.796875 22.269531 25 20.320312 25 18.1875 Z M 25 18.1875 "/>
<path style=" stroke:none;fill-rule:nonzero;fill:rgb(99.607843%,46.27451%,65.882353%);fill-opacity:1;" d="M 31.160156 21.667969 L 28.839844 21.667969 C 26.71875 21.667969 25 19.949219 25 17.828125 L 25 15.503906 C 25 13.386719 26.71875 11.667969 28.839844 11.667969 L 31.160156 11.667969 C 33.28125 11.667969 35 13.386719 35 15.503906 L 35 17.828125 C 35 19.949219 33.28125 21.667969 31.160156 21.667969 Z M 31.160156 21.667969 "/>
<path style=" stroke:none;fill-rule:nonzero;fill:rgb(3.137255%,66.27451%,94.509804%);fill-opacity:1;" d="M 8.335938 46.667969 L 7.769531 46.667969 C 7.785156 46.667969 7.796875 46.667969 7.808594 46.667969 L 3.5 46.667969 C 3.417969 46.667969 3.359375 46.746094 3.386719 46.824219 L 3.585938 47.421875 C 3.703125 47.769531 3.847656 48.105469 4.019531 48.425781 L 8.335938 48.425781 C 8.820312 48.425781 9.214844 48.03125 9.214844 47.546875 C 9.214844 47.058594 8.820312 46.667969 8.335938 46.667969 Z M 8.335938 46.667969 "/>
<path style=" stroke:none;fill-rule:nonzero;fill:rgb(3.137255%,66.27451%,94.509804%);fill-opacity:1;" d="M 10.878906 42.546875 C 10.878906 42.058594 10.484375 41.667969 10 41.667969 L 1.835938 41.667969 C 1.75 41.667969 1.695312 41.746094 1.71875 41.824219 L 1.917969 42.421875 C 2.035156 42.773438 2.179688 43.105469 2.355469 43.425781 L 10 43.425781 C 10.484375 43.425781 10.878906 43.03125 10.878906 42.546875 Z M 10.878906 42.546875 "/>
<path style=" stroke:none;fill-rule:nonzero;fill:rgb(0.784314%,56.470588%,81.176471%);fill-opacity:1;" d="M 51.664062 46.667969 L 52.230469 46.667969 C 52.214844 46.667969 52.203125 46.667969 52.191406 46.667969 L 56.5 46.667969 C 56.582031 46.667969 56.640625 46.746094 56.613281 46.824219 L 56.414062 47.421875 C 56.296875 47.769531 56.152344 48.105469 55.980469 48.425781 L 51.664062 48.425781 C 51.179688 48.425781 50.785156 48.03125 50.785156 47.546875 C 50.785156 47.058594 51.179688 46.667969 51.664062 46.667969 Z M 51.664062 46.667969 "/>
<path style=" stroke:none;fill-rule:nonzero;fill:rgb(0.784314%,56.470588%,81.176471%);fill-opacity:1;" d="M 49.121094 42.546875 C 49.121094 42.058594 49.515625 41.667969 50 41.667969 L 58.164062 41.667969 C 58.25 41.667969 58.304688 41.746094 58.28125 41.824219 L 58.082031 42.421875 C 57.964844 42.773438 57.820312 43.105469 57.644531 43.425781 L 50 43.425781 C 49.515625 43.425781 49.121094 43.03125 49.121094 42.546875 Z M 49.121094 42.546875 "/>
<path style=" stroke:none;fill-rule:nonzero;fill:rgb(78.431373%,93.72549%,99.607843%);fill-opacity:1;" d="M 40.460938 39.699219 C 39.871094 39.40625 39.667969 38.679688 39.988281 38.125 L 39.179688 39.167969 C 39.632812 39.507812 40.082031 39.890625 40.503906 40.328125 L 40.890625 39.832031 C 40.746094 39.785156 40.605469 39.742188 40.460938 39.699219 Z M 40.460938 39.699219 "/>
<path style=" stroke:none;fill-rule:nonzero;fill:rgb(87.45098%,96.470588%,99.215686%);fill-opacity:1;" d="M 19.875 38.921875 C 19.757812 39.320312 19.476562 39.648438 19.105469 39.824219 L 21.792969 43.28125 C 21.96875 43.503906 22.226562 43.621094 22.488281 43.621094 C 22.675781 43.621094 22.867188 43.5625 23.027344 43.4375 C 23.410156 43.136719 23.480469 42.585938 23.183594 42.203125 L 19.726562 37.757812 C 19.933594 38.105469 19.992188 38.527344 19.875 38.921875 Z M 19.875 38.921875 "/>
<path style=" stroke:none;fill-rule:nonzero;fill:rgb(87.45098%,96.470588%,99.215686%);fill-opacity:1;" d="M 36.972656 43.4375 C 37.132812 43.5625 37.324219 43.621094 37.511719 43.621094 C 37.773438 43.621094 38.03125 43.503906 38.207031 43.28125 L 40.890625 39.832031 C 40.746094 39.785156 40.605469 39.742188 40.460938 39.699219 C 39.871094 39.40625 39.667969 38.679688 39.988281 38.125 L 36.816406 42.203125 C 36.519531 42.585938 36.589844 43.136719 36.972656 43.4375 Z M 36.972656 43.4375 "/>
<path style=" stroke:none;fill-rule:nonzero;fill:rgb(99.607843%,33.72549%,58.039216%);fill-opacity:1;" d="M 28.332031 17.546875 C 27.847656 17.546875 27.453125 17.152344 27.453125 16.667969 L 27.453125 15 C 27.453125 14.515625 27.847656 14.121094 28.332031 14.121094 C 28.820312 14.121094 29.210938 14.515625 29.210938 15 L 29.210938 16.667969 C 29.210938 17.152344 28.820312 17.546875 28.332031 17.546875 Z M 28.332031 17.546875 "/>
<path style=" stroke:none;fill-rule:nonzero;fill:rgb(99.607843%,33.72549%,58.039216%);fill-opacity:1;" d="M 31.667969 17.546875 C 31.179688 17.546875 30.789062 17.152344 30.789062 16.667969 L 30.789062 15 C 30.789062 14.515625 31.179688 14.121094 31.667969 14.121094 C 32.152344 14.121094 32.546875 14.515625 32.546875 15 L 32.546875 16.667969 C 32.546875 17.152344 32.152344 17.546875 31.667969 17.546875 Z M 31.667969 17.546875 "/>
<path style=" stroke:none;fill-rule:nonzero;fill:rgb(100%,96.078431%,77.647059%);fill-opacity:1;" d="M 31.605469 3.78125 C 31.535156 3.78125 31.464844 3.773438 31.390625 3.753906 L 28.292969 2.980469 C 27.820312 2.863281 27.535156 2.386719 27.652344 1.914062 C 27.769531 1.445312 28.25 1.15625 28.71875 1.273438 L 31.816406 2.050781 C 32.289062 2.167969 32.574219 2.644531 32.457031 3.117188 C 32.359375 3.515625 32 3.78125 31.605469 3.78125 Z M 31.605469 3.78125 "/>
<path style=" stroke:none;fill-rule:nonzero;fill:rgb(100%,96.078431%,77.647059%);fill-opacity:1;" d="M 32.097656 7.238281 C 32.027344 7.238281 31.957031 7.230469 31.886719 7.210938 L 27.832031 6.199219 C 27.363281 6.082031 27.074219 5.605469 27.195312 5.132812 C 27.3125 4.660156 27.789062 4.375 28.257812 4.492188 L 32.3125 5.507812 C 32.78125 5.625 33.070312 6.101562 32.953125 6.570312 C 32.851562 6.972656 32.492188 7.238281 32.097656 7.238281 Z M 32.097656 7.238281 "/>
<path style=" stroke:none;fill-rule:nonzero;fill:rgb(87.45098%,96.470588%,99.215686%);fill-opacity:1;" d="M 20.878906 53.332031 C 20.878906 52.847656 20.484375 52.453125 20 52.453125 C 19.515625 52.453125 19.121094 52.847656 19.121094 53.332031 L 19.121094 60 L 20.878906 60 Z M 20.878906 53.332031 "/>
<path style=" stroke:none;fill-rule:nonzero;fill:rgb(87.45098%,96.470588%,99.215686%);fill-opacity:1;" d="M 39.121094 60 L 40.878906 60 L 40.878906 53.332031 C 40.878906 52.847656 40.484375 52.453125 40 52.453125 C 39.515625 52.453125 39.121094 52.847656 39.121094 53.332031 Z M 39.121094 60 "/>
<path style=" stroke:none;fill-rule:nonzero;fill:rgb(78.431373%,93.72549%,99.607843%);fill-opacity:1;" d="M 19.121094 57.585938 L 20.878906 57.585938 L 20.878906 60 L 19.121094 60 Z M 19.121094 57.585938 "/>
<path style=" stroke:none;fill-rule:nonzero;fill:rgb(78.431373%,93.72549%,99.607843%);fill-opacity:1;" d="M 40.878906 55.953125 C 40.355469 56.40625 39.765625 56.777344 39.121094 57.050781 L 39.121094 60 L 40.878906 60 Z M 40.878906 55.953125 "/>
</g>
</svg>
