<?xml version="1.0" encoding="UTF-8"?>
<svg xmlns="http://www.w3.org/2000/svg" xmlns:xlink="http://www.w3.org/1999/xlink" width="60pt" height="60pt" viewBox="0 0 60 60" version="1.1">
<g id="surface1">
<path style=" stroke:none;fill-rule:nonzero;fill:rgb(82.745098%,16.862745%,22.352941%);fill-opacity:1;" d="M 34.6875 40.3125 L 49.546875 48.914062 C 51.410156 49.996094 52.679688 51.871094 52.984375 54.003906 L 53.4375 57.1875 L 6.5625 57.1875 L 7.015625 54.003906 C 7.320312 51.871094 8.589844 49.996094 10.453125 48.914062 L 25.3125 40.3125 Z M 34.6875 40.3125 "/>
<path style=" stroke:none;fill-rule:nonzero;fill:rgb(74.901961%,15.294118%,20.392157%);fill-opacity:1;" d="M 29.0625 57.1875 L 29.0625 45.9375 C 29.0625 45.417969 29.480469 45 30 45 C 30.519531 45 30.9375 45.417969 30.9375 45.9375 L 30.9375 57.1875 Z M 29.0625 57.1875 "/>
<path style=" stroke:none;fill-rule:nonzero;fill:rgb(32.54902%,19.607843%,13.333333%);fill-opacity:1;" d="M 30.9375 29.996094 C 30.9375 34.65625 27.160156 38.433594 22.5 38.433594 C 17.839844 38.433594 14.0625 34.65625 14.0625 29.996094 C 14.0625 25.335938 17.839844 21.558594 22.5 21.558594 C 27.160156 21.558594 30.9375 25.335938 30.9375 29.996094 Z M 30.9375 29.996094 "/>
<path style=" stroke:none;fill-rule:nonzero;fill:rgb(99.215686%,78.823529%,65.098039%);fill-opacity:1;" d="M 25.253906 34.6875 L 25.253906 40.3125 L 24.316406 43.125 L 30 45.9375 L 35.566406 43.125 L 34.628906 40.3125 L 34.628906 34.6875 Z M 25.253906 34.6875 "/>
<path style=" stroke:none;fill-rule:nonzero;fill:rgb(90.196078%,68.627451%,53.72549%);fill-opacity:1;" d="M 34.628906 34.6875 L 34.628906 37.609375 C 33.347656 38.746094 31.691406 39.375 29.976562 39.371094 L 29.96875 39.371094 C 28.226562 39.371094 26.542969 38.71875 25.253906 37.542969 L 25.253906 34.6875 Z M 34.628906 34.6875 "/>
<path style=" stroke:none;fill-rule:nonzero;fill:rgb(32.54902%,19.607843%,13.333333%);fill-opacity:1;" d="M 41.25 21.5625 L 41.25 14.78125 C 41.25 14.304688 41.1875 13.828125 41.066406 13.367188 L 41.015625 13.179688 C 40.539062 11.390625 39.195312 9.960938 37.441406 9.375 C 36.332031 7.082031 34.007812 5.625 31.460938 5.625 L 30.714844 5.625 C 26.199219 5.625 22.007812 7.984375 19.664062 11.847656 C 18.414062 13.910156 17.765625 16.277344 17.792969 18.683594 L 17.8125 22.5 L 30 21.5625 Z M 41.25 21.5625 "/>
<path style=" stroke:none;fill-rule:nonzero;fill:rgb(99.215686%,78.823529%,65.098039%);fill-opacity:1;" d="M 29.976562 37.5 L 29.972656 37.5 C 27.644531 37.496094 25.46875 36.339844 24.167969 34.40625 C 21.820312 30.925781 20.566406 26.820312 20.566406 22.621094 C 20.566406 20.988281 20.566406 19.6875 20.566406 19.6875 L 23.226562 19.027344 C 26.300781 18.265625 28.824219 16.066406 30 13.125 L 30.007812 13.144531 C 31.179688 16.078125 33.6875 18.269531 36.75 19.039062 L 39.316406 19.6875 L 39.316406 22.730469 C 39.316406 26.859375 38.105469 30.902344 35.828125 34.347656 L 35.828125 34.351562 C 34.53125 36.316406 32.332031 37.5 29.976562 37.5 Z M 29.976562 37.5 "/>
<path style=" stroke:none;fill-rule:nonzero;fill:rgb(32.54902%,19.607843%,13.333333%);fill-opacity:1;" d="M 35.566406 22.5 C 35.414062 22.5 35.269531 22.464844 35.136719 22.394531 L 33.320312 21.457031 C 33.019531 21.304688 32.820312 21.003906 32.804688 20.667969 C 32.789062 20.332031 32.953125 20.011719 33.238281 19.828125 C 33.523438 19.648438 33.882812 19.632812 34.179688 19.792969 L 35.996094 20.730469 C 36.378906 20.929688 36.578125 21.363281 36.476562 21.785156 C 36.375 22.203125 35.996094 22.5 35.566406 22.5 Z M 35.566406 22.5 "/>
<path style=" stroke:none;fill-rule:nonzero;fill:rgb(32.54902%,19.607843%,13.333333%);fill-opacity:1;" d="M 35.214844 23.671875 C 35.214844 24.382812 34.636719 24.960938 33.925781 24.960938 C 33.214844 24.960938 32.636719 24.382812 32.636719 23.671875 C 32.636719 22.960938 33.214844 22.382812 33.925781 22.382812 C 34.636719 22.382812 35.214844 22.960938 35.214844 23.671875 Z M 35.214844 23.671875 "/>
<path style=" stroke:none;fill-rule:nonzero;fill:rgb(32.54902%,19.607843%,13.333333%);fill-opacity:1;" d="M 24.375 22.5 C 23.941406 22.5 23.5625 22.203125 23.460938 21.777344 C 23.363281 21.355469 23.566406 20.917969 23.957031 20.722656 L 25.832031 19.785156 C 26.128906 19.632812 26.488281 19.652344 26.769531 19.835938 C 27.050781 20.023438 27.214844 20.34375 27.191406 20.679688 C 27.171875 21.015625 26.972656 21.316406 26.667969 21.464844 L 24.792969 22.402344 C 24.664062 22.464844 24.519531 22.5 24.375 22.5 Z M 24.375 22.5 "/>
<path style=" stroke:none;fill-rule:nonzero;fill:rgb(32.54902%,19.607843%,13.333333%);fill-opacity:1;" d="M 27.246094 23.671875 C 27.246094 24.382812 26.667969 24.960938 25.957031 24.960938 C 25.246094 24.960938 24.667969 24.382812 24.667969 23.671875 C 24.667969 22.960938 25.246094 22.382812 25.957031 22.382812 C 26.667969 22.382812 27.246094 22.960938 27.246094 23.671875 Z M 27.246094 23.671875 "/>
<path style=" stroke:none;fill-rule:nonzero;fill:rgb(90.196078%,68.627451%,53.72549%);fill-opacity:1;" d="M 29.71875 32.8125 L 29.0625 32.8125 C 28.542969 32.8125 28.125 32.394531 28.125 31.875 C 28.125 31.355469 28.542969 30.9375 29.0625 30.9375 L 29.71875 30.9375 C 30.289062 30.9375 30.839844 30.738281 31.277344 30.375 C 31.675781 30.058594 32.257812 30.117188 32.585938 30.511719 C 32.910156 30.90625 32.859375 31.488281 32.472656 31.820312 C 31.699219 32.460938 30.726562 32.8125 29.71875 32.8125 Z M 29.71875 32.8125 "/>
<path style=" stroke:none;fill-rule:nonzero;fill:rgb(90.196078%,68.627451%,53.72549%);fill-opacity:1;" d="M 30.9375 29.0625 L 29.0625 29.0625 C 28.542969 29.0625 28.125 28.644531 28.125 28.125 L 28.125 26.25 C 28.125 25.730469 28.542969 25.3125 29.0625 25.3125 C 29.582031 25.3125 30 25.730469 30 26.25 L 30 27.1875 L 30.9375 27.1875 C 31.457031 27.1875 31.875 27.605469 31.875 28.125 C 31.875 28.644531 31.457031 29.0625 30.9375 29.0625 Z M 30.9375 29.0625 "/>
<path style=" stroke:none;fill-rule:nonzero;fill:rgb(74.901961%,15.294118%,20.392157%);fill-opacity:1;" d="M 11.25 57.1875 L 11.25 53.4375 C 11.25 52.917969 11.667969 52.5 12.1875 52.5 C 12.707031 52.5 13.125 52.917969 13.125 53.4375 L 13.125 57.1875 Z M 11.25 57.1875 "/>
<path style=" stroke:none;fill-rule:nonzero;fill:rgb(74.901961%,15.294118%,20.392157%);fill-opacity:1;" d="M 46.875 57.1875 L 46.875 53.4375 C 46.875 52.917969 47.292969 52.5 47.8125 52.5 C 48.332031 52.5 48.75 52.917969 48.75 53.4375 L 48.75 57.1875 Z M 46.875 57.1875 "/>
<path style=" stroke:none;fill-rule:nonzero;fill:rgb(99.215686%,78.823529%,65.098039%);fill-opacity:1;" d="M 20.566406 20.625 L 19.269531 20.625 C 17.914062 20.625 16.816406 21.722656 16.816406 23.078125 L 16.816406 24.734375 C 16.816406 25.113281 16.90625 25.488281 17.074219 25.832031 C 17.492188 26.660156 18.339844 27.1875 19.269531 27.1875 L 21.5625 27.1875 Z M 20.566406 20.625 "/>
<path style=" stroke:none;fill-rule:nonzero;fill:rgb(99.215686%,78.823529%,65.098039%);fill-opacity:1;" d="M 39.316406 20.625 L 40.613281 20.625 C 41.96875 20.625 43.066406 21.722656 43.066406 23.078125 L 43.066406 24.734375 C 43.066406 25.113281 42.976562 25.488281 42.808594 25.832031 C 42.390625 26.664062 41.542969 27.1875 40.613281 27.1875 L 38.4375 27.1875 Z M 39.316406 20.625 "/>
<path style=" stroke:none;fill-rule:nonzero;fill:rgb(91.764706%,91.764706%,90.980392%);fill-opacity:1;" d="M 30 45 L 25.3125 39.375 L 21.5625 42.1875 L 22.664062 46.035156 C 23.121094 47.644531 24.589844 48.75 26.257812 48.75 C 28.324219 48.75 30 47.074219 30 45.007812 Z M 30 45 "/>
<path style=" stroke:none;fill-rule:nonzero;fill:rgb(91.764706%,91.764706%,90.980392%);fill-opacity:1;" d="M 30 45 L 34.6875 39.375 L 38.4375 42.1875 L 37.335938 46.035156 C 36.878906 47.644531 35.410156 48.75 33.742188 48.75 C 31.675781 48.75 30 47.074219 30 45.007812 Z M 30 45 "/>
<path style=" stroke:none;fill-rule:nonzero;fill:rgb(32.54902%,19.607843%,13.333333%);fill-opacity:1;" d="M 21.25 34.554688 C 17.226562 33.691406 13.148438 36.796875 12.148438 41.488281 C 11.144531 46.175781 13.59375 50.675781 17.621094 51.535156 C 21.648438 52.394531 25.722656 49.292969 26.726562 44.601562 C 27.726562 39.914062 25.277344 35.414062 21.25 34.554688 Z M 21.25 34.554688 "/>
</g>
</svg>
