<?xml version="1.0" encoding="UTF-8"?>
<svg xmlns="http://www.w3.org/2000/svg" xmlns:xlink="http://www.w3.org/1999/xlink" width="60pt" height="60pt" viewBox="0 0 60 60" version="1.1">
<g id="surface1">
<path style=" stroke:none;fill-rule:nonzero;fill:rgb(36.078431%,61.960784%,62.745098%);fill-opacity:1;" d="M 57.125 47.6875 C 55.027344 40.585938 44.496094 41.375 39.953125 39.335938 C 35.410156 37.296875 36.117188 30.453125 35.542969 29.261719 L 24.457031 29.261719 C 23.882812 30.453125 24.589844 37.296875 20.046875 39.335938 C 15.5 41.375 4.972656 40.585938 2.875 47.6875 C 1.71875 51.605469 1.773438 52.804688 1.453125 57.144531 C 1.453125 57.144531 15.902344 60 29.671875 60 C 43.445312 60 58.546875 57.144531 58.546875 57.144531 C 58.226562 52.804688 58.28125 51.605469 57.125 47.6875 Z M 57.125 47.6875 "/>
<path style=" stroke:none;fill-rule:nonzero;fill:rgb(26.666667%,56.862745%,60.784314%);fill-opacity:1;" d="M 57.125 47.6875 C 55.027344 40.585938 44.496094 41.375 39.953125 39.335938 C 35.410156 37.296875 36.117188 30.453125 35.542969 29.261719 L 29.671875 29.261719 C 29.671875 29.261719 29.535156 38.859375 34.082031 40.898438 C 38.625 42.941406 49.15625 42.152344 51.25 49.253906 C 52.351562 52.984375 52.355469 54.25 52.628906 58.109375 C 56.246094 57.578125 58.542969 57.144531 58.542969 57.144531 C 58.226562 52.804688 58.28125 51.605469 57.125 47.6875 Z M 57.125 47.6875 "/>
<path style=" stroke:none;fill-rule:nonzero;fill:rgb(26.666667%,56.862745%,60.784314%);fill-opacity:1;" d="M 11.402344 58.703125 C 16.601562 59.371094 23.210938 60 29.671875 60 C 36.277344 60 43.191406 59.34375 48.59375 58.660156 L 48.59375 54.359375 C 48.59375 54.359375 37.898438 55.964844 29.648438 55.964844 C 21.394531 55.964844 11.40625 54.359375 11.40625 54.359375 L 11.40625 58.703125 Z M 11.402344 58.703125 "/>
<path style=" stroke:none;fill-rule:nonzero;fill:rgb(91.764706%,89.803922%,86.27451%);fill-opacity:1;" d="M 35.757812 42.585938 C 37.589844 41.867188 39.097656 40.8125 40.117188 39.535156 L 40.195312 39.4375 C 40.113281 39.402344 40.03125 39.371094 39.953125 39.335938 C 35.410156 37.296875 36.121094 30.453125 35.542969 29.261719 L 24.457031 29.261719 C 23.882812 30.453125 24.589844 37.296875 20.046875 39.335938 C 19.96875 39.371094 19.886719 39.40625 19.804688 39.4375 L 19.882812 39.535156 C 20.902344 40.8125 22.410156 41.867188 24.242188 42.585938 C 25.976562 43.261719 27.96875 43.621094 30 43.621094 C 32.03125 43.621094 34.023438 43.261719 35.757812 42.585938 Z M 35.757812 42.585938 "/>
<path style=" stroke:none;fill-rule:nonzero;fill:rgb(87.843137%,85.882353%,82.745098%);fill-opacity:1;" d="M 39.953125 39.335938 C 39.136719 38.96875 38.488281 38.445312 37.976562 37.828125 C 37.023438 39.023438 35.375 39.976562 33.351562 40.480469 C 33.582031 40.644531 33.824219 40.785156 34.082031 40.898438 C 34.96875 41.296875 36.082031 41.585938 37.316406 41.847656 C 38.453125 41.214844 39.402344 40.429688 40.113281 39.535156 L 40.191406 39.4375 C 40.113281 39.40625 40.03125 39.371094 39.953125 39.335938 Z M 39.953125 39.335938 "/>
<path style=" stroke:none;fill-rule:nonzero;fill:rgb(85.882353%,70.588235%,56.862745%);fill-opacity:1;" d="M 37.976562 37.828125 C 35.625 35.015625 36.015625 30.238281 35.542969 29.261719 L 24.457031 29.261719 C 23.984375 30.238281 24.375 35.015625 22.023438 37.828125 C 23.464844 39.636719 26.496094 40.882812 30 40.882812 C 33.503906 40.882812 36.535156 39.636719 37.976562 37.828125 Z M 37.976562 37.828125 "/>
<path style=" stroke:none;fill-rule:nonzero;fill:rgb(80%,64.313725%,51.372549%);fill-opacity:1;" d="M 33.351562 40.480469 C 35.375 39.976562 37.023438 39.023438 37.976562 37.828125 C 35.625 35.015625 36.015625 30.238281 35.542969 29.261719 L 29.671875 29.261719 C 29.671875 29.261719 29.554688 37.800781 33.351562 40.480469 Z M 33.351562 40.480469 "/>
<path style=" stroke:none;fill-rule:nonzero;fill:rgb(77.647059%,61.960784%,49.803922%);fill-opacity:1;" d="M 22.964844 36.335938 C 24.804688 37.832031 26.960938 39.316406 29.988281 39.746094 C 33.023438 39.316406 35.175781 37.800781 37.015625 36.296875 C 35.484375 33.480469 35.957031 30.121094 35.542969 29.261719 L 24.457031 29.261719 C 24.039062 30.121094 24.503906 33.515625 22.964844 36.335938 Z M 22.964844 36.335938 "/>
<path style=" stroke:none;fill-rule:nonzero;fill:rgb(80%,64.313725%,51.372549%);fill-opacity:1;" d="M 42.273438 26.261719 C 43.464844 26.472656 44.746094 24.875 45.140625 22.6875 C 45.535156 20.5 44.886719 18.554688 43.699219 18.34375 C 42.511719 18.128906 41.226562 19.726562 40.835938 21.914062 C 40.441406 24.101562 41.085938 26.046875 42.273438 26.261719 Z M 42.273438 26.261719 "/>
<path style=" stroke:none;fill-rule:nonzero;fill:rgb(85.882353%,70.588235%,56.862745%);fill-opacity:1;" d="M 14.828125 22.691406 C 15.21875 24.878906 16.503906 26.476562 17.691406 26.261719 C 18.878906 26.046875 19.527344 24.101562 19.132812 21.917969 C 18.738281 19.730469 17.457031 18.128906 16.269531 18.34375 C 15.078125 18.558594 14.433594 20.503906 14.828125 22.691406 Z M 14.828125 22.691406 "/>
<path style=" stroke:none;fill-rule:nonzero;fill:rgb(85.882353%,70.588235%,56.862745%);fill-opacity:1;" d="M 42.070312 8.910156 L 17.914062 8.910156 C 17.914062 8.910156 11.144531 36.488281 29.988281 39.160156 C 48.839844 36.488281 42.070312 8.910156 42.070312 8.910156 Z M 42.070312 8.910156 "/>
<path style=" stroke:none;fill-rule:nonzero;fill:rgb(80%,64.313725%,51.372549%);fill-opacity:1;" d="M 29.988281 39.160156 C 48.839844 36.488281 42.070312 8.910156 42.070312 8.910156 L 39.242188 8.910156 C 40.015625 20.429688 41.085938 26.550781 36.644531 33.222656 C 33.125 38.507812 29.988281 39.160156 29.988281 39.160156 Z M 29.988281 39.160156 "/>
<path style=" stroke:none;fill-rule:nonzero;fill:rgb(80%,64.313725%,51.372549%);fill-opacity:1;" d="M 36.242188 10.390625 L 16.988281 15.683594 C 18.617188 16.335938 21.796875 17.539062 28.601562 17.507812 C 32.390625 17.492188 40.71875 16.335938 42.5625 11.902344 Z M 36.242188 10.390625 "/>
<path style=" stroke:none;fill-rule:nonzero;fill:rgb(22.352941%,23.529412%,23.921569%);fill-opacity:1;" d="M 35.332031 1.03125 C 35.332031 1.03125 31.605469 -0.722656 26.589844 0.347656 C 22.835938 1.148438 16.730469 3.699219 15.355469 9.167969 C 15.355469 9.167969 13.300781 18.097656 16.800781 21.945312 C 16.800781 21.945312 16.628906 18.457031 16.980469 15.679688 C 16.980469 15.679688 21.277344 16.730469 26.207031 16.742188 C 31.445312 16.75 38.433594 15.890625 42.5625 11.902344 C 42.5625 11.902344 43.179688 15.695312 43.179688 21.945312 C 43.179688 21.945312 44.296875 20.230469 44.535156 17.957031 C 45.070312 12.792969 44.015625 5.546875 40.152344 5.785156 C 40.152344 5.785156 38.515625 2.539062 35.332031 1.03125 Z M 35.332031 1.03125 "/>
<path style=" stroke:none;fill-rule:nonzero;fill:rgb(23.137255%,23.137255%,23.137255%);fill-opacity:1;" d="M 43.796875 18.976562 C 38.625 17.164062 31.546875 19.117188 31.546875 19.117188 C 30.875 19.28125 30.421875 19.3125 30.1875 19.316406 C 30.1875 19.316406 30 19.316406 30 19.316406 L 29.8125 19.316406 C 29.578125 19.3125 29.125 19.28125 28.453125 19.117188 C 28.453125 19.117188 21.375 17.164062 16.203125 18.976562 C 16.203125 18.976562 16.046875 19.703125 16.203125 20.695312 C 16.203125 20.695312 16.214844 20.84375 16.382812 20.910156 C 16.382812 20.910156 16.945312 21.085938 17.09375 21.660156 C 17.09375 21.660156 17.417969 22.957031 17.519531 23.554688 C 17.519531 23.554688 17.695312 24.699219 18.324219 25.339844 C 18.324219 25.339844 18.875 26.042969 20.28125 26.355469 C 20.28125 26.355469 22.109375 26.824219 24.386719 26.554688 C 24.386719 26.554688 26.015625 26.355469 26.851562 25.566406 C 26.851562 25.566406 27.773438 24.777344 28.285156 23.246094 C 28.285156 23.246094 28.445312 22.777344 28.789062 21.753906 C 28.789062 21.753906 28.953125 21.058594 29.996094 21.011719 C 31.042969 21.058594 31.207031 21.753906 31.207031 21.753906 C 31.550781 22.777344 31.710938 23.246094 31.710938 23.246094 C 32.222656 24.777344 33.144531 25.566406 33.144531 25.566406 C 33.980469 26.355469 35.609375 26.554688 35.609375 26.554688 C 37.886719 26.824219 39.714844 26.355469 39.714844 26.355469 C 41.121094 26.042969 41.671875 25.339844 41.671875 25.339844 C 42.300781 24.699219 42.476562 23.554688 42.476562 23.554688 C 42.578125 22.957031 42.902344 21.660156 42.902344 21.660156 C 43.050781 21.085938 43.613281 20.910156 43.613281 20.910156 C 43.78125 20.847656 43.792969 20.695312 43.792969 20.695312 C 43.949219 19.703125 43.796875 18.976562 43.796875 18.976562 Z M 27.910156 21.785156 C 27.910156 21.785156 27.308594 24.515625 26.292969 25.257812 C 26.292969 25.257812 25.3125 26.066406 23.390625 26.101562 C 23.390625 26.101562 20.53125 26.226562 19.25 25.269531 C 19.25 25.269531 18.40625 24.671875 18.136719 22.769531 C 18.136719 22.769531 17.773438 20.546875 18.238281 19.914062 C 18.238281 19.914062 18.875 18.855469 20.792969 18.886719 C 20.792969 18.886719 22.425781 18.855469 23.757812 18.988281 C 23.757812 18.988281 25.410156 19.113281 26.875 19.589844 C 26.875 19.585938 28.472656 20.027344 27.910156 21.785156 Z M 41.863281 22.769531 C 41.59375 24.671875 40.75 25.269531 40.75 25.269531 C 39.46875 26.226562 36.605469 26.097656 36.605469 26.097656 C 34.6875 26.066406 33.707031 25.257812 33.707031 25.257812 C 32.691406 24.511719 32.089844 21.785156 32.089844 21.785156 C 31.527344 20.027344 33.125 19.585938 33.125 19.585938 C 34.589844 19.109375 36.238281 18.984375 36.238281 18.984375 C 37.570312 18.851562 39.207031 18.882812 39.207031 18.882812 C 41.125 18.851562 41.757812 19.910156 41.757812 19.910156 C 42.226562 20.546875 41.863281 22.769531 41.863281 22.769531 Z M 41.863281 22.769531 "/>
</g>
</svg>
