<?xml version="1.0" encoding="UTF-8"?>
<svg xmlns="http://www.w3.org/2000/svg" xmlns:xlink="http://www.w3.org/1999/xlink" width="60pt" height="60pt" viewBox="0 0 60 60" version="1.1">
<g id="surface1">
<path style=" stroke:none;fill-rule:nonzero;fill:rgb(71.372549%,49.803922%,37.254902%);fill-opacity:1;" d="M 46.800781 48.796875 L 34.839844 44.515625 L 25.160156 44.515625 L 13.199219 48.796875 C 10.507812 49.761719 8.710938 52.316406 8.710938 55.175781 L 8.710938 57.097656 C 8.710938 58.699219 10.007812 60 11.613281 60 L 48.386719 60 C 49.992188 60 51.289062 58.699219 51.289062 57.097656 L 51.289062 55.175781 C 51.289062 52.316406 49.492188 49.761719 46.800781 48.796875 Z M 46.800781 48.796875 "/>
<path style=" stroke:none;fill-rule:nonzero;fill:rgb(62.745098%,43.137255%,31.372549%);fill-opacity:1;" d="M 25.195312 58.015625 L 29.78125 56.949219 C 29.851562 56.933594 29.925781 56.925781 30 56.925781 C 30.074219 56.925781 30.148438 56.933594 30.21875 56.949219 L 34.804688 58.015625 C 35.285156 58.128906 35.773438 58.183594 36.265625 58.183594 C 38.695312 58.183594 40.882812 56.824219 41.835938 54.71875 C 42.574219 53.097656 43.375 50.652344 43.515625 47.621094 L 34.839844 44.515625 L 25.160156 44.515625 L 16.484375 47.621094 C 16.625 50.652344 17.425781 53.097656 18.164062 54.71875 C 19.117188 56.824219 21.304688 58.183594 23.734375 58.183594 C 24.226562 58.183594 24.714844 58.128906 25.195312 58.015625 Z M 25.195312 58.015625 "/>
<path style=" stroke:none;fill-rule:nonzero;fill:rgb(92.941176%,92.156863%,92.941176%);fill-opacity:1;" d="M 41.574219 45.582031 C 41.527344 44.800781 40.972656 44.113281 40.175781 43.855469 C 37.921875 43.140625 35.570312 42.78125 33.203125 42.78125 L 26.796875 42.78125 C 24.429688 42.78125 22.078125 43.140625 19.824219 43.855469 C 19.027344 44.113281 18.472656 44.800781 18.425781 45.582031 C 18.199219 49.125 19.042969 51.972656 19.925781 53.921875 C 20.714844 55.664062 22.777344 56.589844 24.753906 56.132812 L 29.34375 55.066406 C 29.773438 54.964844 30.226562 54.964844 30.65625 55.066406 L 35.246094 56.132812 C 37.222656 56.589844 39.285156 55.664062 40.074219 53.921875 C 40.957031 51.972656 41.800781 49.125 41.574219 45.582031 Z M 41.574219 45.582031 "/>
<path style=" stroke:none;fill-rule:nonzero;fill:rgb(85.882353%,85.098039%,86.27451%);fill-opacity:1;" d="M 33.203125 42.78125 L 26.796875 42.78125 C 24.9375 42.78125 23.089844 43.011719 21.289062 43.453125 L 21.289062 45.484375 C 21.289062 49.753906 25.199219 53.226562 30 53.226562 C 34.800781 53.226562 38.710938 49.753906 38.710938 45.484375 L 38.710938 43.453125 C 36.910156 43.011719 35.0625 42.78125 33.203125 42.78125 Z M 33.203125 42.78125 "/>
<path style=" stroke:none;fill-rule:nonzero;fill:rgb(89.019608%,66.666667%,45.882353%);fill-opacity:1;" d="M 23.226562 40.644531 L 23.226562 45.484375 C 23.226562 48.691406 26.257812 51.289062 30 51.289062 C 33.742188 51.289062 36.773438 48.691406 36.773438 45.484375 L 36.773438 40.644531 Z M 23.226562 40.644531 "/>
<path style=" stroke:none;fill-rule:nonzero;fill:rgb(82.352941%,60.784314%,43.137255%);fill-opacity:1;" d="M 30 45.484375 C 32.4375 45.484375 34.742188 44.859375 36.773438 43.773438 L 36.773438 40.644531 L 23.226562 40.644531 L 23.226562 43.773438 C 25.257812 44.859375 27.5625 45.484375 30 45.484375 Z M 30 45.484375 "/>
<path style=" stroke:none;fill-rule:nonzero;fill:rgb(85.882353%,85.098039%,86.27451%);fill-opacity:1;" d="M 31.453125 15.484375 L 28.546875 15.484375 C 24.273438 15.484375 20.804688 12.019531 20.804688 7.742188 C 20.804688 3.464844 24.273438 0 28.546875 0 L 31.453125 0 C 35.726562 0 39.195312 3.464844 39.195312 7.742188 C 39.195312 12.019531 35.726562 15.484375 31.453125 15.484375 Z M 31.453125 15.484375 "/>
<path style=" stroke:none;fill-rule:nonzero;fill:rgb(78.823529%,77.647059%,79.215686%);fill-opacity:1;" d="M 45.210938 30 C 47.191406 27.644531 48.386719 24.609375 48.386719 21.289062 C 48.386719 13.808594 42.320312 7.742188 34.839844 7.742188 L 25.160156 7.742188 C 17.679688 7.742188 11.613281 13.808594 11.613281 21.289062 C 11.613281 24.609375 12.808594 27.644531 14.789062 30 Z M 45.210938 30 "/>
<path style=" stroke:none;fill-rule:nonzero;fill:rgb(71.764706%,69.803922%,72.156863%);fill-opacity:1;" d="M 37.257812 30.96875 L 22.742188 30.96875 C 18.734375 30.96875 15.484375 27.71875 15.484375 23.710938 C 15.484375 19.703125 18.734375 16.453125 22.742188 16.453125 L 37.257812 16.453125 C 41.265625 16.453125 44.515625 19.703125 44.515625 23.710938 C 44.515625 27.71875 41.265625 30.96875 37.257812 30.96875 Z M 37.257812 30.96875 "/>
<path style=" stroke:none;fill-rule:nonzero;fill:rgb(96.078431%,72.54902%,49.019608%);fill-opacity:1;" d="M 42.925781 27.097656 C 42.199219 27.097656 41.613281 26.507812 41.613281 25.785156 L 41.613281 22.257812 C 41.613281 20.65625 40.3125 19.355469 38.710938 19.355469 L 21.289062 19.355469 C 19.6875 19.355469 18.386719 20.65625 18.386719 22.257812 L 18.386719 25.785156 C 18.386719 26.507812 17.800781 27.097656 17.074219 27.097656 C 15.808594 27.097656 14.65625 28.007812 14.527344 29.265625 C 14.382812 30.714844 15.515625 31.933594 16.933594 31.933594 L 17.46875 31.933594 C 17.964844 38.429688 23.378906 43.546875 30 43.546875 C 36.621094 43.546875 42.035156 38.429688 42.53125 31.933594 L 43.066406 31.933594 C 44.484375 31.933594 45.617188 30.714844 45.472656 29.265625 C 45.34375 28.007812 44.191406 27.097656 42.925781 27.097656 Z M 42.925781 27.097656 "/>
<path style=" stroke:none;fill-rule:nonzero;fill:rgb(89.019608%,66.666667%,45.882353%);fill-opacity:1;" d="M 38.710938 19.355469 L 21.289062 19.355469 C 19.6875 19.355469 18.386719 20.65625 18.386719 22.257812 L 18.386719 25.78125 C 18.386719 26.519531 17.785156 27.089844 17.050781 27.097656 C 15.792969 27.109375 14.652344 28.015625 14.527344 29.265625 C 14.382812 30.714844 15.515625 31.933594 16.933594 31.933594 L 17.46875 31.933594 C 17.964844 38.429688 23.378906 43.546875 30 43.546875 C 30.660156 43.546875 31.308594 43.484375 31.941406 43.386719 C 25.910156 42.453125 21.289062 37.257812 21.289062 30.96875 L 21.289062 25.160156 C 21.289062 23.023438 23.023438 21.289062 25.160156 21.289062 L 36.773438 21.289062 C 37.84375 21.289062 38.710938 20.421875 38.710938 19.355469 Z M 38.710938 19.355469 "/>
<path style=" stroke:none;fill-rule:nonzero;fill:rgb(71.372549%,49.803922%,37.254902%);fill-opacity:1;" d="M 30 37.742188 C 28.550781 37.742188 27.210938 37.277344 26.417969 36.496094 C 26.039062 36.121094 26.035156 35.507812 26.410156 35.128906 C 26.785156 34.746094 27.398438 34.742188 27.777344 35.117188 C 28.097656 35.4375 28.875 35.804688 30 35.804688 C 31.125 35.804688 31.902344 35.4375 32.222656 35.117188 C 32.605469 34.742188 33.21875 34.746094 33.59375 35.128906 C 33.96875 35.507812 33.964844 36.121094 33.582031 36.496094 C 32.792969 37.277344 31.453125 37.742188 30 37.742188 Z M 30 37.742188 "/>
<path style=" stroke:none;fill-rule:nonzero;fill:rgb(85.882353%,85.098039%,86.27451%);fill-opacity:1;" d="M 32.871094 29.671875 C 32.714844 29.671875 32.550781 29.632812 32.402344 29.550781 C 31.230469 28.898438 28.824219 28.890625 27.625 29.535156 C 27.152344 29.789062 26.566406 29.609375 26.3125 29.140625 C 26.058594 28.667969 26.238281 28.082031 26.707031 27.828125 C 27.585938 27.355469 28.757812 27.097656 30 27.097656 C 31.269531 27.097656 32.457031 27.367188 33.34375 27.855469 C 33.808594 28.117188 33.980469 28.703125 33.71875 29.171875 C 33.542969 29.492188 33.210938 29.671875 32.871094 29.671875 Z M 32.871094 29.671875 "/>
<path style=" stroke:none;fill-rule:nonzero;fill:rgb(85.882353%,85.098039%,86.27451%);fill-opacity:1;" d="M 24.195312 28.066406 L 17.417969 28.066406 C 16.882812 28.066406 16.453125 27.632812 16.453125 27.097656 C 16.453125 26.5625 16.882812 26.128906 17.417969 26.128906 L 24.195312 26.128906 C 24.730469 26.128906 25.160156 26.5625 25.160156 27.097656 C 25.160156 27.632812 24.726562 28.066406 24.195312 28.066406 Z M 24.195312 28.066406 "/>
<path style=" stroke:none;fill-rule:nonzero;fill:rgb(85.882353%,85.098039%,86.27451%);fill-opacity:1;" d="M 42.582031 28.066406 L 35.804688 28.066406 C 35.273438 28.066406 34.839844 27.632812 34.839844 27.097656 C 34.839844 26.5625 35.273438 26.128906 35.804688 26.128906 L 42.582031 26.128906 C 43.117188 26.128906 43.546875 26.5625 43.546875 27.097656 C 43.546875 27.632812 43.117188 28.066406 42.582031 28.066406 Z M 42.582031 28.066406 "/>
<path style=" stroke:none;fill-rule:nonzero;fill:rgb(100%,100%,100%);fill-opacity:1;" d="M 36.289062 32.902344 L 35.324219 32.902344 C 33.457031 32.902344 31.933594 31.382812 31.933594 29.515625 C 31.933594 27.648438 33.457031 26.128906 35.324219 26.128906 L 36.289062 26.128906 C 38.15625 26.128906 39.675781 27.648438 39.675781 29.515625 C 39.675781 31.382812 38.15625 32.902344 36.289062 32.902344 Z M 36.289062 32.902344 "/>
<path style=" stroke:none;fill-rule:nonzero;fill:rgb(89.019608%,66.666667%,45.882353%);fill-opacity:1;" d="M 35.324219 28.066406 C 34.523438 28.066406 33.871094 28.714844 33.871094 29.515625 C 33.871094 30.316406 34.523438 30.96875 35.324219 30.96875 L 36.289062 30.96875 C 37.089844 30.96875 37.742188 30.316406 37.742188 29.515625 C 37.742188 28.714844 37.089844 28.066406 36.289062 28.066406 Z M 35.324219 28.066406 "/>
<path style=" stroke:none;fill-rule:nonzero;fill:rgb(39.215686%,31.372549%,35.294118%);fill-opacity:1;" d="M 36.289062 28.066406 L 35.324219 28.066406 C 35.152344 28.066406 34.992188 28.097656 34.839844 28.152344 L 34.839844 29.03125 C 34.839844 29.566406 35.273438 30 35.804688 30 C 36.339844 30 36.773438 29.566406 36.773438 29.03125 L 36.773438 28.152344 C 36.621094 28.097656 36.460938 28.066406 36.289062 28.066406 Z M 36.289062 28.066406 "/>
<path style=" stroke:none;fill-rule:nonzero;fill:rgb(62.745098%,43.137255%,31.372549%);fill-opacity:1;" d="M 15.742188 55.289062 L 10.421875 50.695312 C 9.988281 51.1875 9.625 51.734375 9.351562 52.328125 L 14.476562 56.753906 C 15.117188 57.308594 15.484375 58.109375 15.484375 58.953125 L 15.484375 60 L 17.417969 60 L 17.417969 58.953125 C 17.417969 57.546875 16.808594 56.210938 15.742188 55.289062 Z M 15.742188 55.289062 "/>
<path style=" stroke:none;fill-rule:nonzero;fill:rgb(62.745098%,43.137255%,31.372549%);fill-opacity:1;" d="M 44.257812 55.289062 L 49.578125 50.695312 C 50.011719 51.1875 50.375 51.734375 50.648438 52.328125 L 45.523438 56.753906 C 44.882812 57.308594 44.515625 58.109375 44.515625 58.953125 L 44.515625 60 L 42.582031 60 L 42.582031 58.953125 C 42.582031 57.546875 43.191406 56.210938 44.257812 55.289062 Z M 44.257812 55.289062 "/>
<path style=" stroke:none;fill-rule:nonzero;fill:rgb(100%,100%,100%);fill-opacity:1;" d="M 24.675781 32.902344 L 23.710938 32.902344 C 21.84375 32.902344 20.324219 31.382812 20.324219 29.515625 C 20.324219 27.648438 21.84375 26.128906 23.710938 26.128906 L 24.675781 26.128906 C 26.542969 26.128906 28.066406 27.648438 28.066406 29.515625 C 28.066406 31.382812 26.542969 32.902344 24.675781 32.902344 Z M 24.675781 32.902344 "/>
<path style=" stroke:none;fill-rule:nonzero;fill:rgb(89.019608%,66.666667%,45.882353%);fill-opacity:1;" d="M 23.710938 28.066406 C 22.910156 28.066406 22.257812 28.714844 22.257812 29.515625 C 22.257812 30.316406 22.910156 30.96875 23.710938 30.96875 L 24.675781 30.96875 C 25.476562 30.96875 26.128906 30.316406 26.128906 29.515625 C 26.128906 28.714844 25.476562 28.066406 24.675781 28.066406 Z M 23.710938 28.066406 "/>
<path style=" stroke:none;fill-rule:nonzero;fill:rgb(39.215686%,31.372549%,35.294118%);fill-opacity:1;" d="M 24.675781 28.066406 L 23.710938 28.066406 C 23.539062 28.066406 23.378906 28.097656 23.226562 28.152344 L 23.226562 29.03125 C 23.226562 29.566406 23.660156 30 24.195312 30 C 24.726562 30 25.160156 29.566406 25.160156 29.03125 L 25.160156 28.152344 C 25.007812 28.097656 24.847656 28.066406 24.675781 28.066406 Z M 24.675781 28.066406 "/>
</g>
</svg>
