<?xml version="1.0" encoding="UTF-8"?>
<svg xmlns="http://www.w3.org/2000/svg" xmlns:xlink="http://www.w3.org/1999/xlink" width="60pt" height="60pt" viewBox="0 0 60 60" version="1.1">
<g id="surface1">
<path style=" stroke:none;fill-rule:nonzero;fill:rgb(96.862745%,82.352941%,56.862745%);fill-opacity:1;" d="M 49.058594 42.324219 L 38.859375 39.324219 C 37.621094 38.960938 36.773438 37.824219 36.773438 36.539062 L 36.773438 31.933594 L 23.226562 31.933594 L 23.226562 36.539062 C 23.226562 37.824219 22.378906 38.960938 21.140625 39.324219 L 10.941406 42.324219 C 8.472656 43.050781 6.773438 45.316406 6.773438 47.894531 L 6.773438 55.160156 C 6.773438 56.765625 8.074219 60 9.675781 60 L 50.324219 60 C 51.925781 60 53.226562 56.765625 53.226562 55.160156 L 53.226562 47.894531 C 53.226562 45.316406 51.527344 43.050781 49.058594 42.324219 Z M 49.058594 42.324219 "/>
<path style=" stroke:none;fill-rule:nonzero;fill:rgb(80.392157%,56.862745%,43.137255%);fill-opacity:1;" d="M 49.058594 42.324219 L 38.859375 39.324219 C 38.6875 39.273438 39.832031 39.757812 39.675781 39.675781 L 30 42.582031 L 20.324219 39.675781 C 20.167969 39.757812 21.3125 39.273438 21.140625 39.324219 L 10.941406 42.324219 C 8.472656 43.050781 6.773438 45.316406 6.773438 47.894531 L 6.773438 57.097656 C 6.773438 58.699219 8.074219 60 9.675781 60 L 50.324219 60 C 51.925781 60 53.226562 58.699219 53.226562 57.097656 L 53.226562 47.894531 C 53.226562 45.316406 51.527344 43.050781 49.058594 42.324219 Z M 49.058594 42.324219 "/>
<path style=" stroke:none;fill-rule:nonzero;fill:rgb(92.941176%,92.156863%,92.941176%);fill-opacity:1;" d="M 39.34375 41.28125 L 38.191406 40.125 L 30 41.613281 L 21.808594 40.125 L 20.65625 41.28125 C 19.203125 42.734375 18.386719 44.703125 18.386719 46.753906 L 18.386719 60 L 41.613281 60 L 41.613281 46.753906 C 41.613281 44.703125 40.796875 42.734375 39.34375 41.28125 Z M 39.34375 41.28125 "/>
<path style=" stroke:none;fill-rule:nonzero;fill:rgb(85.882353%,85.098039%,86.27451%);fill-opacity:1;" d="M 39.34375 41.28125 L 38.191406 40.125 L 30 41.613281 L 21.808594 40.125 L 20.65625 41.28125 C 20.179688 41.753906 19.78125 42.289062 19.449219 42.859375 L 23.023438 46.949219 C 23.574219 47.578125 24.371094 47.9375 25.207031 47.9375 C 25.984375 47.9375 26.714844 47.636719 27.261719 47.089844 L 30 44.351562 L 32.738281 47.089844 C 33.289062 47.636719 34.015625 47.9375 34.792969 47.9375 C 35.628906 47.9375 36.425781 47.578125 36.976562 46.949219 L 40.550781 42.859375 C 40.21875 42.289062 39.820312 41.757812 39.34375 41.28125 Z M 39.34375 41.28125 "/>
<path style=" stroke:none;fill-rule:nonzero;fill:rgb(89.019608%,66.666667%,45.882353%);fill-opacity:1;" d="M 28.601562 46.453125 L 27.097656 60 L 32.902344 60 L 31.398438 46.453125 Z M 28.601562 46.453125 "/>
<path style=" stroke:none;fill-rule:nonzero;fill:rgb(82.352941%,60.784314%,43.137255%);fill-opacity:1;" d="M 31.238281 47.417969 L 28.761719 47.417969 C 28.34375 47.417969 27.976562 47.152344 27.84375 46.757812 L 26.128906 41.613281 L 33.871094 41.613281 L 32.15625 46.757812 C 32.023438 47.152344 31.65625 47.417969 31.238281 47.417969 Z M 31.238281 47.417969 "/>
<path style=" stroke:none;fill-rule:nonzero;fill:rgb(94.117647%,76.470588%,50.980392%);fill-opacity:1;" d="M 23.226562 34.09375 C 25.257812 35.179688 27.566406 35.804688 30 35.804688 C 32.433594 35.804688 34.742188 35.179688 36.773438 34.09375 L 36.773438 31.9375 L 23.226562 31.9375 Z M 23.226562 34.09375 "/>
<path style=" stroke:none;fill-rule:nonzero;fill:rgb(71.764706%,69.803922%,72.156863%);fill-opacity:1;" d="M 10.203125 20.058594 L 12.351562 22.917969 C 12.511719 23.132812 12.582031 23.402344 12.53125 23.667969 C 12.472656 23.976562 12.363281 24.324219 12.242188 24.660156 C 11.90625 25.585938 12.339844 26.605469 13.222656 27.042969 C 14.730469 27.78125 17.210938 28.75 20.324219 29.03125 L 20.324219 4.839844 C 13.089844 7.25 10.527344 15.667969 9.867188 18.453125 C 9.734375 19.011719 9.859375 19.597656 10.203125 20.058594 Z M 10.203125 20.058594 "/>
<path style=" stroke:none;fill-rule:nonzero;fill:rgb(71.764706%,69.803922%,72.156863%);fill-opacity:1;" d="M 49.796875 20.058594 L 47.648438 22.917969 C 47.488281 23.132812 47.417969 23.402344 47.46875 23.667969 C 47.527344 23.976562 47.636719 24.324219 47.757812 24.660156 C 48.09375 25.585938 47.660156 26.605469 46.777344 27.042969 C 45.269531 27.78125 42.789062 28.75 39.675781 29.03125 L 39.675781 4.839844 C 46.910156 7.25 49.472656 15.667969 50.132812 18.453125 C 50.265625 19.011719 50.140625 19.597656 49.796875 20.058594 Z M 49.796875 20.058594 "/>
<path style=" stroke:none;fill-rule:nonzero;fill:rgb(100%,88.235294%,62.745098%);fill-opacity:1;" d="M 43.546875 17.46875 L 43.546875 13.546875 C 43.546875 6.066406 37.484375 0 30 0 C 22.515625 0 16.453125 6.066406 16.453125 13.546875 L 16.453125 17.46875 C 15.347656 17.691406 14.515625 18.667969 14.515625 19.839844 C 14.515625 21.175781 15.597656 22.257812 16.9375 22.257812 L 17.46875 22.257812 C 17.964844 28.753906 23.378906 33.871094 30 33.871094 C 36.621094 33.871094 42.035156 28.753906 42.53125 22.257812 L 43.066406 22.257812 C 44.402344 22.257812 45.484375 21.175781 45.484375 19.839844 C 45.484375 18.667969 44.652344 17.691406 43.546875 17.46875 Z M 43.546875 17.46875 "/>
<path style=" stroke:none;fill-rule:nonzero;fill:rgb(96.862745%,82.352941%,56.862745%);fill-opacity:1;" d="M 22.257812 16.453125 L 27.097656 16.453125 L 27.097656 18.851562 L 22.257812 18.851562 Z M 22.257812 16.453125 "/>
<path style=" stroke:none;fill-rule:nonzero;fill:rgb(96.862745%,82.352941%,56.862745%);fill-opacity:1;" d="M 32.902344 16.453125 L 37.742188 16.453125 L 37.742188 18.851562 L 32.902344 18.851562 Z M 32.902344 16.453125 "/>
<path style=" stroke:none;fill-rule:nonzero;fill:rgb(96.862745%,82.352941%,56.862745%);fill-opacity:1;" d="M 22.257812 21.289062 L 22.257812 12.582031 C 22.257812 6.449219 26.648438 1.347656 32.453125 0.234375 C 31.65625 0.0859375 30.839844 0 30 0 C 22.515625 0 16.453125 6.066406 16.453125 13.546875 L 16.453125 17.46875 C 15.347656 17.691406 14.515625 18.667969 14.515625 19.839844 C 14.515625 21.175781 15.597656 22.257812 16.9375 22.257812 L 17.46875 22.257812 C 17.964844 28.753906 23.378906 33.871094 30 33.871094 C 30.832031 33.871094 31.644531 33.789062 32.433594 33.636719 C 26.636719 32.511719 22.257812 27.414062 22.257812 21.289062 Z M 22.257812 21.289062 "/>
<path style=" stroke:none;fill-rule:nonzero;fill:rgb(43.137255%,35.294118%,39.215686%);fill-opacity:1;" d="M 24.675781 19.355469 C 24.144531 19.355469 23.710938 18.921875 23.710938 18.386719 L 23.710938 17.417969 C 23.710938 16.886719 24.144531 16.453125 24.675781 16.453125 C 25.210938 16.453125 25.644531 16.886719 25.644531 17.417969 L 25.644531 18.386719 C 25.644531 18.921875 25.210938 19.355469 24.675781 19.355469 Z M 24.675781 19.355469 "/>
<path style=" stroke:none;fill-rule:nonzero;fill:rgb(89.019608%,66.666667%,45.882353%);fill-opacity:1;" d="M 30 27.097656 C 28.546875 27.097656 27.207031 26.632812 26.417969 25.851562 C 26.035156 25.472656 26.03125 24.863281 26.40625 24.480469 C 26.785156 24.101562 27.398438 24.097656 27.777344 24.472656 C 28.097656 24.789062 28.875 25.160156 30 25.160156 C 31.125 25.160156 31.902344 24.789062 32.222656 24.472656 C 32.601562 24.097656 33.214844 24.101562 33.59375 24.480469 C 33.96875 24.863281 33.964844 25.472656 33.582031 25.851562 C 32.792969 26.632812 31.453125 27.097656 30 27.097656 Z M 30 27.097656 "/>
<path style=" stroke:none;fill-rule:nonzero;fill:rgb(61.176471%,58.823529%,61.960784%);fill-opacity:1;" d="M 26.128906 14.515625 L 23.226562 14.515625 C 22.691406 14.515625 22.257812 14.082031 22.257812 13.546875 C 22.257812 13.015625 22.691406 12.582031 23.226562 12.582031 L 26.128906 12.582031 C 26.664062 12.582031 27.097656 13.015625 27.097656 13.546875 C 27.097656 14.082031 26.664062 14.515625 26.128906 14.515625 Z M 26.128906 14.515625 "/>
<path style=" stroke:none;fill-rule:nonzero;fill:rgb(43.137255%,35.294118%,39.215686%);fill-opacity:1;" d="M 35.324219 19.355469 C 34.789062 19.355469 34.355469 18.921875 34.355469 18.386719 L 34.355469 17.417969 C 34.355469 16.886719 34.789062 16.453125 35.324219 16.453125 C 35.859375 16.453125 36.289062 16.886719 36.289062 17.417969 L 36.289062 18.386719 C 36.289062 18.921875 35.859375 19.355469 35.324219 19.355469 Z M 35.324219 19.355469 "/>
<path style=" stroke:none;fill-rule:nonzero;fill:rgb(61.176471%,58.823529%,61.960784%);fill-opacity:1;" d="M 36.773438 14.515625 L 33.871094 14.515625 C 33.335938 14.515625 32.902344 14.082031 32.902344 13.546875 C 32.902344 13.015625 33.335938 12.582031 33.871094 12.582031 L 36.773438 12.582031 C 37.308594 12.582031 37.742188 13.015625 37.742188 13.546875 C 37.742188 14.082031 37.308594 14.515625 36.773438 14.515625 Z M 36.773438 14.515625 "/>
<path style=" stroke:none;fill-rule:nonzero;fill:rgb(36.470588%,32.54902%,37.647059%);fill-opacity:1;" d="M 21.289062 18.386719 L 16.453125 18.386719 C 15.917969 18.386719 15.484375 17.953125 15.484375 17.417969 C 15.484375 16.886719 15.917969 16.453125 16.453125 16.453125 L 21.289062 16.453125 C 21.824219 16.453125 22.257812 16.886719 22.257812 17.417969 C 22.257812 17.953125 21.824219 18.386719 21.289062 18.386719 Z M 21.289062 18.386719 "/>
<path style=" stroke:none;fill-rule:nonzero;fill:rgb(36.470588%,32.54902%,37.647059%);fill-opacity:1;" d="M 43.546875 18.386719 L 38.710938 18.386719 C 38.175781 18.386719 37.742188 17.953125 37.742188 17.417969 C 37.742188 16.886719 38.175781 16.453125 38.710938 16.453125 L 43.546875 16.453125 C 44.082031 16.453125 44.515625 16.886719 44.515625 17.417969 C 44.515625 17.953125 44.082031 18.386719 43.546875 18.386719 Z M 43.546875 18.386719 "/>
<path style=" stroke:none;fill-rule:nonzero;fill:rgb(36.470588%,32.54902%,37.647059%);fill-opacity:1;" d="M 31.9375 20.324219 C 31.402344 20.324219 30.96875 19.890625 30.96875 19.355469 C 30.96875 18.820312 30.535156 18.386719 30 18.386719 C 29.464844 18.386719 29.03125 18.820312 29.03125 19.355469 C 29.03125 19.890625 28.597656 20.324219 28.066406 20.324219 C 27.53125 20.324219 27.097656 19.890625 27.097656 19.355469 C 27.097656 17.753906 28.398438 16.453125 30 16.453125 C 31.601562 16.453125 32.902344 17.753906 32.902344 19.355469 C 32.902344 19.890625 32.46875 20.324219 31.9375 20.324219 Z M 31.9375 20.324219 "/>
<path style=" stroke:none;fill-rule:nonzero;fill:rgb(61.176471%,58.823529%,61.960784%);fill-opacity:1;" d="M 30 35.804688 C 28.398438 35.804688 27.097656 34.507812 27.097656 32.902344 L 27.097656 30.96875 C 27.097656 30.433594 27.53125 30 28.066406 30 L 31.9375 30 C 32.46875 30 32.902344 30.433594 32.902344 30.96875 L 32.902344 32.902344 C 32.902344 34.507812 31.605469 35.804688 30 35.804688 Z M 30 35.804688 "/>
<path style=" stroke:none;fill-rule:nonzero;fill:rgb(100%,100%,100%);fill-opacity:1;" d="M 22.578125 37.492188 L 20.03125 40.585938 L 24.480469 45.671875 C 24.847656 46.09375 25.496094 46.117188 25.894531 45.71875 L 30 41.613281 Z M 22.578125 37.492188 "/>
<path style=" stroke:none;fill-rule:nonzero;fill:rgb(100%,100%,100%);fill-opacity:1;" d="M 37.421875 37.492188 L 39.972656 40.585938 L 35.519531 45.671875 C 35.152344 46.09375 34.503906 46.117188 34.109375 45.71875 L 30 41.613281 Z M 37.421875 37.492188 "/>
<path style=" stroke:none;fill-rule:nonzero;fill:rgb(71.372549%,49.803922%,37.254902%);fill-opacity:1;" d="M 13.546875 60 L 11.84375 52.328125 C 11.699219 51.679688 11.898438 51.007812 12.363281 50.539062 L 15.484375 47.417969 L 14.046875 45.265625 C 13.710938 44.757812 13.636719 44.125 13.832031 43.546875 C 16.136719 36.609375 23.226562 34.839844 23.226562 34.839844 L 23.226562 36.707031 C 23.226562 37.988281 22.714844 39.21875 21.808594 40.125 L 20.65625 41.28125 C 19.203125 42.734375 18.386719 44.703125 18.386719 46.753906 L 18.386719 60 "/>
<path style=" stroke:none;fill-rule:nonzero;fill:rgb(71.372549%,49.803922%,37.254902%);fill-opacity:1;" d="M 46.453125 60 L 48.15625 52.328125 C 48.300781 51.679688 48.105469 51.007812 47.636719 50.539062 L 44.515625 47.417969 L 45.953125 45.265625 C 46.289062 44.757812 46.363281 44.125 46.167969 43.546875 C 43.863281 36.609375 36.773438 34.839844 36.773438 34.839844 L 36.773438 36.707031 C 36.773438 37.988281 37.285156 39.21875 38.191406 40.125 L 39.34375 41.28125 C 40.796875 42.734375 41.613281 44.703125 41.613281 46.753906 L 41.613281 60 "/>
<path style=" stroke:none;fill-rule:nonzero;fill:rgb(43.529412%,39.607843%,44.313725%);fill-opacity:1;" d="M 26.128906 22.257812 L 23.226562 22.257812 C 21.625 22.257812 20.324219 20.957031 20.324219 19.355469 L 20.324219 16.453125 C 20.324219 15.917969 20.753906 15.484375 21.289062 15.484375 L 28.066406 15.484375 C 28.601562 15.484375 29.03125 15.917969 29.03125 16.453125 L 29.03125 19.355469 C 29.03125 20.957031 27.730469 22.257812 26.128906 22.257812 Z M 22.257812 17.417969 L 22.257812 19.355469 C 22.257812 19.890625 22.691406 20.324219 23.226562 20.324219 L 26.128906 20.324219 C 26.664062 20.324219 27.097656 19.890625 27.097656 19.355469 L 27.097656 17.417969 Z M 22.257812 17.417969 "/>
<path style=" stroke:none;fill-rule:nonzero;fill:rgb(43.529412%,39.607843%,44.313725%);fill-opacity:1;" d="M 36.773438 22.257812 L 33.871094 22.257812 C 32.269531 22.257812 30.96875 20.957031 30.96875 19.355469 L 30.96875 16.453125 C 30.96875 15.917969 31.402344 15.484375 31.9375 15.484375 L 38.710938 15.484375 C 39.246094 15.484375 39.675781 15.917969 39.675781 16.453125 L 39.675781 19.355469 C 39.675781 20.957031 38.375 22.257812 36.773438 22.257812 Z M 32.902344 17.417969 L 32.902344 19.355469 C 32.902344 19.890625 33.335938 20.324219 33.871094 20.324219 L 36.773438 20.324219 C 37.308594 20.324219 37.742188 19.890625 37.742188 19.355469 L 37.742188 17.417969 Z M 32.902344 17.417969 "/>
</g>
</svg>
