<?xml version="1.0" encoding="UTF-8"?>
<svg xmlns="http://www.w3.org/2000/svg" xmlns:xlink="http://www.w3.org/1999/xlink" width="60pt" height="60pt" viewBox="0 0 60 60" version="1.1">
<g id="surface1">
<path style=" stroke:none;fill-rule:nonzero;fill:rgb(35.294118%,27.45098%,31.372549%);fill-opacity:1;" d="M 41.792969 31.695312 C 41.070312 28.367188 41.613281 24.195312 41.613281 24.195312 L 34.839844 24.195312 L 34.839844 45.484375 L 46.492188 45.484375 C 45.785156 40.28125 42.816406 36.378906 41.792969 31.695312 Z M 41.792969 31.695312 "/>
<path style=" stroke:none;fill-rule:nonzero;fill:rgb(71.372549%,49.803922%,37.254902%);fill-opacity:1;" d="M 48.382812 46.050781 L 38.390625 42.523438 C 36.839844 41.976562 35.804688 40.515625 35.804688 38.875 L 35.804688 32.902344 L 24.195312 32.902344 L 24.195312 38.875 C 24.195312 40.515625 23.160156 41.976562 21.609375 42.523438 L 11.617188 46.050781 C 9.292969 46.871094 7.742188 49.066406 7.742188 51.527344 L 7.742188 57.097656 C 7.742188 58.699219 9.042969 60 10.644531 60 L 49.355469 60 C 50.957031 60 52.257812 58.699219 52.257812 57.097656 L 52.257812 51.527344 C 52.257812 49.066406 50.707031 46.871094 48.382812 46.050781 Z M 48.382812 46.050781 "/>
<path style=" stroke:none;fill-rule:nonzero;fill:rgb(100%,50.196078%,52.941176%);fill-opacity:1;" d="M 38.359375 42.511719 C 38.371094 42.515625 38.378906 42.519531 38.390625 42.523438 L 48.382812 46.050781 C 50.707031 46.871094 52.257812 49.066406 52.257812 51.527344 L 52.257812 57.097656 C 52.257812 58.699219 50.957031 60 49.355469 60 L 18.386719 60 C 31.703125 54.019531 37.035156 45.109375 38.359375 42.511719 Z M 38.359375 42.511719 "/>
<path style=" stroke:none;fill-rule:nonzero;fill:rgb(90.196078%,39.215686%,43.137255%);fill-opacity:1;" d="M 43.074219 44.179688 C 41.238281 49.71875 39.015625 55.621094 36.15625 60 L 33.800781 60 C 37.234375 55.257812 39.859375 47.757812 41.25 43.535156 Z M 43.074219 44.179688 "/>
<path style=" stroke:none;fill-rule:nonzero;fill:rgb(100%,81.960784%,39.215686%);fill-opacity:1;" d="M 21.640625 42.511719 C 21.628906 42.515625 21.621094 42.519531 21.609375 42.523438 L 11.617188 46.050781 C 9.292969 46.871094 7.742188 49.066406 7.742188 51.527344 L 7.742188 57.097656 C 7.742188 58.699219 9.042969 60 10.644531 60 L 41.613281 60 C 28.296875 54.019531 22.964844 45.109375 21.640625 42.511719 Z M 21.640625 42.511719 "/>
<path style=" stroke:none;fill-rule:nonzero;fill:rgb(62.745098%,43.137255%,31.372549%);fill-opacity:1;" d="M 24.195312 36.542969 C 25.976562 37.316406 27.9375 37.742188 30 37.742188 C 32.0625 37.742188 34.023438 37.316406 35.804688 36.542969 L 35.804688 32.902344 L 24.195312 32.902344 Z M 24.195312 36.542969 "/>
<path style=" stroke:none;fill-rule:nonzero;fill:rgb(100%,88.235294%,49.019608%);fill-opacity:1;" d="M 21.289062 30 C 21.289062 32.136719 19.558594 33.871094 17.421875 33.871094 C 15.28125 33.871094 13.550781 32.136719 13.550781 30 C 13.550781 27.863281 15.28125 26.128906 17.421875 26.128906 C 19.558594 26.128906 21.289062 27.863281 21.289062 30 Z M 21.289062 30 "/>
<path style=" stroke:none;fill-rule:nonzero;fill:rgb(100%,81.960784%,39.215686%);fill-opacity:1;" d="M 19.355469 30 C 19.355469 31.070312 18.488281 31.933594 17.421875 31.933594 C 16.351562 31.933594 15.484375 31.070312 15.484375 30 C 15.484375 28.929688 16.351562 28.066406 17.421875 28.066406 C 18.488281 28.066406 19.355469 28.929688 19.355469 30 Z M 19.355469 30 "/>
<path style=" stroke:none;fill-rule:nonzero;fill:rgb(100%,88.235294%,49.019608%);fill-opacity:1;" d="M 46.453125 30 C 46.453125 32.136719 44.71875 33.871094 42.582031 33.871094 C 40.445312 33.871094 38.710938 32.136719 38.710938 30 C 38.710938 27.863281 40.445312 26.128906 42.582031 26.128906 C 44.71875 26.128906 46.453125 27.863281 46.453125 30 Z M 46.453125 30 "/>
<path style=" stroke:none;fill-rule:nonzero;fill:rgb(100%,81.960784%,39.215686%);fill-opacity:1;" d="M 44.515625 30 C 44.515625 31.070312 43.648438 31.933594 42.582031 31.933594 C 41.511719 31.933594 40.644531 31.070312 40.644531 30 C 40.644531 28.929688 41.511719 28.066406 42.582031 28.066406 C 43.648438 28.066406 44.515625 28.929688 44.515625 30 Z M 44.515625 30 "/>
<path style=" stroke:none;fill-rule:nonzero;fill:rgb(35.294118%,27.45098%,31.372549%);fill-opacity:1;" d="M 30 0 C 21.449219 0 14.515625 6.933594 14.515625 15.484375 L 14.515625 22.742188 L 45.484375 22.742188 L 45.484375 15.484375 C 45.484375 6.933594 38.550781 0 30 0 Z M 30 0 "/>
<path style=" stroke:none;fill-rule:nonzero;fill:rgb(80.392157%,56.862745%,43.137255%);fill-opacity:1;" d="M 43.066406 20.324219 C 43.066406 20.324219 41.769531 20.167969 41.371094 20.058594 C 39.171875 19.449219 34.414062 17.546875 30.808594 11.988281 C 30.425781 11.402344 29.574219 11.402344 29.191406 11.988281 C 25.585938 17.546875 20.828125 19.449219 18.628906 20.058594 C 18.230469 20.167969 16.9375 20.324219 16.9375 20.324219 C 15.515625 20.324219 14.382812 21.542969 14.527344 22.992188 C 14.65625 24.25 15.808594 25.160156 17.074219 25.160156 L 17.582031 25.160156 C 18.515625 31.1875 23.710938 35.804688 30 35.804688 C 36.289062 35.804688 41.484375 31.1875 42.417969 25.160156 L 42.925781 25.160156 C 44.191406 25.160156 45.34375 24.25 45.472656 22.992188 C 45.617188 21.542969 44.484375 20.324219 43.066406 20.324219 Z M 43.066406 20.324219 "/>
<path style=" stroke:none;fill-rule:nonzero;fill:rgb(35.294118%,27.45098%,31.372549%);fill-opacity:1;" d="M 24.195312 23.226562 C 23.660156 23.226562 23.226562 22.792969 23.226562 22.257812 L 23.226562 21.289062 C 23.226562 20.757812 23.660156 20.324219 24.195312 20.324219 C 24.726562 20.324219 25.160156 20.757812 25.160156 21.289062 L 25.160156 22.257812 C 25.160156 22.792969 24.726562 23.226562 24.195312 23.226562 Z M 24.195312 23.226562 "/>
<path style=" stroke:none;fill-rule:nonzero;fill:rgb(35.294118%,27.45098%,31.372549%);fill-opacity:1;" d="M 35.804688 23.226562 C 35.269531 23.226562 34.839844 22.792969 34.839844 22.257812 L 34.839844 21.289062 C 34.839844 20.757812 35.273438 20.324219 35.804688 20.324219 C 36.339844 20.324219 36.773438 20.757812 36.773438 21.289062 L 36.773438 22.257812 C 36.773438 22.792969 36.339844 23.226562 35.804688 23.226562 Z M 35.804688 23.226562 "/>
<path style=" stroke:none;fill-rule:nonzero;fill:rgb(100%,100%,100%);fill-opacity:1;" d="M 26.292969 26.609375 C 25.925781 26.609375 25.640625 26.945312 25.714844 27.304688 C 26.082031 29.109375 27.863281 30.480469 30 30.480469 C 32.136719 30.480469 33.917969 29.109375 34.285156 27.304688 C 34.359375 26.945312 34.074219 26.609375 33.707031 26.609375 Z M 26.292969 26.609375 "/>
<path style=" stroke:none;fill-rule:nonzero;fill:rgb(71.372549%,49.803922%,37.254902%);fill-opacity:1;" d="M 41.371094 20.058594 C 39.175781 19.449219 34.421875 17.550781 30.816406 12.003906 C 30.433594 11.410156 29.570312 11.410156 29.183594 12 C 26.695312 15.835938 23.65625 17.925781 21.289062 19.050781 C 20.230469 19.554688 19.308594 19.867188 18.628906 20.058594 C 18.230469 20.167969 16.9375 20.324219 16.9375 20.324219 C 15.515625 20.324219 14.382812 21.542969 14.527344 22.992188 C 14.65625 24.25 15.808594 25.160156 17.074219 25.160156 L 17.582031 25.160156 C 18.515625 31.1875 23.710938 35.804688 30 35.804688 C 30.664062 35.804688 31.3125 35.746094 31.949219 35.644531 C 26.144531 34.753906 21.640625 29.902344 21.308594 23.929688 C 21.285156 23.464844 21.359375 23 21.492188 22.554688 C 21.800781 21.535156 22.480469 20.664062 23.40625 20.136719 C 25.523438 18.9375 27.890625 17.082031 30 14.222656 C 32.523438 17.648438 35.425781 19.632812 37.816406 20.777344 C 39.523438 21.59375 41.53125 21.433594 43.066406 20.324219 C 43.066406 20.324219 41.769531 20.167969 41.371094 20.058594 Z M 41.371094 20.058594 "/>
<path style=" stroke:none;fill-rule:nonzero;fill:rgb(39.215686%,31.372549%,35.294118%);fill-opacity:1;" d="M 32.804688 0.265625 C 32.25 1.683594 31.9375 3.222656 31.9375 4.839844 C 31.9375 11.785156 37.566406 17.417969 44.515625 17.417969 C 44.84375 17.417969 45.164062 17.394531 45.484375 17.371094 L 45.484375 15.484375 C 45.484375 7.890625 40.015625 1.589844 32.804688 0.265625 Z M 32.804688 0.265625 "/>
<path style=" stroke:none;fill-rule:nonzero;fill:rgb(100%,76.470588%,31.372549%);fill-opacity:1;" d="M 16.925781 44.179688 C 18.761719 49.71875 20.984375 55.621094 23.84375 60 L 26.199219 60 C 22.765625 55.257812 20.140625 47.757812 18.75 43.535156 Z M 16.925781 44.179688 "/>
<path style=" stroke:none;fill-rule:nonzero;fill:rgb(100%,76.470588%,31.372549%);fill-opacity:1;" d="M 17.785156 60 L 19.789062 60 C 18.328125 55.03125 16.996094 49.714844 15.761719 44.589844 L 13.929688 45.234375 C 15.113281 50.148438 16.390625 55.207031 17.785156 60 Z M 17.785156 60 "/>
</g>
</svg>
