<?xml version="1.0" encoding="UTF-8"?>
<svg xmlns="http://www.w3.org/2000/svg" xmlns:xlink="http://www.w3.org/1999/xlink" width="60pt" height="60pt" viewBox="0 0 60 60" version="1.1">
<g id="surface1">
<path style=" stroke:none;fill-rule:nonzero;fill:rgb(92.941176%,92.156863%,92.941176%);fill-opacity:1;" d="M 49.058594 43.046875 L 38.859375 40.046875 L 21.140625 40.046875 L 10.941406 43.046875 C 8.472656 43.773438 6.773438 46.042969 6.773438 48.617188 L 6.773438 57.097656 C 6.773438 58.699219 8.074219 60 9.675781 60 L 50.324219 60 C 51.925781 60 53.226562 58.699219 53.226562 57.097656 L 53.226562 48.617188 C 53.226562 46.042969 51.527344 43.773438 49.058594 43.046875 Z M 49.058594 43.046875 "/>
<path style=" stroke:none;fill-rule:nonzero;fill:rgb(64.705882%,80.392157%,100%);fill-opacity:1;" d="M 34.839844 60 L 25.160156 60 L 23.226562 40.644531 L 36.773438 40.644531 Z M 34.839844 60 "/>
<path style=" stroke:none;fill-rule:nonzero;fill:rgb(54.901961%,70.588235%,92.156863%);fill-opacity:1;" d="M 23.226562 40.644531 L 23.515625 43.542969 C 25.109375 45.324219 27.421875 46.453125 30 46.453125 C 32.578125 46.453125 34.890625 45.324219 36.484375 43.542969 L 36.773438 40.644531 Z M 23.226562 40.644531 "/>
<path style=" stroke:none;fill-rule:nonzero;fill:rgb(96.862745%,82.352941%,56.862745%);fill-opacity:1;" d="M 30 44.515625 C 26.257812 44.515625 23.226562 41.484375 23.226562 37.742188 L 23.226562 30.96875 L 36.773438 30.96875 L 36.773438 37.742188 C 36.773438 41.484375 33.742188 44.515625 30 44.515625 Z M 30 44.515625 "/>
<path style=" stroke:none;fill-rule:nonzero;fill:rgb(94.117647%,76.470588%,50.980392%);fill-opacity:1;" d="M 23.226562 35.0625 C 25.257812 36.148438 27.566406 36.773438 30 36.773438 C 32.433594 36.773438 34.742188 36.148438 36.773438 35.0625 L 36.773438 30.96875 L 23.226562 30.96875 Z M 23.226562 35.0625 "/>
<path style=" stroke:none;fill-rule:nonzero;fill:rgb(100%,88.235294%,62.745098%);fill-opacity:1;" d="M 43.066406 18.386719 L 42.582031 18.386719 L 42.582031 8.710938 L 17.417969 8.710938 L 17.417969 18.386719 L 16.933594 18.386719 C 15.605469 18.386719 14.515625 19.476562 14.515625 20.804688 C 14.515625 22.136719 15.605469 23.226562 16.933594 23.226562 L 17.46875 23.226562 C 17.964844 29.71875 23.378906 34.839844 30 34.839844 C 36.621094 34.839844 42.035156 29.71875 42.53125 23.226562 L 43.066406 23.226562 C 44.394531 23.226562 45.484375 22.136719 45.484375 20.804688 C 45.484375 19.476562 44.394531 18.386719 43.066406 18.386719 Z M 43.066406 18.386719 "/>
<path style=" stroke:none;fill-rule:nonzero;fill:rgb(43.137255%,35.294118%,39.215686%);fill-opacity:1;" d="M 24.195312 21.375 C 23.660156 21.375 23.226562 20.941406 23.226562 20.40625 L 23.226562 19.4375 C 23.226562 18.90625 23.660156 18.472656 24.195312 18.472656 C 24.726562 18.472656 25.160156 18.90625 25.160156 19.4375 L 25.160156 20.40625 C 25.160156 20.941406 24.726562 21.375 24.195312 21.375 Z M 24.195312 21.375 "/>
<path style=" stroke:none;fill-rule:nonzero;fill:rgb(43.137255%,35.294118%,39.215686%);fill-opacity:1;" d="M 35.804688 21.375 C 35.269531 21.375 34.839844 20.941406 34.839844 20.40625 L 34.839844 19.4375 C 34.839844 18.90625 35.273438 18.472656 35.804688 18.472656 C 36.339844 18.472656 36.773438 18.90625 36.773438 19.4375 L 36.773438 20.40625 C 36.773438 20.941406 36.339844 21.375 35.804688 21.375 Z M 35.804688 21.375 "/>
<path style=" stroke:none;fill-rule:nonzero;fill:rgb(62.745098%,43.137255%,31.372549%);fill-opacity:1;" d="M 25.160156 17.417969 L 23.226562 17.417969 C 22.691406 17.417969 22.257812 16.984375 22.257812 16.453125 C 22.257812 15.917969 22.691406 15.484375 23.226562 15.484375 L 25.160156 15.484375 C 25.695312 15.484375 26.128906 15.917969 26.128906 16.453125 C 26.128906 16.984375 25.695312 17.417969 25.160156 17.417969 Z M 25.160156 17.417969 "/>
<path style=" stroke:none;fill-rule:nonzero;fill:rgb(62.745098%,43.137255%,31.372549%);fill-opacity:1;" d="M 36.773438 17.417969 L 34.839844 17.417969 C 34.304688 17.417969 33.871094 16.984375 33.871094 16.453125 C 33.871094 15.917969 34.304688 15.484375 34.839844 15.484375 L 36.773438 15.484375 C 37.308594 15.484375 37.742188 15.917969 37.742188 16.453125 C 37.742188 16.984375 37.308594 17.417969 36.773438 17.417969 Z M 36.773438 17.417969 "/>
<path style=" stroke:none;fill-rule:nonzero;fill:rgb(96.862745%,82.352941%,56.862745%);fill-opacity:1;" d="M 17.417969 8.710938 L 17.417969 18.386719 L 17.019531 18.386719 C 15.917969 18.386719 14.890625 19.085938 14.605469 20.148438 C 14.171875 21.757812 15.390625 23.226562 16.933594 23.226562 L 17.46875 23.226562 C 17.964844 29.71875 23.378906 34.839844 30 34.839844 C 30.660156 34.839844 31.308594 34.773438 31.941406 34.675781 C 25.910156 33.746094 21.289062 28.546875 21.289062 22.257812 L 21.289062 16.378906 C 21.289062 14.105469 23.210938 12.257812 25.472656 12.441406 C 26.105469 12.496094 26.773438 12.523438 27.472656 12.523438 C 30.277344 12.523438 33.410156 12.074219 36.785156 11.191406 C 38.257812 10.804688 39.527344 9.90625 40.394531 8.710938 Z M 17.417969 8.710938 "/>
<path style=" stroke:none;fill-rule:nonzero;fill:rgb(62.745098%,43.137255%,31.372549%);fill-opacity:1;" d="M 22.136719 4.839844 L 22.257812 8.710938 C 22.257812 8.710938 19.355469 11.613281 19.355469 15.484375 L 19.355469 16.679688 C 19.355469 17.65625 18.628906 18.476562 17.660156 18.597656 L 15.484375 18.871094 L 15.484375 10.644531 C 15.484375 7.4375 18.507812 4.675781 22.136719 4.839844 Z M 22.136719 4.839844 "/>
<path style=" stroke:none;fill-rule:nonzero;fill:rgb(85.882353%,85.098039%,86.27451%);fill-opacity:1;" d="M 41.59375 45.464844 L 39.675781 43.546875 L 41.730469 40.8125 C 42.171875 40.222656 41.972656 39.375 41.3125 39.042969 L 36.773438 36.773438 L 30 60 L 35.804688 60 L 41.957031 47.699219 C 42.328125 46.953125 42.183594 46.054688 41.59375 45.464844 Z M 41.59375 45.464844 "/>
<path style=" stroke:none;fill-rule:nonzero;fill:rgb(64.705882%,80.392157%,100%);fill-opacity:1;" d="M 48.386719 53.710938 L 46.933594 53.710938 L 46.933594 52.257812 C 46.933594 51.722656 46.503906 51.289062 45.96875 51.289062 C 45.433594 51.289062 45 51.722656 45 52.257812 L 45 53.710938 L 43.546875 53.710938 C 43.011719 53.710938 42.582031 54.140625 42.582031 54.675781 C 42.582031 55.210938 43.011719 55.644531 43.546875 55.644531 L 45 55.644531 L 45 57.097656 C 45 57.632812 45.433594 58.0625 45.96875 58.0625 C 46.503906 58.0625 46.933594 57.632812 46.933594 57.097656 L 46.933594 55.644531 L 48.386719 55.644531 C 48.921875 55.644531 49.355469 55.210938 49.355469 54.675781 C 49.355469 54.140625 48.921875 53.710938 48.386719 53.710938 Z M 48.386719 53.710938 "/>
<path style=" stroke:none;fill-rule:nonzero;fill:rgb(80.392157%,56.862745%,43.137255%);fill-opacity:1;" d="M 37.863281 1.933594 L 37.742188 8.710938 C 37.742188 8.710938 40.644531 11.613281 40.644531 15.484375 L 40.644531 16.679688 C 40.644531 17.65625 41.371094 18.476562 42.339844 18.597656 L 44.515625 18.871094 L 44.515625 7.742188 C 44.515625 4.535156 41.492188 1.773438 37.863281 1.933594 Z M 37.863281 1.933594 "/>
<path style=" stroke:none;fill-rule:nonzero;fill:rgb(89.019608%,66.666667%,45.882353%);fill-opacity:1;" d="M 30 28.066406 C 28.546875 28.066406 27.207031 27.597656 26.417969 26.816406 C 26.035156 26.441406 26.03125 25.828125 26.40625 25.449219 C 26.785156 25.070312 27.398438 25.066406 27.777344 25.441406 C 28.097656 25.757812 28.875 26.128906 30 26.128906 C 31.125 26.128906 31.902344 25.757812 32.222656 25.441406 C 32.601562 25.066406 33.214844 25.070312 33.59375 25.449219 C 33.96875 25.828125 33.964844 26.441406 33.582031 26.816406 C 32.792969 27.597656 31.453125 28.066406 30 28.066406 Z M 30 28.066406 "/>
<path style=" stroke:none;fill-rule:nonzero;fill:rgb(85.882353%,85.098039%,86.27451%);fill-opacity:1;" d="M 18.40625 45.464844 L 20.324219 43.546875 L 18.269531 40.8125 C 17.828125 40.222656 18.027344 39.375 18.6875 39.042969 L 23.226562 36.773438 L 30 60 L 24.195312 60 L 18.042969 47.699219 C 17.671875 46.953125 17.816406 46.054688 18.40625 45.464844 Z M 18.40625 45.464844 "/>
<path style=" stroke:none;fill-rule:nonzero;fill:rgb(71.372549%,49.803922%,37.254902%);fill-opacity:1;" d="M 31.875 0 C 23.800781 0 22.253906 2.453125 16.035156 4.433594 C 15.609375 4.570312 15.417969 5.066406 15.660156 5.441406 C 17.007812 7.554688 22.027344 13.054688 36.292969 9.320312 C 37.964844 8.882812 39.25 7.535156 39.589844 5.839844 C 39.980469 3.878906 38.789062 1.9375 36.996094 1.046875 C 35.570312 0.34375 33.703125 0 31.875 0 Z M 31.875 0 "/>
<path style=" stroke:none;fill-rule:nonzero;fill:rgb(64.705882%,80.392157%,100%);fill-opacity:1;" d="M 20.324219 60 L 12.582031 60 C 12.046875 60 11.613281 59.566406 11.613281 59.03125 L 11.613281 55.160156 C 11.613281 54.625 12.046875 54.195312 12.582031 54.195312 L 20.324219 54.195312 C 20.855469 54.195312 21.289062 54.625 21.289062 55.160156 L 21.289062 59.03125 C 21.289062 59.566406 20.855469 60 20.324219 60 Z M 20.324219 60 "/>
<path style=" stroke:none;fill-rule:nonzero;fill:rgb(100%,100%,100%);fill-opacity:1;" d="M 16.453125 56.128906 C 15.917969 56.128906 15.484375 55.695312 15.484375 55.160156 L 15.484375 52.257812 C 15.484375 51.722656 15.917969 51.289062 16.453125 51.289062 C 16.988281 51.289062 17.417969 51.722656 17.417969 52.257812 L 17.417969 55.160156 C 17.417969 55.695312 16.988281 56.128906 16.453125 56.128906 Z M 16.453125 56.128906 "/>
<path style=" stroke:none;fill-rule:nonzero;fill:rgb(54.901961%,70.588235%,92.156863%);fill-opacity:1;" d="M 20.324219 58.066406 L 12.582031 58.066406 C 12.046875 58.066406 11.613281 57.632812 11.613281 57.097656 L 11.613281 59.03125 C 11.613281 59.566406 12.046875 60 12.582031 60 L 20.324219 60 C 20.855469 60 21.289062 59.566406 21.289062 59.03125 L 21.289062 57.097656 C 21.289062 57.632812 20.855469 58.066406 20.324219 58.066406 Z M 20.324219 58.066406 "/>
</g>
</svg>
