<?xml version="1.0" encoding="UTF-8"?>
<svg xmlns="http://www.w3.org/2000/svg" xmlns:xlink="http://www.w3.org/1999/xlink" width="60pt" height="60pt" viewBox="0 0 60 60" version="1.1">
<g id="surface1">
<path style=" stroke:none;fill-rule:nonzero;fill:rgb(91.764706%,61.568627%,17.647059%);fill-opacity:1;" d="M 34.6875 40.0625 L 51.996094 48.714844 C 54.070312 49.753906 55.5 51.75 55.816406 54.046875 L 56.25 57.1875 L 3.75 57.1875 L 4.183594 54.046875 C 4.5 51.75 5.929688 49.753906 8.003906 48.714844 L 25.3125 40.0625 Z M 34.6875 40.0625 "/>
<path style=" stroke:none;fill-rule:nonzero;fill:rgb(91.764706%,61.568627%,17.647059%);fill-opacity:1;" d="M 8.003906 48.714844 L 9.375 48.03125 L 9.375 57.1875 L 3.75 57.1875 L 4.183594 54.046875 C 4.5 51.75 5.929688 49.753906 8.003906 48.714844 Z M 8.003906 48.714844 "/>
<path style=" stroke:none;fill-rule:nonzero;fill:rgb(91.764706%,61.568627%,17.647059%);fill-opacity:1;" d="M 56.25 57.1875 L 50.625 57.1875 L 50.625 48.03125 L 51.996094 48.714844 C 54.070312 49.753906 55.5 51.75 55.816406 54.046875 Z M 56.25 57.1875 "/>
<path style=" stroke:none;fill-rule:nonzero;fill:rgb(91.764706%,61.568627%,17.647059%);fill-opacity:1;" d="M 41.976562 43.707031 L 30 53.4375 L 18.023438 43.707031 L 22.058594 41.6875 L 25.3125 40.0625 L 34.6875 40.0625 L 38.488281 41.960938 Z M 41.976562 43.707031 "/>
<path style=" stroke:none;fill-rule:nonzero;fill:rgb(96.470588%,73.333333%,57.254902%);fill-opacity:1;" d="M 36.5625 41 L 34.6875 40.0625 L 34.6875 36.3125 L 25.3125 36.3125 L 25.3125 40.0625 L 23.4375 41 L 30 43.8125 Z M 36.5625 41 "/>
<path style=" stroke:none;fill-rule:nonzero;fill:rgb(96.470588%,73.333333%,57.254902%);fill-opacity:1;" d="M 34.6875 36.3125 L 34.6875 37.675781 C 34.679688 37.683594 34.667969 37.6875 34.65625 37.695312 C 31.835938 39.609375 28.128906 39.601562 25.3125 37.675781 L 25.3125 36.3125 Z M 34.6875 36.3125 "/>
<path style=" stroke:none;fill-rule:nonzero;fill:rgb(90.196078%,68.627451%,53.72549%);fill-opacity:1;" d="M 34.6875 36.3125 L 34.6875 37.675781 C 34.679688 37.683594 34.667969 37.6875 34.65625 37.695312 C 31.835938 39.609375 28.128906 39.601562 25.3125 37.675781 L 25.3125 36.3125 Z M 34.6875 36.3125 "/>
<path style=" stroke:none;fill-rule:nonzero;fill:rgb(79.607843%,79.607843%,79.607843%);fill-opacity:1;" d="M 9.375 48.03125 L 9.375 57.1875 L 3.75 57.1875 L 4.183594 54.046875 C 4.5 51.75 5.929688 49.753906 8.003906 48.714844 Z M 9.375 48.03125 "/>
<path style=" stroke:none;fill-rule:nonzero;fill:rgb(79.607843%,79.607843%,79.607843%);fill-opacity:1;" d="M 56.25 57.1875 L 50.625 57.1875 L 50.625 48.03125 L 51.996094 48.714844 C 54.070312 49.753906 55.5 51.75 55.816406 54.046875 Z M 56.25 57.1875 "/>
<path style=" stroke:none;fill-rule:nonzero;fill:rgb(96.470588%,73.333333%,57.254902%);fill-opacity:1;" d="M 30 38.1875 C 26.601562 38.1875 23.546875 36.117188 22.285156 32.964844 C 21.1875 30.222656 20.625 27.292969 20.625 24.339844 L 20.625 16.875 C 20.625 11.699219 24.824219 7.5 30 7.5 C 35.175781 7.5 39.375 11.699219 39.375 16.875 L 39.375 24.339844 C 39.375 27.292969 38.8125 30.222656 37.714844 32.964844 C 36.453125 36.117188 33.398438 38.1875 30 38.1875 Z M 30 38.1875 "/>
<path style=" stroke:none;fill-rule:nonzero;fill:rgb(40.784314%,23.137255%,5.098039%);fill-opacity:1;" d="M 35.625 21.5625 L 32.8125 21.5625 C 32.292969 21.5625 31.875 21.144531 31.875 20.625 C 31.875 20.105469 32.292969 19.6875 32.8125 19.6875 L 35.625 19.6875 C 36.144531 19.6875 36.5625 20.105469 36.5625 20.625 C 36.5625 21.144531 36.144531 21.5625 35.625 21.5625 Z M 35.625 21.5625 "/>
<path style=" stroke:none;fill-rule:nonzero;fill:rgb(40.784314%,23.137255%,5.098039%);fill-opacity:1;" d="M 35.15625 23.421875 C 35.15625 24.066406 34.632812 24.59375 33.984375 24.59375 C 33.335938 24.59375 32.8125 24.066406 32.8125 23.421875 C 32.8125 22.773438 33.335938 22.25 33.984375 22.25 C 34.632812 22.25 35.15625 22.773438 35.15625 23.421875 Z M 35.15625 23.421875 "/>
<path style=" stroke:none;fill-rule:nonzero;fill:rgb(40.784314%,23.137255%,5.098039%);fill-opacity:1;" d="M 27.1875 21.5625 L 24.375 21.5625 C 23.855469 21.5625 23.4375 21.144531 23.4375 20.625 C 23.4375 20.105469 23.855469 19.6875 24.375 19.6875 L 27.1875 19.6875 C 27.707031 19.6875 28.125 20.105469 28.125 20.625 C 28.125 21.144531 27.707031 21.5625 27.1875 21.5625 Z M 27.1875 21.5625 "/>
<path style=" stroke:none;fill-rule:nonzero;fill:rgb(40.784314%,23.137255%,5.098039%);fill-opacity:1;" d="M 27.1875 23.421875 C 27.1875 24.066406 26.664062 24.59375 26.015625 24.59375 C 25.367188 24.59375 24.84375 24.066406 24.84375 23.421875 C 24.84375 22.773438 25.367188 22.25 26.015625 22.25 C 26.664062 22.25 27.1875 22.773438 27.1875 23.421875 Z M 27.1875 23.421875 "/>
<path style=" stroke:none;fill-rule:nonzero;fill:rgb(90.196078%,68.627451%,53.72549%);fill-opacity:1;" d="M 30.9375 29.0625 L 29.0625 29.0625 C 28.542969 29.0625 28.125 28.644531 28.125 28.125 L 28.125 26.5 C 28.125 25.984375 28.542969 25.5625 29.0625 25.5625 C 29.582031 25.5625 30 25.984375 30 26.5 L 30 27.1875 L 30.9375 27.1875 C 31.457031 27.1875 31.875 27.605469 31.875 28.125 C 31.875 28.644531 31.457031 29.0625 30.9375 29.0625 Z M 30.9375 29.0625 "/>
<path style=" stroke:none;fill-rule:nonzero;fill:rgb(96.470588%,73.333333%,57.254902%);fill-opacity:1;" d="M 20.976562 20.375 L 19.328125 20.375 C 17.972656 20.375 16.875 21.472656 16.875 22.828125 L 16.875 24.480469 C 16.875 24.863281 16.964844 25.238281 17.132812 25.578125 C 17.550781 26.410156 18.398438 26.9375 19.328125 26.9375 L 21.09375 26.9375 Z M 20.976562 20.375 "/>
<path style=" stroke:none;fill-rule:nonzero;fill:rgb(96.470588%,73.333333%,57.254902%);fill-opacity:1;" d="M 39.023438 20.375 L 40.671875 20.375 C 42.027344 20.375 43.125 21.472656 43.125 22.828125 L 43.125 24.480469 C 43.125 24.863281 43.035156 25.238281 42.867188 25.578125 C 42.449219 26.410156 41.601562 26.9375 40.671875 26.9375 L 38.90625 26.9375 Z M 39.023438 20.375 "/>
<path style=" stroke:none;fill-rule:nonzero;fill:rgb(40.784314%,23.137255%,5.098039%);fill-opacity:1;" d="M 29.0625 28.125 L 30.9375 28.125 C 33.007812 28.125 34.6875 29.804688 34.6875 31.875 L 25.3125 31.875 C 25.3125 29.804688 26.992188 28.125 29.0625 28.125 Z M 29.0625 28.125 "/>
<path style=" stroke:none;fill-rule:nonzero;fill:rgb(40.784314%,23.137255%,5.098039%);fill-opacity:1;" d="M 39.375 21.5625 L 39.257812 21.089844 C 38.730469 18.980469 37.433594 17.144531 35.625 15.9375 L 35.601562 15.945312 C 32.519531 17.179688 29.234375 17.816406 25.914062 17.828125 L 21.910156 17.84375 C 19.988281 17.851562 18.226562 16.769531 17.363281 15.050781 L 17.273438 14.871094 C 16.441406 13.214844 16.601562 11.234375 17.683594 9.730469 L 17.75 9.636719 C 19.5625 7.113281 22.480469 5.621094 25.585938 5.621094 C 26.667969 5.625 27.800781 5.625 28.835938 5.625 C 31.382812 5.625 33.824219 6.636719 35.625 8.4375 L 36.003906 8.4375 C 37.492188 8.433594 38.855469 9.269531 39.519531 10.601562 L 39.554688 10.675781 C 40.648438 12.859375 40.925781 15.363281 40.332031 17.734375 C 39.855469 19.632812 39.375 21.5625 39.375 21.5625 Z M 39.375 21.5625 "/>
<path style=" stroke:none;fill-rule:nonzero;fill:rgb(79.607843%,79.607843%,79.607843%);fill-opacity:1;" d="M 26.25 45.9375 L 30 48.75 L 33.75 45.9375 L 30 43.8125 Z M 26.25 45.9375 "/>
<path style=" stroke:none;fill-rule:nonzero;fill:rgb(76.470588%,51.372549%,14.509804%);fill-opacity:1;" d="M 41.976562 43.707031 L 30 53.4375 L 18.023438 43.707031 L 22.058594 41.6875 L 30 48.75 L 38.488281 41.960938 Z M 41.976562 43.707031 "/>
<path style=" stroke:none;fill-rule:nonzero;fill:rgb(91.764706%,91.764706%,90.980392%);fill-opacity:1;" d="M 24.375 39.375 L 30 43.8125 L 22.5 49.6875 L 21.5625 41.9375 Z M 24.375 39.375 "/>
<path style=" stroke:none;fill-rule:nonzero;fill:rgb(91.764706%,91.764706%,90.980392%);fill-opacity:1;" d="M 35.625 39.375 L 30 43.8125 L 37.5 49.6875 L 38.4375 41.9375 Z M 35.625 39.375 "/>
</g>
</svg>
