<?xml version="1.0" encoding="UTF-8"?>
<svg xmlns="http://www.w3.org/2000/svg" xmlns:xlink="http://www.w3.org/1999/xlink" width="60pt" height="60pt" viewBox="0 0 60 60" version="1.1">
<g id="surface1">
<path style=" stroke:none;fill-rule:nonzero;fill:rgb(32.156863%,71.764706%,53.333333%);fill-opacity:1;" d="M 40.4375 43.9375 C 40.6875 43.410156 40.527344 42.78125 40.0625 42.425781 L 34.085938 37.914062 L 37.308594 34.507812 L 44.734375 41.535156 C 46.277344 42.992188 46.34375 45.421875 44.886719 46.960938 C 43.851562 48.054688 42.128906 48.101562 41.035156 47.066406 C 40.183594 46.261719 39.945312 45 40.4375 43.9375 Z M 40.4375 43.9375 "/>
<path style=" stroke:none;fill-rule:nonzero;fill:rgb(32.156863%,71.764706%,53.333333%);fill-opacity:1;" d="M 19.5625 43.9375 C 19.3125 43.410156 19.472656 42.78125 19.9375 42.425781 L 25.914062 37.914062 L 22.691406 34.507812 L 15.265625 41.535156 C 13.722656 42.992188 13.65625 45.421875 15.113281 46.960938 C 16.148438 48.054688 17.871094 48.101562 18.964844 47.066406 C 19.816406 46.261719 20.054688 45 19.5625 43.9375 Z M 19.5625 43.9375 "/>
<path style=" stroke:none;fill-rule:nonzero;fill:rgb(25.098039%,56.862745%,42.352941%);fill-opacity:1;" d="M 42.777344 44.507812 C 42.992188 43.652344 42.742188 42.742188 42.117188 42.117188 L 41.429688 41.429688 C 40.53125 40.53125 40.476562 39.148438 41.183594 38.175781 L 37.308594 34.511719 L 34.085938 37.917969 L 40.0625 42.429688 C 40.527344 42.78125 40.6875 43.410156 40.441406 43.941406 C 39.945312 45.003906 40.1875 46.261719 41.039062 47.070312 C 41.933594 47.914062 43.246094 48.023438 44.261719 47.4375 C 43.125 46.964844 42.472656 45.734375 42.777344 44.507812 Z M 42.777344 44.507812 "/>
<path style=" stroke:none;fill-rule:nonzero;fill:rgb(25.098039%,56.862745%,42.352941%);fill-opacity:1;" d="M 17.222656 44.507812 C 17.007812 43.652344 17.257812 42.742188 17.882812 42.117188 L 18.570312 41.429688 C 19.46875 40.53125 19.523438 39.148438 18.816406 38.175781 L 22.691406 34.511719 L 25.914062 37.917969 L 19.9375 42.429688 C 19.472656 42.78125 19.3125 43.410156 19.558594 43.941406 C 20.054688 45.003906 19.8125 46.261719 18.960938 47.070312 C 18.066406 47.914062 16.753906 48.023438 15.738281 47.4375 C 16.875 46.964844 17.527344 45.734375 17.222656 44.507812 Z M 17.222656 44.507812 "/>
<path style=" stroke:none;fill-rule:nonzero;fill:rgb(32.156863%,71.764706%,53.333333%);fill-opacity:1;" d="M 49.6875 24.84375 C 49.6875 27.171875 48.21875 29.0625 46.40625 29.0625 C 44.59375 29.0625 43.125 27.171875 43.125 24.84375 C 43.125 22.515625 48.28125 19.6875 48.28125 19.6875 C 48.28125 19.6875 49.6875 22.515625 49.6875 24.84375 Z M 49.6875 24.84375 "/>
<path style=" stroke:none;fill-rule:nonzero;fill:rgb(25.098039%,56.862745%,42.352941%);fill-opacity:1;" d="M 49.21875 26.25 C 47.40625 26.25 45.9375 24.359375 45.9375 22.03125 C 45.9375 21.691406 46.054688 21.339844 46.242188 20.988281 C 44.800781 22.027344 43.125 23.515625 43.125 24.84375 C 43.125 27.171875 44.59375 29.0625 46.40625 29.0625 C 47.84375 29.0625 49.050781 27.867188 49.496094 26.214844 C 49.402344 26.226562 49.3125 26.25 49.21875 26.25 Z M 49.21875 26.25 "/>
<path style=" stroke:none;fill-rule:nonzero;fill:rgb(32.156863%,71.764706%,53.333333%);fill-opacity:1;" d="M 10.3125 24.84375 C 10.3125 27.171875 11.78125 29.0625 13.59375 29.0625 C 15.40625 29.0625 16.875 27.171875 16.875 24.84375 C 16.875 22.515625 11.71875 19.6875 11.71875 19.6875 C 11.71875 19.6875 10.3125 22.515625 10.3125 24.84375 Z M 10.3125 24.84375 "/>
<path style=" stroke:none;fill-rule:nonzero;fill:rgb(25.098039%,56.862745%,42.352941%);fill-opacity:1;" d="M 10.78125 26.25 C 12.59375 26.25 14.0625 24.359375 14.0625 22.03125 C 14.0625 21.691406 13.945312 21.339844 13.757812 20.988281 C 15.199219 22.027344 16.875 23.515625 16.875 24.84375 C 16.875 27.171875 15.40625 29.0625 13.59375 29.0625 C 12.15625 29.0625 10.949219 27.867188 10.503906 26.214844 C 10.597656 26.226562 10.6875 26.25 10.78125 26.25 Z M 10.78125 26.25 "/>
<path style=" stroke:none;fill-rule:nonzero;fill:rgb(81.568627%,84.705882%,85.490196%);fill-opacity:1;" d="M 18.75 2.8125 C 19.339844 7.527344 22.140625 11.675781 26.296875 13.984375 L 28.125 15 L 22.5 21.5625 L 20.855469 19.917969 C 16.3125 15.375 15.445312 8.320312 18.75 2.8125 Z M 18.75 2.8125 "/>
<path style=" stroke:none;fill-rule:nonzero;fill:rgb(81.568627%,84.705882%,85.490196%);fill-opacity:1;" d="M 43.125 2.8125 C 42.535156 7.527344 39.734375 11.675781 35.578125 13.984375 L 33.75 15 L 39.375 21.5625 L 41.019531 19.917969 C 45.5625 15.375 46.429688 8.320312 43.125 2.8125 Z M 43.125 2.8125 "/>
<path style=" stroke:none;fill-rule:nonzero;fill:rgb(72.156863%,74.509804%,74.901961%);fill-opacity:1;" d="M 43.125 2.8125 L 43.371094 4.042969 C 43.824219 6.308594 43.679688 8.652344 42.949219 10.84375 C 42.523438 12.117188 41.167969 12.832031 39.875 12.464844 L 38.316406 12.019531 C 37.488281 12.765625 36.574219 13.429688 35.578125 13.984375 L 33.75 15 L 39.375 21.5625 L 41.019531 19.917969 C 45.5625 15.375 46.429688 8.320312 43.125 2.8125 Z M 43.125 2.8125 "/>
<path style=" stroke:none;fill-rule:nonzero;fill:rgb(72.156863%,74.509804%,74.901961%);fill-opacity:1;" d="M 18.75 2.8125 L 18.503906 4.042969 C 18.050781 6.308594 18.195312 8.652344 18.925781 10.84375 C 19.351562 12.117188 20.707031 12.832031 22 12.464844 L 23.558594 12.019531 C 24.386719 12.765625 25.300781 13.429688 26.296875 13.984375 L 28.125 15 L 22.5 21.5625 L 20.855469 19.917969 C 16.3125 15.375 15.445312 8.320312 18.75 2.8125 Z M 18.75 2.8125 "/>
<path style=" stroke:none;fill-rule:nonzero;fill:rgb(100%,70.588235%,1.960784%);fill-opacity:1;" d="M 35.625 37.5 L 24.375 37.5 L 21.917969 47.8125 L 38.082031 47.8125 Z M 35.625 37.5 "/>
<path style=" stroke:none;fill-rule:nonzero;fill:rgb(100%,60.392157%,0.784314%);fill-opacity:1;" d="M 32.785156 45.9375 C 30.585938 45.9375 28.714844 44.765625 27.671875 43.0625 C 30.886719 42.996094 33.839844 41.90625 36.25 40.121094 L 35.625 37.5 L 24.375 37.5 L 21.917969 47.8125 L 38.082031 47.8125 L 37.632812 45.9375 Z M 32.785156 45.9375 "/>
<path style=" stroke:none;fill-rule:nonzero;fill:rgb(25.098039%,56.862745%,42.352941%);fill-opacity:1;" d="M 21.917969 47.8125 L 20.597656 53.363281 C 20.132812 55.3125 21.613281 57.1875 23.621094 57.1875 C 25.136719 57.1875 26.433594 56.089844 26.683594 54.59375 L 27.1875 51.5625 L 32.8125 51.5625 L 33.316406 54.59375 C 33.566406 56.089844 34.863281 57.1875 36.378906 57.1875 C 38.386719 57.1875 39.867188 55.3125 39.402344 53.363281 L 38.082031 47.8125 Z M 21.917969 47.8125 "/>
<path style=" stroke:none;fill-rule:nonzero;fill:rgb(32.156863%,71.764706%,53.333333%);fill-opacity:1;" d="M 32.8125 41.25 C 32.8125 42.804688 31.554688 44.0625 30 44.0625 C 28.445312 44.0625 27.1875 42.804688 27.1875 41.25 C 27.1875 39.695312 28.445312 38.4375 30 38.4375 C 31.554688 38.4375 32.8125 39.695312 32.8125 41.25 Z M 32.8125 41.25 "/>
<path style=" stroke:none;fill-rule:nonzero;fill:rgb(25.098039%,56.862745%,42.352941%);fill-opacity:1;" d="M 32.675781 42.074219 C 32.757812 41.8125 32.8125 41.539062 32.8125 41.25 C 32.8125 39.695312 31.554688 38.4375 30 38.4375 C 28.445312 38.4375 27.1875 39.695312 27.1875 41.25 C 27.1875 41.941406 27.445312 42.5625 27.855469 43.050781 C 29.554688 42.996094 31.171875 42.652344 32.675781 42.074219 Z M 32.675781 42.074219 "/>
<path style=" stroke:none;fill-rule:nonzero;fill:rgb(58.431373%,83.529412%,69.803922%);fill-opacity:1;" d="M 45 26.25 C 45 34.535156 38.285156 41.25 30 41.25 C 21.714844 41.25 15 34.535156 15 26.25 C 15 17.964844 21.714844 11.25 30 11.25 C 38.285156 11.25 45 17.964844 45 26.25 Z M 45 26.25 "/>
<path style=" stroke:none;fill-rule:nonzero;fill:rgb(32.156863%,71.764706%,53.333333%);fill-opacity:1;" d="M 44.980469 27.066406 C 44.550781 34.976562 38.015625 41.25 30 41.25 C 21.710938 41.25 15 34.539062 15 26.25 C 15 20.691406 18.027344 15.835938 22.519531 13.246094 C 22.507812 13.519531 22.5 13.789062 22.5 14.0625 C 22.5 22.351562 29.210938 29.0625 37.5 29.0625 C 40.226562 29.0625 42.777344 28.339844 44.980469 27.066406 Z M 44.980469 27.066406 "/>
<path style=" stroke:none;fill-rule:nonzero;fill:rgb(81.568627%,84.705882%,85.490196%);fill-opacity:1;" d="M 25.3125 29.0625 L 22.96875 33.75 L 27.65625 33.75 Z M 25.3125 29.0625 "/>
<path style=" stroke:none;fill-rule:nonzero;fill:rgb(81.568627%,84.705882%,85.490196%);fill-opacity:1;" d="M 34.6875 29.0625 L 32.34375 33.75 L 37.03125 33.75 Z M 34.6875 29.0625 "/>
<path style=" stroke:none;fill-rule:nonzero;fill:rgb(72.156863%,74.509804%,74.901961%);fill-opacity:1;" d="M 34.6875 29.0625 L 32.34375 33.75 L 37.03125 33.75 C 35.203125 33.226562 34.117188 31.347656 34.578125 29.503906 Z M 34.6875 29.0625 "/>
<path style=" stroke:none;fill-rule:nonzero;fill:rgb(72.156863%,74.509804%,74.901961%);fill-opacity:1;" d="M 25.3125 29.0625 L 22.96875 33.75 L 27.65625 33.75 C 25.828125 33.226562 24.742188 31.347656 25.203125 29.503906 Z M 25.3125 29.0625 "/>
<path style=" stroke:none;fill-rule:nonzero;fill:rgb(91.372549%,94.509804%,94.901961%);fill-opacity:1;" d="M 38.4375 21.5625 C 38.4375 21.5625 34.660156 26.25 30 26.25 C 25.339844 26.25 21.5625 21.5625 21.5625 21.5625 C 21.5625 21.5625 25.339844 16.875 30 16.875 C 34.660156 16.875 38.4375 21.5625 38.4375 21.5625 Z M 38.4375 21.5625 "/>
<path style=" stroke:none;fill-rule:nonzero;fill:rgb(81.568627%,84.705882%,85.490196%);fill-opacity:1;" d="M 31.875 24.375 C 31.609375 24.375 31.347656 24.359375 31.085938 24.332031 C 27.34375 23.914062 26.210938 19.878906 27.675781 17.253906 C 24.144531 18.367188 21.5625 21.5625 21.5625 21.5625 C 21.5625 21.5625 25.339844 26.25 30 26.25 C 34.660156 26.25 38.4375 21.5625 38.4375 21.5625 C 38.4375 21.5625 38.433594 21.554688 38.429688 21.554688 C 36.882812 22.863281 34.523438 24.375 31.875 24.375 Z M 31.875 24.375 "/>
<path style=" stroke:none;fill-rule:nonzero;fill:rgb(39.607843%,41.960784%,46.27451%);fill-opacity:1;" d="M 33.75 20.625 C 33.75 22.695312 32.070312 24.375 30 24.375 C 27.929688 24.375 26.25 22.695312 26.25 20.625 C 26.25 18.554688 27.929688 16.875 30 16.875 C 32.070312 16.875 33.75 18.554688 33.75 20.625 Z M 33.75 20.625 "/>
<path style=" stroke:none;fill-rule:nonzero;fill:rgb(91.372549%,94.509804%,94.901961%);fill-opacity:1;" d="M 33.75 20.625 C 33.75 21.660156 32.910156 22.5 31.875 22.5 C 30.839844 22.5 30 21.660156 30 20.625 C 30 19.589844 30.839844 18.75 31.875 18.75 C 32.910156 18.75 33.75 19.589844 33.75 20.625 Z M 33.75 20.625 "/>
<path style=" stroke:none;fill-rule:nonzero;fill:rgb(72.156863%,74.509804%,74.901961%);fill-opacity:1;" d="M 23.566406 19.59375 C 22.316406 20.628906 21.5625 21.5625 21.5625 21.5625 C 21.5625 21.5625 24.59375 25.308594 28.570312 26.097656 C 26.347656 24.445312 24.601562 22.203125 23.566406 19.59375 Z M 23.566406 19.59375 "/>
<path style=" stroke:none;fill-rule:nonzero;fill:rgb(27.45098%,29.019608%,31.764706%);fill-opacity:1;" d="M 27.351562 17.972656 C 26.671875 18.648438 26.25 19.589844 26.25 20.625 C 26.25 22.695312 27.929688 24.375 30 24.375 C 30.285156 24.375 30.558594 24.335938 30.824219 24.277344 C 27.617188 23.75 26.457031 20.484375 27.351562 17.972656 Z M 27.351562 17.972656 "/>
<path style=" stroke:none;fill-rule:nonzero;fill:rgb(25.098039%,56.862745%,42.352941%);fill-opacity:1;" d="M 38.4375 34.6875 L 21.5625 34.6875 C 21.046875 34.6875 20.625 34.269531 20.625 33.75 C 20.625 33.230469 21.046875 32.8125 21.5625 32.8125 L 38.4375 32.8125 C 38.953125 32.8125 39.375 33.230469 39.375 33.75 C 39.375 34.269531 38.953125 34.6875 38.4375 34.6875 Z M 38.4375 34.6875 "/>
<path style=" stroke:none;fill-rule:nonzero;fill:rgb(25.098039%,56.862745%,42.352941%);fill-opacity:1;" d="M 31.875 38.4375 C 31.734375 38.4375 31.589844 38.40625 31.457031 38.339844 C 30.542969 37.882812 29.457031 37.882812 28.546875 38.339844 C 28.082031 38.570312 27.519531 38.382812 27.285156 37.921875 C 27.054688 37.457031 27.242188 36.894531 27.707031 36.660156 C 29.140625 35.945312 30.859375 35.945312 32.296875 36.660156 C 32.757812 36.894531 32.945312 37.457031 32.714844 37.921875 C 32.550781 38.25 32.21875 38.4375 31.875 38.4375 Z M 31.875 38.4375 "/>
<path style=" stroke:none;fill-rule:nonzero;fill:rgb(32.156863%,71.764706%,53.333333%);fill-opacity:1;" d="M 30.9375 11.277344 L 30.9375 13.125 C 30.9375 13.640625 30.515625 14.0625 30 14.0625 C 29.484375 14.0625 29.0625 13.640625 29.0625 13.125 L 29.0625 11.277344 C 29.371094 11.257812 29.679688 11.25 30 11.25 C 30.320312 11.25 30.628906 11.257812 30.9375 11.277344 Z M 30.9375 11.277344 "/>
<path style=" stroke:none;fill-rule:nonzero;fill:rgb(32.156863%,71.764706%,53.333333%);fill-opacity:1;" d="M 34.6875 12 L 34.6875 14.0625 C 34.6875 14.578125 34.265625 15 33.75 15 C 33.234375 15 32.8125 14.578125 32.8125 14.0625 L 32.8125 11.511719 C 33.449219 11.632812 34.078125 11.792969 34.6875 12 Z M 34.6875 12 "/>
<path style=" stroke:none;fill-rule:nonzero;fill:rgb(32.156863%,71.764706%,53.333333%);fill-opacity:1;" d="M 27.1875 11.511719 L 27.1875 14.0625 C 27.1875 14.578125 26.765625 15 26.25 15 C 25.734375 15 25.3125 14.578125 25.3125 14.0625 L 25.3125 12 C 25.921875 11.792969 26.550781 11.632812 27.1875 11.511719 Z M 27.1875 11.511719 "/>
</g>
</svg>
