<?xml version="1.0" encoding="UTF-8"?>
<svg xmlns="http://www.w3.org/2000/svg" xmlns:xlink="http://www.w3.org/1999/xlink" width="60pt" height="60pt" viewBox="0 0 60 60" version="1.1">
<g id="surface1">
<path style=" stroke:none;fill-rule:nonzero;fill:rgb(100%,85.882353%,40%);fill-opacity:1;" d="M 45.097656 23.78125 C 50.078125 15.519531 42.757812 7.496094 42.757812 7.496094 C 42.757812 7.496094 40.589844 5.09375 36.371094 4.863281 L 36.371094 24.308594 Z M 45.097656 23.78125 "/>
<path style=" stroke:none;fill-rule:nonzero;fill:rgb(100%,78.039216%,27.058824%);fill-opacity:1;" d="M 6.539062 53.003906 C 7.058594 52.4375 7.371094 51.683594 7.371094 50.859375 C 7.371094 49.578125 6.609375 48.472656 5.511719 47.972656 L 5.511719 47.011719 C 5.511719 46.527344 5.121094 46.136719 4.632812 46.136719 C 4.148438 46.136719 3.753906 46.527344 3.753906 47.011719 L 3.753906 47.683594 L 3.074219 47.683594 L 3.074219 47.011719 C 3.074219 46.527344 2.679688 46.136719 2.195312 46.136719 C 1.710938 46.136719 1.316406 46.527344 1.316406 47.011719 L 1.316406 47.683594 L 0.878906 47.683594 C 0.394531 47.683594 0 48.078125 0 48.5625 C 0 48.570312 0 48.578125 0 48.585938 C 0 48.59375 0 48.601562 0 48.609375 L 0 57.691406 C 0 57.8125 0.0273438 57.929688 0.0742188 58.039062 C 0.195312 58.375 0.519531 58.613281 0.894531 58.613281 L 1.316406 58.613281 L 1.316406 59.214844 C 1.316406 59.699219 1.710938 60.09375 2.195312 60.09375 C 2.679688 60.09375 3.074219 59.699219 3.074219 59.214844 L 3.074219 58.613281 L 3.753906 58.613281 L 3.753906 59.214844 C 3.753906 59.699219 4.148438 60.09375 4.632812 60.09375 C 5.121094 60.09375 5.511719 59.699219 5.511719 59.214844 L 5.511719 58.449219 C 6.769531 58.023438 7.679688 56.835938 7.679688 55.4375 C 7.679688 54.460938 7.234375 53.585938 6.539062 53.003906 Z M 4.429688 52.261719 L 1.757812 52.261719 L 1.757812 49.441406 L 4.195312 49.441406 C 4.980469 49.441406 5.617188 50.078125 5.617188 50.859375 C 5.617188 51.5625 5.101562 52.148438 4.429688 52.261719 Z M 4.503906 56.855469 L 1.757812 56.855469 L 1.757812 54.039062 L 4.195312 54.039062 C 4.3125 54.039062 4.425781 54.03125 4.539062 54.019531 C 5.304688 54.039062 5.921875 54.667969 5.921875 55.4375 C 5.921875 56.21875 5.285156 56.855469 4.503906 56.855469 Z M 4.503906 56.855469 "/>
<path style=" stroke:none;fill-rule:nonzero;fill:rgb(100%,78.039216%,27.058824%);fill-opacity:1;" d="M 59.976562 25.71875 C 59.976562 24.742188 59.53125 23.867188 58.835938 23.285156 C 59.355469 22.71875 59.667969 21.96875 59.667969 21.144531 C 59.667969 19.863281 58.90625 18.753906 57.808594 18.253906 L 57.808594 17.296875 C 57.808594 16.8125 57.417969 16.417969 56.929688 16.417969 C 56.445312 16.417969 56.050781 16.8125 56.050781 17.296875 L 56.050781 17.96875 L 55.371094 17.96875 L 55.371094 17.296875 C 55.371094 16.8125 54.976562 16.417969 54.492188 16.417969 C 54.007812 16.417969 53.613281 16.8125 53.613281 17.296875 L 53.613281 17.96875 L 53.175781 17.96875 C 52.691406 17.96875 52.296875 18.359375 52.296875 18.84375 C 52.296875 18.851562 52.296875 18.859375 52.296875 18.867188 C 52.296875 18.875 52.296875 18.882812 52.296875 18.890625 L 52.296875 27.972656 C 52.296875 28.097656 52.324219 28.214844 52.371094 28.320312 C 52.492188 28.65625 52.816406 28.894531 53.191406 28.894531 L 53.613281 28.894531 L 53.613281 29.496094 C 53.613281 29.980469 54.007812 30.375 54.492188 30.375 C 54.976562 30.375 55.371094 29.980469 55.371094 29.496094 L 55.371094 28.894531 L 56.050781 28.894531 L 56.050781 29.496094 C 56.050781 29.980469 56.445312 30.375 56.929688 30.375 C 57.417969 30.375 57.808594 29.980469 57.808594 29.496094 L 57.808594 28.730469 C 59.066406 28.308594 59.976562 27.117188 59.976562 25.71875 Z M 56.726562 22.542969 L 54.054688 22.542969 L 54.054688 19.722656 L 56.492188 19.722656 C 57.277344 19.722656 57.914062 20.359375 57.914062 21.144531 C 57.914062 21.847656 57.398438 22.429688 56.726562 22.542969 Z M 56.800781 27.136719 L 54.054688 27.136719 L 54.054688 24.320312 L 56.492188 24.320312 C 56.609375 24.320312 56.722656 24.3125 56.835938 24.300781 C 57.601562 24.320312 58.21875 24.949219 58.21875 25.71875 C 58.21875 26.5 57.582031 27.136719 56.800781 27.136719 Z M 56.800781 27.136719 "/>
<path style=" stroke:none;fill-rule:nonzero;fill:rgb(100%,89.411765%,76.078431%);fill-opacity:1;" d="M 17.445312 23.328125 L 16.847656 23.328125 C 14.910156 23.328125 13.339844 24.898438 13.339844 26.835938 C 13.339844 28.773438 14.910156 30.34375 16.847656 30.34375 L 43.128906 30.34375 C 45.066406 30.34375 46.636719 28.773438 46.636719 26.835938 C 46.636719 24.898438 45.066406 23.328125 43.128906 23.328125 Z M 17.445312 23.328125 "/>
<path style=" stroke:none;fill-rule:nonzero;fill:rgb(100%,85.882353%,67.843137%);fill-opacity:1;" d="M 43.128906 23.328125 L 37.972656 23.328125 C 39.910156 23.328125 41.480469 24.898438 41.480469 26.835938 C 41.480469 28.773438 39.910156 30.34375 37.972656 30.34375 L 43.128906 30.34375 C 45.066406 30.34375 46.636719 28.773438 46.636719 26.835938 C 46.636719 24.898438 45.066406 23.328125 43.128906 23.328125 Z M 43.128906 23.328125 "/>
<path style=" stroke:none;fill-rule:nonzero;fill:rgb(100%,89.411765%,76.078431%);fill-opacity:1;" d="M 33.941406 39.835938 L 33.941406 39.851562 C 33.941406 42.417969 35.589844 44.695312 38.027344 45.507812 C 38.480469 45.660156 38.972656 45.816406 39.488281 46.011719 C 41.550781 46.789062 42.171875 47.144531 43.234375 47.921875 C 45.304688 49.433594 46.527344 51.933594 46.527344 54.691406 L 46.527344 59.214844 L 13.449219 59.214844 L 13.449219 54.691406 C 13.449219 50.753906 16.035156 47.378906 19.628906 46.328125 C 20.316406 46.125 21.035156 45.90625 21.730469 45.6875 C 24.289062 44.886719 26.035156 42.515625 26.035156 39.835938 L 26.035156 36.957031 L 33.941406 36.957031 Z M 33.941406 39.835938 "/>
<path style=" stroke:none;fill-rule:nonzero;fill:rgb(100%,85.882353%,67.843137%);fill-opacity:1;" d="M 43.234375 47.921875 C 42.171875 47.144531 41.550781 46.789062 39.488281 46.011719 C 38.972656 45.816406 38.480469 45.660156 38.023438 45.507812 C 35.589844 44.695312 33.941406 42.417969 33.941406 39.851562 L 33.941406 39.835938 C 33.941406 38.65625 33.941406 36.957031 33.941406 36.957031 L 28.789062 36.957031 L 28.789062 39.851562 C 28.789062 42.417969 30.433594 44.695312 32.871094 45.507812 C 33.324219 45.660156 33.816406 45.816406 34.332031 46.011719 C 36.394531 46.789062 37.019531 47.144531 38.082031 47.921875 C 40.148438 49.433594 41.371094 51.933594 41.371094 54.691406 L 41.371094 59.214844 L 46.527344 59.214844 C 46.527344 59.214844 46.527344 56.125 46.527344 54.691406 C 46.527344 51.933594 45.304688 49.433594 43.234375 47.921875 Z M 43.234375 47.921875 "/>
<path style=" stroke:none;fill-rule:nonzero;fill:rgb(100%,89.411765%,76.078431%);fill-opacity:1;" d="M 17.703125 19.445312 C 17.636719 19.445312 17.699219 19.96875 17.699219 20.039062 L 17.699219 27.882812 C 17.699219 34.667969 23.203125 40.167969 29.988281 40.167969 C 36.773438 40.167969 42.277344 34.667969 42.277344 27.882812 L 42.277344 20.039062 C 42.277344 19.96875 42.273438 19.898438 42.273438 19.828125 C 42.273438 16.855469 41.035156 14.003906 38.65625 12.769531 C 38.65625 12.769531 30.691406 19.328125 17.703125 19.445312 Z M 17.703125 19.445312 "/>
<path style=" stroke:none;fill-rule:nonzero;fill:rgb(100%,85.882353%,67.843137%);fill-opacity:1;" d="M 42.273438 19.832031 C 42.273438 16.855469 41.035156 14.003906 38.65625 12.769531 C 38.65625 12.769531 37.613281 13.628906 35.667969 14.726562 C 36.625 16.132812 37.117188 17.957031 37.117188 19.832031 C 37.117188 19.898438 37.121094 19.96875 37.121094 20.039062 L 37.121094 27.882812 C 37.121094 33.785156 32.960938 38.714844 27.410156 39.898438 C 28.242188 40.074219 29.101562 40.167969 29.988281 40.167969 C 36.773438 40.167969 42.277344 34.667969 42.277344 27.882812 L 42.277344 20.039062 C 42.277344 19.96875 42.273438 19.898438 42.273438 19.832031 Z M 42.273438 19.832031 "/>
<path style=" stroke:none;fill-rule:nonzero;fill:rgb(100%,78.039216%,27.058824%);fill-opacity:1;" d="M 14.117188 24.308594 C 14.117188 24.308594 10.808594 17.253906 15.167969 9.898438 C 23.371094 -3.925781 43.988281 2.871094 43.988281 2.871094 C 42.113281 19.269531 17.757812 19.488281 17.757812 19.488281 L 17.757812 24.835938 L 14.761719 24.484375 "/>
<path style=" stroke:none;fill-rule:nonzero;fill:rgb(53.72549%,52.54902%,67.843137%);fill-opacity:1;" d="M 19.945312 25.03125 C 19.945312 27.339844 21.820312 29.214844 24.128906 29.214844 C 26.4375 29.214844 28.3125 27.339844 28.3125 25.03125 L 28.3125 22.914062 L 19.945312 22.914062 Z M 19.945312 25.03125 "/>
<path style=" stroke:none;fill-rule:nonzero;fill:rgb(53.72549%,52.54902%,67.843137%);fill-opacity:1;" d="M 31.664062 25.03125 C 31.664062 27.339844 33.539062 29.214844 35.847656 29.214844 C 38.15625 29.214844 40.03125 27.339844 40.03125 25.03125 L 40.03125 22.914062 L 31.664062 22.914062 Z M 31.664062 25.03125 "/>
<path style=" stroke:none;fill-rule:nonzero;fill:rgb(49.411765%,47.843137%,63.921569%);fill-opacity:1;" d="M 36.164062 22.914062 L 36.164062 25.03125 C 36.164062 26.644531 35.25 28.042969 33.914062 28.738281 C 34.492188 29.042969 35.148438 29.214844 35.847656 29.214844 C 38.15625 29.214844 40.03125 27.339844 40.03125 25.03125 L 40.03125 22.914062 Z M 36.164062 22.914062 "/>
<path style=" stroke:none;fill-rule:nonzero;fill:rgb(53.72549%,52.54902%,67.843137%);fill-opacity:1;" d="M 32.625 23.605469 L 27.292969 23.605469 C 26.808594 23.605469 26.414062 23.996094 26.414062 24.484375 C 26.414062 24.96875 26.808594 25.359375 27.292969 25.359375 L 32.625 25.359375 C 33.109375 25.359375 33.503906 24.96875 33.503906 24.484375 C 33.503906 23.996094 33.109375 23.605469 32.625 23.605469 Z M 32.625 23.605469 "/>
<path style=" stroke:none;fill-rule:nonzero;fill:rgb(82.745098%,81.960784%,92.941176%);fill-opacity:1;" d="M 21.730469 45.6875 C 21.035156 45.90625 20.316406 46.125 19.628906 46.328125 C 18.53125 46.648438 17.527344 47.1875 16.660156 47.894531 L 21.554688 52.480469 L 20.148438 56.8125 L 29.226562 59.214844 L 23.527344 44.777344 C 22.992188 45.171875 22.390625 45.484375 21.730469 45.6875 Z M 21.730469 45.6875 "/>
<path style=" stroke:none;fill-rule:nonzero;fill:rgb(53.72549%,52.54902%,67.843137%);fill-opacity:1;" d="M 21.554688 52.480469 L 16.660156 47.894531 C 14.695312 49.496094 13.449219 51.957031 13.449219 54.691406 L 13.449219 59.214844 L 29.226562 59.214844 L 20.148438 56.8125 Z M 21.554688 52.480469 "/>
<path style=" stroke:none;fill-rule:nonzero;fill:rgb(53.72549%,52.54902%,67.843137%);fill-opacity:1;" d="M 43.257812 47.9375 L 38.421875 52.480469 L 39.828125 56.8125 L 30.75 59.214844 L 46.527344 59.214844 C 46.527344 59.214844 46.527344 56.125 46.527344 54.691406 C 46.527344 51.941406 45.3125 49.453125 43.257812 47.9375 Z M 43.257812 47.9375 "/>
<path style=" stroke:none;fill-rule:nonzero;fill:rgb(49.411765%,47.843137%,63.921569%);fill-opacity:1;" d="M 43.257812 47.9375 L 40.394531 50.625 C 41.027344 51.835938 41.371094 53.226562 41.371094 54.691406 L 41.371094 59.214844 L 46.527344 59.214844 C 46.527344 59.214844 46.527344 56.125 46.527344 54.691406 C 46.527344 51.941406 45.3125 49.453125 43.257812 47.9375 Z M 43.257812 47.9375 "/>
<path style=" stroke:none;fill-rule:nonzero;fill:rgb(82.745098%,81.960784%,92.941176%);fill-opacity:1;" d="M 38.421875 52.480469 L 43.257812 47.9375 C 43.25 47.933594 43.242188 47.925781 43.234375 47.921875 C 42.171875 47.144531 41.550781 46.789062 39.488281 46.011719 C 38.972656 45.816406 38.480469 45.660156 38.023438 45.507812 C 37.417969 45.304688 36.859375 45.011719 36.363281 44.640625 L 30.75 59.214844 L 39.828125 56.8125 Z M 38.421875 52.480469 "/>
<path style=" stroke:none;fill-rule:nonzero;fill:rgb(79.215686%,78.039216%,92.941176%);fill-opacity:1;" d="M 37.621094 45.355469 C 37.609375 45.351562 37.59375 45.34375 37.578125 45.339844 C 37.144531 45.15625 36.742188 44.921875 36.375 44.652344 C 36.371094 44.648438 36.367188 44.644531 36.363281 44.640625 L 35.636719 46.527344 C 36.734375 46.992188 37.285156 47.339844 38.082031 47.921875 C 39.050781 48.632812 39.835938 49.558594 40.394531 50.625 L 43.257812 47.9375 C 43.25 47.933594 43.242188 47.925781 43.234375 47.921875 C 42.171875 47.144531 41.550781 46.789062 39.488281 46.011719 C 38.972656 45.816406 38.480469 45.660156 38.027344 45.507812 C 37.949219 45.480469 37.875 45.457031 37.800781 45.425781 C 37.738281 45.40625 37.679688 45.378906 37.621094 45.355469 Z M 37.621094 45.355469 "/>
<path style=" stroke:none;fill-rule:nonzero;fill:rgb(95.294118%,94.901961%,100%);fill-opacity:1;" d="M 23.546875 44.746094 L 29.871094 49.667969 L 36.3125 44.628906 L 30.808594 59.15625 L 29.285156 59.15625 Z M 23.546875 44.746094 "/>
<path style=" stroke:none;fill-rule:nonzero;fill:rgb(100%,85.882353%,40%);fill-opacity:1;" d="M 30.925781 46.152344 L 36.398438 42.949219 L 36.398438 51.585938 L 30.574219 48.261719 L 29.519531 48.144531 L 23.578125 51.585938 L 23.578125 42.949219 L 28.933594 46.035156 Z M 30.925781 46.152344 "/>
<path style=" stroke:none;fill-rule:nonzero;fill:rgb(100%,78.039216%,27.058824%);fill-opacity:1;" d="M 32.347656 47.265625 C 32.347656 48.609375 31.261719 49.695312 29.921875 49.695312 C 28.578125 49.695312 27.492188 48.609375 27.492188 47.265625 C 27.492188 45.925781 28.578125 44.835938 29.921875 44.835938 C 31.261719 44.835938 32.347656 45.925781 32.347656 47.265625 Z M 32.347656 47.265625 "/>
<path style=" stroke:none;fill-rule:nonzero;fill:rgb(100%,92.941176%,70.196078%);fill-opacity:1;" d="M 48.285156 38.351562 C 48.769531 38.351562 49.164062 37.957031 49.164062 37.472656 L 49.164062 36.25 C 49.164062 35.765625 48.769531 35.371094 48.285156 35.371094 C 47.800781 35.371094 47.40625 35.765625 47.40625 36.25 L 47.40625 37.472656 C 47.40625 37.957031 47.800781 38.351562 48.285156 38.351562 Z M 48.285156 38.351562 "/>
<path style=" stroke:none;fill-rule:nonzero;fill:rgb(100%,92.941176%,70.196078%);fill-opacity:1;" d="M 44.566406 38.957031 L 45.625 39.570312 C 45.765625 39.648438 45.914062 39.6875 46.066406 39.6875 C 46.367188 39.6875 46.664062 39.53125 46.828125 39.246094 C 47.070312 38.828125 46.925781 38.289062 46.503906 38.046875 L 45.445312 37.4375 C 45.023438 37.195312 44.488281 37.335938 44.246094 37.757812 C 44.003906 38.175781 44.148438 38.714844 44.566406 38.957031 Z M 44.566406 38.957031 "/>
<path style=" stroke:none;fill-rule:nonzero;fill:rgb(100%,92.941176%,70.196078%);fill-opacity:1;" d="M 45.675781 40.636719 L 44.613281 41.25 C 44.195312 41.492188 44.050781 42.027344 44.292969 42.449219 C 44.453125 42.730469 44.75 42.886719 45.054688 42.886719 C 45.203125 42.886719 45.355469 42.851562 45.492188 42.769531 L 46.550781 42.15625 C 46.972656 41.914062 47.117188 41.378906 46.875 40.957031 C 46.632812 40.539062 46.09375 40.394531 45.675781 40.636719 Z M 45.675781 40.636719 "/>
<path style=" stroke:none;fill-rule:nonzero;fill:rgb(100%,92.941176%,70.196078%);fill-opacity:1;" d="M 48.378906 41.773438 C 47.894531 41.773438 47.5 42.164062 47.5 42.652344 L 47.5 43.875 C 47.5 44.359375 47.894531 44.753906 48.378906 44.753906 C 48.863281 44.753906 49.257812 44.359375 49.257812 43.875 L 49.257812 42.652344 C 49.257812 42.164062 48.863281 41.773438 48.378906 41.773438 Z M 48.378906 41.773438 "/>
<path style=" stroke:none;fill-rule:nonzero;fill:rgb(100%,92.941176%,70.196078%);fill-opacity:1;" d="M 52.417969 42.367188 C 52.660156 41.945312 52.515625 41.410156 52.09375 41.167969 L 51.035156 40.554688 C 50.617188 40.3125 50.078125 40.457031 49.835938 40.875 C 49.59375 41.296875 49.738281 41.835938 50.15625 42.078125 L 51.21875 42.6875 C 51.355469 42.769531 51.507812 42.804688 51.65625 42.804688 C 51.960938 42.804688 52.253906 42.648438 52.417969 42.367188 Z M 52.417969 42.367188 "/>
<path style=" stroke:none;fill-rule:nonzero;fill:rgb(100%,92.941176%,70.196078%);fill-opacity:1;" d="M 50.550781 39.605469 C 50.699219 39.605469 50.851562 39.566406 50.988281 39.488281 L 52.046875 38.875 C 52.46875 38.632812 52.613281 38.097656 52.371094 37.675781 C 52.128906 37.253906 51.589844 37.113281 51.167969 37.355469 L 50.109375 37.964844 C 49.691406 38.207031 49.546875 38.746094 49.789062 39.167969 C 49.953125 39.449219 50.246094 39.605469 50.550781 39.605469 Z M 50.550781 39.605469 "/>
<path style=" stroke:none;fill-rule:nonzero;fill:rgb(100%,92.941176%,70.196078%);fill-opacity:1;" d="M 4.15625 20.667969 C 4.640625 20.667969 5.035156 20.277344 5.035156 19.789062 L 5.035156 18.566406 C 5.035156 18.082031 4.640625 17.6875 4.15625 17.6875 C 3.671875 17.6875 3.277344 18.082031 3.277344 18.566406 L 3.277344 19.789062 C 3.277344 20.277344 3.671875 20.667969 4.15625 20.667969 Z M 4.15625 20.667969 "/>
<path style=" stroke:none;fill-rule:nonzero;fill:rgb(100%,92.941176%,70.196078%);fill-opacity:1;" d="M 0.4375 21.273438 L 1.5 21.886719 C 1.636719 21.964844 1.789062 22.003906 1.9375 22.003906 C 2.242188 22.003906 2.535156 21.847656 2.699219 21.566406 C 2.941406 21.144531 2.796875 20.605469 2.378906 20.363281 L 1.316406 19.753906 C 0.898438 19.511719 0.359375 19.652344 0.117188 20.074219 C -0.125 20.496094 0.0195312 21.03125 0.4375 21.273438 Z M 0.4375 21.273438 "/>
<path style=" stroke:none;fill-rule:nonzero;fill:rgb(100%,92.941176%,70.196078%);fill-opacity:1;" d="M 1.546875 22.953125 L 0.488281 23.566406 C 0.0664062 23.808594 -0.078125 24.34375 0.164062 24.765625 C 0.328125 25.046875 0.621094 25.203125 0.925781 25.203125 C 1.074219 25.203125 1.226562 25.167969 1.363281 25.085938 L 2.425781 24.476562 C 2.84375 24.230469 2.988281 23.695312 2.746094 23.273438 C 2.503906 22.855469 1.964844 22.710938 1.546875 22.953125 Z M 1.546875 22.953125 "/>
<path style=" stroke:none;fill-rule:nonzero;fill:rgb(100%,92.941176%,70.196078%);fill-opacity:1;" d="M 4.25 24.089844 C 3.765625 24.089844 3.371094 24.484375 3.371094 24.96875 L 3.371094 26.191406 C 3.371094 26.675781 3.765625 27.070312 4.25 27.070312 C 4.734375 27.070312 5.128906 26.675781 5.128906 26.191406 L 5.128906 24.96875 C 5.128906 24.484375 4.734375 24.089844 4.25 24.089844 Z M 4.25 24.089844 "/>
<path style=" stroke:none;fill-rule:nonzero;fill:rgb(100%,92.941176%,70.196078%);fill-opacity:1;" d="M 7.527344 25.125 C 7.832031 25.125 8.128906 24.964844 8.289062 24.683594 C 8.53125 24.261719 8.386719 23.726562 7.96875 23.484375 L 6.910156 22.871094 C 6.488281 22.628906 5.949219 22.773438 5.707031 23.191406 C 5.464844 23.613281 5.609375 24.152344 6.03125 24.394531 L 7.089844 25.003906 C 7.226562 25.085938 7.378906 25.125 7.527344 25.125 Z M 7.527344 25.125 "/>
<path style=" stroke:none;fill-rule:nonzero;fill:rgb(100%,92.941176%,70.196078%);fill-opacity:1;" d="M 6.421875 21.921875 C 6.570312 21.921875 6.722656 21.886719 6.863281 21.804688 L 7.921875 21.191406 C 8.339844 20.949219 8.484375 20.414062 8.242188 19.992188 C 8 19.574219 7.460938 19.429688 7.042969 19.671875 L 5.984375 20.285156 C 5.5625 20.527344 5.417969 21.0625 5.660156 21.484375 C 5.824219 21.765625 6.121094 21.921875 6.421875 21.921875 Z M 6.421875 21.921875 "/>
<path style=" stroke:none;fill-rule:nonzero;fill:rgb(100%,92.941176%,70.196078%);fill-opacity:1;" d="M 10.480469 36.953125 C 10.96875 36.953125 11.359375 36.558594 11.359375 36.074219 L 11.359375 34.851562 C 11.359375 34.363281 10.96875 33.972656 10.480469 33.972656 C 9.996094 33.972656 9.605469 34.363281 9.605469 34.851562 L 9.605469 36.074219 C 9.605469 36.558594 9.996094 36.953125 10.480469 36.953125 Z M 10.480469 36.953125 "/>
<path style=" stroke:none;fill-rule:nonzero;fill:rgb(100%,92.941176%,70.196078%);fill-opacity:1;" d="M 6.765625 37.558594 L 7.824219 38.167969 C 7.964844 38.25 8.113281 38.285156 8.261719 38.285156 C 8.566406 38.285156 8.863281 38.128906 9.023438 37.847656 C 9.265625 37.425781 9.125 36.890625 8.703125 36.648438 L 7.644531 36.035156 C 7.222656 35.792969 6.6875 35.9375 6.441406 36.355469 C 6.199219 36.777344 6.34375 37.316406 6.765625 37.558594 Z M 6.765625 37.558594 "/>
<path style=" stroke:none;fill-rule:nonzero;fill:rgb(100%,92.941176%,70.196078%);fill-opacity:1;" d="M 7.871094 39.234375 L 6.8125 39.847656 C 6.390625 40.089844 6.246094 40.628906 6.492188 41.046875 C 6.652344 41.328125 6.949219 41.488281 7.253906 41.488281 C 7.402344 41.488281 7.550781 41.449219 7.691406 41.371094 L 8.75 40.757812 C 9.171875 40.515625 9.316406 39.976562 9.070312 39.558594 C 8.828125 39.136719 8.292969 38.992188 7.871094 39.234375 Z M 7.871094 39.234375 "/>
<path style=" stroke:none;fill-rule:nonzero;fill:rgb(100%,92.941176%,70.196078%);fill-opacity:1;" d="M 10.578125 40.371094 C 10.089844 40.371094 9.699219 40.765625 9.699219 41.25 L 9.699219 42.472656 C 9.699219 42.960938 10.089844 43.351562 10.578125 43.351562 C 11.0625 43.351562 11.457031 42.960938 11.457031 42.472656 L 11.457031 41.25 C 11.457031 40.765625 11.0625 40.371094 10.578125 40.371094 Z M 10.578125 40.371094 "/>
<path style=" stroke:none;fill-rule:nonzero;fill:rgb(100%,92.941176%,70.196078%);fill-opacity:1;" d="M 14.292969 39.765625 L 13.234375 39.152344 C 12.8125 38.910156 12.277344 39.054688 12.035156 39.476562 C 11.792969 39.894531 11.933594 40.433594 12.355469 40.675781 L 13.414062 41.289062 C 13.554688 41.367188 13.703125 41.40625 13.855469 41.40625 C 14.15625 41.40625 14.453125 41.25 14.617188 40.964844 C 14.859375 40.546875 14.714844 40.007812 14.292969 39.765625 Z M 14.292969 39.765625 "/>
<path style=" stroke:none;fill-rule:nonzero;fill:rgb(100%,92.941176%,70.196078%);fill-opacity:1;" d="M 12.75 38.207031 C 12.898438 38.207031 13.046875 38.167969 13.1875 38.085938 L 14.246094 37.476562 C 14.667969 37.234375 14.8125 36.695312 14.566406 36.277344 C 14.324219 35.855469 13.789062 35.710938 13.367188 35.953125 L 12.308594 36.566406 C 11.886719 36.808594 11.746094 37.347656 11.988281 37.765625 C 12.148438 38.046875 12.445312 38.207031 12.75 38.207031 Z M 12.75 38.207031 "/>
<path style=" stroke:none;fill-rule:nonzero;fill:rgb(100%,92.941176%,70.196078%);fill-opacity:1;" d="M 7.203125 3.097656 C 7.6875 3.097656 8.082031 2.703125 8.082031 2.21875 L 8.082031 0.996094 C 8.082031 0.511719 7.6875 0.117188 7.203125 0.117188 C 6.71875 0.117188 6.324219 0.511719 6.324219 0.996094 L 6.324219 2.21875 C 6.324219 2.703125 6.71875 3.097656 7.203125 3.097656 Z M 7.203125 3.097656 "/>
<path style=" stroke:none;fill-rule:nonzero;fill:rgb(100%,92.941176%,70.196078%);fill-opacity:1;" d="M 3.484375 3.703125 L 4.542969 4.316406 C 4.683594 4.394531 4.835938 4.433594 4.984375 4.433594 C 5.285156 4.433594 5.582031 4.277344 5.746094 3.992188 C 5.988281 3.574219 5.84375 3.035156 5.421875 2.792969 L 4.363281 2.183594 C 3.945312 1.9375 3.40625 2.082031 3.164062 2.503906 C 2.921875 2.921875 3.066406 3.460938 3.484375 3.703125 Z M 3.484375 3.703125 "/>
<path style=" stroke:none;fill-rule:nonzero;fill:rgb(100%,92.941176%,70.196078%);fill-opacity:1;" d="M 5.792969 5.703125 C 5.550781 5.285156 5.011719 5.140625 4.59375 5.382812 L 3.53125 5.996094 C 3.113281 6.238281 2.96875 6.773438 3.210938 7.195312 C 3.375 7.476562 3.667969 7.632812 3.972656 7.632812 C 4.121094 7.632812 4.273438 7.597656 4.410156 7.515625 L 5.46875 6.902344 C 5.890625 6.660156 6.035156 6.125 5.792969 5.703125 Z M 5.792969 5.703125 "/>
<path style=" stroke:none;fill-rule:nonzero;fill:rgb(100%,92.941176%,70.196078%);fill-opacity:1;" d="M 7.296875 6.519531 C 6.8125 6.519531 6.417969 6.910156 6.417969 7.394531 L 6.417969 8.621094 C 6.417969 9.105469 6.8125 9.5 7.296875 9.5 C 7.78125 9.5 8.175781 9.105469 8.175781 8.621094 L 8.175781 7.394531 C 8.175781 6.910156 7.78125 6.519531 7.296875 6.519531 Z M 7.296875 6.519531 "/>
<path style=" stroke:none;fill-rule:nonzero;fill:rgb(100%,92.941176%,70.196078%);fill-opacity:1;" d="M 11.015625 5.914062 L 9.953125 5.300781 C 9.535156 5.058594 8.996094 5.203125 8.753906 5.621094 C 8.511719 6.042969 8.65625 6.578125 9.074219 6.820312 L 10.136719 7.433594 C 10.273438 7.515625 10.425781 7.550781 10.574219 7.550781 C 10.878906 7.550781 11.171875 7.394531 11.335938 7.113281 C 11.578125 6.691406 11.433594 6.15625 11.015625 5.914062 Z M 11.015625 5.914062 "/>
<path style=" stroke:none;fill-rule:nonzero;fill:rgb(100%,92.941176%,70.196078%);fill-opacity:1;" d="M 9.46875 4.351562 C 9.617188 4.351562 9.769531 4.3125 9.90625 4.234375 L 10.96875 3.621094 C 11.386719 3.378906 11.53125 2.84375 11.289062 2.421875 C 11.046875 2 10.507812 1.859375 10.089844 2.101562 L 9.027344 2.710938 C 8.609375 2.953125 8.464844 3.492188 8.707031 3.914062 C 8.871094 4.195312 9.164062 4.351562 9.46875 4.351562 Z M 9.46875 4.351562 "/>
<path style=" stroke:none;fill-rule:nonzero;fill:rgb(100%,92.941176%,70.196078%);fill-opacity:1;" d="M 51.597656 3.097656 C 52.085938 3.097656 52.476562 2.703125 52.476562 2.21875 L 52.476562 0.996094 C 52.476562 0.511719 52.085938 0.117188 51.597656 0.117188 C 51.113281 0.117188 50.71875 0.511719 50.71875 0.996094 L 50.71875 2.21875 C 50.71875 2.703125 51.113281 3.097656 51.597656 3.097656 Z M 51.597656 3.097656 "/>
<path style=" stroke:none;fill-rule:nonzero;fill:rgb(100%,92.941176%,70.196078%);fill-opacity:1;" d="M 47.882812 3.703125 L 48.941406 4.316406 C 49.078125 4.394531 49.230469 4.433594 49.378906 4.433594 C 49.683594 4.433594 49.980469 4.277344 50.140625 3.992188 C 50.382812 3.574219 50.238281 3.035156 49.820312 2.792969 L 48.761719 2.183594 C 48.339844 1.9375 47.800781 2.082031 47.558594 2.503906 C 47.316406 2.921875 47.460938 3.460938 47.882812 3.703125 Z M 47.882812 3.703125 "/>
<path style=" stroke:none;fill-rule:nonzero;fill:rgb(100%,92.941176%,70.196078%);fill-opacity:1;" d="M 48.988281 5.382812 L 47.929688 5.996094 C 47.507812 6.238281 47.363281 6.773438 47.605469 7.195312 C 47.769531 7.476562 48.066406 7.632812 48.367188 7.632812 C 48.519531 7.632812 48.667969 7.597656 48.808594 7.515625 L 49.867188 6.902344 C 50.289062 6.660156 50.429688 6.125 50.1875 5.703125 C 49.945312 5.285156 49.410156 5.140625 48.988281 5.382812 Z M 48.988281 5.382812 "/>
<path style=" stroke:none;fill-rule:nonzero;fill:rgb(100%,92.941176%,70.196078%);fill-opacity:1;" d="M 51.691406 6.519531 C 51.207031 6.519531 50.8125 6.910156 50.8125 7.394531 L 50.8125 8.621094 C 50.8125 9.105469 51.207031 9.5 51.691406 9.5 C 52.179688 9.5 52.570312 9.105469 52.570312 8.621094 L 52.570312 7.394531 C 52.570312 6.910156 52.179688 6.519531 51.691406 6.519531 Z M 51.691406 6.519531 "/>
<path style=" stroke:none;fill-rule:nonzero;fill:rgb(100%,92.941176%,70.196078%);fill-opacity:1;" d="M 55.730469 7.113281 C 55.972656 6.691406 55.832031 6.15625 55.410156 5.914062 L 54.351562 5.300781 C 53.929688 5.058594 53.394531 5.203125 53.148438 5.621094 C 52.90625 6.042969 53.050781 6.578125 53.472656 6.820312 L 54.53125 7.433594 C 54.671875 7.515625 54.820312 7.550781 54.96875 7.550781 C 55.273438 7.550781 55.570312 7.394531 55.730469 7.113281 Z M 55.730469 7.113281 "/>
<path style=" stroke:none;fill-rule:nonzero;fill:rgb(100%,92.941176%,70.196078%);fill-opacity:1;" d="M 53.863281 4.351562 C 54.015625 4.351562 54.164062 4.3125 54.304688 4.234375 L 55.363281 3.621094 C 55.785156 3.378906 55.925781 2.84375 55.683594 2.421875 C 55.441406 2 54.90625 1.859375 54.484375 2.101562 L 53.425781 2.710938 C 53.003906 2.953125 52.859375 3.492188 53.101562 3.914062 C 53.265625 4.195312 53.5625 4.351562 53.863281 4.351562 Z M 53.863281 4.351562 "/>
<path style=" stroke:none;fill-rule:nonzero;fill:rgb(100%,92.941176%,70.196078%);fill-opacity:1;" d="M 55.726562 53.691406 C 56.210938 53.691406 56.605469 53.300781 56.605469 52.8125 L 56.605469 51.589844 C 56.605469 51.105469 56.210938 50.710938 55.726562 50.710938 C 55.238281 50.710938 54.847656 51.105469 54.847656 51.589844 L 54.847656 52.8125 C 54.847656 53.300781 55.242188 53.691406 55.726562 53.691406 Z M 55.726562 53.691406 "/>
<path style=" stroke:none;fill-rule:nonzero;fill:rgb(100%,92.941176%,70.196078%);fill-opacity:1;" d="M 52.007812 54.296875 L 53.066406 54.910156 C 53.207031 54.988281 53.359375 55.027344 53.507812 55.027344 C 53.808594 55.027344 54.105469 54.871094 54.269531 54.589844 C 54.511719 54.167969 54.367188 53.628906 53.945312 53.386719 L 52.886719 52.777344 C 52.464844 52.535156 51.929688 52.675781 51.6875 53.097656 C 51.445312 53.519531 51.589844 54.054688 52.007812 54.296875 Z M 52.007812 54.296875 "/>
<path style=" stroke:none;fill-rule:nonzero;fill:rgb(100%,92.941176%,70.196078%);fill-opacity:1;" d="M 53.113281 55.976562 L 52.054688 56.589844 C 51.636719 56.832031 51.492188 57.367188 51.734375 57.789062 C 51.898438 58.070312 52.191406 58.226562 52.496094 58.226562 C 52.644531 58.226562 52.796875 58.191406 52.933594 58.109375 L 53.992188 57.5 C 54.414062 57.253906 54.558594 56.71875 54.316406 56.296875 C 54.074219 55.878906 53.535156 55.734375 53.113281 55.976562 Z M 53.113281 55.976562 "/>
<path style=" stroke:none;fill-rule:nonzero;fill:rgb(100%,92.941176%,70.196078%);fill-opacity:1;" d="M 55.820312 57.113281 C 55.335938 57.113281 54.941406 57.503906 54.941406 57.992188 L 54.941406 59.214844 C 54.941406 59.699219 55.335938 60.09375 55.820312 60.09375 C 56.304688 60.09375 56.699219 59.699219 56.699219 59.214844 L 56.699219 57.992188 C 56.699219 57.503906 56.304688 57.113281 55.820312 57.113281 Z M 55.820312 57.113281 "/>
<path style=" stroke:none;fill-rule:nonzero;fill:rgb(100%,92.941176%,70.196078%);fill-opacity:1;" d="M 59.539062 56.507812 L 58.476562 55.894531 C 58.058594 55.652344 57.519531 55.796875 57.277344 56.214844 C 57.035156 56.636719 57.179688 57.175781 57.597656 57.417969 L 58.660156 58.027344 C 58.796875 58.109375 58.949219 58.148438 59.097656 58.148438 C 59.402344 58.148438 59.695312 57.988281 59.859375 57.707031 C 60.101562 57.285156 59.957031 56.75 59.539062 56.507812 Z M 59.539062 56.507812 "/>
<path style=" stroke:none;fill-rule:nonzero;fill:rgb(100%,92.941176%,70.196078%);fill-opacity:1;" d="M 57.992188 54.945312 C 58.140625 54.945312 58.292969 54.910156 58.429688 54.828125 L 59.488281 54.214844 C 59.910156 53.972656 60.054688 53.4375 59.8125 53.015625 C 59.570312 52.597656 59.03125 52.453125 58.613281 52.695312 L 57.550781 53.308594 C 57.132812 53.550781 56.988281 54.085938 57.230469 54.507812 C 57.394531 54.789062 57.6875 54.945312 57.992188 54.945312 Z M 57.992188 54.945312 "/>
</g>
</svg>
