<?xml version="1.0" encoding="UTF-8"?>
<svg xmlns="http://www.w3.org/2000/svg" xmlns:xlink="http://www.w3.org/1999/xlink" width="60pt" height="60pt" viewBox="0 0 60 60" version="1.1">
<defs>
<filter id="alpha" filterUnits="objectBoundingBox" x="0%" y="0%" width="100%" height="100%">
  <feColorMatrix type="matrix" in="SourceGraphic" values="0 0 0 0 1 0 0 0 0 1 0 0 0 0 1 0 0 0 1 0"/>
</filter>
<mask id="mask0">
  <g filter="url(#alpha)">
<rect x="0" y="0" width="60" height="60" style="fill:rgb(0%,0%,0%);fill-opacity:0.14902;stroke:none;"/>
  </g>
</mask>
<clipPath id="clip1">
  <rect x="0" y="0" width="60" height="60"/>
</clipPath>
<g id="surface5" clip-path="url(#clip1)">
<path style=" stroke:none;fill-rule:nonzero;fill:rgb(92.54902%,50.196078%,52.941176%);fill-opacity:1;" d="M 16.554688 27.484375 C 16.554688 29.835938 14.648438 31.742188 12.296875 31.742188 C 9.941406 31.742188 8.035156 29.835938 8.035156 27.484375 C 8.035156 25.132812 9.941406 23.226562 12.296875 23.226562 C 14.648438 23.226562 16.554688 25.132812 16.554688 27.484375 Z M 16.554688 27.484375 "/>
</g>
<mask id="mask1">
  <g filter="url(#alpha)">
<rect x="0" y="0" width="60" height="60" style="fill:rgb(0%,0%,0%);fill-opacity:0.101961;stroke:none;"/>
  </g>
</mask>
<clipPath id="clip2">
  <rect x="0" y="0" width="60" height="60"/>
</clipPath>
<g id="surface8" clip-path="url(#clip2)">
<path style=" stroke:none;fill-rule:nonzero;fill:rgb(0%,0%,0%);fill-opacity:1;" d="M 12.296875 23.226562 C 11.808594 23.226562 11.34375 23.308594 10.90625 23.460938 C 10.867188 23.941406 10.847656 24.433594 10.847656 24.925781 L 10.847656 30.402344 C 10.847656 30.773438 10.859375 31.136719 10.882812 31.5 C 11.324219 31.65625 11.800781 31.742188 12.296875 31.742188 C 14.648438 31.742188 16.554688 29.835938 16.554688 27.484375 C 16.554688 25.132812 14.648438 23.226562 12.296875 23.226562 Z M 12.296875 23.226562 "/>
</g>
<mask id="mask2">
  <g filter="url(#alpha)">
<rect x="0" y="0" width="60" height="60" style="fill:rgb(0%,0%,0%);fill-opacity:0.14902;stroke:none;"/>
  </g>
</mask>
<clipPath id="clip3">
  <rect x="0" y="0" width="60" height="60"/>
</clipPath>
<g id="surface11" clip-path="url(#clip3)">
<path style=" stroke:none;fill-rule:nonzero;fill:rgb(92.54902%,50.196078%,52.941176%);fill-opacity:1;" d="M 51.964844 27.484375 C 51.964844 29.835938 50.058594 31.742188 47.703125 31.742188 C 45.351562 31.742188 43.445312 29.835938 43.445312 27.484375 C 43.445312 25.132812 45.351562 23.226562 47.703125 23.226562 C 50.058594 23.226562 51.964844 25.132812 51.964844 27.484375 Z M 51.964844 27.484375 "/>
</g>
<mask id="mask3">
  <g filter="url(#alpha)">
<rect x="0" y="0" width="60" height="60" style="fill:rgb(0%,0%,0%);fill-opacity:0.101961;stroke:none;"/>
  </g>
</mask>
<clipPath id="clip4">
  <rect x="0" y="0" width="60" height="60"/>
</clipPath>
<g id="surface14" clip-path="url(#clip4)">
<path style=" stroke:none;fill-rule:nonzero;fill:rgb(0%,0%,0%);fill-opacity:1;" d="M 47.703125 23.226562 C 48.191406 23.226562 48.65625 23.308594 49.09375 23.460938 C 49.132812 23.941406 49.152344 24.433594 49.152344 24.925781 L 49.152344 30.402344 C 49.152344 30.773438 49.140625 31.136719 49.117188 31.5 C 48.675781 31.65625 48.199219 31.742188 47.703125 31.742188 C 45.351562 31.742188 43.445312 29.835938 43.445312 27.484375 C 43.445312 25.132812 45.351562 23.226562 47.703125 23.226562 Z M 47.703125 23.226562 "/>
</g>
<mask id="mask4">
  <g filter="url(#alpha)">
<rect x="0" y="0" width="60" height="60" style="fill:rgb(0%,0%,0%);fill-opacity:0.301961;stroke:none;"/>
  </g>
</mask>
<clipPath id="clip5">
  <rect x="0" y="0" width="60" height="60"/>
</clipPath>
<g id="surface17" clip-path="url(#clip5)">
<path style=" stroke:none;fill-rule:nonzero;fill:rgb(0%,0%,0%);fill-opacity:1;" d="M 15.378906 46.820312 C 12.15625 49.976562 10.089844 54.308594 9.871094 59.121094 L 16.554688 59.121094 L 16.554688 46.574219 C 16.144531 46.640625 15.753906 46.722656 15.378906 46.820312 Z M 15.378906 46.820312 "/>
</g>
<mask id="mask5">
  <g filter="url(#alpha)">
<rect x="0" y="0" width="60" height="60" style="fill:rgb(0%,0%,0%);fill-opacity:0.301961;stroke:none;"/>
  </g>
</mask>
<clipPath id="clip6">
  <rect x="0" y="0" width="60" height="60"/>
</clipPath>
<g id="surface20" clip-path="url(#clip6)">
<path style=" stroke:none;fill-rule:nonzero;fill:rgb(0%,0%,0%);fill-opacity:1;" d="M 44.621094 46.820312 C 47.84375 49.976562 49.910156 54.308594 50.128906 59.121094 L 43.445312 59.121094 L 43.445312 46.574219 C 43.855469 46.640625 44.246094 46.722656 44.621094 46.820312 Z M 44.621094 46.820312 "/>
</g>
<mask id="mask6">
  <g filter="url(#alpha)">
<rect x="0" y="0" width="60" height="60" style="fill:rgb(0%,0%,0%);fill-opacity:0.101961;stroke:none;"/>
  </g>
</mask>
<clipPath id="clip7">
  <rect x="0" y="0" width="60" height="60"/>
</clipPath>
<g id="surface23" clip-path="url(#clip7)">
<path style=" stroke:none;fill-rule:nonzero;fill:rgb(0%,0%,0%);fill-opacity:1;" d="M 30 40.730469 C 25.304688 40.730469 21.019531 42.488281 17.769531 45.386719 C 20.847656 48.613281 25.1875 50.628906 30 50.628906 C 34.8125 50.628906 39.152344 48.613281 42.230469 45.386719 C 38.980469 42.488281 34.695312 40.730469 30 40.730469 Z M 30 40.730469 "/>
</g>
</defs>
<g id="surface1">
<path style=" stroke:none;fill-rule:nonzero;fill:rgb(94.901961%,74.509804%,53.72549%);fill-opacity:1;" d="M 16.554688 27.484375 C 16.554688 29.835938 14.648438 31.742188 12.296875 31.742188 C 9.941406 31.742188 8.035156 29.835938 8.035156 27.484375 C 8.035156 25.132812 9.941406 23.226562 12.296875 23.226562 C 14.648438 23.226562 16.554688 25.132812 16.554688 27.484375 Z M 16.554688 27.484375 "/>
<use xlink:href="#surface5" mask="url(#mask0)"/>
<use xlink:href="#surface8" mask="url(#mask1)"/>
<path style=" stroke:none;fill-rule:nonzero;fill:rgb(94.901961%,74.509804%,53.72549%);fill-opacity:1;" d="M 51.964844 27.484375 C 51.964844 29.835938 50.058594 31.742188 47.703125 31.742188 C 45.351562 31.742188 43.445312 29.835938 43.445312 27.484375 C 43.445312 25.132812 45.351562 23.226562 47.703125 23.226562 C 50.058594 23.226562 51.964844 25.132812 51.964844 27.484375 Z M 51.964844 27.484375 "/>
<use xlink:href="#surface11" mask="url(#mask2)"/>
<use xlink:href="#surface14" mask="url(#mask3)"/>
<path style=" stroke:none;fill-rule:nonzero;fill:rgb(22.352941%,25.098039%,28.627451%);fill-opacity:1;" d="M 16.554688 46.574219 C 8.75 47.824219 7.644531 54.804688 7.53125 57.777344 C 7.503906 58.511719 8.09375 59.121094 8.828125 59.121094 L 16.554688 59.121094 Z M 16.554688 46.574219 "/>
<use xlink:href="#surface17" mask="url(#mask4)"/>
<path style=" stroke:none;fill-rule:nonzero;fill:rgb(22.352941%,25.098039%,28.627451%);fill-opacity:1;" d="M 43.445312 46.574219 C 51.25 47.824219 52.355469 54.804688 52.46875 57.777344 C 52.496094 58.511719 51.90625 59.121094 51.171875 59.121094 L 43.445312 59.121094 Z M 43.445312 46.574219 "/>
<use xlink:href="#surface20" mask="url(#mask5)"/>
<path style=" stroke:none;fill-rule:nonzero;fill:rgb(22.352941%,25.098039%,28.627451%);fill-opacity:1;" d="M 48.390625 59.121094 C 48.390625 48.964844 40.15625 40.730469 30 40.730469 C 19.84375 40.730469 11.609375 48.964844 11.609375 59.121094 Z M 48.390625 59.121094 "/>
<path style=" stroke:none;fill-rule:nonzero;fill:rgb(90.980392%,90.980392%,90.980392%);fill-opacity:1;" d="M 37.617188 48.109375 L 22.382812 48.109375 L 25.121094 59.121094 L 34.878906 59.121094 Z M 37.617188 48.109375 "/>
<path style=" stroke:none;fill-rule:nonzero;fill:rgb(89.019608%,39.607843%,40%);fill-opacity:1;" d="M 31.371094 46.375 L 28.625 46.375 L 27.820312 59.121094 L 32.175781 59.121094 Z M 31.371094 46.375 "/>
<path style=" stroke:none;fill-rule:nonzero;fill:rgb(100%,100%,100%);fill-opacity:1;" d="M 20.945312 43.640625 L 19.40625 50.25 C 19.222656 51.042969 19.988281 51.726562 20.753906 51.449219 L 30 48.109375 Z M 20.945312 43.640625 "/>
<path style=" stroke:none;fill-rule:nonzero;fill:rgb(100%,100%,100%);fill-opacity:1;" d="M 39.054688 43.640625 L 40.59375 50.25 C 40.777344 51.042969 40.007812 51.726562 39.246094 51.449219 L 30 48.109375 Z M 39.054688 43.640625 "/>
<use xlink:href="#surface23" mask="url(#mask6)"/>
<path style=" stroke:none;fill-rule:nonzero;fill:rgb(94.901961%,74.509804%,53.72549%);fill-opacity:1;" d="M 30 7.222656 C 20.222656 7.222656 12.296875 15.148438 12.296875 24.925781 L 12.296875 30.402344 C 12.296875 40.179688 20.222656 48.109375 30 48.109375 C 39.777344 48.109375 47.703125 40.179688 47.703125 30.402344 L 47.703125 24.925781 C 47.703125 15.148438 39.777344 7.222656 30 7.222656 Z M 30 7.222656 "/>
<path style=" stroke:none;fill-rule:nonzero;fill:rgb(92.54902%,50.196078%,52.941176%);fill-opacity:1;" d="M 19.765625 32.933594 L 16.203125 32.933594 C 15.71875 32.933594 15.324219 32.539062 15.324219 32.054688 C 15.324219 31.566406 15.71875 31.175781 16.203125 31.175781 L 19.765625 31.175781 C 20.25 31.175781 20.644531 31.566406 20.644531 32.054688 C 20.644531 32.539062 20.25 32.933594 19.765625 32.933594 Z M 19.765625 32.933594 "/>
<path style=" stroke:none;fill-rule:nonzero;fill:rgb(92.54902%,50.196078%,52.941176%);fill-opacity:1;" d="M 43.796875 32.933594 L 40.234375 32.933594 C 39.75 32.933594 39.355469 32.539062 39.355469 32.054688 C 39.355469 31.566406 39.75 31.175781 40.234375 31.175781 L 43.796875 31.175781 C 44.28125 31.175781 44.675781 31.566406 44.675781 32.054688 C 44.675781 32.539062 44.28125 32.933594 43.796875 32.933594 Z M 43.796875 32.933594 "/>
<path style=" stroke:none;fill-rule:nonzero;fill:rgb(22.352941%,25.098039%,28.627451%);fill-opacity:1;" d="M 38.273438 0.878906 L 21.726562 0.878906 C 20.851562 0.878906 20.144531 1.585938 20.144531 2.460938 L 20.144531 9.285156 L 39.855469 9.285156 L 39.855469 2.460938 C 39.855469 1.585938 39.148438 0.878906 38.273438 0.878906 Z M 38.273438 0.878906 "/>
<path style=" stroke:none;fill-rule:nonzero;fill:rgb(89.019608%,39.607843%,40%);fill-opacity:1;" d="M 39.855469 9.285156 L 39.855469 6.429688 L 20.144531 6.429688 L 20.144531 9.285156 "/>
<path style=" stroke:none;fill-rule:nonzero;fill:rgb(22.352941%,25.098039%,28.627451%);fill-opacity:1;" d="M 42.253906 11.914062 L 17.746094 11.914062 C 17.410156 11.914062 17.140625 11.644531 17.140625 11.308594 L 17.140625 9.890625 C 17.140625 9.558594 17.410156 9.285156 17.746094 9.285156 L 42.253906 9.285156 C 42.585938 9.285156 42.859375 9.558594 42.859375 9.890625 L 42.859375 11.308594 C 42.859375 11.644531 42.589844 11.914062 42.253906 11.914062 Z M 42.253906 11.914062 "/>
<path style=" stroke:none;fill-rule:nonzero;fill:rgb(90.980392%,90.980392%,90.980392%);fill-opacity:1;" d="M 17.8125 15.003906 L 13.007812 15.003906 C 12.363281 15.003906 11.84375 15.523438 11.84375 16.167969 L 11.84375 19.273438 C 11.84375 19.917969 12.363281 20.441406 13.007812 20.441406 L 17.8125 20.441406 C 18.457031 20.441406 18.980469 19.917969 18.980469 19.273438 L 18.980469 16.167969 C 18.980469 15.523438 18.457031 15.003906 17.8125 15.003906 Z M 17.8125 15.003906 "/>
<path style=" stroke:none;fill-rule:nonzero;fill:rgb(90.980392%,90.980392%,90.980392%);fill-opacity:1;" d="M 42.1875 15.003906 L 46.992188 15.003906 C 47.636719 15.003906 48.15625 15.523438 48.15625 16.167969 L 48.15625 19.273438 C 48.15625 19.917969 47.636719 20.441406 46.992188 20.441406 L 42.1875 20.441406 C 41.542969 20.441406 41.019531 19.917969 41.019531 19.273438 L 41.019531 16.167969 C 41.019531 15.523438 41.542969 15.003906 42.1875 15.003906 Z M 42.1875 15.003906 "/>
<path style=" stroke:none;fill-rule:nonzero;fill:rgb(0%,0%,0%);fill-opacity:1;" d="M 41.136719 25.742188 L 41.136719 28.390625 C 41.136719 28.878906 41.53125 29.269531 42.015625 29.269531 C 42.5 29.269531 42.894531 28.878906 42.894531 28.390625 L 42.894531 25.742188 C 42.894531 25.257812 42.5 24.863281 42.015625 24.863281 C 41.53125 24.863281 41.136719 25.257812 41.136719 25.742188 Z M 30 32.96875 C 31.089844 32.96875 32.125 32.441406 32.777344 31.566406 C 33.066406 31.175781 32.984375 30.625 32.59375 30.335938 C 32.207031 30.046875 31.65625 30.128906 31.367188 30.519531 C 31.039062 30.957031 30.542969 31.210938 30 31.210938 C 29.457031 31.210938 28.960938 30.957031 28.632812 30.519531 C 28.34375 30.128906 27.792969 30.046875 27.402344 30.335938 C 27.015625 30.625 26.933594 31.175781 27.222656 31.566406 C 27.875 32.441406 28.910156 32.96875 30 32.96875 Z M 51.609375 51.101562 C 50.304688 48.753906 48.363281 47.132812 45.824219 46.261719 C 46.269531 43.820312 46.507812 41.207031 46.628906 38.695312 C 47.570312 36.808594 48.203125 34.746094 48.457031 32.566406 C 50.933594 32.199219 52.839844 30.0625 52.839844 27.484375 C 52.839844 24.890625 50.910156 22.742188 48.410156 22.398438 C 48.34375 21.914062 48.257812 21.429688 48.15625 20.953125 C 48.6875 20.585938 49.035156 19.96875 49.035156 19.273438 L 49.035156 16.167969 C 49.035156 15.039062 48.117188 14.125 46.992188 14.125 L 45.121094 14.125 C 44.621094 13.425781 44.074219 12.765625 43.484375 12.140625 C 43.644531 11.902344 43.738281 11.617188 43.738281 11.308594 L 43.738281 9.890625 C 43.738281 9.074219 43.070312 8.40625 42.253906 8.40625 L 40.734375 8.40625 L 40.734375 2.460938 C 40.734375 1.101562 39.628906 0 38.273438 0 L 21.726562 0 C 20.371094 0 19.265625 1.101562 19.265625 2.460938 L 19.265625 8.40625 L 17.746094 8.40625 C 16.929688 8.40625 16.261719 9.074219 16.261719 9.890625 L 16.261719 11.308594 C 16.261719 11.617188 16.355469 11.902344 16.515625 12.140625 C 15.925781 12.765625 15.378906 13.425781 14.878906 14.121094 L 13.007812 14.121094 C 11.878906 14.121094 10.964844 15.039062 10.964844 16.167969 L 10.964844 19.273438 C 10.964844 19.96875 11.3125 20.582031 11.84375 20.953125 C 11.742188 21.429688 11.65625 21.914062 11.589844 22.398438 C 9.089844 22.742188 7.160156 24.890625 7.160156 27.484375 C 7.160156 30.0625 9.066406 32.199219 11.542969 32.566406 C 12.085938 37.214844 14.347656 41.347656 17.679688 44.304688 C 17.132812 44.757812 16.613281 45.246094 16.121094 45.757812 C 12.613281 46.390625 10.011719 48.1875 8.390625 51.101562 C 7.074219 53.46875 6.71875 56.019531 6.65625 57.746094 C 6.632812 58.339844 6.847656 58.902344 7.261719 59.332031 C 7.675781 59.761719 8.230469 60 8.828125 60 L 51.171875 60 C 51.769531 60 52.324219 59.761719 52.738281 59.332031 C 53.152344 58.902344 53.367188 58.339844 53.34375 57.746094 C 53.28125 56.019531 52.925781 53.46875 51.609375 51.101562 Z M 51.082031 27.484375 C 51.082031 29.046875 50.019531 30.363281 48.578125 30.75 C 48.582031 30.632812 48.582031 30.519531 48.582031 30.402344 L 48.582031 24.925781 C 48.582031 24.691406 48.578125 24.453125 48.570312 24.21875 C 50.015625 24.601562 51.082031 25.921875 51.082031 27.484375 Z M 11.421875 30.75 C 9.980469 30.363281 8.917969 29.046875 8.917969 27.484375 C 8.917969 25.917969 9.984375 24.601562 11.429688 24.21875 C 11.421875 24.453125 11.417969 24.691406 11.417969 24.925781 L 11.417969 30.402344 C 11.417969 30.519531 11.417969 30.632812 11.421875 30.75 Z M 46.992188 15.882812 C 47.148438 15.882812 47.277344 16.011719 47.277344 16.167969 L 47.277344 19.273438 C 47.277344 19.433594 47.148438 19.5625 46.992188 19.5625 L 42.1875 19.5625 C 42.027344 19.5625 41.898438 19.433594 41.898438 19.273438 L 41.898438 16.167969 C 41.898438 16.011719 42.027344 15.882812 42.1875 15.882812 Z M 21.023438 2.460938 C 21.023438 2.074219 21.339844 1.757812 21.726562 1.757812 L 38.273438 1.757812 C 38.660156 1.757812 38.976562 2.074219 38.976562 2.460938 L 38.976562 8.40625 L 21.023438 8.40625 Z M 18.019531 10.164062 L 41.980469 10.164062 L 41.980469 11.035156 L 18.019531 11.035156 Z M 12.722656 19.273438 L 12.722656 16.167969 C 12.722656 16.011719 12.851562 15.882812 13.007812 15.882812 L 17.8125 15.882812 C 17.972656 15.882812 18.101562 16.011719 18.101562 16.167969 L 18.101562 19.273438 C 18.101562 19.433594 17.972656 19.5625 17.8125 19.5625 L 13.007812 19.5625 C 12.851562 19.5625 12.722656 19.433594 12.722656 19.273438 Z M 13.175781 30.402344 L 13.175781 24.925781 C 13.175781 23.710938 13.304688 22.5 13.5625 21.320312 L 17.8125 21.320312 C 18.941406 21.320312 19.859375 20.402344 19.859375 19.273438 L 19.859375 16.167969 C 19.859375 15.039062 18.941406 14.125 17.8125 14.125 L 17.101562 14.125 C 17.492188 13.660156 17.90625 13.214844 18.34375 12.792969 L 41.65625 12.792969 C 42.09375 13.214844 42.507812 13.660156 42.898438 14.125 L 42.1875 14.125 C 41.058594 14.125 40.140625 15.039062 40.140625 16.167969 L 40.140625 19.273438 C 40.140625 20.402344 41.058594 21.320312 42.1875 21.320312 L 46.4375 21.320312 C 46.695312 22.5 46.824219 23.710938 46.824219 24.925781 L 46.824219 30.402344 C 46.824219 31.015625 46.792969 31.625 46.726562 32.222656 C 46.710938 30.960938 46.683594 29.824219 46.660156 28.878906 C 46.640625 28.101562 46.625 27.488281 46.625 27.066406 C 46.625 24.527344 44.558594 22.457031 42.015625 22.457031 C 39.472656 22.457031 37.40625 24.527344 37.40625 27.066406 C 37.40625 29.609375 39.472656 31.675781 42.015625 31.675781 C 43.125 31.675781 44.144531 31.28125 44.941406 30.625 C 44.984375 32.695312 45.007812 35.394531 44.882812 38.246094 C 42.058594 43.585938 36.445312 47.230469 30 47.230469 C 20.722656 47.230469 13.175781 39.679688 13.175781 30.402344 Z M 44.867188 27.066406 C 44.867188 28.640625 43.589844 29.917969 42.015625 29.917969 C 40.441406 29.917969 39.164062 28.640625 39.164062 27.066406 C 39.164062 25.496094 40.441406 24.214844 42.015625 24.214844 C 43.589844 24.214844 44.867188 25.496094 44.867188 27.066406 Z M 44.640625 41.835938 C 44.515625 43.183594 44.347656 44.523438 44.121094 45.804688 C 44.042969 45.789062 43.960938 45.773438 43.878906 45.757812 C 43.386719 45.246094 42.867188 44.757812 42.320312 44.304688 C 43.164062 43.554688 43.941406 42.726562 44.640625 41.835938 Z M 39.691406 50.59375 C 39.625 50.652344 39.5625 50.628906 39.542969 50.621094 L 33.882812 48.578125 C 35.652344 48.199219 37.328125 47.570312 38.871094 46.730469 L 39.738281 50.449219 C 39.742188 50.472656 39.757812 50.535156 39.691406 50.59375 Z M 26.117188 48.578125 L 20.457031 50.621094 C 20.4375 50.628906 20.375 50.652344 20.308594 50.59375 C 20.242188 50.535156 20.257812 50.472656 20.261719 50.449219 L 21.128906 46.730469 C 22.671875 47.570312 24.347656 48.199219 26.117188 48.578125 Z M 8.828125 58.242188 C 8.675781 58.242188 8.574219 58.160156 8.527344 58.113281 C 8.480469 58.066406 8.40625 57.964844 8.410156 57.8125 C 8.457031 56.554688 8.71875 54.125 9.925781 51.957031 C 10.90625 50.199219 12.324219 48.925781 14.15625 48.15625 C 13.679688 48.84375 13.242188 49.5625 12.859375 50.304688 C 11.597656 52.75 10.878906 55.476562 10.75 58.242188 Z M 12.507812 58.242188 C 12.628906 55.738281 13.273438 53.34375 14.421875 51.113281 C 15.550781 48.925781 17.152344 46.972656 19.082031 45.429688 C 19.234375 45.542969 19.390625 45.652344 19.550781 45.761719 L 18.550781 50.054688 C 18.394531 50.734375 18.621094 51.445312 19.140625 51.910156 C 19.496094 52.222656 19.949219 52.390625 20.40625 52.390625 C 20.625 52.390625 20.84375 52.351562 21.054688 52.277344 L 22.394531 51.792969 L 23.996094 58.242188 Z M 34.191406 58.242188 L 25.808594 58.242188 L 24.054688 51.191406 L 30 49.042969 L 35.945312 51.191406 Z M 36.003906 58.242188 L 37.605469 51.792969 L 38.945312 52.277344 C 39.15625 52.351562 39.375 52.390625 39.59375 52.390625 C 40.050781 52.390625 40.503906 52.222656 40.859375 51.90625 C 41.378906 51.445312 41.605469 50.734375 41.449219 50.054688 L 40.449219 45.761719 C 40.609375 45.652344 40.765625 45.542969 40.917969 45.429688 C 41.917969 46.230469 42.828125 47.136719 43.628906 48.128906 C 43.019531 50.550781 42.140625 52.609375 40.886719 53.894531 L 39.023438 53.894531 C 38.539062 53.894531 38.144531 54.289062 38.144531 54.773438 C 38.144531 55.257812 38.539062 55.652344 39.023438 55.652344 L 43.644531 55.652344 C 44.128906 55.652344 44.523438 55.257812 44.523438 54.773438 C 44.523438 54.289062 44.128906 53.894531 43.644531 53.894531 L 43.128906 53.894531 C 43.863281 52.792969 44.457031 51.457031 44.925781 49.964844 C 45.160156 50.339844 45.375 50.71875 45.578125 51.113281 C 46.726562 53.34375 47.371094 55.738281 47.492188 58.242188 Z M 51.472656 58.113281 C 51.425781 58.160156 51.324219 58.242188 51.171875 58.242188 L 49.25 58.242188 C 49.121094 55.476562 48.402344 52.75 47.140625 50.304688 C 46.757812 49.5625 46.320312 48.84375 45.84375 48.15625 C 47.675781 48.925781 49.09375 50.199219 50.074219 51.957031 C 51.28125 54.125 51.542969 56.554688 51.589844 57.8125 C 51.59375 57.964844 51.519531 58.066406 51.472656 58.113281 Z M 18.863281 28.390625 L 18.863281 25.742188 C 18.863281 25.257812 18.46875 24.863281 17.984375 24.863281 C 17.5 24.863281 17.105469 25.257812 17.105469 25.742188 L 17.105469 28.390625 C 17.105469 28.878906 17.5 29.269531 17.984375 29.269531 C 18.46875 29.269531 18.863281 28.878906 18.863281 28.390625 Z M 18.863281 28.390625 "/>
</g>
</svg>
