<?xml version="1.0" encoding="UTF-8"?>
<svg xmlns="http://www.w3.org/2000/svg" xmlns:xlink="http://www.w3.org/1999/xlink" width="60pt" height="60pt" viewBox="0 0 60 60" version="1.1">
<g id="surface1">
<path style=" stroke:none;fill-rule:nonzero;fill:rgb(43.137255%,43.137255%,43.137255%);fill-opacity:1;" d="M 39.207031 44.386719 L 35.910156 41.601562 L 24.148438 41.601562 L 21.324219 44.386719 L 16.113281 38.480469 L 15.636719 45.660156 L 21.328125 53.789062 L 38.671875 53.789062 L 44.363281 45.660156 L 43.898438 38.648438 Z M 39.207031 44.386719 "/>
<path style=" stroke:none;fill-rule:nonzero;fill:rgb(90.196078%,90.196078%,90.196078%);fill-opacity:1;" d="M 40.546875 58.828125 L 38.671875 53.789062 L 21.328125 53.789062 L 19.453125 58.828125 Z M 40.546875 58.828125 "/>
<path style=" stroke:none;fill-rule:nonzero;fill:rgb(96.078431%,66.666667%,54.901961%);fill-opacity:1;" d="M 42.421875 16.40625 L 17.578125 16.40625 L 16.113281 38.480469 L 21.324219 44.386719 L 24.148438 41.601562 L 35.910156 41.601562 L 39.207031 44.386719 L 43.898438 38.648438 Z M 42.421875 16.40625 "/>
<path style=" stroke:none;fill-rule:nonzero;fill:rgb(90.196078%,90.196078%,90.196078%);fill-opacity:1;" d="M 30 1.171875 C 19.96875 1.171875 11.835938 7.5 11.835938 11.71875 L 48.164062 11.71875 C 48.164062 7.5 40.03125 1.171875 30 1.171875 Z M 30 1.171875 "/>
<path style=" stroke:none;fill-rule:nonzero;fill:rgb(43.137255%,43.137255%,43.137255%);fill-opacity:1;" d="M 49.921875 11.71875 L 10.078125 11.71875 C 8.785156 11.71875 7.734375 12.769531 7.734375 14.0625 C 7.734375 15.355469 8.785156 16.40625 10.078125 16.40625 L 49.921875 16.40625 C 51.214844 16.40625 52.265625 15.355469 52.265625 14.0625 C 52.265625 12.769531 51.214844 11.71875 49.921875 11.71875 Z M 49.921875 11.71875 "/>
<path style=" stroke:none;fill-rule:nonzero;fill:rgb(90.196078%,90.196078%,90.196078%);fill-opacity:1;" d="M 17.578125 16.40625 L 14.765625 58.828125 L 1.171875 58.828125 L 10.078125 16.40625 Z M 17.578125 16.40625 "/>
<path style=" stroke:none;fill-rule:nonzero;fill:rgb(90.196078%,90.196078%,90.196078%);fill-opacity:1;" d="M 42.421875 16.40625 L 45.234375 58.828125 L 58.828125 58.828125 L 49.921875 16.40625 Z M 42.421875 16.40625 "/>
<path style=" stroke:none;fill-rule:nonzero;fill:rgb(0%,0%,0%);fill-opacity:1;" d="M 32.496094 45.199219 C 30.828125 45.867188 29.285156 45.871094 27.773438 45.214844 C 27.179688 44.957031 26.488281 45.226562 26.230469 45.820312 C 25.972656 46.414062 26.242188 47.105469 26.835938 47.363281 C 27.886719 47.820312 28.960938 48.046875 30.058594 48.046875 C 31.144531 48.046875 32.246094 47.824219 33.363281 47.378906 C 33.964844 47.136719 34.257812 46.453125 34.019531 45.855469 C 33.777344 45.253906 33.09375 44.960938 32.496094 45.199219 Z M 32.496094 45.199219 "/>
<path style=" stroke:none;fill-rule:nonzero;fill:rgb(0%,0%,0%);fill-opacity:1;" d="M 10.648438 48.300781 C 10.03125 48.300781 9.515625 48.78125 9.480469 49.398438 C 9.441406 50.042969 9.933594 50.601562 10.578125 50.640625 C 10.601562 50.640625 10.625 50.640625 10.648438 50.640625 C 11.269531 50.640625 11.78125 50.160156 11.820312 49.542969 C 11.859375 48.898438 11.363281 48.339844 10.71875 48.300781 C 10.695312 48.300781 10.671875 48.300781 10.648438 48.300781 Z M 10.648438 48.300781 "/>
<path style=" stroke:none;fill-rule:nonzero;fill:rgb(0%,0%,0%);fill-opacity:1;" d="M 48.183594 49.542969 C 48.21875 50.160156 48.734375 50.640625 49.351562 50.640625 C 49.375 50.640625 49.398438 50.640625 49.421875 50.640625 C 50.066406 50.601562 50.5625 50.042969 50.519531 49.398438 C 50.484375 48.78125 49.96875 48.300781 49.351562 48.300781 C 49.328125 48.300781 49.304688 48.300781 49.28125 48.300781 C 48.636719 48.339844 48.140625 48.898438 48.183594 49.542969 Z M 48.183594 49.542969 "/>
<path style=" stroke:none;fill-rule:nonzero;fill:rgb(0%,0%,0%);fill-opacity:1;" d="M 22.5 23.320312 C 22.539062 23.320312 27.304688 22.847656 27.304688 22.847656 C 27.949219 22.78125 28.417969 22.207031 28.355469 21.5625 C 28.289062 20.917969 27.714844 20.449219 27.070312 20.515625 L 22.382812 20.984375 C 21.738281 21.046875 21.269531 21.621094 21.335938 22.265625 C 21.390625 22.839844 21.917969 23.316406 22.5 23.320312 Z M 22.5 23.320312 "/>
<path style=" stroke:none;fill-rule:nonzero;fill:rgb(0%,0%,0%);fill-opacity:1;" d="M 32.695312 22.847656 C 32.695312 22.847656 37.460938 23.320312 37.5 23.320312 C 38.097656 23.320312 38.605469 22.871094 38.667969 22.265625 C 38.730469 21.621094 38.261719 21.046875 37.617188 20.984375 L 32.929688 20.515625 C 32.285156 20.449219 31.710938 20.917969 31.648438 21.5625 C 31.582031 22.207031 32.050781 22.78125 32.695312 22.847656 Z M 32.695312 22.847656 "/>
<path style=" stroke:none;fill-rule:nonzero;fill:rgb(0%,0%,0%);fill-opacity:1;" d="M 26.09375 37.515625 C 26.292969 37.84375 26.640625 38.085938 27.070312 38.085938 L 32.929688 38.085938 C 33.578125 38.085938 34.101562 37.5625 34.101562 36.914062 C 34.101562 36.265625 33.578125 35.742188 32.929688 35.742188 L 28.980469 35.742188 L 31.089844 31.585938 C 31.175781 31.421875 31.21875 31.238281 31.21875 31.054688 L 31.21875 26.367188 C 31.21875 25.71875 30.695312 25.195312 30.046875 25.195312 C 29.398438 25.195312 28.875 25.71875 28.875 26.367188 L 28.875 30.773438 C 28.875 30.773438 26.035156 36.363281 26.027344 36.382812 C 25.839844 36.746094 25.886719 37.175781 26.09375 37.515625 Z M 26.09375 37.515625 "/>
<path style=" stroke:none;fill-rule:nonzero;fill:rgb(0%,0%,0%);fill-opacity:1;" d="M 59.976562 58.585938 L 51.304688 17.292969 C 52.558594 16.753906 53.4375 15.511719 53.4375 14.0625 C 53.4375 12.125 51.859375 10.546875 49.921875 10.546875 L 49.191406 10.546875 C 48.644531 8.296875 46.597656 5.878906 43.476562 3.878906 C 39.582031 1.375 34.792969 0 30 0 C 25.207031 0 20.417969 1.375 16.523438 3.878906 C 13.40625 5.878906 11.355469 8.296875 10.808594 10.546875 L 10.078125 10.546875 C 8.140625 10.546875 6.5625 12.125 6.5625 14.0625 C 6.5625 15.511719 7.441406 16.753906 8.695312 17.292969 C 8.695312 17.292969 0.0625 58.402344 0.0234375 58.585938 C -0.125 59.296875 0.449219 60 1.171875 60 L 14.765625 60 C 15.382812 60 15.894531 59.519531 15.933594 58.90625 L 16.585938 49.0625 L 20.015625 53.957031 C 20.015625 53.957031 18.363281 58.394531 18.355469 58.417969 C 18.082031 59.148438 18.675781 60 19.453125 60 C 19.453125 60 40.425781 60 40.546875 60 C 41.304688 60 41.929688 59.179688 41.644531 58.417969 L 39.984375 53.957031 L 43.414062 49.058594 L 44.066406 58.90625 C 44.105469 59.519531 44.617188 60 45.234375 60 C 45.234375 60 58.757812 60 58.828125 60 C 59.550781 60 60.121094 59.292969 59.976562 58.585938 Z M 30 2.34375 C 38.722656 2.34375 45.359375 7.210938 46.730469 10.546875 L 13.269531 10.546875 C 14.640625 7.210938 21.277344 2.34375 30 2.34375 Z M 13.667969 57.65625 L 11.324219 57.65625 L 11.535156 54.21875 C 11.574219 53.574219 11.082031 53.019531 10.433594 52.980469 C 9.792969 52.941406 9.234375 53.4375 9.195312 54.078125 L 8.976562 57.65625 L 2.617188 57.65625 L 11.03125 17.578125 L 16.324219 17.578125 Z M 21.140625 57.65625 L 22.144531 54.960938 L 37.859375 54.960938 L 38.859375 57.65625 Z M 38.0625 52.617188 L 21.9375 52.617188 L 16.835938 45.328125 L 17.097656 41.367188 C 17.097656 41.367188 20.4375 45.152344 20.445312 45.160156 C 20.878906 45.648438 21.683594 45.675781 22.148438 45.21875 L 24.628906 42.773438 L 35.484375 42.773438 C 35.484375 42.773438 38.441406 45.273438 38.449219 45.28125 C 38.9375 45.691406 39.707031 45.621094 40.113281 45.125 L 42.921875 41.691406 L 43.164062 45.328125 Z M 17.316406 38.070312 L 18.675781 17.578125 L 41.324219 17.578125 L 42.695312 38.265625 L 39.050781 42.722656 L 36.667969 40.707031 C 36.457031 40.527344 36.1875 40.429688 35.910156 40.429688 L 24.148438 40.429688 C 23.839844 40.429688 23.542969 40.550781 23.324219 40.765625 L 21.382812 42.679688 Z M 10.078125 15.234375 C 9.433594 15.234375 8.90625 14.707031 8.90625 14.0625 C 8.90625 13.417969 9.433594 12.890625 10.078125 12.890625 L 49.921875 12.890625 C 50.566406 12.890625 51.09375 13.417969 51.09375 14.0625 C 51.09375 14.707031 50.566406 15.234375 49.921875 15.234375 Z M 51.023438 57.65625 L 50.804688 54.078125 C 50.765625 53.4375 50.210938 52.941406 49.566406 52.980469 C 48.921875 53.019531 48.429688 53.574219 48.464844 54.21875 L 48.675781 57.65625 L 46.332031 57.65625 L 43.675781 17.578125 L 48.96875 17.578125 L 57.382812 57.65625 Z M 51.023438 57.65625 "/>
<path style=" stroke:none;fill-rule:nonzero;fill:rgb(0%,0%,0%);fill-opacity:1;" d="M 26.015625 26.367188 C 26.015625 27.015625 25.492188 27.539062 24.84375 27.539062 C 24.195312 27.539062 23.671875 27.015625 23.671875 26.367188 C 23.671875 25.71875 24.195312 25.195312 24.84375 25.195312 C 25.492188 25.195312 26.015625 25.71875 26.015625 26.367188 Z M 26.015625 26.367188 "/>
<path style=" stroke:none;fill-rule:nonzero;fill:rgb(0%,0%,0%);fill-opacity:1;" d="M 36.328125 26.367188 C 36.328125 27.015625 35.804688 27.539062 35.15625 27.539062 C 34.507812 27.539062 33.984375 27.015625 33.984375 26.367188 C 33.984375 25.71875 34.507812 25.195312 35.15625 25.195312 C 35.804688 25.195312 36.328125 25.71875 36.328125 26.367188 Z M 36.328125 26.367188 "/>
</g>
</svg>
