<svg xmlns:dc="http://purl.org/dc/elements/1.1/" xmlns:cc="http://creativecommons.org/ns#" xmlns:rdf="http://www.w3.org/1999/02/22-rdf-syntax-ns#" xmlns:svg="http://www.w3.org/2000/svg" xmlns="http://www.w3.org/2000/svg" viewBox="0 0 180 180" width="60" height="60"><metadata><rdf:RDF><cc:Work><dc:format>image/svg+xml</dc:format><dc:type rdf:resource="http://purl.org/dc/dcmitype/StillImage"/><dc:title>Bottts</dc:title><dc:creator><cc:Agent><dc:title>Pablo Stanley</dc:title></cc:Agent></dc:creator><dc:source>https://bottts.com/</dc:source><cc:license rdf:resource="https://bottts.com/"/><dc:contributor><cc:Agent><dc:title>Florian Körner</dc:title></cc:Agent></dc:contributor></cc:Work></rdf:RDF></metadata><rect fill="transparent" width="180" height="180" x="0" y="0"/><g transform="translate(0, 66)"><g opacity="0.9"><path fill-rule="evenodd" clip-rule="evenodd" d="M32.5 41C41.6127 41 49 32.9411 49 23C49 13.0589 41.6127 5 32.5 5C23.3873 5 16 13.0589 16 23C16 32.9411 23.3873 41 32.5 41Z" stroke="#2A3544" stroke-width="6"/><path d="M29.5152 36.7649C22.1017 41.0451 12.5101 38.3112 8.0918 30.6585" stroke="#2A3544" stroke-width="4"/><path fill-rule="evenodd" clip-rule="evenodd" d="M28 67C37.3888 67 45 60.5081 45 52.5C45 44.4919 37.3888 38 28 38C18.6112 38 12 44.4919 12 52.5C12 60.5081 18.6112 67 28 67Z" stroke="#2A3544" stroke-width="4"/><path d="M168.606 60.4234C164.326 53.0099 154.653 50.5817 147 55" stroke="#2A3544" stroke-width="4"/><path fill-rule="evenodd" clip-rule="evenodd" d="M148 38C157.389 38 165 31.0604 165 22.5C165 13.9396 157.389 7 148 7C138.611 7 132 13.9396 132 22.5C132 31.0604 138.611 38 148 38Z" stroke="#2A3544" stroke-width="6"/></g><path fill-rule="evenodd" clip-rule="evenodd" d="M145 0C143.895 0 143 0.89543 143 2V20C143 21.1046 143.895 22 145 22H157C158.105 22 159 21.1046 159 20V2C159 0.895431 158.105 0 157 0H145ZM23 27C21.8954 27 21 27.8954 21 29V47C21 48.1046 21.8954 49 23 49H35C36.1046 49 37 48.1046 37 47V29C37 27.8954 36.1046 27 35 27H23ZM24 60C22.8954 60 22 60.8954 22 62V70C22 71.1046 22.8954 72 24 72H36C37.1046 72 38 71.1046 38 70V62C38 60.8954 37.1046 60 36 60H24ZM143 44C143 42.8954 143.895 42 145 42H157C158.105 42 159 42.8954 159 44V62C159 63.1046 158.105 64 157 64H145C143.895 64 143 63.1046 143 62V44Z" fill="#273951"/><mask id="sidesCables01Mask0" mask-type="alpha" maskUnits="userSpaceOnUse" x="21" y="0" width="138" height="72"><path fill-rule="evenodd" clip-rule="evenodd" d="M145 0C143.895 0 143 0.89543 143 2V20C143 21.1046 143.895 22 145 22H157C158.105 22 159 21.1046 159 20V2C159 0.895431 158.105 0 157 0H145ZM23 27C21.8954 27 21 27.8954 21 29V47C21 48.1046 21.8954 49 23 49H35C36.1046 49 37 48.1046 37 47V29C37 27.8954 36.1046 27 35 27H23ZM24 60C22.8954 60 22 60.8954 22 62V70C22 71.1046 22.8954 72 24 72H36C37.1046 72 38 71.1046 38 70V62C38 60.8954 37.1046 60 36 60H24ZM143 44C143 42.8954 143.895 42 145 42H157C158.105 42 159 42.8954 159 44V62C159 63.1046 158.105 64 157 64H145C143.895 64 143 63.1046 143 62V44Z" fill="white"/></mask><g mask="url(#sidesCables01Mask0)"><rect width="180" height="76" fill="#AB47BC"/></g></g><g transform="translate(41, 0)"><path fill-rule="evenodd" clip-rule="evenodd" d="M53.5683 39L55.5437 34.3851L49.3528 23.7098L52.2483 13.0836L49.3539 12.2949L46.1288 24.1305L52.179 34.5631L50.0881 39H38V52H62V39H53.5683Z" fill="#E6E6E6"/><mask id="topAntennaCrookedMask0" mask-type="alpha" maskUnits="userSpaceOnUse" x="38" y="12" width="24" height="40"><path fill-rule="evenodd" clip-rule="evenodd" d="M53.5683 39L55.5437 34.3851L49.3528 23.7098L52.2483 13.0836L49.3539 12.2949L46.1288 24.1305L52.179 34.5631L50.0881 39H38V52H62V39H53.5683Z" fill="white"/></mask><g mask="url(#topAntennaCrookedMask0)"><rect width="100" height="52" fill="#AB47BC"/><rect x="38" y="39" width="24" height="13" fill="white" fill-opacity="0.2"/></g><path fill-rule="evenodd" clip-rule="evenodd" d="M50 16C54.4183 16 58 12.4183 58 8C58 3.58172 54.4183 0 50 0C45.5817 0 42 3.58172 42 8C42 12.4183 45.5817 16 50 16Z" fill="#FFE65C"/><path fill-rule="evenodd" clip-rule="evenodd" d="M53 8C54.6569 8 56 6.65685 56 5C56 3.34315 54.6569 2 53 2C51.3431 2 50 3.34315 50 5C50 6.65685 51.3431 8 53 8Z" fill="white"/></g><g transform="translate(25, 44)"><path fill-rule="evenodd" clip-rule="evenodd" d="M66 0C124.352 0 130.001 40.6854 130 78C129.999 111.315 104.534 120 66 120C28.5387 120 0 111.315 0 78C0 40.6854 7.64843 0 66 0Z" fill="black" fill-opacity="0.8"/><mask id="faceRound01Mask0" mask-type="alpha" maskUnits="userSpaceOnUse" x="0" y="0" width="130" height="120"><path fill-rule="evenodd" clip-rule="evenodd" d="M66 0C124.352 0 130.001 40.6854 130 78C129.999 111.315 104.534 120 66 120C28.5387 120 0 111.315 0 78C0 40.6854 7.64843 0 66 0Z" fill="white"/></mask><g mask="url(#faceRound01Mask0)"><rect x="-4" y="-2" width="138" height="124" fill="#8E24AA"/> undefined </g></g><g transform="translate(52, 124)"><rect x="28" y="10" width="6" height="14" rx="2" fill="black" fill-opacity="0.6"/><rect x="14" y="10" width="6" height="14" rx="2" fill="black" fill-opacity="0.6"/><rect x="42" y="10" width="6" height="14" rx="2" fill="black" fill-opacity="0.6"/><rect x="56" y="10" width="6" height="14" rx="2" fill="black" fill-opacity="0.6"/></g><g transform="translate(38, 76)"><path fill-rule="evenodd" clip-rule="evenodd" d="M21 45C29.2843 45 36 38.2843 36 30C36 21.7157 29.2843 15 21 15C12.7157 15 6 21.7157 6 30C6 38.2843 12.7157 45 21 45Z" fill="white" fill-opacity="0.1"/><path fill-rule="evenodd" clip-rule="evenodd" d="M83 45C91.2843 45 98 38.2843 98 30C98 21.7157 91.2843 15 83 15C74.7157 15 68 21.7157 68 30C68 38.2843 74.7157 45 83 45Z" fill="white" fill-opacity="0.1"/><path fill-rule="evenodd" clip-rule="evenodd" d="M21 42C27.6274 42 33 36.6274 33 30C33 23.3726 27.6274 18 21 18C14.3726 18 9 23.3726 9 30C9 36.6274 14.3726 42 21 42Z" fill="white" fill-opacity="0.1"/><path fill-rule="evenodd" clip-rule="evenodd" d="M83 42C89.6274 42 95 36.6274 95 30C95 23.3726 89.6274 18 83 18C76.3726 18 71 23.3726 71 30C71 36.6274 76.3726 42 83 42Z" fill="white" fill-opacity="0.1"/><path fill-rule="evenodd" clip-rule="evenodd" d="M21 36C24.3137 36 27 33.3137 27 30C27 26.6863 24.3137 24 21 24C17.6863 24 15 26.6863 15 30C15 33.3137 17.6863 36 21 36Z" fill="white" fill-opacity="0.8"/><path fill-rule="evenodd" clip-rule="evenodd" d="M83 36C86.3137 36 89 33.3137 89 30C89 26.6863 86.3137 24 83 24C79.6863 24 77 26.6863 77 30C77 33.3137 79.6863 36 83 36Z" fill="white" fill-opacity="0.8"/><path fill-rule="evenodd" clip-rule="evenodd" d="M21 33C22.6569 33 24 31.6569 24 30C24 28.3431 22.6569 27 21 27C19.3431 27 18 28.3431 18 30C18 31.6569 19.3431 33 21 33Z" fill="white" fill-opacity="0.8"/><path fill-rule="evenodd" clip-rule="evenodd" d="M83 33C84.6569 33 86 31.6569 86 30C86 28.3431 84.6569 27 83 27C81.3431 27 80 28.3431 80 30C80 31.6569 81.3431 33 83 33Z" fill="white" fill-opacity="0.8"/></g></svg>