<svg xmlns:dc="http://purl.org/dc/elements/1.1/" xmlns:cc="http://creativecommons.org/ns#" xmlns:rdf="http://www.w3.org/1999/02/22-rdf-syntax-ns#" xmlns:svg="http://www.w3.org/2000/svg" xmlns="http://www.w3.org/2000/svg" viewBox="0 0 20 20" shape-rendering="crispEdges" width="60" height="60"><metadata><rdf:RDF><cc:Work><dc:format>image/svg+xml</dc:format><dc:type rdf:resource="http://purl.org/dc/dcmitype/StillImage"/><dc:title>Female / 8biticon</dc:title><dc:creator><cc:Agent><dc:title>Plastic Jam</dc:title></cc:Agent></dc:creator><dc:source>https://github.com/dicebear/dicebear</dc:source><cc:license rdf:resource="https://github.com/dicebear/dicebear/blob/v4/packages/avatars-female-sprites/LICENSE"/><dc:contributor><cc:Agent><dc:title>Florian Körner</dc:title></cc:Agent></dc:contributor></cc:Work></rdf:RDF></metadata><rect fill="transparent" width="20" height="20" x="0" y="0"/><path d="M3 20v-3h1v-1h4v-2H6v-1H5v-1H4v-1H3V9H2V7h1V4h1V3h1V2h10v1h1v1h1v3h1v2h-1v2h-1v1h-1v1h-1v1h-2v2h4v1h1v3H3z" fill="#F5CFA0"/><path d="M14 14v-1h1v-1h1v-1h1V9h1V7h-1V4h-1V3h-1V2H5v1H4v1H3v3H2v2h1v2h1v1h1v1h1v1h8z" fill="#FFF" fill-opacity=".1"/><path d="M5 7h3v3H5V7zm7 0h3v3h-3V7z" fill="#FFF"/><path d="M6 8h1v1H6V8zm7 0h1v1h-1V8z" fill="#5b7c8b"/><path d="M12 7V6h1V5h1v1h1v1h-1V6h-1v1h-1zM5 7V6h1V5h1v1h1v1H7V6H6v1H5z" fill-rule="evenodd" fill="#362e2b"/><path d="M10 11v1H9v1h2v-2h-1z" fill="#d29985"/><path d="M3 20v-3h1v-1h2v1h1v1h1v1h1v1H3zm14 0v-3h-1v-1h-2v1h-1v1h-1v1h-1v1h6z" fill-rule="evenodd" fill="#ffc425"/><path d="M2 10h1V8h1V7h1V6h1V5h1V4h7v1h3V4h-1V3h-1V2H4v1H3v1H2v6z" fill="#4e433f"/></svg>