<svg xmlns:dc="http://purl.org/dc/elements/1.1/" xmlns:cc="http://creativecommons.org/ns#" xmlns:rdf="http://www.w3.org/1999/02/22-rdf-syntax-ns#" xmlns:svg="http://www.w3.org/2000/svg" xmlns="http://www.w3.org/2000/svg" viewBox="0 0 20 20" shape-rendering="crispEdges" width="60" height="60"><metadata><rdf:RDF><cc:Work><dc:format>image/svg+xml</dc:format><dc:type rdf:resource="http://purl.org/dc/dcmitype/StillImage"/><dc:title>Female / 8biticon</dc:title><dc:creator><cc:Agent><dc:title>Plastic Jam</dc:title></cc:Agent></dc:creator><dc:source>https://github.com/dicebear/dicebear</dc:source><cc:license rdf:resource="https://github.com/dicebear/dicebear/blob/v4/packages/avatars-female-sprites/LICENSE"/><dc:contributor><cc:Agent><dc:title>Florian Körner</dc:title></cc:Agent></dc:contributor></cc:Work></rdf:RDF></metadata><rect fill="transparent" width="20" height="20" x="0" y="0"/><path d="M3 20v-3h1v-1h4v-2H6v-1H5v-1H4v-1H3V9H2V7h1V4h1V3h1V2h10v1h1v1h1v3h1v2h-1v2h-1v1h-1v1h-1v1h-2v2h4v1h1v3H3z" fill="#F5CFA0"/><path d="M14 14v-1h1v-1h1v-1h1V9h1V7h-1V4h-1V3h-1V2H5v1H4v1H3v3H2v2h1v2h1v1h1v1h1v1h8z" fill="#FFF" fill-opacity=".1"/><path d="M5 7h3v2H5V7zm7 0h3v2h-3V7z" fill="#FFF"/><path d="M7 8h1v1H7V8zm5 0h1v1h-1V8z" fill="#647b90"/><path d="M4 7V6h1V5h1v1H5v1H4zm10-2h1v1h1v1h-1V6h-1V5z" fill-rule="evenodd" fill="#b09579"/><path d="M8 11v1h1v1h2v-1H9v-1H8z" fill="#db110d"/><path d="M3 20v-3h1v-1h3v1h1v1h1v1h2v-1h1v-1h1v-1h3v1h1v3H3z" fill="#88d8b0"/><path d="M2 14h2V7h1V6h1V5h1V4h1V3h6v1h1v1h1v9h2V3h-1V2h-1V1H4v1H3v1H2v11z" fill="#c9aa8b"/><path d="M2 2v2h16V2h-1V1h-1V0H4v1H3v1H2z" fill="#cc6192"/><path d="M15 0v4h-1V0h1zm-2 0v4h-1V0h1z" fill-rule="evenodd" fill="#FFF" fill-opacity=".2"/></svg>