<svg xmlns:dc="http://purl.org/dc/elements/1.1/" xmlns:cc="http://creativecommons.org/ns#" xmlns:rdf="http://www.w3.org/1999/02/22-rdf-syntax-ns#" xmlns:svg="http://www.w3.org/2000/svg" xmlns="http://www.w3.org/2000/svg" viewBox="0 0 20 20" shape-rendering="crispEdges" width="60" height="60"><metadata><rdf:RDF><cc:Work><dc:format>image/svg+xml</dc:format><dc:type rdf:resource="http://purl.org/dc/dcmitype/StillImage"/><dc:title>Female / 8biticon</dc:title><dc:creator><cc:Agent><dc:title>Plastic Jam</dc:title></cc:Agent></dc:creator><dc:source>https://github.com/dicebear/dicebear</dc:source><cc:license rdf:resource="https://github.com/dicebear/dicebear/blob/v4/packages/avatars-female-sprites/LICENSE"/><dc:contributor><cc:Agent><dc:title>Florian Körner</dc:title></cc:Agent></dc:contributor></cc:Work></rdf:RDF></metadata><rect fill="transparent" width="20" height="20" x="0" y="0"/><path d="M3 20v-3h1v-1h4v-2H6v-1H5v-1H4v-1H3V9H2V7h1V4h1V3h1V2h10v1h1v1h1v3h1v2h-1v2h-1v1h-1v1h-1v1h-2v2h4v1h1v3H3z" fill="#B68655"/><path d="M14 14v-1h1v-1h1v-1h1V9h1V7h-1V4h-1V3h-1V2H5v1H4v1H3v3H2v2h1v2h1v1h1v1h1v1h8z" fill="#FFF" fill-opacity=".1"/><path d="M5 8h3v1H5V8zm7 0h3v1h-3V8z" fill="#FFF"/><path d="M6 8h1v1H6V8zm7 0h1v1h-1V8z" fill="#697b94"/><path d="M7 5h1v1h1v1H8V6H7V5zm6 0v1h-1v1h-1V6h1V5h1z" fill-rule="evenodd" fill="#120e11"/><path d="M8 12v1h1v1h2v-1h1v-1h-1v-1H9v1H8z" fill="#dbac98"/><path d="M9 12v1h2v-1H9z" fill="#FFF" fill-opacity=".2"/><path d="M4 8H3V7h14v1h-1v2h-5V8H9v2H4V8zm1 0h3v1H5V8zm7 0h3v1h-3V8z" fill-rule="evenodd" fill="#4b4b4b"/><path d="M5 8h3v1H5V8zm7 0h3v1h-3V8z" fill-rule="evenodd" fill="#FFF" fill-opacity=".2"/><path d="M7 8v1h1V8H7zm7 0v1h1V8h-1z" fill-rule="evenodd" fill="#FFF" fill-opacity=".2"/><path d="M3 7v1h1V7H3zm13 0v1h1V7h-1zM9 7v1h2V7H9z" fill-rule="evenodd" fill="#FFF" fill-opacity=".2"/><path d="M5 16h1v2h1v1h1v1H5v-4zm9 0h1v4h-3v-1h1v-1h1v-2z" fill-rule="evenodd" fill="#00b159"/><path d="M3 4v3h1V4h2v1h1V4h1v1h1V4h7v3h1V4h1V2h-1V1h-2v1H5V1H3v1H2v2h1z" fill="#2c222b"/></svg>